0
SECTION
2
HEADER
9
$INSUNITS
70
4
9
$ACADVER
1
AC1014
9
$HANDSEED
5
FFFF
0
ENDSEC
0
SECTION
2
TABLES
0
TABLE
2
VPORT
5
8
100
AcDbSymbolTable
0
ENDTAB
0
TABLE
2
LTYPE
5
5
100
AcDbSymbolTable
0
LTYPE
5
14
100
AcDbSymbolTableRecord
100
AcDbLinetypeTableRecord
2
BYBLOCK
70
0
0
LTYPE
5
15
100
AcDbSymbolTableRecord
100
AcDbLinetypeTableRecord
2
BYLAYER
70
0
0
ENDTAB
0
TABLE
2
LAYER
5
2
100
AcDbSymbolTable
70
2
0
LAYER
5
50
100
AcDbSymbolTableRecord
100
AcDbLayerTableRecord
2
0
70
0
6
CONTINUOUS
0
ENDTAB
0
TABLE
2
STYLE
5
3
100
AcDbSymbolTable
70
1
0
STYLE
5
11
100
AcDbSymbolTableRecord
100
AcDbTextStyleTableRecord
2
STANDARD
70
0
0
ENDTAB
0
TABLE
2
VIEW
5
6
100
AcDbSymbolTable
70
0
0
ENDTAB
0
TABLE
2
UCS
5
7
100
AcDbSymbolTable
70
0
0
ENDTAB
0
TABLE
2
APPID
5
9
100
AcDbSymbolTable
70
2
0
APPID
5
12
100
AcDbSymbolTableRecord
100
AcDbRegAppTableRecord
2
ACAD
70
0
0
ENDTAB
0
TABLE
2
DIMSTYLE
5
A
100
AcDbSymbolTable
70
1
0
ENDTAB
0
TABLE
2
BLOCK_RECORD
5
1
100
AcDbSymbolTable
70
1
0
BLOCK_RECORD
5
1F
100
AcDbSymbolTableRecord
100
AcDbBlockTableRecord
2
*MODEL_SPACE
0
BLOCK_RECORD
5
1B
100
AcDbSymbolTableRecord
100
AcDbBlockTableRecord
2
*PAPER_SPACE
0
ENDTAB
0
ENDSEC
0
SECTION
2
BLOCKS
0
BLOCK
5
20
100
AcDbEntity
100
AcDbBlockBegin
2
*MODEL_SPACE
0
ENDBLK
5
21
100
AcDbEntity
100
AcDbBlockEnd
0
BLOCK
5
1C
100
AcDbEntity
100
AcDbBlockBegin
2
*PAPER_SPACE
0
ENDBLK
5
1D
100
AcDbEntity
100
AcDbBlockEnd
0
ENDSEC
0
SECTION
2
ENTITIES
0
LINE
5
100
100
AcDbEntity
8
0
100
AcDbLine
10
-3.2646522408217038
20
-435.49635431154968
30
0
11
-3.264652240821369
21
-445.17881267706821
31
8.1149950472079101e-15
0
ARC
5
101
100
AcDbEntity
8
0
100
AcDbCircle
10
-5.7646522408217038
20
-435.49635431154974
30
0
40
10
210
-0
220
0
230
1
100
AcDbArc
50
270.00000000000034
51
284.47751218593186
0
LINE
5
102
100
AcDbEntity
8
0
100
AcDbLine
10
-5.7646522408216514
20
-445.49635431154974
30
0
11
-5.764652240821631
21
-445.97136168432058
31
3.9810989439933532e-16
0
ARC
5
103
100
AcDbEntity
8
0
100
AcDbCircle
10
-5.7646522408217038
20
-435.49635431154974
30
0
40
10.475007372770861
210
0
220
0
230
1
100
AcDbArc
50
256.40728569201787
51
270.0000000000004
0
LINE
5
104
100
AcDbEntity
8
0
100
AcDbLine
10
-8.226472942358507
20
-445.67796608440227
30
0
11
-20.026384942358497
21
-445.67796608440233
31
-1.0067969387095218e-15
0
LINE
5
105
100
AcDbEntity
8
0
100
AcDbLine
10
-20.026384942358497
20
-445.67796608440233
30
-1.0067969387095218e-15
11
-20.026384942358494
21
-446.67796608440227
31
8.3811308459712929e-16
0
LINE
5
106
100
AcDbEntity
8
0
100
AcDbLine
10
-20.026384942358494
20
-446.67796608440227
30
8.3811308459712929e-16
11
-31.311725043307739
21
-446.67796608440233
31
-9.6289242376820031e-16
0
ARC
5
107
100
AcDbEntity
8
0
100
AcDbCircle
10
-5.7646522408217038
20
-435.49635431154974
30
0
40
27.886939068573259
210
-4.5900218749538741e-32
220
-1.8000979463879182e-32
230
1
100
AcDbArc
50
201.41393632971133
51
203.6383515107814
0
LINE
5
108
100
AcDbEntity
8
0
100
AcDbLine
10
-31.726473292535843
20
-445.67796608440233
30
-1.3749322498423688e-30
11
-43.526385292535821
21
-445.67796608440239
31
-1.0067969387095218e-15
0
LINE
5
109
100
AcDbEntity
8
0
100
AcDbLine
10
-43.526385292535821
20
-445.67796608440239
30
-1.0067969387095218e-15
11
-43.526385292535814
21
-446.67796608440244
31
8.3811308459712968e-16
0
LINE
5
110
100
AcDbEntity
8
0
100
AcDbLine
10
-43.526385292535814
20
-446.67796608440244
30
8.3811308459712968e-16
11
-54.507823359609411
21
-446.6779660844025
31
-9.3696276960013354e-16
0
ARC
5
111
100
AcDbEntity
8
0
100
AcDbCircle
10
-5.7646522408217038
20
-435.49635431154974
30
0
40
50.009250869756258
210
0
220
0
230
1
100
AcDbArc
50
191.74723869506863
51
192.92002992159775
0
LINE
5
112
100
AcDbEntity
8
0
100
AcDbLine
10
-54.726473635262536
20
-445.67796608440244
30
0
11
-66.526473985439836
21
-445.67796608440256
31
-1.0068044769596416e-15
0
LINE
5
113
100
AcDbEntity
8
0
100
AcDbLine
10
-66.526473985439836
20
-446.6779660844025
30
0
11
-66.526473985439836
21
-445.67796608440256
31
-1.0068044769596416e-15
0
LINE
5
114
100
AcDbEntity
8
0
100
AcDbLine
10
-66.526473985439836
20
-446.6779660844025
30
0
11
-78.078913538321686
21
-446.67796608440256
31
-9.8568199292233947e-16
0
ARC
5
115
100
AcDbEntity
8
0
100
AcDbCircle
10
-5.7646522408217038
20
-435.49635431154974
30
0
40
73.173634793154193
210
-1.2206048167359119e-32
220
-1.7150720300517773e-33
230
1
100
AcDbArc
50
187.99826844387505
51
188.78976476215908
0
LINE
5
116
100
AcDbEntity
8
0
100
AcDbLine
10
-78.226473985439824
20
-445.67796608440256
30
-9.0193468408186489e-31
11
-90.026473985433853
21
-445.67796608440261
31
-1.0068044470811601e-15
0
LINE
5
117
100
AcDbEntity
8
0
100
AcDbLine
10
-90.026473985433853
20
-446.67796608440261
30
0
11
-90.026473985433853
21
-445.67796608440261
31
-1.0068044470811601e-15
0
LINE
5
118
100
AcDbEntity
8
0
100
AcDbLine
10
-90.026473985433853
20
-446.67796608440261
30
0
11
-103.41452182063485
21
-446.67796608440267
31
-1.1423005167985237e-15
0
ARC
5
119
100
AcDbEntity
8
0
100
AcDbCircle
10
-5.7646522408217038
20
-435.49635431154974
30
0
40
98.287972157295656
210
3.8311373671663841e-33
220
3.9901262718253394e-34
230
1
100
AcDbArc
50
185.94591349663287
51
186.5323272273624
0
LINE
5
120
100
AcDbEntity
8
0
100
AcDbLine
10
-103.52384747329191
20
-445.67796608440278
30
3.7859149750166917e-31
11
-115.32384747329196
21
-445.67796608440278
31
-1.0068044470816754e-15
0
LINE
5
121
100
AcDbEntity
8
0
100
AcDbLine
10
-115.32384747329196
20
-446.67796608440278
30
0
11
-115.32384747329196
21
-445.67796608440278
31
-1.0068044470816754e-15
0
LINE
5
122
100
AcDbEntity
8
0
100
AcDbLine
10
-115.32384747329196
20
-446.67796608440278
30
0
11
-126.9395926901452
21
-446.67796608440284
31
-9.9108338478775116e-16
0
ARC
5
123
100
AcDbEntity
8
0
100
AcDbCircle
10
-5.7646522408217038
20
-435.49635431154974
30
0
40
121.6897474511962
210
3.0706830888033956e-33
220
2.5782380397596091e-34
230
1
100
AcDbArc
50
184.79946899031029
51
185.27212966866054
0
LINE
5
124
100
AcDbEntity
8
0
100
AcDbLine
10
-127.02771098685042
20
-445.67796608440284
30
3.7498548566588651e-31
11
-138.82779903838113
21
-445.6779660844029
31
-1.0068119598505427e-15
0
LINE
5
125
100
AcDbEntity
8
0
100
AcDbLine
10
-138.82393587336523
20
-446.6779660844029
30
0
11
-138.82779903838113
21
-445.6779660844029
31
-1.0068119598505427e-15
0
LINE
5
126
100
AcDbEntity
8
0
100
AcDbLine
10
-138.82393587336523
20
-446.6779660844029
30
0
11
-150.45390566119806
21
-446.67796608440301
31
-9.9229705947589394e-16
0
ARC
5
127
100
AcDbEntity
8
0
100
AcDbCircle
10
-5.7646522408217038
20
-435.49635431154974
30
0
40
145.12066874565011
210
6.1477888769795574e-33
220
4.3239207569710454e-34
230
1
100
AcDbArc
50
184.0231556276174
51
184.4190450303486
0
LINE
5
128
100
AcDbEntity
8
0
100
AcDbLine
10
-150.52771133702763
20
-445.67796608440295
30
8.9437517275759501e-31
11
-162.32779938855728
21
-445.67796608440301
31
-1.0068119598504518e-15
0
LINE
5
129
100
AcDbEntity
8
0
100
AcDbLine
10
-162.32393622356449
20
-446.67796608440307
30
0
11
-162.32779938855728
21
-445.67796608440301
31
-1.0068119598504518e-15
0
LINE
5
130
100
AcDbEntity
8
0
100
AcDbLine
10
-162.32393622356449
20
-446.67796608440307
30
0
11
-168.18030586139244
21
-446.67796608440307
31
-4.996795758575943e-16
0
ARC
5
131
100
AcDbEntity
8
0
100
AcDbCircle
10
-5.7646522408217038
20
-435.49635431154974
30
0
40
162.80010129860497
210
-1.2325943974539429e-32
220
-1.3750224430629758e-35
230
1
100
AcDbArc
50
180.06391636226815
51
183.9383509823019
0
LINE
5
132
100
AcDbEntity
8
0
100
AcDbLine
10
-168.56465224082172
20
-435.67796608440301
30
-2.0066661762576553e-30
11
-168.56465224082174
21
-425.67796608440301
31
-8.3811308459711734e-15
0
LINE
5
133
100
AcDbEntity
8
0
100
AcDbLine
10
-170.06465224082177
20
-415.67796608440301
30
0
11
-168.56465224082174
21
-425.67796608440301
31
-8.3811308459711734e-15
0
LINE
5
134
100
AcDbEntity
8
0
100
AcDbLine
10
-170.06465224082177
20
-415.67796608440301
30
0
11
-40.300178098261199
21
-415.67796608440239
31
-6.6917506279054108e-15
0
ARC
5
135
100
AcDbEntity
8
0
100
AcDbCircle
10
-40.300178098261021
20
-455.67796608440239
30
0
40
40.000000000000057
210
0
220
-0
230
1
100
AcDbArc
50
30.300840830888426
51
90.000000000000256
0
LINE
5
136
100
AcDbEntity
8
0
100
AcDbLine
10
-5.7646522408217038
20
-435.49635431154974
30
0
11
-3.2646522408217038
21
-435.49635431154968
31
0
0
LINE
5
137
100
AcDbEntity
8
0
100
AcDbLine
10
-171.42645895033814
20
-436.06446852340605
30
0
11
-171.42645895033783
21
-445.74692688892458
31
8.1149950472079101e-15
0
ARC
5
138
100
AcDbEntity
8
0
100
AcDbCircle
10
-173.92645895033814
20
-436.06446852340611
30
0
40
10
210
-0
220
0
230
1
100
AcDbArc
50
270.00000000000017
51
284.4775121859318
0
LINE
5
139
100
AcDbEntity
8
0
100
AcDbLine
10
-173.92645895033812
20
-446.06446852340611
30
0
11
-173.92645895033809
21
-446.53947589617695
31
3.9810989439933517e-16
0
ARC
5
140
100
AcDbEntity
8
0
100
AcDbCircle
10
-173.92645895033814
20
-436.06446852340611
30
0
40
10.47500737277085
210
-2.3174615038390759e-32
220
-9.5845701987519453e-32
230
1
100
AcDbArc
50
256.40728569201804
51
270.00000000000034
0
LINE
5
141
100
AcDbEntity
8
0
100
AcDbLine
10
-176.38827965187491
20
-446.24608029625858
30
-1.0329154747850965e-30
11
-188.18819165187494
21
-446.2460802962587
31
-1.0067969387095218e-15
0
LINE
5
142
100
AcDbEntity
8
0
100
AcDbLine
10
-188.18819165187494
20
-446.2460802962587
30
-1.0067969387095218e-15
11
-188.18819165187494
21
-447.2460802962587
31
8.381130845971289e-16
0
LINE
5
143
100
AcDbEntity
8
0
100
AcDbLine
10
-188.18819165187494
20
-447.2460802962587
30
8.381130845971289e-16
11
-199.47353175282419
21
-447.2460802962587
31
-9.6289242376820031e-16
0
ARC
5
144
100
AcDbEntity
8
0
100
AcDbCircle
10
-173.92645895033814
20
-436.06446852340611
30
0
40
27.886939068573273
210
-4.5900218749538725e-32
220
-1.8000979463879177e-32
230
1
100
AcDbArc
50
201.41393632971125
51
203.6383515107814
0
LINE
5
145
100
AcDbEntity
8
0
100
AcDbLine
10
-199.88828000205231
20
-446.2460802962587
30
-1.3749322498423688e-30
11
-211.68819200205229
21
-446.24608029625875
31
-1.0067969387095218e-15
0
LINE
5
146
100
AcDbEntity
8
0
100
AcDbLine
10
-211.68819200205229
20
-446.24608029625875
30
-1.0067969387095218e-15
11
-211.68819200205229
21
-447.24608029625875
31
8.381130845971289e-16
0
LINE
5
147
100
AcDbEntity
8
0
100
AcDbLine
10
-211.68819200205229
20
-447.24608029625875
30
8.381130845971289e-16
11
-222.66963006912587
21
-447.24608029625881
31
-9.3696276960013354e-16
0
ARC
5
148
100
AcDbEntity
8
0
100
AcDbCircle
10
-173.92645895033814
20
-436.06446852340611
30
0
40
50.009250869756258
210
0
220
0
230
1
100
AcDbArc
50
191.74723869506863
51
192.92002992159766
0
LINE
5
149
100
AcDbEntity
8
0
100
AcDbLine
10
-222.88828034477899
20
-446.24608029625881
30
0
11
-234.68828069495629
21
-446.24608029625892
31
-1.0068044769596416e-15
0
LINE
5
150
100
AcDbEntity
8
0
100
AcDbLine
10
-234.68828069495629
20
-447.24608029625892
30
0
11
-234.68828069495629
21
-446.24608029625892
31
-1.0068044769596416e-15
0
LINE
5
151
100
AcDbEntity
8
0
100
AcDbLine
10
-234.68828069495629
20
-447.24608029625892
30
0
11
-246.24072024783814
21
-447.24608029625898
31
-9.8568199292233947e-16
0
ARC
5
152
100
AcDbEntity
8
0
100
AcDbCircle
10
-173.92645895033814
20
-436.06446852340611
30
0
40
73.173634793154193
210
-1.2206048167359117e-32
220
-1.7150720300517776e-33
230
1
100
AcDbArc
50
187.99826844387502
51
188.78976476215911
0
LINE
5
153
100
AcDbEntity
8
0
100
AcDbLine
10
-246.38828069495628
20
-446.24608029625892
30
-9.0193468408186489e-31
11
-258.18828069495032
21
-446.24608029625904
31
-1.0068044470811601e-15
0
LINE
5
154
100
AcDbEntity
8
0
100
AcDbLine
10
-258.18828069495032
20
-447.24608029625904
30
0
11
-258.18828069495032
21
-446.24608029625904
31
-1.0068044470811601e-15
0
LINE
5
155
100
AcDbEntity
8
0
100
AcDbLine
10
-258.18828069495032
20
-447.24608029625904
30
0
11
-271.57632853015127
21
-447.24608029625915
31
-1.1423005167985237e-15
0
ARC
5
156
100
AcDbEntity
8
0
100
AcDbCircle
10
-173.92645895033814
20
-436.06446852340611
30
0
40
98.287972157295641
210
7.66227473433277e-34
220
7.9802525436506855e-35
230
1
100
AcDbArc
50
185.94591349663287
51
186.53232722736243
0
LINE
5
157
100
AcDbEntity
8
0
100
AcDbLine
10
-271.68565418280832
20
-446.24608029625909
30
7.5718299500333832e-32
11
-283.48565418280839
21
-446.24608029625915
31
-1.0068044470816754e-15
0
LINE
5
158
100
AcDbEntity
8
0
100
AcDbLine
10
-283.48565418280839
20
-447.24608029625915
30
0
11
-283.48565418280839
21
-446.24608029625915
31
-1.0068044470816754e-15
0
LINE
5
159
100
AcDbEntity
8
0
100
AcDbLine
10
-283.48565418280839
20
-447.24608029625915
30
0
11
-295.10139939966166
21
-447.24608029625921
31
-9.9108338478775116e-16
0
ARC
5
160
100
AcDbEntity
8
0
100
AcDbCircle
10
-173.92645895033814
20
-436.06446852340611
30
0
40
121.68974745119621
210
2.1494781621623767e-32
220
1.8047666278317278e-33
230
1
100
AcDbArc
50
184.79946899031023
51
185.27212966866054
0
LINE
5
161
100
AcDbEntity
8
0
100
AcDbLine
10
-295.18951769636692
20
-446.24608029625915
30
2.6248983996612058e-30
11
-306.9896057478976
21
-446.24608029625932
31
-1.0068119598505427e-15
0
LINE
5
162
100
AcDbEntity
8
0
100
AcDbLine
10
-306.9857425828817
20
-447.24608029625927
30
0
11
-306.9896057478976
21
-446.24608029625932
31
-1.0068119598505427e-15
0
LINE
5
163
100
AcDbEntity
8
0
100
AcDbLine
10
-306.9857425828817
20
-447.24608029625927
30
0
11
-318.6157123707145
21
-447.24608029625932
31
-9.9229705947589394e-16
0
ARC
5
164
100
AcDbEntity
8
0
100
AcDbCircle
10
-173.92645895033814
20
-436.06446852340611
30
0
40
145.12066874565011
210
0
220
0
230
1
100
AcDbArc
50
184.02315562761748
51
184.4190450303484
0
LINE
5
165
100
AcDbEntity
8
0
100
AcDbLine
10
-318.68951804654409
20
-446.24608029625932
30
0
11
-330.48960609807375
21
-446.24608029625938
31
-1.0068119598504518e-15
0
LINE
5
166
100
AcDbEntity
8
0
100
AcDbLine
10
-330.48574293308093
20
-447.24608029625938
30
1.7763568394002505e-14
11
-330.48960609807375
21
-446.24608029625938
31
-1.0068119598504518e-15
0
LINE
5
167
100
AcDbEntity
8
0
100
AcDbLine
10
-330.48574293308093
20
-447.24608029625938
30
1.7763568394002505e-14
11
-336.34211257090891
21
-447.24608029625938
31
1.7263888818144909e-14
0
ARC
5
168
100
AcDbEntity
8
0
100
AcDbCircle
10
-173.92645895033814
20
-436.06446852340611
30
0
40
162.80010129860497
210
-1.2325943974539429e-32
220
-1.3750224430630442e-35
230
1
100
AcDbArc
50
180.06391636226815
51
183.93835098230201
0
LINE
5
169
100
AcDbEntity
8
0
100
AcDbLine
10
-336.72645895033816
20
-436.24608029625938
30
-2.0066661762576553e-30
11
-336.72645895033827
21
-426.24608029625938
31
-8.3811308459711765e-15
0
LINE
5
170
100
AcDbEntity
8
0
100
AcDbLine
10
-338.22645895033821
20
-416.24608029625938
30
0
11
-336.72645895033827
21
-426.24608029625938
31
-8.3811308459711765e-15
0
LINE
5
171
100
AcDbEntity
8
0
100
AcDbLine
10
-338.22645895033821
20
-416.24608029625938
30
0
11
-208.46198480777764
21
-416.24608029625875
31
-6.6917506279054108e-15
0
ARC
5
172
100
AcDbEntity
8
0
100
AcDbCircle
10
-208.46198480777747
20
-456.24608029625875
30
0
40
40.000000000000057
210
0
220
-0
230
1
100
AcDbArc
50
30.300840830888426
51
90.000000000000242
0
LINE
5
173
100
AcDbEntity
8
0
100
AcDbLine
10
-173.92645895033814
20
-436.06446852340611
30
0
11
-171.42645895033814
21
-436.06446852340605
31
0
0
LINE
5
174
100
AcDbEntity
8
0
100
AcDbLine
10
-339.58826565985504
20
-435.49635431155087
30
0
11
-339.5882656598547
21
-445.1788126770694
31
8.1149950472079117e-15
0
ARC
5
175
100
AcDbEntity
8
0
100
AcDbCircle
10
-342.08826565985504
20
-435.49635431155093
30
0
40
10
210
-0
220
0
230
1
100
AcDbArc
50
270.00000000000034
51
284.47751218593191
0
LINE
5
176
100
AcDbEntity
8
0
100
AcDbLine
10
-342.08826565985498
20
-445.49635431155093
30
0
11
-342.08826565985487
21
-445.97136168432178
31
3.9810989439933517e-16
0
ARC
5
177
100
AcDbEntity
8
0
100
AcDbCircle
10
-342.08826565985504
20
-435.49635431155093
30
0
40
10.475007372770825
210
4.634923007678062e-32
220
1.9169140397503967e-31
230
1
100
AcDbArc
50
256.40728569201883
51
270.00000000000091
0
LINE
5
178
100
AcDbEntity
8
0
100
AcDbLine
10
-344.55008636139166
20
-445.67796608440347
30
2.0658309495701933e-30
11
-356.34999836139173
21
-445.67796608440352
31
-1.0067969387094591e-15
0
LINE
5
179
100
AcDbEntity
8
0
100
AcDbLine
10
-356.34999836139173
20
-445.67796608440352
30
-1.0067969387094591e-15
11
-356.34999836139173
21
-446.67796608440358
31
8.381130845971289e-16
0
LINE
5
180
100
AcDbEntity
8
0
100
AcDbLine
10
-356.34999836139173
20
-446.67796608440358
30
8.381130845971289e-16
11
-367.635338462341
21
-446.67796608440369
31
-9.6289242376814075e-16
0
ARC
5
181
100
AcDbEntity
8
0
100
AcDbCircle
10
-342.08826565985504
20
-435.49635431155093
30
0
40
27.886939068573259
210
0
220
0
230
1
100
AcDbArc
50
201.41393632971165
51
203.63835151078175
0
LINE
5
182
100
AcDbEntity
8
0
100
AcDbLine
10
-368.05008671156912
20
-445.67796608440369
30
0
11
-379.84999871156913
21
-445.67796608440381
31
-1.0067969387094652e-15
0
LINE
5
183
100
AcDbEntity
8
0
100
AcDbLine
10
-379.84999871156913
20
-445.67796608440381
30
-1.0067969387094652e-15
11
-379.84999871156907
21
-446.67796608440381
31
8.381130845971289e-16
0
LINE
5
184
100
AcDbEntity
8
0
100
AcDbLine
10
-379.84999871156907
20
-446.67796608440381
30
8.381130845971289e-16
11
-390.83143677864268
21
-446.67796608440398
31
-9.3696276960007714e-16
0
ARC
5
185
100
AcDbEntity
8
0
100
AcDbCircle
10
-342.08826565985504
20
-435.49635431155093
30
0
40
50.009250869756272
210
2.4135576215113866e-32
220
5.0189935737214069e-33
230
1
100
AcDbArc
50
191.74723869506906
51
192.92002992159806
0
LINE
5
186
100
AcDbEntity
8
0
100
AcDbLine
10
-391.05008705429583
20
-445.67796608440398
30
1.2328232159543939e-30
11
-402.85008740447313
21
-445.67796608440409
31
-1.0068044769595791e-15
0
LINE
5
187
100
AcDbEntity
8
0
100
AcDbLine
10
-402.85008740447313
20
-446.67796608440403
30
0
11
-402.85008740447313
21
-445.67796608440409
31
-1.0068044769595791e-15
0
LINE
5
188
100
AcDbEntity
8
0
100
AcDbLine
10
-402.85008740447313
20
-446.67796608440403
30
0
11
-414.40252695735495
21
-446.6779660844042
31
-9.8568199292227992e-16
0
ARC
5
189
100
AcDbEntity
8
0
100
AcDbCircle
10
-342.08826565985504
20
-435.49635431155093
30
0
40
73.173634793154207
210
-6.103024083679554e-32
220
-8.5753601502592134e-33
230
1
100
AcDbArc
50
187.99826844387533
51
188.78976476215939
0
LINE
5
190
100
AcDbEntity
8
0
100
AcDbLine
10
-414.55008740447312
20
-445.67796608440415
30
-4.5096734204093241e-30
11
-426.35008740446716
21
-445.67796608440432
31
-1.0068044470811006e-15
0
LINE
5
191
100
AcDbEntity
8
0
100
AcDbLine
10
-426.3500874044671
20
-446.67796608440432
30
0
11
-426.35008740446716
21
-445.67796608440432
31
-1.0068044470811006e-15
0
LINE
5
192
100
AcDbEntity
8
0
100
AcDbLine
10
-426.3500874044671
20
-446.67796608440432
30
0
11
-439.73813523966811
21
-446.67796608440449
31
-1.1423005167984673e-15
0
ARC
5
193
100
AcDbEntity
8
0
100
AcDbCircle
10
-342.08826565985504
20
-435.49635431155093
30
0
40
98.287972157295627
210
4.9804785773162983e-33
220
5.1871641533732121e-34
230
1
100
AcDbArc
50
185.94591349663315
51
186.53232722736274
0
LINE
5
194
100
AcDbEntity
8
0
100
AcDbLine
10
-439.84746089232516
20
-445.67796608440449
30
4.9216894675216987e-31
11
-451.64746089232523
21
-445.6779660844046
31
-1.0068044470816159e-15
0
LINE
5
195
100
AcDbEntity
8
0
100
AcDbLine
10
-451.64746089232523
20
-446.67796608440455
30
0
11
-451.64746089232523
21
-445.6779660844046
31
-1.0068044470816159e-15
0
LINE
5
196
100
AcDbEntity
8
0
100
AcDbLine
10
-451.64746089232523
20
-446.67796608440455
30
0
11
-463.26320610917844
21
-446.67796608440472
31
-9.910833847876918e-16
0
ARC
5
197
100
AcDbEntity
8
0
100
AcDbCircle
10
-342.08826565985504
20
-435.49635431155093
30
0
40
121.68974745119615
210
-1.8424098532820372e-32
220
-1.5469428238558655e-33
230
1
100
AcDbArc
50
184.79946899031063
51
185.27212966866091
0
LINE
5
198
100
AcDbEntity
8
0
100
AcDbLine
10
-463.3513244058837
20
-445.67796608440466
30
-2.2499129139953191e-30
11
-475.15141245741438
21
-445.67796608440483
31
-1.0068119598504832e-15
0
LINE
5
199
100
AcDbEntity
8
0
100
AcDbLine
10
-475.14754929239842
20
-446.67796608440483
30
0
11
-475.15141245741438
21
-445.67796608440483
31
-1.0068119598504832e-15
0
LINE
5
200
100
AcDbEntity
8
0
100
AcDbLine
10
-475.14754929239842
20
-446.67796608440483
30
0
11
-486.77751908023129
21
-446.67796608440494
31
-9.9229705947583438e-16
0
ARC
5
201
100
AcDbEntity
8
0
100
AcDbCircle
10
-342.08826565985504
20
-435.49635431155093
30
0
40
145.12066874565019
210
-1.2295577753959104e-32
220
-8.6478415139427476e-34
230
1
100
AcDbArc
50
184.02315562761774
51
184.4190450303488
0
LINE
5
202
100
AcDbEntity
8
0
100
AcDbLine
10
-486.85132475606099
20
-445.67796608440494
30
-1.78875034551519e-30
11
-498.65141280759048
21
-445.67796608440511
31
-1.0068119598503923e-15
0
LINE
5
203
100
AcDbEntity
8
0
100
AcDbLine
10
-498.64754964259771
20
-446.67796608440506
30
0
11
-498.65141280759048
21
-445.67796608440511
31
-1.0068119598503923e-15
0
LINE
5
204
100
AcDbEntity
8
0
100
AcDbLine
10
-498.64754964259771
20
-446.67796608440506
30
0
11
-504.50391928042569
21
-446.67796608440511
31
-4.9967957585753474e-16
0
ARC
5
205
100
AcDbEntity
8
0
100
AcDbCircle
10
-342.08826565985504
20
-435.49635431155093
30
0
40
162.80010129860497
210
-1.2325943974539429e-32
220
-1.3750224430696128e-35
230
1
100
AcDbArc
50
180.06391636226815
51
183.93835098230227
0
LINE
5
206
100
AcDbEntity
8
0
100
AcDbLine
10
-504.88826565985505
20
-435.67796608440511
30
-2.0066661762576553e-30
11
-504.88826565985511
21
-425.67796608440511
31
-8.3811308459711765e-15
0
LINE
5
207
100
AcDbEntity
8
0
100
AcDbLine
10
-506.38826565985528
20
-415.67796608440511
30
0
11
-504.88826565985511
21
-425.67796608440511
31
-8.3811308459711765e-15
0
LINE
5
208
100
AcDbEntity
8
0
100
AcDbLine
10
-506.38826565985528
20
-415.67796608440511
30
0
11
-376.62379151729459
21
-415.67796608440375
31
-6.6917506279060064e-15
0
ARC
5
209
100
AcDbEntity
8
0
100
AcDbCircle
10
-376.62379151729425
20
-455.67796608440375
30
0
40
40.000000000000036
210
0
220
-0
230
1
100
AcDbArc
50
30.300840830888724
51
90.000000000000497
0
LINE
5
210
100
AcDbEntity
8
0
100
AcDbLine
10
-342.08826565985504
20
-435.49635431155093
30
0
11
-339.58826565985504
21
-435.49635431155087
31
0
0
CIRCLE
5
211
100
AcDbEntity
8
0
100
AcDbCircle
10
-445.78788240464701
20
-333.57362015329034
30
0
40
7.5
210
-0
220
0
230
1
0
CIRCLE
5
212
100
AcDbEntity
8
0
100
AcDbCircle
10
-53.587774750373129
20
-307.3443410954153
30
0
40
7.5
210
-0
220
0
230
1
0
CIRCLE
5
213
100
AcDbEntity
8
0
100
AcDbCircle
10
-469.20751612297443
20
-367.66061644285401
30
0
40
7.5
210
-0
220
0
230
1
0
CIRCLE
5
214
100
AcDbEntity
8
0
100
AcDbCircle
10
-114.187882404647
20
-333.57362015329221
30
0
40
7.5
210
-0
220
0
230
1
0
CIRCLE
5
215
100
AcDbEntity
8
0
100
AcDbCircle
10
-336.84903326945698
20
-337.54973915670621
30
0
40
7.5
210
-0
220
0
230
1
0
CIRCLE
5
216
100
AcDbEntity
8
0
100
AcDbCircle
10
-215.80251856102919
20
-332.84595830966248
30
0
40
7.5
210
-0
220
0
230
1
0
CIRCLE
5
217
100
AcDbEntity
8
0
100
AcDbCircle
10
-346.20505935625596
20
-293.53309712368485
30
0
40
7.5
210
-0
220
0
230
1
0
CIRCLE
5
218
100
AcDbEntity
8
0
100
AcDbCircle
10
-355.15218220786824
20
-378.65928475062304
30
0
40
7.5
210
-0
220
0
230
1
0
CIRCLE
5
219
100
AcDbEntity
8
0
100
AcDbCircle
10
-214.71356652723864
20
-374.18863290883962
30
0
40
7.5
210
-0
220
0
230
1
0
LWPOLYLINE
5
220
100
AcDbEntity
8
0
100
AcDbPolyline
90
8
70
1
43
0.0
10
-426.64711025677462
20
-402.04973915670558
10
-411.64711025677462
20
-402.0497391567057
42
0.52008005216143216
10
-409.76667861468371
20
-399.36858070272905
10
-416.70689443572911
20
-380.2091599297172
42
0.31572018010255243
10
-417.64711025677445
20
-379.54973915670553
10
-420.64711025677457
20
-379.54973915670564
42
0.31572018010268793
10
-421.58732607781974
20
-380.20915992971732
10
-428.52754189886531
20
-399.36858070272899
42
0.52008005216135755
0
CIRCLE
5
221
100
AcDbEntity
8
0
100
AcDbCircle
10
-315.49645744475004
20
-390.39921886701308
30
0
40
7.5
210
-0
220
0
230
1
0
LWPOLYLINE
5
222
100
AcDbEntity
8
0
100
AcDbPolyline
90
8
70
1
43
0.0
10
-426.64711025677434
20
-361.04973915670553
10
-411.64711025677434
20
-361.0497391567057
42
0.52008005216140962
10
-409.76667861468354
20
-358.36858070272905
10
-416.70689443572883
20
-339.20915992971732
42
0.31572018010256531
10
-417.64711025677411
20
-338.54973915670564
10
-420.64711025677423
20
-338.54973915670564
42
0.31572018010246494
10
-421.58732607781951
20
-339.20915992971732
10
-428.52754189886514
20
-358.36858070272899
42
0.52008005216139452
0
CIRCLE
5
223
100
AcDbEntity
8
0
100
AcDbCircle
10
-385.18777475037325
20
-307.34434109541331
30
0
40
7.5
210
-0
220
0
230
1
0
LWPOLYLINE
5
224
100
AcDbEntity
8
0
100
AcDbPolyline
90
8
70
1
43
0.0
10
-260.84711025677461
20
-402.04973915670649
10
-245.84711025677461
20
-402.04973915670672
42
0.52008005216137065
10
-243.96667861468387
20
-399.36858070273001
10
-250.90689443572924
20
-380.20915992971834
42
0.31572018010259323
10
-251.8471102567745
20
-379.54973915670678
10
-254.84711025677439
20
-379.54973915670666
42
0.31572018010258696
10
-255.78732607781973
20
-380.20915992971834
10
-262.72754189886535
20
-399.36858070272996
42
0.52008005216138842
0
CIRCLE
5
225
100
AcDbEntity
8
0
100
AcDbCircle
10
-137.6075161229744
20
-367.660616442856
30
0
40
7.5
210
-0
220
0
230
1
0
CIRCLE
5
226
100
AcDbEntity
8
0
100
AcDbCircle
10
-48.913566527238657
20
-374.18863290884065
30
0
40
7.5
210
-0
220
0
230
1
0
LWPOLYLINE
5
227
100
AcDbEntity
8
0
100
AcDbPolyline
90
8
70
1
43
0.0
10
-260.84711025677439
20
-361.04973915670655
10
-245.84711025677436
20
-361.04973915670666
42
0.5200800521613631
10
-243.96667861468362
20
-358.36858070273001
10
-250.90689443572901
20
-339.20915992971834
42
0.31572018010247371
10
-251.8471102567743
20
-338.54973915670661
10
-254.84711025677416
20
-338.54973915670661
42
0.31572018010259778
10
-255.78732607781944
20
-339.20915992971851
10
-262.72754189886513
20
-358.36858070272996
42
0.52008005216143238
0
CIRCLE
5
228
100
AcDbEntity
8
0
100
AcDbCircle
10
-180.40505935625578
20
-293.53309712368582
30
0
40
7.5
210
-0
220
0
230
1
0
LWPOLYLINE
5
229
100
AcDbEntity
8
0
100
AcDbPolyline
90
8
70
1
43
0.0
10
-95.047110256774317
20
-361.04973915670757
10
-80.047110256774317
20
-361.04973915670769
42
0.52008005216139386
10
-78.166678614683519
20
-358.36858070273104
10
-85.10689443572889
20
-339.20915992971925
42
0.31572018010245639
10
-86.047110256774204
20
-338.54973915670769
10
-89.047110256774175
20
-338.54973915670763
42
0.31572018010246572
10
-89.987326077819588
20
-339.20915992971919
10
-96.927541898865002
20
-358.36858070273092
42
0.52008005216141073
0
LWPOLYLINE
5
230
100
AcDbEntity
8
0
100
AcDbPolyline
90
8
70
1
43
0.0
10
-95.047110256774573
20
-402.04973915670746
10
-80.047110256774573
20
-402.04973915670769
42
0.52008005216140307
10
-78.166678614683818
20
-399.36858070273098
10
-85.106894435729146
20
-380.20915992971931
42
0.31572018010251018
10
-86.047110256774459
20
-379.5497391567078
10
-89.047110256774417
20
-379.54973915670763
42
0.31572018010244962
10
-89.987326077819816
20
-380.20915992971931
10
-96.927541898865258
20
-399.36858070273092
42
0.52008005216142128
0
CIRCLE
5
231
100
AcDbEntity
8
0
100
AcDbCircle
10
-189.3521822078682
20
-378.65928475062401
30
0
40
7.5
210
-0
220
0
230
1
0
CIRCLE
5
232
100
AcDbEntity
8
0
100
AcDbCircle
10
-132.07789009915703
20
-315.0497391567074
30
0
40
7.5
210
-0
220
0
230
1
0
CIRCLE
5
233
100
AcDbEntity
8
0
100
AcDbCircle
10
-297.87789009915701
20
-315.04973915670638
30
0
40
7.5
210
-0
220
0
230
1
0
CIRCLE
5
234
100
AcDbEntity
8
0
100
AcDbCircle
10
-303.4075161229743
20
-367.66061644285503
30
0
40
7.5
210
-0
220
0
230
1
0
CIRCLE
5
235
100
AcDbEntity
8
0
100
AcDbCircle
10
-171.04903326945691
20
-337.54973915670712
30
0
40
7.5
210
-0
220
0
230
1
0
CIRCLE
5
236
100
AcDbEntity
8
0
100
AcDbCircle
10
-463.67789009915697
20
-315.04973915670541
30
0
40
7.5
210
-0
220
0
230
1
0
CIRCLE
5
237
100
AcDbEntity
8
0
100
AcDbCircle
10
-149.69645744475014
20
-390.39921886701404
30
0
40
7.5
210
-0
220
0
230
1
0
CIRCLE
5
238
100
AcDbEntity
8
0
100
AcDbCircle
10
-219.3877747503731
20
-307.34434109541428
30
0
40
7.5
210
-0
220
0
230
1
0
CIRCLE
5
239
100
AcDbEntity
8
0
100
AcDbCircle
10
-381.602518561029
20
-332.84595830966146
30
0
40
7.5
210
-0
220
0
230
1
0
CIRCLE
5
240
100
AcDbEntity
8
0
100
AcDbCircle
10
-279.98788240464694
20
-333.5736201532913
30
0
40
7.5
210
-0
220
0
230
1
0
CIRCLE
5
241
100
AcDbEntity
8
0
100
AcDbCircle
10
-380.51356652723859
20
-374.1886329088386
30
0
40
7.5
210
-0
220
0
230
1
0
LWPOLYLINE
5
242
100
AcDbEntity
8
0
100
AcDbPolyline
90
24
70
1
43
0.0
10
-36.332874367553281
20
-355.04973915670797
42
-0.66817863791929644
10
-23.358862830535564
20
-349.67572761969029
10
-17.981623450237617
20
-355.05296699998831
42
0.66817863791929955
10
-5.3490332694569718
20
-349.82037681920792
10
-5.3490332694569833
20
-345.04907246040915
42
-0.98675438206593025
10
-5.3490332694568563
20
-330.05040585300708
10
-5.349033269456827
20
-325.27910149420825
42
0.66817863791929555
10
-17.981623450237251
20
-320.04651131342774
10
-23.358862830535394
20
-325.42375069372588
42
-0.66817863791929177
10
-36.332874367553018
20
-320.04973915670803
10
-36.332874367552819
20
-275.54973915670791
10
-487.51133863581009
20
-275.54973915670524
10
-487.51133863581026
20
-320.0497391567053
42
-0.66817863791929211
10
-500.48535017282808
20
-325.42375069372298
10
-505.86258955312621
20
-320.0465113134249
42
0.66817863791929288
10
-518.49517973390653
20
-325.27910149420529
10
-518.49517973390664
20
-349.8203768192048
42
0.66817863791929755
10
-505.86258955312616
20
-355.05296699998547
10
-500.48535017282813
20
-349.67572761968762
42
-0.66817863791929644
10
-487.5113386358106
20
-355.0497391567053
10
-487.51133863581083
20
-386.20097497450155
42
-3.2668138255443959
10
-487.51133863581083
20
-394.59746275952256
10
-487.51133863581089
20
-409.54973915670519
10
-36.332874367553543
20
-409.54973915670791
0
CIRCLE
5
243
100
AcDbEntity
8
0
100
AcDbCircle
10
-381.55165306304502
20
-169.80216674337655
30
0
40
7.5
210
-0
220
0
230
1
0
LWPOLYLINE
5
244
100
AcDbEntity
8
0
100
AcDbPolyline
90
8
70
1
43
0.0
10
-310.05672501414068
20
-146.41171233728738
10
-325.05672501414068
20
-146.41171233728861
42
0.52008005216139108
10
-326.9371566562312
20
-149.09287079126545
10
-319.99694083518398
20
-168.25229156427645
42
0.31572018010256964
10
-319.05672501413864
20
-168.91171233728801
10
-316.05672501413881
20
-168.91171233728784
42
0.31572018010255337
10
-315.11650919309363
20
-168.25229156427596
10
-308.17629337204971
20
-149.09287079126375
42
0.52008005216139885
0
CIRCLE
5
245
100
AcDbEntity
8
0
100
AcDbCircle
10
-355.10131670987965
20
-215.61549318433566
30
0
40
7.5
210
-0
220
0
230
1
0
CIRCLE
5
246
100
AcDbEntity
8
0
100
AcDbCircle
10
-390.49877591464934
20
-254.92835437031559
30
0
40
7.5
210
-0
220
0
230
1
0
CIRCLE
5
247
100
AcDbEntity
8
0
100
AcDbCircle
10
-351.5160605205333
20
-241.11711039858349
30
0
40
7.5
210
-0
220
0
230
1
0
CIRCLE
5
248
100
AcDbEntity
8
0
100
AcDbCircle
10
-267.49631914793753
20
-180.80083505113492
30
0
40
7.5
210
-0
220
0
230
1
0
LWPOLYLINE
5
249
100
AcDbEntity
8
0
100
AcDbPolyline
90
8
70
1
43
0.0
10
-144.25672501413698
20
-187.41171233727277
10
-159.25672501413698
20
-187.41171233727408
42
0.5200800521613691
10
-161.13715665622746
20
-190.0928707912509
10
-154.19694083518027
20
-209.25229156426195
42
0.31572018010252983
10
-153.2567250141349
20
-209.91171233727363
10
-150.2567250141351
20
-209.91171233727329
42
0.31572018010250547
10
-149.31650919308987
20
-209.25229156426144
10
-142.37629337204598
20
-190.09287079124925
42
0.52008005216139508
0
LWPOLYLINE
5
250
100
AcDbEntity
8
0
100
AcDbPolyline
90
8
70
1
43
0.0
10
-144.25672501414056
20
-146.41171233727283
10
-159.25672501414056
20
-146.41171233727405
42
0.52008005216136077
10
-161.13715665623107
20
-149.0928707912509
10
-154.19694083518385
20
-168.25229156426192
42
0.31572018010259445
10
-153.25672501413848
20
-168.91171233727357
10
-150.25672501413868
20
-168.91171233727329
42
0.31572018010255565
10
-149.31650919309342
20
-168.25229156426144
10
-142.37629337204959
20
-149.09287079124923
42
0.52008005216140529
0
CIRCLE
5
251
100
AcDbEntity
8
0
100
AcDbCircle
10
-234.05480200145223
20
-210.91171233728062
30
0
40
7.5
210
-0
220
0
230
1
0
CIRCLE
5
252
100
AcDbEntity
8
0
100
AcDbCircle
10
-185.71606052053323
20
-241.11711039856897
30
0
40
7.5
210
-0
220
0
230
1
0
CIRCLE
5
253
100
AcDbEntity
8
0
100
AcDbCircle
10
-24.590268743673953
20
-174.27281858512947
30
0
40
7.5
210
-0
220
0
230
1
0
CIRCLE
5
254
100
AcDbEntity
8
0
100
AcDbCircle
10
-356.19026874367421
20
-174.27281858515857
30
0
40
7.5
210
-0
220
0
230
1
0
CIRCLE
5
255
100
AcDbEntity
8
0
100
AcDbCircle
10
-125.11595286626186
20
-214.88783134068629
30
0
40
7.5
210
-0
220
0
230
1
0
LWPOLYLINE
5
256
100
AcDbEntity
8
0
100
AcDbPolyline
90
8
70
1
43
0.0
10
-310.0567250141371
20
-187.41171233728736
10
-325.0567250141371
20
-187.41171233728863
42
0.52008005216137443
10
-326.93715665622756
20
-190.09287079126545
10
-319.9969408351804
20
-209.25229156427648
42
0.31572018010252506
10
-319.056725014135
20
-209.91171233728821
10
-316.05672501413522
20
-209.91171233728784
42
0.3157201801025476
10
-315.11650919309
20
-209.25229156427602
10
-308.17629337204608
20
-190.09287079126375
42
0.52008005216139497
0
CIRCLE
5
257
100
AcDbEntity
8
0
100
AcDbCircle
10
-273.02594517175004
20
-233.41171233728403
30
0
40
7.5
210
-0
220
0
230
1
0
CIRCLE
5
258
100
AcDbEntity
8
0
100
AcDbCircle
10
-255.40737782616389
20
-158.06223262697574
30
0
40
7.5
210
-0
220
0
230
1
0
CIRCLE
5
259
100
AcDbEntity
8
0
100
AcDbCircle
10
-89.607377826164054
20
-158.06223262696119
30
0
40
7.5
210
-0
220
0
230
1
0
CIRCLE
5
260
100
AcDbEntity
8
0
100
AcDbCircle
10
-19.916060520533058
20
-241.11711039855439
30
0
40
7.5
210
-0
220
0
230
1
0
CIRCLE
5
261
100
AcDbEntity
8
0
100
AcDbCircle
10
-224.69877591464922
20
-254.92835437030107
30
0
40
7.5
210
-0
220
0
230
1
0
CIRCLE
5
262
100
AcDbEntity
8
0
100
AcDbCircle
10
-190.3902687436738
20
-174.27281858514405
30
0
40
7.5
210
-0
220
0
230
1
0
CIRCLE
5
263
100
AcDbEntity
8
0
100
AcDbCircle
10
-101.69631914793766
20
-180.8008350511204
30
0
40
7.5
210
-0
220
0
230
1
0
CIRCLE
5
264
100
AcDbEntity
8
0
100
AcDbCircle
10
-189.3013167098795
20
-215.61549318432114
30
0
40
7.5
210
-0
220
0
230
1
0
CIRCLE
5
265
100
AcDbEntity
8
0
100
AcDbCircle
10
-23.501316709879696
20
-215.61549318430656
30
0
40
7.5
210
-0
220
0
230
1
0
CIRCLE
5
266
100
AcDbEntity
8
0
100
AcDbCircle
10
-107.22594517175018
20
-233.41171233726951
30
0
40
7.5
210
-0
220
0
230
1
0
CIRCLE
5
267
100
AcDbEntity
8
0
100
AcDbCircle
10
-58.898775914649086
20
-254.92835437028651
30
0
40
7.5
210
-0
220
0
230
1
0
CIRCLE
5
268
100
AcDbEntity
8
0
100
AcDbCircle
10
-290.9159528662617
20
-214.88783134070081
30
0
40
7.5
210
-0
220
0
230
1
0
CIRCLE
5
269
100
AcDbEntity
8
0
100
AcDbCircle
10
-68.254802001452134
20
-210.9117123372661
30
0
40
7.5
210
-0
220
0
230
1
0
CIRCLE
5
270
100
AcDbEntity
8
0
100
AcDbCircle
10
-49.95165306304478
20
-169.80216674334744
30
0
40
7.5
210
-0
220
0
230
1
0
CIRCLE
5
271
100
AcDbEntity
8
0
100
AcDbCircle
10
-215.75165306304467
20
-169.80216674336197
30
0
40
7.5
210
-0
220
0
230
1
0
LWPOLYLINE
5
272
100
AcDbEntity
8
0
100
AcDbPolyline
90
12
70
1
43
0.0
10
-402.15990645431731
20
-223.17912215651484
10
-396.78266707401866
20
-228.55636153681246
42
0.66817863791930343
10
-383.80865553700164
20
-223.18234999979356
10
-383.80865553700357
20
-198.64107467479397
42
0.66817863791930487
10
-396.78266707402224
20
-193.26706313777717
10
-402.15990645431941
20
-198.64430251807588
42
-0.66817863791929821
10
-414.79249663510046
20
-193.41171233729642
10
-414.79249663510524
20
-138.91171233729651
10
-2.5817287692335995
20
-138.91171233726033
10
-2.5817287692218827
20
-272.91171233726033
10
-414.79249663509347
20
-272.91171233729648
10
-414.79249663509739
20
-228.41171233729642
42
-0.66817863791929699
0
CIRCLE
5
273
100
AcDbEntity
8
0
100
AcDbCircle
10
-178.55578359747565
20
-41.500000000000014
30
0
40
7.5
210
-0
220
0
230
1
0
CIRCLE
5
274
100
AcDbEntity
8
0
100
AcDbCircle
10
-262.28041205934767
20
-59.296219152955587
30
0
40
7.5
210
-0
220
0
230
1
0
CIRCLE
5
275
100
AcDbEntity
8
0
100
AcDbCircle
10
-265.86566824869175
20
-33.794601938707444
30
0
40
7.5
210
-0
220
0
230
1
0
CIRCLE
5
276
100
AcDbEntity
8
0
100
AcDbCircle
10
-184.08540962129263
20
-94.110877286148622
30
0
40
7.5
210
-0
220
0
230
1
0
CIRCLE
5
277
100
AcDbEntity
8
0
100
AcDbCircle
10
-217.52692676777539
20
-64
30
0
40
7.5
210
-0
220
0
230
1
0
CIRCLE
5
278
100
AcDbEntity
8
0
100
AcDbCircle
10
-30.374350943068187
20
-116.84947971030678
30
0
40
7.5
210
-0
220
0
230
1
0
CIRCLE
5
279
100
AcDbEntity
8
0
100
AcDbCircle
10
-51.726926767775261
20
-64
30
0
40
7.5
210
-0
220
0
230
1
0
CIRCLE
5
280
100
AcDbEntity
8
0
100
AcDbCircle
10
-96.480412059347572
20
-59.296219152955587
30
0
40
7.5
210
-0
220
0
230
1
0
CIRCLE
5
281
100
AcDbEntity
8
0
100
AcDbCircle
10
-12.755783597475521
20
-41.500000000000014
30
0
40
7.5
210
-0
220
0
230
1
0
CIRCLE
5
282
100
AcDbEntity
8
0
100
AcDbCircle
10
-100.06566824869165
20
-33.794601938707444
30
0
40
7.5
210
-0
220
0
230
1
0
CIRCLE
5
283
100
AcDbEntity
8
0
100
AcDbCircle
10
-18.285409621292565
20
-94.110877286148622
30
0
40
7.5
210
-0
220
0
230
1
0
CIRCLE
5
284
100
AcDbEntity
8
0
100
AcDbCircle
10
-95.391460025556796
20
-100.63889375213277
30
0
40
7.5
210
-0
220
0
230
1
0
CIRCLE
5
285
100
AcDbEntity
8
0
100
AcDbCircle
10
-196.17435094306825
20
-116.84947971030678
30
0
40
7.5
210
-0
220
0
230
1
0
CIRCLE
5
286
100
AcDbEntity
8
0
100
AcDbCircle
10
-235.83007570618631
20
-105.10954559391703
30
0
40
7.5
210
-0
220
0
230
1
0
CIRCLE
5
287
100
AcDbEntity
8
0
100
AcDbCircle
10
-70.030075706186324
20
-105.10954559391703
30
0
40
7.5
210
-0
220
0
230
1
0
CIRCLE
5
288
100
AcDbEntity
8
0
100
AcDbCircle
10
-361.97435094306826
20
-116.84947971030678
30
0
40
7.5
210
-0
220
0
230
1
0
CIRCLE
5
289
100
AcDbEntity
8
0
100
AcDbCircle
10
-261.19146002555675
20
-100.63889375213277
30
0
40
7.5
210
-0
220
0
230
1
0
CIRCLE
5
290
100
AcDbEntity
8
0
100
AcDbCircle
10
-61.082952854574408
20
-19.983357966978758
30
0
40
7.5
210
-0
220
0
230
1
0
CIRCLE
5
291
100
AcDbEntity
8
0
100
AcDbCircle
10
-160.66577590296544
20
-60.023880996584786
30
0
40
7.5
210
-0
220
0
230
1
0
CIRCLE
5
292
100
AcDbEntity
8
0
100
AcDbCircle
10
-344.35578359747569
20
-41.500000000000014
30
0
40
7.5
210
-0
220
0
230
1
0
LWPOLYLINE
5
293
100
AcDbEntity
8
0
100
AcDbPolyline
90
8
70
1
43
0.0
10
-141.5250037550926
20
-87.499999999999886
10
-126.5250037550926
20
-87.5
42
0.52008005216141884
10
-124.64457211300189
20
-84.818841546023378
10
-131.58478793404728
20
-65.659420773011647
42
0.31572018010246378
10
-132.5250037550926
20
-65.000000000000057
10
-135.52500375509257
20
-65
42
0.31572018010251246
10
-136.46521957613788
20
-65.659420773011647
10
-143.40543539718334
20
-84.81884154602335
42
0.52008005216139719
0
LWPOLYLINE
5
294
100
AcDbEntity
8
0
100
AcDbPolyline
90
8
70
1
43
0.0
10
-141.5250037550926
20
-128.49999999999991
10
-126.5250037550926
20
-128.5
42
0.5200800521614215
10
-124.64457211300189
20
-125.81884154602336
10
-131.58478793404728
20
-106.65942077301165
42
0.31572018010248953
10
-132.5250037550926
20
-106.00000000000006
10
-135.52500375509257
20
-106
42
0.31572018010251152
10
-136.46521957613794
20
-106.65942077301165
10
-143.40543539718334
20
-125.81884154602335
42
0.52008005216141651
0
LWPOLYLINE
5
295
100
AcDbEntity
8
0
100
AcDbPolyline
90
8
70
1
43
0.0
10
-307.32500375509255
20
-87.499999999999872
10
-292.32500375509255
20
-87.5
42
0.52008005216141884
10
-290.44457211300187
20
-84.818841546023378
10
-297.38478793404732
20
-65.659420773011647
42
0.31572018010253816
10
-298.32500375509267
20
-65.000000000000014
10
-301.32500375509261
20
-65
42
0.3157201801024383
10
-302.26521957613801
20
-65.65942077301159
10
-309.20543539718335
20
-84.818841546023378
42
0.52008005216139375
0
LWPOLYLINE
5
296
100
AcDbEntity
8
0
100
AcDbPolyline
90
8
70
1
43
0.0
10
-307.32500375509255
20
-128.49999999999991
10
-292.32500375509255
20
-128.5
42
0.52008005216140107
10
-290.44457211300187
20
-125.81884154602334
10
-297.38478793404732
20
-106.65942077301165
42
0.3157201801025078
10
-298.32500375509261
20
-106.00000000000007
10
-301.32500375509261
20
-106
42
0.31572018010247915
10
-302.26521957613801
20
-106.65942077301162
10
-309.20543539718335
20
-125.81884154602336
42
0.52008005216138609
0
CIRCLE
5
297
100
AcDbEntity
8
0
100
AcDbCircle
10
-349.88540962129264
20
-94.110877286148622
30
0
40
7.5
210
-0
220
0
230
1
0
CIRCLE
5
298
100
AcDbEntity
8
0
100
AcDbCircle
10
-326.46577590296545
20
-60.023880996584786
30
0
40
7.5
210
-0
220
0
230
1
0
CIRCLE
5
299
100
AcDbEntity
8
0
100
AcDbCircle
10
-392.68295285457452
20
-19.983357966978758
30
0
40
7.5
210
-0
220
0
230
1
0
CIRCLE
5
300
100
AcDbEntity
8
0
100
AcDbCircle
10
-401.63007570618646
20
-105.10954559391703
30
0
40
7.5
210
-0
220
0
230
1
0
CIRCLE
5
301
100
AcDbEntity
8
0
100
AcDbCircle
10
-226.88295285457454
20
-19.983357966978758
30
0
40
7.5
210
-0
220
0
230
1
0
LWPOLYLINE
5
302
100
AcDbEntity
8
0
100
AcDbPolyline
90
14
70
1
43
0.0
10
-383.22692676777547
20
-76.27063766249978
42
-0.66817863791930243
10
-396.20093830479328
20
-81.644649199517616
10
-401.57817768509125
20
-76.267409819219637
42
0.66817863791930021
10
-414.21076786587162
20
-81.500000000000071
10
-414.21076786587179
20
-135.99999999999997
10
-1.999999999999992
20
-135.99999999999997
10
-1.9999999999999574
20
-2.0000000000000013
10
-414.21076786587173
20
-2.0000000000000018
10
-414.21076786587162
20
-46.500000000000064
42
0.6681786379192971
10
-401.57817768509119
20
-51.732590180780555
10
-396.20093830479311
20
-46.355350800482427
42
-0.6681786379192971
10
-383.22692676777541
20
-51.729362337500206
10
-383.2269267677753
20
-56.500666696298936
42
-0.98675438206592414
10
-383.22692676777541
20
-71.499333303701064
0
CIRCLE
5
303
100
AcDbEntity
8
0
100
AcDbCircle
10
-443.20030184550063
20
-220.9328033437742
30
0
40
1.4999999999999858
210
0
220
0
230
1
0
CIRCLE
5
304
100
AcDbEntity
8
0
100
AcDbCircle
10
-443.20030184550063
20
-235.76275292816399
30
0
40
1.4999999999999858
210
0
220
0
230
1
0
CIRCLE
5
305
100
AcDbEntity
8
0
100
AcDbCircle
10
-490.1626062839407
20
-228.34777813596907
30
0
40
1.4999999999999858
210
0
220
0
230
1
0
LWPOLYLINE
5
306
100
AcDbEntity
8
0
100
AcDbPolyline
90
8
70
1
43
0.0
10
-432.5126101731438
20
-214.93280334377408
10
-492.6626062839407
20
-214.93280334377408
42
0.41421356237310336
10
-497.6626062839407
20
-219.93280334377408
10
-497.6626062839407
20
-236.76275292816402
42
0.41421356237309709
10
-492.66260628394082
20
-241.76275292816399
10
-432.51261017314368
20
-241.76275292816399
42
0.41421356237310542
10
-427.5126101731438
20
-236.76275292816402
10
-427.5126101731438
20
-219.93280334377408
42
0.41421356237310336
0
LWPOLYLINE
5
307
100
AcDbEntity
8
0
100
AcDbPolyline
90
30
70
1
43
0.0
10
-416.76658737979955
20
-33.749871746079336
10
-416.76658737979869
20
-18.849871746079199
10
-421.76658737979869
20
-18.849871746078907
10
-421.76658737979767
20
-3.8498717460787741
10
-555.29158991299539
20
-3.8498717460708698
10
-555.29158991299619
20
-18.749871746071001
10
-552.19158991299628
20
-18.749871746071189
10
-552.19158991299901
20
-68.849871746071628
10
-555.29158991299926
20
-68.849871746071443
10
-555.29158991300005
20
-83.749871746071577
10
-552.19158991300003
20
-83.749871746071761
10
-552.19158991300174
20
-113.84987174607204
10
-555.29158991300187
20
-113.84987174607187
10
-555.29158991300301
20
-133.74987174607202
10
-552.19158991300299
20
-133.74987174607219
10
-552.19158991300469
20
-163.74987174607247
10
-421.76658737980711
20
-163.74987174608023
10
-421.76658737980637
20
-148.74987174608006
10
-416.76658737980637
20
-148.74987174608034
10
-416.76658737980551
20
-133.8498717460792
10
-421.76658737980551
20
-133.84987174607994
10
-421.76658737980432
20
-113.74987174607975
10
-416.76658737980426
20
-113.74987174608006
10
-416.76658737980341
20
-98.849871746079216
10
-421.76658737980347
20
-98.849871746079629
10
-421.76658737980165
20
-68.74987174607935
10
-416.76658737980171
20
-68.749871746079648
10
-416.76658737980074
20
-53.849871746079508
10
-421.76658737980074
20
-53.849871746079216
10
-421.76658737979955
20
-33.749871746079037
0
CIRCLE
5
308
100
AcDbEntity
8
0
100
AcDbCircle
10
-468.21658737980295
20
-93.799873746075875
30
0
40
1.0500000000000131
210
-0
220
0
230
1
0
CIRCLE
5
309
100
AcDbEntity
8
0
100
AcDbCircle
10
-539.21658837980294
20
-93.799873746071668
30
0
40
1.050000000000022
210
-0
220
0
230
1
0
CIRCLE
5
310
100
AcDbEntity
8
0
100
AcDbCircle
10
-511.21658837980294
20
-93.799873746073331
30
0
40
1.050000000000022
210
-0
220
0
230
1
0
CIRCLE
5
311
100
AcDbEntity
8
0
100
AcDbCircle
10
-478.71658737979999
20
-43.799872746075295
30
0
40
1.0500000000000131
210
-0
220
0
230
1
0
CIRCLE
5
312
100
AcDbEntity
8
0
100
AcDbCircle
10
-501.71658737979999
20
-43.79987274607393
30
0
40
1.050000000000022
210
-0
220
0
230
1
0
CIRCLE
5
313
100
AcDbEntity
8
0
100
AcDbCircle
10
-548.71658737979999
20
-43.799872746071145
30
0
40
1.050000000000022
210
-0
220
0
230
1
0
CIRCLE
5
314
100
AcDbEntity
8
0
100
AcDbCircle
10
-525.21658737979999
20
-43.799872746072538
30
0
40
1.050000000000022
210
-0
220
0
230
1
0
CIRCLE
5
315
100
AcDbEntity
8
0
100
AcDbCircle
10
-457.71658737979999
20
-43.799872746076538
30
0
40
1.0500000000000131
210
-0
220
0
230
1
0
CIRCLE
5
316
100
AcDbEntity
8
0
100
AcDbCircle
10
-481.99041184625543
20
-174.43841672309375
30
-1.7763568394002505e-14
40
1.4999999999999858
210
-0
220
0
230
1
0
CIRCLE
5
317
100
AcDbEntity
8
0
100
AcDbCircle
10
-481.99041184625548
20
-189.26836630748355
30
0
40
1.4999999999999858
210
-0
220
0
230
1
0
CIRCLE
5
318
100
AcDbEntity
8
0
100
AcDbCircle
10
-435.02810740781541
20
-181.85339151528879
30
0
40
1.4999999999999858
210
-0
220
0
230
1
0
LWPOLYLINE
5
319
100
AcDbEntity
8
0
100
AcDbPolyline
90
8
70
1
43
0.0
10
-432.52810740781536
20
-168.43841672309384
10
-492.67810351861226
20
-168.43841672309367
42
0.41421356237309293
10
-497.67810351861226
20
-173.43841672309364
10
-497.67810351861237
20
-190.2683663074836
42
0.41421356237309709
10
-492.67810351861243
20
-195.26836630748357
10
-432.52810740781541
20
-195.26836630748377
42
0.41421356237309293
10
-427.52810740781541
20
-190.2683663074838
10
-427.52810740781536
20
-173.43841672309381
42
0.41421356237309293
0
LWPOLYLINE
5
320
100
AcDbEntity
8
0
100
AcDbPolyline
90
86
70
1
43
0.0
10
-522.95853980323398
20
-201.88164244978879
10
-522.95853980323375
20
-200.78164244978879
10
-517.95853980323375
20
-200.7816424497895
10
-517.95853980323136
20
-183.04302279777363
10
-522.95853980323136
20
-183.04302279777295
10
-522.95853980323113
20
-181.94302279777298
10
-517.95853980323125
20
-181.94302279777366
10
-517.95853980323034
20
-175.54302279777363
10
-522.95853980323034
20
-175.54302279777295
10
-522.95853980323022
20
-174.44302279777298
10
-517.95853980323022
20
-174.44302279777366
10
-517.9585398032292
20
-167.83776430380544
10
-527.95853980322954
20
-169.34098825128461
10
-538.00184671488296
20
-169.34422608239291
42
0.016840404278920158
10
-548.95853980322943
20
-169.72550720771395
10
-548.9585398032317
20
-185.04287224645418
10
-547.95853980323147
20
-185.04302279776959
10
-547.95853980323284
20
-197.04293088683556
42
0.0018510054353909986
10
-548.9585398032342
20
-197.12168740034798
10
-548.95853980323614
20
-213.04159749922249
10
-547.95853980323523
20
-213.04302279776954
10
-547.95853980323113
20
-225.04293088683553
42
0.0023353235051715143
10
-548.95853980323704
20
-225.14229434983838
10
-548.9585398032425
20
-255.84297578764432
10
-547.95853980324046
20
-255.84302279776955
10
-547.95853980324193
20
-267.84293088683614
42
0.0038929409238026421
10
-548.95853980326581
20
-268.00856954171917
10
-548.95853980326797
20
-282.84301397064769
10
-547.95853980324364
20
-282.84302279776961
10
-547.95853980324512
20
-294.84293088683614
42
0.006727809693397876
10
-548.95853980324716
20
-295.12919747131542
10
-548.95853980324864
20
-309.84302279776944
10
-547.95853980324682
20
-309.84302279776955
10
-547.95853980325091
20
-321.84293088683609
42
0.025609845044358134
10
-548.95853980325046
20
-322.9332890575339
10
-548.95853980325171
20
-332.143578368281
10
-547.82162344904532
20
-332.14357836828117
42
0.06305846825036053
10
-547.50602743991135
20
-334.63603569575525
10
-537.82158512858518
20
-334.63291355791091
10
-537.82158512858484
20
-332.14357836828248
42
0.052948400115702003
10
-531.01205422898136
20
-327.14357836828344
10
-536.01205422898136
20
-327.14357836828276
10
-536.01205422898124
20
-326.04357836828279
10
-529.85269298770379
20
-326.04357836828353
42
0.032641182176881889
10
-526.38752212410759
20
-322.14357836828407
10
-531.38752212410759
20
-322.14357836828333
10
-531.38752212410748
20
-321.04357836828336
10
-525.56170836531999
20
-321.04357836828422
42
0.098970334297761434
10
-519.03187391104996
20
-306.7861101345465
10
-524.03187391104996
20
-306.78611013454588
10
-524.03187391104984
20
-305.68611013454586
10
-518.78808666598684
20
-305.68611013454654
42
0.04037176843739948
10
-517.99484106173122
20
-299.28611013454667
10
-522.99484106173122
20
-299.28611013454599
10
-522.99484106173099
20
-298.18611013454597
10
-517.96308641254984
20
-298.18611013454665
42
0.0035542206949992178
10
-517.95853980324694
20
-297.61746018282935
10
-517.95853980324455
20
-279.72579175618768
10
-522.95853980324455
20
-279.72579175618699
10
-522.95853980324432
20
-278.62579175618697
10
-517.95853980324432
20
-278.62579175618765
10
-517.95853980324341
20
-272.22579175618768
10
-522.95853980324341
20
-272.22579175618699
10
-522.9585398032433
20
-271.12579175618697
10
-517.95853980324341
20
-271.12579175618765
10
-517.9585398032408
20
-252.29263506874557
10
-522.9585398032408
20
-252.29263506874489
10
-522.95853980324057
20
-251.19263506874486
10
-517.95853980324068
20
-251.19263506874557
10
-517.95853980323966
20
-244.79263506874557
10
-522.95853980323977
20
-244.79263506874489
10
-522.95853980323966
20
-243.69263506874489
10
-517.95853980323955
20
-243.6926350687456
10
-517.95853980323864
20
-237.29263506874557
10
-522.95853980323875
20
-237.29263506874489
10
-522.95853980323864
20
-236.19263506874489
10
-517.95853980323852
20
-236.1926350687456
10
-517.95853980323773
20
-229.79263506874557
10
-522.95853980323773
20
-229.79263506874489
10
-522.9585398032375
20
-228.69263506874489
10
-517.9585398032375
20
-228.6926350687456
10
-517.95853980323488
20
-209.38164244978947
10
-522.95853980323488
20
-209.38164244978879
10
-522.95853980323477
20
-208.28164244978879
10
-517.95853980323488
20
-208.2816424497895
10
-517.95853980323386
20
-201.88164244978947
0
LWPOLYLINE
5
321
100
AcDbEntity
8
0
100
AcDbPolyline
90
86
70
1
43
0.0
10
-640.37589342274669
20
-420.42273636808153
10
-641.47589342274671
20
-420.42273636808153
10
-641.47589342274671
20
-415.42273636808153
10
-659.21451307476241
20
-415.42273636808153
10
-659.21451307476241
20
-420.42273636808153
10
-660.31451307476243
20
-420.42273636808153
10
-660.31451307476243
20
-415.42273636808159
10
-666.71451307476241
20
-415.42273636808153
10
-666.71451307476241
20
-420.42273636808153
10
-667.81451307476243
20
-420.42273636808153
10
-667.81451307476243
20
-415.42273636808153
10
-674.41977156873077
20
-415.42273636808153
10
-672.91654762125017
20
-425.42273636808153
10
-672.91330979014049
20
-435.466043279735
42
0.016840404278919332
10
-672.53202866481786
20
-446.42273636808147
10
-657.21466362607771
20
-446.42273636808159
10
-657.21451307476241
20
-445.42273636808147
10
-645.2146049856965
20
-445.42273636808102
42
0.0018510054353909986
10
-645.13584847218397
20
-446.42273636808255
10
-629.21593837330943
20
-446.42273636808216
10
-629.21451307476241
20
-445.42273636808125
10
-617.2146049856965
20
-445.42273636807556
42
0.0023353235051685427
10
-617.11524152269351
20
-446.42273636808142
10
-586.41456008488763
20
-446.42273636808278
10
-586.41451307476257
20
-445.42273636808062
10
-574.41460498569586
20
-445.42273636808039
42
0.003892940923806207
10
-574.24896633081278
20
-446.42273636810438
10
-559.41452190188431
20
-446.42273636810438
10
-559.41451307476257
20
-445.42273636808022
10
-547.41460498569586
20
-445.42273636808005
42
0.0067278096933989073
10
-547.12833840121652
20
-446.42273636808204
10
-532.41451307476257
20
-446.42273636808142
10
-532.41451307476257
20
-445.42273636807977
10
-520.41460498569586
20
-445.42273636808204
42
0.025609845044358134
10
-519.32424681499799
20
-446.42273636808142
10
-510.11395750425095
20
-446.42273636808147
10
-510.11395750425095
20
-445.28582001387508
42
0.063058468250362765
10
-507.62150017677686
20
-444.97022400474071
10
-507.62462231462251
20
-435.28578169341449
10
-510.11395750425089
20
-435.28578169341466
42
0.052948400115703328
10
-515.11395750425095
20
-428.47625079381169
10
-515.11395750425095
20
-433.47625079381174
10
-516.21395750425097
20
-433.47625079381174
10
-516.21395750425097
20
-427.31688955253441
42
0.032641182176882312
10
-520.11395750425095
20
-423.85171868893872
10
-520.11395750425095
20
-428.85171868893877
10
-521.21395750425097
20
-428.85171868893877
10
-521.21395750425097
20
-423.02590493015123
42
0.09897033429776135
10
-535.47142573798953
20
-416.49607047588313
10
-535.47142573798953
20
-421.49607047588319
10
-536.57142573798956
20
-421.49607047588319
10
-536.57142573798956
20
-416.25228323082035
42
0.040371768437399654
10
-542.97142573798953
20
-415.45903762656542
10
-542.97142573798953
20
-420.45903762656542
10
-544.07142573798956
20
-420.45903762656542
10
-544.07142573798956
20
-415.42728297738438
42
0.0035542206949972653
10
-544.6400756897068
20
-415.42273636808147
10
-562.53174411634848
20
-415.42273636808147
10
-562.53174411634848
20
-420.42273636808147
10
-563.6317441163485
20
-420.42273636808147
10
-563.6317441163485
20
-415.42273636808153
10
-570.03174411634848
20
-415.42273636808147
10
-570.03174411634848
20
-420.42273636808147
10
-571.1317441163485
20
-420.42273636808147
10
-571.1317441163485
20
-415.42273636808153
10
-589.96490080379067
20
-415.42273636808147
10
-589.96490080379067
20
-420.42273636808147
10
-591.06490080379058
20
-420.42273636808147
10
-591.06490080379058
20
-415.42273636808153
10
-597.46490080379067
20
-415.42273636808147
10
-597.46490080379056
20
-420.42273636808147
10
-598.56490080379058
20
-420.42273636808147
10
-598.56490080379058
20
-415.42273636808153
10
-604.96490080379067
20
-415.42273636808153
10
-604.96490080379056
20
-420.42273636808147
10
-606.06490080379058
20
-420.42273636808147
10
-606.06490080379058
20
-415.42273636808153
10
-612.46490080379067
20
-415.42273636808153
10
-612.46490080379056
20
-420.42273636808147
10
-613.56490080379058
20
-420.42273636808147
10
-613.56490080379058
20
-415.42273636808153
10
-632.87589342274669
20
-415.42273636808153
10
-632.87589342274669
20
-420.42273636808153
10
-633.97589342274671
20
-420.42273636808153
10
-633.97589342274671
20
-415.42273636808153
10
-640.37589342274669
20
-415.42273636808153
0
LWPOLYLINE
5
322
100
AcDbEntity
8
0
100
AcDbPolyline
90
86
70
1
43
0.0
10
-640.37589342274509
20
-385.42273636808153
10
-641.47589342274512
20
-385.42273636808153
10
-641.47589342274512
20
-380.42273636808153
10
-659.21451307476104
20
-380.42273636808153
10
-659.21451307476104
20
-385.42273636808153
10
-660.31451307476107
20
-385.42273636808153
10
-660.31451307476107
20
-380.42273636808159
10
-666.71451307476104
20
-380.42273636808153
10
-666.71451307476104
20
-385.42273636808153
10
-667.81451307476107
20
-385.42273636808153
10
-667.81451307476107
20
-380.42273636808153
10
-674.41977156872917
20
-380.42273636808153
10
-672.91654762124881
20
-390.42273636808153
10
-672.9133097901389
20
-400.466043279735
42
0.016840404278919332
10
-672.53202866481638
20
-411.42273636808147
10
-657.21466362607634
20
-411.42273636808159
10
-657.21451307476104
20
-410.42273636808147
10
-645.2146049856949
20
-410.42273636808102
42
0.0018510054353909986
10
-645.13584847218237
20
-411.42273636808255
10
-629.21593837330795
20
-411.42273636808216
10
-629.21451307476104
20
-410.42273636808125
10
-617.21460498569502
20
-410.42273636807556
42
0.0023353235051715143
10
-617.11524152269203
20
-411.42273636808142
10
-586.41456008488615
20
-411.42273636808278
10
-586.41451307476109
20
-410.42273636808062
10
-574.41460498569438
20
-410.42273636808039
42
0.0038929409238079894
10
-574.2489663308113
20
-411.42273636810438
10
-559.41452190188284
20
-411.42273636810438
10
-559.41451307476098
20
-410.42273636808022
10
-547.41460498569438
20
-410.42273636808005
42
0.0067278096933989073
10
-547.12833840121505
20
-411.42273636808204
10
-532.41451307476109
20
-411.42273636808142
10
-532.41451307476109
20
-410.42273636807977
10
-520.41460498569438
20
-410.42273636808204
42
0.025609845044357593
10
-519.32424681499651
20
-411.42273636808142
10
-510.11395750424947
20
-411.42273636808147
10
-510.11395750424947
20
-410.28582001387508
42
0.063058468250360974
10
-507.62150017677538
20
-409.97022400474071
10
-507.62462231462109
20
-400.28578169341449
10
-510.11395750424947
20
-400.28578169341466
42
0.052948400115702933
10
-515.11395750424947
20
-393.47625079381169
10
-515.11395750424947
20
-398.47625079381174
10
-516.21395750424949
20
-398.47625079381174
10
-516.21395750424949
20
-392.31688955253441
42
0.032641182176881889
10
-520.11395750424947
20
-388.85171868893872
10
-520.11395750424947
20
-393.85171868893877
10
-521.21395750424949
20
-393.85171868893877
10
-521.21395750424949
20
-388.02590493015123
42
0.09897033429776135
10
-535.47142573798806
20
-381.49607047588313
10
-535.47142573798806
20
-386.49607047588319
10
-536.57142573798797
20
-386.49607047588319
10
-536.57142573798797
20
-381.25228323082035
42
0.040371768437399314
10
-542.97142573798806
20
-380.45903762656542
10
-542.97142573798806
20
-385.45903762656542
10
-544.07142573798797
20
-385.45903762656542
10
-544.07142573798797
20
-380.42728297738438
42
0.0035542206950011698
10
-544.64007568970533
20
-380.42273636808147
10
-562.531744116347
20
-380.42273636808147
10
-562.531744116347
20
-385.42273636808147
10
-563.63174411634702
20
-385.42273636808147
10
-563.63174411634702
20
-380.42273636808153
10
-570.031744116347
20
-380.42273636808147
10
-570.031744116347
20
-385.42273636808147
10
-571.13174411634702
20
-385.42273636808147
10
-571.13174411634702
20
-380.42273636808153
10
-589.96490080378908
20
-380.42273636808147
10
-589.96490080378908
20
-385.42273636808147
10
-591.06490080378921
20
-385.42273636808147
10
-591.0649008037891
20
-380.42273636808153
10
-597.46490080378908
20
-380.42273636808147
10
-597.46490080378908
20
-385.42273636808147
10
-598.5649008037891
20
-385.42273636808147
10
-598.56490080378899
20
-380.42273636808153
10
-604.96490080378908
20
-380.42273636808153
10
-604.96490080378908
20
-385.42273636808147
10
-606.0649008037891
20
-385.42273636808147
10
-606.06490080378899
20
-380.42273636808153
10
-612.46490080378908
20
-380.42273636808153
10
-612.46490080378908
20
-385.42273636808147
10
-613.5649008037891
20
-385.42273636808147
10
-613.56490080378899
20
-380.42273636808153
10
-632.87589342274509
20
-380.42273636808153
10
-632.87589342274509
20
-385.42273636808153
10
-633.97589342274512
20
-385.42273636808153
10
-633.97589342274512
20
-380.42273636808153
10
-640.37589342274509
20
-380.42273636808153
0
LWPOLYLINE
5
323
100
AcDbEntity
8
0
100
AcDbPolyline
90
86
70
1
43
0.0
10
-640.37589342274509
20
-350.42273636808153
10
-641.47589342274512
20
-350.42273636808153
10
-641.47589342274512
20
-345.42273636808153
10
-659.21451307476093
20
-345.42273636808153
10
-659.21451307476093
20
-350.42273636808153
10
-660.31451307476095
20
-350.42273636808153
10
-660.31451307476095
20
-345.42273636808159
10
-666.71451307476093
20
-345.42273636808153
10
-666.71451307476093
20
-350.42273636808153
10
-667.81451307476095
20
-350.42273636808153
10
-667.81451307476095
20
-345.42273636808153
10
-674.41977156872917
20
-345.42273636808153
10
-672.91654762124858
20
-355.42273636808153
10
-672.9133097901389
20
-365.466043279735
42
0.016840404278919332
10
-672.53202866481638
20
-376.42273636808147
10
-657.21466362607612
20
-376.42273636808159
10
-657.21451307476082
20
-375.42273636808147
10
-645.2146049856949
20
-375.42273636808102
42
0.0018510054353909986
10
-645.13584847218237
20
-376.42273636808255
10
-629.21593837330784
20
-376.42273636808216
10
-629.21451307476093
20
-375.42273636808125
10
-617.2146049856949
20
-375.42273636807556
42
0.0023353235051685427
10
-617.11524152269192
20
-376.42273636808142
10
-586.41456008488603
20
-376.42273636808278
10
-586.41451307476098
20
-375.42273636808062
10
-574.41460498569438
20
-375.42273636808039
42
0.003892940923806207
10
-574.24896633081119
20
-376.42273636810438
10
-559.41452190188272
20
-376.42273636810438
10
-559.41451307476098
20
-375.42273636808022
10
-547.41460498569427
20
-375.42273636808005
42
0.0067278096933989073
10
-547.12833840121493
20
-376.42273636808204
10
-532.41451307476098
20
-376.42273636808142
10
-532.41451307476098
20
-375.42273636807977
10
-520.41460498569438
20
-375.42273636808204
42
0.025609845044358134
10
-519.3242468149964
20
-376.42273636808142
10
-510.11395750424936
20
-376.42273636808147
10
-510.11395750424936
20
-375.28582001387508
42
0.063058468250362765
10
-507.62150017677527
20
-374.97022400474071
10
-507.62462231462098
20
-365.28578169341449
10
-510.1139575042493
20
-365.28578169341466
42
0.052948400115703328
10
-515.11395750424936
20
-358.47625079381169
10
-515.11395750424936
20
-363.47625079381174
10
-516.21395750424938
20
-363.47625079381174
10
-516.21395750424938
20
-357.31688955253441
42
0.032641182176882312
10
-520.11395750424936
20
-353.85171868893872
10
-520.11395750424936
20
-358.85171868893877
10
-521.21395750424938
20
-358.85171868893877
10
-521.21395750424938
20
-353.02590493015123
42
0.09897033429776135
10
-535.47142573798794
20
-346.49607047588313
10
-535.47142573798794
20
-351.49607047588319
10
-536.57142573798797
20
-351.49607047588319
10
-536.57142573798797
20
-346.25228323082035
42
0.040371768437399654
10
-542.97142573798794
20
-345.45903762656542
10
-542.97142573798794
20
-350.45903762656542
10
-544.07142573798797
20
-350.45903762656542
10
-544.07142573798797
20
-345.42728297738438
42
0.0035542206949972653
10
-544.64007568970521
20
-345.42273636808147
10
-562.531744116347
20
-345.42273636808147
10
-562.53174411634689
20
-350.42273636808147
10
-563.63174411634691
20
-350.42273636808147
10
-563.63174411634691
20
-345.42273636808153
10
-570.031744116347
20
-345.42273636808147
10
-570.03174411634689
20
-350.42273636808147
10
-571.13174411634691
20
-350.42273636808147
10
-571.13174411634691
20
-345.42273636808153
10
-589.96490080378908
20
-345.42273636808147
10
-589.96490080378908
20
-350.42273636808147
10
-591.06490080378899
20
-350.42273636808147
10
-591.06490080378899
20
-345.42273636808153
10
-597.46490080378908
20
-345.42273636808147
10
-597.46490080378896
20
-350.42273636808147
10
-598.56490080378899
20
-350.42273636808147
10
-598.56490080378899
20
-345.42273636808153
10
-604.96490080378908
20
-345.42273636808153
10
-604.96490080378896
20
-350.42273636808147
10
-606.06490080378899
20
-350.42273636808147
10
-606.06490080378899
20
-345.42273636808153
10
-612.46490080378908
20
-345.42273636808153
10
-612.46490080378896
20
-350.42273636808147
10
-613.56490080378899
20
-350.42273636808147
10
-613.56490080378899
20
-345.42273636808153
10
-632.87589342274509
20
-345.42273636808153
10
-632.87589342274509
20
-350.42273636808153
10
-633.97589342274512
20
-350.42273636808153
10
-633.97589342274512
20
-345.42273636808153
10
-640.37589342274509
20
-345.42273636808153
0
LWPOLYLINE
5
324
100
AcDbEntity
8
0
100
AcDbPolyline
90
4
70
1
43
0.0
10
-700.37623107865431
20
-302.43603878658911
10
-656.37623107865443
20
-302.43603878658905
42
-0.99999999999999989
10
-656.37623107865443
20
-308.43603878658905
10
-700.37623107865431
20
-308.43603878658905
42
-0.99999999999999989
0
LWPOLYLINE
5
325
100
AcDbEntity
8
0
100
AcDbPolyline
90
4
70
1
43
0.0
10
-700.37623107865431
20
-282.43603878658911
10
-656.37623107865443
20
-282.43603878658905
42
-0.99999999999999989
10
-656.37623107865443
20
-288.43603878658905
10
-700.37623107865431
20
-288.43603878658905
42
-0.99999999999999989
0
LWPOLYLINE
5
326
100
AcDbEntity
8
0
100
AcDbPolyline
90
4
70
1
43
0.0
10
-576.37623107865431
20
-308.43603878658905
10
-620.37623107865431
20
-308.43603878658905
42
-0.99999999999999989
10
-620.37623107865431
20
-302.43603878658911
10
-576.37623107865431
20
-302.43603878658911
42
-0.99999999999999989
0
LWPOLYLINE
5
327
100
AcDbEntity
8
0
100
AcDbPolyline
90
4
70
1
43
0.0
10
-620.37623107865431
20
-282.43603878658911
10
-576.37623107865431
20
-282.43603878658911
42
-0.99999999999999989
10
-576.37623107865431
20
-288.43603878658905
10
-620.37623107865431
20
-288.43603878658905
42
-0.99999999999999989
0
LWPOLYLINE
5
328
100
AcDbEntity
8
0
100
AcDbPolyline
90
144
70
1
43
0.0
10
-710.82623154545695
20
-322.38603878658955
10
-710.82623154545695
20
-318.38603878658955
10
-705.82623154545695
20
-318.38603878658949
10
-705.82623154545695
20
-322.38603878658949
10
-707.57623154545718
20
-322.38603878658949
10
-707.57623154545718
20
-325.38603878658955
10
-699.07623154545706
20
-325.38603878658904
10
-699.07623154545706
20
-322.38603878658949
10
-700.82623154545695
20
-322.38603878658949
10
-700.82623154545695
20
-318.38603878658949
10
-695.82623154545695
20
-318.38603878658949
10
-695.82623154545695
20
-322.38603878658949
10
-697.57623154545718
20
-322.38603878658949
10
-697.57623154545718
20
-325.38603878658944
10
-689.07623154545706
20
-325.38603878658904
10
-689.07623154545706
20
-322.38603878658949
10
-690.82623154545695
20
-322.38603878658944
10
-690.82623154545695
20
-318.38603878658944
10
-685.82623154545695
20
-318.38603878658944
10
-685.82623154545695
20
-322.38603878658944
10
-687.57623154545718
20
-322.38603878658944
10
-687.57623154545718
20
-325.38603878658944
10
-679.07623154545706
20
-325.38603878658904
10
-679.07623154545706
20
-322.38603878658944
10
-680.82623154545695
20
-322.38603878658944
10
-680.82623154545695
20
-318.38603878658944
10
-675.82623154545695
20
-318.38603878658938
10
-675.82623154545695
20
-322.38603878658944
10
-677.57623154545718
20
-322.38603878658944
10
-677.57623154545718
20
-325.38603878658938
10
-669.07623154545706
20
-325.38603878658904
10
-669.07623154545706
20
-322.38603878658932
10
-670.82623154545695
20
-322.38603878658944
10
-670.82623154545695
20
-318.38603878658938
10
-665.82623154545695
20
-318.38603878658938
10
-665.82623154545695
20
-322.38603878658932
10
-667.57623154545718
20
-322.38603878658932
10
-667.57623154545718
20
-325.38603878658938
10
-659.07623154545706
20
-325.38603878658904
10
-659.07623154545706
20
-322.38603878658932
10
-660.82623154545695
20
-322.38603878658932
10
-660.82623154545695
20
-318.38603878658938
10
-655.82623154545695
20
-318.38603878658938
10
-655.82623154545695
20
-322.38603878658932
10
-657.57623154545718
20
-322.38603878658932
10
-657.57623154545718
20
-325.38603878658932
10
-649.07623154545706
20
-325.38603878658904
10
-649.07623154545706
20
-322.38603878658932
10
-650.82623154545695
20
-322.38603878658927
10
-650.82623154545695
20
-318.38603878658932
10
-645.82623154545695
20
-318.38603878658932
10
-645.82623154545695
20
-322.38603878658927
10
-647.57623154545718
20
-322.38603878658927
10
-647.57623154545718
20
-325.38603878658932
10
-639.07623154545706
20
-325.38603878658904
10
-639.07623154545706
20
-322.38603878658927
10
-640.82623154545695
20
-322.38603878658927
10
-640.82623154545695
20
-318.38603878658932
10
-635.82623154545706
20
-318.38603878658921
10
-635.82623154545706
20
-322.38603878658927
10
-637.57623154545706
20
-322.38603878658927
10
-637.57623154545706
20
-325.38603878658927
10
-629.07623154545706
20
-325.38603878658904
10
-629.07623154545706
20
-322.38603878658921
10
-630.82623154545706
20
-322.38603878658927
10
-630.82623154545706
20
-318.38603878658927
10
-625.82623154545706
20
-318.38603878658921
10
-625.82623154545706
20
-322.38603878658921
10
-627.57623154545706
20
-322.38603878658921
10
-627.57623154545706
20
-325.38603878658927
10
-619.07623154545706
20
-325.38603878658904
10
-619.07623154545706
20
-322.38603878658921
10
-620.82623154545706
20
-322.38603878658921
10
-620.82623154545706
20
-318.38603878658921
10
-615.82623154545706
20
-318.38603878658921
10
-615.82623154545706
20
-322.38603878658921
10
-617.57623154545706
20
-322.38603878658921
10
-617.57623154545706
20
-325.38603878658921
10
-609.07623154545706
20
-325.38603878658904
10
-609.07623154545706
20
-322.38603878658921
10
-610.82623154545706
20
-322.38603878658915
10
-610.82623154545706
20
-318.38603878658915
10
-605.82623154545706
20
-318.38603878658915
10
-605.82623154545706
20
-322.38603878658915
10
-607.57623154545706
20
-322.38603878658915
10
-607.57623154545706
20
-325.38603878658921
10
-599.07623154545706
20
-325.38603878658904
10
-599.07623154545706
20
-322.38603878658915
10
-600.82623154545706
20
-322.38603878658915
10
-600.82623154545706
20
-318.38603878658915
10
-595.82623154545706
20
-318.3860387865891
10
-595.82623154545706
20
-322.38603878658915
10
-597.57623154545706
20
-322.38603878658915
10
-597.57623154545706
20
-325.3860387865891
10
-589.07623154545706
20
-325.38603878658904
10
-589.07623154545706
20
-322.3860387865891
10
-590.82623154545706
20
-322.38603878658915
10
-590.82623154545706
20
-318.3860387865891
10
-585.82623154545706
20
-318.3860387865891
10
-585.82623154545706
20
-322.3860387865891
10
-587.57623154545706
20
-322.3860387865891
10
-587.57623154545706
20
-325.3860387865891
10
-579.07623154545706
20
-325.38603878658904
10
-579.07623154545706
20
-322.3860387865891
10
-580.82623154545706
20
-322.3860387865891
10
-580.82623154545706
20
-318.3860387865891
10
-575.82623154545706
20
-318.3860387865891
10
-575.82623154545706
20
-322.3860387865891
10
-577.57623154545706
20
-322.3860387865891
10
-577.57623154545706
20
-325.38603878658904
10
-569.07623154545706
20
-325.38603878658904
10
-569.07623154545706
20
-322.3860387865891
10
-570.82623154545706
20
-322.38603878658898
10
-570.82623154545706
20
-318.38603878658898
10
-565.82623154545706
20
-318.38603878658898
10
-565.82623154545706
20
-322.38603878658898
10
-567.57623154545706
20
-322.38603878658898
10
-567.57623154545706
20
-325.38603878658904
10
-555.27623107865463
20
-325.38603878658904
10
-555.27623107865463
20
-310.48603878658901
10
-558.37623107865465
20
-310.48603878658901
10
-558.37623107865465
20
-260.38603878658898
10
-555.27623107865463
20
-260.38603878658898
10
-555.27623107865463
20
-245.48603878658895
10
-558.37623107865465
20
-245.48603878658895
10
-558.37623107865465
20
-215.3860387865889
10
-555.27623107865452
20
-215.3860387865889
10
-555.27623107865463
20
-195.48603878658889
10
-558.37623107865465
20
-195.48603878658889
10
-558.37623107865465
20
-165.48603878658884
10
-724.07623107865493
20
-165.48603878658884
10
-724.07623107865493
20
-180.38603878658887
10
-720.97623107865491
20
-180.38603878658887
10
-720.97623107865479
20
-230.48603878658892
10
-724.07623107865493
20
-230.48603878658892
10
-724.07623107865493
20
-245.38603878658893
10
-720.97623107865479
20
-245.38603878658893
10
-720.97623107865491
20
-275.48603878658901
10
-724.07623107865493
20
-275.48603878658895
10
-724.07623107865493
20
-295.38603878658898
10
-720.97623107865491
20
-295.38603878658898
10
-720.97623107865479
20
-325.38603878658904
10
-709.07623154545718
20
-325.38603878658955
10
-709.07623154545706
20
-322.38603878658949
0
CIRCLE
5
329
100
AcDbEntity
8
0
100
AcDbCircle
10
-583.17623154545709
20
-255.43604078658888
30
0
40
1.0500000000000043
210
-0
220
0
230
1
0
CIRCLE
5
330
100
AcDbEntity
8
0
100
AcDbCircle
10
-610.17623154545709
20
-255.43604078658888
30
0
40
1.0500000000000043
210
-0
220
0
230
1
0
CIRCLE
5
331
100
AcDbEntity
8
0
100
AcDbCircle
10
-637.17623154545709
20
-255.43604078658888
30
0
40
1.0500000000000043
210
-0
220
0
230
1
0
CIRCLE
5
332
100
AcDbEntity
8
0
100
AcDbCircle
10
-679.97622954545704
20
-255.43604078658888
30
0
40
1.0499999999999687
210
-0
220
0
230
1
0
CIRCLE
5
333
100
AcDbEntity
8
0
100
AcDbCircle
10
-707.97622954545716
20
-255.43604078658888
30
0
40
1.0499999999999687
210
-0
220
0
230
1
0
CIRCLE
5
334
100
AcDbEntity
8
0
100
AcDbCircle
10
-717.47622954545704
20
-205.43603978658888
30
0
40
1.0499999999999687
210
-0
220
0
230
1
0
CIRCLE
5
335
100
AcDbEntity
8
0
100
AcDbCircle
10
-693.97622954545704
20
-205.43603978658888
30
0
40
1.0499999999999687
210
-0
220
0
230
1
0
CIRCLE
5
336
100
AcDbEntity
8
0
100
AcDbCircle
10
-670.47622954545716
20
-205.43603978658888
30
0
40
1.0499999999999687
210
-0
220
0
230
1
0
CIRCLE
5
337
100
AcDbEntity
8
0
100
AcDbCircle
10
-645.17623154545709
20
-205.43603978658888
30
0
40
1.0499999999999687
210
-0
220
0
230
1
0
CIRCLE
5
338
100
AcDbEntity
8
0
100
AcDbCircle
10
-621.67623154545709
20
-205.43603978658888
30
0
40
1.0500000000000043
210
-0
220
0
230
1
0
CIRCLE
5
339
100
AcDbEntity
8
0
100
AcDbCircle
10
-598.67623154545709
20
-205.43603978658888
30
0
40
1.0500000000000043
210
-0
220
0
230
1
0
CIRCLE
5
340
100
AcDbEntity
8
0
100
AcDbCircle
10
-575.17623154545709
20
-205.43603978658888
30
0
40
1.0500000000000043
210
-0
220
0
230
1
0
LWPOLYLINE
5
341
100
AcDbEntity
8
0
100
AcDbPolyline
90
4
70
1
43
0.0
10
-702.07959624207706
20
-140.6163482614416
10
-658.07959624207683
20
-140.6163482614416
42
-0.99999999999999989
10
-658.07959624207683
20
-146.6163482614416
10
-702.07959624207672
20
-146.61634826144157
42
-0.99999999999999989
0
LWPOLYLINE
5
342
100
AcDbEntity
8
0
100
AcDbPolyline
90
4
70
1
43
0.0
10
-702.07959624207706
20
-120.61634826144159
10
-658.07959624207683
20
-120.6163482614416
42
-0.99999999999999989
10
-658.07959624207683
20
-126.61634826144159
10
-702.07959624207672
20
-126.61634826144157
42
-0.99999999999999989
0
LWPOLYLINE
5
343
100
AcDbEntity
8
0
100
AcDbPolyline
90
4
70
1
43
0.0
10
-578.07959624207695
20
-146.6163482614416
10
-622.07959624207683
20
-146.61634826144157
42
-0.99999999999999989
10
-622.07959624207683
20
-140.6163482614416
10
-578.07959624207695
20
-140.6163482614416
42
-0.99999999999999989
0
LWPOLYLINE
5
344
100
AcDbEntity
8
0
100
AcDbPolyline
90
4
70
1
43
0.0
10
-622.07959624207683
20
-120.61634826144159
10
-578.07959624207695
20
-120.6163482614416
42
-0.99999999999999989
10
-578.07959624207695
20
-126.61634826144159
10
-622.07959624207683
20
-126.61634826144157
42
-0.99999999999999989
0
LWPOLYLINE
5
345
100
AcDbEntity
8
0
100
AcDbPolyline
90
144
70
1
43
0.0
10
-712.52959670887981
20
-160.56634826144204
10
-712.52959670887981
20
-156.56634826144204
10
-707.52959670887981
20
-156.56634826144202
10
-707.52959670887981
20
-160.56634826144202
10
-709.27959670887958
20
-160.56634826144204
10
-709.27959670887958
20
-163.56634826144202
10
-700.77959670887958
20
-163.56634826144156
10
-700.77959670887981
20
-160.56634826144202
10
-702.52959670887981
20
-160.56634826144202
10
-702.52959670887981
20
-156.56634826144202
10
-697.52959670887981
20
-156.56634826144199
10
-697.52959670887981
20
-160.56634826144202
10
-699.27959670887958
20
-160.56634826144199
10
-699.27959670887958
20
-163.56634826144202
10
-690.77959670887958
20
-163.56634826144156
10
-690.77959670887981
20
-160.56634826144199
10
-692.52959670887981
20
-160.56634826144199
10
-692.52959670887981
20
-156.56634826144196
10
-687.52959670887981
20
-156.56634826144196
10
-687.52959670887981
20
-160.56634826144193
10
-689.27959670887958
20
-160.56634826144199
10
-689.27959670887958
20
-163.56634826144193
10
-680.77959670887958
20
-163.56634826144156
10
-680.77959670887981
20
-160.56634826144193
10
-682.52959670887981
20
-160.56634826144193
10
-682.52959670887981
20
-156.56634826144193
10
-677.52959670887981
20
-156.56634826144193
10
-677.52959670887981
20
-160.56634826144193
10
-679.27959670887958
20
-160.5663482614419
10
-679.27959670887958
20
-163.56634826144193
10
-670.77959670887958
20
-163.56634826144156
10
-670.77959670887981
20
-160.5663482614419
10
-672.52959670887981
20
-160.5663482614419
10
-672.52959670887981
20
-156.5663482614419
10
-667.52959670887981
20
-156.56634826144187
10
-667.52959670887981
20
-160.56634826144187
10
-669.27959670887958
20
-160.5663482614419
10
-669.27959670887958
20
-163.56634826144187
10
-660.77959670887958
20
-163.56634826144156
10
-660.77959670887981
20
-160.56634826144187
10
-662.52959670887981
20
-160.56634826144187
10
-662.52959670887981
20
-156.56634826144187
10
-657.52959670887981
20
-156.56634826144185
10
-657.52959670887981
20
-160.56634826144187
10
-659.27959670887958
20
-160.56634826144182
10
-659.27959670887958
20
-163.56634826144187
10
-650.77959670887958
20
-163.56634826144156
10
-650.77959670887981
20
-160.56634826144182
10
-652.52959670887981
20
-160.56634826144182
10
-652.52959670887981
20
-156.56634826144182
10
-647.52959670887981
20
-156.56634826144182
10
-647.52959670887981
20
-160.56634826144179
10
-649.27959670887958
20
-160.56634826144182
10
-649.27959670887958
20
-163.56634826144182
10
-640.77959670887958
20
-163.56634826144156
10
-640.77959670887981
20
-160.56634826144179
10
-642.52959670887981
20
-160.56634826144179
10
-642.52959670887981
20
-156.56634826144179
10
-637.52959670887969
20
-156.56634826144176
10
-637.52959670887969
20
-160.56634826144179
10
-639.27959670887969
20
-160.56634826144176
10
-639.27959670887969
20
-163.56634826144182
10
-630.77959670887958
20
-163.56634826144156
10
-630.77959670887969
20
-160.56634826144176
10
-632.52959670887969
20
-160.56634826144176
10
-632.52959670887969
20
-156.56634826144176
10
-627.52959670887969
20
-156.56634826144173
10
-627.52959670887969
20
-160.56634826144173
10
-629.27959670887969
20
-160.56634826144176
10
-629.27959670887969
20
-163.56634826144173
10
-620.77959670887958
20
-163.56634826144156
10
-620.77959670887969
20
-160.56634826144173
10
-622.52959670887969
20
-160.56634826144173
10
-622.52959670887969
20
-156.56634826144173
10
-617.52959670887969
20
-156.5663482614417
10
-617.52959670887969
20
-160.56634826144173
10
-619.27959670887969
20
-160.5663482614417
10
-619.27959670887969
20
-163.56634826144173
10
-610.77959670887958
20
-163.56634826144156
10
-610.77959670887969
20
-160.5663482614417
10
-612.52959670887969
20
-160.5663482614417
10
-612.52959670887969
20
-156.56634826144168
10
-607.52959670887969
20
-156.56634826144168
10
-607.52959670887969
20
-160.56634826144165
10
-609.27959670887969
20
-160.5663482614417
10
-609.27959670887969
20
-163.56634826144165
10
-600.77959670887958
20
-163.56634826144156
10
-600.77959670887969
20
-160.56634826144165
10
-602.52959670887969
20
-160.56634826144165
10
-602.52959670887969
20
-156.56634826144165
10
-597.52959670887969
20
-156.56634826144165
10
-597.52959670887969
20
-160.56634826144165
10
-599.27959670887969
20
-160.56634826144162
10
-599.27959670887969
20
-163.56634826144165
10
-590.77959670887958
20
-163.56634826144156
10
-590.77959670887969
20
-160.56634826144162
10
-592.52959670887969
20
-160.56634826144162
10
-592.52959670887969
20
-156.56634826144162
10
-587.52959670887969
20
-156.56634826144159
10
-587.52959670887969
20
-160.56634826144159
10
-589.27959670887969
20
-160.56634826144162
10
-589.27959670887969
20
-163.56634826144159
10
-580.77959670887958
20
-163.56634826144156
10
-580.77959670887969
20
-160.56634826144159
10
-582.52959670887969
20
-160.56634826144159
10
-582.52959670887969
20
-156.56634826144159
10
-577.52959670887969
20
-156.56634826144156
10
-577.52959670887969
20
-160.56634826144159
10
-579.27959670887969
20
-160.56634826144153
10
-579.27959670887969
20
-163.56634826144159
10
-570.77959670887958
20
-163.56634826144156
10
-570.77959670887969
20
-160.56634826144153
10
-572.52959670887969
20
-160.56634826144153
10
-572.52959670887969
20
-156.56634826144153
10
-567.52959670887969
20
-156.56634826144153
10
-567.52959670887969
20
-160.5663482614415
10
-569.27959670887969
20
-160.56634826144153
10
-569.27959670887969
20
-163.56634826144153
10
-556.97959624207726
20
-163.56634826144156
10
-556.97959624207726
20
-148.66634826144153
10
-560.07959624207729
20
-148.66634826144153
10
-560.07959624207717
20
-98.566348261441462
10
-556.97959624207715
20
-98.566348261441462
10
-556.97959624207715
20
-83.66634826144147
10
-560.07959624207729
20
-83.66634826144147
10
-560.07959624207729
20
-53.566348261441433
10
-556.97959624207715
20
-53.566348261441433
10
-556.97959624207726
20
-33.666348261441414
10
-560.07959624207729
20
-33.666348261441414
10
-560.07959624207729
20
-3.6663482614413772
10
-725.77959624207756
20
-3.6663482614413812
10
-725.77959624207756
20
-18.566348261441398
10
-722.67959624207742
20
-18.566348261441394
10
-722.67959624207731
20
-68.666348261441442
10
-725.77959624207756
20
-68.666348261441442
10
-725.77959624207756
20
-83.566348261441462
10
-722.67959624207731
20
-83.566348261441462
10
-722.67959624207742
20
-113.6663482614415
10
-725.77959624207756
20
-113.6663482614415
10
-725.77959624207756
20
-133.5663482614415
10
-722.67959624207742
20
-133.5663482614415
10
-722.67959624207731
20
-163.56634826144156
10
-710.77959670887958
20
-163.56634826144202
10
-710.77959670887981
20
-160.56634826144204
0
CIRCLE
5
346
100
AcDbEntity
8
0
100
AcDbCircle
10
-584.87959670887972
20
-93.616350261441369
30
0
40
1.0500000000000043
210
-0
220
0
230
1
0
CIRCLE
5
347
100
AcDbEntity
8
0
100
AcDbCircle
10
-611.87959670887972
20
-93.616350261441369
30
0
40
1.0500000000000043
210
-0
220
0
230
1
0
CIRCLE
5
348
100
AcDbEntity
8
0
100
AcDbCircle
10
-638.87959670887972
20
-93.616350261441369
30
0
40
1.0500000000000043
210
-0
220
0
230
1
0
CIRCLE
5
349
100
AcDbEntity
8
0
100
AcDbCircle
10
-681.67959470887968
20
-93.616350261441369
30
0
40
1.0499999999999687
210
-0
220
0
230
1
0
CIRCLE
5
350
100
AcDbEntity
8
0
100
AcDbCircle
10
-709.67959470887968
20
-93.616350261441369
30
0
40
1.0499999999999687
210
-0
220
0
230
1
0
CIRCLE
5
351
100
AcDbEntity
8
0
100
AcDbCircle
10
-719.17959470887979
20
-43.616349261441378
30
0
40
1.0499999999999687
210
-0
220
0
230
1
0
CIRCLE
5
352
100
AcDbEntity
8
0
100
AcDbCircle
10
-695.67959470887968
20
-43.616349261441378
30
0
40
1.0499999999999687
210
-0
220
0
230
1
0
CIRCLE
5
353
100
AcDbEntity
8
0
100
AcDbCircle
10
-672.17959470887968
20
-43.616349261441378
30
0
40
1.0499999999999687
210
-0
220
0
230
1
0
CIRCLE
5
354
100
AcDbEntity
8
0
100
AcDbCircle
10
-646.87959670887972
20
-43.616349261441378
30
0
40
1.0499999999999687
210
-0
220
0
230
1
0
CIRCLE
5
355
100
AcDbEntity
8
0
100
AcDbCircle
10
-623.37959670887972
20
-43.616349261441378
30
0
40
1.0500000000000043
210
-0
220
0
230
1
0
CIRCLE
5
356
100
AcDbEntity
8
0
100
AcDbCircle
10
-600.37959670887972
20
-43.616349261441378
30
0
40
1.0500000000000043
210
-0
220
0
230
1
0
CIRCLE
5
357
100
AcDbEntity
8
0
100
AcDbCircle
10
-576.87959670887972
20
-43.616349261441378
30
0
40
1.0500000000000043
210
-0
220
0
230
1
0
CIRCLE
5
358
100
AcDbEntity
8
0
100
AcDbCircle
10
-700.51548951880181
20
-350.78017262036542
30
0
40
1.5500000000000114
210
0
220
0
230
1
0
CIRCLE
5
359
100
AcDbEntity
8
0
100
AcDbCircle
10
-700.51548951878681
20
-430.330171927462
30
0
40
1.5500000000000114
210
0
220
0
230
1
0
CIRCLE
5
360
100
AcDbEntity
8
0
100
AcDbCircle
10
-710.51548951879022
20
-412.18017262036756
30
0
40
1.5500000000000114
210
0
220
0
230
1
0
LWPOLYLINE
5
361
100
AcDbEntity
8
0
100
AcDbPolyline
90
8
70
1
43
0.0
10
-718.01548951880227
20
-348.28017262036866
10
-718.01548951878647
20
-432.83017192746524
42
0.4142135623730992
10
-713.01548951878544
20
-437.83017192746433
10
-688.01548951878544
20
-437.83017192745967
42
0.41421356237310336
10
-683.01548951878635
20
-432.83017192745876
10
-683.01548951880227
20
-348.28017262036212
42
0.41421356237311169
10
-688.01548951880307
20
-343.28017262036298
10
-713.01548951880307
20
-343.28017262036775
42
0.41421356237311585
0
LWPOLYLINE
5
362
100
AcDbEntity
8
0
100
AcDbPolyline
90
86
70
1
43
0.0
10
-732.05577968576176
20
-314.48776855922432
10
-732.05577968576165
20
-313.38776855922436
10
-727.05577968576165
20
-313.38776855922492
10
-727.05577968575972
20
-295.64914890720911
10
-732.05577968575972
20
-295.64914890720848
10
-732.05577968575949
20
-294.54914890720852
10
-727.05577968575949
20
-294.54914890720909
10
-727.05577968575881
20
-288.14914890720911
10
-732.05577968575881
20
-288.14914890720848
10
-732.05577968575869
20
-287.04914890720852
10
-727.05577968575869
20
-287.04914890720909
10
-727.0557796857579
20
-280.44389041324087
10
-737.05577968575813
20
-281.94711436072026
10
-747.09908659741143
20
-281.95035219182881
42
0.01684040427892057
10
-758.05577968575801
20
-282.33163331715002
10
-758.05577968576006
20
-297.64899835589028
10
-757.05577968575983
20
-297.6491489072057
10
-757.05577968576085
20
-309.64905699627167
42
0.0018510054353835011
10
-758.05577968576233
20
-309.72781350978408
10
-758.0557796857637
20
-325.64772360865857
10
-757.05577968576279
20
-325.64914890720564
10
-757.05577968575858
20
-337.64905699627172
42
0.0023353235051685427
10
-758.05577968576449
20
-337.74842045927448
10
-758.05577968576915
20
-368.44910189708048
10
-757.05577968576699
20
-368.44914890720565
10
-757.05577968576813
20
-380.44905699627225
42
0.003892940923806207
10
-758.05577968579223
20
-380.61469565115522
10
-758.05577968579405
20
-395.44914008008379
10
-757.05577968576972
20
-395.44914890720571
10
-757.05577968577086
20
-407.44905699627225
42
0.0067278096933989073
10
-758.0557796857729
20
-407.73532358075153
10
-758.05577968577404
20
-422.44914890720554
10
-757.05577968577245
20
-422.44914890720565
10
-757.05577968577597
20
-434.44905699627225
42
0.02560984504435922
10
-758.05577968577563
20
-435.53941516697
10
-758.05577968577666
20
-444.7497044777171
10
-756.91886333157026
20
-444.74970447771727
42
0.063058468250359198
10
-756.6032673224363
20
-447.2421618051913
10
-746.91882501111013
20
-447.23903966734673
10
-746.91882501110979
20
-444.74970447771847
42
0.052948400115702801
10
-740.10929411150641
20
-439.74970447771915
10
-745.10929411150641
20
-439.74970447771858
10
-745.1092941115063
20
-438.64970447771861
10
-738.94993287022885
20
-438.6497044777193
42
0.032641182176881459
10
-735.48476200663288
20
-434.74970447771972
10
-740.48476200663288
20
-434.74970447771909
10
-740.48476200663276
20
-433.64970447771901
10
-734.65894824784527
20
-433.64970447771975
42
0.098970334297761212
10
-728.12911379357547
20
-419.39223624398204
10
-733.12911379357547
20
-419.39223624398147
10
-733.12911379357524
20
-418.29223624398145
10
-727.88532654851247
20
-418.29223624398202
42
0.040371768437399827
10
-727.09208094425685
20
-411.8922362439821
10
-732.09208094425685
20
-411.89223624398153
10
-732.09208094425674
20
-410.79223624398151
10
-727.06032629507581
20
-410.79223624398202
42
0.0035542206949992178
10
-727.05577968577268
20
-410.22358629226471
10
-727.05577968577063
20
-392.33191786562315
10
-732.05577968577074
20
-392.33191786562253
10
-732.05577968577063
20
-391.23191786562251
10
-727.0557796857704
20
-391.23191786562313
10
-727.05577968576972
20
-384.83191786562315
10
-732.05577968576995
20
-384.83191786562253
10
-732.05577968576972
20
-383.73191786562251
10
-727.05577968576961
20
-383.73191786562313
10
-727.05577968576745
20
-364.89876117818096
10
-732.05577968576745
20
-364.89876117818039
10
-732.05577968576733
20
-363.79876117818037
10
-727.05577968576733
20
-363.798761178181
10
-727.05577968576665
20
-357.39876117818108
10
-732.05577968576677
20
-357.39876117818039
10
-732.05577968576665
20
-356.29876117818043
10
-727.05577968576654
20
-356.29876117818105
10
-727.05577968576574
20
-349.89876117818108
10
-732.05577968576586
20
-349.89876117818039
10
-732.05577968576574
20
-348.79876117818043
10
-727.05577968576563
20
-348.79876117818105
10
-727.05577968576495
20
-342.39876117818108
10
-732.05577968576506
20
-342.39876117818039
10
-732.05577968576495
20
-341.29876117818043
10
-727.05577968576472
20
-341.29876117818105
10
-727.05577968576267
20
-321.98776855922495
10
-732.05577968576279
20
-321.98776855922432
10
-732.05577968576267
20
-320.88776855922436
10
-727.05577968576245
20
-320.88776855922498
10
-727.05577968576176
20
-314.48776855922495
0
LWPOLYLINE
5
363
100
AcDbEntity
8
0
100
AcDbPolyline
90
86
70
1
43
0.0
10
-767.05577968576154
20
-314.48776855921835
10
-767.05577968576131
20
-313.38776855921833
10
-762.05577968576131
20
-313.38776855921896
10
-762.05577968575938
20
-295.64914890720314
10
-767.05577968575938
20
-295.64914890720252
10
-767.05577968575926
20
-294.54914890720255
10
-762.05577968575926
20
-294.54914890720312
10
-762.05577968575858
20
-288.14914890720314
10
-767.05577968575858
20
-288.14914890720252
10
-767.05577968575835
20
-287.04914890720255
10
-762.05577968575835
20
-287.04914890720312
10
-762.05577968575767
20
-280.4438904132349
10
-772.05577968575778
20
-281.94711436071429
10
-782.0990865974112
20
-281.95035219182284
42
0.01684040427892057
10
-793.05577968575778
20
-282.33163331714411
10
-793.05577968575972
20
-297.64899835588432
10
-792.05577968575949
20
-297.64914890719973
10
-792.05577968576051
20
-309.6490569962657
42
0.0018510054353835011
10
-793.05577968576199
20
-309.72781350977812
10
-793.05577968576347
20
-325.64772360865265
10
-792.05577968576245
20
-325.64914890719967
10
-792.05577968575824
20
-337.64905699626576
42
0.0023353235051685427
10
-793.05577968576415
20
-337.74842045926852
10
-793.05577968576881
20
-368.44910189707446
10
-792.05577968576677
20
-368.44914890719969
10
-792.0557796857679
20
-380.44905699626622
42
0.003892940923806207
10
-793.055779685792
20
-380.61469565114925
10
-793.05577968579371
20
-395.44914008007777
10
-792.05577968576949
20
-395.44914890719974
10
-792.05577968577063
20
-407.44905699626628
42
0.0067278096933989073
10
-793.05577968577268
20
-407.73532358074556
10
-793.05577968577381
20
-422.44914890719951
10
-792.05577968577222
20
-422.44914890719969
10
-792.05577968577575
20
-434.44905699626634
42
0.02560984504435922
10
-793.05577968577541
20
-435.53941516696403
10
-793.05577968577632
20
-444.74970447771113
10
-791.91886333157004
20
-444.74970447771125
42
0.063058468250359198
10
-791.60326732243607
20
-447.24216180518533
10
-781.91882501110979
20
-447.23903966734076
10
-781.91882501110956
20
-444.7497044777125
42
0.052948400115702801
10
-775.10929411150619
20
-439.74970447771318
10
-780.10929411150619
20
-439.74970447771261
10
-780.10929411150596
20
-438.64970447771265
10
-773.94993287022862
20
-438.64970447771333
42
0.032641182176881459
10
-770.48476200663254
20
-434.74970447771375
10
-775.48476200663254
20
-434.74970447771312
10
-775.48476200663242
20
-433.64970447771304
10
-769.65894824784505
20
-433.64970447771378
42
0.098970334297761212
10
-763.12911379357513
20
-419.39223624397607
10
-768.12911379357513
20
-419.3922362439755
10
-768.12911379357502
20
-418.29223624397548
10
-762.88532654851224
20
-418.29223624397605
42
0.040371768437399827
10
-762.09208094425662
20
-411.89223624397613
10
-767.09208094425662
20
-411.89223624397556
10
-767.09208094425651
20
-410.79223624397559
10
-762.06032629507547
20
-410.79223624397605
42
0.0035542206949992178
10
-762.05577968577245
20
-410.2235862922588
10
-762.05577968577029
20
-392.33191786561719
10
-767.0557796857704
20
-392.33191786561656
10
-767.05577968577029
20
-391.23191786561654
10
-762.05577968577018
20
-391.23191786561722
10
-762.05577968576949
20
-384.83191786561719
10
-767.05577968576961
20
-384.83191786561656
10
-767.05577968576949
20
-383.73191786561654
10
-762.05577968576927
20
-383.73191786561722
10
-762.05577968576722
20
-364.89876117817505
10
-767.05577968576722
20
-364.89876117817448
10
-767.05577968576699
20
-363.7987611781744
10
-762.05577968576699
20
-363.79876117817503
10
-762.05577968576631
20
-357.39876117817511
10
-767.05577968576654
20
-357.39876117817448
10
-767.05577968576631
20
-356.29876117817446
10
-762.0557796857662
20
-356.29876117817508
10
-762.05577968576551
20
-349.89876117817511
10
-767.05577968576563
20
-349.89876117817448
10
-767.05577968576551
20
-348.79876117817446
10
-762.0557796857654
20
-348.79876117817508
10
-762.05577968576461
20
-342.39876117817511
10
-767.05577968576472
20
-342.39876117817448
10
-767.05577968576461
20
-341.29876117817446
10
-762.05577968576449
20
-341.29876117817508
10
-762.05577968576233
20
-321.98776855921898
10
-767.05577968576245
20
-321.98776855921835
10
-767.05577968576233
20
-320.88776855921833
10
-762.05577968576222
20
-320.88776855921901
10
-762.05577968576154
20
-314.48776855921898
0
LINE
5
364
100
AcDbEntity
8
0
100
AcDbLine
10
-728.4736172234575
20
-238.12324000537041
30
0
11
-727.63597529650713
21
-238.12324000537012
31
7.1469628568897158e-17
0
LINE
5
365
100
AcDbEntity
8
0
100
AcDbLine
10
-727.63597529649451
20
-275.58288277493938
30
1.7763568394002505e-14
11
-727.63597529650713
21
-238.12324000537012
31
7.1469628568897158e-17
0
ARC
5
366
100
AcDbEntity
8
0
100
AcDbCircle
10
-738.83597529654389
20
-128.43350330861006
30
0
40
147.5749974668031
210
1.2325951644111448e-32
220
-9.8607613152622337e-32
230
1
100
AcDbArc
50
270.00000000001921
51
274.35256900531363
0
LINE
5
367
100
AcDbEntity
8
0
100
AcDbLine
10
-748.63597404357029
20
-276.00850077541645
30
0
11
-738.83597529649433
21
-276.00850077541315
31
-1.4552018261206352e-29
0
LINE
5
368
100
AcDbEntity
8
0
100
AcDbLine
10
-748.63597404357029
20
-276.00850077541645
30
0
11
-758.83597404356976
21
-277.50850077541992
31
3.8688103704831318e-16
0
LINE
5
369
100
AcDbEntity
8
0
100
AcDbLine
10
-758.83597404356976
20
-277.50850077541992
30
3.8688103704831318e-16
11
-758.83597404360808
21
-163.07451873665678
31
-7.0907756992295957e-15
0
ARC
5
370
100
AcDbEntity
8
0
100
AcDbCircle
10
-718.83597404360808
20
-163.07451873664343
30
0
40
40.000000000033474
210
0
220
0
230
1
100
AcDbArc
50
120.00000207231149
51
180
0
LINE
5
371
100
AcDbEntity
8
0
100
AcDbLine
10
-738.8359752965448
20
-125.93350330861007
30
0
11
-738.83597529654389
21
-128.43350330861006
31
0
0
LINE
5
372
100
AcDbEntity
8
0
100
AcDbLine
10
-728.94709264985499
20
-125.9335033086068
30
0
11
-738.8359752965448
21
-125.93350330861007
31
0
0
ARC
5
373
100
AcDbEntity
8
0
100
AcDbCircle
10
-738.83597529654389
20
-128.43350330861006
30
0
40
10.19999999999996
210
1.2325951644078375e-32
220
4.1421438371125035e-45
230
1
100
AcDbArc
50
0
51
14.187627613421744
0
LINE
5
374
100
AcDbEntity
8
0
100
AcDbLine
10
-728.20493133848856
20
-128.43350330860642
30
0
11
-728.63597529654396
21
-128.43350330860665
31
-1.2572470676959892e-31
0
ARC
5
375
100
AcDbEntity
8
0
100
AcDbCircle
10
-738.83597529654389
20
-128.43350330861006
30
0
40
10.631043958055246
210
-0
220
0
230
1
100
AcDbArc
50
-12.908953999875472
51
0
0
LINE
5
376
100
AcDbEntity
8
0
100
AcDbLine
10
-728.47361722349331
20
-130.80850453050149
30
0
11
-728.47361722348933
21
-142.80850453050141
31
-7.7062113788367489e-15
0
LINE
5
377
100
AcDbEntity
8
0
100
AcDbLine
10
-728.47361722348933
20
-142.80850453050141
30
-7.7062113788367489e-15
11
-727.63597529653907
21
-142.80850453050112
31
7.1469628568885029e-17
0
LINE
5
378
100
AcDbEntity
8
0
100
AcDbLine
10
-727.63597529653543
20
-153.9571035873451
30
1.7763568394002505e-14
11
-727.63597529653907
21
-142.80850453050112
31
7.1469628568885029e-17
0
ARC
5
379
100
AcDbEntity
8
0
100
AcDbCircle
10
-738.83597529654389
20
-128.43350330861006
30
0
40
27.872821371164402
210
-3.6659632787452844e-32
220
9.1539787500010865e-32
230
1
100
AcDbArc
50
291.82499478488262
51
293.69232569393563
0
LINE
5
380
100
AcDbEntity
8
0
100
AcDbLine
10
-728.47361722348535
20
-154.30850488067875
30
2.7484723872400389e-30
11
-728.4736172234808
21
-167.83857307397022
31
-6.4238412057132112e-15
0
LINE
5
381
100
AcDbEntity
8
0
100
AcDbLine
10
-728.4736172234808
20
-167.83857307397022
30
-6.4238412057132112e-15
11
-727.63597529653066
21
-167.83857307396994
31
7.14696285688729e-17
0
LINE
5
382
100
AcDbEntity
8
0
100
AcDbLine
10
-727.63597529652759
20
-177.12338189754598
30
1.7763568394002505e-14
11
-727.63597529653066
21
-167.83857307396994
31
7.14696285688729e-17
0
ARC
5
383
100
AcDbEntity
8
0
100
AcDbCircle
10
-738.83597529654389
20
-128.43350330861006
30
0
40
49.961427891981742
210
-0
220
0
230
1
100
AcDbArc
50
281.97044856131566
51
282.95424862863769
0
LINE
5
384
100
AcDbEntity
8
0
100
AcDbLine
10
-728.47361722347785
20
-177.30850522340546
30
0
11
-728.47361722347398
21
-188.88035912396413
31
-8.0650462268977393e-15
0
LINE
5
385
100
AcDbEntity
8
0
100
AcDbLine
10
-728.47361722347398
20
-188.88035912396413
30
-8.0650462268977393e-15
11
-727.63597529652361
21
-188.88035912396384
31
7.1469628568897158e-17
0
LINE
5
386
100
AcDbEntity
8
0
100
AcDbLine
10
-727.63597529651963
20
-200.68362038594665
30
1.7763568394002505e-14
11
-727.63597529652361
21
-188.88035912396384
31
7.1469628568897158e-17
0
ARC
5
387
100
AcDbEntity
8
0
100
AcDbCircle
10
-738.83597529654389
20
-128.43350330861006
30
0
40
73.113059146019879
210
6.1007622207165916e-33
220
8.7348228906850698e-34
230
1
100
AcDbArc
50
278.14800126594008
51
278.81168694846849
0
LINE
5
388
100
AcDbEntity
8
0
100
AcDbLine
10
-728.47361722347
20
-200.80850557358275
30
-2.3957732050408616e-46
11
-728.47361722346545
21
-214.49271003403561
31
-6.2946575833942934e-15
0
LINE
5
389
100
AcDbEntity
8
0
100
AcDbLine
10
-728.47361722346545
20
-214.49271003403561
30
-6.2946575833942934e-15
11
-727.63597529651497
21
-214.49271003403533
31
7.1469628568897158e-17
0
LINE
5
390
100
AcDbEntity
8
0
100
AcDbLine
10
-727.63597529651133
20
-225.41544739643507
30
0
11
-727.63597529651497
21
-214.49271003403533
31
7.1469628568897158e-17
0
ARC
5
391
100
AcDbEntity
8
0
100
AcDbCircle
10
-738.83597529654389
20
-128.43350330861006
30
0
40
97.62652036744278
210
-2.0932988134241514e-32
220
1.9610113588249264e-31
230
1
100
AcDbArc
50
276.09301559493133
51
276.58764406596265
0
LINE
5
392
100
AcDbEntity
8
0
100
AcDbLine
10
-728.47361722346182
20
-225.50852076531697
30
1.9253436307659614e-29
11
-728.4736172234575
21
-238.12324000537041
31
0
0
LWPOLYLINE
5
393
100
AcDbEntity
8
0
100
AcDbPolyline
90
62
70
1
43
0.0
10
-788.42929950063638
20
-213.73929635802222
10
-788.42929950063626
20
-214.83929635802235
10
-793.42929950063626
20
-214.83929635802272
10
-793.42929950063558
20
-221.23929635802253
10
-788.42929950063558
20
-221.2392963580221
10
-788.42929950063547
20
-222.3392963580223
10
-793.42929950063547
20
-222.33929635802272
10
-793.4292995006349
20
-228.73929635802253
10
-788.4292995006349
20
-228.73929635802222
10
-788.42929950063478
20
-229.83929635802235
10
-793.42929950063478
20
-229.83929635802272
10
-793.42929950063058
20
-278.99897380587214
10
-783.22929950063087
20
-275.35118315837616
10
-772.72930012709298
20
-275.35118315837525
42
0.017807502996351594
10
-762.22930075355498
20
-274.92723012620638
10
-762.22930075356112
20
-204.23929635802025
10
-763.22930075356123
20
-204.23929635802034
10
-763.22930075356226
20
-192.1511878373388
42
0.0038884627193593257
10
-762.22930075356214
20
-191.98475911652389
10
-762.22930075356328
20
-178.15503670588399
10
-763.22930075356339
20
-178.1550367058839
10
-763.22930075356464
20
-165.15118743500739
42
0.0067144765895843523
10
-762.22930075356453
20
-164.8637948801109
10
-762.22930075356589
20
-149.88751303000069
10
-763.22930075356589
20
-149.88751303000078
10
-763.22930075356692
20
-138.15118703267603
42
0.02541387403664792
10
-762.22930075356703
20
-137.0627702536114
10
-762.22930075356771
20
-127.77618569157177
10
-763.22930075356794
20
-127.77618569157187
42
0.061984403960232033
10
-763.54041810687829
20
-125.2761856915719
10
-773.42930075356799
20
-125.27618569157276
10
-773.42930075356787
20
-127.77618569157268
42
0.026129144380142379
10
-776.93336578894173
20
-130.05118703202774
10
-772.08098775089968
20
-130.05118703496828
10
-772.08098775102769
20
-131.15118703496825
10
-778.37797407646974
20
-131.15118703223823
42
0.035982851422114784
10
-782.60293953343694
20
-135.0511870284256
10
-777.94393164933604
20
-135.05118703141511
10
-777.94393164931773
20
-136.15118703141513
10
-783.59710525272158
20
-136.15118703093083
42
0.12074505391991283
10
-792.32320000667823
20
-153.07565395507783
10
-787.32320000667823
20
-153.07565395546982
10
-787.32320000667823
20
-154.17565395546978
10
-792.57105342577984
20
-154.17565395512048
42
0.040389462195333167
10
-793.38688581464226
20
-160.57565395505065
10
-788.38688581464226
20
-160.57565395538637
10
-788.38688581464214
20
-161.67565395538639
10
-793.42242525748611
20
-161.67565395506409
42
0.0046349684856579814
10
-793.42929950064081
20
-162.41720111957653
10
-793.42929950063922
20
-180.76989791120693
10
-788.42929950063922
20
-180.76989791120604
10
-788.42929950063899
20
-181.86989791120618
10
-793.42929950063899
20
-181.86989791120712
10
-793.42929950063854
20
-188.26989791120693
10
-788.42929950063854
20
-188.26989791120604
10
-788.42929950063831
20
-189.36989791120618
10
-793.42929950063831
20
-189.36989791120712
10
-793.42929950063694
20
-206.23929635802253
10
-788.42929950063694
20
-206.2392963580221
10
-788.42929950063672
20
-207.3392963580223
10
-793.42929950063672
20
-207.33929635802272
10
-793.42929950063626
20
-213.73929635802253
0
CIRCLE
5
394
100
AcDbEntity
8
0
100
AcDbCircle
10
-746.86061327024936
20
-107.8089137338133
30
0
40
1.5500000000000114
210
-0
220
0
230
1
0
CIRCLE
5
395
100
AcDbEntity
8
0
100
AcDbCircle
10
-746.86061327025391
20
-28.258914426716686
30
0
40
1.5500000000000114
210
-0
220
0
230
1
0
CIRCLE
5
396
100
AcDbEntity
8
0
100
AcDbCircle
10
-756.86061327025288
20
-46.408913733813577
30
0
40
1.5500000000000114
210
-0
220
0
230
1
0
LWPOLYLINE
5
397
100
AcDbEntity
8
0
100
AcDbPolyline
90
8
70
1
43
0.0
10
-764.36061327025402
20
-25.758914426717681
10
-764.36061327024913
20
-110.30891373381429
42
0.41421356237308671
10
-759.36061327024902
20
-115.30891373381401
10
-734.3606132702489
20
-115.30891373381259
42
0.4142135623730992
10
-729.36061327024936
20
-110.3089137338123
10
-729.36061327025402
20
-25.758914426715691
42
0.41421356237309503
10
-734.36061327025425
20
-20.758914426715979
10
-759.36061327025425
20
-20.758914426717396
42
0.41421356237309503
0
ENDSEC
0
SECTION
2
OBJECTS
0
DICTIONARY
5
C
100
AcDbDictionary
3
ACAD_GROUP
350
D
3
ACAD_MLINESTYLE
350
17
0
DICTIONARY
5
D
100
AcDbDictionary
0
DICTIONARY
5
1A
330
C
100
AcDbDictionary
0
DICTIONARY
5
17
100
AcDbDictionary
0
ENDSEC
0
EOF
