0
SECTION
2
HEADER
9
$INSUNITS
70
4
9
$ACADVER
1
AC1014
9
$HANDSEED
5
FFFF
0
ENDSEC
0
SECTION
2
TABLES
0
TABLE
2
VPORT
5
8
100
AcDbSymbolTable
0
ENDTAB
0
TABLE
2
LTYPE
5
5
100
AcDbSymbolTable
0
LTYPE
5
14
100
AcDbSymbolTableRecord
100
AcDbLinetypeTableRecord
2
BYBLOCK
70
0
0
LTYPE
5
15
100
AcDbSymbolTableRecord
100
AcDbLinetypeTableRecord
2
BYLAYER
70
0
0
ENDTAB
0
TABLE
2
LAYER
5
2
100
AcDbSymbolTable
70
2
0
LAYER
5
50
100
AcDbSymbolTableRecord
100
AcDbLayerTableRecord
2
0
70
0
6
CONTINUOUS
0
ENDTAB
0
TABLE
2
STYLE
5
3
100
AcDbSymbolTable
70
1
0
STYLE
5
11
100
AcDbSymbolTableRecord
100
AcDbTextStyleTableRecord
2
STANDARD
70
0
0
ENDTAB
0
TABLE
2
VIEW
5
6
100
AcDbSymbolTable
70
0
0
ENDTAB
0
TABLE
2
UCS
5
7
100
AcDbSymbolTable
70
0
0
ENDTAB
0
TABLE
2
APPID
5
9
100
AcDbSymbolTable
70
2
0
APPID
5
12
100
AcDbSymbolTableRecord
100
AcDbRegAppTableRecord
2
ACAD
70
0
0
ENDTAB
0
TABLE
2
DIMSTYLE
5
A
100
AcDbSymbolTable
70
1
0
ENDTAB
0
TABLE
2
BLOCK_RECORD
5
1
100
AcDbSymbolTable
70
1
0
BLOCK_RECORD
5
1F
100
AcDbSymbolTableRecord
100
AcDbBlockTableRecord
2
*MODEL_SPACE
0
BLOCK_RECORD
5
1B
100
AcDbSymbolTableRecord
100
AcDbBlockTableRecord
2
*PAPER_SPACE
0
ENDTAB
0
ENDSEC
0
SECTION
2
BLOCKS
0
BLOCK
5
20
100
AcDbEntity
100
AcDbBlockBegin
2
*MODEL_SPACE
0
ENDBLK
5
21
100
AcDbEntity
100
AcDbBlockEnd
0
BLOCK
5
1C
100
AcDbEntity
100
AcDbBlockBegin
2
*PAPER_SPACE
0
ENDBLK
5
1D
100
AcDbEntity
100
AcDbBlockEnd
0
ENDSEC
0
SECTION
2
ENTITIES
0
LWPOLYLINE
5
100
100
AcDbEntity
8
0
100
AcDbPolyline
90
37
70
1
43
0.0
10
7.9419469725760905
20
402.83822324460368
10
7.9419469725758143
20
393.15576487908515
42
0.063254223929961204
10
10.441946972576101
20
392.83822324460357
10
10.441946972576091
20
392.36321587183278
42
0.059379045090479809
10
12.903767674112974
20
392.65661147175115
10
24.703679674112955
20
392.65661147175115
10
24.703679674112955
20
391.65661147175115
10
35.989019775062197
20
391.65661147175115
42
0.0097061469960973163
10
36.403768024290301
20
392.65661147175115
10
48.203680024290279
20
392.65661147175115
10
48.203680024290279
20
391.65661147175115
10
59.185118091363869
20
391.65661147175115
42
0.0051173117534640718
10
59.403768367016966
20
392.65661147175103
10
71.203768717194293
20
392.65661147175115
10
71.203768717194293
20
391.65661147175115
10
82.756208270076144
20
391.65661147175115
42
0.0034535679231532737
10
82.903768717194225
20
392.65661147175075
10
94.703768717188296
20
392.65661147175126
10
94.703768717188296
20
391.65661147175121
10
108.0918165523893
20
391.65661147175121
42
0.0025587181790250949
10
108.20114220504642
20
392.65661147175189
10
120.00114220504642
20
392.65661147175126
10
120.00114220504642
20
391.65661147175121
10
131.61688742189966
20
391.65661147175121
42
0.0020623741945115372
10
131.70500571860484
20
392.65661147175013
10
143.5050937701356
20
392.65661147175126
10
143.5012306051197
20
391.65661147175121
10
155.13120039295254
20
391.65661147175121
42
0.0017273951059760368
10
155.20500606878187
20
392.65661147174819
10
167.00509412031175
20
392.65661147175126
10
167.00123095531893
20
391.65661147175126
10
172.85760059314694
20
391.65661147175126
42
0.016907020859352192
10
173.2419469725761
20
402.65661147175081
10
173.2419469725761
20
412.65661147175126
10
174.7419469725761
20
422.65661147175126
10
44.977472830015515
20
422.65661147175115
42
0.26654277538238086
10
10.44194697257546
20
402.83822324459783
0
LINE
5
101
100
AcDbEntity
8
0
100
AcDbLine
10
68.370637164945904
20
368.43544847916127
30
0
11
83.313557636322031
21
367.12811233794577
31
0
0
LINE
5
102
100
AcDbEntity
8
0
100
AcDbLine
10
67.847702708459678
20
362.4582802906109
30
0
11
68.370637164945904
21
368.43544847916127
31
0
0
LINE
5
103
100
AcDbEntity
8
0
100
AcDbLine
10
27.501816767743499
20
365.98808793033533
30
0
11
67.847702708459678
21
362.4582802906109
31
0
0
ARC
5
104
100
AcDbEntity
8
0
100
AcDbCircle
10
27.240349539500418
20
362.99950383606011
30
0
40
3.000000000000012
210
0
220
-0
230
1
100
AcDbArc
50
84.999999999997939
51
174.99999999999804
0
LINE
5
105
100
AcDbEntity
8
0
100
AcDbLine
10
21.637093162794045
20
333.37513012155125
30
0
11
24.251765445225178
21
363.26097106430319
31
0
0
ARC
5
106
100
AcDbEntity
8
0
100
AcDbCircle
10
24.62567725706927
20
333.11366289330812
30
0
40
3.0000000000000049
210
0
220
0
230
1
100
AcDbArc
50
174.99999999999696
51
264.99999999999778
0
LINE
5
107
100
AcDbEntity
8
0
100
AcDbLine
10
39.307130500202199
20
328.81774265781735
30
0
11
24.364210028826182
21
330.12507879903291
31
0
0
ARC
5
108
100
AcDbEntity
8
0
100
AcDbCircle
10
39.568597728445319
20
331.80632675209262
30
0
40
3.000000000000016
210
0
220
0
230
1
100
AcDbArc
50
264.99999999999727
51
354.99999999999261
0
LINE
5
109
100
AcDbEntity
8
0
100
AcDbLine
10
42.731493330295223
20
333.53724917238844
30
0
11
42.557181822720537
21
331.54485952384925
31
0
0
ARC
5
110
100
AcDbEntity
8
0
100
AcDbCircle
10
46.312812868689157
20
333.22392431231469
30
0
40
3.5949995972215087
210
0
220
0
230
1
100
AcDbArc
50
110.66589491072331
51
174.99999999999395
0
ARC
5
111
100
AcDbEntity
8
0
100
AcDbCircle
10
108.56930605867038
20
168.16983250362949
30
0
40
180
210
0
220
-0
230
1
100
AcDbArc
50
59.334105089271631
51
110.66589491072291
0
ARC
5
112
100
AcDbEntity
8
0
100
AcDbCircle
10
198.54132548657876
20
319.90565519282944
30
0
40
3.5949995972216078
210
-0
220
0
230
1
100
AcDbArc
50
-5.0000000000031495
51
59.334105089270842
0
LINE
5
113
100
AcDbEntity
8
0
100
AcDbLine
10
201.94833351739916
20
317.59994068421679
30
0
11
202.12264502497288
21
319.59233033275586
31
0
0
ARC
5
114
100
AcDbEntity
8
0
100
AcDbCircle
10
204.93691761167446
20
317.33847345597377
30
0
40
3.000000000000079
210
0
220
0
230
1
100
AcDbArc
50
174.99999999999923
51
264.99999999999653
0
LINE
5
115
100
AcDbEntity
8
0
100
AcDbLine
10
219.61837085480741
20
313.04255322048289
30
0
11
204.6754503834313
21
314.34988936169844
31
0
0
ARC
5
116
100
AcDbEntity
8
0
100
AcDbCircle
10
219.87983808305063
20
316.0311373147581
30
0
40
2.9999999999999889
210
0
220
0
230
1
100
AcDbArc
50
264.99999999999528
51
354.99999999999795
0
LINE
5
117
100
AcDbEntity
8
0
100
AcDbLine
10
225.48309445975687
20
345.65551102926702
30
0
11
222.86842217732581
21
315.76967008651502
31
0
0
ARC
5
118
100
AcDbEntity
8
0
100
AcDbCircle
10
222.49451036548155
20
345.91697825751004
30
0
40
3.0000000000000764
210
0
220
0
230
1
100
AcDbArc
50
-5.000000000000707
51
84.999999999995495
0
LINE
5
119
100
AcDbEntity
8
0
100
AcDbLine
10
206.36857481011566
20
350.33927431998507
30
0
11
222.75597759372477
21
348.90556235178536
31
0
0
LINE
5
120
100
AcDbEntity
8
0
100
AcDbLine
10
205.71490673950791
20
342.86781408429704
30
0
11
206.36857481011566
21
350.33927431998507
31
0
0
LINE
5
121
100
AcDbEntity
8
0
100
AcDbLine
10
207.00995984702718
20
342.75451161872502
30
0
11
205.71490673950791
21
342.86781408429704
31
0
0
LINE
5
122
100
AcDbEntity
8
0
100
AcDbLine
10
206.7920704901579
20
340.26402487349566
30
0
11
207.00995984702718
21
342.75451161872502
31
0
0
LINE
5
123
100
AcDbEntity
8
0
100
AcDbLine
10
205.49701738263863
20
340.37732733906773
30
0
11
206.7920704901579
21
340.26402487349566
31
0
0
LINE
5
124
100
AcDbEntity
8
0
100
AcDbLine
10
205.4534395112648
20
339.87922999002188
30
0
11
205.49701738263863
21
340.37732733906773
31
0
0
LINE
5
125
100
AcDbEntity
8
0
100
AcDbLine
10
202.36523594718039
20
340.14941279253969
30
0
11
205.45343832834706
21
339.87923009351363
31
0
0
LINE
5
126
100
AcDbEntity
8
0
100
AcDbLine
10
202.40881381855422
20
340.6475101415856
30
0
11
202.36523594718039
21
340.14941279253969
31
0
0
LINE
5
127
100
AcDbEntity
8
0
100
AcDbLine
10
201.11376071103501
20
340.76081260715762
30
0
11
202.40881381855422
21
340.6475101415856
31
0
0
LINE
5
128
100
AcDbEntity
8
0
100
AcDbLine
10
201.33165006790423
20
343.25129935238698
30
0
11
201.11376071103501
21
340.76081260715762
31
0
0
LINE
5
129
100
AcDbEntity
8
0
100
AcDbLine
10
202.62670317542353
20
343.1379968868149
30
0
11
201.33165006790423
21
343.25129935238698
31
0
0
LINE
5
130
100
AcDbEntity
8
0
100
AcDbLine
10
203.28037124603128
20
350.60945712250304
30
0
11
202.62670317542353
21
343.1379968868149
31
0
0
LINE
5
131
100
AcDbEntity
8
0
100
AcDbLine
10
197.35301346038611
20
351.12803373340932
30
0
11
203.28037124603128
21
350.60945712250304
31
0
0
LINE
5
132
100
AcDbEntity
8
0
100
AcDbLine
10
197.87594791687235
20
357.10520192195975
30
0
11
197.35301346038611
21
351.12803373340932
31
0
0
LINE
5
133
100
AcDbEntity
8
0
100
AcDbLine
10
182.93302744549621
20
358.41253806317525
30
0
11
197.87594791687235
21
357.10520192195975
31
0
0
LINE
5
134
100
AcDbEntity
8
0
100
AcDbLine
10
182.41009298900997
20
352.43536987462494
30
0
11
182.93302744549621
21
358.41253806317525
31
0
0
LINE
5
135
100
AcDbEntity
8
0
100
AcDbLine
10
162.48619902717513
20
354.178484729579
30
0
11
182.41009298900997
21
352.43536987462494
31
0
0
LINE
5
136
100
AcDbEntity
8
0
100
AcDbLine
10
163.00913348366137
20
360.15565291812942
30
0
11
162.48619902717513
21
354.178484729579
31
0
0
LINE
5
137
100
AcDbEntity
8
0
100
AcDbLine
10
148.06621301228523
20
361.46298905934492
30
0
11
163.00913348366137
21
360.15565291812942
31
0
0
LINE
5
138
100
AcDbEntity
8
0
100
AcDbLine
10
147.54327855579902
20
355.48582087079456
30
0
11
148.06621301228523
21
361.46298905934492
31
0
0
LINE
5
139
100
AcDbEntity
8
0
100
AcDbLine
10
117.65743761304678
20
358.10049315322567
30
0
11
147.54327855579902
21
355.48582087079456
31
0
0
LINE
5
140
100
AcDbEntity
8
0
100
AcDbLine
10
118.18037206953301
20
364.07766134177609
30
0
11
117.65743761304678
21
358.10049315322567
31
0
0
LINE
5
141
100
AcDbEntity
8
0
100
AcDbLine
10
103.23745159815687
20
365.38499748299159
30
0
11
118.18037206953301
21
364.07766134177609
31
0
0
LINE
5
142
100
AcDbEntity
8
0
100
AcDbLine
10
102.71451714167064
20
359.40782929444129
30
0
11
103.23745159815687
21
365.38499748299159
31
0
0
LINE
5
143
100
AcDbEntity
8
0
100
AcDbLine
10
82.790623179835819
20
361.15094414939534
30
0
11
102.71451714167064
21
359.40782929444129
31
0
0
LINE
5
144
100
AcDbEntity
8
0
100
AcDbLine
10
83.313557636322031
20
367.12811233794577
30
0
11
82.790623179835819
21
361.15094414939534
31
0
0
LWPOLYLINE
5
145
100
AcDbEntity
8
0
100
AcDbPolyline
90
4
70
1
43
0.0
10
145.97246533453435
20
303.83073095932724
10
101.97246533453432
20
303.8307309593273
42
-0.99999999999999989
10
101.97246533453432
20
309.83073095932724
10
145.97246533453435
20
309.83073095932718
42
-0.99999999999999989
0
LWPOLYLINE
5
146
100
AcDbEntity
8
0
100
AcDbPolyline
90
4
70
1
43
0.0
10
145.97246533453435
20
283.83073095932724
10
101.97246533453432
20
283.8307309593273
42
-0.99999999999999989
10
101.97246533453432
20
289.83073095932724
10
145.97246533453435
20
289.83073095932718
42
-0.99999999999999989
0
LWPOLYLINE
5
147
100
AcDbEntity
8
0
100
AcDbPolyline
90
4
70
1
43
0.0
10
21.972465334534341
20
309.83073095932724
10
65.972465334534348
20
309.83073095932724
42
-0.99999999999999989
10
65.972465334534348
20
303.83073095932724
10
21.972465334534341
20
303.8307309593273
42
-0.99999999999999989
0
LWPOLYLINE
5
148
100
AcDbEntity
8
0
100
AcDbPolyline
90
4
70
1
43
0.0
10
65.972465334534348
20
283.83073095932724
10
21.972465334534341
20
283.8307309593273
42
-0.99999999999999989
10
21.972465334534341
20
289.83073095932724
10
65.972465334534348
20
289.83073095932724
42
-0.99999999999999989
0
LWPOLYLINE
5
149
100
AcDbEntity
8
0
100
AcDbPolyline
90
144
70
1
43
0.0
10
156.4224658013371
20
323.78073095932768
10
156.4224658013371
20
319.78073095932768
10
151.4224658013371
20
319.78073095932768
10
151.4224658013371
20
323.78073095932763
10
153.17246580133707
20
323.78073095932768
10
153.17246580133707
20
326.78073095932768
10
144.67246580133715
20
326.78073095932717
10
144.67246580133713
20
323.78073095932763
10
146.4224658013371
20
323.78073095932763
10
146.4224658013371
20
319.78073095932763
10
141.4224658013371
20
319.78073095932763
10
141.4224658013371
20
323.78073095932763
10
143.17246580133707
20
323.78073095932763
10
143.17246580133707
20
326.78073095932768
10
134.67246580133715
20
326.78073095932717
10
134.67246580133713
20
323.78073095932763
10
136.4224658013371
20
323.78073095932763
10
136.4224658013371
20
319.78073095932763
10
131.4224658013371
20
319.78073095932763
10
131.4224658013371
20
323.78073095932763
10
133.17246580133707
20
323.78073095932763
10
133.17246580133707
20
326.78073095932757
10
124.67246580133715
20
326.78073095932717
10
124.67246580133713
20
323.78073095932763
10
126.4224658013371
20
323.78073095932763
10
126.4224658013371
20
319.78073095932757
10
121.4224658013371
20
319.78073095932757
10
121.4224658013371
20
323.78073095932763
10
123.17246580133707
20
323.78073095932757
10
123.17246580133707
20
326.78073095932757
10
114.67246580133715
20
326.78073095932717
10
114.67246580133713
20
323.78073095932757
10
116.4224658013371
20
323.78073095932757
10
116.4224658013371
20
319.78073095932751
10
111.4224658013371
20
319.78073095932751
10
111.4224658013371
20
323.78073095932746
10
113.17246580133707
20
323.78073095932757
10
113.17246580133707
20
326.78073095932751
10
104.67246580133715
20
326.78073095932717
10
104.67246580133713
20
323.78073095932746
10
106.4224658013371
20
323.78073095932746
10
106.4224658013371
20
319.78073095932751
10
101.4224658013371
20
319.78073095932751
10
101.4224658013371
20
323.78073095932746
10
103.17246580133707
20
323.78073095932746
10
103.17246580133707
20
326.78073095932751
10
94.672465801337154
20
326.78073095932717
10
94.672465801337125
20
323.78073095932746
10
96.422465801337097
20
323.78073095932746
10
96.422465801337097
20
319.78073095932751
10
91.422465801337097
20
319.78073095932746
10
91.422465801337097
20
323.78073095932746
10
93.172465801337069
20
323.78073095932746
10
93.172465801337069
20
326.78073095932746
10
84.672465801337154
20
326.78073095932717
10
84.672465801337125
20
323.78073095932746
10
86.422465801337097
20
323.78073095932746
10
86.422465801337097
20
319.78073095932746
10
81.422465801337097
20
319.78073095932746
10
81.422465801337097
20
323.78073095932746
10
83.172465801337069
20
323.7807309593274
10
83.172465801337069
20
326.78073095932746
10
74.672465801337154
20
326.78073095932717
10
74.672465801337125
20
323.7807309593274
10
76.422465801337097
20
323.7807309593274
10
76.422465801337097
20
319.7807309593274
10
71.422465801337097
20
319.7807309593274
10
71.422465801337097
20
323.78073095932734
10
73.172465801337069
20
323.7807309593274
10
73.172465801337069
20
326.7807309593274
10
64.672465801337154
20
326.78073095932717
10
64.672465801337125
20
323.78073095932734
10
66.422465801337097
20
323.78073095932734
10
66.422465801337097
20
319.78073095932734
10
61.422465801337097
20
319.78073095932734
10
61.422465801337097
20
323.78073095932734
10
63.172465801337069
20
323.78073095932734
10
63.172465801337069
20
326.7807309593274
10
54.672465801337147
20
326.78073095932717
10
54.672465801337125
20
323.78073095932734
10
56.422465801337097
20
323.78073095932734
10
56.422465801337097
20
319.78073095932734
10
51.422465801337097
20
319.78073095932734
10
51.422465801337097
20
323.78073095932734
10
53.172465801337069
20
323.78073095932734
10
53.172465801337069
20
326.78073095932734
10
44.672465801337147
20
326.78073095932717
10
44.672465801337125
20
323.78073095932734
10
46.422465801337097
20
323.78073095932734
10
46.422465801337097
20
319.78073095932729
10
41.422465801337097
20
319.78073095932729
10
41.422465801337097
20
323.78073095932734
10
43.172465801337069
20
323.78073095932729
10
43.172465801337069
20
326.78073095932734
10
34.672465801337147
20
326.78073095932717
10
34.672465801337125
20
323.78073095932729
10
36.422465801337097
20
323.78073095932729
10
36.422465801337097
20
319.78073095932723
10
31.422465801337101
20
319.78073095932723
10
31.422465801337101
20
323.78073095932723
10
33.172465801337069
20
323.78073095932729
10
33.172465801337069
20
326.78073095932723
10
24.672465801337129
20
326.78073095932717
10
24.672465801337111
20
323.78073095932723
10
26.422465801337101
20
323.78073095932723
10
26.422465801337101
20
319.78073095932723
10
21.422465801337101
20
319.78073095932723
10
21.422465801337101
20
323.78073095932723
10
23.17246580133709
20
323.78073095932723
10
23.17246580133709
20
326.78073095932723
10
14.672465801337129
20
326.78073095932717
10
14.672465801337111
20
323.78073095932723
10
16.422465801337101
20
323.78073095932723
10
16.422465801337101
20
319.78073095932723
10
11.422465801337101
20
319.78073095932717
10
11.422465801337101
20
323.78073095932723
10
13.17246580133709
20
323.78073095932723
10
13.17246580133709
20
326.78073095932717
10
0.87246533453470221
20
326.78073095932717
10
0.87246533453468444
20
311.8807309593272
10
3.9724653345347072
20
311.8807309593272
10
3.9724653345346361
20
261.78073095932712
10
0.87246533453461339
20
261.78073095932712
10
0.87246533453461339
20
246.88073095932711
10
3.9724653345347072
20
246.88073095932711
10
3.9724653345347072
20
216.78073095932706
10
0.87246533453457786
20
216.78073095932706
10
0.87246533453471997
20
196.88073095932705
10
3.9724653345347072
20
196.88073095932705
10
3.9724653345346894
20
166.88073095932702
10
169.67246533453491
20
166.88073095932702
10
169.67246533453491
20
181.78073095932703
10
166.57246533453488
20
181.78073095932703
10
166.5724653345348
20
231.88073095932708
10
169.67246533453491
20
231.88073095932708
10
169.67246533453491
20
246.78073095932712
10
166.5724653345348
20
246.78073095932712
10
166.57246533453488
20
276.88073095932714
10
169.67246533453491
20
276.88073095932714
10
169.67246533453491
20
296.78073095932717
10
166.57246533453488
20
296.78073095932717
10
166.5724653345348
20
326.78073095932717
10
154.67246580133713
20
326.78073095932768
10
154.67246580133713
20
323.78073095932768
0
CIRCLE
5
150
100
AcDbEntity
8
0
100
AcDbCircle
10
28.772465801337113
20
256.83073295932701
30
0
40
1.0500000000000043
210
0
220
-0
230
1
0
CIRCLE
5
151
100
AcDbEntity
8
0
100
AcDbCircle
10
55.77246580133712
20
256.83073295932701
30
0
40
1.0500000000000043
210
0
220
-0
230
1
0
CIRCLE
5
152
100
AcDbEntity
8
0
100
AcDbCircle
10
82.77246580133712
20
256.83073295932701
30
0
40
1.0500000000000043
210
0
220
-0
230
1
0
CIRCLE
5
153
100
AcDbEntity
8
0
100
AcDbCircle
10
125.57246380133711
20
256.83073295932701
30
0
40
1.0499999999999687
210
0
220
-0
230
1
0
CIRCLE
5
154
100
AcDbEntity
8
0
100
AcDbCircle
10
153.57246380133711
20
256.83073295932701
30
0
40
1.0499999999999687
210
0
220
-0
230
1
0
CIRCLE
5
155
100
AcDbEntity
8
0
100
AcDbCircle
10
163.07246380133711
20
206.83073195932704
30
0
40
1.0499999999999687
210
0
220
-0
230
1
0
CIRCLE
5
156
100
AcDbEntity
8
0
100
AcDbCircle
10
139.57246380133714
20
206.83073195932704
30
0
40
1.0499999999999687
210
0
220
-0
230
1
0
CIRCLE
5
157
100
AcDbEntity
8
0
100
AcDbCircle
10
116.07246380133711
20
206.83073195932704
30
0
40
1.0499999999999687
210
0
220
-0
230
1
0
CIRCLE
5
158
100
AcDbEntity
8
0
100
AcDbCircle
10
90.77246580133712
20
206.83073195932704
30
0
40
1.0499999999999687
210
0
220
-0
230
1
0
CIRCLE
5
159
100
AcDbEntity
8
0
100
AcDbCircle
10
67.272465801337106
20
206.83073195932704
30
0
40
1.0500000000000043
210
0
220
-0
230
1
0
CIRCLE
5
160
100
AcDbEntity
8
0
100
AcDbCircle
10
44.272465801337106
20
206.83073195932704
30
0
40
1.0500000000000043
210
0
220
-0
230
1
0
CIRCLE
5
161
100
AcDbEntity
8
0
100
AcDbCircle
10
20.772465801337106
20
206.83073195932704
30
0
40
1.0500000000000043
210
0
220
-0
230
1
0
LWPOLYLINE
5
162
100
AcDbEntity
8
0
100
AcDbPolyline
90
4
70
1
43
0.0
10
146.9856551589944
20
139.57041765861771
10
102.98565515899439
20
139.57041765861763
42
-0.99999999999999989
10
102.98565515899439
20
145.57041765861766
10
146.9856551589944
20
145.57041765861769
42
-0.99999999999999989
0
LWPOLYLINE
5
163
100
AcDbEntity
8
0
100
AcDbPolyline
90
4
70
1
43
0.0
10
146.98565515899443
20
119.57041765861771
10
102.98565515899442
20
119.57041765861763
42
-0.99999999999999989
10
102.98565515899442
20
125.57041765861766
10
146.98565515899443
20
125.57041765861769
42
-0.99999999999999989
0
LWPOLYLINE
5
164
100
AcDbEntity
8
0
100
AcDbPolyline
90
4
70
1
43
0.0
10
22.985655158994405
20
145.57041765861752
10
66.985655158994405
20
145.57041765861757
42
-0.99999999999999989
10
66.985655158994405
20
139.57041765861757
10
22.985655158994405
20
139.57041765861754
42
-0.99999999999999989
0
LWPOLYLINE
5
165
100
AcDbEntity
8
0
100
AcDbPolyline
90
4
70
1
43
0.0
10
66.985655158994447
20
119.57041765861759
10
22.98565515899444
20
119.57041765861753
42
-0.99999999999999989
10
22.98565515899444
20
125.57041765861752
10
66.985655158994447
20
125.57041765861756
42
-0.99999999999999989
0
LWPOLYLINE
5
166
100
AcDbEntity
8
0
100
AcDbPolyline
90
144
70
1
43
0.0
10
157.43565562579715
20
159.52041765861819
10
157.43565562579715
20
155.52041765861819
10
152.43565562579715
20
155.52041765861816
10
152.43565562579712
20
159.52041765861816
10
154.18565562579712
20
159.52041765861816
10
154.1856556257971
20
162.52041765861819
10
145.68565562579718
20
162.52041765861765
10
145.68565562579715
20
159.52041765861813
10
147.43565562579715
20
159.52041765861813
10
147.43565562579715
20
155.52041765861813
10
142.43565562579715
20
155.5204176586181
10
142.43565562579712
20
159.5204176586181
10
144.18565562579712
20
159.5204176586181
10
144.1856556257971
20
162.5204176586181
10
135.68565562579718
20
162.52041765861765
10
135.68565562579715
20
159.52041765861807
10
137.43565562579715
20
159.52041765861807
10
137.43565562579715
20
155.52041765861807
10
132.43565562579715
20
155.52041765861804
10
132.43565562579712
20
159.52041765861804
10
134.18565562579712
20
159.52041765861804
10
134.1856556257971
20
162.52041765861804
10
125.68565562579718
20
162.52041765861762
10
125.68565562579715
20
159.52041765861804
10
127.43565562579715
20
159.52041765861802
10
127.43565562579715
20
155.52041765861802
10
122.43565562579715
20
155.52041765861799
10
122.43565562579712
20
159.52041765861802
10
124.18565562579712
20
159.52041765861799
10
124.1856556257971
20
162.52041765861802
10
115.68565562579718
20
162.52041765861762
10
115.68565562579715
20
159.52041765861796
10
117.43565562579715
20
159.52041765861799
10
117.43565562579715
20
155.52041765861799
10
112.43565562579715
20
155.52041765861793
10
112.43565562579712
20
159.52041765861793
10
114.18565562579712
20
159.52041765861796
10
114.1856556257971
20
162.52041765861799
10
105.68565562579718
20
162.52041765861759
10
105.68565562579715
20
159.52041765861793
10
107.43565562579715
20
159.52041765861793
10
107.43565562579715
20
155.52041765861793
10
102.43565562579715
20
155.5204176586179
10
102.43565562579712
20
159.52041765861793
10
104.18565562579712
20
159.5204176586179
10
104.1856556257971
20
162.5204176586179
10
95.685655625797182
20
162.52041765861759
10
95.685655625797153
20
159.52041765861787
10
97.435655625797153
20
159.52041765861787
10
97.435655625797153
20
155.52041765861787
10
92.435655625797153
20
155.52041765861784
10
92.435655625797125
20
159.52041765861782
10
94.185655625797125
20
159.52041765861787
10
94.185655625797096
20
162.52041765861787
10
85.685655625797182
20
162.52041765861753
10
85.685655625797153
20
159.52041765861782
10
87.435655625797153
20
159.52041765861782
10
87.435655625797153
20
155.52041765861782
10
82.435655625797153
20
155.52041765861779
10
82.435655625797125
20
159.52041765861782
10
84.185655625797125
20
159.52041765861782
10
84.185655625797096
20
162.52041765861782
10
75.685655625797182
20
162.52041765861753
10
75.685655625797153
20
159.52041765861776
10
77.435655625797139
20
159.52041765861776
10
77.435655625797153
20
155.52041765861776
10
72.435655625797153
20
155.52041765861776
10
72.435655625797125
20
159.5204176586177
10
74.185655625797111
20
159.52041765861776
10
74.185655625797111
20
162.52041765861776
10
65.685655625797182
20
162.52041765861753
10
65.685655625797153
20
159.5204176586177
10
67.435655625797139
20
159.5204176586177
10
67.435655625797153
20
155.5204176586177
10
62.435655625797146
20
155.5204176586177
10
62.435655625797125
20
159.5204176586177
10
64.185655625797111
20
159.5204176586177
10
64.185655625797111
20
162.5204176586177
10
55.685655625797175
20
162.5204176586175
10
55.685655625797153
20
159.52041765861767
10
57.435655625797139
20
159.52041765861767
10
57.435655625797146
20
155.52041765861765
10
52.435655625797146
20
155.52041765861765
10
52.435655625797125
20
159.52041765861762
10
54.185655625797111
20
159.52041765861765
10
54.185655625797111
20
162.52041765861765
10
45.685655625797175
20
162.5204176586175
10
45.685655625797153
20
159.52041765861762
10
47.435655625797139
20
159.52041765861762
10
47.435655625797146
20
155.52041765861762
10
42.435655625797146
20
155.52041765861759
10
42.435655625797125
20
159.52041765861762
10
44.185655625797111
20
159.52041765861759
10
44.185655625797111
20
162.52041765861762
10
35.685655625797175
20
162.52041765861748
10
35.685655625797153
20
159.52041765861759
10
37.435655625797139
20
159.52041765861759
10
37.435655625797146
20
155.52041765861756
10
32.435655625797139
20
155.52041765861753
10
32.435655625797125
20
159.52041765861753
10
34.185655625797111
20
159.52041765861753
10
34.185655625797104
20
162.52041765861753
10
25.685655625797157
20
162.52041765861748
10
25.685655625797139
20
159.5204176586175
10
27.435655625797143
20
159.52041765861753
10
27.435655625797146
20
155.52041765861753
10
22.435655625797143
20
155.52041765861748
10
22.435655625797128
20
159.5204176586175
10
24.185655625797132
20
159.52041765861748
10
24.185655625797121
20
162.52041765861748
10
15.685655625797157
20
162.52041765861745
10
15.685655625797139
20
159.52041765861748
10
17.435655625797139
20
159.52041765861748
10
17.435655625797146
20
155.52041765861748
10
12.435655625797143
20
155.52041765861742
10
12.435655625797128
20
159.52041765861742
10
14.185655625797128
20
159.52041765861745
10
14.185655625797125
20
162.52041765861748
10
1.8856551589947301
20
162.52041765861745
10
1.8856551589947301
20
147.62041765861744
10
4.9856551589947529
20
147.62041765861744
10
4.9856551589947706
20
97.520417658617362
10
1.8856551589947479
20
97.520417658617347
10
1.8856551589947657
20
82.620417658617356
10
4.9856551589948594
20
82.62041765861737
10
4.9856551589949127
20
52.520417658617305
10
1.8856551589947834
20
52.520417658617305
10
1.8856551589949433
20
32.620417658617285
10
4.9856551589949305
20
32.620417658617292
10
4.9856551589950016
20
2.6204176586172574
10
170.68565515899519
20
2.6204176586175176
10
170.68565515899513
20
17.520417658617532
10
167.58565515899511
20
17.520417658617529
10
167.585655158995
20
67.620417658617583
10
170.68565515899508
20
67.620417658617583
10
170.68565515899508
20
82.520417658617603
10
167.585655158995
20
82.520417658617603
10
167.585655158995
20
112.62041765861765
10
170.68565515899496
20
112.62041765861765
10
170.68565515899493
20
132.52041765861765
10
167.58565515899491
20
132.52041765861765
10
167.58565515899483
20
162.5204176586177
10
155.68565562579718
20
162.52041765861819
10
155.68565562579715
20
159.52041765861819
0
CIRCLE
5
167
100
AcDbEntity
8
0
100
AcDbCircle
10
29.785655625797247
20
92.570419658617311
30
0
40
1.0500000000000043
210
0
220
-0
230
1
0
CIRCLE
5
168
100
AcDbEntity
8
0
100
AcDbCircle
10
56.785655625797261
20
92.57041965861734
30
0
40
1.0500000000000043
210
0
220
-0
230
1
0
CIRCLE
5
169
100
AcDbEntity
8
0
100
AcDbCircle
10
83.785655625797247
20
92.570419658617396
30
0
40
1.0500000000000043
210
0
220
-0
230
1
0
CIRCLE
5
170
100
AcDbEntity
8
0
100
AcDbCircle
10
126.58565362579724
20
92.570419658617453
30
0
40
1.0499999999999687
210
0
220
-0
230
1
0
CIRCLE
5
171
100
AcDbEntity
8
0
100
AcDbCircle
10
154.58565362579725
20
92.57041965861751
30
0
40
1.0499999999999687
210
0
220
-0
230
1
0
CIRCLE
5
172
100
AcDbEntity
8
0
100
AcDbCircle
10
164.08565362579736
20
42.570418658617506
30
0
40
1.0499999999999687
210
0
220
-0
230
1
0
CIRCLE
5
173
100
AcDbEntity
8
0
100
AcDbCircle
10
140.58565362579733
20
42.57041865861747
30
0
40
1.0499999999999687
210
0
220
-0
230
1
0
CIRCLE
5
174
100
AcDbEntity
8
0
100
AcDbCircle
10
117.08565362579732
20
42.570418658617434
30
0
40
1.0499999999999687
210
0
220
-0
230
1
0
CIRCLE
5
175
100
AcDbEntity
8
0
100
AcDbCircle
10
91.785655625797332
20
42.570418658617399
30
0
40
1.0499999999999687
210
0
220
-0
230
1
0
CIRCLE
5
176
100
AcDbEntity
8
0
100
AcDbCircle
10
68.285655625797318
20
42.570418658617356
30
0
40
1.0500000000000043
210
0
220
-0
230
1
0
CIRCLE
5
177
100
AcDbEntity
8
0
100
AcDbCircle
10
45.285655625797304
20
42.570418658617314
30
0
40
1.0500000000000043
210
0
220
-0
230
1
0
CIRCLE
5
178
100
AcDbEntity
8
0
100
AcDbCircle
10
21.785655625797311
20
42.570418658617285
30
0
40
1.0500000000000043
210
0
220
-0
230
1
0
CIRCLE
5
179
100
AcDbEntity
8
0
100
AcDbCircle
10
224.91138068034417
20
261.62461742205028
30
0
40
1.5500000000000025
210
0
220
0
230
1
0
CIRCLE
5
180
100
AcDbEntity
8
0
100
AcDbCircle
10
184.91138068034417
20
261.62461742205033
30
0
40
1.5500000000000003
210
0
220
0
230
1
0
LWPOLYLINE
5
181
100
AcDbEntity
8
0
100
AcDbPolyline
90
8
70
1
43
0.0
10
234.91138068034417
20
246.62461742205028
10
234.91138068034417
20
276.62461742205028
42
0.41421356237309293
10
229.91138068034417
20
281.62461742205028
10
179.91138068034417
20
281.62461742205028
42
0.41421356237309503
10
174.91138068034417
20
276.62461742205033
10
174.91138068034417
20
246.62461742205033
42
0.41421356237309503
10
179.91138068034417
20
241.62461742205033
10
229.91138068034417
20
241.62461742205033
42
0.41421356237309293
0
CIRCLE
5
182
100
AcDbEntity
8
0
100
AcDbCircle
10
186.9312739579745
20
99.394021692144108
30
0
40
1.5000000000000002
210
0
220
-0
230
1
0
CIRCLE
5
183
100
AcDbEntity
8
0
100
AcDbCircle
10
186.93127395797416
20
112.39402169214418
30
0
40
1.5000000000000002
210
0
220
-0
230
1
0
LWPOLYLINE
5
184
100
AcDbEntity
8
0
100
AcDbPolyline
90
23
70
1
43
0.0
10
200.38851930951455
20
112.05029533811491
42
-0.032709840924660401
10
188.25363689108289
20
116.90501305400613
42
1.2521343386185029
10
186.09702917220997
20
107.39402168928754
10
206.72654004276103
20
107.39402168928807
10
206.72654004276112
20
104.39402168928837
10
186.09702917221
20
104.39402168928783
42
1.2521343386184987
10
188.25363689108346
20
94.883030324569376
42
-0.032709840924660401
10
200.38851930951492
20
99.737748040461184
10
217.03735567672686
20
95.178885583065963
10
211.0861774336488
20
74.074216535893697
10
232.19084648082082
20
80.025394778972839
10
242.90598258704406
20
50.89402168928914
10
253.62111869326577
20
80.025394778973379
10
274.72578774043802
20
74.074216535895303
10
268.77460949735882
20
95.178885583067284
10
307.90598258704267
20
105.89402168929081
10
268.77460949735843
20
116.6091577955123
10
274.72578774043649
20
137.71382684268457
10
253.62111869326446
20
131.76264859960546
10
242.90598258704122
20
160.89402168928913
10
232.19084648081949
20
131.76264859960492
10
211.08617743364721
20
137.71382684268298
10
217.03735567672635
20
116.60915779551101
0
LINE
5
185
100
AcDbEntity
8
0
100
AcDbLine
10
334.15990716000971
20
27.053768846267925
30
0
11
319.15990716000971
21
27.053768846267488
31
0
0
LINE
5
186
100
AcDbEntity
8
0
100
AcDbLine
10
334.15990716000954
20
33.053768846267893
30
0
11
334.15990716000971
21
27.053768846267925
31
0
0
LINE
5
187
100
AcDbEntity
8
0
100
AcDbLine
10
374.65990783056185
20
33.053768846269094
30
0
11
334.15990716000954
21
33.053768846267893
31
0
0
ARC
5
188
100
AcDbEntity
8
0
100
AcDbCircle
10
374.65990783056185
20
36.05376884626898
30
0
40
2.9999999999998828
210
0
220
0
230
1
100
AcDbArc
50
-90
51
0
0
LINE
5
189
100
AcDbEntity
8
0
100
AcDbLine
10
377.65990783056083
20
66.053768846268937
30
0
11
377.65990783056174
21
36.053768846269193
31
0
0
ARC
5
190
100
AcDbEntity
8
0
100
AcDbCircle
10
374.65990783056094
20
66.053768846268838
30
0
40
2.9999999999999005
210
0
220
-0
230
1
100
AcDbArc
50
0
51
90.000000000003254
0
LINE
5
191
100
AcDbEntity
8
0
100
AcDbLine
10
359.65990783056088
20
69.05376884626844
30
0
11
374.65990783056077
21
69.05376884626881
31
0
0
ARC
5
192
100
AcDbEntity
8
0
100
AcDbCircle
10
359.65990783056094
20
66.053768846268511
30
0
40
2.9999999999999272
210
0
220
0
230
1
100
AcDbArc
50
90.000000000001094
51
180
0
LINE
5
193
100
AcDbEntity
8
0
100
AcDbLine
10
356.65990783056003
20
64.053768592948771
30
0
11
356.659907830561
21
66.053768846268525
31
0
0
ARC
5
194
100
AcDbEntity
8
0
100
AcDbCircle
10
353.06490823333854
20
64.05376859294887
30
0
40
3.594999597221503
210
-0
220
0
230
1
100
AcDbArc
50
295.66589491072818
51
360
0
ARC
5
195
100
AcDbEntity
8
0
100
AcDbCircle
10
276.65990783055628
20
223.05376884626622
30
0
40
179.99999999999997
210
0
220
0
230
1
100
AcDbArc
50
244.33410508927591
51
295.66589491072727
0
ARC
5
196
100
AcDbEntity
8
0
100
AcDbCircle
10
200.2549074277826
20
64.053768592944223
30
0
40
3.5949995972216087
210
0
220
0
230
1
100
AcDbArc
50
180
51
244.33410508927452
0
LINE
5
197
100
AcDbEntity
8
0
100
AcDbLine
10
196.65990783056091
20
66.053768846263694
30
0
11
196.659907830561
21
64.053768592944124
31
0
0
ARC
5
198
100
AcDbEntity
8
0
100
AcDbCircle
10
193.65990783056094
20
66.05376884626358
30
0
40
2.9999999999999716
210
0
220
-0
230
1
100
AcDbArc
50
0
51
90.00000000000054
0
LINE
5
199
100
AcDbEntity
8
0
100
AcDbLine
10
178.65990783056083
20
69.053768846263182
30
0
11
193.65990783056091
21
69.05376884626358
31
0
0
ARC
5
200
100
AcDbEntity
8
0
100
AcDbCircle
10
178.65990783056091
20
66.05376884626321
30
0
40
2.9999999999999716
210
0
220
0
230
1
100
AcDbArc
50
90.000000000001634
51
180
0
LINE
5
201
100
AcDbEntity
8
0
100
AcDbLine
10
175.65990783056182
20
36.05376884626331
30
0
11
175.65990783056094
21
66.053768846263097
31
0
0
ARC
5
202
100
AcDbEntity
8
0
100
AcDbCircle
10
178.65990783056179
20
36.053768846263431
30
0
40
2.9999999999999716
210
0
220
0
230
1
100
AcDbArc
50
180
51
270.00000000000159
0
LINE
5
203
100
AcDbEntity
8
0
100
AcDbLine
10
195.10990783056184
20
33.053768846263878
30
0
11
178.65990783056188
21
33.053768846263424
31
0
0
LINE
5
204
100
AcDbEntity
8
0
100
AcDbLine
10
195.10990783056161
20
40.55376884626385
30
0
11
195.10990783056184
21
33.053768846263878
31
0
0
LINE
5
205
100
AcDbEntity
8
0
100
AcDbLine
10
193.80990783056163
20
40.5537688462638
30
0
11
195.10990783056161
21
40.55376884626385
31
0
0
LINE
5
206
100
AcDbEntity
8
0
100
AcDbLine
10
193.80990783056151
20
43.053768846263807
30
0
11
193.80990783056163
21
40.5537688462638
31
0
0
LINE
5
207
100
AcDbEntity
8
0
100
AcDbLine
10
195.1099078305615
20
43.05376884626385
30
0
11
193.80990783056151
21
43.053768846263807
31
0
0
LINE
5
208
100
AcDbEntity
8
0
100
AcDbLine
10
195.10990783056155
20
43.55376884626385
30
0
11
195.1099078305615
21
43.05376884626385
31
0
0
LINE
5
209
100
AcDbEntity
8
0
100
AcDbLine
10
198.20990783056152
20
43.553768846263935
30
0
11
195.10990901799784
21
43.553768846263914
31
0
0
LINE
5
210
100
AcDbEntity
8
0
100
AcDbLine
10
198.20990783056152
20
43.053768846263942
30
0
11
198.20990783056152
21
43.553768846263935
31
0
0
LINE
5
211
100
AcDbEntity
8
0
100
AcDbLine
10
199.50990783056153
20
43.053768846263978
30
0
11
198.20990783056152
21
43.053768846263942
31
0
0
LINE
5
212
100
AcDbEntity
8
0
100
AcDbLine
10
199.50990783056159
20
40.553768846263964
30
0
11
199.50990783056153
21
43.053768846263978
31
0
0
LINE
5
213
100
AcDbEntity
8
0
100
AcDbLine
10
198.2099078305616
20
40.553768846263942
30
0
11
199.50990783056159
21
40.553768846263964
31
0
0
LINE
5
214
100
AcDbEntity
8
0
100
AcDbLine
10
198.2099078305618
20
33.053768846263971
30
0
11
198.2099078305616
21
40.553768846263942
31
0
0
LINE
5
215
100
AcDbEntity
8
0
100
AcDbLine
10
204.15990716000948
20
33.053768846264134
30
0
11
198.2099078305618
21
33.053768846263971
31
0
0
LINE
5
216
100
AcDbEntity
8
0
100
AcDbLine
10
204.15990716000965
20
27.053768846264148
30
0
11
204.15990716000948
21
33.053768846264134
31
0
0
LINE
5
217
100
AcDbEntity
8
0
100
AcDbLine
10
219.15990716000965
20
27.053768846264585
30
0
11
204.15990716000965
21
27.053768846264148
31
0
0
LINE
5
218
100
AcDbEntity
8
0
100
AcDbLine
10
219.15990716000948
20
33.053768846264575
30
0
11
219.15990716000965
21
27.053768846264585
31
0
0
LINE
5
219
100
AcDbEntity
8
0
100
AcDbLine
10
239.15990716000948
20
33.05376884626515
30
0
11
219.15990716000948
21
33.053768846264575
31
0
0
LINE
5
220
100
AcDbEntity
8
0
100
AcDbLine
10
239.15990716000965
20
27.053768846265172
30
0
11
239.15990716000948
21
33.05376884626515
31
0
0
LINE
5
221
100
AcDbEntity
8
0
100
AcDbLine
10
254.15990716000965
20
27.053768846265605
30
0
11
239.15990716000965
21
27.053768846265172
31
0
0
LINE
5
222
100
AcDbEntity
8
0
100
AcDbLine
10
254.15990716000948
20
33.053768846265584
30
0
11
254.15990716000965
21
27.053768846265605
31
0
0
LINE
5
223
100
AcDbEntity
8
0
100
AcDbLine
10
284.15990716000948
20
33.053768846266451
30
0
11
254.15990716000948
21
33.053768846265584
31
0
0
LINE
5
224
100
AcDbEntity
8
0
100
AcDbLine
10
284.15990716000965
20
27.053768846266479
30
0
11
284.15990716000948
21
33.053768846266451
31
0
0
LINE
5
225
100
AcDbEntity
8
0
100
AcDbLine
10
299.15990716000971
20
27.053768846266912
30
0
11
284.15990716000965
21
27.053768846266479
31
0
0
LINE
5
226
100
AcDbEntity
8
0
100
AcDbLine
10
299.15990716000954
20
33.053768846266884
30
0
11
299.15990716000971
21
27.053768846266912
31
0
0
LINE
5
227
100
AcDbEntity
8
0
100
AcDbLine
10
319.15990716000948
20
33.053768846267459
30
0
11
299.15990716000954
21
33.053768846266884
31
0
0
LINE
5
228
100
AcDbEntity
8
0
100
AcDbLine
10
319.15990716000971
20
27.053768846267488
30
0
11
319.15990716000948
21
33.053768846267459
31
0
0
CIRCLE
5
229
100
AcDbEntity
8
0
100
AcDbCircle
10
336.98891382188521
20
94.727278536018176
30
0
40
1.4999999999999858
210
0
220
0
230
1
0
CIRCLE
5
230
100
AcDbEntity
8
0
100
AcDbCircle
10
323.98891382188526
20
94.727278536018247
30
0
40
1.4999999999999858
210
0
220
0
230
1
0
LINE
5
231
100
AcDbEntity
8
0
100
AcDbLine
10
328.98891382474267
20
260.31279848396179
30
0
11
328.98891382474142
21
74.932012449328028
31
0
0
LINE
5
232
100
AcDbEntity
8
0
100
AcDbLine
10
331.98891382474136
20
74.932012451231486
30
0
11
331.98891382474272
21
260.31279848396179
31
0
0
LINE
5
233
100
AcDbEntity
8
0
100
AcDbLine
10
331.98891382474272
20
260.31279848396179
30
0
11
328.98891382474267
21
260.31279848396179
31
0
0
LINE
5
234
100
AcDbEntity
8
0
100
AcDbLine
10
328.98891383407766
20
405.39831843208191
30
0
11
328.98891383407795
21
445.39831843196424
31
0
0
LINE
5
235
100
AcDbEntity
8
0
100
AcDbLine
10
325.98891383407783
20
445.39831843171805
30
0
11
325.98891383407755
21
405.39831843208191
31
0
0
LINE
5
236
100
AcDbEntity
8
0
100
AcDbLine
10
325.98891383407755
20
405.39831843208191
30
0
11
328.98891383407766
21
405.39831843208191
31
0
0
ARC
5
237
100
AcDbEntity
8
0
100
AcDbCircle
10
330.48891382131984
20
80.324582685444454
30
0
40
5.5973041494262423
210
0
220
0
230
1
100
AcDbArc
50
285.54446626684637
51
343.46572279284038
0
LINE
5
238
100
AcDbEntity
8
0
100
AcDbLine
10
180.99401640781551
20
445.39831843777228
30
0
11
325.98891383407783
21
445.39831842639268
31
0
0
ARC
5
239
100
AcDbEntity
8
0
100
AcDbCircle
10
267.03923198902226
20
155.06498509401095
30
0
40
7.5000000000006448
210
0
220
-0
230
1
100
AcDbArc
50
17.457603123718314
51
170.79310377865437
0
ARC
5
240
100
AcDbEntity
8
0
100
AcDbCircle
10
254.70026930976854
20
157.06498509401104
30
0
40
5
210
0
220
0
230
1
100
AcDbArc
50
269.99999999999932
51
350.79310377865397
0
ARC
5
241
100
AcDbEntity
8
0
100
AcDbCircle
10
268.53923198902129
20
157.06498509401092
30
0
40
5.0000000000000213
210
0
220
0
230
1
100
AcDbArc
50
233.13010235417318
51
269.99999999999932
0
ARC
5
242
100
AcDbEntity
8
0
100
AcDbCircle
10
267.03923198902226
20
155.06498509401095
30
0
40
2.5000000000006866
210
0
220
-0
230
1
100
AcDbArc
50
17.457603123717767
51
233.13010235417303
0
ARC
5
243
100
AcDbEntity
8
0
100
AcDbCircle
10
271.80892799610774
20
156.56498509401086
30
0
40
2.5000000000000231
210
0
220
0
230
1
100
AcDbArc
50
-162.54239687628066
51
17.457603123717853
0
LINE
5
244
100
AcDbEntity
8
0
100
AcDbLine
10
268.53923198902123
20
152.06498534667944
30
0
11
314.37798581330117
21
152.06498534306306
31
0
0
ARC
5
245
100
AcDbEntity
8
0
100
AcDbCircle
10
187.03923198897527
20
301.73165176067818
30
0
40
7.5000000000004921
210
0
220
-0
230
1
100
AcDbArc
50
17.457603123889772
51
170.79310377864996
0
ARC
5
246
100
AcDbEntity
8
0
100
AcDbCircle
10
174.70026930972671
20
303.73165176067835
30
0
40
5.0000000000000711
210
0
220
0
230
1
100
AcDbArc
50
269.99999999999972
51
350.79310377865022
0
ARC
5
247
100
AcDbEntity
8
0
100
AcDbCircle
10
188.53923198892721
20
303.73165176075764
30
0
40
5.0000000000354481
210
0
220
0
230
1
100
AcDbArc
50
233.13010235516185
51
269.99989938805879
0
ARC
5
248
100
AcDbEntity
8
0
100
AcDbCircle
10
187.03923198897527
20
301.73165176067818
30
0
40
2.5000000000005924
210
0
220
-0
230
1
100
AcDbArc
50
17.457603123716471
51
233.13010235419372
0
ARC
5
249
100
AcDbEntity
8
0
100
AcDbCircle
10
191.80892799606119
20
303.23165176067806
30
0
40
2.5000000000005245
210
0
220
0
230
1
100
AcDbArc
50
-162.54239687628294
51
17.457603124235792
0
LINE
5
250
100
AcDbEntity
8
0
100
AcDbLine
10
188.53922320887904
20
298.73165177168704
30
0
11
217.68227230972673
21
298.73165177168681
31
0
0
ARC
5
251
100
AcDbEntity
8
0
100
AcDbCircle
10
368.41686919214482
20
386.71500969218914
30
0
40
9.9999999999981863
210
0
220
0
230
1
100
AcDbArc
50
101.58610287098232
51
175.81508387488117
0
LINE
5
252
100
AcDbEntity
8
0
100
AcDbLine
10
461.51412339400684
20
416.00959865634741
30
0
11
366.40846600602299
21
396.5112496158506
31
0
0
ARC
5
253
100
AcDbEntity
8
0
100
AcDbCircle
10
430.95659268231401
20
301.73165176067647
30
0
40
7.4999999999977902
210
0
220
-0
230
1
100
AcDbArc
50
9.2068962213344658
51
162.54239687605596
0
ARC
5
254
100
AcDbEntity
8
0
100
AcDbCircle
10
426.18689667522892
20
303.23165176067636
30
0
40
2.4999999999975047
210
0
220
0
230
1
100
AcDbArc
50
162.54239687560718
51
342.5423968756067
0
ARC
5
255
100
AcDbEntity
8
0
100
AcDbCircle
10
430.95659268231401
20
301.73165176067647
30
0
40
2.5000000000300417
210
-0
220
0
230
1
100
AcDbArc
50
-53.130102354686699
51
162.54239687695411
0
ARC
5
256
100
AcDbEntity
8
0
100
AcDbCircle
10
429.45659268226518
20
303.73165176068051
30
0
40
5.0000000000044098
210
0
220
0
230
1
100
AcDbArc
50
269.99998052764641
51
306.86989764599849
0
ARC
5
257
100
AcDbEntity
8
0
100
AcDbCircle
10
443.29555536156602
20
303.73165176067653
30
0
40
5.0000000000011955
210
0
220
0
230
1
100
AcDbArc
50
189.20689622136561
51
270
0
LINE
5
258
100
AcDbEntity
8
0
100
AcDbLine
10
357.33154914301366
20
298.73165176957934
30
0
11
429.45659098298177
21
298.73165176391871
31
0
0
ARC
5
259
100
AcDbEntity
8
0
100
AcDbCircle
10
513.93859568226856
20
375.0649850940091
30
0
40
7.5000000000013394
210
0
220
-0
230
1
100
AcDbArc
50
9.2068962213490941
51
162.54239687621481
0
ARC
5
260
100
AcDbEntity
8
0
100
AcDbCircle
10
509.1688996751825
20
376.56498509400927
30
0
40
2.5000000000001292
210
0
220
0
230
1
100
AcDbArc
50
162.54239687608325
51
342.54239687608265
0
ARC
5
261
100
AcDbEntity
8
0
100
AcDbCircle
10
513.93859568226856
20
375.0649850940091
30
0
40
2.5000000000007243
210
-0
220
0
230
1
100
AcDbArc
50
-53.130102354206009
51
162.54239687647856
0
ARC
5
262
100
AcDbEntity
8
0
100
AcDbCircle
10
512.43859568226992
20
377.06498509401257
30
0
40
5.0000000000067786
210
-0
220
0
230
1
100
AcDbArc
50
270.00006720587982
51
306.86989764578266
0
ARC
5
263
100
AcDbEntity
8
0
100
AcDbCircle
10
526.2775583615238
20
377.06498509400922
30
0
40
5.0000000000008846
210
0
220
0
230
1
100
AcDbArc
50
189.20689622133838
51
269.99999999999869
0
ARC
5
264
100
AcDbEntity
8
0
100
AcDbCircle
10
429.1688996755405
20
229.89831842734316
30
0
40
2.4999999998873257
210
0
220
0
230
1
100
AcDbArc
50
162.54239687608037
51
342.54239687608037
0
ARC
5
265
100
AcDbEntity
8
0
100
AcDbCircle
10
433.93859568256744
20
228.3983184273431
30
0
40
2.5000000000583213
210
-0
220
0
230
1
100
AcDbArc
50
-53.130102356988814
51
162.54239687607688
0
ARC
5
266
100
AcDbEntity
8
0
100
AcDbCircle
10
432.43859568262309
20
230.39831842748683
30
0
40
5.0000000001437765
210
-0
220
0
230
1
100
AcDbArc
50
270.00000659002558
51
306.86989764292923
0
ARC
5
267
100
AcDbEntity
8
0
100
AcDbCircle
10
446.27755836152278
20
230.39831842719153
30
0
40
4.999999999849102
210
0
220
0
230
1
100
AcDbArc
50
189.2068962208769
51
270
0
ARC
5
268
100
AcDbEntity
8
0
100
AcDbCircle
10
433.93859568256744
20
228.3983184273431
30
0
40
7.4999999998327294
210
0
220
-0
230
1
100
AcDbArc
50
9.2068962208794876
51
162.54239687607921
0
LINE
5
269
100
AcDbEntity
8
0
100
AcDbLine
10
294.56936166527106
20
396.51124961585111
30
0
11
199.46370427728752
21
416.00959865634928
31
0
0
ARC
5
270
100
AcDbEntity
8
0
100
AcDbCircle
10
292.56095847914924
20
386.71500969218971
30
0
40
10.000000000000004
210
0
220
-0
230
1
100
AcDbArc
50
4.1849161251181446
51
78.413897129017613
0
ARC
5
271
100
AcDbEntity
8
0
100
AcDbCircle
10
230.02123498897879
20
301.73165176067789
30
0
40
7.5000000000032045
210
0
220
-0
230
1
100
AcDbArc
50
17.457603123943354
51
170.79310377866517
0
ARC
5
272
100
AcDbEntity
8
0
100
AcDbCircle
10
217.68227230972678
20
303.73165176067806
30
0
40
5.0000000000001066
210
0
220
0
230
1
100
AcDbArc
50
269.99999999999932
51
350.79310377863362
0
ARC
5
273
100
AcDbEntity
8
0
100
AcDbCircle
10
231.52123498902756
20
303.73165176068193
30
0
40
5.0000000000625491
210
0
220
0
230
1
100
AcDbArc
50
233.13010235400151
51
270.0000194723533
0
ARC
5
274
100
AcDbEntity
8
0
100
AcDbCircle
10
230.02123498897879
20
301.73165176067789
30
0
40
2.4999999999420974
210
0
220
-0
230
1
100
AcDbArc
50
17.457603123715881
51
233.1301023546857
0
ARC
5
275
100
AcDbEntity
8
0
100
AcDbCircle
10
234.79093099606385
20
303.23165176067772
30
0
40
2.5000000000581402
210
0
220
0
230
1
100
AcDbArc
50
-162.54239687627773
51
17.457603124391895
0
ARC
5
276
100
AcDbEntity
8
0
100
AcDbCircle
10
227.03923198872431
20
228.39831842734452
30
0
40
7.4999999998323075
210
0
220
-0
230
1
100
AcDbArc
50
17.457603123919899
51
170.79310377911892
0
ARC
5
277
100
AcDbEntity
8
0
100
AcDbCircle
10
214.70026930976903
20
230.39831842719315
30
0
40
4.9999999998485123
210
0
220
0
230
1
100
AcDbArc
50
269.99999999999972
51
350.7931037791231
0
ARC
5
278
100
AcDbEntity
8
0
100
AcDbCircle
10
228.53923198866869
20
230.39831842748825
30
0
40
5.0000000001399414
210
0
220
0
230
1
100
AcDbArc
50
233.13010235707051
51
269.99999340997346
0
ARC
5
279
100
AcDbEntity
8
0
100
AcDbCircle
10
227.03923198872431
20
228.39831842734452
30
0
40
2.500000000057506
210
0
220
-0
230
1
100
AcDbArc
50
17.457603123909934
51
233.13010235698883
0
ARC
5
280
100
AcDbEntity
8
0
100
AcDbCircle
10
231.80892799575128
20
229.89831842734452
30
0
40
2.4999999998873839
210
0
220
0
230
1
100
AcDbArc
50
-162.54239687606861
51
17.457603123918418
0
LINE
5
281
100
AcDbEntity
8
0
100
AcDbLine
10
228.53923141358038
20
225.3983185269033
30
0
11
246.13755697643566
21
225.3983185255255
31
0
0
ARC
5
282
100
AcDbEntity
8
0
100
AcDbCircle
10
151.80892799611121
20
376.56498509401172
30
0
40
2.5000000000005458
210
0
220
0
230
1
100
AcDbArc
50
-162.54239687628171
51
17.457603123719355
0
ARC
5
283
100
AcDbEntity
8
0
100
AcDbCircle
10
147.03923198902521
20
375.06498509401177
30
0
40
7.5000000000017533
210
0
220
-0
230
1
100
AcDbArc
50
17.457603123717853
51
170.7931037786511
0
ARC
5
284
100
AcDbEntity
8
0
100
AcDbCircle
10
134.70026930976999
20
377.06498509401194
30
0
40
5.0000000000000711
210
0
220
0
230
1
100
AcDbArc
50
269.99999999999972
51
350.79310377866057
0
ARC
5
285
100
AcDbEntity
8
0
100
AcDbCircle
10
148.53923198902393
20
377.06498509401513
30
0
40
5.0000000000027098
210
0
220
0
230
1
100
AcDbArc
50
233.13010235421612
51
269.99993279411819
0
ARC
5
286
100
AcDbEntity
8
0
100
AcDbCircle
10
147.03923198902521
20
375.06498509401177
30
0
40
2.5000000000006599
210
0
220
-0
230
1
100
AcDbArc
50
17.457603123715899
51
233.13010235420677
0
LINE
5
287
100
AcDbEntity
8
0
100
AcDbLine
10
148.53922612420445
20
372.06498510707365
30
0
11
187.43391430977002
21
372.06498510402105
31
0
0
ARC
5
288
100
AcDbEntity
8
0
100
AcDbCircle
10
389.16889967518307
20
156.56498509401007
30
0
40
2.5000000000000751
210
0
220
0
230
1
100
AcDbArc
50
162.54239687628331
51
342.54239687628268
0
ARC
5
289
100
AcDbEntity
8
0
100
AcDbCircle
10
393.9385956822685
20
155.0649850940101
30
0
40
2.5000000000006253
210
-0
220
0
230
1
100
AcDbArc
50
-53.130102354173445
51
162.54239687627859
0
ARC
5
290
100
AcDbEntity
8
0
100
AcDbCircle
10
392.43859568226952
20
157.06498509401007
30
0
40
5.0000000000000355
210
0
220
0
230
1
100
AcDbArc
50
270
51
306.86989764582609
0
ARC
5
291
100
AcDbEntity
8
0
100
AcDbCircle
10
406.27755836152227
20
157.06498509400998
30
0
40
5.0000000000000409
210
0
220
0
230
1
100
AcDbArc
50
189.20689622134495
51
269.99999999999932
0
ARC
5
292
100
AcDbEntity
8
0
100
AcDbCircle
10
393.9385956822685
20
155.0649850940101
30
0
40
7.5000000000006048
210
0
220
-0
230
1
100
AcDbArc
50
9.2068962213447616
51
162.54239687628154
0
ARC
5
293
100
AcDbEntity
8
0
100
AcDbCircle
10
469.16889967523156
20
303.23165176067613
30
0
40
2.4999999999993281
210
0
220
0
230
1
100
AcDbArc
50
162.54239687576217
51
342.54239687576091
0
ARC
5
294
100
AcDbEntity
8
0
100
AcDbCircle
10
473.93859568231744
20
301.73165176067613
30
0
40
2.5000000000006395
210
-0
220
0
230
1
100
AcDbArc
50
-53.130102354194811
51
162.54239687680285
0
ARC
5
295
100
AcDbEntity
8
0
100
AcDbCircle
10
472.43859568236559
20
303.73165176075565
30
0
40
5.0000000000872182
210
-0
220
0
230
1
100
AcDbArc
50
270.00010061194092
51
306.86989764483644
0
ARC
5
296
100
AcDbEntity
8
0
100
AcDbCircle
10
486.27755836156604
20
303.73165176067619
30
0
40
5.0000000000000977
210
0
220
0
230
1
100
AcDbArc
50
189.20689622134913
51
269.99999999999932
0
ARC
5
297
100
AcDbEntity
8
0
100
AcDbCircle
10
473.93859568231744
20
301.73165176067613
30
0
40
7.4999999999954516
210
0
220
-0
230
1
100
AcDbArc
50
9.206896221349572
51
162.54239687610868
0
ARC
5
298
100
AcDbEntity
8
0
100
AcDbCircle
10
456.43525467518702
20
376.56498509400961
30
0
40
2.500000000034563
210
0
220
0
230
1
100
AcDbArc
50
162.54239687621191
51
342.54239687621151
0
ARC
5
299
100
AcDbEntity
8
0
100
AcDbCircle
10
461.20495068227291
20
375.06498509400961
30
0
40
2.4999999999806417
210
-0
220
0
230
1
100
AcDbArc
50
-53.12414491366151
51
162.54239687635226
0
ARC
5
300
100
AcDbEntity
8
0
100
AcDbCircle
10
459.70474273638553
20
377.06482911774066
30
0
40
5.0000000000359579
210
0
220
0
230
1
100
AcDbArc
50
270.45256719558887
51
306.87585508740068
0
ARC
5
301
100
AcDbEntity
8
0
100
AcDbCircle
10
473.54391336152378
20
377.06498509400876
30
0
40
5.0000000000001554
210
0
220
0
230
1
100
AcDbArc
50
189.20689622132261
51
270
0
ARC
5
302
100
AcDbEntity
8
0
100
AcDbCircle
10
461.20495068227291
20
375.06498509400961
30
0
40
7.4999999999974909
210
0
220
-0
230
1
100
AcDbArc
50
9.2068962213576437
51
162.54239687625858
0
LINE
5
303
100
AcDbEntity
8
0
100
AcDbLine
10
368.07662348757492
20
372.06498509279334
30
0
11
459.7442362639581
21
372.06498509279271
31
0
0
LINE
5
304
100
AcDbEntity
8
0
100
AcDbLine
10
473.54391336152383
20
372.06498509279265
30
0
11
512.43860154708932
21
372.06498509279237
31
0
0
ARC
5
305
100
AcDbEntity
8
0
100
AcDbCircle
10
397.73161200665442
20
229.89831842734336
30
0
40
2.5000000006064105
210
0
220
0
230
1
100
AcDbArc
50
162.54239687903325
51
342.54239687903322
0
ARC
5
306
100
AcDbEntity
8
0
100
AcDbCircle
10
402.50130801437751
20
228.39831842734333
30
0
40
2.5000000000284217
210
-0
220
0
230
1
100
AcDbArc
50
-53.130102353963416
51
162.54239687791107
0
ARC
5
307
100
AcDbEntity
8
0
100
AcDbCircle
10
401.00130801428287
20
230.39831842746023
30
0
40
5.0000000001175939
210
0
220
0
230
1
100
AcDbArc
50
269.99997186983433
51
306.86989764600423
0
ARC
5
308
100
AcDbEntity
8
0
100
AcDbCircle
10
414.84027069485614
20
230.39831842734338
30
0
40
4.9999999999700631
210
0
220
0
230
1
100
AcDbArc
50
189.20689621974952
51
270
0
ARC
5
309
100
AcDbEntity
8
0
100
AcDbCircle
10
402.50130801437751
20
228.39831842734333
30
0
40
7.5000000012397319
210
0
220
-0
230
1
100
AcDbArc
50
9.2068962209125242
51
162.54239687865919
0
LINE
5
310
100
AcDbEntity
8
0
100
AcDbLine
10
351.9656954865394
20
225.39831851891728
30
0
11
401.00130555946282
21
225.39831851891691
31
0
0
ARC
5
311
100
AcDbEntity
8
0
100
AcDbCircle
10
199.7728769890208
20
375.06498509401149
30
0
40
7.5000000000356595
210
0
220
-0
230
1
100
AcDbArc
50
17.457603123740199
51
170.79310377864158
0
ARC
5
312
100
AcDbEntity
8
0
100
AcDbCircle
10
187.43391430976999
20
377.06498509401069
30
0
40
4.9999999999996447
210
0
220
0
230
1
100
AcDbArc
50
269.99999999999972
51
350.79310377867785
0
ARC
5
313
100
AcDbEntity
8
0
100
AcDbCircle
10
201.2730849349083
20
377.06482911774242
30
0
40
5.0000000000119194
210
0
220
0
230
1
100
AcDbArc
50
233.12414491259955
51
269.54743283925194
0
ARC
5
314
100
AcDbEntity
8
0
100
AcDbCircle
10
199.7728769890208
20
375.06498509401149
30
0
40
2.5000000000008846
210
0
220
-0
230
1
100
AcDbArc
50
17.457603123715561
51
233.12414491366567
0
ARC
5
315
100
AcDbEntity
8
0
100
AcDbCircle
10
204.54257299610686
20
376.56498509401138
30
0
40
2.5000000000003335
210
0
220
0
230
1
100
AcDbArc
50
-162.54239687628299
51
17.457603123788015
0
ARC
5
316
100
AcDbEntity
8
0
100
AcDbCircle
10
258.47651965691432
20
228.39831842734435
30
0
40
7.5000000012153203
210
0
220
-0
230
1
100
AcDbArc
50
17.457603121518115
51
170.79310377908726
0
ARC
5
317
100
AcDbEntity
8
0
100
AcDbCircle
10
246.13755697643569
20
230.39831842734455
30
0
40
5.0000000000001066
210
0
220
0
230
1
100
AcDbArc
50
269.99999999999972
51
350.79310378024923
0
ARC
5
318
100
AcDbEntity
8
0
100
AcDbCircle
10
259.97651965700891
20
230.39831842746122
30
0
40
5.0000000001787157
210
0
220
0
230
1
100
AcDbArc
50
233.13010235399506
51
270.00002813016567
0
ARC
5
319
100
AcDbEntity
8
0
100
AcDbCircle
10
258.47651965691432
20
228.39831842734435
30
0
40
2.4999999999991123
210
0
220
-0
230
1
100
AcDbArc
50
17.457603121554584
51
233.13010235396132
0
ARC
5
320
100
AcDbEntity
8
0
100
AcDbCircle
10
263.24621566463736
20
229.89831842734429
30
0
40
2.5000000006098118
210
0
220
0
230
1
100
AcDbArc
50
-162.5423968785004
51
17.457603121500131
0
CIRCLE
5
321
100
AcDbEntity
8
0
100
AcDbCircle
10
307.24372799355291
20
220.39831851065509
30
0
40
1.0000000000000142
210
0
220
0
230
1
0
CIRCLE
5
322
100
AcDbEntity
8
0
100
AcDbCircle
10
286.9835305987026
20
206.59389862678802
30
0
40
1.0000000000000142
210
0
220
0
230
1
0
CIRCLE
5
323
100
AcDbEntity
8
0
100
AcDbCircle
10
283.99854167886411
20
220.39831851065526
30
0
40
1.0000000000000142
210
0
220
0
230
1
0
CIRCLE
5
324
100
AcDbEntity
8
0
100
AcDbCircle
10
284.53912750626523
20
147.06498534777103
30
0
40
1.0000000000000142
210
0
220
0
230
1
0
CIRCLE
5
325
100
AcDbEntity
8
0
100
AcDbCircle
10
271.40745628115349
20
278.62722130613645
30
0
40
1.0000000000000142
210
0
220
0
230
1
0
CIRCLE
5
326
100
AcDbEntity
8
0
100
AcDbCircle
10
260.75335584771204
20
220.39831851065543
30
0
40
1.0000000000000142
210
0
220
0
230
1
0
CIRCLE
5
327
100
AcDbEntity
8
0
100
AcDbCircle
10
303.34019535207136
20
256.50297795145531
30
0
40
1.0000000000000142
210
0
220
0
230
1
0
CIRCLE
5
328
100
AcDbEntity
8
0
100
AcDbCircle
10
299.31513748708977
20
293.73165176679339
30
0
40
1.0000000000000142
210
0
220
0
230
1
0
CIRCLE
5
329
100
AcDbEntity
8
0
100
AcDbCircle
10
299.85572283959857
20
147.0649853465095
30
0
40
1.0000000000000142
210
0
220
0
230
1
0
CIRCLE
5
330
100
AcDbEntity
8
0
100
AcDbCircle
10
174.70026931092946
20
296.23165177528722
30
0
40
1.0000000000000142
210
0
220
0
230
1
0
CIRCLE
5
331
100
AcDbEntity
8
0
100
AcDbCircle
10
236.96758415539711
20
293.73165177168664
30
0
40
1.0000000000000142
210
0
220
0
230
1
0
CIRCLE
5
332
100
AcDbEntity
8
0
100
AcDbCircle
10
214.70026927524816
20
222.89831852800492
30
0
40
1.0000000000000142
210
0
220
0
230
1
0
CIRCLE
5
333
100
AcDbEntity
8
0
100
AcDbCircle
10
311.04984116310675
20
185.19471388048652
30
0
40
1.0000000000000142
210
0
220
0
230
1
0
CIRCLE
5
334
100
AcDbEntity
8
0
100
AcDbCircle
10
268.14136049795042
20
293.73165176923999
30
0
40
1.0000000000000142
210
0
220
0
230
1
0
CIRCLE
5
335
100
AcDbEntity
8
0
100
AcDbCircle
10
315.1723184906059
20
147.064985345248
30
0
40
1.0000000000000142
210
0
220
0
230
1
0
CIRCLE
5
336
100
AcDbEntity
8
0
100
AcDbCircle
10
254.70026920005301
20
149.56498534777126
30
0
40
1.0000000000000142
210
0
220
0
230
1
0
CIRCLE
5
337
100
AcDbEntity
8
0
100
AcDbCircle
10
318.27433123699473
20
339.26357603180037
30
0
40
1.0000000000000142
210
0
220
0
230
1
0
CIRCLE
5
338
100
AcDbEntity
8
0
100
AcDbCircle
10
376.43870014161325
20
147.06498534416443
30
0
40
0.99999999999999645
210
0
220
0
230
1
0
CIRCLE
5
339
100
AcDbEntity
8
0
100
AcDbCircle
10
361.1221048082798
20
147.06498534410511
30
0
40
1.0000000000000142
210
0
220
0
230
1
0
CIRCLE
5
340
100
AcDbEntity
8
0
100
AcDbCircle
10
358.3345305344136
20
134.17353188962028
30
0
40
1.0000000000000142
210
0
220
0
230
1
0
CIRCLE
5
341
100
AcDbEntity
8
0
100
AcDbCircle
10
342.57562256387075
20
117.19103113136796
30
0
40
1.0000000000000142
210
0
220
0
230
1
0
CIRCLE
5
342
100
AcDbEntity
8
0
100
AcDbCircle
10
349.92798648776454
20
185.19471387896067
30
0
40
1.0000000000000142
210
0
220
0
230
1
0
CIRCLE
5
343
100
AcDbEntity
8
0
100
AcDbCircle
10
373.9942970538483
20
206.59389862337324
30
0
40
0.99999999999999645
210
0
220
0
230
1
0
CIRCLE
5
344
100
AcDbEntity
8
0
100
AcDbCircle
10
400.22447180592235
20
220.39831850518181
30
0
40
0.99999999999999645
210
0
220
0
230
1
0
CIRCLE
5
345
100
AcDbEntity
8
0
100
AcDbCircle
10
357.6376323043969
20
256.50297794932442
30
0
40
1.0000000000000142
210
0
220
0
230
1
0
CIRCLE
5
346
100
AcDbEntity
8
0
100
AcDbCircle
10
389.57037137705129
20
278.62722130149916
30
0
40
0.99999999999999645
210
0
220
0
230
1
0
CIRCLE
5
347
100
AcDbEntity
8
0
100
AcDbCircle
10
424.01024350399325
20
293.73165176434611
30
0
40
0.99999999999999645
210
0
220
0
230
1
0
CIRCLE
5
348
100
AcDbEntity
8
0
100
AcDbCircle
10
447.79601522357211
20
367.06498509279277
30
0
40
0.99999999999999645
210
0
220
0
230
1
0
CIRCLE
5
349
100
AcDbEntity
8
0
100
AcDbCircle
10
405.31332608457632
20
351.43230124805393
30
0
40
0.99999999999999645
210
0
220
0
230
1
0
CIRCLE
5
350
100
AcDbEntity
8
0
100
AcDbCircle
10
365.49507811136891
20
329.17827767318244
30
0
40
1.0000000000000142
210
0
220
0
230
1
0
CIRCLE
5
351
100
AcDbEntity
8
0
100
AcDbCircle
10
344.69623090655682
20
393.73165175971064
30
0
40
1.0000000000000142
210
0
220
0
230
1
0
CIRCLE
5
352
100
AcDbEntity
8
0
100
AcDbCircle
10
342.70349642596943
20
339.26357603084159
30
0
40
1.0000000000000142
210
0
220
0
230
1
0
CIRCLE
5
353
100
AcDbEntity
8
0
100
AcDbCircle
10
406.27755844802164
20
149.56498534182256
30
0
40
0.99999999999999645
210
0
220
0
230
1
0
CIRCLE
5
354
100
AcDbEntity
8
0
100
AcDbCircle
10
446.27755837858246
20
222.8983185189166
30
0
40
0.99999999999999645
210
0
220
0
230
1
0
CIRCLE
5
355
100
AcDbEntity
8
0
100
AcDbCircle
10
486.27755834869834
20
296.23165176299244
30
0
40
0.99999999999999645
210
0
220
0
230
1
0
CIRCLE
5
356
100
AcDbEntity
8
0
100
AcDbCircle
10
343.72062114942617
20
367.06498510096094
30
0
40
1.0000000000000142
210
0
220
0
230
1
0
CIRCLE
5
357
100
AcDbEntity
8
0
100
AcDbCircle
10
341.03769431640001
20
293.73165176434668
30
0
40
1.0000000000000142
210
0
220
0
230
1
0
CIRCLE
5
358
100
AcDbEntity
8
0
100
AcDbCircle
10
339.01640434753858
20
238.48305935704241
30
0
40
1.0000000000000142
210
0
220
0
230
1
0
CIRCLE
5
359
100
AcDbEntity
8
0
100
AcDbCircle
10
318.40220508166277
20
117.19103113231661
30
0
40
1.0000000000000142
210
0
220
0
230
1
0
CIRCLE
5
360
100
AcDbEntity
8
0
100
AcDbCircle
10
302.6432971124529
20
134.17353189180585
30
0
40
1.0000000000000142
210
0
220
0
230
1
0
CIRCLE
5
361
100
AcDbEntity
8
0
100
AcDbCircle
10
295.48274955080365
20
329.17827767593008
30
0
40
1.0000000000000142
210
0
220
0
230
1
0
CIRCLE
5
362
100
AcDbEntity
8
0
100
AcDbCircle
10
255.66450157934301
20
351.43230125392688
30
0
40
1.0000000000000142
210
0
220
0
230
1
0
CIRCLE
5
363
100
AcDbEntity
8
0
100
AcDbCircle
10
134.7002693098151
20
369.56498510629723
30
0
40
1.0000000000000142
210
0
220
0
230
1
0
CIRCLE
5
364
100
AcDbEntity
8
0
100
AcDbCircle
10
213.18181244157421
20
367.06498510200026
30
0
40
1.0000000000000142
210
0
220
0
230
1
0
CIRCLE
5
365
100
AcDbEntity
8
0
100
AcDbCircle
10
252.28417930087662
20
367.06498510199998
30
0
40
1.0000000000000142
210
0
220
0
230
1
0
CIRCLE
5
366
100
AcDbEntity
8
0
100
AcDbCircle
10
291.38654697187826
20
367.0649851019997
30
0
40
1.0000000000000142
210
0
220
0
230
1
0
CIRCLE
5
367
100
AcDbEntity
8
0
100
AcDbCircle
10
316.28159676068265
20
393.7316517608258
30
0
40
1.0000000000000142
210
0
220
0
230
1
0
CIRCLE
5
368
100
AcDbEntity
8
0
100
AcDbCircle
10
369.59128069326812
20
367.06498509893061
30
0
40
1.0000000000000142
210
0
220
0
230
1
0
CIRCLE
5
369
100
AcDbEntity
8
0
100
AcDbCircle
10
408.69364836426973
20
367.06498509586169
30
0
40
0.99999999999999645
210
0
220
0
230
1
0
CIRCLE
5
370
100
AcDbEntity
8
0
100
AcDbCircle
10
353.73409966008154
20
220.39831850883053
30
0
40
1.0000000000000142
210
0
220
0
230
1
0
CIRCLE
5
371
100
AcDbEntity
8
0
100
AcDbCircle
10
376.97928597477022
20
220.39831850700619
30
0
40
0.99999999999999645
210
0
220
0
230
1
0
CIRCLE
5
372
100
AcDbEntity
8
0
100
AcDbCircle
10
526.27755835552762
20
369.56498509092967
30
0
40
1.0000000000000004
210
0
220
0
230
1
0
CIRCLE
5
373
100
AcDbEntity
8
0
100
AcDbCircle
10
345.80550915727258
20
147.06498534404579
30
0
40
1.0000000000000142
210
0
220
0
230
1
0
CIRCLE
5
374
100
AcDbEntity
8
0
100
AcDbCircle
10
392.83646716144
20
293.73165176434634
30
0
40
0.99999999999999645
210
0
220
0
230
1
0
CIRCLE
5
375
100
AcDbEntity
8
0
100
AcDbCircle
10
361.66269017230064
20
293.73165176434657
30
0
40
1.0000000000000142
210
0
220
0
230
1
0
CIRCLE
5
376
100
AcDbEntity
8
0
100
AcDbCircle
10
341.68637170246831
20
311.46216695950551
30
0
40
1.0000000000000142
210
0
220
0
230
1
0
CIRCLE
5
377
100
AcDbEntity
8
0
100
AcDbCircle
10
340.02704933196929
20
266.10735556069454
30
0
40
1.0000000000000142
210
0
220
0
230
1
0
CIRCLE
5
378
100
AcDbEntity
8
0
100
AcDbCircle
10
334.09912588611718
20
104.07744826042993
30
0
40
1.0000000000000142
210
0
220
0
230
1
0
CIRCLE
5
379
100
AcDbEntity
8
0
100
AcDbCircle
10
319.29145595831375
20
311.46216696038431
30
0
40
1.0000000000000142
210
0
220
0
230
1
0
CIRCLE
5
380
100
AcDbEntity
8
0
100
AcDbCircle
10
317.25720651572027
20
367.06498510199958
30
0
40
1.0000000000000142
210
0
220
0
230
1
0
CIRCLE
5
381
100
AcDbEntity
8
0
100
AcDbCircle
10
321.96142330751542
20
238.48305935771177
30
0
40
1.0000000000000142
210
0
220
0
230
1
0
CIRCLE
5
382
100
AcDbEntity
8
0
100
AcDbCircle
10
319.94013334299029
20
293.73165176517466
30
0
40
1.0000000000000142
210
0
220
0
230
1
0
CIRCLE
5
383
100
AcDbEntity
8
0
100
AcDbCircle
10
320.95077832525283
20
266.10735556144323
30
0
40
1.0000000000000142
210
0
220
0
230
1
0
CIRCLE
5
384
100
AcDbEntity
8
0
100
AcDbCircle
10
322.62306016724921
20
220.39831851065497
30
0
40
1.0000000000000142
210
0
220
0
230
1
0
CIRCLE
5
385
100
AcDbEntity
8
0
100
AcDbCircle
10
323.60865944718142
20
193.45860483782877
30
0
40
1.0000000000000142
210
0
220
0
230
1
0
CIRCLE
5
386
100
AcDbEntity
8
0
100
AcDbCircle
10
324.59425872711364
20
166.51889116500269
30
0
40
1.0000000000000142
210
0
220
0
230
1
0
CIRCLE
5
387
100
AcDbEntity
8
0
100
AcDbCircle
10
336.38356892229183
20
166.51889116454001
30
0
40
1.0000000000000142
210
0
220
0
230
1
0
CIRCLE
5
388
100
AcDbEntity
8
0
100
AcDbCircle
10
337.36916820433851
20
193.45860483728876
30
0
40
1.0000000000000142
210
0
220
0
230
1
0
CIRCLE
5
389
100
AcDbEntity
8
0
100
AcDbCircle
10
338.35476748638513
20
220.39831851003757
30
0
40
1.0000000000000142
210
0
220
0
230
1
0
CIRCLE
5
390
100
AcDbEntity
8
0
100
AcDbCircle
10
334.88548327285866
20
125.57121680221826
30
0
40
1.0000000000000142
210
0
220
0
230
1
0
CIRCLE
5
391
100
AcDbEntity
8
0
100
AcDbCircle
10
335.67184065960009
20
147.06498534400654
30
0
40
1.0000000000000142
210
0
220
0
230
1
0
CIRCLE
5
392
100
AcDbEntity
8
0
100
AcDbCircle
10
326.09234437333276
20
125.57121680256337
30
0
40
1.0000000000000142
210
0
220
0
230
1
0
CIRCLE
5
393
100
AcDbEntity
8
0
100
AcDbCircle
10
325.30598698827845
20
147.06498534441337
30
0
40
1.0000000000000142
210
0
220
0
230
1
0
CIRCLE
5
394
100
AcDbEntity
8
0
100
AcDbCircle
10
326.87870175838714
20
104.0774482607133
30
0
40
1.0000000000000142
210
0
220
0
230
1
0
ARC
5
395
100
AcDbEntity
8
0
100
AcDbCircle
10
431.71973259258067
20
50.272761200761948
30
0
40
100.00000000009777
210
0
220
0
230
1
100
AcDbArc
50
104.37198903814782
51
163.4657227791995
0
ARC
5
396
100
AcDbEntity
8
0
100
AcDbCircle
10
406.27755844802164
20
149.56498534182256
30
0
40
2.5000000002958123
210
-0
220
0
230
1
100
AcDbArc
50
-75.628010989058708
51
89.99999999550289
0
LINE
5
397
100
AcDbEntity
8
0
100
AcDbLine
10
346.59984183496988
20
152.06498534182282
30
0
11
392.43859568226952
21
152.06498534182262
31
0
0
ARC
5
398
100
AcDbEntity
8
0
100
AcDbCircle
10
346.59984183496988
20
157.0649853418229
30
0
40
5.0000000000001101
210
0
220
0
230
1
100
AcDbArc
50
150.67399733796455
51
270
0
ARC
5
399
100
AcDbEntity
8
0
100
AcDbCircle
10
446.2775583690206
20
101.06896164520727
30
0
40
119.32935687425207
210
0
220
-0
230
1
100
AcDbArc
50
89.99999999550306
51
150.6739973305252
0
ARC
5
400
100
AcDbEntity
8
0
100
AcDbCircle
10
446.27755837858246
20
222.8983185189166
30
0
40
2.5
210
-0
220
0
230
1
100
AcDbArc
50
-89.999999982913053
51
90.000000017086933
0
LINE
5
401
100
AcDbEntity
8
0
100
AcDbLine
10
414.84027069485603
20
225.39831851891682
30
0
11
432.43859625771137
21
225.39831851891671
31
0
0
ARC
5
402
100
AcDbEntity
8
0
100
AcDbCircle
10
351.9656954865394
20
230.39831851891728
30
0
40
5.0000000000000169
210
0
220
0
230
1
100
AcDbArc
50
136.95182640000462
51
270
0
ARC
5
403
100
AcDbEntity
8
0
100
AcDbCircle
10
486.27755827056029
20
104.93918646983225
30
0
40
188.79246529448204
210
0
220
-0
230
1
100
AcDbArc
50
89.999999976351845
51
136.95182639949002
0
ARC
5
404
100
AcDbEntity
8
0
100
AcDbCircle
10
486.27755834869834
20
296.23165176299244
30
0
40
2.4999999964666841
210
0
220
0
230
1
100
AcDbArc
50
-90.000000004955666
51
89.999999995045627
0
LINE
5
405
100
AcDbEntity
8
0
100
AcDbLine
10
443.29555536156602
20
298.7316517628326
30
0
11
472.43860446241376
21
298.73165176067619
31
0
0
ARC
5
406
100
AcDbEntity
8
0
100
AcDbCircle
10
357.33154914340611
20
303.73165176957934
30
0
40
4.9999999999999947
210
0
220
0
230
1
100
AcDbArc
50
128.0973301564342
51
269.99999999550289
0
ARC
5
407
100
AcDbEntity
8
0
100
AcDbCircle
10
526.27755833364472
20
88.246141035881251
30
0
40
278.81884405196905
210
0
220
-0
230
1
100
AcDbArc
50
89.999999995503174
51
128.09733016607063
0
ARC
5
408
100
AcDbEntity
8
0
100
AcDbCircle
10
526.27755835552762
20
369.56498509092967
30
0
40
2.5000000018625457
210
0
220
0
230
1
100
AcDbArc
50
-90
51
90
0
ARC
5
409
100
AcDbEntity
8
0
100
AcDbCircle
10
368.07662348757498
20
382.06498509279334
30
0
40
9.9999999999999911
210
0
220
0
230
1
100
AcDbArc
50
175.81508387296921
51
269.99999999999972
0
LINE
5
410
100
AcDbEntity
8
0
100
AcDbLine
10
358.44353195422093
20
387.44476607545198
30
0
11
358.1032862516837
21
382.794741476242
31
0
0
ARC
5
411
100
AcDbEntity
8
0
100
AcDbCircle
10
455.48891383564728
20
445.39831842603854
30
0
40
30.000000000000004
210
0
220
0
230
1
100
AcDbArc
50
281.58610287146729
51
348.46304096718421
0
ARC
5
412
100
AcDbEntity
8
0
100
AcDbCircle
10
479.98381126347908
20
440.39831842603832
30
0
40
4.9999999999999485
210
0
220
0
230
1
100
AcDbArc
50
-11.536959032814934
51
89.999999999999346
0
LINE
5
413
100
AcDbEntity
8
0
100
AcDbLine
10
328.98891383407783
20
445.39831842615718
30
0
11
479.9838112634792
21
445.39831841430663
31
0
0
ARC
5
414
100
AcDbEntity
8
0
100
AcDbCircle
10
180.99401640742315
20
440.39831843777245
30
0
40
4.9999999999998579
210
0
220
-0
230
1
100
AcDbArc
50
89.99999999550387
51
191.5369590283195
0
ARC
5
415
100
AcDbEntity
8
0
100
AcDbCircle
10
205.48891383564737
20
445.39831843584989
30
0
40
29.999999999999932
210
0
220
0
230
1
100
AcDbArc
50
191.53695902831859
51
258.41389713229484
0
LINE
5
416
100
AcDbEntity
8
0
100
AcDbLine
10
302.87454141469732
20
382.79474147840972
30
0
11
302.53429571270897
21
387.44476607513297
31
0
0
ARC
5
417
100
AcDbEntity
8
0
100
AcDbCircle
10
292.9012041787488
20
382.06498509574362
30
0
40
10
210
0
220
0
230
1
100
AcDbArc
50
-90.000000004496783
51
4.1849161225350207
0
LINE
5
418
100
AcDbEntity
8
0
100
AcDbLine
10
201.23359141037636
20
372.06498510293795
30
0
11
292.90120417796396
21
372.06498509574362
31
0
0
ARC
5
419
100
AcDbEntity
8
0
100
AcDbCircle
10
134.7002693098151
20
369.56498510629723
30
0
40
2.5000000042964388
210
0
220
-0
230
1
100
AcDbArc
50
89.99999999550289
51
269.99999999550357
0
ARC
5
420
100
AcDbEntity
8
0
100
AcDbCircle
10
134.70026930961689
20
88.246141051248372
30
0
40
278.81884405075249
210
0
220
-0
230
1
100
AcDbArc
50
51.902669829432213
51
89.999999999999588
0
ARC
5
421
100
AcDbEntity
8
0
100
AcDbCircle
10
303.6462785167692
20
303.73165177168624
30
0
40
5.0000000008867929
210
0
220
0
230
1
100
AcDbArc
50
-90.000000000000654
51
51.902669839070292
0
LINE
5
422
100
AcDbEntity
8
0
100
AcDbLine
10
231.52123668831095
20
298.7316517716867
30
0
11
303.64627851676914
21
298.73165177079943
31
0
0
ARC
5
423
100
AcDbEntity
8
0
100
AcDbCircle
10
174.70026931092946
20
296.23165177528722
30
0
40
2.4999999971287323
210
0
220
-0
230
1
100
AcDbArc
50
89.999999985519878
51
269.98773688130734
0
ARC
5
424
100
AcDbEntity
8
0
100
AcDbCircle
10
174.70026937401167
20
104.93918648206019
30
0
40
188.79246529573049
210
0
220
-0
230
1
100
AcDbArc
50
43.048173596006919
51
90.000162408022106
0
ARC
5
425
100
AcDbEntity
8
0
100
AcDbCircle
10
309.01213216787988
20
230.398318520603
30
0
40
4.9999999999818456
210
0
220
0
230
1
100
AcDbArc
50
-90.000000004496442
51
43.048173595276452
0
LINE
5
426
100
AcDbEntity
8
0
100
AcDbLine
10
259.97652211182896
20
225.398318524442
30
0
11
309.01213216748749
21
225.39831852062116
31
0
0
ARC
5
427
100
AcDbEntity
8
0
100
AcDbCircle
10
214.70026927524816
20
222.89831852800492
30
0
40
2.5
210
0
220
-0
230
1
100
AcDbArc
50
89.999999991026627
51
269.99999999102658
0
ARC
5
428
100
AcDbEntity
8
0
100
AcDbCircle
10
214.70026927524756
20
101.0689616369465
30
0
40
119.32935689105844
210
0
220
-0
230
1
100
AcDbArc
50
29.326002672240204
51
90.000000000187711
0
ARC
5
429
100
AcDbEntity
8
0
100
AcDbCircle
10
314.3779858136935
20
157.06498534308747
30
0
40
5.0000000000244071
210
0
220
0
230
1
100
AcDbArc
50
-90.000000004495831
51
29.326002657537433
0
ARC
5
430
100
AcDbEntity
8
0
100
AcDbCircle
10
254.70026920005301
20
149.56498534777126
30
0
40
2.5000000009499068
210
0
220
-0
230
1
100
AcDbArc
50
89.999999999998693
51
255.62801098456279
0
ARC
5
431
100
AcDbEntity
8
0
100
AcDbCircle
10
229.25809504770052
20
50.272761208133048
30
0
40
100.00000000000021
210
0
220
-0
230
1
100
AcDbArc
50
16.534277216618833
51
75.628010957436729
0
ARC
5
432
100
AcDbEntity
8
0
100
AcDbCircle
10
330.48891382131984
20
80.324582685444454
30
0
40
5.5973041496870373
210
0
220
0
230
1
100
AcDbArc
50
196.53427720266478
51
254.45553380586114
0
LINE
5
433
100
AcDbEntity
8
0
100
AcDbLine
10
544.78184264857259
20
211.24050487578893
30
0
11
544.7818426485585
21
25.654984927904145
31
0
0
LINE
5
434
100
AcDbEntity
8
0
100
AcDbLine
10
547.7818426485585
20
25.654984927903897
30
0
11
547.78184264857248
21
211.24050487578867
31
0
0
LINE
5
435
100
AcDbEntity
8
0
100
AcDbLine
10
547.78184264857248
20
211.24050487578867
30
0
11
544.78184264857259
21
211.24050487578893
31
0
0
CIRCLE
5
436
100
AcDbEntity
8
0
100
AcDbCircle
10
526.28184264570382
20
45.65498492863145
30
0
40
1.5500000000000114
210
0
220
0
230
1
0
CIRCLE
5
437
100
AcDbEntity
8
0
100
AcDbCircle
10
566.2818426457037
20
45.654984927058905
30
0
40
1.5500000000000114
210
0
220
0
230
1
0
LINE
5
438
100
AcDbEntity
8
0
100
AcDbLine
10
695.77674007274936
20
25.654984921968037
30
0
11
547.7818426485585
21
25.654984933593283
31
0
0
ARC
5
439
100
AcDbEntity
8
0
100
AcDbCircle
10
609.73152449156237
20
315.98831826573519
30
0
40
7.5000000000005587
210
0
220
0
230
1
100
AcDbArc
50
197.45760312371445
51
350.79310377865096
0
ARC
5
440
100
AcDbEntity
8
0
100
AcDbCircle
10
622.07048717081602
20
313.98831826573434
30
0
40
5
210
0
220
-0
230
1
100
AcDbArc
50
89.999999999996092
51
170.79310377865033
0
ARC
5
441
100
AcDbEntity
8
0
100
AcDbCircle
10
608.23152449156328
20
313.98831826573536
30
0
40
5.0000000000000142
210
0
220
-0
230
1
100
AcDbArc
50
53.13010235417044
51
89.999999999994785
0
ARC
5
442
100
AcDbEntity
8
0
100
AcDbCircle
10
609.73152449156237
20
315.98831826573519
30
0
40
2.5000000000006284
210
0
220
0
230
1
100
AcDbArc
50
-162.54239687628657
51
53.130102354170575
0
ARC
5
443
100
AcDbEntity
8
0
100
AcDbCircle
10
604.96182848447677
20
314.4883182657357
30
0
40
2.5000000000000218
210
0
220
-0
230
1
100
AcDbArc
50
17.457603123713589
51
197.45760312371635
0
LINE
5
444
100
AcDbEntity
8
0
100
AcDbLine
10
608.23152449156373
20
318.98831801306687
30
0
11
562.3927706672838
21
318.98831801668638
31
0
0
ARC
5
445
100
AcDbEntity
8
0
100
AcDbCircle
10
689.7315244915992
20
169.32165159906253
30
0
40
7.5000000000003997
210
0
220
0
230
1
100
AcDbArc
50
197.45760312388609
51
350.79310377864618
0
ARC
5
446
100
AcDbEntity
8
0
100
AcDbCircle
10
702.07048717084774
20
167.32165159906157
30
0
40
5.0000000000000711
210
0
220
-0
230
1
100
AcDbArc
50
89.999999999994785
51
170.79310377864681
0
ARC
5
447
100
AcDbEntity
8
0
100
AcDbCircle
10
688.23152449164718
20
167.32165159898318
30
0
40
5.0000000000354419
210
0
220
-0
230
1
100
AcDbArc
50
53.13010235515636
51
89.999899388054558
0
ARC
5
448
100
AcDbEntity
8
0
100
AcDbCircle
10
689.7315244915992
20
169.32165159906253
30
0
40
2.5000000000004037
210
0
220
0
230
1
100
AcDbArc
50
-162.54239687628626
51
53.130102354185944
0
ARC
5
449
100
AcDbEntity
8
0
100
AcDbCircle
10
684.96182848451326
20
167.82165159906299
30
0
40
2.5000000000006746
210
0
220
-0
230
1
100
AcDbArc
50
17.45760312371219
51
197.45760312423243
0
LINE
5
450
100
AcDbEntity
8
0
100
AcDbLine
10
688.23153327169598
20
172.32165158805384
30
0
11
659.08848417084812
21
172.32165158805603
31
0
0
ARC
5
451
100
AcDbEntity
8
0
100
AcDbCircle
10
508.35388728842412
20
84.338293667563988
30
0
40
9.9999999999981863
210
-0
220
0
230
1
100
AcDbArc
50
281.58610287097827
51
355.81508387487725
0
LINE
5
452
100
AcDbEntity
8
0
100
AcDbLine
10
415.2566330865601
20
55.043704703412018
30
0
11
510.36229047454526
21
74.542053743902358
31
0
0
ARC
5
453
100
AcDbEntity
8
0
100
AcDbCircle
10
445.81416379826067
20
169.32165159908092
30
0
40
7.4999999999977813
210
0
220
0
230
1
100
AcDbArc
50
189.20689622133077
51
342.54239687605207
0
ARC
5
454
100
AcDbEntity
8
0
100
AcDbCircle
10
450.5838598053457
20
167.82165159908061
30
0
40
2.4999999999974585
210
0
220
0
230
1
100
AcDbArc
50
-17.457603124394897
51
162.54239687560522
0
ARC
5
455
100
AcDbEntity
8
0
100
AcDbCircle
10
445.81416379826067
20
169.32165159908092
30
0
40
2.5000000000300417
210
0
220
0
230
1
100
AcDbArc
50
126.86989764530858
51
342.54239687694587
0
ARC
5
456
100
AcDbEntity
8
0
100
AcDbCircle
10
447.31416379830932
20
167.32165159907677
30
0
40
5.0000000000044098
210
0
220
-0
230
1
100
AcDbArc
50
89.999980527642506
51
126.86989764599385
0
ARC
5
457
100
AcDbEntity
8
0
100
AcDbCircle
10
433.47520111900849
20
167.32165159908175
30
0
40
5.0000000000012088
210
0
220
-0
230
1
100
AcDbArc
50
9.2068962213608643
51
89.999999999996092
0
LINE
5
458
100
AcDbEntity
8
0
100
AcDbLine
10
519.43920733756124
20
172.32165159017308
30
0
11
447.31416549759308
21
172.3216515958386
31
0
0
ARC
5
459
100
AcDbEntity
8
0
100
AcDbCircle
10
362.83216079830117
20
95.988318265753861
30
0
40
7.5000000000013243
210
0
220
0
230
1
100
AcDbArc
50
189.20689622134486
51
342.54239687621128
0
ARC
5
460
100
AcDbEntity
8
0
100
AcDbCircle
10
367.60185680538711
20
94.488318265753506
30
0
40
2.5000000000000626
210
0
220
0
230
1
100
AcDbArc
50
-17.457603123922496
51
162.54239687607782
0
ARC
5
461
100
AcDbEntity
8
0
100
AcDbCircle
10
362.83216079830117
20
95.988318265753861
30
0
40
2.5000000000007674
210
0
220
0
230
1
100
AcDbArc
50
126.8698976457888
51
342.54239687647856
0
ARC
5
462
100
AcDbEntity
8
0
100
AcDbCircle
10
364.3321607982997
20
93.988318265750365
30
0
40
5.0000000000067786
210
0
220
0
230
1
100
AcDbArc
50
90.00006720587659
51
126.86989764577883
0
ARC
5
463
100
AcDbEntity
8
0
100
AcDbCircle
10
350.49319811904576
20
93.988318265754657
30
0
40
5.0000000000008979
210
0
220
-0
230
1
100
AcDbArc
50
9.2068962213340662
51
89.999999999996092
0
ARC
5
464
100
AcDbEntity
8
0
100
AcDbCircle
10
447.60185680503918
20
241.1549849324141
30
0
40
2.4999999998873115
210
0
220
0
230
1
100
AcDbArc
50
-17.457603123924127
51
162.54239687607628
0
ARC
5
465
100
AcDbEntity
8
0
100
AcDbCircle
10
442.83216079801218
20
242.65498493241452
30
0
40
2.5000000000583493
210
0
220
0
230
1
100
AcDbArc
50
126.8698976430061
51
342.54239687607327
0
ARC
5
466
100
AcDbEntity
8
0
100
AcDbCircle
10
444.33216079795642
20
240.65498493227065
30
0
40
5.0000000001437765
210
0
220
0
230
1
100
AcDbArc
50
90.000006590021698
51
126.8698976429247
0
ARC
5
467
100
AcDbEntity
8
0
100
AcDbCircle
10
430.49319811905673
20
240.65498493256689
30
0
40
4.9999999998491207
210
0
220
-0
230
1
100
AcDbArc
50
9.2068962208732845
51
89.999999999995438
0
ARC
5
468
100
AcDbEntity
8
0
100
AcDbCircle
10
442.83216079801218
20
242.65498493241452
30
0
40
7.4999999998327205
210
0
220
0
230
1
100
AcDbArc
50
189.20689622087573
51
342.54239687607514
0
LINE
5
469
100
AcDbEntity
8
0
100
AcDbLine
10
582.20139481529714
20
74.542053743896943
30
0
11
677.30705220327934
21
55.043704703392322
31
0
0
ARC
5
470
100
AcDbEntity
8
0
100
AcDbCircle
10
584.2097980014197
20
84.338293667558276
30
0
40
10.000000000000025
210
0
220
0
230
1
100
AcDbArc
50
184.18491612511414
51
258.41389712901338
0
ARC
5
471
100
AcDbEntity
8
0
100
AcDbCircle
10
646.74952149159594
20
169.32165159906586
30
0
40
7.5000000000032232
210
0
220
0
230
1
100
AcDbArc
50
197.45760312394003
51
350.79310377866028
0
ARC
5
472
100
AcDbEntity
8
0
100
AcDbCircle
10
659.08848417084778
20
167.32165159906475
30
0
40
5.0000000000001066
210
0
220
-0
230
1
100
AcDbArc
50
89.999999999994785
51
170.7931037786301
0
ARC
5
473
100
AcDbEntity
8
0
100
AcDbCircle
10
645.24952149154706
20
167.32165159906188
30
0
40
5.0000000000625278
210
0
220
-0
230
1
100
AcDbArc
50
53.130102353997827
51
90.000019472349678
0
ARC
5
474
100
AcDbEntity
8
0
100
AcDbCircle
10
646.74952149159594
20
169.32165159906586
30
0
40
2.4999999999421441
210
0
220
0
230
1
100
AcDbArc
50
-162.5423968762868
51
53.130102354681256
0
ARC
5
475
100
AcDbEntity
8
0
100
AcDbCircle
10
641.9798254845108
20
167.82165159906629
30
0
40
2.5000000000581206
210
0
220
-0
230
1
100
AcDbArc
50
17.457603123718805
51
197.45760312438819
0
ARC
5
476
100
AcDbEntity
8
0
100
AcDbCircle
10
649.73152449185545
20
242.65498493239903
30
0
40
7.4999999998324167
210
0
220
0
230
1
100
AcDbArc
50
197.45760312391613
51
350.79310377911497
0
ARC
5
477
100
AcDbEntity
8
0
100
AcDbCircle
10
662.07048717081057
20
240.6549849325495
30
0
40
4.9999999998485123
210
0
220
-0
230
1
100
AcDbArc
50
89.999999999996092
51
170.7931037791185
0
ARC
5
478
100
AcDbEntity
8
0
100
AcDbCircle
10
648.23152449191082
20
240.65498493225533
30
0
40
5.0000000001399485
210
0
220
-0
230
1
100
AcDbArc
50
53.130102357066988
51
89.999993409968539
0
ARC
5
479
100
AcDbEntity
8
0
100
AcDbCircle
10
649.73152449185545
20
242.65498493239903
30
0
40
2.5000000000575762
210
0
220
0
230
1
100
AcDbArc
50
-162.54239687609297
51
53.13010235698686
0
ARC
5
480
100
AcDbEntity
8
0
100
AcDbCircle
10
644.9618284848284
20
241.1549849323992
30
0
40
2.4999999998873288
210
0
220
-0
230
1
100
AcDbArc
50
17.45760312392995
51
197.45760312391144
0
LINE
5
481
100
AcDbEntity
8
0
100
AcDbLine
10
648.23152506699955
20
245.65498483284028
30
0
11
630.63319950414427
21
245.65498483421925
31
0
0
ARC
5
482
100
AcDbEntity
8
0
100
AcDbCircle
10
724.96182848445847
20
94.488318265726647
30
0
40
2.5000000000005445
210
0
220
-0
230
1
100
AcDbArc
50
17.457603123713564
51
197.45760312371277
0
ARC
5
483
100
AcDbEntity
8
0
100
AcDbCircle
10
729.73152449154441
20
95.988318265726321
30
0
40
7.5000000000016556
210
0
220
0
230
1
100
AcDbArc
50
197.4576031237138
51
350.79310377864618
0
ARC
5
484
100
AcDbEntity
8
0
100
AcDbCircle
10
742.07048717079942
20
93.988318265725212
30
0
40
5.0000000000000888
210
0
220
-0
230
1
100
AcDbArc
50
89.999999999994785
51
170.79310377865698
0
ARC
5
485
100
AcDbEntity
8
0
100
AcDbCircle
10
728.23152449154554
20
93.988318265723024
30
0
40
5.0000000000027001
210
0
220
-0
230
1
100
AcDbArc
50
53.130102354212845
51
89.999932794113647
0
ARC
5
486
100
AcDbEntity
8
0
100
AcDbCircle
10
729.73152449154441
20
95.988318265726321
30
0
40
2.5000000000005658
210
0
220
0
230
1
100
AcDbArc
50
-162.54239687628487
51
53.13010235420353
0
LINE
5
487
100
AcDbEntity
8
0
100
AcDbLine
10
728.23153035636551
20
98.98831825266447
30
0
11
689.33684217079986
21
98.988318255719719
31
0
0
ARC
5
488
100
AcDbEntity
8
0
100
AcDbCircle
10
487.60185680540155
20
314.48831826574451
30
0
40
2.4999999999999827
210
0
220
0
230
1
100
AcDbArc
50
-17.457603123722198
51
162.54239687627944
0
ARC
5
489
100
AcDbEntity
8
0
100
AcDbCircle
10
482.83216079831618
20
315.98831826574479
30
0
40
2.5000000000006253
210
0
220
0
230
1
100
AcDbArc
50
126.86989764582293
51
342.54239687627467
0
ARC
5
490
100
AcDbEntity
8
0
100
AcDbCircle
10
484.3321607983151
20
313.98831826574468
30
0
40
5.0000000000000355
210
0
220
-0
230
1
100
AcDbArc
50
89.999999999996092
51
126.8698976458228
0
ARC
5
491
100
AcDbEntity
8
0
100
AcDbCircle
10
470.4931981190623
20
313.9883182657457
30
0
40
5.0000000000000604
210
0
220
-0
230
1
100
AcDbArc
50
9.2068962213413421
51
89.999999999996092
0
ARC
5
492
100
AcDbEntity
8
0
100
AcDbCircle
10
482.83216079831618
20
315.98831826574479
30
0
40
7.500000000000596
210
0
220
0
230
1
100
AcDbArc
50
189.20689622134105
51
342.54239687627734
0
ARC
5
493
100
AcDbEntity
8
0
100
AcDbCircle
10
407.601856805343
20
167.82165159908385
30
0
40
2.4999999999994387
210
0
220
0
230
1
100
AcDbArc
50
-17.457603124241164
51
162.54239687575986
0
ARC
5
494
100
AcDbEntity
8
0
100
AcDbCircle
10
402.83216079825718
20
169.32165159908413
30
0
40
2.5000000000006821
210
0
220
0
230
1
100
AcDbArc
50
126.86989764580012
51
342.54239687679734
0
ARC
5
495
100
AcDbEntity
8
0
100
AcDbCircle
10
404.33216079820903
20
167.32165159900455
30
0
40
5.0000000000872182
210
0
220
0
230
1
100
AcDbArc
50
90.000100611936986
51
126.86989764483354
0
ARC
5
496
100
AcDbEntity
8
0
100
AcDbCircle
10
390.49319811900853
20
167.32165159908502
30
0
40
5.0000000000001172
210
0
220
-0
230
1
100
AcDbArc
50
9.2068962213448806
51
89.999999999995438
0
ARC
5
497
100
AcDbEntity
8
0
100
AcDbCircle
10
402.83216079825718
20
169.32165159908413
30
0
40
7.4999999999954303
210
0
220
0
230
1
100
AcDbArc
50
189.20689622134529
51
342.54239687610533
0
ARC
5
498
100
AcDbEntity
8
0
100
AcDbCircle
10
420.33550180538265
20
94.488318265749484
30
0
40
2.5000000000345377
210
0
220
0
230
1
100
AcDbArc
50
-17.457603123791355
51
162.54239687620864
0
ARC
5
499
100
AcDbEntity
8
0
100
AcDbCircle
10
415.56580579829676
20
95.988318265749825
30
0
40
2.4999999999805986
210
0
220
0
230
1
100
AcDbArc
50
126.87585508633437
51
342.54239687634765
0
ARC
5
500
100
AcDbEntity
8
0
100
AcDbCircle
10
417.06601374418403
20
93.988474242018668
30
0
40
5.0000000000359375
210
0
220
0
230
1
100
AcDbArc
50
90.452567195584962
51
126.87585508739681
0
ARC
5
501
100
AcDbEntity
8
0
100
AcDbCircle
10
403.22684311904572
20
93.988318265751545
30
0
40
5.0000000000001545
210
0
220
-0
230
1
100
AcDbArc
50
9.2068962213171712
51
89.999999999996092
0
ARC
5
502
100
AcDbEntity
8
0
100
AcDbCircle
10
415.56580579829676
20
95.988318265749825
30
0
40
7.4999999999975717
210
0
220
0
230
1
100
AcDbArc
50
189.2068962213545
51
342.542396876255
0
LINE
5
503
100
AcDbEntity
8
0
100
AcDbLine
10
508.69413299299504
20
98.988318266959766
30
0
11
417.0265202166118
21
98.988318266966672
31
0
0
LINE
5
504
100
AcDbEntity
8
0
100
AcDbLine
10
403.22684311904607
20
98.98831826696771
30
0
11
364.33215493348058
21
98.988318266970637
31
0
0
ARC
5
505
100
AcDbEntity
8
0
100
AcDbCircle
10
479.03914447392515
20
241.15498493241176
30
0
40
2.5000000006064074
210
0
220
0
230
1
100
AcDbArc
50
-17.457603120972163
51
162.54239687902748
0
ARC
5
506
100
AcDbEntity
8
0
100
AcDbCircle
10
474.26944846620222
20
242.65498493241211
30
0
40
2.5000000000284217
210
0
220
0
230
1
100
AcDbArc
50
126.86989764603292
51
342.54239687790886
0
ARC
5
507
100
AcDbEntity
8
0
100
AcDbCircle
10
475.76944846629669
20
240.65498493229512
30
0
40
5.0000000001175939
210
0
220
-0
230
1
100
AcDbArc
50
89.999971869829793
51
126.86989764600023
0
ARC
5
508
100
AcDbEntity
8
0
100
AcDbCircle
10
461.93048578572348
20
240.65498493241293
30
0
40
4.9999999999700817
210
0
220
-0
230
1
100
AcDbArc
50
9.2068962197456976
51
89.999999999996092
0
ARC
5
509
100
AcDbEntity
8
0
100
AcDbCircle
10
474.26944846620222
20
242.65498493241211
30
0
40
7.5000000012397159
210
0
220
0
230
1
100
AcDbArc
50
189.20689622090831
51
342.5423968786547
0
LINE
5
510
100
AcDbEntity
8
0
100
AcDbLine
10
524.80506099404056
20
245.65498484083474
30
0
11
475.76945092111714
21
245.65498484083844
31
0
0
ARC
5
511
100
AcDbEntity
8
0
100
AcDbCircle
10
676.99787949154882
20
95.988318265730129
30
0
40
7.5000000000356559
210
0
220
0
230
1
100
AcDbArc
50
197.45760312373642
51
350.79310377863726
0
ARC
5
512
100
AcDbEntity
8
0
100
AcDbCircle
10
689.33684217079963
20
93.98831826573003
30
0
40
4.9999999999996625
210
0
220
-0
230
1
100
AcDbArc
50
89.999999999996092
51
170.79310377867415
0
ARC
5
513
100
AcDbEntity
8
0
100
AcDbCircle
10
675.49767154566121
20
93.988474241999228
30
0
40
5.0000000000119265
210
0
220
-0
230
1
100
AcDbArc
50
53.124144912594204
51
89.547432839247676
0
ARC
5
514
100
AcDbEntity
8
0
100
AcDbCircle
10
676.99787949154882
20
95.988318265730129
30
0
40
2.5000000000008478
210
0
220
0
230
1
100
AcDbArc
50
-162.5423968762866
51
53.12414491365741
0
ARC
5
515
100
AcDbEntity
8
0
100
AcDbCircle
10
672.22818348446276
20
94.488318265730626
30
0
40
2.5000000000002149
210
0
220
-0
230
1
100
AcDbArc
50
17.45760312371079
51
197.45760312378505
0
ARC
5
516
100
AcDbEntity
8
0
100
AcDbCircle
10
618.29423682366541
20
242.65498493240131
30
0
40
7.5000000012153514
210
0
220
0
230
1
100
AcDbArc
50
197.45760312151427
51
350.7931037790828
0
ARC
5
517
100
AcDbEntity
8
0
100
AcDbCircle
10
630.63319950414393
20
240.65498493240025
30
0
40
5.0000000000001066
210
0
220
-0
230
1
100
AcDbArc
50
89.999999999996092
51
170.79310378024601
0
ARC
5
518
100
AcDbEntity
8
0
100
AcDbCircle
10
616.79423682357071
20
240.65498493228449
30
0
40
5.0000000001787441
210
0
220
-0
230
1
100
AcDbArc
50
53.130102353990594
51
90.000028130162391
0
ARC
5
519
100
AcDbEntity
8
0
100
AcDbCircle
10
618.29423682366541
20
242.65498493240131
30
0
40
2.4999999999991034
210
0
220
0
230
1
100
AcDbArc
50
-162.54239687844893
51
53.13010235395523
0
ARC
5
520
100
AcDbEntity
8
0
100
AcDbCircle
10
613.52454081594226
20
241.15498493240167
30
0
40
2.5000000006097922
210
0
220
-0
230
1
100
AcDbArc
50
17.457603121495488
51
197.45760312149625
0
CIRCLE
5
521
100
AcDbEntity
8
0
100
AcDbCircle
10
569.52702848702734
20
250.65498484909386
30
0
40
1.0000000000000142
210
0
220
0
230
1
0
CIRCLE
5
522
100
AcDbEntity
8
0
100
AcDbCircle
10
589.78722588187861
20
264.45940473295957
30
0
40
1.0000000000000142
210
0
220
0
230
1
0
CIRCLE
5
523
100
AcDbEntity
8
0
100
AcDbCircle
10
592.77221480171613
20
250.6549848490921
30
0
40
1.0000000000000142
210
0
220
0
230
1
0
CIRCLE
5
524
100
AcDbEntity
8
0
100
AcDbCircle
10
592.23162897432007
20
323.98831801197628
30
0
40
1.0000000000000142
210
0
220
0
230
1
0
CIRCLE
5
525
100
AcDbEntity
8
0
100
AcDbCircle
10
605.36330019942272
20
192.42608205361006
30
0
40
1.0000000000000142
210
0
220
0
230
1
0
CIRCLE
5
526
100
AcDbEntity
8
0
100
AcDbCircle
10
616.0174006328682
20
250.65498484909034
30
0
40
1.0000000000000142
210
0
220
0
230
1
0
CIRCLE
5
527
100
AcDbEntity
8
0
100
AcDbCircle
10
573.4305611285065
20
214.55032540829336
30
0
40
1.0000000000000142
210
0
220
0
230
1
0
CIRCLE
5
528
100
AcDbEntity
8
0
100
AcDbCircle
10
577.45561899348547
20
177.32165159295499
30
0
40
1.0000000000000142
210
0
220
0
230
1
0
CIRCLE
5
529
100
AcDbEntity
8
0
100
AcDbCircle
10
576.91503364098662
20
323.98831801323894
30
0
40
1.0000000000000142
210
0
220
0
230
1
0
CIRCLE
5
530
100
AcDbEntity
8
0
100
AcDbCircle
10
702.0704871696455
20
174.8216515844527
30
0
40
1.0000000000000142
210
0
220
0
230
1
0
CIRCLE
5
531
100
AcDbEntity
8
0
100
AcDbCircle
10
639.80317232517814
20
177.32165158805745
30
0
40
1.0000000000000142
210
0
220
0
230
1
0
CIRCLE
5
532
100
AcDbEntity
8
0
100
AcDbCircle
10
662.07048720533191
20
248.15498483173772
30
0
40
1.0000000000000142
210
0
220
0
230
1
0
CIRCLE
5
533
100
AcDbEntity
8
0
100
AcDbCircle
10
565.72091531747583
20
285.85858947926272
30
0
40
1.0000000000000142
210
0
220
0
230
1
0
CIRCLE
5
534
100
AcDbEntity
8
0
100
AcDbCircle
10
608.62939598262483
20
177.32165159050624
30
0
40
1.0000000000000142
210
0
220
0
230
1
0
CIRCLE
5
535
100
AcDbEntity
8
0
100
AcDbCircle
10
561.5984379899794
20
323.98831801450143
30
0
40
1.0000000000000142
210
0
220
0
230
1
0
CIRCLE
5
536
100
AcDbEntity
8
0
100
AcDbCircle
10
622.07048728053212
20
321.48831801197412
30
0
40
1.0000000000000142
210
0
220
0
230
1
0
CIRCLE
5
537
100
AcDbEntity
8
0
100
AcDbCircle
10
558.49642524357739
20
131.78972732794935
30
0
40
1.0000000000000142
210
0
220
0
230
1
0
CIRCLE
5
538
100
AcDbEntity
8
0
100
AcDbCircle
10
500.33205633897205
20
323.98831801558919
30
0
40
0.99999999999999645
210
0
220
0
230
1
0
CIRCLE
5
539
100
AcDbEntity
8
0
100
AcDbCircle
10
515.64865167230539
20
323.98831801564745
30
0
40
1.0000000000000142
210
0
220
0
230
1
0
CIRCLE
5
540
100
AcDbEntity
8
0
100
AcDbCircle
10
518.4362259461725
20
336.87977147013214
30
0
40
1.0000000000000142
210
0
220
0
230
1
0
CIRCLE
5
541
100
AcDbEntity
8
0
100
AcDbCircle
10
534.1951339167166
20
353.86227222838335
30
0
40
1.0000000000000142
210
0
220
0
230
1
0
CIRCLE
5
542
100
AcDbEntity
8
0
100
AcDbCircle
10
526.84276999281815
20
285.85858948079118
30
0
40
1.0000000000000142
210
0
220
0
230
1
0
CIRCLE
5
543
100
AcDbEntity
8
0
100
AcDbCircle
10
502.77645942673291
20
264.45940473638029
30
0
40
0.99999999999999645
210
0
220
0
230
1
0
CIRCLE
5
544
100
AcDbEntity
8
0
100
AcDbCircle
10
476.54628467465784
20
250.65498485457346
30
0
40
0.99999999999999645
210
0
220
0
230
1
0
CIRCLE
5
545
100
AcDbEntity
8
0
100
AcDbCircle
10
519.1331241761809
20
214.55032541042797
30
0
40
1.0000000000000142
210
0
220
0
230
1
0
CIRCLE
5
546
100
AcDbEntity
8
0
100
AcDbCircle
10
487.20038510352492
20
192.42608205825545
30
0
40
0.99999999999999645
210
0
220
0
230
1
0
CIRCLE
5
547
100
AcDbEntity
8
0
100
AcDbCircle
10
452.76051297658199
20
177.3216515954108
30
0
40
0.99999999999999645
210
0
220
0
230
1
0
CIRCLE
5
548
100
AcDbEntity
8
0
100
AcDbCircle
10
428.97474125699807
20
103.98831826696578
30
0
40
0.99999999999999645
210
0
220
0
230
1
0
CIRCLE
5
549
100
AcDbEntity
8
0
100
AcDbCircle
10
471.45743039599495
20
119.62100211170174
30
0
40
0.99999999999999645
210
0
220
0
230
1
0
CIRCLE
5
550
100
AcDbEntity
8
0
100
AcDbCircle
10
511.27567836920389
20
141.8750256865705
30
0
40
1.0000000000000142
210
0
220
0
230
1
0
CIRCLE
5
551
100
AcDbEntity
8
0
100
AcDbCircle
10
532.07452557401166
20
77.321651600040809
30
0
40
1.0000000000000142
210
0
220
0
230
1
0
CIRCLE
5
552
100
AcDbEntity
8
0
100
AcDbCircle
10
534.06726005460268
20
131.78972732890975
30
0
40
1.0000000000000142
210
0
220
0
230
1
0
CIRCLE
5
553
100
AcDbEntity
8
0
100
AcDbCircle
10
470.49319803256344
20
321.48831801793312
30
0
40
0.99999999999999645
210
0
220
0
230
1
0
CIRCLE
5
554
100
AcDbEntity
8
0
100
AcDbCircle
10
430.49319810199762
20
248.15498484084185
30
0
40
0.99999999999999645
210
0
220
0
230
1
0
CIRCLE
5
555
100
AcDbEntity
8
0
100
AcDbCircle
10
390.49319813187674
20
174.8216515967687
30
0
40
0.99999999999999645
210
0
220
0
230
1
0
CIRCLE
5
556
100
AcDbEntity
8
0
100
AcDbCircle
10
533.05013533114413
20
103.98831825879044
30
0
40
1.0000000000000142
210
0
220
0
230
1
0
CIRCLE
5
557
100
AcDbEntity
8
0
100
AcDbCircle
10
535.73306216417518
20
177.32165159540455
30
0
40
1.0000000000000142
210
0
220
0
230
1
0
CIRCLE
5
558
100
AcDbEntity
8
0
100
AcDbCircle
10
537.75435213304047
20
232.57024400270871
30
0
40
1.0000000000000142
210
0
220
0
230
1
0
CIRCLE
5
559
100
AcDbEntity
8
0
100
AcDbCircle
10
558.36855139892452
20
353.86227222743315
30
0
40
1.0000000000000142
210
0
220
0
230
1
0
CIRCLE
5
560
100
AcDbEntity
8
0
100
AcDbCircle
10
574.12745936813326
20
336.87977146794276
30
0
40
1.0000000000000142
210
0
220
0
230
1
0
CIRCLE
5
561
100
AcDbEntity
8
0
100
AcDbCircle
10
581.28800692976915
20
141.87502568381805
30
0
40
1.0000000000000142
210
0
220
0
230
1
0
CIRCLE
5
562
100
AcDbEntity
8
0
100
AcDbCircle
10
621.10625490122834
20
119.62100210581852
30
0
40
1.0000000000000142
210
0
220
0
230
1
0
CIRCLE
5
563
100
AcDbEntity
8
0
100
AcDbCircle
10
742.07048717075497
20
101.48831825343991
30
0
40
1.0000000000000142
210
0
220
0
230
1
0
CIRCLE
5
564
100
AcDbEntity
8
0
100
AcDbCircle
10
663.58894403899603
20
103.98831825774224
30
0
40
1.0000000000000142
210
0
220
0
230
1
0
CIRCLE
5
565
100
AcDbEntity
8
0
100
AcDbCircle
10
624.48657717969365
20
103.98831825774521
30
0
40
1.0000000000000142
210
0
220
0
230
1
0
CIRCLE
5
566
100
AcDbEntity
8
0
100
AcDbCircle
10
585.38420950869192
20
103.98831825774813
30
0
40
1.0000000000000142
210
0
220
0
230
1
0
CIRCLE
5
567
100
AcDbEntity
8
0
100
AcDbCircle
10
560.48915971988572
20
77.321651598923737
30
0
40
1.0000000000000142
210
0
220
0
230
1
0
CIRCLE
5
568
100
AcDbEntity
8
0
100
AcDbCircle
10
507.17947578730218
20
103.98831826082264
30
0
40
1.0000000000000142
210
0
220
0
230
1
0
CIRCLE
5
569
100
AcDbEntity
8
0
100
AcDbCircle
10
468.07710811630051
20
103.9883182638942
30
0
40
0.99999999999999645
210
0
220
0
230
1
0
CIRCLE
5
570
100
AcDbEntity
8
0
100
AcDbCircle
10
523.03665682049871
20
250.65498485092161
30
0
40
1.0000000000000142
210
0
220
0
230
1
0
CIRCLE
5
571
100
AcDbEntity
8
0
100
AcDbCircle
10
499.79147050580997
20
250.65498485274753
30
0
40
0.99999999999999645
210
0
220
0
230
1
0
CIRCLE
5
572
100
AcDbEntity
8
0
100
AcDbCircle
10
350.49319812504245
20
101.48831826883423
30
0
40
1.0000000000000004
210
0
220
0
230
1
0
CIRCLE
5
573
100
AcDbEntity
8
0
100
AcDbCircle
10
530.96524732331272
20
323.98831801570572
30
0
40
1.0000000000000142
210
0
220
0
230
1
0
CIRCLE
5
574
100
AcDbEntity
8
0
100
AcDbCircle
10
483.93428931913525
20
177.32165159540844
30
0
40
0.99999999999999645
210
0
220
0
230
1
0
CIRCLE
5
575
100
AcDbEntity
8
0
100
AcDbCircle
10
515.1080663082746
20
177.32165159540611
30
0
40
1.0000000000000142
210
0
220
0
230
1
0
CIRCLE
5
576
100
AcDbEntity
8
0
100
AcDbCircle
10
535.08438477810569
20
159.59113640024583
30
0
40
1.0000000000000142
210
0
220
0
230
1
0
CIRCLE
5
577
100
AcDbEntity
8
0
100
AcDbCircle
10
536.74370714860788
20
204.94594779905665
30
0
40
1.0000000000000142
210
0
220
0
230
1
0
CIRCLE
5
578
100
AcDbEntity
8
0
100
AcDbCircle
10
542.67163059447103
20
366.97585509932082
30
0
40
1.0000000000000142
210
0
220
0
230
1
0
CIRCLE
5
579
100
AcDbEntity
8
0
100
AcDbCircle
10
557.47930052226025
20
159.59113639936544
30
0
40
1.0000000000000142
210
0
220
0
230
1
0
CIRCLE
5
580
100
AcDbEntity
8
0
100
AcDbCircle
10
559.51354996484997
20
103.98831825775007
30
0
40
1.0000000000000142
210
0
220
0
230
1
0
CIRCLE
5
581
100
AcDbEntity
8
0
100
AcDbCircle
10
554.80933317306369
20
232.57024400203821
30
0
40
1.0000000000000142
210
0
220
0
230
1
0
CIRCLE
5
582
100
AcDbEntity
8
0
100
AcDbCircle
10
556.83062313758501
20
177.32165159457512
30
0
40
1.0000000000000142
210
0
220
0
230
1
0
CIRCLE
5
583
100
AcDbEntity
8
0
100
AcDbCircle
10
555.81997815532429
20
204.94594779830666
30
0
40
1.0000000000000142
210
0
220
0
230
1
0
CIRCLE
5
584
100
AcDbEntity
8
0
100
AcDbCircle
10
554.14769631333104
20
250.65498484909506
30
0
40
1.0000000000000142
210
0
220
0
230
1
0
CIRCLE
5
585
100
AcDbEntity
8
0
100
AcDbCircle
10
553.16209703340064
20
277.59469852192126
30
0
40
1.0000000000000142
210
0
220
0
230
1
0
CIRCLE
5
586
100
AcDbEntity
8
0
100
AcDbCircle
10
552.17649775347036
20
304.53441219474746
30
0
40
1.0000000000000142
210
0
220
0
230
1
0
CIRCLE
5
587
100
AcDbEntity
8
0
100
AcDbCircle
10
540.38718755829211
20
304.5344121952109
30
0
40
1.0000000000000142
210
0
220
0
230
1
0
CIRCLE
5
588
100
AcDbEntity
8
0
100
AcDbCircle
10
539.40158827624361
20
277.59469852246224
30
0
40
1.0000000000000142
210
0
220
0
230
1
0
CIRCLE
5
589
100
AcDbEntity
8
0
100
AcDbCircle
10
538.41598899419512
20
250.65498484971351
30
0
40
1.0000000000000142
210
0
220
0
230
1
0
CIRCLE
5
590
100
AcDbEntity
8
0
100
AcDbCircle
10
541.88527320772801
20
345.48208655753257
30
0
40
1.0000000000000142
210
0
220
0
230
1
0
CIRCLE
5
591
100
AcDbEntity
8
0
100
AcDbCircle
10
541.09891582098521
20
323.98831801574431
30
0
40
1.0000000000000142
210
0
220
0
230
1
0
CIRCLE
5
592
100
AcDbEntity
8
0
100
AcDbCircle
10
550.67841210725396
20
345.48208655718679
30
0
40
1.0000000000000142
210
0
220
0
230
1
0
CIRCLE
5
593
100
AcDbEntity
8
0
100
AcDbCircle
10
551.4647694923068
20
323.9883180153368
30
0
40
1.0000000000000142
210
0
220
0
230
1
0
CIRCLE
5
594
100
AcDbEntity
8
0
100
AcDbCircle
10
549.89205472220101
20
366.97585509903706
30
0
40
1.0000000000000142
210
0
220
0
230
1
0
ARC
5
595
100
AcDbEntity
8
0
100
AcDbCircle
10
445.05102388801117
20
420.7805421589955
30
0
40
100.00000000009784
210
-0
220
0
230
1
100
AcDbArc
50
284.37198903814391
51
343.46572277919563
0
ARC
5
596
100
AcDbEntity
8
0
100
AcDbCircle
10
470.49319803256344
20
321.48831801793312
30
0
40
2.5000000002957599
210
0
220
0
230
1
100
AcDbArc
50
104.37198901093751
51
269.99999999549897
0
LINE
5
597
100
AcDbEntity
8
0
100
AcDbLine
10
530.17091464561508
20
318.98831801792886
30
0
11
484.33216079831544
21
318.98831801793216
31
0
0
ARC
5
598
100
AcDbEntity
8
0
100
AcDbCircle
10
530.17091464561474
20
313.98831801792875
30
0
40
5.0000000000000719
210
-0
220
0
230
1
100
AcDbArc
50
-29.326002662039507
51
89.999999999996092
0
ARC
5
599
100
AcDbEntity
8
0
100
AcDbCircle
10
430.49319811156778
20
369.98434171455119
30
0
40
119.32935687425207
210
0
220
0
230
1
100
AcDbArc
50
269.99999999549919
51
330.67399733052133
0
ARC
5
600
100
AcDbEntity
8
0
100
AcDbCircle
10
430.49319810199762
20
248.15498484084185
30
0
40
2.5
210
0
220
0
230
1
100
AcDbArc
50
90.000000017084332
51
270.00000001708435
0
LINE
5
601
100
AcDbEntity
8
0
100
AcDbLine
10
461.93048578572387
20
245.65498484083946
30
0
11
444.33216022286854
21
245.65498484084077
31
0
0
ARC
5
602
100
AcDbEntity
8
0
100
AcDbCircle
10
524.8050609940401
20
240.65498484083474
30
0
40
5.0000000000000018
210
-0
220
0
230
1
100
AcDbArc
50
-43.048173600000645
51
89.999999999994785
0
ARC
5
603
100
AcDbEntity
8
0
100
AcDbCircle
10
390.4931982100278
20
366.11411688992888
30
0
40
188.79246529448199
210
0
220
0
230
1
100
AcDbArc
50
269.99999997634797
51
316.95182639948609
0
ARC
5
604
100
AcDbEntity
8
0
100
AcDbCircle
10
390.49319813187674
20
174.8216515967687
30
0
40
2.4999999964667197
210
0
220
-0
230
1
100
AcDbArc
50
89.999999995040412
51
269.99999999504303
0
LINE
5
605
100
AcDbEntity
8
0
100
AcDbLine
10
433.47520111900894
20
172.3216515969257
30
0
11
404.3321520181612
21
172.32165159908405
31
0
0
ARC
5
606
100
AcDbEntity
8
0
100
AcDbCircle
10
519.43920733716845
20
167.32165159017308
30
0
40
4.9999999999999867
210
-0
220
0
230
1
100
AcDbArc
50
-51.902669843570202
51
89.999999995498982
0
ARC
5
607
100
AcDbEntity
8
0
100
AcDbCircle
10
350.49319814694451
20
382.80716232388266
30
0
40
278.81884405196911
210
0
220
0
230
1
100
AcDbArc
50
269.99999999549931
51
308.09733016606674
0
ARC
5
608
100
AcDbEntity
8
0
100
AcDbCircle
10
350.49319812504245
20
101.48831826883423
30
0
40
2.5000000018625457
210
0
220
-0
230
1
100
AcDbArc
50
89.999999999994785
51
269.99999999999483
0
ARC
5
609
100
AcDbEntity
8
0
100
AcDbCircle
10
508.69413299299424
20
88.988318266959766
30
0
40
9.9999999999999662
210
-0
220
0
230
1
100
AcDbArc
50
-4.1849161270343496
51
89.999999999995438
0
LINE
5
610
100
AcDbEntity
8
0
100
AcDbLine
10
518.32722452634789
20
83.608537284300496
30
0
11
518.66747022888546
21
88.258561883510481
31
0
0
ARC
5
611
100
AcDbEntity
8
0
100
AcDbCircle
10
421.28184264491767
20
25.6549849337203
30
0
40
30.000000000000242
210
0
220
0
230
1
100
AcDbArc
50
101.58610287146335
51
168.46304096717992
0
ARC
5
612
100
AcDbEntity
8
0
100
AcDbCircle
10
396.7869452170861
20
30.654984933722368
30
0
40
5.0000000000000302
210
0
220
0
230
1
100
AcDbArc
50
168.46304096718046
51
269.99999999999545
0
LINE
5
613
100
AcDbEntity
8
0
100
AcDbLine
10
544.7818426485585
20
25.654984933828935
30
0
11
396.78694521708564
21
25.654984945454181
31
0
0
ARC
5
614
100
AcDbEntity
8
0
100
AcDbCircle
10
695.77674007314215
20
30.654984921968001
30
0
40
4.9999999999999645
210
0
220
0
230
1
100
AcDbArc
50
-90.000000004501018
51
11.536959028313838
0
ARC
5
615
100
AcDbEntity
8
0
100
AcDbCircle
10
671.28184264491756
20
25.654984923892009
30
0
40
30.000000000000103
210
0
220
-0
230
1
100
AcDbArc
50
11.536959028314824
51
78.413897132290984
0
LINE
5
616
100
AcDbEntity
8
0
100
AcDbLine
10
573.89621506587173
20
88.258561881338963
30
0
11
574.23646076785974
21
83.608537284615622
31
0
0
ARC
5
617
100
AcDbEntity
8
0
100
AcDbCircle
10
583.86955230182036
20
88.988318264004334
30
0
40
10
210
0
220
-0
230
1
100
AcDbArc
50
89.999999995498982
51
184.18491612253086
0
LINE
5
618
100
AcDbEntity
8
0
100
AcDbLine
10
675.53716507019362
20
98.988318256803694
30
0
11
583.86955230260594
21
98.988318264004334
31
0
0
ARC
5
619
100
AcDbEntity
8
0
100
AcDbCircle
10
742.07048717075497
20
101.48831825343991
30
0
40
2.5000000042963855
210
0
220
0
230
1
100
AcDbArc
50
-90.000000004499697
51
89.999999995495074
0
ARC
5
620
100
AcDbEntity
8
0
100
AcDbCircle
10
742.07048717097234
20
382.80716230848884
30
0
40
278.81884405075249
210
0
220
0
230
1
100
AcDbArc
50
231.90266982942828
51
269.99999999999574
0
ARC
5
621
100
AcDbEntity
8
0
100
AcDbCircle
10
573.12447796380536
20
167.32165158806251
30
0
40
5.0000000008868284
210
0
220
-0
230
1
100
AcDbArc
50
89.999999999994785
51
231.90266983906665
0
LINE
5
622
100
AcDbEntity
8
0
100
AcDbLine
10
645.24951979226387
20
172.32165158805711
30
0
11
573.12447796380582
21
172.32165158894932
31
0
0
ARC
5
623
100
AcDbEntity
8
0
100
AcDbCircle
10
702.0704871696455
20
174.8216515844527
30
0
40
2.4999999971286968
210
0
220
0
230
1
100
AcDbArc
50
-90.000000014481444
51
89.987736881300194
0
ARC
5
624
100
AcDbEntity
8
0
100
AcDbCircle
10
702.07048710657648
20
366.11411687767969
30
0
40
188.79246529573049
210
0
220
0
230
1
100
AcDbArc
50
223.04817359600301
51
270.00016240801824
0
ARC
5
625
100
AcDbEntity
8
0
100
AcDbCircle
10
567.75862431269968
20
240.65498483914607
30
0
40
4.9999999999818812
210
0
220
-0
230
1
100
AcDbArc
50
89.999999995498982
51
223.04817359527226
0
LINE
5
626
100
AcDbEntity
8
0
100
AcDbLine
10
616.79423436875095
20
245.65498483530365
30
0
11
567.75862431309247
21
245.65498483912793
31
0
0
ARC
5
627
100
AcDbEntity
8
0
100
AcDbCircle
10
662.07048720533191
20
248.15498483173772
30
0
40
2.5
210
0
220
0
230
1
100
AcDbArc
50
-90.000000008978574
51
89.999999991018811
0
ARC
5
628
100
AcDbEntity
8
0
100
AcDbCircle
10
662.0704872053409
20
369.98434172279616
30
0
40
119.32935689105845
210
0
220
0
230
1
100
AcDbArc
50
209.32600267223629
51
270.00000000018383
0
ARC
5
629
100
AcDbEntity
8
0
100
AcDbCircle
10
562.39277066689112
20
313.98831801666199
30
0
40
5.0000000000244071
210
0
220
-0
230
1
100
AcDbArc
50
89.999999995500289
51
209.32600265753362
0
ARC
5
630
100
AcDbEntity
8
0
100
AcDbCircle
10
622.07048728053212
20
321.48831801197412
30
0
40
2.5000000009499246
210
0
220
0
230
1
100
AcDbArc
50
-90.000000000005201
51
75.628010984557434
0
ARC
5
631
100
AcDbEntity
8
0
100
AcDbCircle
10
647.51266143289149
20
420.78054215161052
30
0
40
100.00000000000021
210
0
220
0
230
1
100
AcDbArc
50
196.53427721661498
51
255.62801095743276
0
ARC
5
632
100
AcDbEntity
8
0
100
AcDbCircle
10
546.28184265926996
20
390.72872067430615
30
0
40
5.597304149687071
210
0
220
-0
230
1
100
AcDbArc
50
16.534277202658359
51
163.4657227928362
0
LWPOLYLINE
5
633
100
AcDbEntity
8
0
100
AcDbPolyline
90
6
70
1
43
0.0
10
503.2923067102663
20
409.96028272055025
10
498.65778040501027
20
422.9710500607556
42
0.72912595495249466
10
492.1867294558246
20
422.76771433931407
10
489.01752580094706
20
411.72026448905848
42
0.49431627225980779
10
491.85980113857278
20
407.89330099585641
10
501.78868964420565
20
407.7562261964257
42
0.53719539869914024
0
CIRCLE
5
634
100
AcDbEntity
8
0
100
AcDbCircle
10
499.08683358744531
20
414.70211288648238
30
0
40
1.0000000000000002
210
0
220
0
230
1
0
LWPOLYLINE
5
635
100
AcDbEntity
8
0
100
AcDbPolyline
90
4
70
1
43
0.0
10
490.9501576379219
20
411.20203213697005
10
492.03171711823416
20
414.5307299440031
42
-0.99999999999999989
10
493.93383015082452
20
413.91269595525324
10
492.8522706705121
20
410.58399814822019
42
-0.99999999999999989
0
CIRCLE
5
636
100
AcDbEntity
8
0
100
AcDbCircle
10
495.45490958952894
20
421.83016507998934
30
0
40
1.5000000000000004
210
0
220
0
230
1
0
LWPOLYLINE
5
637
100
AcDbEntity
8
0
100
AcDbPolyline
90
6
70
1
43
0.0
10
500.79085571717627
20
423.34048778954059
10
505.42538202242793
20
410.32972044933376
42
0.72912595495249466
10
511.89643297161359
20
410.53305617077314
10
515.06563662649478
20
421.58050602102765
42
0.4943162722598119
10
512.22336128887048
20
425.40746951423068
10
502.29447278323761
20
425.54454431366469
42
0.53719539869915112
0
CIRCLE
5
638
100
AcDbEntity
8
0
100
AcDbCircle
10
504.99632883999561
20
418.59865762360704
30
0
40
1.0000000000000002
210
0
220
0
230
1
0
LWPOLYLINE
5
639
100
AcDbEntity
8
0
100
AcDbPolyline
90
4
70
1
43
0.0
10
513.13300478952021
20
422.09873837311676
10
512.05144530920677
20
418.77004056608399
42
-0.99999999999999989
10
510.14933227661675
20
419.38807455483459
10
511.23089175693019
20
422.71677236186719
42
-0.99999999999999989
0
CIRCLE
5
640
100
AcDbEntity
8
0
100
AcDbCircle
10
508.6282528379096
20
411.47060543009894
30
0
40
1.5000000000000004
210
0
220
0
230
1
0
LWPOLYLINE
5
641
100
AcDbEntity
8
0
100
AcDbPolyline
90
6
70
1
43
0.0
10
528.34887352489818
20
410.53962530585898
10
523.71434721964215
20
423.55039264606432
42
0.72912595495249466
10
517.24329627045654
20
423.34705692462279
10
514.07409261557893
20
412.29960707436715
42
0.49431627225980579
10
516.91636795320471
20
408.47264358116513
10
526.84525645883764
20
408.33556878173431
42
0.53719539869914545
0
CIRCLE
5
642
100
AcDbEntity
8
0
100
AcDbCircle
10
524.1434004020773
20
415.28145547179111
30
0
40
1.0000000000000004
210
0
220
0
230
1
0
LINE
5
643
100
AcDbEntity
8
0
100
AcDbLine
10
517.08828393286603
20
415.11007252931176
30
0
11
516.00672445255373
21
411.78137472227877
31
0
0
ARC
5
644
100
AcDbEntity
8
0
100
AcDbCircle
10
518.03934044916127
20
414.80105553493684
30
0
40
1.000000000000008
210
-0
220
0
230
1
100
AcDbArc
50
-17.999999999999492
51
162.00000000000256
0
LINE
5
645
100
AcDbEntity
8
0
100
AcDbLine
10
517.90883748514409
20
411.16334073352891
30
0
11
518.9903969654564
21
414.49203854056191
31
0
0
ARC
5
646
100
AcDbEntity
8
0
100
AcDbCircle
10
516.95778096884897
20
411.47235772790384
30
0
40
1.000000000000008
210
0
220
0
230
1
100
AcDbArc
50
162.00000000000256
51
342.00000000000051
0
CIRCLE
5
647
100
AcDbEntity
8
0
100
AcDbCircle
10
520.51147640416093
20
422.40950766529807
30
0
40
1.5000000000000004
210
0
220
0
230
1
0
LWPOLYLINE
5
648
100
AcDbEntity
8
0
100
AcDbPolyline
90
6
70
1
43
0.0
10
525.84742253180832
20
423.91983037484931
10
530.48194883705992
20
410.90906303464243
42
0.72912595495248922
10
536.95299978624564
20
411.11239875608192
10
540.12220344112689
20
422.15984860633637
42
0.4943162722598119
10
537.27992810350247
20
425.98681209953946
10
527.35103959786966
20
426.12388689897352
42
0.53719539869915089
0
CIRCLE
5
649
100
AcDbEntity
8
0
100
AcDbCircle
10
530.0528956546276
20
419.17800020891582
30
0
40
1
210
0
220
0
230
1
0
LWPOLYLINE
5
650
100
AcDbEntity
8
0
100
AcDbPolyline
90
4
70
1
43
0.0
10
538.18957160415221
20
422.67808095842554
10
537.10801212383876
20
419.34938315139277
42
-0.99999999999999989
10
535.20589909124874
20
419.96741714014331
10
536.28745857156218
20
423.29611494717597
42
-0.99999999999999989
0
CIRCLE
5
651
100
AcDbEntity
8
0
100
AcDbCircle
10
533.68481965254159
20
412.04994801540772
30
0
40
1.5000000000000004
210
0
220
0
230
1
0
LWPOLYLINE
5
652
100
AcDbEntity
8
0
100
AcDbPolyline
90
6
70
1
43
0.0
10
553.54907384998887
20
411.23260593927631
10
548.91454754473284
20
424.24337327948166
42
0.72912595495248922
10
542.44349659554712
20
424.04003755804007
10
539.27429294066962
20
412.99258770778454
42
0.49431627225981489
10
542.11656827829529
20
409.16562421458241
10
552.04545678392822
20
409.02854941515164
42
0.53719539869912036
0
CIRCLE
5
653
100
AcDbEntity
8
0
100
AcDbCircle
10
549.34360072716788
20
415.97443610520838
30
0
40
1
210
0
220
0
230
1
0
LWPOLYLINE
5
654
100
AcDbEntity
8
0
100
AcDbPolyline
90
4
70
1
43
0.0
10
541.20692477764442
20
412.47435535569599
10
542.28848425795672
20
415.80305316272904
42
-0.99999999999999989
10
544.19059729054698
20
415.18501917397919
10
543.10903781023467
20
411.85632136694613
42
-0.99999999999999989
0
CIRCLE
5
655
100
AcDbEntity
8
0
100
AcDbCircle
10
545.71167672925151
20
423.10248829871534
30
0
40
1.5000000000000002
210
0
220
0
230
1
0
LWPOLYLINE
5
656
100
AcDbEntity
8
0
100
AcDbPolyline
90
6
70
1
43
0.0
10
551.04762285689924
20
424.61281100826636
10
555.68214916215095
20
411.60204366805954
42
0.72912595495249466
10
562.15320011133667
20
411.80537938949897
10
565.3224037662178
20
422.85282923975353
42
0.49431627225981922
10
562.48012842859328
20
426.67979273295651
10
552.55123992296046
20
426.81686753239046
42
0.53719539869913691
0
CIRCLE
5
657
100
AcDbEntity
8
0
100
AcDbCircle
10
555.25309597971852
20
419.87098084233287
30
0
40
1
210
0
220
0
230
1
0
LWPOLYLINE
5
658
100
AcDbEntity
8
0
100
AcDbPolyline
90
4
70
1
43
0.0
10
563.38977192924312
20
423.37106159184259
10
562.30821244892968
20
420.04236378480988
42
-0.99999999999999989
10
560.40609941633966
20
420.66039777356048
10
561.4876588966531
20
423.98909558059313
42
-0.99999999999999989
0
CIRCLE
5
659
100
AcDbEntity
8
0
100
AcDbCircle
10
558.88501997763262
20
412.74292864882477
30
0
40
1.5000000000000002
210
0
220
0
230
1
0
LWPOLYLINE
5
660
100
AcDbEntity
8
0
100
AcDbPolyline
90
6
70
1
43
0.0
10
578.60564066462086
20
411.81194852458503
10
573.97111435936483
20
424.82271586479038
42
0.72912595495249188
10
567.50006341017922
20
424.61938014334885
10
564.33085975530162
20
413.57193029309326
42
0.49431627225981289
10
567.1731350929274
20
409.74496679989113
10
577.10202359856021
20
409.60789200046042
42
0.53719539869912591
0
CIRCLE
5
661
100
AcDbEntity
8
0
100
AcDbCircle
10
574.40016754179987
20
416.55377869051722
30
0
40
1
210
0
220
0
230
1
0
LINE
5
662
100
AcDbEntity
8
0
100
AcDbLine
10
567.34505107258872
20
416.38239574803782
30
0
11
566.26349159227641
21
413.05369794100477
31
0
0
ARC
5
663
100
AcDbEntity
8
0
100
AcDbCircle
10
568.29610758888396
20
416.07337875366289
30
0
40
1.000000000000008
210
-0
220
0
230
1
100
AcDbArc
50
-17.999999999999492
51
162.00000000000256
0
LINE
5
664
100
AcDbEntity
8
0
100
AcDbLine
10
568.16560462486677
20
412.43566395225491
30
0
11
569.24716410517908
21
415.76436175928797
31
0
0
ARC
5
665
100
AcDbEntity
8
0
100
AcDbCircle
10
567.21454810857165
20
412.74468094662984
30
0
40
1.000000000000008
210
0
220
0
230
1
100
AcDbArc
50
162.00000000000256
51
342.00000000000051
0
CIRCLE
5
666
100
AcDbEntity
8
0
100
AcDbCircle
10
570.76824354388361
20
423.68183088402412
30
0
40
1.5000000000000002
210
0
220
0
230
1
0
LWPOLYLINE
5
667
100
AcDbEntity
8
0
100
AcDbPolyline
90
6
70
1
43
0.0
10
576.10418967153123
20
425.19215359357531
10
580.73871597678294
20
412.18138625336843
42
0.72912595495248711
10
587.20976692596855
20
412.38472197480792
10
590.3789705808498
20
423.43217182506243
42
0.4943162722598049
10
587.53669524322538
20
427.25913531826541
10
577.60780673759257
20
427.39621011769947
42
0.53719539869915089
0
CIRCLE
5
668
100
AcDbEntity
8
0
100
AcDbCircle
10
580.30966279435052
20
420.45032342764182
30
0
40
1
210
0
220
0
230
1
0
LWPOLYLINE
5
669
100
AcDbEntity
8
0
100
AcDbPolyline
90
4
70
1
43
0.0
10
588.44633874387523
20
423.95040417715154
10
587.36477926356179
20
420.62170637011883
42
-0.99999999999999989
10
585.46266623097165
20
421.23974035886937
10
586.54422571128509
20
424.56843816590197
42
-0.99999999999999989
0
CIRCLE
5
670
100
AcDbEntity
8
0
100
AcDbCircle
10
583.94158679226462
20
413.32227123413367
30
0
40
1.5000000000000002
210
0
220
0
230
1
0
LWPOLYLINE
5
671
100
AcDbEntity
8
0
100
AcDbPolyline
90
6
70
1
43
0.0
10
576.52829741110679
20
444.27700187448323
10
581.1628237163585
20
431.26623453427635
42
0.72912595495248711
10
587.63387466554411
20
431.46957025571578
10
590.80307832042536
20
442.51702010597035
42
0.4943162722598049
10
587.96080298280094
20
446.34398359917333
10
578.03191447716813
20
446.48105839860739
42
0.53719539869915089
0
CIRCLE
5
672
100
AcDbEntity
8
0
100
AcDbCircle
10
580.73377053392608
20
439.53517170854974
30
0
40
1
210
0
220
0
230
1
0
LWPOLYLINE
5
673
100
AcDbEntity
8
0
100
AcDbPolyline
90
4
70
1
43
0.0
10
588.87044648345079
20
443.0352524580594
10
587.78888700313723
20
439.70655465102675
42
-0.99999999999999989
10
585.88677397054721
20
440.32458863977729
10
586.96833345086065
20
443.65328644680983
42
-0.99999999999999989
0
CIRCLE
5
674
100
AcDbEntity
8
0
100
AcDbCircle
10
584.36569453184018
20
432.40711951504159
30
0
40
1.5000000000000002
210
0
220
0
230
1
0
LWPOLYLINE
5
675
100
AcDbEntity
8
0
100
AcDbPolyline
90
6
70
1
43
0.0
10
579.02974840419665
20
430.89679680549301
10
574.39522209894062
20
443.90756414569836
42
0.72912595495249188
10
567.92417114975501
20
443.70422842425683
10
564.75496749487752
20
432.65677857400129
42
0.49431627225981489
10
567.59724283250318
20
428.82981508079916
10
577.52613133813611
20
428.6927402813684
42
0.53719539869912591
0
CIRCLE
5
676
100
AcDbEntity
8
0
100
AcDbCircle
10
574.82427528137578
20
435.6386269714252
30
0
40
1
210
0
220
0
230
1
0
LINE
5
677
100
AcDbEntity
8
0
100
AcDbLine
10
567.76915881216462
20
435.46724402894586
30
0
11
566.68759933185231
21
432.13854622191275
31
0
0
ARC
5
678
100
AcDbEntity
8
0
100
AcDbCircle
10
568.72021532845974
20
435.15822703457093
30
0
40
1.000000000000008
210
-0
220
0
230
1
100
AcDbArc
50
-17.999999999997456
51
162.00000000000051
0
LINE
5
679
100
AcDbEntity
8
0
100
AcDbLine
10
568.58971236444268
20
431.52051223316289
30
0
11
569.67127184475498
21
434.849210040196
31
0
0
ARC
5
680
100
AcDbEntity
8
0
100
AcDbCircle
10
567.63865584814744
20
431.82952922753782
30
0
40
1.000000000000008
210
0
220
0
230
1
100
AcDbArc
50
162.00000000000051
51
342.00000000000256
0
CIRCLE
5
681
100
AcDbEntity
8
0
100
AcDbCircle
10
571.1923512834594
20
442.7666791649321
30
0
40
1.5000000000000002
210
0
220
0
230
1
0
LWPOLYLINE
5
682
100
AcDbEntity
8
0
100
AcDbPolyline
90
6
70
1
43
0.0
10
551.47173059647503
20
443.69765928917451
10
556.10625690172674
20
430.68689194896768
42
0.7291259549524991
10
562.57730785091258
20
430.89022767040711
10
565.74651150579359
20
441.93767752066162
42
0.4943162722598049
10
562.90423616816918
20
445.76464101386466
10
552.97534766253636
20
445.90171581329861
42
0.53719539869917077
0
CIRCLE
5
683
100
AcDbEntity
8
0
100
AcDbCircle
10
555.67720371929443
20
438.95582912324102
30
0
40
1
210
0
220
0
230
1
0
LWPOLYLINE
5
684
100
AcDbEntity
8
0
100
AcDbPolyline
90
4
70
1
43
0.0
10
563.81387966881891
20
442.45590987275074
10
562.73232018850547
20
439.12721206571803
42
-0.99999999999999989
10
560.83020715591545
20
439.74524605446857
10
561.91176663622889
20
443.07394386150116
42
-0.99999999999999989
0
CIRCLE
5
685
100
AcDbEntity
8
0
100
AcDbCircle
10
559.30912771720841
20
431.82777692973286
30
0
40
1.5000000000000002
210
0
220
0
230
1
0
LWPOLYLINE
5
686
100
AcDbEntity
8
0
100
AcDbPolyline
90
6
70
1
43
0.0
10
553.97318158956489
20
430.31745422018423
10
549.33865528430886
20
443.32822156038958
42
0.72912595495248922
10
542.86760433512313
20
443.12488583894799
10
539.69840068024564
20
432.07743598869234
42
0.49431627225979846
10
542.54067601787131
20
428.25047249549027
10
552.46956452350423
20
428.11339769605956
42
0.53719539869914001
0
CIRCLE
5
687
100
AcDbEntity
8
0
100
AcDbCircle
10
549.7677084667439
20
435.05928438611636
30
0
40
1
210
0
220
0
230
1
0
LWPOLYLINE
5
688
100
AcDbEntity
8
0
100
AcDbPolyline
90
4
70
1
43
0.0
10
541.63103251722055
20
431.55920363660391
10
542.71259199753274
20
434.88790144363696
42
-0.99999999999999989
10
544.6147050301231
20
434.26986745488711
10
543.5331455498108
20
430.94116964785405
42
-0.99999999999999989
0
CIRCLE
5
689
100
AcDbEntity
8
0
100
AcDbCircle
10
546.13578446882752
20
442.18733657962326
30
0
40
1.5000000000000002
210
0
220
0
230
1
0
LWPOLYLINE
5
690
100
AcDbEntity
8
0
100
AcDbPolyline
90
6
70
1
43
0.0
10
526.27153027138411
20
443.0046786557574
10
530.90605657663582
20
429.99391131555052
42
0.72912595495248922
10
537.37710752582154
20
430.19724703699001
10
540.54631118070267
20
441.24469688724446
42
0.4943162722598119
10
537.70403584307826
20
445.0716603804475
10
527.77514733744545
20
445.20873517988156
42
0.53719539869915089
0
CIRCLE
5
691
100
AcDbEntity
8
0
100
AcDbCircle
10
530.47700339420339
20
438.26284848982391
30
0
40
1.0000000000000002
210
0
220
0
230
1
0
LWPOLYLINE
5
692
100
AcDbEntity
8
0
100
AcDbPolyline
90
4
70
1
43
0.0
10
538.61367934372811
20
441.76292923933363
10
537.53211986341466
20
438.43423143230086
42
-0.99999999999999989
10
535.63000683082453
20
439.0522654210514
10
536.71156631113809
20
442.38096322808406
42
-0.99999999999999989
0
CIRCLE
5
693
100
AcDbEntity
8
0
100
AcDbCircle
10
534.10892739211749
20
431.13479629631576
30
0
40
1.5000000000000004
210
0
220
0
230
1
0
LWPOLYLINE
5
694
100
AcDbEntity
8
0
100
AcDbPolyline
90
6
70
1
43
0.0
10
528.77298126447408
20
429.62447358676718
10
524.13845495921817
20
442.63524092697253
42
0.72912595495249466
10
517.66740401003244
20
442.431905205531
10
514.49820035515484
20
431.38445535527535
42
0.49431627225980579
10
517.34047569278061
20
427.55749186207333
10
527.26936419841354
20
427.42041706264251
42
0.53719539869916522
0
CIRCLE
5
695
100
AcDbEntity
8
0
100
AcDbCircle
10
524.56750814165321
20
434.36630375269931
30
0
40
1
210
0
220
0
230
1
0
LINE
5
696
100
AcDbEntity
8
0
100
AcDbLine
10
517.51239167244205
20
434.19492081021997
30
0
11
516.43083219212963
21
430.86622300318697
31
0
0
ARC
5
697
100
AcDbEntity
8
0
100
AcDbCircle
10
518.46344818873717
20
433.88590381584504
30
0
40
1.000000000000008
210
-0
220
0
230
1
100
AcDbArc
50
-17.999999999999492
51
162.00000000000051
0
LINE
5
698
100
AcDbEntity
8
0
100
AcDbLine
10
518.33294522471999
20
430.24818901443712
30
0
11
519.4145047050323
21
433.57688682147011
31
0
0
ARC
5
699
100
AcDbEntity
8
0
100
AcDbCircle
10
517.38188870842487
20
430.55720600881205
30
0
40
1.000000000000008
210
0
220
0
230
1
100
AcDbArc
50
162.00000000000256
51
342.00000000000051
0
CIRCLE
5
700
100
AcDbEntity
8
0
100
AcDbCircle
10
520.93558414373683
20
441.49435594620627
30
0
40
1.5000000000000002
210
0
220
0
230
1
0
LWPOLYLINE
5
701
100
AcDbEntity
8
0
100
AcDbPolyline
90
6
70
1
43
0.0
10
501.21496345675212
20
442.42533607044857
10
505.84948976200383
20
429.41456873024163
42
0.72912595495248711
10
512.32054071118944
20
429.61790445168111
10
515.48974436607079
20
440.66535430193562
42
0.4943162722598099
10
512.64746902844627
20
444.49231779513866
10
502.71858052281345
20
444.62939259457266
42
0.53719539869915112
0
CIRCLE
5
702
100
AcDbEntity
8
0
100
AcDbCircle
10
505.42043657957151
20
437.68350590451507
30
0
40
1
210
0
220
0
230
1
0
LWPOLYLINE
5
703
100
AcDbEntity
8
0
100
AcDbPolyline
90
4
70
1
43
0.0
10
513.55711252909612
20
441.18358665402474
10
512.47555304878256
20
437.85488884699197
42
-0.99999999999999989
10
510.57344001619254
20
438.47292283574257
10
511.65499949650598
20
441.80162064277516
42
-0.99999999999999989
0
CIRCLE
5
704
100
AcDbEntity
8
0
100
AcDbCircle
10
509.05236057748544
20
430.55545371100692
30
0
40
1.5000000000000004
210
0
220
0
230
1
0
LWPOLYLINE
5
705
100
AcDbEntity
8
0
100
AcDbPolyline
90
6
70
1
43
0.0
10
503.71641444984215
20
429.04513100145829
10
499.08188814458612
20
442.05589834166358
42
0.72912595495249466
10
492.61083719540045
20
441.8525626202221
10
489.44163354052296
20
430.80511276996646
42
0.49431627225980779
10
492.28390887814862
20
426.97814927676438
10
502.21279738378149
20
426.84107447733368
42
0.53719539869914024
0
CIRCLE
5
706
100
AcDbEntity
8
0
100
AcDbCircle
10
499.51094132702116
20
433.78696116739036
30
0
40
1.0000000000000002
210
0
220
0
230
1
0
LWPOLYLINE
5
707
100
AcDbEntity
8
0
100
AcDbPolyline
90
4
70
1
43
0.0
10
491.37426537749775
20
430.28688041787802
10
492.45582485781
20
433.61557822491108
42
-0.99999999999999989
10
494.35793789040031
20
432.99754423616122
10
493.27637841008794
20
429.66884642912817
42
-0.99999999999999989
0
CIRCLE
5
708
100
AcDbEntity
8
0
100
AcDbCircle
10
495.87901732910484
20
440.91501336089732
30
0
40
1.5000000000000002
210
0
220
0
230
1
0
LWPOLYLINE
5
709
100
AcDbEntity
8
0
100
AcDbPolyline
90
4
70
1
43
0.0
10
772.92107616616829
20
423.38713024565573
10
728.92107616616818
20
423.3871302456555
42
-0.99999999999999989
10
728.92107616616818
20
429.38713024565544
10
772.92107616616806
20
429.38713024565567
42
-0.99999999999999989
0
LWPOLYLINE
5
710
100
AcDbEntity
8
0
100
AcDbPolyline
90
4
70
1
43
0.0
10
772.92107616616829
20
403.38713024565573
10
728.92107616616829
20
403.3871302456555
42
-0.99999999999999989
10
728.92107616616829
20
409.38713024565544
10
772.92107616616829
20
409.38713024565567
42
-0.99999999999999989
0
LWPOLYLINE
5
711
100
AcDbEntity
8
0
100
AcDbPolyline
90
4
70
1
43
0.0
10
648.92107616616818
20
429.38713024565516
10
692.92107616616806
20
429.38713024565521
42
-0.99999999999999989
10
692.92107616616829
20
423.38713024565544
10
648.9210761661684
20
423.38713024565521
42
-0.99999999999999989
0
LWPOLYLINE
5
712
100
AcDbEntity
8
0
100
AcDbPolyline
90
4
70
1
43
0.0
10
692.92107616616829
20
403.38713024565544
10
648.92107616616829
20
403.38713024565521
42
-0.99999999999999989
10
648.92107616616829
20
409.38713024565516
10
692.92107616616829
20
409.38713024565521
42
-0.99999999999999989
0
LWPOLYLINE
5
713
100
AcDbEntity
8
0
100
AcDbPolyline
90
144
70
1
43
0.0
10
783.37107663297093
20
443.33713024565617
10
783.37107663297093
20
439.33713024565623
10
778.37107663297093
20
439.33713024565611
10
778.37107663297104
20
443.33713024565611
10
780.12107663297093
20
443.33713024565617
10
780.12107663297093
20
446.33713024565617
10
771.62107663297093
20
446.33713024565566
10
771.62107663297093
20
443.33713024565611
10
773.37107663297093
20
443.33713024565611
10
773.37107663297093
20
439.33713024565606
10
768.37107663297093
20
439.33713024565606
10
768.37107663297104
20
443.33713024565611
10
770.12107663297093
20
443.33713024565606
10
770.12107663297093
20
446.33713024565611
10
761.62107663297093
20
446.3371302456556
10
761.62107663297093
20
443.337130245656
10
763.37107663297093
20
443.337130245656
10
763.37107663297093
20
439.337130245656
10
758.37107663297093
20
439.33713024565589
10
758.37107663297104
20
443.337130245656
10
760.12107663297093
20
443.337130245656
10
760.12107663297093
20
446.337130245656
10
751.62107663297093
20
446.3371302456556
10
751.62107663297093
20
443.33713024565589
10
753.37107663297093
20
443.337130245656
10
753.37107663297093
20
439.337130245656
10
748.37107663297093
20
439.33713024565589
10
748.37107663297104
20
443.33713024565589
10
750.12107663297093
20
443.337130245656
10
750.12107663297093
20
446.33713024565594
10
741.62107663297093
20
446.33713024565554
10
741.62107663297093
20
443.33713024565589
10
743.37107663297093
20
443.33713024565589
10
743.37107663297093
20
439.33713024565589
10
738.37107663297093
20
439.33713024565583
10
738.37107663297104
20
443.33713024565583
10
740.12107663297093
20
443.33713024565583
10
740.12107663297093
20
446.33713024565577
10
731.62107663297093
20
446.33713024565554
10
731.62107663297093
20
443.33713024565583
10
733.37107663297093
20
443.33713024565583
10
733.37107663297093
20
439.33713024565577
10
728.37107663297093
20
439.33713024565577
10
728.37107663297104
20
443.33713024565577
10
730.12107663297093
20
443.33713024565577
10
730.12107663297093
20
446.33713024565577
10
721.62107663297093
20
446.33713024565543
10
721.62107663297093
20
443.33713024565566
10
723.37107663297093
20
443.33713024565566
10
723.37107663297093
20
439.33713024565571
10
718.37107663297093
20
439.33713024565566
10
718.37107663297104
20
443.33713024565566
10
720.12107663297093
20
443.33713024565566
10
720.12107663297093
20
446.33713024565571
10
711.62107663297093
20
446.33713024565537
10
711.62107663297093
20
443.33713024565566
10
713.37107663297093
20
443.3371302456556
10
713.37107663297093
20
439.33713024565566
10
708.37107663297093
20
439.33713024565554
10
708.37107663297104
20
443.3371302456556
10
710.12107663297093
20
443.3371302456556
10
710.12107663297093
20
446.3371302456556
10
701.62107663297093
20
446.33713024565537
10
701.62107663297093
20
443.3371302456556
10
703.37107663297093
20
443.3371302456556
10
703.37107663297093
20
439.33713024565566
10
698.37107663297093
20
439.33713024565554
10
698.37107663297104
20
443.33713024565554
10
700.12107663297093
20
443.33713024565554
10
700.12107663297093
20
446.33713024565554
10
691.62107663297093
20
446.33713024565532
10
691.62107663297093
20
443.33713024565549
10
693.37107663297093
20
443.33713024565554
10
693.37107663297093
20
439.33713024565549
10
688.37107663297093
20
439.33713024565549
10
688.37107663297104
20
443.33713024565549
10
690.12107663297093
20
443.33713024565549
10
690.12107663297093
20
446.33713024565554
10
681.62107663297093
20
446.33713024565532
10
681.62107663297093
20
443.33713024565543
10
683.37107663297093
20
443.33713024565543
10
683.37107663297093
20
439.33713024565543
10
678.37107663297093
20
439.33713024565532
10
678.37107663297104
20
443.33713024565532
10
680.12107663297093
20
443.33713024565543
10
680.12107663297093
20
446.33713024565543
10
671.62107663297093
20
446.3371302456552
10
671.62107663297093
20
443.33713024565532
10
673.37107663297093
20
443.33713024565532
10
673.37107663297093
20
439.33713024565532
10
668.37107663297093
20
439.33713024565526
10
668.37107663297104
20
443.33713024565532
10
670.12107663297093
20
443.33713024565532
10
670.12107663297093
20
446.33713024565532
10
661.62107663297093
20
446.3371302456552
10
661.62107663297093
20
443.33713024565532
10
663.37107663297093
20
443.33713024565526
10
663.37107663297093
20
439.3371302456552
10
658.37107663297093
20
439.3371302456552
10
658.37107663297104
20
443.33713024565526
10
660.12107663297093
20
443.33713024565526
10
660.12107663297093
20
446.3371302456552
10
651.62107663297093
20
446.33713024565515
10
651.62107663297093
20
443.3371302456552
10
653.37107663297093
20
443.33713024565526
10
653.37107663297093
20
439.3371302456552
10
648.37107663297093
20
439.3371302456552
10
648.37107663297104
20
443.3371302456552
10
650.12107663297093
20
443.3371302456552
10
650.12107663297093
20
446.3371302456552
10
641.62107663297093
20
446.33713024565515
10
641.62107663297093
20
443.33713024565509
10
643.37107663297093
20
443.33713024565509
10
643.37107663297093
20
439.33713024565515
10
638.37107663297093
20
439.33713024565509
10
638.37107663297093
20
443.33713024565509
10
640.12107663297093
20
443.33713024565503
10
640.12107663297093
20
446.33713024565509
10
627.8210761661685
20
446.33713024565509
10
627.8210761661685
20
431.43713024565506
10
630.92107616616863
20
431.43713024565506
10
630.92107616616875
20
381.33713024565503
10
627.82107616616872
20
381.33713024565498
10
627.82107616616872
20
366.437130245655
10
630.92107616616886
20
366.437130245655
10
630.92107616616897
20
336.33713024565498
10
627.82107616616884
20
336.33713024565498
10
627.82107616616906
20
316.43713024565494
10
630.92107616616897
20
316.43713024565494
10
630.92107616616909
20
286.43713024565488
10
796.62107616616925
20
286.43713024565551
10
796.62107616616925
20
301.33713024565554
10
793.52107616616922
20
301.33713024565554
10
793.521076166169
20
351.43713024565557
10
796.62107616616913
20
351.43713024565562
10
796.62107616616913
20
366.33713024565566
10
793.52107616616888
20
366.33713024565566
10
793.52107616616888
20
396.43713024565568
10
796.6210761661689
20
396.43713024565562
10
796.62107616616879
20
416.33713024565566
10
793.52107616616877
20
416.33713024565566
10
793.52107616616865
20
446.33713024565571
10
781.62107663297093
20
446.33713024565617
10
781.62107663297093
20
443.33713024565617
0
CIRCLE
5
714
100
AcDbEntity
8
0
100
AcDbCircle
10
655.72107663297118
20
376.38713224565498
30
0
40
1.0500000000000043
210
0
220
-0
230
1
0
CIRCLE
5
715
100
AcDbEntity
8
0
100
AcDbCircle
10
682.72107663297118
20
376.38713224565504
30
0
40
1.0500000000000043
210
0
220
-0
230
1
0
CIRCLE
5
716
100
AcDbEntity
8
0
100
AcDbCircle
10
709.72107663297129
20
376.38713224565521
30
0
40
1.0500000000000043
210
0
220
-0
230
1
0
CIRCLE
5
717
100
AcDbEntity
8
0
100
AcDbCircle
10
752.52107463297125
20
376.38713224565538
30
0
40
1.0499999999999687
210
0
220
-0
230
1
0
CIRCLE
5
718
100
AcDbEntity
8
0
100
AcDbCircle
10
780.52107463297125
20
376.38713224565549
30
0
40
1.0499999999999687
210
0
220
-0
230
1
0
CIRCLE
5
719
100
AcDbEntity
8
0
100
AcDbCircle
10
790.02107463297136
20
326.38713124565555
30
0
40
1.0499999999999687
210
0
220
-0
230
1
0
CIRCLE
5
720
100
AcDbEntity
8
0
100
AcDbCircle
10
766.52107463297148
20
326.38713124565538
30
0
40
1.0499999999999687
210
0
220
-0
230
1
0
CIRCLE
5
721
100
AcDbEntity
8
0
100
AcDbCircle
10
743.02107463297148
20
326.38713124565533
30
0
40
1.0499999999999687
210
0
220
-0
230
1
0
CIRCLE
5
722
100
AcDbEntity
8
0
100
AcDbCircle
10
717.72107663297129
20
326.38713124565527
30
0
40
1.0499999999999687
210
0
220
-0
230
1
0
CIRCLE
5
723
100
AcDbEntity
8
0
100
AcDbCircle
10
694.2210766329714
20
326.38713124565515
30
0
40
1.0500000000000043
210
0
220
-0
230
1
0
CIRCLE
5
724
100
AcDbEntity
8
0
100
AcDbCircle
10
671.2210766329714
20
326.38713124565504
30
0
40
1.0500000000000043
210
0
220
-0
230
1
0
CIRCLE
5
725
100
AcDbEntity
8
0
100
AcDbCircle
10
647.72107663297129
20
326.38713124565498
30
0
40
1.0500000000000043
210
0
220
-0
230
1
0
LWPOLYLINE
5
726
100
AcDbEntity
8
0
100
AcDbPolyline
90
37
70
1
43
0.0
10
737.92292277447575
20
114.00340256635586
10
747.60538113999428
20
114.00340256635613
42
0.063254223929904138
10
747.92292277447575
20
116.50340256635641
10
748.39793014724648
20
116.50340256635646
42
0.059379045090429676
10
748.10453454732806
20
118.96522326789331
10
748.10453454732726
20
130.7651352678933
10
749.10453454732738
20
130.76513526789336
10
749.10453454732658
20
142.0504753688426
42
0.009706146996098031
10
748.10453454732647
20
142.4652236180707
10
748.10453454732601
20
154.26513561807062
10
749.1045345473259
20
154.26513561807067
10
749.10453454732544
20
165.24657368514426
42
0.0051173117534613595
10
748.10453454732601
20
165.4652239607972
10
748.10453454732465
20
177.26522431097462
10
749.10453454732476
20
177.2652243109747
10
749.10453454732408
20
188.81766386385658
42
0.0034535679231572922
10
748.10453454732408
20
188.96522431097463
10
748.10453454732328
20
200.76522431096862
10
749.10453454732328
20
200.76522431096868
10
749.1045345473226
20
214.15327214616974
42
0.0025587181790657741
10
748.10453454732385
20
214.26259779882656
10
748.1045345473218
20
226.06259779882677
10
749.10453454732192
20
226.06259779882677
10
749.10453454732124
20
237.67834301568001
42
0.0020623741944980792
10
748.10453454732124
20
237.76646131238522
10
748.10453454732055
20
249.56654936391595
10
749.10453454732067
20
249.56268619890005
10
749.10453454731987
20
261.19265598673286
42
0.0017273951058715943
10
748.10453454732453
20
261.26646166256216
10
748.1045345473193
20
273.0665497140921
10
749.10453454731919
20
273.06268654909928
10
749.10453454731896
20
278.91905618692726
42
0.016907020859353836
10
738.10453454731885
20
279.30340256635589
10
728.10453454731885
20
279.30340256635532
10
718.10453454731885
20
280.80340256635475
10
718.10453454732612
20
151.03892842379418
42
0.26654277538232712
10
737.92292277447257
20
116.50340256635636
0
LINE
5
727
100
AcDbEntity
8
0
100
AcDbLine
10
795.17546389126096
20
237.46935518130329
30
0
11
795.17546389126119
21
222.46935518130329
31
0
0
LINE
5
728
100
AcDbEntity
8
0
100
AcDbLine
10
789.17546389126096
20
237.46935518130317
30
0
11
795.17546389126096
21
237.46935518130329
31
0
0
LINE
5
729
100
AcDbEntity
8
0
100
AcDbLine
10
789.17546389126051
20
277.96935585185554
30
0
11
789.17546389126096
21
237.46935518130317
31
0
0
ARC
5
730
100
AcDbEntity
8
0
100
AcDbCircle
10
786.17546389126028
20
277.96935585185543
30
0
40
3.0000000000001137
210
0
220
-0
230
1
100
AcDbArc
50
0
51
90
0
LINE
5
731
100
AcDbEntity
8
0
100
AcDbLine
10
756.17546389126062
20
280.96935585185503
30
0
11
786.17546389126028
21
280.96935585185543
31
0
0
ARC
5
732
100
AcDbEntity
8
0
100
AcDbCircle
10
756.17546389126028
20
277.96935585185525
30
0
40
2.9999999999997584
210
0
220
-0
230
1
100
AcDbArc
50
89.999999999993491
51
180
0
LINE
5
733
100
AcDbEntity
8
0
100
AcDbLine
10
753.17546389126096
20
262.96935585185503
30
0
11
753.17546389126051
21
277.96935585185497
31
0
0
ARC
5
734
100
AcDbEntity
8
0
100
AcDbCircle
10
756.17546389126096
20
262.9693558518552
30
0
40
2.9999999999999716
210
0
220
0
230
1
100
AcDbArc
50
180
51
269.99999999999346
0
LINE
5
735
100
AcDbEntity
8
0
100
AcDbLine
10
758.17546414458047
20
259.96935585185412
30
0
11
756.17546389126062
21
259.96935585185508
31
0
0
ARC
5
736
100
AcDbEntity
8
0
100
AcDbCircle
10
758.17546414458036
20
256.37435625463263
30
0
40
3.5949995972215114
210
0
220
-0
230
1
100
AcDbArc
50
25.66589491072838
51
89.999999999998195
0
ARC
5
737
100
AcDbEntity
8
0
100
AcDbCircle
10
599.17546389126187
20
179.9693558518527
30
0
40
179.99999999999986
210
-0
220
0
230
1
100
AcDbArc
50
-25.665894910724891
51
25.665894910726397
0
ARC
5
738
100
AcDbEntity
8
0
100
AcDbCircle
10
758.17546414458275
20
103.56435544907671
30
0
40
3.5949995972215909
210
-0
220
0
230
1
100
AcDbArc
50
270
51
334.33410508927466
0
LINE
5
739
100
AcDbEntity
8
0
100
AcDbLine
10
756.17546389126323
20
99.969355851855084
30
0
11
758.17546414458275
21
99.969355851855127
31
0
0
ARC
5
740
100
AcDbEntity
8
0
100
AcDbCircle
10
756.17546389126335
20
96.969355851855212
30
0
40
2.999999999999865
210
0
220
0
230
1
100
AcDbArc
50
90.000000000002174
51
180
0
LINE
5
741
100
AcDbEntity
8
0
100
AcDbLine
10
753.17546389126369
20
81.969355851855028
30
0
11
753.17546389126346
21
96.969355851855028
31
0
0
ARC
5
742
100
AcDbEntity
8
0
100
AcDbCircle
10
756.17546389126346
20
81.969355851855056
30
0
40
2.9999999999998295
210
0
220
0
230
1
100
AcDbArc
50
180
51
270
0
LINE
5
743
100
AcDbEntity
8
0
100
AcDbLine
10
786.17546389126346
20
78.969355851855539
30
0
11
756.17546389126346
21
78.969355851855084
31
0
0
ARC
5
744
100
AcDbEntity
8
0
100
AcDbCircle
10
786.17546389126323
20
81.969355851855639
30
0
40
3.0000000000001048
210
0
220
0
230
1
100
AcDbArc
50
270.00000000000432
51
360
0
LINE
5
745
100
AcDbEntity
8
0
100
AcDbLine
10
789.17546389126312
20
98.419355851855514
30
0
11
789.17546389126323
21
81.969355851855582
31
0
0
LINE
5
746
100
AcDbEntity
8
0
100
AcDbLine
10
781.67546389126312
20
98.4193558518554
30
0
11
789.17546389126312
21
98.419355851855514
31
0
0
LINE
5
747
100
AcDbEntity
8
0
100
AcDbLine
10
781.67546389126312
20
97.119355851855403
30
0
11
781.67546389126312
21
98.4193558518554
31
0
0
LINE
5
748
100
AcDbEntity
8
0
100
AcDbLine
10
779.17546389126312
20
97.11935585185536
30
0
11
781.67546389126312
21
97.119355851855403
31
0
0
LINE
5
749
100
AcDbEntity
8
0
100
AcDbLine
10
779.17546389126312
20
98.419355851855371
30
0
11
779.17546389126312
21
97.11935585185536
31
0
0
LINE
5
750
100
AcDbEntity
8
0
100
AcDbLine
10
778.67546389126323
20
98.419355851855371
30
0
11
779.17546389126312
21
98.419355851855371
31
0
0
LINE
5
751
100
AcDbEntity
8
0
100
AcDbLine
10
778.67546389126301
20
101.51935585185535
30
0
11
778.67546389126301
21
98.41935703929164
31
0
0
LINE
5
752
100
AcDbEntity
8
0
100
AcDbLine
10
779.17546389126301
20
101.51935585185535
30
0
11
778.67546389126301
21
101.51935585185535
31
0
0
LINE
5
753
100
AcDbEntity
8
0
100
AcDbLine
10
779.17546389126301
20
102.81935585185536
30
0
11
779.17546389126301
21
101.51935585185535
31
0
0
LINE
5
754
100
AcDbEntity
8
0
100
AcDbLine
10
781.67546389126301
20
102.81935585185539
30
0
11
779.17546389126301
21
102.81935585185536
31
0
0
LINE
5
755
100
AcDbEntity
8
0
100
AcDbLine
10
781.67546389126301
20
101.51935585185539
30
0
11
781.67546389126301
21
102.81935585185539
31
0
0
LINE
5
756
100
AcDbEntity
8
0
100
AcDbLine
10
789.17546389126301
20
101.51935585185552
30
0
11
781.67546389126301
21
101.51935585185539
31
0
0
LINE
5
757
100
AcDbEntity
8
0
100
AcDbLine
10
789.17546389126301
20
107.46935518130317
30
0
11
789.17546389126301
21
101.51935585185552
31
0
0
LINE
5
758
100
AcDbEntity
8
0
100
AcDbLine
10
795.17546389126301
20
107.46935518130327
30
0
11
789.17546389126301
21
107.46935518130317
31
0
0
LINE
5
759
100
AcDbEntity
8
0
100
AcDbLine
10
795.17546389126267
20
122.46935518130327
30
0
11
795.17546389126301
21
107.46935518130327
31
0
0
LINE
5
760
100
AcDbEntity
8
0
100
AcDbLine
10
789.17546389126278
20
122.46935518130317
30
0
11
795.17546389126267
21
122.46935518130327
31
0
0
LINE
5
761
100
AcDbEntity
8
0
100
AcDbLine
10
789.17546389126244
20
142.46935518130317
30
0
11
789.17546389126278
21
122.46935518130317
31
0
0
LINE
5
762
100
AcDbEntity
8
0
100
AcDbLine
10
795.17546389126232
20
142.46935518130326
30
0
11
789.17546389126244
21
142.46935518130317
31
0
0
LINE
5
763
100
AcDbEntity
8
0
100
AcDbLine
10
795.1754638912621
20
157.46935518130326
30
0
11
795.17546389126232
21
142.46935518130326
31
0
0
LINE
5
764
100
AcDbEntity
8
0
100
AcDbLine
10
789.17546389126232
20
157.46935518130317
30
0
11
795.1754638912621
21
157.46935518130326
31
0
0
LINE
5
765
100
AcDbEntity
8
0
100
AcDbLine
10
789.17546389126176
20
187.46935518130317
30
0
11
789.17546389126232
21
157.46935518130317
31
0
0
LINE
5
766
100
AcDbEntity
8
0
100
AcDbLine
10
795.17546389126164
20
187.46935518130329
30
0
11
789.17546389126176
21
187.46935518130317
31
0
0
LINE
5
767
100
AcDbEntity
8
0
100
AcDbLine
10
795.17546389126153
20
202.46935518130329
30
0
11
795.17546389126164
21
187.46935518130329
31
0
0
LINE
5
768
100
AcDbEntity
8
0
100
AcDbLine
10
789.17546389126164
20
202.46935518130317
30
0
11
795.17546389126153
21
202.46935518130329
31
0
0
LINE
5
769
100
AcDbEntity
8
0
100
AcDbLine
10
789.1754638912613
20
222.46935518130317
30
0
11
789.17546389126164
21
202.46935518130317
31
0
0
LINE
5
770
100
AcDbEntity
8
0
100
AcDbLine
10
795.17546389126119
20
222.46935518130329
30
0
11
789.1754638912613
21
222.46935518130317
31
0
0
LWPOLYLINE
5
771
100
AcDbEntity
8
0
100
AcDbPolyline
90
6
70
1
43
0.0
10
694.77133483745308
20
267.75962537968405
10
707.78210217765991
20
272.39415168493588
42
0.72912595495249721
10
707.57876645622036
20
278.8652026341216
10
696.53131660596591
20
282.03440628900273
42
0.49431627225981351
10
692.70435311276287
20
279.1921309513782
10
692.56727831332898
20
269.26324244574539
42
0.5371953986991771
0
CIRCLE
5
772
100
AcDbEntity
8
0
100
AcDbCircle
10
699.51316500338646
20
271.96509850250351
30
0
40
1.0000000000000002
210
0
220
0
230
1
0
LWPOLYLINE
5
773
100
AcDbEntity
8
0
100
AcDbPolyline
90
4
70
1
43
0.0
10
696.01308425387685
20
280.10177445202805
10
699.34178206090951
20
279.02021497171467
42
-0.99999999999999989
10
698.72374807215908
20
277.11810193912459
10
695.3950502651262
20
278.19966141943792
42
-0.99999999999999989
0
CIRCLE
5
774
100
AcDbEntity
8
0
100
AcDbCircle
10
706.64121719689456
20
275.59702250041761
30
0
40
1.5000000000000004
210
0
220
0
230
1
0
LWPOLYLINE
5
775
100
AcDbEntity
8
0
100
AcDbPolyline
90
6
70
1
43
0.0
10
708.15153990644353
20
270.26107637277397
10
695.14077256623818
20
265.62655006751783
42
0.7291259549524759
10
695.34410828767989
20
259.15549911833227
10
706.39155813793548
20
255.98629546345478
42
0.4943162722598104
10
710.21852163113749
20
258.82857080108056
10
710.35559643056808
20
268.75745930671343
42
0.53719539869912569
0
CIRCLE
5
776
100
AcDbEntity
8
0
100
AcDbCircle
10
703.40970974051152
20
266.05560324995298
30
0
40
1
210
0
220
0
230
1
0
LINE
5
777
100
AcDbEntity
8
0
100
AcDbLine
10
703.58109268299086
20
259.00048678074188
30
0
11
706.90979049002397
21
257.91892730042957
31
0
0
ARC
5
778
100
AcDbEntity
8
0
100
AcDbCircle
10
703.89010967736579
20
259.95154329703706
30
0
40
1.000000000000008
210
0
220
-0
230
1
100
AcDbArc
50
72.000000000001535
51
252.00000000000153
0
LINE
5
779
100
AcDbEntity
8
0
100
AcDbLine
10
707.52782447877382
20
259.82104033301988
30
0
11
704.19912667174071
21
260.90259981333224
31
0
0
ARC
5
780
100
AcDbEntity
8
0
100
AcDbCircle
10
707.21880748439889
20
258.86998381672475
30
0
40
0.99999999999997413
210
0
220
0
230
1
100
AcDbArc
50
-107.99999999999848
51
72.000000000000512
0
CIRCLE
5
781
100
AcDbEntity
8
0
100
AcDbCircle
10
696.28165754700467
20
262.42367925203655
30
0
40
1.5000000000000002
210
0
220
0
230
1
0
LWPOLYLINE
5
782
100
AcDbEntity
8
0
100
AcDbPolyline
90
6
70
1
43
0.0
10
695.35067742276237
20
242.70305856505158
10
708.3614447629692
20
247.33758487030346
42
0.72912595495249699
10
708.15810904152966
20
253.80863581948918
10
697.1106591912752
20
256.97783947437023
42
0.49431627225981351
10
693.28369569807228
20
254.1355641367457
10
693.14662089863828
20
244.20667563111289
42
0.5371953986991207
0
CIRCLE
5
783
100
AcDbEntity
8
0
100
AcDbCircle
10
700.09250758869587
20
246.908531687871
30
0
40
1
210
0
220
0
230
1
0
LWPOLYLINE
5
784
100
AcDbEntity
8
0
100
AcDbPolyline
90
4
70
1
43
0.0
10
696.59242683918615
20
255.04520763739555
10
699.9211246462188
20
253.96364815708222
42
-0.99999999999999989
10
699.30309065746837
20
252.06153512449208
10
695.97439285043549
20
253.14309460480544
42
-0.99999999999999989
0
CIRCLE
5
785
100
AcDbEntity
8
0
100
AcDbCircle
10
707.22055978220396
20
250.54045568578513
30
0
40
1.5000000000000004
210
0
220
0
230
1
0
LWPOLYLINE
5
786
100
AcDbEntity
8
0
100
AcDbPolyline
90
6
70
1
43
0.0
10
708.73088249175225
20
245.20450955814152
10
695.72011515154702
20
240.56998325288532
42
0.72912595495247701
10
695.92345087298872
20
234.09893230369974
10
706.97090072324431
20
230.92972864882228
42
0.49431627225980934
10
710.79786421644621
20
233.77200398644806
10
710.93493901587692
20
243.70089249208095
42
0.53719539869913557
0
CIRCLE
5
787
100
AcDbEntity
8
0
100
AcDbCircle
10
703.98905232582024
20
240.99903643532048
30
0
40
1
210
0
220
0
230
1
0
LINE
5
788
100
AcDbEntity
8
0
100
AcDbLine
10
704.16043526829969
20
233.94391996610938
30
0
11
707.48913307533269
21
232.8623604857971
31
0
0
ARC
5
789
100
AcDbEntity
8
0
100
AcDbCircle
10
704.46945226267462
20
234.89497648240456
30
0
40
1.000000000000008
210
0
220
-0
230
1
100
AcDbArc
50
72.000000000001023
51
252.00000000000153
0
LINE
5
790
100
AcDbEntity
8
0
100
AcDbLine
10
708.10716706408255
20
234.76447351838743
30
0
11
704.77846925704955
21
235.84603299869971
31
0
0
ARC
5
791
100
AcDbEntity
8
0
100
AcDbCircle
10
707.79815006970762
20
233.81341700209225
30
0
40
1.000000000000008
210
0
220
0
230
1
100
AcDbArc
50
-107.99999999999898
51
72.000000000001535
0
CIRCLE
5
792
100
AcDbEntity
8
0
100
AcDbCircle
10
696.86100013231339
20
237.36711243740405
30
0
40
1.5000000000000002
210
0
220
0
230
1
0
LWPOLYLINE
5
793
100
AcDbEntity
8
0
100
AcDbPolyline
90
6
70
1
43
0.0
10
696.04365805617954
20
217.50285823996026
10
709.05442539638648
20
222.13738454521209
42
0.72912595495249699
10
708.85108967494693
20
228.60843549439781
10
697.80363982469237
20
231.77763914927891
42
0.49431627225980979
10
693.97667633148944
20
228.93536381165444
10
693.83960153205544
20
219.0064753060216
42
0.53719539869918431
0
CIRCLE
5
794
100
AcDbEntity
8
0
100
AcDbCircle
10
700.78548822211303
20
221.70833136277969
30
0
40
1
210
0
220
0
230
1
0
LWPOLYLINE
5
795
100
AcDbEntity
8
0
100
AcDbPolyline
90
4
70
1
43
0.0
10
697.28540747260342
20
229.84500731230426
10
700.61410527963608
20
228.76344783199087
42
-0.99999999999999989
10
699.99607129088554
20
226.86133479940077
10
696.66737348385266
20
227.94289427971415
42
-0.99999999999999989
0
CIRCLE
5
796
100
AcDbEntity
8
0
100
AcDbCircle
10
707.91354041562113
20
225.34025536069376
30
0
40
1.5000000000000002
210
0
220
0
230
1
0
LWPOLYLINE
5
797
100
AcDbEntity
8
0
100
AcDbPolyline
90
6
70
1
43
0.0
10
709.42386312517033
20
220.00430923305117
10
696.41309578496498
20
215.36978292779506
42
0.72912595495248989
10
696.61643150640657
20
208.89873197860953
10
707.66388135666216
20
205.72952832373198
42
0.4943162722598104
10
711.49084484986417
20
208.57180366135771
10
711.62791964929488
20
218.50069216699063
42
0.53719539869912614
0
CIRCLE
5
798
100
AcDbEntity
8
0
100
AcDbCircle
10
704.68203295923809
20
215.79883611023018
30
0
40
1
210
0
220
0
230
1
0
LINE
5
799
100
AcDbEntity
8
0
100
AcDbLine
10
704.85341590171754
20
208.74371964101908
30
0
11
708.18211370875065
21
207.66216016070678
31
0
0
ARC
5
800
100
AcDbEntity
8
0
100
AcDbCircle
10
705.16243289609247
20
209.69477615731424
30
0
40
1.000000000000008
210
0
220
-0
230
1
100
AcDbArc
50
72.000000000001535
51
252.00000000000102
0
LINE
5
801
100
AcDbEntity
8
0
100
AcDbLine
10
708.80014769750051
20
209.56427319329708
30
0
11
705.4714498904674
21
210.64583267360942
31
0
0
ARC
5
802
100
AcDbEntity
8
0
100
AcDbCircle
10
708.49113070312558
20
208.61321667700193
30
0
40
0.99999999999997413
210
0
220
0
230
1
100
AcDbArc
50
-107.99999999999898
51
72.000000000001023
0
CIRCLE
5
803
100
AcDbEntity
8
0
100
AcDbCircle
10
697.55398076573124
20
212.16691211231378
30
0
40
1.5000000000000002
210
0
220
0
230
1
0
LWPOLYLINE
5
804
100
AcDbEntity
8
0
100
AcDbPolyline
90
6
70
1
43
0.0
10
696.62300064148826
20
192.44629142532892
10
709.63376798169509
20
197.0808177305808
42
0.72912595495249699
10
709.43043226025554
20
203.55186867976653
10
698.38298241000098
20
206.72107233464757
42
0.49431627225980979
10
694.55601891679805
20
203.8787969970231
10
694.41894411736416
20
193.94990849139026
42
0.5371953986991278
0
CIRCLE
5
805
100
AcDbEntity
8
0
100
AcDbCircle
10
701.36483080742164
20
196.65176454814838
30
0
40
1
210
0
220
0
230
1
0
LINE
5
806
100
AcDbEntity
8
0
100
AcDbLine
10
701.19344786494469
20
203.70688101735954
30
0
11
697.86475005791203
21
204.78844049767292
31
0
0
ARC
5
807
100
AcDbEntity
8
0
100
AcDbCircle
10
700.88443087056942
20
202.75582450106447
30
0
40
0.99999999999999423
210
0
220
0
230
1
100
AcDbArc
50
-108.00000000001339
51
71.999999999980915
0
LINE
5
808
100
AcDbEntity
8
0
100
AcDbLine
10
697.24671606916149
20
202.88632746508284
30
0
11
700.57541387619426
21
201.80476798476943
31
0
0
ARC
5
809
100
AcDbEntity
8
0
100
AcDbCircle
10
697.55573306353665
20
203.83738398137785
30
0
40
1.0000000000000382
210
0
220
-0
230
1
100
AcDbArc
50
71.999999999974733
51
251.99999999998613
0
CIRCLE
5
810
100
AcDbEntity
8
0
100
AcDbCircle
10
708.49288300092985
20
200.28368854606245
30
0
40
1.5000000000000002
210
0
220
0
230
1
0
LWPOLYLINE
5
811
100
AcDbEntity
8
0
100
AcDbPolyline
90
6
70
1
43
0.0
10
710.0032057104786
20
194.94774241841907
10
696.99243837027336
20
190.31321611316289
42
0.72912595495247734
10
697.19577409171507
20
183.84216516397731
10
708.24322394197065
20
180.67296150909982
42
0.49431627225980934
10
712.07018743517267
20
183.5152368467256
10
712.20726223460338
20
193.44412535235847
42
0.53719539869916966
0
CIRCLE
5
812
100
AcDbEntity
8
0
100
AcDbCircle
10
705.26137554454658
20
190.74226929559808
30
0
40
1.0000000000000002
210
0
220
0
230
1
0
LINE
5
813
100
AcDbEntity
8
0
100
AcDbLine
10
705.43275848702604
20
183.68715282638692
30
0
11
708.76145629405914
21
182.60559334607464
31
0
0
ARC
5
814
100
AcDbEntity
8
0
100
AcDbCircle
10
705.74177548140096
20
184.6382093426821
30
0
40
1.000000000000008
210
0
220
-0
230
1
100
AcDbArc
50
72.000000000001023
51
252.00000000000153
0
LINE
5
815
100
AcDbEntity
8
0
100
AcDbLine
10
709.379490282809
20
184.50770637866498
30
0
11
706.05079247577589
21
185.58926585897726
31
0
0
ARC
5
816
100
AcDbEntity
8
0
100
AcDbCircle
10
709.07047328843407
20
183.5566498623698
30
0
40
1.000000000000008
210
0
220
0
230
1
100
AcDbArc
50
-107.99999999999898
51
72.000000000001535
0
CIRCLE
5
817
100
AcDbEntity
8
0
100
AcDbCircle
10
698.13332335103973
20
187.11034529768159
30
0
40
1.5000000000000004
210
0
220
0
230
1
0
ENDSEC
0
SECTION
2
OBJECTS
0
DICTIONARY
5
C
100
AcDbDictionary
3
ACAD_GROUP
350
D
3
ACAD_MLINESTYLE
350
17
0
DICTIONARY
5
D
100
AcDbDictionary
0
DICTIONARY
5
1A
330
C
100
AcDbDictionary
0
DICTIONARY
5
17
100
AcDbDictionary
0
ENDSEC
0
EOF
