0
SECTION
2
HEADER
9
$INSUNITS
70
4
9
$ACADVER
1
AC1014
9
$HANDSEED
5
FFFF
0
ENDSEC
0
SECTION
2
TABLES
0
TABLE
2
VPORT
5
8
100
AcDbSymbolTable
0
ENDTAB
0
TABLE
2
LTYPE
5
5
100
AcDbSymbolTable
0
LTYPE
5
14
100
AcDbSymbolTableRecord
100
AcDbLinetypeTableRecord
2
BYBLOCK
70
0
0
LTYPE
5
15
100
AcDbSymbolTableRecord
100
AcDbLinetypeTableRecord
2
BYLAYER
70
0
0
ENDTAB
0
TABLE
2
LAYER
5
2
100
AcDbSymbolTable
70
2
0
LAYER
5
50
100
AcDbSymbolTableRecord
100
AcDbLayerTableRecord
2
0
70
0
6
CONTINUOUS
0
ENDTAB
0
TABLE
2
STYLE
5
3
100
AcDbSymbolTable
70
1
0
STYLE
5
11
100
AcDbSymbolTableRecord
100
AcDbTextStyleTableRecord
2
STANDARD
70
0
0
ENDTAB
0
TABLE
2
VIEW
5
6
100
AcDbSymbolTable
70
0
0
ENDTAB
0
TABLE
2
UCS
5
7
100
AcDbSymbolTable
70
0
0
ENDTAB
0
TABLE
2
APPID
5
9
100
AcDbSymbolTable
70
2
0
APPID
5
12
100
AcDbSymbolTableRecord
100
AcDbRegAppTableRecord
2
ACAD
70
0
0
ENDTAB
0
TABLE
2
DIMSTYLE
5
A
100
AcDbSymbolTable
70
1
0
ENDTAB
0
TABLE
2
BLOCK_RECORD
5
1
100
AcDbSymbolTable
70
1
0
BLOCK_RECORD
5
1F
100
AcDbSymbolTableRecord
100
AcDbBlockTableRecord
2
*MODEL_SPACE
0
BLOCK_RECORD
5
1B
100
AcDbSymbolTableRecord
100
AcDbBlockTableRecord
2
*PAPER_SPACE
0
ENDTAB
0
ENDSEC
0
SECTION
2
BLOCKS
0
BLOCK
5
20
100
AcDbEntity
100
AcDbBlockBegin
2
*MODEL_SPACE
0
ENDBLK
5
21
100
AcDbEntity
100
AcDbBlockEnd
0
BLOCK
5
1C
100
AcDbEntity
100
AcDbBlockBegin
2
*PAPER_SPACE
0
ENDBLK
5
1D
100
AcDbEntity
100
AcDbBlockEnd
0
ENDSEC
0
SECTION
2
ENTITIES
0
LWPOLYLINE
5
100
100
AcDbEntity
8
0
100
AcDbPolyline
90
25
70
1
43
0.0
10
616.97227995930746
20
-84.052631578939113
42
-0.41421356237311063
10
614.97227995930746
20
-86.052631578939099
10
608.97227995930734
20
-86.052631578939028
42
-0.41421356237311063
10
606.97227995930734
20
-84.052631578939113
10
606.97227995930734
20
-64.022631578940093
10
604.97227995930734
20
-53.322631578940161
10
606.97227995930734
20
-53.322631578940161
10
606.97227995930757
20
-11.052631578940451
42
-0.41421356237311191
10
608.97227995930746
20
-9.0526315789404919
10
666.72227995930814
20
-9.0526315789405274
10
666.72227995930825
20
-6.0526315789405416
42
-0.41421356237309503
10
667.72227995930825
20
-5.0526315789405576
10
675.72227995930825
20
-5.0526315789405984
42
-0.41421356237310153
10
676.72227995930825
20
-6.0526315789405638
10
676.72227995930825
20
-9.0526315789405274
10
734.47227995930893
20
-9.0526315789405594
42
-0.41421356237312984
10
736.47227995930893
20
-11.052631578940542
10
736.47227995930871
20
-84.052631578939199
42
-0.41421356237313928
10
734.47227995930871
20
-86.052631578939184
10
728.47227995930871
20
-86.05263157893917
42
-0.41421356237312884
10
726.47227995930859
20
-84.052631578939199
10
726.47227995930859
20
-68.177631578938914
42
0.41421356237311169
10
721.47227995930859
20
-63.177631578938971
10
621.97227995930757
20
-63.177631578938893
42
0.41421356237311113
10
616.97227995930746
20
-68.177631578938858
0
CIRCLE
5
101
100
AcDbEntity
8
0
100
AcDbCircle
10
686.372279959308
20
-60.777631578938966
30
-3.1554436208840472e-29
40
0.60000000000000708
210
4.9678460135815167e-32
220
-8.6281661508548221e-32
230
1
0
LWPOLYLINE
5
102
100
AcDbEntity
8
0
100
AcDbPolyline
90
8
70
1
43
0.0
10
661.72227995930803
20
-19.052631578940389
42
-0.41421356237309503
10
666.72227995930803
20
-24.052631578940389
10
666.72227995930803
20
-48.177631578939057
42
-0.41421356237309503
10
661.72227995930803
20
-53.177631578939
10
621.97227995930757
20
-53.177631578939064
42
-0.41421356237308982
10
616.97227995930757
20
-48.177631578939007
10
616.97227995930757
20
-24.052631578940375
42
-0.41421356237309426
10
621.97227995930757
20
-19.052631578940424
0
LWPOLYLINE
5
103
100
AcDbEntity
8
0
100
AcDbPolyline
90
8
70
1
43
0.0
10
726.47227995930859
20
-48.177631578939064
42
-0.41421356237309609
10
721.47227995930859
20
-53.177631578939035
10
681.72227995930825
20
-53.177631578939028
42
-0.41421356237309398
10
676.72227995930825
20
-48.177631578939042
10
676.72227995930825
20
-24.052631578940439
42
-0.41421356237309476
10
681.72227995930825
20
-19.05263157894046
10
721.47227995930859
20
-19.05263157894046
42
-0.41421356237309503
10
726.47227995930859
20
-24.05263157894046
0
CIRCLE
5
104
100
AcDbEntity
8
0
100
AcDbCircle
10
643.12227995930755
20
-60.777631578938923
30
3.1554436208840472e-29
40
0.60000000000000708
210
4.9678460135815167e-32
220
-8.6281661508548221e-32
230
1
0
CIRCLE
5
105
100
AcDbEntity
8
0
100
AcDbCircle
10
713.87227995930834
20
-60.777631578939008
30
0
40
0.60000000000000275
210
-6.125510466088952e-32
220
6.779273404243079e-32
230
1
0
LWPOLYLINE
5
106
100
AcDbEntity
8
0
100
AcDbPolyline
90
8
70
1
43
0.0
10
696.53782571045883
20
-132.07591393713071
42
-0.41421356237309814
10
691.53782571045883
20
-127.07591393713066
10
691.53782571045895
20
-103.07591247521216
42
-0.41421356237309609
10
696.53782571045895
20
-98.075912475212135
10
733.03782571045895
20
-98.075912475212078
42
-0.41421356237309814
10
738.03782571045895
20
-103.07591247521214
10
738.03782571045883
20
-127.07591393713065
42
-0.41421356237309709
10
733.03782571045883
20
-132.07591393713068
0
LWPOLYLINE
5
107
100
AcDbEntity
8
0
100
AcDbPolyline
90
8
70
1
43
0.0
10
676.53782571045895
20
-98.075912475212149
42
-0.41421356237309814
10
681.53782571045895
20
-103.07591247521219
10
681.53782571045895
20
-127.07591393713071
42
-0.41421356237309609
10
676.53782571045895
20
-132.07591393713074
10
640.03782571045895
20
-132.07591393713079
42
-0.41421356237309814
10
635.03782571045895
20
-127.07591393713075
10
635.03782571045906
20
-103.07591247521223
42
-0.41421356237309193
10
640.03782571045895
20
-98.075912475212178
0
CIRCLE
5
108
100
AcDbEntity
8
0
100
AcDbCircle
10
631.98782571045888
20
-90.475912475212127
30
0
40
0.60000000000001008
210
-2.2547222970807191e-31
220
1.2510840918739491e-30
230
1
0
CIRCLE
5
109
100
AcDbEntity
8
0
100
AcDbCircle
10
654.88782571045886
20
-90.475912475212112
30
3.1554436208840472e-29
40
0.60000000000001008
210
-2.2547222970807191e-31
220
1.2510840918739491e-30
230
1
0
CIRCLE
5
110
100
AcDbEntity
8
0
100
AcDbCircle
10
701.0878257104589
20
-90.475912475212056
30
3.1554436208840472e-29
40
0.6000000000000012
210
3.5384749756360912e-31
220
7.3339412282265827e-31
230
1
0
CIRCLE
5
111
100
AcDbEntity
8
0
100
AcDbCircle
10
677.98782571045888
20
-90.475912475212084
30
0
40
0.6000000000000012
210
3.5384749756360912e-31
220
7.3339412282265827e-31
230
1
0
CIRCLE
5
112
100
AcDbEntity
8
0
100
AcDbCircle
10
724.58782571045901
20
-90.475912475212027
30
3.1554436208840472e-29
40
0.60000000000000564
210
5.802465810572944e-32
220
9.9223910734830374e-31
230
1
0
LWPOLYLINE
5
113
100
AcDbEntity
8
0
100
AcDbPolyline
90
32
70
1
43
0.0
10
639.42983107181158
20
-66.075912475211936
42
-0.41421356237309503
10
640.42983107181158
20
-65.075912475211922
10
646.42983107181158
20
-65.075912475212007
42
-0.41421356237309243
10
647.42983107181146
20
-66.075912475211936
10
647.42983107181146
20
-87.075912475212064
42
0.41421356237313667
10
648.42983107181158
20
-88.075912475212093
10
733.03782571045895
20
-88.075912475212007
42
0.41421356237309709
10
738.03782571045895
20
-83.075912475211965
10
738.03782571045917
20
-66.075912475211823
42
-0.41421356237309503
10
739.03782571045906
20
-65.075912475211808
10
747.03782571045906
20
-65.075912475211865
42
-0.41421356237309243
10
748.03782571045895
20
-66.075912475211794
10
748.03782571045895
20
-86.858166463978961
10
750.03782571045906
20
-97.558166463979035
10
748.03782571045895
20
-97.558166463979063
10
748.03782571045872
20
-141.07591393713074
42
-0.41421356237310025
10
747.03782571045872
20
-142.07591393713076
10
691.53782571045883
20
-142.07591393713079
10
691.53782571045883
20
-145.07591393713082
42
-0.41421356237310025
10
690.53782571045883
20
-146.07591393713082
10
682.53782571045895
20
-146.07591393713091
42
-0.41421356237309503
10
681.53782571045883
20
-145.07591393713082
10
681.53782571045883
20
-142.07591393713079
10
626.03782571045883
20
-142.07591393713079
42
-0.41421356237309503
10
625.03782571045895
20
-141.07591393713085
10
625.03782571045883
20
-117.75735818988137
10
623.53782571045883
20
-117.75735818988133
10
625.03782571045895
20
-107.55735818988126
10
625.03782571045906
20
-89.075912475212121
42
-0.41421356237307944
10
626.03782571045895
20
-88.075912475212107
10
638.42983107181146
20
-88.075912475212107
42
0.41421356237307422
10
639.42983107181146
20
-87.075912475212107
0
LWPOLYLINE
5
114
100
AcDbEntity
8
0
100
AcDbPolyline
90
8
70
1
43
0.0
10
659.82707712027388
20
-191.71733003764419
42
-0.41421356237309709
10
654.82707712027332
20
-186.71733003764473
10
654.82707712027047
20
-162.71732732280265
42
-0.41421356237309503
10
659.82707712026991
20
-157.71732732280208
10
696.32707712026968
20
-157.71732732279773
42
-0.41421356237310336
10
701.32707712027036
20
-162.71732732279716
10
701.32707712027297
20
-186.71733003763933
42
-0.41421356237309709
10
696.32707712027366
20
-191.71733003763987
0
CIRCLE
5
115
100
AcDbEntity
8
0
100
AcDbCircle
10
656.727077120275
20
-199.31733003764441
30
3.1554436208840472e-29
40
0.59999999999998954
210
1.1160164055393767e-30
220
-3.0814879110065666e-32
230
1
0
CIRCLE
5
116
100
AcDbEntity
8
0
100
AcDbCircle
10
629.72707712027511
20
-199.31733003764754
30
-2.5243548967072378e-28
40
0.59999999999999831
210
5.2437072662363013e-31
220
-1.3558546808480029e-31
230
1
0
CIRCLE
5
117
100
AcDbEntity
8
0
100
AcDbCircle
10
602.72707712027557
20
-199.31733003765075
30
0
40
0.59999999999999831
210
5.2437072662363013e-31
220
-1.3558546808480029e-31
230
1
0
LWPOLYLINE
5
118
100
AcDbEntity
8
0
100
AcDbPolyline
90
8
70
1
43
0.0
10
603.32707712027491
20
-191.71733003765073
42
-0.41421356237309293
10
598.32707712027423
20
-186.71733003765141
10
598.3270771202715
20
-162.71732732280921
42
-0.41421356237309709
10
603.32707712027081
20
-157.71732732280867
10
639.82707712027047
20
-157.71732732280444
42
-0.41421356237309709
10
644.82707712027104
20
-162.71732732280384
10
644.82707712027388
20
-186.71733003764598
42
-0.41421356237309709
10
639.82707712027457
20
-191.71733003764646
0
LWPOLYLINE
5
119
100
AcDbEntity
8
0
100
AcDbPolyline
90
25
70
1
43
0.0
10
595.32707712027616
20
-202.71733003765155
10
595.32707712027866
20
-223.71733003765121
42
-0.4142135623730534
10
594.32707712027866
20
-224.71733003765132
10
589.32707712027877
20
-224.71733003765189
42
-0.41421356237310542
10
588.32707712027866
20
-223.71733003765203
10
588.32707712026991
20
-148.71732732281055
42
-0.41421356237314189
10
589.32707712026979
20
-147.71732732281043
10
644.82707712026922
20
-147.71732732280395
10
644.82707712026877
20
-144.71732732280398
42
-0.41421356237327711
10
645.82707712026888
20
-143.71732732280384
10
653.82707712026854
20
-143.71732732280287
42
-0.41421356237317308
10
654.82707712026877
20
-144.71732732280279
10
654.82707712026911
20
-147.71732732280276
10
710.32707712026831
20
-147.71732732279636
42
-0.41421356237316265
10
711.32707712026843
20
-148.71732732279611
10
711.32707712027354
20
-192.23507604887115
10
713.32707712027354
20
-192.23507604887089
10
711.32707712027479
20
-202.93507604887105
10
711.32707712027741
20
-223.71733003763765
42
-0.41421356237307422
10
710.32707712027741
20
-224.71733003763777
10
702.32707712027764
20
-224.71733003763859
42
-0.41421356237316787
10
701.32707712027752
20
-223.71733003763882
10
701.32707712027559
20
-206.7173300376391
42
0.41421356237309503
10
696.32707712027491
20
-201.71733003763975
10
596.32707712027593
20
-201.71733003765149
42
0.41421356237303258
0
CIRCLE
5
120
100
AcDbEntity
8
0
100
AcDbCircle
10
611.64380708714043
20
-229.08850527110846
30
3.1554436208840472e-29
40
0.6000000000000052
210
9.3696491795831116e-32
220
3.4512664603418251e-31
230
1
0
CIRCLE
5
121
100
AcDbEntity
8
0
100
AcDbCircle
10
657.14380708714111
20
-229.08850527111352
30
0
40
0.60000000000000964
210
-1.0279651078152655e-30
220
6.0397163055994953e-31
230
1
0
CIRCLE
5
122
100
AcDbEntity
8
0
100
AcDbCircle
10
634.21880708714082
20
-229.08850527111099
30
-6.3108872417680944e-29
40
0.6000000000000052
210
9.3696491795831116e-32
220
3.4512664603418251e-31
230
1
0
CIRCLE
5
123
100
AcDbEntity
8
0
100
AcDbCircle
10
702.74380708714193
20
-229.21350527111767
30
3.1554436208840472e-29
40
0.60000000000000964
210
-1.0279651078152655e-30
220
6.0397163055994953e-31
230
1
0
CIRCLE
5
124
100
AcDbEntity
8
0
100
AcDbCircle
10
679.5938070871415
20
-229.08850527111599
30
0
40
0.60000000000000964
210
-1.0279651078152655e-30
220
6.0397163055994953e-31
230
1
0
LWPOLYLINE
5
125
100
AcDbEntity
8
0
100
AcDbPolyline
90
8
70
1
43
0.0
10
612.89380708713588
20
-270.81350527110851
42
-0.41421356237309709
10
607.89380708713645
20
-265.81350527110783
10
607.89380708713918
20
-241.68850527110675
42
-0.41421356237310125
10
612.89380708713975
20
-236.68850527110732
10
652.64380708714032
20
-236.68850527111218
42
-0.41421356237309293
10
657.64380708713986
20
-241.68850527111286
10
657.64380708713713
20
-265.81350527111346
42
-0.41421356237309503
10
652.64380708713657
20
-270.81350527111289
0
LWPOLYLINE
5
126
100
AcDbEntity
8
0
100
AcDbPolyline
90
8
70
1
43
0.0
10
672.64380708713691
20
-270.81350527111522
42
-0.41421356237309709
10
667.64380708713725
20
-265.81350527111448
10
667.64380708713998
20
-241.68850527111397
42
-0.41421356237309503
10
672.64380708714054
20
-236.68850527111456
10
712.39380708714111
20
-236.68850527111869
42
-0.41421356237309709
10
717.39380708714066
20
-241.68850527111942
10
717.39380708713782
20
-265.81350527112011
42
-0.41421356237309503
10
712.39380708713725
20
-270.81350527111954
0
LWPOLYLINE
5
127
100
AcDbEntity
8
0
100
AcDbPolyline
90
28
70
1
43
0.0
10
597.89380708714293
20
-204.81350527110891
42
-0.41421356237313667
10
598.89380708714316
20
-203.81350527110902
10
603.89380708714316
20
-203.81350527110959
42
-0.41421356237311585
10
604.89380708714305
20
-204.8135052711097
10
604.89380708714077
20
-225.68850527110681
42
0.4142135623730846
10
605.89380708714066
20
-226.68850527110692
10
714.39380708714225
20
-226.68850527111897
42
0.41421356237309159
10
717.39380708714248
20
-223.68850527111931
10
717.39380708714464
20
-204.81350527112224
42
-0.41421356237304302
10
718.39380708714475
20
-203.81350527112235
10
726.39380708714486
20
-203.81350527112329
42
-0.41421356237304302
10
727.39380708714475
20
-204.81350527112335
10
727.39380708714236
20
-225.84575925988793
10
729.39380708714123
20
-236.54575925988809
10
727.39380708714123
20
-236.54575925988792
10
727.39380708713668
20
-279.81350527112107
42
-0.4142135623730846
10
726.39380708713645
20
-280.81350527112102
10
667.64380708713566
20
-280.81350527111448
10
667.64380708713531
20
-283.81350527111442
42
-0.4142135623730846
10
666.64380708713509
20
-284.81350527111431
10
658.64380708713497
20
-284.81350527111323
42
-0.4142135623730534
10
657.6438070871352
20
-283.81350527111329
10
657.64380708713543
20
-280.81350527111334
10
598.89380708713463
20
-280.81350527110681
42
-0.41421356237307422
10
597.89380708713475
20
-279.81350527110669
10
597.89380708713725
20
-256.49495098577501
10
595.89380708713725
20
-256.49495098577478
10
597.89380708713838
20
-246.29495098577505
0
LWPOLYLINE
5
128
100
AcDbEntity
8
0
100
AcDbPolyline
90
40
70
1
43
0.0
10
586.0178288092045
20
-130.05263157894018
42
-0.41421356237307422
10
587.0178288092045
20
-131.05263157894012
10
587.01782880920462
20
-247.05263157893944
42
-0.41421356237309503
10
585.01782880920462
20
-249.05263157893944
10
569.01782880920473
20
-249.05263157893953
42
-0.4142135623730846
10
567.01782880920473
20
-247.05263157893941
10
567.01782880920473
20
-233.30263157893779
42
0.41421356237309503
10
562.01782880920473
20
-228.30263157893782
10
452.01782880920541
20
-228.30263157893773
42
0.41421356237309293
10
447.01782880920547
20
-233.30263157893765
10
447.01782880920541
20
-247.05263157893927
42
-0.41421356237310025
10
445.01782880920541
20
-249.05263157893927
10
429.01782880920564
20
-249.0526315789393
42
-0.41421356237308982
10
427.01782880920564
20
-247.05263157893924
10
427.01782880920564
20
-131.05263157893995
42
-0.4142135623730222
10
428.01782880920553
20
-130.05263157893998
10
442.21782947975748
20
-130.05263157893998
10
442.21782947975754
20
-127.05263157893998
42
-0.4142135623730222
10
443.21782947975748
20
-126.05263157894001
10
455.71782947975737
20
-126.05263157893995
42
-0.41421356237302737
10
456.71782947975737
20
-127.05263157894002
10
456.71782947975737
20
-130.05263157894001
10
477.21782947975726
20
-130.05263157894001
10
477.21782947975726
20
-127.05263157894002
42
-0.4142135623730222
10
478.2178294797572
20
-126.05263157894004
10
490.71782947975714
20
-126.05263157894017
42
-0.41421356237307944
10
491.71782947975709
20
-127.05263157894007
10
491.71782947975714
20
-130.05263157894004
10
522.21782947975692
20
-130.05263157894007
10
522.21782947975703
20
-127.05263157894008
42
-0.4142135623730222
10
523.21782947975692
20
-126.05263157894009
10
535.7178294797568
20
-126.05263157894012
42
-0.41421356237302737
10
536.71782947975669
20
-127.05263157894011
10
536.71782947975669
20
-130.05263157894009
10
557.21782947975657
20
-130.05263157894009
10
557.21782947975657
20
-127.05263157894011
42
-0.41421356237309503
10
558.21782947975657
20
-126.05263157894014
10
570.71782947975646
20
-126.05263157894008
42
-0.41421356237302737
10
571.71782947975646
20
-127.05263157894015
10
571.71782947975646
20
-130.05263157894012
0
LWPOLYLINE
5
129
100
AcDbEntity
8
0
100
AcDbPolyline
90
8
70
1
43
0.0
10
577.01782880920462
20
-191.80263157893862
10
577.0178288092045
20
-145.05263157893995
42
0.41421356237309503
10
572.01782880920462
20
-140.05263157894001
10
546.76783080920745
20
-140.05263157893998
42
0.41421356237309398
10
541.76783080920745
20
-145.0526315789399
10
541.76783080920768
20
-191.80263157893859
42
0.41421356237309087
10
546.76783080920745
20
-196.8026315789385
10
572.01782880920462
20
-196.8026315789385
42
0.41421356237309293
0
CIRCLE
5
130
100
AcDbEntity
8
0
100
AcDbCircle
10
466.9678294797589
20
-210.05263157893955
30
0
40
1.1249999999999978
210
8.7475587610802689e-32
220
6.7127342596099142e-47
230
1
0
CIRCLE
5
131
100
AcDbEntity
8
0
100
AcDbCircle
10
451.3928288092053
20
-140.0526315789399
30
-3.1554436208840472e-29
40
1.1249999999999978
210
8.7475587610802689e-32
220
6.7127342596099142e-47
230
1
0
CIRCLE
5
132
100
AcDbEntity
8
0
100
AcDbCircle
10
529.51782880920496
20
-164.32037759017322
30
-3.1554436208840472e-29
40
1.1249999999999889
210
3.9562437871276029e-31
220
-4.9303806576312937e-32
230
1
0
LWPOLYLINE
5
133
100
AcDbEntity
8
0
100
AcDbPolyline
90
8
70
1
43
0.0
10
517.26783080920779
20
-191.80263157893853
10
517.26783080920779
20
-145.0526315789399
42
0.41421356237310025
10
512.26783080920779
20
-140.05263157893995
10
468.64282880920513
20
-140.0526315789399
42
0.41421356237309398
10
463.64282880920518
20
-145.05263157893984
10
463.6428288092053
20
-191.80263157893847
42
0.41421356237309503
10
468.64282880920518
20
-196.80263157893845
10
512.26783080920779
20
-196.80263157893847
42
0.41421356237309503
0
LWPOLYLINE
5
134
100
AcDbEntity
8
0
100
AcDbPolyline
90
4
70
1
43
0.0
10
453.64282880920535
20
-174.32037759017305
10
449.14282880920541
20
-174.32037759017305
10
449.1428288092053
20
-185.02037759017296
10
453.6428288092053
20
-185.02037759017296
0
CIRCLE
5
135
100
AcDbEntity
8
0
100
AcDbCircle
10
506.96782947975862
20
-210.05263157893887
30
0
40
1.1249999999999889
210
3.9562437871276029e-31
220
-4.9303806576312937e-32
230
1
0
CIRCLE
5
136
100
AcDbEntity
8
0
100
AcDbCircle
10
451.3928288092053
20
-164.32037759017317
30
6.3108872417680944e-29
40
1.1249999999999978
210
8.7475587610802689e-32
220
6.7127342596099142e-47
230
1
0
CIRCLE
5
137
100
AcDbEntity
8
0
100
AcDbCircle
10
529.51782880920496
20
-140.05263157893995
30
-6.3108872417680944e-29
40
1.1249999999999889
210
3.9562437871276029e-31
220
-4.9303806576312937e-32
230
1
0
CIRCLE
5
138
100
AcDbEntity
8
0
100
AcDbCircle
10
546.96782947975828
20
-210.05263157893967
30
6.3108872417680944e-29
40
1.1249999999999889
210
3.9562437871276029e-31
220
-4.9303806576312937e-32
230
1
0
LWPOLYLINE
5
139
100
AcDbEntity
8
0
100
AcDbPolyline
90
4
70
1
43
0.0
10
537.21782947975828
20
-213.30263157893933
10
537.21782947975828
20
-206.80263157893916
10
521.71782947975862
20
-206.80263157893916
10
521.71782947975851
20
-213.30263157893935
0
LWPOLYLINE
5
140
100
AcDbEntity
8
0
100
AcDbPolyline
90
4
70
1
43
0.0
10
476.7178294797589
20
-206.80263157893836
10
476.7178294797589
20
-213.30263157893853
10
492.21782947975868
20
-213.3026315789385
10
492.21782947975868
20
-206.80263157893833
0
LWPOLYLINE
5
141
100
AcDbEntity
8
0
100
AcDbPolyline
90
4
70
1
43
0.0
10
556.71782947975817
20
-206.80263157893978
10
556.71782947975817
20
-213.30263157893995
10
572.21782947975794
20
-213.30263157893995
10
572.21782947975794
20
-206.80263157893975
0
LWPOLYLINE
5
142
100
AcDbEntity
8
0
100
AcDbPolyline
90
4
70
1
43
0.0
10
441.7178294797593
20
-206.80263157893773
10
441.7178294797593
20
-213.30263157893791
10
457.21782947975896
20
-213.30263157893791
10
457.21782947975896
20
-206.80263157893768
0
LWPOLYLINE
5
143
100
AcDbEntity
8
0
100
AcDbPolyline
90
4
70
1
43
0.0
10
531.76783080920768
20
-174.32037759017311
10
527.26783080920768
20
-174.32037759017311
10
527.26783080920768
20
-185.02037759017301
10
531.76783080920768
20
-185.02037759017301
0
CIRCLE
5
144
100
AcDbEntity
8
0
100
AcDbCircle
10
467.34727995930882
20
-43.32037759017355
30
0
40
1.1250000000000002
210
1.3377689949647601e-31
220
6.1629758220389529e-33
230
1
0
LWPOLYLINE
5
145
100
AcDbEntity
8
0
100
AcDbPolyline
90
4
70
1
43
0.0
10
547.72228195931086
20
-53.320377590173607
10
543.22228195931086
20
-53.320377590173599
10
543.22228195931086
20
-64.020377590173553
10
547.72228195931086
20
-64.020377590173553
0
CIRCLE
5
146
100
AcDbEntity
8
0
100
AcDbCircle
10
467.34727995930882
20
-16.052631578941092
30
3.1554436208840472e-29
40
1.1250000000000002
210
1.3377689949647601e-31
220
6.1629758220389529e-33
230
1
0
CIRCLE
5
147
100
AcDbEntity
8
0
100
AcDbCircle
10
545.47228195931086
20
-43.320377590173678
30
-3.1554436208840472e-29
40
1.1249999999999913
210
-1.8085685883853963e-33
220
2.7268791543690018e-48
230
1
0
LWPOLYLINE
5
148
100
AcDbEntity
8
0
100
AcDbPolyline
90
4
70
1
43
0.0
10
469.59727995930876
20
-64.020377590173453
10
469.59727995930876
20
-53.320377590173493
10
465.09727995930882
20
-53.320377590173479
10
465.09727995930882
20
-64.020377590173439
0
CIRCLE
5
149
100
AcDbEntity
8
0
100
AcDbCircle
10
545.47228195931098
20
-16.052631578941217
30
0
40
1.1249999999999913
210
-1.8085685883853963e-33
220
2.7268791543690018e-48
230
1
0
LWPOLYLINE
5
150
100
AcDbEntity
8
0
100
AcDbPolyline
90
4
70
1
43
0.0
10
457.67228062986237
20
-85.802631578938303
10
457.67228062986237
20
-92.302631578938517
10
473.17228062986209
20
-92.302631578938559
10
473.17228062986209
20
-85.802631578938332
0
LWPOLYLINE
5
151
100
AcDbEntity
8
0
100
AcDbPolyline
90
4
70
1
43
0.0
10
572.67228062986135
20
-85.802631578940407
10
572.67228062986135
20
-92.302631578940634
10
588.17228062986123
20
-92.302631578940662
10
588.17228062986112
20
-85.802631578940435
0
LWPOLYLINE
5
152
100
AcDbEntity
8
0
100
AcDbPolyline
90
4
70
1
43
0.0
10
492.67228062986203
20
-85.802631578938943
10
492.67228062986203
20
-92.302631578939156
10
508.1722806298618
20
-92.302631578939184
10
508.1722806298618
20
-85.802631578938971
0
LWPOLYLINE
5
153
100
AcDbEntity
8
0
100
AcDbPolyline
90
4
70
1
43
0.0
10
553.17228062986146
20
-92.302631578940023
10
553.17228062986146
20
-85.80263157893981
10
537.67228062986169
20
-85.802631578939781
10
537.67228062986169
20
-92.302631578939994
0
CIRCLE
5
154
100
AcDbEntity
8
0
100
AcDbCircle
10
482.92228062986203
20
-89.05263157893873
30
-6.3108872417680944e-29
40
1.1250000000000002
210
1.3377689949647601e-31
220
6.1629758220389529e-33
230
1
0
CIRCLE
5
155
100
AcDbEntity
8
0
100
AcDbCircle
10
522.92228062986169
20
-89.052631578939483
30
-3.1554436208840472e-29
40
1.1250000000000002
210
1.3377689949647601e-31
220
6.1629758220389529e-33
230
1
0
CIRCLE
5
156
100
AcDbEntity
8
0
100
AcDbCircle
10
562.92228062986146
20
-89.052631578940208
30
0
40
1.1249999999999913
210
-1.8085685883853963e-33
220
2.7268791543690018e-48
230
1
0
LWPOLYLINE
5
157
100
AcDbEntity
8
0
100
AcDbPolyline
90
8
70
1
43
0.0
10
592.9722799593078
20
-70.802631578940549
10
592.97227995930791
20
-24.052631578940318
42
0.41421356237309609
10
587.97227995930791
20
-19.052631578940339
10
562.72228195931075
20
-19.052631578940296
42
0.41421356237309553
10
557.72228195931086
20
-24.052631578940272
10
557.72228195931075
20
-70.802631578940492
42
0.41421356237309553
10
562.72228195931075
20
-75.802631578940478
10
587.9722799593078
20
-75.80263157894052
42
0.41421356237309503
0
LWPOLYLINE
5
158
100
AcDbEntity
8
0
100
AcDbPolyline
90
8
70
1
43
0.0
10
533.22228195931098
20
-70.802631578940463
10
533.22228195931098
20
-24.052631578940229
42
0.41421356237309193
10
528.22228195931109
20
-19.052631578940257
10
484.59727995930876
20
-19.05263157894019
42
0.41421356237309503
10
479.59727995930876
20
-24.052631578940158
10
479.59727995930871
20
-70.802631578940378
42
0.4142135623730997
10
484.59727995930871
20
-75.802631578940364
10
528.22228195931098
20
-75.802631578940435
42
0.41421356237309503
0
LWPOLYLINE
5
159
100
AcDbEntity
8
0
100
AcDbPolyline
90
46
70
1
43
0.0
10
433.01368800466923
20
-127.14354066984913
42
-0.38779458240879822
10
432.0178288092053
20
-128.05263157894004
10
423.99861399829842
20
-128.05263157894001
42
-0.42972157715846476
10
423.00000000035055
20
-126.99999999999265
42
-0.25388886681716483
10
432.97227995930871
20
-110.73212350325139
10
437.97227995930859
20
-107.84537215730332
42
0.26794919243112392
10
442.97227995930859
20
-99.185118119458963
10
442.97227995930876
20
-10.05263157894017
42
-0.41421356237304563
10
443.97227995930876
20
-9.0526315789402076
10
458.17228062986078
20
-9.0526315789402272
10
458.17228062986067
20
-6.0526315789410736
42
-0.41421356237304563
10
459.17228062986067
20
-5.0526315789410772
10
471.67228062986061
20
-5.0526315789410683
42
-0.41421356237307749
10
472.67228062986072
20
-6.0526315789410932
10
472.67228062986067
20
-9.0526315789402343
10
493.17228062986055
20
-9.0526315789402627
10
493.17228062986038
20
-6.0526315789411269
42
-0.41421356237307683
10
494.1722806298605
20
-5.0526315789411305
10
506.67228062986044
20
-5.0526315789411571
42
-0.41421356237304624
10
507.67228062986044
20
-6.0526315789411465
10
507.67228062986032
20
-9.0526315789402911
10
538.17228062986021
20
-9.0526315789403338
10
538.1722806298601
20
-6.0526315789411802
42
-0.41421356237307683
10
539.17228062986021
20
-5.0526315789411838
10
551.6722806298601
20
-5.0526315789412459
42
-0.41421356237307749
10
552.6722806298601
20
-6.0526315789411997
10
552.6722806298601
20
-9.0526315789403586
10
573.17228062985998
20
-9.0526315789403871
10
573.17228062985987
20
-6.0526315789412335
42
-0.41421356237307683
10
574.17228062985987
20
-5.052631578941237
10
586.67228062985987
20
-5.0526315789412637
42
-0.41421356237304624
10
587.67228062985987
20
-6.052631578941253
10
587.67228062985976
20
-9.0526315789404208
10
601.9722799593078
20
-9.052631578940467
42
-0.41421356237307227
10
602.9722799593078
20
-10.052631578940403
10
602.97227995930768
20
-99.185118119459204
42
0.2679491924311237
10
607.97227995930768
20
-107.84537215730353
10
612.97227995930757
20
-110.73212350325173
42
-0.25388886681716327
10
622.94455991826567
20
-126.99999999999298
42
-0.42972157715854059
10
621.94594592031774
20
-128.05263157894032
10
613.92673110941087
20
-128.05263157894024
42
-0.38779458240881159
10
612.93087191394704
20
-127.14354066984937
42
0.16377564532625513
10
610.35445197931642
20
-121.3070006768676
42
0.2106408605154951
10
609.61623477731553
20
-120.98156376707487
10
436.32832514130064
20
-120.98156376707463
42
0.21064086051546749
10
435.59010793929986
20
-121.30700067686737
42
0.16377564532625835
0
LWPOLYLINE
5
160
100
AcDbEntity
8
0
100
AcDbPolyline
90
33
70
1
43
0.0
10
368.00000000017519
20
-6.9999999999939302
42
-0.41421356237307716
10
369.00000000017519
20
-5.9999999999939426
10
387.48144300017498
20
-5.9999999999938156
10
397.68144300017497
20
-4.4999999999937499
10
397.68144300017497
20
-5.9999999999937277
10
421.0000000003489
20
-5.9999999999935358
42
-0.41421356237307522
10
422.0000000003489
20
-6.9999999999934825
10
422.00000000035061
20
-79.999999999993022
10
425.00000000035067
20
-79.999999999993108
42
-0.414213562373069
10
426.00000000035061
20
-80.999999999992966
10
426.00000000035084
20
-88.999999999992951
42
-0.41421356237307944
10
425.00000000035078
20
-89.999999999992923
10
422.00000000035089
20
-89.999999999992966
10
422.000000000353
20
-162.99999999999244
42
-0.41421356237311585
10
421.000000000353
20
-163.99999999999241
10
369.00000000017883
20
-163.99999999999289
42
-0.4142135623730534
10
368.00000000017883
20
-162.99999999999287
10
368.00000000017792
20
-123.20450536134572
42
0.41421356237310542
10
365.00000000017786
20
-120.2045053613457
10
346.00000000017786
20
-120.20450536134587
42
-0.41421356237301699
10
345.00000000017792
20
-119.20450536134589
10
345.00000000017781
20
-113.20450536134587
42
-0.41421356237304818
10
346.00000000017769
20
-112.20450536134591
10
365.00000000017769
20
-112.20450536134571
42
0.41421356237308116
10
368.00000000017752
20
-109.20450536134574
10
368.00000000017576
20
-31.392005361346285
42
0.41421356237310414
10
365.0000000001757
20
-28.392005361346278
10
346.00000000017582
20
-28.392005361346403
42
-0.41421356237307549
10
345.00000000017576
20
-27.392005361346456
10
345.00000000017565
20
-21.392005361346477
42
-0.41421356237305601
10
346.00000000017559
20
-20.392005361346492
10
365.00000000017559
20
-20.392005361346332
42
0.41421356237308332
10
368.00000000017542
20
-17.392005361346328
0
CIRCLE
5
161
100
AcDbEntity
8
0
100
AcDbCircle
10
370.40000000017534
20
-12.949999999993839
30
0
40
0.60000000000000164
210
6.9061182389700227e-34
220
-3.6977854932234917e-32
230
1
0
LWPOLYLINE
5
162
100
AcDbEntity
8
0
100
AcDbPolyline
90
8
70
1
43
0.0
10
412.0000000003505
20
-74.999999999993051
42
-0.41421356237308982
10
407.00000000035072
20
-79.99999999999315
10
383.00000000017684
20
-79.999999999993378
42
-0.41421356237310492
10
378.00000000017667
20
-74.999999999993349
10
378.00000000017548
20
-20.999999999993779
42
-0.41421356237308438
10
383.00000000017525
20
-15.999999999993783
10
407.00000000034919
20
-15.999999999993566
42
-0.4142135623730997
10
412.00000000034925
20
-20.999999999993577
0
CIRCLE
5
163
100
AcDbEntity
8
0
100
AcDbCircle
10
370.4250000001764
20
-58.949999999993487
30
0
40
0.60000000000000164
210
6.9061182389700227e-34
220
-3.6977854932234917e-32
230
1
0
CIRCLE
5
164
100
AcDbEntity
8
0
100
AcDbCircle
10
370.42500000017696
20
-82.049999999993332
30
0
40
0.59999999999998388
210
6.9061182389699329e-34
220
-3.0814879110195757e-32
230
1
0
CIRCLE
5
165
100
AcDbEntity
8
0
100
AcDbCircle
10
370.42500000017748
20
-104.74999999999315
30
3.1554436208840472e-29
40
0.59999999999998388
210
6.9061182389699329e-34
220
-3.0814879110195757e-32
230
1
0
CIRCLE
5
166
100
AcDbEntity
8
0
100
AcDbCircle
10
370.42500000017856
20
-150.24999999999278
30
0
40
0.59999999999998388
210
6.9061182389699329e-34
220
-3.0814879110195757e-32
230
1
0
LWPOLYLINE
5
167
100
AcDbEntity
8
0
100
AcDbPolyline
90
8
70
1
43
0.0
10
412.0000000003522
20
-148.99999999999255
42
-0.41421356237308876
10
407.00000000035243
20
-153.99999999999264
10
383.0000000001786
20
-153.99999999999284
42
-0.41421356237310125
10
378.00000000017849
20
-148.99999999999281
10
378.00000000017718
20
-94.999999999993264
42
-0.4142135623730836
10
383.00000000017695
20
-89.999999999993292
10
407.00000000035089
20
-89.999999999993037
42
-0.41421356237310542
10
412.00000000035106
20
-94.999999999993065
0
CIRCLE
5
168
100
AcDbEntity
8
0
100
AcDbCircle
10
370.42500000017588
20
-35.849999999993571
30
3.1554436208840472e-29
40
0.60000000000000164
210
6.9061182389700227e-34
220
-3.6977854932234917e-32
230
1
0
CIRCLE
5
169
100
AcDbEntity
8
0
100
AcDbCircle
10
370.42500000017804
20
-127.67499999999295
30
0
40
0.59999999999998388
210
6.9061182389699329e-34
220
-3.0814879110195757e-32
230
1
0
LWPOLYLINE
5
170
100
AcDbEntity
8
0
100
AcDbPolyline
90
26
70
1
43
0.0
10
367.97500000019897
20
-167.00000000000955
42
-0.4142135623730534
10
368.97500000019909
20
-166.00000000000966
10
420.95000000037305
20
-166.00000000001671
42
-0.4142135623730846
10
421.95000000037294
20
-167.00000000001683
10
421.95000000036231
20
-240.00000000001677
10
424.95000000036225
20
-240.00000000001711
42
-0.41421356237304302
10
425.95000000036214
20
-241.00000000001725
10
425.95000000036094
20
-249.00000000001728
42
-0.41421356237307422
10
424.95000000036072
20
-250.00000000001711
10
421.95000000036077
20
-250.00000000001671
10
421.95000000035054
20
-323.00000000001666
42
-0.41421356237309503
10
420.95000000035043
20
-324.00000000001648
10
345.97500000017595
20
-324.00000000000637
42
-0.41421356237309503
10
344.97500000017612
20
-323.00000000000625
10
344.97500000017703
20
-317.0000000000062
42
-0.4142135623730534
10
345.97500000017709
20
-316.00000000000642
10
365.97500000017709
20
-316.00000000000909
42
0.4142135623730846
10
367.97500000017743
20
-314.00000000000938
10
367.97500000019409
20
-199.89200536136178
42
0.41421356237312101
10
365.97500000019443
20
-197.89200536136147
10
345.97500000019443
20
-197.89200536135871
42
-0.41421356237307422
10
344.97500000019465
20
-196.89200536135871
10
344.97500000019545
20
-190.89200536135866
42
-0.4142135623730534
10
345.97500000019556
20
-189.89200536135883
10
365.97500000019568
20
-189.89200536136153
42
0.41421356237309503
10
367.97500000019591
20
-187.89200536136181
0
CIRCLE
5
171
100
AcDbEntity
8
0
100
AcDbCircle
10
370.37500000017928
20
-301.50000000000949
30
3.1554436208840472e-29
40
0.5999999999999871
210
1.0027775552781621e-31
220
-1.4703353370813198e-44
230
1
0
CIRCLE
5
172
100
AcDbEntity
8
0
100
AcDbCircle
10
370.37500000018332
20
-273.90000000000953
30
0
40
0.5999999999999871
210
1.0027775552781621e-31
220
-1.4703353370813198e-44
230
1
0
CIRCLE
5
173
100
AcDbEntity
8
0
100
AcDbCircle
10
370.37500000018906
20
-234.40000000000964
30
-3.1554436208840472e-29
40
0.60000000000000486
210
5.0973948951504636e-32
220
1.2325951644070835e-32
230
1
0
LWPOLYLINE
5
174
100
AcDbEntity
8
0
100
AcDbPolyline
90
8
70
1
43
0.0
10
411.95000000036305
20
-235.00000000001549
42
-0.41421356237309503
10
406.95000000036214
20
-240.00000000001475
10
382.97500000018823
20
-240.00000000001143
42
-0.41421356237308254
10
377.97500000018897
20
-235.00000000001086
10
377.97500000019693
20
-181.00000000001086
42
-0.41421356237309709
10
382.97500000019761
20
-176.00000000001157
10
406.95000000037169
20
-176.00000000001478
42
-0.41421356237308254
10
411.95000000037089
20
-181.00000000001535
0
LWPOLYLINE
5
175
100
AcDbEntity
8
0
100
AcDbPolyline
90
8
70
1
43
0.0
10
411.95000000035208
20
-309.00000000001535
42
-0.41421356237309503
10
406.95000000035128
20
-314.00000000001461
10
382.97500000017737
20
-314.00000000001137
42
-0.41421356237308254
10
377.97500000017811
20
-309.0000000000108
10
377.97500000018601
20
-255.00000000001077
42
-0.41421356237309709
10
382.97500000018687
20
-250.00000000001148
10
406.95000000036077
20
-250.00000000001475
42
-0.41421356237308049
10
411.95000000036003
20
-255.00000000001529
0
CIRCLE
5
176
100
AcDbEntity
8
0
100
AcDbCircle
10
370.37500000019304
20
-207.4000000000095
30
0
40
0.60000000000000486
210
5.0973948951504636e-32
220
1.2325951644070835e-32
230
1
0
CIRCLE
5
177
100
AcDbEntity
8
0
100
AcDbCircle
10
370.37500000019696
20
-180.40000000000961
30
0
40
0.60000000000000486
210
5.0973948951504636e-32
220
1.2325951644070835e-32
230
1
0
LWPOLYLINE
5
178
100
AcDbEntity
8
0
100
AcDbPolyline
90
26
70
1
43
0.0
10
343.97500000017595
20
-323.00000000000603
42
-0.41421356237313667
10
342.9750000001759
20
-324.00000000000603
10
291.00000000000199
20
-324.0000000000046
42
-0.41421356237301177
10
290.00000000000199
20
-323.00000000000466
10
290.00000000000398
20
-250.00000000000472
10
287.00000000000398
20
-250.00000000000466
42
-0.41421356237306384
10
286.00000000000398
20
-249.00000000000463
10
286.00000000000426
20
-241.0000000000046
42
-0.4142135623730534
10
287.00000000000426
20
-240.00000000000466
10
290.00000000000426
20
-240.00000000000472
10
290.00000000000574
20
-167.00000000000477
42
-0.41421356237306384
10
291.0000000000058
20
-166.0000000000048
10
365.97500000018016
20
-166.00000000000682
42
-0.41421356237314705
10
366.97500000018016
20
-167.00000000000682
10
366.9750000001801
20
-173.00000000000682
42
-0.41421356237306384
10
365.97500000017999
20
-174.00000000000676
10
345.97500000017999
20
-174.00000000000628
42
0.41421356237310542
10
343.97500000017999
20
-176.0000000000062
10
343.97500000017686
20
-290.10799463865379
42
0.41421356237311063
10
345.97500000017681
20
-292.10799463865391
10
365.97500000017675
20
-292.1079946386543
42
-0.41421356237311585
10
366.97500000017675
20
-293.10799463865442
10
366.97500000017658
20
-299.10799463865442
42
-0.41421356237301177
10
365.97500000017658
20
-300.10799463865442
10
345.97500000017658
20
-300.10799463865385
42
0.41421356237312101
10
343.97500000017652
20
-302.10799463865379
0
CIRCLE
5
179
100
AcDbEntity
8
0
100
AcDbCircle
10
341.57500000017961
20
-188.50000000000634
30
0
40
0.59999999999998699
210
1.2936832548608784e-32
220
-3.5370047592684438e-46
230
1
0
CIRCLE
5
180
100
AcDbEntity
8
0
100
AcDbCircle
10
341.57500000017882
20
-216.10000000000633
30
0
40
0.59999999999998699
210
1.2936832548608784e-32
220
-3.5370047592684438e-46
230
1
0
CIRCLE
5
181
100
AcDbEntity
8
0
100
AcDbCircle
10
341.57500000017774
20
-255.60000000000616
30
0
40
0.60000000000000475
210
1.2936832548608959e-32
220
-3.5370047592684912e-46
230
1
0
LWPOLYLINE
5
182
100
AcDbEntity
8
0
100
AcDbPolyline
90
8
70
1
43
0.0
10
300.00000000000381
20
-255.00000000000495
42
-0.41421356237309087
10
305.00000000000392
20
-250.00000000000509
10
328.975000000178
20
-250.00000000000574
42
-0.41421356237309293
10
333.97500000017783
20
-255.00000000000585
10
333.97500000017629
20
-309.00000000000585
42
-0.41421356237309503
10
328.97500000017624
20
-314.00000000000568
10
305.00000000000222
20
-314.000000000005
42
-0.41421356237309293
10
300.00000000000239
20
-309.00000000000495
0
LWPOLYLINE
5
183
100
AcDbEntity
8
0
100
AcDbPolyline
90
8
70
1
43
0.0
10
300.00000000000585
20
-181.00000000000503
42
-0.41421356237309087
10
305.00000000000603
20
-176.00000000000517
10
328.97500000017999
20
-176.00000000000585
42
-0.41421356237309293
10
333.97500000017988
20
-181.00000000000594
10
333.9750000001784
20
-235.00000000000591
42
-0.41421356237309087
10
328.97500000017823
20
-240.00000000000571
10
305.00000000000421
20
-240.00000000000512
42
-0.41421356237308876
10
300.00000000000438
20
-235.000000000005
0
CIRCLE
5
184
100
AcDbEntity
8
0
100
AcDbCircle
10
341.57500000017706
20
-282.60000000000633
30
0
40
0.60000000000000475
210
1.2936832548608959e-32
220
-3.5370047592684912e-46
230
1
0
CIRCLE
5
185
100
AcDbEntity
8
0
100
AcDbCircle
10
341.57500000017637
20
-309.60000000000628
30
0
40
0.60000000000000475
210
1.2936832548608959e-32
220
-3.5370047592684912e-46
230
1
0
LWPOLYLINE
5
186
100
AcDbEntity
8
0
100
AcDbPolyline
90
33
70
1
43
0.0
10
344.00000000017877
20
-162.9999999999919
42
-0.41421356237307422
10
343.00000000017872
20
-163.99999999999184
10
324.51855700017893
20
-163.99999999999213
10
314.318557000179
20
-165.49999999999227
10
314.318557000179
20
-163.99999999999227
10
291.00000000000512
20
-163.9999999999927
42
-0.41421356237313667
10
290.00000000000506
20
-162.99999999999272
10
290.00000000000284
20
-89.999999999993193
10
287.00000000000284
20
-89.999999999993264
42
-0.41421356237312101
10
286.00000000000284
20
-88.999999999993264
10
286.00000000000261
20
-80.999999999993292
42
-0.41421356237306384
10
287.0000000000025
20
-79.999999999993307
10
290.0000000000025
20
-79.999999999993264
10
289.99999999999983
20
-6.9999999999938147
42
-0.41421356237309537
10
290.99999999999983
20
-5.9999999999938156
10
343.000000000174
20
-5.9999999999929994
42
-0.41421356237307355
10
344.000000000174
20
-6.9999999999929408
10
344.00000000017519
20
-46.795494638640122
42
0.41421356237310897
10
347.00000000017531
20
-49.795494638640093
10
366.00000000017525
20
-49.79549463863988
42
-0.41421356237307422
10
367.00000000017519
20
-50.795494638639752
10
367.00000000017542
20
-56.795494638639745
42
-0.41421356237302481
10
366.00000000017542
20
-57.795494638639738
10
347.00000000017553
20
-57.795494638640051
42
0.41421356237309337
10
344.00000000017565
20
-60.795494638640086
10
344.00000000017798
20
-138.60799463863947
42
0.41421356237311063
10
347.00000000017809
20
-141.60799463863947
10
366.00000000017803
20
-141.60799463863913
42
-0.4142135623730222
10
367.00000000017803
20
-142.60799463863916
10
367.00000000017815
20
-148.60799463863916
42
-0.41421356237304818
10
366.00000000017815
20
-149.60799463863913
10
347.00000000017832
20
-149.60799463863944
42
0.41421356237309159
10
344.00000000017849
20
-152.60799463863944
0
CIRCLE
5
187
100
AcDbEntity
8
0
100
AcDbCircle
10
341.60000000017862
20
-157.04999999999194
30
-3.1554436208840472e-29
40
0.60000000000000142
210
4.8185864426923702e-33
220
1.7256332301709646e-31
230
1
0
LWPOLYLINE
5
188
100
AcDbEntity
8
0
100
AcDbPolyline
90
8
70
1
43
0.0
10
300.00000000000296
20
-94.999999999993065
42
-0.41421356237308982
10
305.00000000000267
20
-89.999999999992951
10
329.00000000017656
20
-89.999999999992539
42
-0.41421356237310125
10
334.00000000017678
20
-94.999999999992497
10
334.00000000017837
20
-148.9999999999921
42
-0.41421356237308565
10
329.0000000001786
20
-153.99999999999213
10
305.00000000000466
20
-153.99999999999253
42
-0.41421356237309814
10
300.0000000000046
20
-148.99999999999258
0
CIRCLE
5
189
100
AcDbEntity
8
0
100
AcDbCircle
10
341.57500000017711
20
-111.04999999999234
30
0
40
0.60000000000000142
210
4.8185864426923702e-33
220
1.7256332301709646e-31
230
1
0
CIRCLE
5
190
100
AcDbEntity
8
0
100
AcDbCircle
10
341.57500000017649
20
-87.949999999992471
30
-3.1554436208840472e-29
40
0.59999999999998366
210
4.818586442692195e-33
220
1.7256332301709646e-31
230
1
0
CIRCLE
5
191
100
AcDbEntity
8
0
100
AcDbCircle
10
341.57500000017581
20
-65.249999999992667
30
0
40
0.59999999999998366
210
4.818586442692195e-33
220
1.7256332301709646e-31
230
1
0
CIRCLE
5
192
100
AcDbEntity
8
0
100
AcDbCircle
10
341.57500000017444
20
-19.749999999993051
30
0
40
0.59999999999998366
210
4.818586442692195e-33
220
1.7256332301709646e-31
230
1
0
LWPOLYLINE
5
193
100
AcDbEntity
8
0
100
AcDbPolyline
90
8
70
1
43
0.0
10
300.00000000000068
20
-20.999999999993619
42
-0.41421356237308982
10
305.00000000000045
20
-15.999999999993495
10
329.00000000017434
20
-15.999999999993069
42
-0.41421356237310281
10
334.00000000017451
20
-20.999999999993058
10
334.0000000001761
20
-74.999999999992582
42
-0.41421356237308776
10
329.00000000017633
20
-79.999999999992639
10
305.00000000000239
20
-79.999999999993022
42
-0.41421356237310075
10
300.00000000000233
20
-74.999999999993065
0
CIRCLE
5
194
100
AcDbEntity
8
0
100
AcDbCircle
10
341.57500000017785
20
-134.14999999999225
30
-3.1554436208840472e-29
40
0.60000000000000142
210
4.8185864426923702e-33
220
1.7256332301709646e-31
230
1
0
CIRCLE
5
195
100
AcDbEntity
8
0
100
AcDbCircle
10
341.57500000017507
20
-42.324999999992855
30
0
40
0.59999999999998366
210
4.818586442692195e-33
220
1.7256332301709646e-31
230
1
0
LWPOLYLINE
5
196
100
AcDbEntity
8
0
100
AcDbPolyline
90
33
70
1
43
0.0
10
227.00000000016888
20
-6.999999999997498
42
-0.41421356237309925
10
228.00000000016882
20
-5.9999999999975264
10
246.48144300016853
20
-5.999999999997403
10
256.68144300016837
20
-4.4999999999973603
10
256.68144300016843
20
-5.9999999999973266
10
280.00000000034214
20
-5.9999999999971276
42
-0.41421356237312623
10
281.0000000003422
20
-6.9999999999970708
10
281.00000000034419
20
-79.999999999996007
10
284.00000000034419
20
-79.999999999995964
42
-0.41421356237313145
10
285.00000000034419
20
-80.999999999995964
10
285.00000000034441
20
-88.999999999995907
42
-0.41421356237307422
10
284.00000000034447
20
-89.999999999995822
10
281.00000000034447
20
-89.999999999995879
10
281.00000000034692
20
-162.99999999999474
42
-0.41421356237307422
10
280.00000000034703
20
-163.99999999999466
10
228.00000000017323
20
-163.99999999999511
42
-0.41421356237313667
10
227.0000000001732
20
-162.99999999999514
10
227.00000000017209
20
-123.20450536134834
42
0.41421356237311063
10
224.00000000017201
20
-120.20450536134831
10
205.00000000017224
20
-120.20450536134848
42
-0.41421356237313667
10
204.00000000017218
20
-119.20450536134851
10
204.00000000017201
20
-113.20450536134854
42
-0.414213562373069
10
205.00000000017198
20
-112.20450536134859
10
224.00000000017184
20
-112.20450536134842
42
0.41421356237308637
10
227.0000000001717
20
-109.20450536134845
10
227.00000000016954
20
-31.392005361349678
42
0.41421356237310636
10
224.00000000016948
20
-28.392005361349675
10
205.00000000016971
20
-28.39200536134986
42
-0.41421356237313667
10
204.00000000016962
20
-27.392005361349845
10
204.00000000016956
20
-21.392005361349913
42
-0.4142135623730846
10
205.00000000016951
20
-20.392005361349948
10
224.00000000016928
20
-20.392005361349792
42
0.4142135623730866
10
227.00000000016914
20
-17.392005361349817
0
CIRCLE
5
197
100
AcDbEntity
8
0
100
AcDbCircle
10
229.40000000016897
20
-12.949999999997367
30
3.1554436208840472e-29
40
0.59999999999999754
210
-5.6777317541172963e-33
220
-3.0814879110195938e-32
230
1
0
LWPOLYLINE
5
198
100
AcDbEntity
8
0
100
AcDbPolyline
90
8
70
1
43
0.0
10
271.00000000034419
20
-74.999999999996078
42
-0.41421356237308982
10
266.00000000034447
20
-79.999999999996135
10
242.0000000001707
20
-79.999999999996319
42
-0.41421356237310597
10
237.00000000017064
20
-74.999999999996348
10
237.00000000016914
20
-20.999999999997236
42
-0.41421356237308149
10
242.00000000016882
20
-15.999999999997293
10
266.0000000003426
20
-15.99999999999708
42
-0.41421356237310358
10
271.00000000034265
20
-20.999999999997083
0
CIRCLE
5
199
100
AcDbEntity
8
0
100
AcDbCircle
10
229.42500000017026
20
-58.949999999996628
30
3.1554436208840472e-29
40
0.59999999999999754
210
-5.6777317541172963e-33
220
-3.0814879110195938e-32
230
1
0
CIRCLE
5
200
100
AcDbEntity
8
0
100
AcDbCircle
10
229.42500000017088
20
-82.049999999996302
30
0
40
0.59999999999997977
210
-5.6777317541172032e-33
220
-3.6977854932235098e-32
230
1
0
CIRCLE
5
201
100
AcDbEntity
8
0
100
AcDbCircle
10
229.42500000017151
20
-104.74999999999594
30
0
40
0.59999999999997977
210
-5.6777317541172032e-33
220
-3.6977854932235098e-32
230
1
0
CIRCLE
5
202
100
AcDbEntity
8
0
100
AcDbCircle
10
229.42500000017279
20
-150.24999999999517
30
0
40
0.59999999999997977
210
-5.6777317541172032e-33
220
-3.6977854932235098e-32
230
1
0
LWPOLYLINE
5
203
100
AcDbEntity
8
0
100
AcDbPolyline
90
8
70
1
43
0.0
10
271.00000000034623
20
-148.99999999999494
42
-0.41421356237308982
10
266.00000000034652
20
-153.999999999995
10
242.00000000017272
20
-153.9999999999952
42
-0.41421356237310542
10
237.00000000017269
20
-148.9999999999952
10
237.00000000017116
20
-94.999999999996135
42
-0.41421356237308254
10
242.00000000017084
20
-89.999999999996163
10
266.00000000034464
20
-89.999999999995993
42
-0.41421356237310542
10
271.0000000003447
20
-94.999999999995993
0
CIRCLE
5
204
100
AcDbEntity
8
0
100
AcDbCircle
10
229.42500000016963
20
-35.849999999996903
30
-3.1554436208840472e-29
40
0.59999999999999754
210
-5.6777317541172963e-33
220
-3.0814879110195938e-32
230
1
0
CIRCLE
5
205
100
AcDbEntity
8
0
100
AcDbCircle
10
229.42500000017216
20
-127.67499999999552
30
0
40
0.59999999999997977
210
-5.6777317541172032e-33
220
-3.6977854932235098e-32
230
1
0
LWPOLYLINE
5
206
100
AcDbEntity
8
0
100
AcDbPolyline
90
26
70
1
43
0.0
10
226.9750000001988
20
-167.00000000000571
42
-0.41421356237307422
10
227.97500000019895
20
-166.00000000000585
10
279.95000000037294
20
-166.0000000000129
42
-0.41421356237306384
10
280.95000000037277
20
-167.00000000001299
10
280.95000000036208
20
-240.00000000001296
10
283.95000000036208
20
-240.00000000001333
42
-0.41421356237307422
10
284.95000000036197
20
-241.00000000001347
10
284.95000000036077
20
-249.00000000001347
42
-0.41421356237307422
10
283.95000000036066
20
-250.00000000001333
10
280.9500000003606
20
-250.00000000001293
10
280.95000000035037
20
-323.00000000001285
42
-0.41421356237309503
10
279.95000000035026
20
-324.00000000001273
10
204.97500000017578
20
-324.00000000000256
42
-0.41421356237306384
10
203.97500000017595
20
-323.00000000000244
10
203.97500000017681
20
-317.00000000000244
42
-0.41421356237307422
10
204.97500000017695
20
-316.00000000000256
10
224.97500000017698
20
-316.00000000000529
42
0.41421356237309503
10
226.97500000017726
20
-314.00000000000557
10
226.975000000194
20
-199.89200536135797
42
0.41421356237308982
10
224.97500000019429
20
-197.89200536135769
10
204.97500000019429
20
-197.89200536135502
42
-0.41421356237306384
10
203.97500000019443
20
-196.8920053613549
10
203.97500000019534
20
-190.89200536135485
42
-0.41421356237307422
10
204.97500000019545
20
-189.89200536135502
10
224.97500000019545
20
-189.89200536135772
42
0.41421356237309503
10
226.97500000019576
20
-187.89200536135803
0
CIRCLE
5
207
100
AcDbEntity
8
0
100
AcDbCircle
10
229.37500000017911
20
-301.50000000000568
30
0
40
0.5999999999999871
210
1.0027775552781621e-31
220
-1.4703353370813198e-44
230
1
0
CIRCLE
5
208
100
AcDbEntity
8
0
100
AcDbCircle
10
229.37500000018318
20
-273.90000000000572
30
3.1554436208840472e-29
40
0.5999999999999871
210
1.0027775552781621e-31
220
-1.4703353370813198e-44
230
1
0
CIRCLE
5
209
100
AcDbEntity
8
0
100
AcDbCircle
10
229.37500000018898
20
-234.40000000000589
30
0
40
0.60000000000000486
210
5.0973948951504636e-32
220
1.2325951644070835e-32
230
1
0
LWPOLYLINE
5
210
100
AcDbEntity
8
0
100
AcDbPolyline
90
8
70
1
43
0.0
10
270.95000000036282
20
-235.00000000001165
42
-0.41421356237309503
10
265.95000000036202
20
-240.00000000001091
10
241.97500000018809
20
-240.00000000000765
42
-0.4142135623730846
10
236.97500000018886
20
-235.00000000000708
10
236.97500000019676
20
-181.00000000000705
42
-0.41421356237310336
10
241.97500000019755
20
-176.00000000000776
10
265.95000000037146
20
-176.000000000011
42
-0.4142135623730846
10
270.95000000037072
20
-181.00000000001157
0
LWPOLYLINE
5
211
100
AcDbEntity
8
0
100
AcDbPolyline
90
8
70
1
43
0.0
10
270.95000000035202
20
-309.0000000000116
42
-0.41421356237309503
10
265.95000000035117
20
-314.0000000000108
10
241.97500000017726
20
-314.00000000000756
42
-0.41421356237308671
10
236.97500000017797
20
-309.00000000000699
10
236.9750000001859
20
-255.00000000000696
42
-0.41421356237309709
10
241.9750000001867
20
-250.00000000000767
10
265.9500000003606
20
-250.00000000001091
42
-0.41421356237308254
10
270.95000000035992
20
-255.00000000001148
0
CIRCLE
5
212
100
AcDbEntity
8
0
100
AcDbCircle
10
229.37500000019293
20
-207.40000000000572
30
3.1554436208840472e-29
40
0.60000000000000486
210
5.0973948951504636e-32
220
1.2325951644070835e-32
230
1
0
CIRCLE
5
213
100
AcDbEntity
8
0
100
AcDbCircle
10
229.37500000019685
20
-180.40000000000583
30
0
40
0.60000000000000486
210
5.0973948951504636e-32
220
1.2325951644070835e-32
230
1
0
LWPOLYLINE
5
214
100
AcDbEntity
8
0
100
AcDbPolyline
90
26
70
1
43
0.0
10
202.97500000017595
20
-323.00000000000233
42
-0.41421356237309503
10
201.97500000017595
20
-324.00000000000233
10
150.00000000000193
20
-324.00000000000097
42
-0.4142135623730378
10
149.00000000000199
20
-323.00000000000097
10
149.00000000000398
20
-250.00000000000102
10
146.00000000000395
20
-250.00000000000091
42
-0.41421356237307944
10
145.00000000000401
20
-249.00000000000094
10
145.00000000000423
20
-241.00000000000091
42
-0.41421356237309503
10
146.00000000000423
20
-240.00000000000097
10
149.00000000000426
20
-240.00000000000102
10
149.00000000000577
20
-167.00000000000108
42
-0.41421356237311063
10
150.0000000000058
20
-166.00000000000111
10
224.97500000018024
20
-166.00000000000307
42
-0.4142135623730534
10
225.97500000018022
20
-167.00000000000313
10
225.97500000018002
20
-173.00000000000313
42
-0.41421356237307422
10
224.97500000017999
20
-174.00000000000307
10
204.97500000017999
20
-174.00000000000259
42
0.41421356237309503
10
202.97500000017999
20
-176.0000000000025
10
202.97500000017686
20
-290.1079946386501
42
0.41421356237310542
10
204.97500000017681
20
-292.10799463865021
10
224.97500000017681
20
-292.10799463865067
42
-0.41421356237307422
10
225.97500000017678
20
-293.10799463865072
10
225.97500000017661
20
-299.10799463865072
42
-0.4142135623730534
10
224.97500000017655
20
-300.10799463865067
10
204.97500000017658
20
-300.10799463865015
42
0.41421356237311063
10
202.97500000017652
20
-302.1079946386501
0
CIRCLE
5
215
100
AcDbEntity
8
0
100
AcDbCircle
10
200.57500000017961
20
-188.50000000000264
30
3.1554436208840472e-29
40
0.59999999999998699
210
1.2936832548608784e-32
220
-3.5370047592684438e-46
230
1
0
CIRCLE
5
216
100
AcDbEntity
8
0
100
AcDbCircle
10
200.57500000017885
20
-216.10000000000264
30
0
40
0.59999999999998699
210
1.2936832548608784e-32
220
-3.5370047592684438e-46
230
1
0
CIRCLE
5
217
100
AcDbEntity
8
0
100
AcDbCircle
10
200.57500000017774
20
-255.60000000000247
30
0
40
0.60000000000000475
210
1.2936832548608959e-32
220
-3.5370047592684912e-46
230
1
0
LWPOLYLINE
5
218
100
AcDbEntity
8
0
100
AcDbPolyline
90
8
70
1
43
0.0
10
159.00000000000378
20
-255.00000000000125
42
-0.41421356237309087
10
164.00000000000392
20
-250.00000000000139
10
187.97500000017794
20
-250.00000000000205
42
-0.41421356237309293
10
192.9750000001778
20
-255.00000000000216
10
192.97500000017632
20
-309.00000000000216
42
-0.41421356237309503
10
187.97500000017621
20
-314.00000000000199
10
164.00000000000222
20
-314.00000000000136
42
-0.41421356237309293
10
159.00000000000236
20
-309.00000000000125
0
LWPOLYLINE
5
219
100
AcDbEntity
8
0
100
AcDbPolyline
90
8
70
1
43
0.0
10
159.00000000000585
20
-181.00000000000134
42
-0.41421356237309087
10
164.000000000006
20
-176.00000000000148
10
187.97500000017999
20
-176.00000000000216
42
-0.41421356237309293
10
192.97500000017982
20
-181.00000000000225
10
192.97500000017837
20
-235.00000000000222
42
-0.41421356237308876
10
187.97500000017823
20
-240.00000000000202
10
164.00000000000426
20
-240.00000000000142
42
-0.41421356237309087
10
159.00000000000435
20
-235.00000000000131
0
CIRCLE
5
220
100
AcDbEntity
8
0
100
AcDbCircle
10
200.575000000177
20
-282.60000000000264
30
0
40
0.60000000000000475
210
1.2936832548608959e-32
220
-3.5370047592684912e-46
230
1
0
CIRCLE
5
221
100
AcDbEntity
8
0
100
AcDbCircle
10
200.57500000017629
20
-309.60000000000258
30
0
40
0.60000000000000475
210
1.2936832548608959e-32
220
-3.5370047592684912e-46
230
1
0
LWPOLYLINE
5
222
100
AcDbEntity
8
0
100
AcDbPolyline
90
33
70
1
43
0.0
10
203.000000000174
20
-162.9999999999942
42
-0.41421356237307422
10
202.00000000017397
20
-163.99999999999415
10
183.51855700017433
20
-163.99999999999443
10
173.31855700017442
20
-165.49999999999454
10
173.31855700017442
20
-163.9999999999946
10
150.00000000000068
20
-163.99999999999508
42
-0.41421356237314189
10
149.00000000000065
20
-162.99999999999503
10
148.9999999999981
20
-89.999999999996106
10
145.99999999999815
20
-89.999999999996149
42
-0.41421356237311585
10
144.99999999999812
20
-88.999999999996163
10
144.99999999999787
20
-80.999999999996277
42
-0.41421356237307944
10
145.99999999999778
20
-79.999999999996291
10
148.99999999999775
20
-79.999999999996248
10
148.99999999999477
20
-6.9999999999973808
42
-0.4142135623730957
10
149.99999999999471
20
-5.9999999999974039
10
202.00000000016843
20
-5.9999999999965459
42
-0.41421356237313145
10
203.00000000016851
20
-6.9999999999965068
10
203.0000000001699
20
-46.795494638643348
42
0.41421356237310719
10
206.00000000016996
20
-49.795494638643319
10
225.00000000016973
20
-49.795494638642985
42
-0.41421356237311846
10
226.00000000016979
20
-50.795494638642971
10
226.00000000017002
20
-56.795494638642936
42
-0.4142135623730846
10
225.00000000017008
20
-57.795494638642914
10
206.00000000017019
20
-57.79549463864322
42
0.41421356237308293
10
203.00000000017039
20
-60.795494638643234
10
203.00000000017309
20
-138.607994638642
42
0.41421356237310897
10
206.00000000017317
20
-141.60799463864197
10
225.00000000017295
20
-141.60799463864163
42
-0.41421356237313667
10
226.000000000173
20
-142.60799463864169
10
226.00000000017315
20
-148.6079946386416
42
-0.4142135623730846
10
225.0000000001732
20
-149.60799463864157
10
206.00000000017337
20
-149.60799463864186
42
0.4142135623730846
10
203.0000000001736
20
-152.60799463864188
0
CIRCLE
5
223
100
AcDbEntity
8
0
100
AcDbCircle
10
200.60000000017374
20
-157.04999999999433
30
-3.1554436208840472e-29
40
0.5999999999999972
210
1.7144538086773462e-32
220
5.9471467932464338e-46
230
1
0
LWPOLYLINE
5
224
100
AcDbEntity
8
0
100
AcDbPolyline
90
8
70
1
43
0.0
10
158.99999999999818
20
-94.99999999999595
42
-0.41421356237308982
10
163.99999999999784
20
-89.999999999995865
10
188.00000000017164
20
-89.999999999995467
42
-0.41421356237310336
10
193.00000000017172
20
-94.999999999995396
10
193.00000000017354
20
-148.99999999999451
42
-0.4142135623730846
10
188.00000000017388
20
-153.99999999999451
10
164.0000000000002
20
-153.99999999999491
42
-0.41421356237310442
10
159.00000000000003
20
-148.99999999999497
0
CIRCLE
5
225
100
AcDbEntity
8
0
100
AcDbCircle
10
200.57500000017217
20
-111.04999999999507
30
-3.1554436208840472e-29
40
0.5999999999999972
210
1.7144538086773462e-32
220
5.9471467932464338e-46
230
1
0
CIRCLE
5
226
100
AcDbEntity
8
0
100
AcDbCircle
10
200.5750000001714
20
-87.949999999995399
30
-3.1554436208840472e-29
40
0.59999999999997933
210
1.7144538086773202e-32
220
5.9471467932463428e-46
230
1
0
CIRCLE
5
227
100
AcDbEntity
8
0
100
AcDbCircle
10
200.57500000017058
20
-65.249999999995779
30
0
40
0.59999999999997933
210
1.7144538086773202e-32
220
5.9471467932463428e-46
230
1
0
CIRCLE
5
228
100
AcDbEntity
8
0
100
AcDbCircle
10
200.57500000016901
20
-19.749999999996515
30
3.1554436208840472e-29
40
0.59999999999997933
210
1.7144538086773202e-32
220
5.9471467932463428e-46
230
1
0
LWPOLYLINE
5
229
100
AcDbEntity
8
0
100
AcDbPolyline
90
8
70
1
43
0.0
10
158.99999999999562
20
-20.999999999997083
42
-0.41421356237308982
10
163.99999999999528
20
-15.999999999996998
10
188.00000000016908
20
-15.999999999996604
42
-0.41421356237310414
10
193.00000000016917
20
-20.99999999999655
10
193.00000000017099
20
-74.999999999995609
42
-0.41421356237308615
10
188.00000000017133
20
-79.999999999995623
10
163.99999999999756
20
-79.999999999996021
42
-0.41421356237310386
10
158.9999999999975
20
-74.999999999996078
0
CIRCLE
5
230
100
AcDbEntity
8
0
100
AcDbCircle
10
200.57500000017296
20
-134.1499999999948
30
0
40
0.5999999999999972
210
1.7144538086773462e-32
220
5.9471467932464338e-46
230
1
0
CIRCLE
5
231
100
AcDbEntity
8
0
100
AcDbCircle
10
200.57500000016978
20
-42.324999999996145
30
0
40
0.59999999999997933
210
1.7144538086773202e-32
220
5.9471467932463428e-46
230
1
0
LWPOLYLINE
5
232
100
AcDbEntity
8
0
100
AcDbPolyline
90
33
70
1
43
0.0
10
86.000000000175504
20
-7.0000000000007665
42
-0.4142135623731048
10
87.000000000175476
20
-6.0000000000007949
10
105.48144300017519
20
-6.0000000000006715
10
115.68144300017505
20
-4.5000000000006288
10
115.68144300017508
20
-6.0000000000005951
10
139.00000000034876
20
-6.0000000000003881
42
-0.41421356237309731
10
140.00000000034882
20
-7.0000000000003393
10
140.00000000035087
20
-79.999999999999275
10
143.00000000035081
20
-79.999999999999275
42
-0.41421356237311063
10
144.00000000035084
20
-80.999999999999233
10
144.00000000035106
20
-88.999999999999176
42
-0.41421356237307944
10
143.00000000035112
20
-89.999999999999091
10
140.00000000035115
20
-89.999999999999147
10
140.00000000035362
20
-162.99999999999798
42
-0.414213562373069
10
139.00000000035368
20
-163.99999999999793
10
87.000000000179867
20
-163.99999999999835
42
-0.41421356237311585
10
86.000000000179838
20
-162.99999999999841
10
86.000000000178744
20
-123.20450536135161
42
0.41421356237310897
10
83.000000000178687
20
-120.20450536135158
10
64.000000000178886
20
-120.20450536135175
42
-0.41421356237311324
10
63.000000000178858
20
-119.20450536135178
10
63.00000000017868
20
-113.20450536135181
42
-0.41421356237307161
10
64.000000000178659
20
-112.20450536135186
10
83.000000000178531
20
-112.20450536135169
42
0.41421356237308116
10
86.000000000178346
20
-109.20450536135172
10
86.000000000176186
20
-31.392005361352947
42
0.41421356237310802
10
83.000000000176129
20
-28.392005361352943
10
64.000000000176342
20
-28.3920053613531
42
-0.41421356237311452
10
63.000000000176321
20
-27.392005361353114
10
63.0000000001762
20
-21.392005361353181
42
-0.41421356237308721
10
64.000000000176158
20
-20.392005361353217
10
83.000000000175987
20
-20.392005361353061
42
0.41421356237308138
10
86.000000000175788
20
-17.392005361353085
0
CIRCLE
5
233
100
AcDbEntity
8
0
100
AcDbCircle
10
88.400000000175652
20
-12.950000000000635
30
-3.1554436208840472e-29
40
0.59999999999999754
210
-5.6777317541172963e-33
220
-3.0814879110195938e-32
230
1
0
LWPOLYLINE
5
234
100
AcDbEntity
8
0
100
AcDbPolyline
90
8
70
1
43
0.0
10
130.00000000035084
20
-74.999999999999332
42
-0.41421356237308776
10
125.00000000035116
20
-79.999999999999403
10
101.00000000017737
20
-79.999999999999602
42
-0.41421356237310492
10
96.00000000017728
20
-74.999999999999616
10
96.000000000175788
20
-21.000000000000504
42
-0.41421356237308254
10
101.00000000017548
20
-16.000000000000561
10
125.00000000034927
20
-16.000000000000348
42
-0.41421356237310358
10
130.00000000034933
20
-21.000000000000352
0
CIRCLE
5
235
100
AcDbEntity
8
0
100
AcDbCircle
10
88.425000000176937
20
-58.949999999999896
30
0
40
0.59999999999999754
210
-5.6777317541172963e-33
220
-3.0814879110195938e-32
230
1
0
CIRCLE
5
236
100
AcDbEntity
8
0
100
AcDbCircle
10
88.425000000177562
20
-82.049999999999571
30
3.1554436208840472e-29
40
0.59999999999997977
210
-5.6777317541172032e-33
220
-3.6977854932235098e-32
230
1
0
CIRCLE
5
237
100
AcDbEntity
8
0
100
AcDbCircle
10
88.425000000178187
20
-104.7499999999992
30
0
40
0.59999999999997977
210
-5.6777317541172032e-33
220
-3.6977854932235098e-32
230
1
0
CIRCLE
5
238
100
AcDbEntity
8
0
100
AcDbCircle
10
88.425000000179438
20
-150.24999999999841
30
0
40
0.59999999999997977
210
-5.6777317541172032e-33
220
-3.6977854932235098e-32
230
1
0
LWPOLYLINE
5
239
100
AcDbEntity
8
0
100
AcDbPolyline
90
8
70
1
43
0.0
10
130.00000000035288
20
-148.99999999999818
42
-0.41421356237308776
10
125.00000000035323
20
-153.99999999999827
10
101.0000000001794
20
-153.99999999999847
42
-0.41421356237310647
10
96.000000000179313
20
-148.99999999999847
10
96.000000000177849
20
-94.999999999999403
42
-0.4142135623730836
10
101.00000000017755
20
-89.999999999999432
10
125.00000000035132
20
-89.999999999999233
42
-0.41421356237310647
10
130.00000000035141
20
-94.999999999999261
0
CIRCLE
5
240
100
AcDbEntity
8
0
100
AcDbCircle
10
88.425000000176297
20
-35.850000000000172
30
0
40
0.59999999999999754
210
-5.6777317541172963e-33
220
-3.0814879110195938e-32
230
1
0
CIRCLE
5
241
100
AcDbEntity
8
0
100
AcDbCircle
10
88.425000000178812
20
-127.67499999999879
30
0
40
0.59999999999997977
210
-5.6777317541172032e-33
220
-3.6977854932235098e-32
230
1
0
LWPOLYLINE
5
242
100
AcDbEntity
8
0
100
AcDbPolyline
90
26
70
1
43
0.0
10
85.975000000198705
20
-167.00000000000216
42
-0.41421356237309503
10
86.975000000198861
20
-166.00000000000227
10
138.95000000037285
20
-166.00000000000932
42
-0.41421356237307422
10
139.95000000037271
20
-167.00000000000944
10
139.950000000362
20
-240.00000000000941
10
142.950000000362
20
-240.00000000000972
42
-0.4142135623730846
10
143.95000000036185
20
-241.00000000000992
10
143.95000000036066
20
-249.00000000000995
42
-0.41421356237309503
10
142.95000000036055
20
-250.00000000000978
10
139.95000000036055
20
-250.00000000000938
10
139.95000000035029
20
-323.00000000000921
42
-0.41421356237312623
10
138.95000000035017
20
-324.00000000000915
10
63.975000000175683
20
-323.99999999999898
42
-0.414213562373069
10
62.975000000175847
20
-322.99999999999892
10
62.975000000176749
20
-316.99999999999886
42
-0.41421356237310802
10
63.975000000176877
20
-315.99999999999903
10
83.975000000176877
20
-316.00000000000176
42
0.41421356237310542
10
85.975000000177175
20
-314.00000000000205
10
85.975000000193916
20
-199.89200536135442
42
0.41421356237309503
10
83.9750000001942
20
-197.89200536135414
10
63.975000000194164
20
-197.89200536135149
42
-0.41421356237307422
10
62.975000000194328
20
-196.89200536135135
10
62.97500000019528
20
-190.89200536135132
42
-0.41421356237310802
10
63.975000000195372
20
-189.89200536135147
10
83.975000000195365
20
-189.89200536135417
42
0.41421356237309503
10
85.975000000195664
20
-187.89200536135445
0
CIRCLE
5
243
100
AcDbEntity
8
0
100
AcDbCircle
10
88.375000000179028
20
-301.5000000000021
30
0
40
0.5999999999999871
210
1.0027775552781621e-31
220
-1.4703353370813198e-44
230
1
0
CIRCLE
5
244
100
AcDbEntity
8
0
100
AcDbCircle
10
88.375000000183078
20
-273.90000000000219
30
0
40
0.5999999999999871
210
1.0027775552781621e-31
220
-1.4703353370813198e-44
230
1
0
CIRCLE
5
245
100
AcDbEntity
8
0
100
AcDbCircle
10
88.375000000188862
20
-234.40000000000231
30
0
40
0.60000000000000486
210
5.0973948951504636e-32
220
1.2325951644070835e-32
230
1
0
LWPOLYLINE
5
246
100
AcDbEntity
8
0
100
AcDbPolyline
90
8
70
1
43
0.0
10
129.95000000036276
20
-235.0000000000081
42
-0.41421356237309398
10
124.95000000036197
20
-240.00000000000736
10
100.975000000188
20
-240.00000000000409
42
-0.4142135623730846
10
95.975000000188757
20
-235.00000000000352
10
95.975000000196673
20
-181.0000000000035
42
-0.41421356237310336
10
100.97500000019747
20
-176.00000000000421
10
124.95000000037139
20
-176.00000000000739
42
-0.4142135623730836
10
129.95000000037064
20
-181.00000000000801
0
LWPOLYLINE
5
247
100
AcDbEntity
8
0
100
AcDbPolyline
90
8
70
1
43
0.0
10
129.95000000035191
20
-309.00000000000801
42
-0.41421356237309398
10
124.95000000035111
20
-314.00000000000728
10
100.97500000017718
20
-314.00000000000398
42
-0.41421356237308565
10
95.9750000001779
20
-309.00000000000341
10
95.975000000185787
20
-255.00000000000341
42
-0.41421356237309609
10
100.97500000018658
20
-250.00000000000412
10
124.95000000036055
20
-250.00000000000736
42
-0.41421356237308254
10
129.95000000035984
20
-255.00000000000793
0
CIRCLE
5
248
100
AcDbEntity
8
0
100
AcDbCircle
10
88.375000000192827
20
-207.40000000000214
30
0
40
0.60000000000000486
210
5.0973948951504636e-32
220
1.2325951644070835e-32
230
1
0
CIRCLE
5
249
100
AcDbEntity
8
0
100
AcDbCircle
10
88.375000000196749
20
-180.40000000000225
30
0
40
0.60000000000000486
210
5.0973948951504636e-32
220
1.2325951644070835e-32
230
1
0
LWPOLYLINE
5
250
100
AcDbEntity
8
0
100
AcDbPolyline
90
26
70
1
43
0.0
10
61.975000000175761
20
-322.99999999999847
42
-0.41421356237307683
10
60.975000000175811
20
-323.99999999999852
10
9.0000000000018048
20
-323.99999999999716
42
-0.41421356237304235
10
8.0000000000018314
20
-322.99999999999716
10
8.0000000000038245
20
-249.99999999999719
10
5.0000000000038263
20
-249.99999999999716
42
-0.41421356237307749
10
4.0000000000038529
20
-248.9999999999971
10
4.0000000000040981
20
-240.99999999999707
42
-0.41421356237309015
10
5.0000000000040954
20
-239.99999999999713
10
8.0000000000041052
20
-239.99999999999719
10
8.0000000000056293
20
-166.99999999999727
42
-0.41421356237310542
10
9.0000000000056435
20
-165.99999999999727
10
83.975000000180131
20
-165.99999999999923
42
-0.414213562373069
10
84.975000000180074
20
-166.99999999999929
10
84.975000000179861
20
-172.99999999999932
42
-0.41421356237307422
10
83.975000000179875
20
-173.99999999999923
10
63.975000000179854
20
-173.99999999999875
42
0.41421356237310802
10
61.975000000179818
20
-175.99999999999866
10
61.975000000176692
20
-290.10799463864629
42
0.41421356237310802
10
63.975000000176649
20
-292.10799463864635
10
83.975000000176664
20
-292.10799463864686
42
-0.41421356237307422
10
84.975000000176607
20
-293.10799463864686
10
84.97500000017645
20
-299.10799463864691
42
-0.41421356237307944
10
83.975000000176422
20
-300.10799463864686
10
63.975000000176408
20
-300.10799463864635
42
0.41421356237308854
10
61.975000000176372
20
-302.10799463864629
0
CIRCLE
5
251
100
AcDbEntity
8
0
100
AcDbCircle
10
59.57500000017945
20
-188.49999999999881
30
0
40
0.59999999999998699
210
1.2936832548608784e-32
220
-3.5370047592684438e-46
230
1
0
CIRCLE
5
252
100
AcDbEntity
8
0
100
AcDbCircle
10
59.575000000178697
20
-216.09999999999877
30
0
40
0.59999999999998699
210
1.2936832548608784e-32
220
-3.5370047592684438e-46
230
1
0
CIRCLE
5
253
100
AcDbEntity
8
0
100
AcDbCircle
10
59.575000000177624
20
-255.59999999999863
30
0
40
0.60000000000000475
210
1.2936832548608959e-32
220
-3.5370047592684912e-46
230
1
0
LWPOLYLINE
5
254
100
AcDbEntity
8
0
100
AcDbPolyline
90
8
70
1
43
0.0
10
18.000000000003666
20
-254.99999999999739
42
-0.41421356237309009
10
23.00000000000383
20
-249.99999999999756
10
46.975000000177801
20
-249.99999999999824
42
-0.41421356237309348
10
51.975000000177673
20
-254.99999999999832
10
51.97500000017618
20
-308.99999999999829
42
-0.41421356237309553
10
46.97500000017606
20
-313.99999999999812
10
23.000000000002075
20
-313.9999999999975
42
-0.41421356237309243
10
18.000000000002213
20
-308.99999999999739
0
LWPOLYLINE
5
255
100
AcDbEntity
8
0
100
AcDbPolyline
90
8
70
1
43
0.0
10
18.000000000005691
20
-180.99999999999744
42
-0.41421356237309009
10
23.000000000005855
20
-175.99999999999764
10
46.975000000179826
20
-175.99999999999829
42
-0.41421356237309348
10
51.975000000179691
20
-180.99999999999841
10
51.975000000178241
20
-234.99999999999835
42
-0.41421356237308982
10
46.975000000178078
20
-239.99999999999818
10
23.000000000004093
20
-239.99999999999758
42
-0.41421356237308982
10
18.000000000004221
20
-234.99999999999747
0
CIRCLE
5
256
100
AcDbEntity
8
0
100
AcDbCircle
10
59.575000000176885
20
-282.59999999999883
30
0
40
0.60000000000000475
210
1.2936832548608959e-32
220
-3.5370047592684912e-46
230
1
0
CIRCLE
5
257
100
AcDbEntity
8
0
100
AcDbCircle
10
59.575000000176168
20
-309.59999999999872
30
0
40
0.60000000000000475
210
1.2936832548608959e-32
220
-3.5370047592684912e-46
230
1
0
LWPOLYLINE
5
258
100
AcDbEntity
8
0
100
AcDbPolyline
90
33
70
1
43
0.0
10
62.000000000179199
20
-162.99999999999676
42
-0.4142135623730846
10
61.00000000017922
20
-163.9999999999967
10
42.518557000179563
20
-163.99999999999699
10
32.318557000179716
20
-165.4999999999971
10
32.318557000179659
20
-163.99999999999716
10
9.0000000000059455
20
-163.99999999999756
42
-0.41421356237312951
10
8.0000000000059188
20
-162.99999999999758
10
8.0000000000033697
20
-89.999999999998664
10
5.0000000000034195
20
-89.999999999998707
42
-0.41421356237312951
10
4.0000000000033893
20
-88.999999999998721
10
4.0000000000030989
20
-80.999999999998835
42
-0.41421356237307649
10
5.0000000000030589
20
-79.999999999998849
10
8.0000000000030234
20
-79.999999999998806
10
8.000000000000032
20
-6.9999999999999387
42
-0.41421356237308493
10
8.9999999999999769
20
-5.9999999999999618
10
61.000000000173756
20
-5.9999999999990949
42
-0.41421356237310025
10
62.000000000173799
20
-6.9999999999990647
10
62.000000000175177
20
-46.795494638645906
42
0.41421356237310636
10
65.000000000175234
20
-49.795494638645877
10
84.000000000175021
20
-49.795494638645565
42
-0.41421356237311846
10
85.000000000175064
20
-50.795494638645529
10
85.000000000175248
20
-56.795494638645494
42
-0.41421356237309243
10
84.000000000175305
20
-57.795494638645472
10
65.000000000175461
20
-57.795494638645778
42
0.41421356237308377
10
62.000000000175667
20
-60.795494638645792
10
62.000000000178368
20
-138.60799463864456
42
0.41421356237310802
10
65.000000000178431
20
-141.60799463864453
10
84.00000000017819
20
-141.60799463864421
42
-0.41421356237313667
10
85.000000000178233
20
-142.60799463864424
10
85.000000000178375
20
-148.60799463864416
42
-0.4142135623730846
10
84.000000000178431
20
-149.60799463864413
10
65.000000000178645
20
-149.60799463864441
42
0.41421356237308554
10
62.000000000178844
20
-152.60799463864444
0
CIRCLE
5
259
100
AcDbEntity
8
0
100
AcDbCircle
10
59.60000000017903
20
-157.04999999999688
30
3.1554436208840472e-29
40
0.5999999999999972
210
1.7144538086773462e-32
220
5.9471467932464338e-46
230
1
0
LWPOLYLINE
5
260
100
AcDbEntity
8
0
100
AcDbPolyline
90
8
70
1
43
0.0
10
18.000000000003435
20
-94.999999999998522
42
-0.41421356237308876
10
23.00000000000308
20
-89.999999999998423
10
47.000000000176875
20
-89.99999999999801
42
-0.41421356237310442
10
52.000000000176968
20
-94.999999999997954
10
52.000000000178837
20
-148.99999999999707
42
-0.41421356237308254
10
47.000000000179192
20
-153.99999999999707
10
23.000000000005407
20
-153.99999999999747
42
-0.41421356237310281
10
18.000000000005304
20
-148.99999999999753
0
CIRCLE
5
261
100
AcDbEntity
8
0
100
AcDbCircle
10
59.575000000177418
20
-111.04999999999762
30
0
40
0.5999999999999972
210
1.7144538086773462e-32
220
5.9471467932464338e-46
230
1
0
CIRCLE
5
262
100
AcDbEntity
8
0
100
AcDbCircle
10
59.575000000176637
20
-87.949999999997956
30
0
40
0.59999999999997933
210
1.7144538086773202e-32
220
5.9471467932463428e-46
230
1
0
CIRCLE
5
263
100
AcDbEntity
8
0
100
AcDbCircle
10
59.575000000175855
20
-65.249999999998337
30
0
40
0.59999999999997933
210
1.7144538086773202e-32
220
5.9471467932463428e-46
230
1
0
CIRCLE
5
264
100
AcDbEntity
8
0
100
AcDbCircle
10
59.575000000174271
20
-19.749999999999073
30
0
40
0.59999999999997933
210
1.7144538086773202e-32
220
5.9471467932463428e-46
230
1
0
LWPOLYLINE
5
265
100
AcDbEntity
8
0
100
AcDbPolyline
90
8
70
1
43
0.0
10
18.000000000000881
20
-20.999999999999655
42
-0.41421356237308854
10
23.000000000000522
20
-15.999999999999556
10
47.00000000017431
20
-15.999999999999153
42
-0.41421356237310519
10
52.000000000174403
20
-20.999999999999108
10
52.000000000176257
20
-74.999999999998167
42
-0.4142135623730841
10
47.000000000176627
20
-79.999999999998181
10
23.000000000002832
20
-79.999999999998593
42
-0.41421356237310492
10
18.000000000002736
20
-74.999999999998636
0
CIRCLE
5
266
100
AcDbEntity
8
0
100
AcDbCircle
10
59.575000000178228
20
-134.14999999999736
30
0
40
0.5999999999999972
210
1.7144538086773462e-32
220
5.9471467932464338e-46
230
1
0
CIRCLE
5
267
100
AcDbEntity
8
0
100
AcDbCircle
10
59.575000000175052
20
-42.324999999998703
30
0
40
0.59999999999997933
210
1.7144538086773202e-32
220
5.9471467932463428e-46
230
1
0
LINE
5
268
100
AcDbEntity
8
0
100
AcDbLine
10
701.32707712027752
20
-223.71733003763882
30
-1.2412233305586858e-28
11
701.32707712027764
21
-226.68850527111749
31
-1.2403077665023373e-28
0
LINE
5
269
100
AcDbEntity
8
0
100
AcDbLine
10
604.89380708714305
20
-204.8135052711097
30
1.2868293516417755e-28
11
604.89380708714339
21
-201.71733003765047
31
1.2841579202071307e-28
0
LINE
5
270
100
AcDbEntity
8
0
100
AcDbLine
10
711.32707712026843
20
-148.71732732279611
30
-1.9080573145033223e-28
11
711.32707712026809
21
-142.07591393713079
31
-1.8994618317781177e-28
0
LINE
5
271
100
AcDbEntity
8
0
100
AcDbLine
10
718.39380708714475
20
-203.81350527112235
30
1.5792625545063442e-31
11
711.32707712027491
21
-203.81350527112235
31
1.8653041240553343e-30
0
LINE
5
272
100
AcDbEntity
8
0
100
AcDbLine
10
763
20
-2.9999999999999716
30
3.1554436208840472e-29
11
763
21
-383
31
3.1554436208840472e-29
0
LINE
5
273
100
AcDbEntity
8
0
100
AcDbLine
10
726.39380708713645
20
-280.81350527112102
30
-2.3153289050944569e-30
11
763
21
-280.81350527112625
31
-1.0101526646842507e-29
0
LINE
5
274
100
AcDbEntity
8
0
100
AcDbLine
10
726.39380708714486
20
-203.81350527112329
30
-8.6281661508549568e-32
11
763
21
-203.81350527112846
31
2.774466852246975e-28
0
LINE
5
275
100
AcDbEntity
8
0
100
AcDbLine
10
747.03782571045872
20
-142.07591393713076
30
-7.7287011954134598e-29
11
760
21
-142.07591393713076
31
-8.276986109142165e-29
0
LINE
5
276
100
AcDbEntity
8
0
100
AcDbLine
10
736.47227995930871
20
-65.075912475211808
30
-2.1920205662382087e-28
11
739.03782571045906
21
-65.075912475211808
31
-2.1888843819317175e-28
0
LINE
5
277
100
AcDbEntity
8
0
100
AcDbLine
10
747.03782571045906
20
-65.075912475211794
30
-2.1791049911566043e-28
11
763
21
-65.075912475211794
31
2.9663281914398045e-27
0
LINE
5
278
100
AcDbEntity
8
0
100
AcDbLine
10
2.9999999999999361
20
-2.9999999999999716
30
0
11
763
21
-2.9999999999999716
31
1.6769928077865195e-46
0
LINE
5
279
100
AcDbEntity
8
0
100
AcDbLine
10
736.47227995930893
20
-11.052631578940542
30
1.873544649899903e-29
11
736.47227995930939
21
-2.9999999999999716
31
1.5465825641834967e-29
0
LINE
5
280
100
AcDbEntity
8
0
100
AcDbLine
10
726.47227995930859
20
-84.052631578939199
30
3.5252221702063965e-29
11
726.47227995930848
21
-88.075912475212007
31
3.6442400080736046e-29
0
LINE
5
281
100
AcDbEntity
8
0
100
AcDbLine
10
647.42983107181146
20
-66.075912475211936
30
-2.1693674893577825e-29
11
647.42983107181146
21
-63.177631578938914
31
-1.4459550682448328e-29
0
LINE
5
282
100
AcDbEntity
8
0
100
AcDbLine
10
639.42983107181158
20
-66.075912475211936
30
2.3058798112282856e-31
11
639.42983107181158
21
-63.177631578938914
31
9.2330536660839656e-30
0
LINE
5
283
100
AcDbEntity
8
0
100
AcDbLine
10
616.97227995930746
20
-84.052631578939113
30
3.1874161644467526e-29
11
616.97227995930757
21
-88.075912475212107
31
3.3039544640250634e-29
0
LINE
5
284
100
AcDbEntity
8
0
100
AcDbLine
10
616.97227995930757
20
-88.075912475212107
30
3.3039544640250634e-29
11
626.03782571045895
21
-88.075912475212107
31
3.4334135094217548e-30
0
LINE
5
285
100
AcDbEntity
8
0
100
AcDbLine
10
608.97227995930734
20
-86.052631578939099
30
-3.098744243321287e-29
11
602.97227995930768
21
-86.052631578939312
31
-1.2343207976379965e-28
0
LINE
5
286
100
AcDbEntity
8
0
100
AcDbLine
10
601.9722799593078
20
-9.052631578940467
30
3.1585251087950662e-29
11
608.97227995930746
21
-9.0526315789404919
31
1.7826473392932344e-29
0
LINE
5
287
100
AcDbEntity
8
0
100
AcDbLine
10
676.72227995930825
20
-6.0526315789405638
30
-8.3200173597528589e-31
11
676.72227995930837
21
-2.9999999999999716
31
-5.3358395932951385e-31
0
LINE
5
288
100
AcDbEntity
8
0
100
AcDbLine
10
587.67228062985987
20
-6.052631578941253
30
1.2620233739580679e-28
11
587.67228062985953
21
-2.9999999999999716
31
1.2646345295037183e-28
0
LINE
5
289
100
AcDbEntity
8
0
100
AcDbLine
10
442.97227995930876
20
-10.05263157894017
30
3.1515649785319859e-29
11
442.97227995930945
21
-2.9999999999999716
31
3.2893069943918385e-29
0
LINE
5
290
100
AcDbEntity
8
0
100
AcDbLine
10
422.0000000003489
20
-6.9999999999934825
30
6.9025329206838533e-30
11
422.00000000034862
21
-2.9999999999999716
31
7.5927862127515968e-30
0
LINE
5
291
100
AcDbEntity
8
0
100
AcDbLine
10
425.00000000035078
20
-89.999999999992923
30
9.880214929279486e-33
11
442.97227995930859
21
-89.999999999992923
31
-1.893761514754627e-31
0
LINE
5
292
100
AcDbEntity
8
0
100
AcDbLine
10
423.99861399829842
20
-128.05263157894001
30
-3.6977854932234003e-32
11
422.00000000035203
21
-128.05263157893987
31
8.3020383979190039e-30
0
LINE
5
293
100
AcDbEntity
8
0
100
AcDbLine
10
427.01782880920564
20
-131.05263157893995
30
-3.1158811830127729e-29
11
427.01782880920587
21
-128.05263157894001
31
8.5276149963546646e-29
0
LINE
5
294
100
AcDbEntity
8
0
100
AcDbLine
10
621.94594592031774
20
-128.05263157894032
30
-6.3704326732709706e-29
11
625.03782571045883
21
-128.05263157894055
31
-6.2680527447849739e-29
0
LINE
5
295
100
AcDbEntity
8
0
100
AcDbLine
10
644.82707712026877
20
-144.71732732280398
30
-1.2656851667546786e-28
11
644.82707712026797
21
-142.07591393713082
31
2.122402824355639e-28
0
LINE
5
296
100
AcDbEntity
8
0
100
AcDbLine
10
587.0178288092045
20
-131.05263157894012
30
9.427009166023914e-29
11
587.01782880920382
21
-120.98156376707485
31
9.4145956165385726e-29
0
LINE
5
297
100
AcDbEntity
8
0
100
AcDbLine
10
589.32707712026979
20
-147.71732732281043
30
1.6479281400144421e-28
11
587.0178288092045
21
-147.71732732281043
31
1.6480824152958469e-28
0
LINE
5
298
100
AcDbEntity
8
0
100
AcDbLine
10
368.00000000017519
20
-6.9999999999939302
30
1.168332728072202e-33
11
368.00000000017542
21
-2.9999999999999716
31
6.9142162479585907e-31
0
LINE
5
299
100
AcDbEntity
8
0
100
AcDbLine
10
344.000000000174
20
-6.9999999999929408
30
4.9303806576313238e-31
11
344.00000000017371
21
-2.9999999999999716
31
1.6578404961273531e-30
0
LINE
5
300
100
AcDbEntity
8
0
100
AcDbLine
10
346.00000000017559
20
-20.392005361346492
30
4.1908768532774121e-33
11
344.0000000001744
21
-20.392005361346634
31
1.1342367170580609e-32
0
LINE
5
301
100
AcDbEntity
8
0
100
AcDbLine
10
346.00000000017582
20
-28.392005361346403
30
-8.6281661508543371e-32
11
344.00000000017462
21
-28.392005361346403
31
1.7626110851042426e-30
0
LINE
5
302
100
AcDbEntity
8
0
100
AcDbLine
10
366.00000000017525
20
-49.795494638639809
30
-1.2325951644077453e-32
11
368.00000000017621
21
-49.795494638639809
31
-6.3552606676901417e-29
0
LINE
5
303
100
AcDbEntity
8
0
100
AcDbLine
10
366.00000000017542
20
-57.795494638639738
30
-3.1301176421149806e-29
11
368.00000000017633
21
-57.795494638639454
31
-3.1306954210982587e-29
0
LINE
5
304
100
AcDbEntity
8
0
100
AcDbLine
10
346.00000000017769
20
-112.20450536134591
30
3.14815898879183e-29
11
344.00000000017718
21
-112.20450536134605
31
3.1479111728513463e-29
0
LINE
5
305
100
AcDbEntity
8
0
100
AcDbLine
10
346.00000000017786
20
-120.20450536134592
30
-3.1640717870349026e-29
11
344.00000000017741
21
-120.20450536134564
31
3.2146081887764773e-29
0
LINE
5
306
100
AcDbEntity
8
0
100
AcDbLine
10
366.00000000017803
20
-141.60799463863913
30
-1.2325951644078802e-32
11
368.00000000017832
21
-141.60799463863941
31
6.1555802510527391e-29
0
LINE
5
307
100
AcDbEntity
8
0
100
AcDbLine
10
366.00000000017815
20
-149.60799463863913
30
3.2223696864518837e-29
11
368.00000000017855
21
-149.60799463863898
31
3.2208289424963941e-29
0
LINE
5
308
100
AcDbEntity
8
0
100
AcDbLine
10
344.00000000017877
20
-162.9999999999919
30
-3.1547406564543257e-29
11
344.00000000017855
21
-166.0000000000062
31
-3.1547406564543268e-29
0
LINE
5
309
100
AcDbEntity
8
0
100
AcDbLine
10
368.00000000017883
20
-162.99999999999287
30
4.9303806576313238e-31
11
367.97500000019897
21
-167.00000000000955
31
-3.1515532423962309e-29
0
LINE
5
310
100
AcDbEntity
8
0
100
AcDbLine
10
365.97500000018022
20
-166.00000000000676
30
-3.1554436208840467e-29
11
367.98125000019388
21
-166.00000000000662
31
-3.1739903262486241e-29
0
LINE
5
311
100
AcDbEntity
8
0
100
AcDbLine
10
365.97500000017999
20
-174.00000000000676
30
2.291856633761781e-31
11
367.97500000019795
21
-174.00000000000676
31
2.0280042313724305e-31
0
LINE
5
312
100
AcDbEntity
8
0
100
AcDbLine
10
422.000000000353
20
-162.99999999999244
30
-1.1683327280699965e-33
11
421.95000000037294
21
-167.00000000001683
31
-4.9303806576313238e-31
0
LINE
5
313
100
AcDbEntity
8
0
100
AcDbLine
10
424.95000000036225
20
-240.00000000001711
30
6.1629758220380066e-33
11
427.01782880920564
21
-240.00000000001759
31
6.5510214794326321e-29
0
LINE
5
314
100
AcDbEntity
8
0
100
AcDbLine
10
429.01782880920558
20
-249.0526315789393
30
-2.2186712959339494e-31
11
425.95000000036094
21
-249.00000000001728
31
2.2725973342226937e-32
0
LINE
5
315
100
AcDbEntity
8
0
100
AcDbLine
10
345.97500000019556
20
-189.89200536135883
30
3.8518598918573283e-32
11
343.97500000017965
21
-189.89200536135868
31
1.1632616867552275e-31
0
LINE
5
316
100
AcDbEntity
8
0
100
AcDbLine
10
345.97500000019443
20
-197.8920053613588
30
-1.2325951644078994e-32
11
343.97500000017942
21
-197.89200536135851
31
1.109335647976405e-31
0
LINE
5
317
100
AcDbEntity
8
0
100
AcDbLine
10
365.97500000017675
20
-292.1079946386543
30
-3.1443410609461649e-46
11
367.97500000018061
21
-292.1079946386543
31
3.0814879110255881e-31
0
LINE
5
318
100
AcDbEntity
8
0
100
AcDbLine
10
365.97500000017658
20
-300.10799463865442
30
4.7570469625774078e-31
11
367.97500000017948
21
-300.10799463865408
31
4.4931945601900489e-31
0
LINE
5
319
100
AcDbEntity
8
0
100
AcDbLine
10
345.97500000017709
20
-316.00000000000642
30
-3.3241550840092873e-29
11
343.97500000017612
21
-316.00000000000625
31
-3.3163743270336518e-29
0
LINE
5
320
100
AcDbEntity
8
0
100
AcDbLine
10
342.9750000001759
20
-324.00000000000603
30
-3.6404723016857234e-46
11
345.97500000017709
21
-324.00000000000625
31
-3.9577860358056433e-32
0
LINE
5
321
100
AcDbEntity
8
0
100
AcDbLine
10
589.32707712027877
20
-224.71733003765195
30
9.2444637330587113e-32
11
587.01782880920462
21
-224.71733003765226
31
2.2210917216580507e-28
0
LINE
5
322
100
AcDbEntity
8
0
100
AcDbLine
10
594.32707712027866
20
-224.71733003765132
30
-2.6090272970448441e-29
11
597.89380708714077
21
-224.71733003765081
31
-2.6457565031019087e-29
0
LINE
5
323
100
AcDbEntity
8
0
100
AcDbLine
10
585.01782880920462
20
-249.05263157893944
30
-5.987174529303276e-30
11
597.35308540220376
21
-249.05263157893944
31
-1.1787880306881878e-29
0
LINE
5
324
100
AcDbEntity
8
0
100
AcDbLine
10
763
20
-383
30
0
11
2.9999999999999716
21
-383
31
-6.506511591118937e-47
0
LINE
5
325
100
AcDbEntity
8
0
100
AcDbLine
10
421.9500000003506
20
-323.00000000001666
30
3.15771621821827e-29
11
421.95000000034207
21
-383
31
-1.6554665466904606e-27
0
LINE
5
326
100
AcDbEntity
8
0
100
AcDbLine
10
2.9999999999999361
20
-383
30
0
11
2.9999999999999361
21
-2.9999999999999716
31
0
0
LINE
5
327
100
AcDbEntity
8
0
100
AcDbLine
10
291.00000000000199
20
-324.0000000000046
30
3.1554436208840472e-29
11
2.9999999999999361
21
-323.99999999996368
31
-9.1507865005626837e-27
0
LINE
5
328
100
AcDbEntity
8
0
100
AcDbLine
10
283.95000000036066
20
-250.00000000001333
30
1.1748172660302688e-31
11
287.00000000000398
21
-250.00000000000466
31
6.1629758220392136e-33
0
LINE
5
329
100
AcDbEntity
8
0
100
AcDbLine
10
283.95000000036208
20
-240.00000000001333
30
6.1629758220389933e-33
11
287.00000000000426
21
-240.00000000000466
31
-1.5888922040314505e-32
0
LINE
5
330
100
AcDbEntity
8
0
100
AcDbLine
10
290.00000000000574
20
-167.00000000000477
30
3.1616932635536135e-29
11
290.00000000000506
21
-162.99999999999272
31
2.9582283945787943e-30
0
LINE
5
331
100
AcDbEntity
8
0
100
AcDbLine
10
280.95000000037277
20
-167.00000000001299
30
3.106139814307734e-29
11
281.00000000034697
21
-162.99999999999474
31
-7.1259407941341193e-33
0
LINE
5
332
100
AcDbEntity
8
0
100
AcDbLine
10
284.00000000034447
20
-89.999999999995822
30
4.3333423751709177e-33
11
287.00000000000284
21
-89.999999999993264
31
1.8488927466117667e-32
0
LINE
5
333
100
AcDbEntity
8
0
100
AcDbLine
10
284.00000000034419
20
-79.999999999995964
30
-4.3140830754274072e-32
11
287.0000000000025
21
-79.999999999993307
31
-5.2963073471239721e-32
0
LINE
5
334
100
AcDbEntity
8
0
100
AcDbLine
10
280.00000000034214
20
-5.9999999999971276
30
-3.1579088112128629e-29
11
290.99999999999983
21
-5.9999999999938156
31
-5.8933456289552609e-31
0
LINE
5
335
100
AcDbEntity
8
0
100
AcDbLine
10
227.00000000016888
20
-6.999999999997498
30
3.1549236197990526e-29
11
227.00000000016882
21
-2.9999999999999716
31
3.1376672874973519e-29
0
LINE
5
336
100
AcDbEntity
8
0
100
AcDbLine
10
203.00000000016851
20
-6.9999999999965068
30
-2.4651903288156619e-31
11
203.0000000001686
21
-2.9999999999999716
31
-2.0337820212729355e-31
0
LINE
5
337
100
AcDbEntity
8
0
100
AcDbLine
10
205.00000000016951
20
-20.392005361349948
30
-3.1658917908325419e-29
11
203.00000000016897
21
-20.392005361350019
31
-3.1639851201875974e-29
0
LINE
5
338
100
AcDbEntity
8
0
100
AcDbLine
10
205.00000000016971
20
-28.392005361349824
30
4.3140830754273109e-32
11
203.00000000016925
21
-28.392005361350037
31
-1.4976031247558859e-30
0
LINE
5
339
100
AcDbEntity
8
0
100
AcDbLine
10
225.00000000016973
20
-49.795494638642985
30
8.0118685686508793e-32
11
227.00000000017002
21
-49.795494638642843
31
6.3928548202023149e-29
0
LINE
5
340
100
AcDbEntity
8
0
100
AcDbLine
10
225.00000000017008
20
-57.795494638642914
30
3.1314657930768078e-29
11
227.00000000017027
21
-57.795494638642843
31
3.1333532044223471e-29
0
LINE
5
341
100
AcDbEntity
8
0
100
AcDbLine
10
205.00000000017198
20
-112.20450536134859
30
6.5000135621171326e-32
11
203.00000000017218
21
-112.20450536134865
31
7.4437192348474943e-32
0
LINE
5
342
100
AcDbEntity
8
0
100
AcDbLine
10
205.00000000017224
20
-120.20450536134848
30
3.6977854932234365e-32
11
203.00000000017246
21
-120.20450536134871
31
-6.3811451661390224e-29
0
LINE
5
343
100
AcDbEntity
8
0
100
AcDbLine
10
225.00000000017295
20
-141.60799463864166
30
7.3955709864470163e-32
11
227.00000000017258
21
-141.60799463864151
31
1.6146996653740413e-30
0
LINE
5
344
100
AcDbEntity
8
0
100
AcDbLine
10
225.0000000001732
20
-149.60799463864157
30
-7.0296442966254264e-32
11
227.00000000017283
21
-149.60799463864151
31
-6.1051979232995014e-32
0
LINE
5
345
100
AcDbEntity
8
0
100
AcDbLine
10
227.0000000001732
20
-162.99999999999514
30
-2.4651903288156619e-31
11
226.9750000001988
21
-167.00000000000571
31
3.8903784878163341e-32
0
LINE
5
346
100
AcDbEntity
8
0
100
AcDbLine
10
224.97500000018024
20
-166.00000000000307
30
-1.1033724895252766e-45
11
226.9812500001924
21
-166.0000000000033
31
-1.8546705364560266e-31
0
LINE
5
347
100
AcDbEntity
8
0
100
AcDbLine
10
224.97500000017999
20
-174.00000000000307
30
-3.1325250545464293e-29
11
226.97500000019778
21
-174.00000000000307
31
-3.1351635785703228e-29
0
LINE
5
348
100
AcDbEntity
8
0
100
AcDbLine
10
204.97500000019545
20
-189.89200536135502
30
-3.1515917609921899e-29
11
202.97500000017959
21
-189.89200536135482
31
-3.1438110040164955e-29
0
LINE
5
349
100
AcDbEntity
8
0
100
AcDbLine
10
204.97500000019429
20
-197.89200536135502
30
-1.2325951644078117e-32
11
202.97500000017936
21
-197.89200536135468
31
1.1093356479762132e-31
0
LINE
5
350
100
AcDbEntity
8
0
100
AcDbLine
10
224.97500000017681
20
-292.10799463865067
30
-4.1568353393504503e-47
11
226.97500000018044
21
-292.10799463865078
31
3.0814879110250056e-31
0
LINE
5
351
100
AcDbEntity
8
0
100
AcDbLine
10
224.97500000017655
20
-300.10799463865067
30
4.7570469625774078e-31
11
226.97500000017928
21
-300.10799463865055
31
4.4931945601892458e-31
0
LINE
5
352
100
AcDbEntity
8
0
100
AcDbLine
10
204.97500000017695
20
-316.00000000000256
30
-1.6871146312524041e-30
11
202.97500000017612
21
-316.00000000000239
31
-1.6093070614960446e-30
0
LINE
5
353
100
AcDbEntity
8
0
100
AcDbLine
10
142.95000000036055
20
-250.00000000000978
30
1.1748172660302688e-31
11
146.00000000000395
21
-250.00000000000091
31
6.1629758220391137e-33
0
LINE
5
354
100
AcDbEntity
8
0
100
AcDbLine
10
142.950000000362
20
-240.00000000000972
30
6.1629758220386251e-33
11
146.00000000000423
21
-240.00000000000097
31
-1.5888922040314505e-32
0
LINE
5
355
100
AcDbEntity
8
0
100
AcDbLine
10
149.00000000000065
20
-162.99999999999503
30
-3.944304526105059e-29
11
149.00000000000577
21
-167.00000000000108
31
6.249642669566128e-32
0
LINE
5
356
100
AcDbEntity
8
0
100
AcDbLine
10
140.00000000035368
20
-162.99999999999801
30
-7.125940794133457e-33
11
139.95000000037271
21
-167.00000000000944
31
-4.9303806576313238e-31
0
LINE
5
357
100
AcDbEntity
8
0
100
AcDbLine
10
143.00000000035112
20
-89.999999999999091
30
3.1558769551215646e-29
11
145.99999999999815
21
-89.999999999996163
31
-7.3955709864469638e-32
0
LINE
5
358
100
AcDbEntity
8
0
100
AcDbLine
10
143.00000000035081
20
-79.999999999999261
30
-4.3140830754273629e-32
11
145.99999999999778
21
-79.999999999996291
31
-5.2963073471251763e-32
0
LINE
5
359
100
AcDbEntity
8
0
100
AcDbLine
10
139.00000000034876
20
-6.0000000000003704
30
-2.4651903288156493e-32
11
149.99999999999471
21
-5.9999999999974039
31
-9.6296497132607405e-32
0
LINE
5
360
100
AcDbEntity
8
0
100
AcDbLine
10
86.000000000175504
20
-7.0000000000007665
30
-3.1559636219690419e-29
11
86.000000000175447
21
-2.9999999999999716
31
-3.1732199542707532e-29
0
LINE
5
361
100
AcDbEntity
8
0
100
AcDbLine
10
62.000000000173799
20
-6.9999999999990647
30
-2.4651903288156619e-31
11
62.000000000173692
21
-2.9999999999999716
31
-2.0337820212731961e-31
0
LINE
5
362
100
AcDbEntity
8
0
100
AcDbLine
10
64.000000000176158
20
-20.392005361353217
30
-1.0448169948494834e-31
11
62.000000000174261
21
-20.392005361353252
31
-8.5414993035488533e-32
0
LINE
5
363
100
AcDbEntity
8
0
100
AcDbLine
10
64.000000000176342
20
-28.3920053613531
30
4.3140830754273497e-32
11
62.000000000174538
21
-28.392005361353206
31
-1.4976031247569474e-30
0
LINE
5
364
100
AcDbEntity
8
0
100
AcDbLine
10
84.000000000175021
20
-49.795494638645565
30
8.0118685686506056e-32
11
86.000000000176712
21
-49.795494638645422
31
8.1967578433186426e-31
0
LINE
5
365
100
AcDbEntity
8
0
100
AcDbLine
10
84.000000000175305
20
-57.795494638645472
30
-2.3977827807239057e-31
11
86.000000000176925
21
-57.795494638645437
31
-2.2090416461699051e-31
0
LINE
5
366
100
AcDbEntity
8
0
100
AcDbLine
10
64.000000000178659
20
-112.20450536135186
30
6.5000135621171326e-32
11
62.000000000177451
21
-112.20450536135191
31
7.4437192348480132e-32
0
LINE
5
367
100
AcDbEntity
8
0
100
AcDbLine
10
64.000000000178886
20
-120.20450536135175
30
3.6977854932234551e-32
11
62.000000000177728
21
-120.20450536135188
31
-7.0257924371291521e-31
0
LINE
5
368
100
AcDbEntity
8
0
100
AcDbLine
10
84.00000000017819
20
-141.60799463864424
30
7.3955709864467229e-32
11
86.000000000179256
21
-141.60799463864404
31
1.6146996653751533e-30
0
LINE
5
369
100
AcDbEntity
8
0
100
AcDbLine
10
84.000000000178431
20
-149.60799463864413
30
-7.0296442966254264e-32
11
86.000000000179455
21
-149.60799463864407
31
-6.1051979232976797e-32
0
LINE
5
370
100
AcDbEntity
8
0
100
AcDbLine
10
83.975000000180131
20
-165.99999999999923
30
-3.7230384689336235e-46
11
86.975000000198861
21
-166.00000000000227
31
1.2325951644078471e-32
0
LINE
5
371
100
AcDbEntity
8
0
100
AcDbLine
10
86.000000000179838
20
-162.99999999999841
30
-2.4651903288156619e-31
11
86.000000000179838
21
-166.00000000000131
31
-3.0198581527999364e-31
0
LINE
5
372
100
AcDbEntity
8
0
100
AcDbLine
10
62.000000000179199
20
-162.99999999999676
30
3.1561465853137687e-29
11
62.000000000179092
21
-165.99999999999866
31
3.1302620868611836e-29
0
LINE
5
373
100
AcDbEntity
8
0
100
AcDbLine
10
83.975000000179875
20
-173.99999999999923
30
2.291856633761781e-31
11
85.975000000197696
21
-173.99999999999923
31
2.0280042313724077e-31
0
LINE
5
374
100
AcDbEntity
8
0
100
AcDbLine
10
63.975000000195372
20
-189.89200536135147
30
3.8518598918573283e-32
11
61.975000000179435
21
-189.89200536135118
31
1.1632616867552004e-31
0
LINE
5
375
100
AcDbEntity
8
0
100
AcDbLine
10
63.975000000194164
20
-197.89200536135149
30
-3.1566762160484562e-29
11
61.975000000179215
21
-197.89200536135112
31
3.1665369774108686e-29
0
LINE
5
376
100
AcDbEntity
8
0
100
AcDbLine
10
83.975000000176664
20
-292.10799463864686
30
4.0625341283831589e-46
11
85.975000000180387
21
-292.10799463864697
31
3.0814879110252001e-31
0
LINE
5
377
100
AcDbEntity
8
0
100
AcDbLine
10
83.975000000176422
20
-300.10799463864686
30
4.7570469625774078e-31
11
85.975000000179222
21
-300.10799463864691
31
4.4931945601900857e-31
0
LINE
5
378
100
AcDbEntity
8
0
100
AcDbLine
10
63.975000000176877
20
-315.99999999999903
30
-1.6871146312524041e-30
11
61.975000000175967
21
-315.99999999999875
31
-1.6093070614960418e-30
0
LINE
5
379
100
AcDbEntity
8
0
100
AcDbLine
10
8.0000000000056293
20
-166.99999999999727
30
3.1616932635536135e-29
11
8.0000000000059188
21
-162.99999999999758
31
-7.8886090522101181e-30
0
LINE
5
380
100
AcDbEntity
8
0
100
AcDbLine
10
8.0000000000000249
20
-6.9999999999999387
30
-7.0296442972076577e-33
11
8.0000000000000284
21
-2.9999999999999716
31
-6.8110512422546817e-31
0
LINE
5
381
100
AcDbEntity
8
0
100
AcDbLine
10
8.0000000000057732
20
-164.99999999999744
30
1.1864161791663009e-29
11
2.9999999999999361
21
-164.99999999999744
31
1.1864161791663009e-29
0
ENDSEC
0
SECTION
2
OBJECTS
0
DICTIONARY
5
C
100
AcDbDictionary
3
ACAD_GROUP
350
D
3
ACAD_MLINESTYLE
350
17
0
DICTIONARY
5
D
100
AcDbDictionary
0
DICTIONARY
5
1A
330
C
100
AcDbDictionary
0
DICTIONARY
5
17
100
AcDbDictionary
0
ENDSEC
0
EOF
