0
SECTION
2
HEADER
9
$INSUNITS
70
4
9
$ACADVER
1
AC1014
9
$HANDSEED
5
FFFF
0
ENDSEC
0
SECTION
2
TABLES
0
TABLE
2
VPORT
5
8
100
AcDbSymbolTable
0
ENDTAB
0
TABLE
2
LTYPE
5
5
100
AcDbSymbolTable
0
LTYPE
5
14
100
AcDbSymbolTableRecord
100
AcDbLinetypeTableRecord
2
BYBLOCK
70
0
0
LTYPE
5
15
100
AcDbSymbolTableRecord
100
AcDbLinetypeTableRecord
2
BYLAYER
70
0
0
ENDTAB
0
TABLE
2
LAYER
5
2
100
AcDbSymbolTable
70
2
0
LAYER
5
50
100
AcDbSymbolTableRecord
100
AcDbLayerTableRecord
2
0
70
0
6
CONTINUOUS
0
ENDTAB
0
TABLE
2
STYLE
5
3
100
AcDbSymbolTable
70
1
0
STYLE
5
11
100
AcDbSymbolTableRecord
100
AcDbTextStyleTableRecord
2
STANDARD
70
0
0
ENDTAB
0
TABLE
2
VIEW
5
6
100
AcDbSymbolTable
70
0
0
ENDTAB
0
TABLE
2
UCS
5
7
100
AcDbSymbolTable
70
0
0
ENDTAB
0
TABLE
2
APPID
5
9
100
AcDbSymbolTable
70
2
0
APPID
5
12
100
AcDbSymbolTableRecord
100
AcDbRegAppTableRecord
2
ACAD
70
0
0
ENDTAB
0
TABLE
2
DIMSTYLE
5
A
100
AcDbSymbolTable
70
1
0
ENDTAB
0
TABLE
2
BLOCK_RECORD
5
1
100
AcDbSymbolTable
70
1
0
BLOCK_RECORD
5
1F
100
AcDbSymbolTableRecord
100
AcDbBlockTableRecord
2
*MODEL_SPACE
0
BLOCK_RECORD
5
1B
100
AcDbSymbolTableRecord
100
AcDbBlockTableRecord
2
*PAPER_SPACE
0
ENDTAB
0
ENDSEC
0
SECTION
2
BLOCKS
0
BLOCK
5
20
100
AcDbEntity
100
AcDbBlockBegin
2
*MODEL_SPACE
0
ENDBLK
5
21
100
AcDbEntity
100
AcDbBlockEnd
0
BLOCK
5
1C
100
AcDbEntity
100
AcDbBlockBegin
2
*PAPER_SPACE
0
ENDBLK
5
1D
100
AcDbEntity
100
AcDbBlockEnd
0
ENDSEC
0
SECTION
2
ENTITIES
0
CIRCLE
5
100
100
AcDbEntity
8
0
100
AcDbCircle
10
-144.50000000000148
20
-361.65000628557976
30
5.0487097934144756e-28
40
1.0500000000000029
210
2.9625721690049882e-47
220
3.944304526105059e-31
230
1
0
CIRCLE
5
101
100
AcDbEntity
8
0
100
AcDbCircle
10
-117.00000000000152
20
-361.65000628557976
30
-5.0487097934144756e-28
40
1.0500000000000029
210
2.9625721690049882e-47
220
3.944304526105059e-31
230
1
0
CIRCLE
5
102
100
AcDbEntity
8
0
100
AcDbCircle
10
-77.500000000001833
20
-361.65000628557976
30
0
40
1.0500000000000029
210
2.9625721690049882e-47
220
3.944304526105059e-31
230
1
0
CIRCLE
5
103
100
AcDbEntity
8
0
100
AcDbCircle
10
-50.500000000001648
20
-361.65000628557976
30
3.7865323450608567e-28
40
1.0500000000000029
210
2.9625721690049882e-47
220
3.944304526105059e-31
230
1
0
CIRCLE
5
104
100
AcDbEntity
8
0
100
AcDbCircle
10
-23.50000000000172
20
-361.65000628557976
30
2.5243548967072378e-28
40
1.0500000000000029
210
2.9625721690049882e-47
220
3.944304526105059e-31
230
1
0
CIRCLE
5
105
100
AcDbEntity
8
0
100
AcDbCircle
10
-154.00000000000165
20
-361.65000628557971
30
0
40
0.99999999999999534
210
3.944304526105059e-31
220
1.0947644252534479e-47
230
1
0
CIRCLE
5
106
100
AcDbEntity
8
0
100
AcDbCircle
10
-97.564570642999925
20
-361.65000628557971
30
-5.0487097934144756e-28
40
0.99999999999999534
210
3.944304526105059e-31
220
1.0947644252534479e-47
230
1
0
CIRCLE
5
107
100
AcDbEntity
8
0
100
AcDbCircle
10
-6.0000000000020233
20
-361.65000628557971
30
5.0487097934144756e-28
40
0.99999999999999867
210
-5.4738221262649753e-48
220
-3.944304526105059e-31
230
1
0
LWPOLYLINE
5
108
100
AcDbEntity
8
0
100
AcDbPolyline
90
6
70
1
43
0.0
10
-1.0000000000020393
20
-371.65000628557976
10
-162.00000000000162
20
-371.65000628557976
10
-162.00000000000171
20
-359.7750036150278
10
-159.00000000000165
20
-359.77500361502769
10
-159.00000000000165
20
-351.65000628557982
10
-1.0000000000020717
20
-351.65000628557976
0
CIRCLE
5
109
100
AcDbEntity
8
0
100
AcDbCircle
10
-144.50000000000151
20
-340.65000628557993
30
3.7865323450608567e-28
40
1.0500000000000029
210
0
220
-0
230
1
0
CIRCLE
5
110
100
AcDbEntity
8
0
100
AcDbCircle
10
-117.00000000000156
20
-340.65000628557993
30
2.5243548967072378e-28
40
1.0500000000000029
210
0
220
-0
230
1
0
CIRCLE
5
111
100
AcDbEntity
8
0
100
AcDbCircle
10
-77.500000000001876
20
-340.65000628557993
30
-2.5243548967072378e-28
40
1.0500000000000029
210
0
220
-0
230
1
0
CIRCLE
5
112
100
AcDbEntity
8
0
100
AcDbCircle
10
-50.500000000001691
20
-340.65000628557993
30
1.2621774483536189e-28
40
1.0500000000000029
210
0
220
-0
230
1
0
CIRCLE
5
113
100
AcDbEntity
8
0
100
AcDbCircle
10
-23.500000000001759
20
-340.65000628557993
30
1.2621774483536189e-28
40
1.0500000000000029
210
0
220
-0
230
1
0
CIRCLE
5
114
100
AcDbEntity
8
0
100
AcDbCircle
10
-154.00000000000171
20
-340.65000628557988
30
-2.5243548967072378e-28
40
0.99999999999999534
210
3.944304526105059e-31
220
1.0947644252534669e-47
230
1
0
CIRCLE
5
115
100
AcDbEntity
8
0
100
AcDbCircle
10
-97.564570642999954
20
-340.65000628557988
30
3.7865323450608567e-28
40
0.99999999999999534
210
3.944304526105059e-31
220
1.0947644252534669e-47
230
1
0
CIRCLE
5
116
100
AcDbEntity
8
0
100
AcDbCircle
10
-6.0000000000020641
20
-340.65000628557988
30
3.7865323450608567e-28
40
0.99999999999999867
210
5.4738221262649698e-48
220
3.944304526105059e-31
230
1
0
LWPOLYLINE
5
117
100
AcDbEntity
8
0
100
AcDbPolyline
90
6
70
1
43
0.0
10
-1.0000000000020748
20
-350.65000628557993
10
-162.00000000000165
20
-350.65000628557993
10
-162.00000000000173
20
-338.77500361502797
10
-159.00000000000171
20
-338.77500361502791
10
-159.00000000000171
20
-330.65000628558005
10
-1.0000000000021112
20
-330.65000628557993
0
LWPOLYLINE
5
118
100
AcDbEntity
8
0
100
AcDbPolyline
90
6
70
1
43
0.0
10
-162.00000000000188
20
-309.65000628558005
10
-4.0000000000020552
20
-309.65000628558005
10
-4.0000000000020561
20
-316.00000025058597
10
-1.0000000000020528
20
-316.00000025058603
10
-1.0000000000020748
20
-329.65000628558005
10
-162.00000000000188
20
-329.65000628558005
0
CIRCLE
5
119
100
AcDbEntity
8
0
100
AcDbCircle
10
-88.150000000001711
20
-319.65000628558005
30
0
40
1.0500000000000049
210
3.9443045261050573e-31
220
-1.5777218104420236e-30
230
1
0
CIRCLE
5
120
100
AcDbEntity
8
0
100
AcDbCircle
10
-41.950000000001921
20
-319.65000628558005
30
-2.5243548967072378e-28
40
1.0500000000000049
210
3.9443045261050573e-31
220
-1.5777218104420236e-30
230
1
0
CIRCLE
5
121
100
AcDbEntity
8
0
100
AcDbCircle
10
-19.050000000001919
20
-319.65000628558005
30
0
40
1.0500000000000049
210
3.9443045261050573e-31
220
-1.5777218104420236e-30
230
1
0
CIRCLE
5
122
100
AcDbEntity
8
0
100
AcDbCircle
10
-110.8500000000018
20
-319.65000628558005
30
-1.2621774483536189e-28
40
1.0500000000000049
210
3.9443045261050573e-31
220
-1.5777218104420236e-30
230
1
0
CIRCLE
5
123
100
AcDbEntity
8
0
100
AcDbCircle
10
-65.050000000001873
20
-319.65000628558005
30
-1.2621774483536189e-28
40
1.0500000000000049
210
3.9443045261050573e-31
220
-1.5777218104420236e-30
230
1
0
CIRCLE
5
124
100
AcDbEntity
8
0
100
AcDbCircle
10
-133.77500000000174
20
-319.65000628558005
30
2.5243548967072378e-28
40
1.0500000000000049
210
3.9443045261050573e-31
220
-1.5777218104420236e-30
230
1
0
CIRCLE
5
125
100
AcDbEntity
8
0
100
AcDbCircle
10
-156.3500000000017
20
-319.65000628558005
30
0
40
1.0500000000000049
210
3.9443045261050573e-31
220
-1.5777218104420236e-30
230
1
0
CIRCLE
5
126
100
AcDbEntity
8
0
100
AcDbCircle
10
-77.243960065534893
20
-319.65000628558005
30
0
40
0.999999999999997
210
-4.0540495122675263e-47
220
-3.944304526105059e-31
230
1
0
CIRCLE
5
127
100
AcDbEntity
8
0
100
AcDbCircle
10
-145.72783291736314
20
-319.65000628558005
30
0
40
0.999999999999997
210
-4.0540495122675263e-47
220
-3.944304526105059e-31
230
1
0
CIRCLE
5
128
100
AcDbEntity
8
0
100
AcDbCircle
10
-9.1833472175452364
20
-319.65000628558005
30
-3.7865323450608567e-28
40
1.0000000000000004
210
1.6216198049070103e-46
220
1.5777218104420236e-30
230
1
0
LWPOLYLINE
5
129
100
AcDbEntity
8
0
100
AcDbPolyline
90
30
70
1
43
0.0
10
-164.50000000000091
20
-228.9000027000007
10
-150.49999999999721
20
-228.9000027000007
10
-150.50000000000119
20
-245.74999999999915
42
0.41421356237309193
10
-145.50000000000128
20
-250.74999999999918
10
-52.500000000001407
20
-250.74999999999909
42
0.41421356237308776
10
-47.500000000001393
20
-245.74999999999909
10
-47.500000000001243
20
-236.14999978073755
10
-34.50000000000194
20
-236.14999978073752
10
-34.500000000001279
20
-243.52499999999893
10
-37.500000000001322
20
-243.52499999999895
10
-37.500000000002125
20
-293.72499999999934
10
-34.500000000002068
20
-293.72499999999928
10
-34.500000000002288
20
-308.62499999999932
10
-42.500000000002487
20
-308.62499999999926
42
-0.41421356237308099
10
-47.500000000002345
20
-303.6249999999992
10
-47.500000000002288
20
-301.34999999999917
42
0.41421356237309293
10
-52.500000000002203
20
-296.34999999999911
10
-145.5000000000021
20
-296.34999999999923
42
0.41421356237309293
10
-150.5000000000021
20
-301.34999999999923
10
-150.50000000000216
20
-303.62499999999926
42
-0.41421356237310231
10
-155.50000000000216
20
-308.62499999999932
10
-164.50000000000219
20
-308.62499999999932
10
-164.50000000000193
20
-293.72500270000052
10
-160.50000000000193
20
-293.72500270000057
10
-160.50000000000171
20
-279.02500270000064
10
-164.50000000000171
20
-279.02500270000064
10
-164.50000000000136
20
-258.72500270000063
10
-160.50000000000142
20
-258.72500270000063
10
-160.50000000000122
20
-244.0250027000007
10
-164.50000000000117
20
-244.02500270000073
0
CIRCLE
5
130
100
AcDbEntity
8
0
100
AcDbCircle
10
-162.50000000000108
20
-236.37500270000066
30
0
40
0.749999999999998
210
3.944304526105059e-31
220
-6.2516608032586903e-45
230
1
0
CIRCLE
5
131
100
AcDbEntity
8
0
100
AcDbCircle
10
-42.474291840353459
20
-246.12499978073754
30
0
40
0.74999999999999079
210
-0
220
0
230
1
0
CIRCLE
5
132
100
AcDbEntity
8
0
100
AcDbCircle
10
-100.50000000000139
20
-260.74999999999932
30
0
40
0.99999999999999367
210
3.9443045261050625e-31
220
-3.9443045261051212e-31
230
1
0
CIRCLE
5
133
100
AcDbEntity
8
0
100
AcDbCircle
10
-44.500000000001577
20
-260.74999999999932
30
0
40
0.99999999999999367
210
3.9443045261050625e-31
220
-3.9443045261051212e-31
230
1
0
CIRCLE
5
134
100
AcDbEntity
8
0
100
AcDbCircle
10
-153.50000000000148
20
-260.74999999999937
30
0
40
0.999999999999997
210
3.615074636282248e-46
220
-3.9443045261050599e-31
230
1
0
CIRCLE
5
135
100
AcDbEntity
8
0
100
AcDbCircle
10
-87.000000000001421
20
-260.74999999999932
30
0
40
1.1000000000000001
210
3.6150746362822472e-46
220
-3.944304526105059e-31
230
1
0
CIRCLE
5
136
100
AcDbEntity
8
0
100
AcDbCircle
10
-114.00000000000136
20
-260.74999999999937
30
0
40
1.1000000000000001
210
3.6150746362822472e-46
220
-3.944304526105059e-31
230
1
0
CIRCLE
5
137
100
AcDbEntity
8
0
100
AcDbCircle
10
-60.000000000001457
20
-260.74999999999932
30
0
40
1.0999999999999912
210
-0
220
0
230
1
0
CIRCLE
5
138
100
AcDbEntity
8
0
100
AcDbCircle
10
-47.500000000002025
20
-284.2499999999992
30
0
40
1.1250000000000038
210
3.9443045261050564e-31
220
3.9443045261049964e-31
230
1
0
CIRCLE
5
139
100
AcDbEntity
8
0
100
AcDbCircle
10
-150.50000000000182
20
-284.24999999999926
30
0
40
1.1249999999999973
210
3.944304526105059e-31
220
-6.2516608032586903e-45
230
1
0
LWPOLYLINE
5
140
100
AcDbEntity
8
0
100
AcDbPolyline
90
4
70
1
43
0.0
10
-104.10000000000188
20
-282.34999999999923
10
-104.10000000000194
20
-286.14999999999924
10
-93.900000000002009
20
-286.14999999999924
10
-93.900000000001967
20
-282.34999999999923
0
CIRCLE
5
141
100
AcDbEntity
8
0
100
AcDbCircle
10
-306.50000000000097
20
-361.65000628557982
30
2.5243548967072378e-28
40
1.0500000000000027
210
-3.944304526105059e-31
220
1.320425531125047e-47
230
1
0
CIRCLE
5
142
100
AcDbEntity
8
0
100
AcDbCircle
10
-279.00000000000102
20
-361.65000628557982
30
2.5243548967072378e-28
40
1.0500000000000027
210
-3.944304526105059e-31
220
1.320425531125047e-47
230
1
0
CIRCLE
5
143
100
AcDbEntity
8
0
100
AcDbCircle
10
-239.50000000000134
20
-361.65000628557982
30
-2.5243548967072378e-28
40
1.0500000000000027
210
-3.944304526105059e-31
220
1.320425531125047e-47
230
1
0
CIRCLE
5
144
100
AcDbEntity
8
0
100
AcDbCircle
10
-212.50000000000117
20
-361.65000628557993
30
3.7865323450608567e-28
40
1.0500000000000027
210
-3.944304526105059e-31
220
1.320425531125047e-47
230
1
0
CIRCLE
5
145
100
AcDbEntity
8
0
100
AcDbCircle
10
-185.50000000000125
20
-361.65000628557993
30
2.5243548967072378e-28
40
1.0500000000000027
210
-3.944304526105059e-31
220
1.320425531125047e-47
230
1
0
CIRCLE
5
146
100
AcDbEntity
8
0
100
AcDbCircle
10
-316.00000000000119
20
-361.65000628557976
30
-2.5243548967072378e-28
40
0.99999999999999523
210
5.8159360091566153e-48
220
3.944304526105059e-31
230
1
0
CIRCLE
5
147
100
AcDbEntity
8
0
100
AcDbCircle
10
-259.56457064299946
20
-361.65000628557976
30
5.0487097934144756e-28
40
0.99999999999999523
210
5.8159360091566153e-48
220
3.944304526105059e-31
230
1
0
CIRCLE
5
148
100
AcDbEntity
8
0
100
AcDbCircle
10
-168.00000000000153
20
-361.65000628557976
30
3.7865323450608567e-28
40
0.99999999999999856
210
3.944304526105059e-31
220
7.8886090522101181e-31
230
1
0
LWPOLYLINE
5
149
100
AcDbEntity
8
0
100
AcDbPolyline
90
6
70
1
43
0.0
10
-163.00000000000156
20
-371.65000628557982
10
-324.00000000000114
20
-371.65000628557982
10
-324.00000000000119
20
-359.77500361502786
10
-321.00000000000114
20
-359.77500361502786
10
-321.00000000000114
20
-351.65000628557993
10
-163.00000000000159
20
-351.65000628557982
0
CIRCLE
5
150
100
AcDbEntity
8
0
100
AcDbCircle
10
-306.50000000000102
20
-340.65000628557993
30
0
40
1.0500000000000029
210
0
220
-0
230
1
0
CIRCLE
5
151
100
AcDbEntity
8
0
100
AcDbCircle
10
-279.00000000000108
20
-340.65000628557993
30
-1.2621774483536189e-28
40
1.0500000000000029
210
0
220
-0
230
1
0
CIRCLE
5
152
100
AcDbEntity
8
0
100
AcDbCircle
10
-239.50000000000136
20
-340.65000628557993
30
5.0487097934144756e-28
40
1.0500000000000029
210
0
220
-0
230
1
0
CIRCLE
5
153
100
AcDbEntity
8
0
100
AcDbCircle
10
-212.50000000000119
20
-340.65000628557993
30
-2.5243548967072378e-28
40
1.0500000000000029
210
0
220
-0
230
1
0
CIRCLE
5
154
100
AcDbEntity
8
0
100
AcDbCircle
10
-185.50000000000128
20
-340.65000628557993
30
-2.5243548967072378e-28
40
1.0500000000000029
210
0
220
-0
230
1
0
CIRCLE
5
155
100
AcDbEntity
8
0
100
AcDbCircle
10
-316.00000000000125
20
-340.65000628557988
30
-1.2621774483536189e-28
40
0.99999999999999534
210
3.944304526105059e-31
220
1.0947644252534669e-47
230
1
0
CIRCLE
5
156
100
AcDbEntity
8
0
100
AcDbCircle
10
-259.56457064299946
20
-340.65000628557988
30
0
40
0.99999999999999534
210
3.944304526105059e-31
220
1.0947644252534669e-47
230
1
0
CIRCLE
5
157
100
AcDbEntity
8
0
100
AcDbCircle
10
-168.00000000000159
20
-340.65000628557988
30
-1.2621774483536189e-28
40
0.99999999999999867
210
5.4738221262649698e-48
220
3.944304526105059e-31
230
1
0
LWPOLYLINE
5
158
100
AcDbEntity
8
0
100
AcDbPolyline
90
6
70
1
43
0.0
10
-163.00000000000159
20
-350.65000628557993
10
-324.00000000000119
20
-350.65000628557993
10
-324.00000000000125
20
-338.77500361502797
10
-321.00000000000125
20
-338.77500361502791
10
-321.00000000000125
20
-330.65000628558005
10
-163.00000000000165
20
-330.65000628557993
0
LWPOLYLINE
5
159
100
AcDbEntity
8
0
100
AcDbPolyline
90
6
70
1
43
0.0
10
-324.00000000000136
20
-309.65000628557999
10
-166.00000000000153
20
-309.65000628557999
10
-166.00000000000153
20
-316.00000025058591
10
-163.00000000000153
20
-316.00000025058597
10
-163.00000000000153
20
-329.65000628558005
10
-324.00000000000136
20
-329.65000628557993
0
CIRCLE
5
160
100
AcDbEntity
8
0
100
AcDbCircle
10
-250.15000000000123
20
-319.65000628557993
30
0
40
1.0500000000000049
210
3.9443045261050573e-31
220
-1.5777218104420236e-30
230
1
0
CIRCLE
5
161
100
AcDbEntity
8
0
100
AcDbCircle
10
-203.95000000000141
20
-319.65000628557993
30
2.5243548967072378e-28
40
1.0500000000000049
210
3.9443045261050573e-31
220
-1.5777218104420236e-30
230
1
0
CIRCLE
5
162
100
AcDbEntity
8
0
100
AcDbCircle
10
-181.05000000000143
20
-319.65000628557999
30
2.5243548967072378e-28
40
1.0500000000000049
210
3.9443045261050573e-31
220
-1.5777218104420236e-30
230
1
0
CIRCLE
5
163
100
AcDbEntity
8
0
100
AcDbCircle
10
-272.85000000000133
20
-319.65000628557993
30
2.5243548967072378e-28
40
1.0500000000000049
210
3.9443045261050573e-31
220
-1.5777218104420236e-30
230
1
0
CIRCLE
5
164
100
AcDbEntity
8
0
100
AcDbCircle
10
-227.05000000000138
20
-319.65000628557993
30
2.5243548967072378e-28
40
1.0500000000000049
210
3.9443045261050573e-31
220
-1.5777218104420236e-30
230
1
0
CIRCLE
5
165
100
AcDbEntity
8
0
100
AcDbCircle
10
-295.77500000000123
20
-319.65000628557993
30
1.2621774483536189e-28
40
1.0500000000000049
210
3.9443045261050573e-31
220
-1.5777218104420236e-30
230
1
0
CIRCLE
5
166
100
AcDbEntity
8
0
100
AcDbCircle
10
-318.35000000000122
20
-319.65000628557993
30
-1.2621774483536189e-28
40
1.0500000000000049
210
3.9443045261050573e-31
220
-1.5777218104420236e-30
230
1
0
CIRCLE
5
167
100
AcDbEntity
8
0
100
AcDbCircle
10
-239.2439600655344
20
-319.65000628557993
30
0
40
0.999999999999997
210
-4.0540495122675263e-47
220
-3.944304526105059e-31
230
1
0
CIRCLE
5
168
100
AcDbEntity
8
0
100
AcDbCircle
10
-307.72783291736266
20
-319.65000628557993
30
0
40
0.999999999999997
210
-4.0540495122675263e-47
220
-3.944304526105059e-31
230
1
0
CIRCLE
5
169
100
AcDbEntity
8
0
100
AcDbCircle
10
-171.18334721754474
20
-319.65000628557999
30
0
40
1.0000000000000004
210
1.6216198049070103e-46
220
1.5777218104420236e-30
230
1
0
LWPOLYLINE
5
170
100
AcDbEntity
8
0
100
AcDbPolyline
90
6
70
1
43
0.0
10
-486.00000000000068
20
-351.65000628558005
10
-328.00000000000091
20
-351.65000628558005
10
-328.00000000000091
20
-358.00000025058591
10
-325.00000000000091
20
-358.00000025058591
10
-325.00000000000085
20
-371.65000628558005
10
-486.00000000000068
20
-371.65000628557999
0
CIRCLE
5
171
100
AcDbEntity
8
0
100
AcDbCircle
10
-412.1500000000006
20
-361.65000628557999
30
-2.5243548967072378e-28
40
1.0500000000000052
210
-1.9407718405938245e-46
220
-1.1832913578315177e-30
230
1
0
CIRCLE
5
172
100
AcDbEntity
8
0
100
AcDbCircle
10
-365.95000000000078
20
-361.65000628557999
30
-3.7865323450608567e-28
40
1.0500000000000052
210
-1.9407718405938245e-46
220
-1.1832913578315177e-30
230
1
0
CIRCLE
5
173
100
AcDbEntity
8
0
100
AcDbCircle
10
-343.05000000000075
20
-361.65000628558005
30
-2.5243548967072378e-28
40
1.0500000000000052
210
-1.9407718405938245e-46
220
-1.1832913578315177e-30
230
1
0
CIRCLE
5
174
100
AcDbEntity
8
0
100
AcDbCircle
10
-434.85000000000065
20
-361.65000628557999
30
-2.5243548967072378e-28
40
1.0500000000000052
210
-1.9407718405938245e-46
220
-1.1832913578315177e-30
230
1
0
CIRCLE
5
175
100
AcDbEntity
8
0
100
AcDbCircle
10
-389.05000000000075
20
-361.65000628557999
30
-3.7865323450608567e-28
40
1.0500000000000052
210
-1.9407718405938245e-46
220
-1.1832913578315177e-30
230
1
0
CIRCLE
5
176
100
AcDbEntity
8
0
100
AcDbCircle
10
-457.7750000000006
20
-361.65000628557999
30
0
40
1.0500000000000052
210
-1.9407718405938245e-46
220
-1.1832913578315177e-30
230
1
0
CIRCLE
5
177
100
AcDbEntity
8
0
100
AcDbCircle
10
-480.35000000000053
20
-361.65000628557999
30
-2.5243548967072378e-28
40
1.0500000000000052
210
-1.9407718405938245e-46
220
-1.1832913578315177e-30
230
1
0
CIRCLE
5
178
100
AcDbEntity
8
0
100
AcDbCircle
10
-401.24396006553377
20
-361.65000628557999
30
-1.2621774483536189e-28
40
0.99999999999999711
210
4.0540495122675891e-47
220
3.9443045261050599e-31
230
1
0
CIRCLE
5
179
100
AcDbEntity
8
0
100
AcDbCircle
10
-469.72783291736198
20
-361.65000628557999
30
-1.2621774483536189e-28
40
0.99999999999999711
210
4.0540495122675891e-47
220
3.9443045261050599e-31
230
1
0
CIRCLE
5
180
100
AcDbEntity
8
0
100
AcDbCircle
10
-333.18334721754411
20
-361.65000628558005
30
3.7865323450608567e-28
40
1.0000000000000007
210
-2.0270247561337944e-46
220
-1.9721522630525295e-30
230
1
0
CIRCLE
5
181
100
AcDbEntity
8
0
100
AcDbCircle
10
-468.50000000000057
20
-340.65000628558005
30
-2.5243548967072378e-28
40
1.0500000000000029
210
0
220
-0
230
1
0
CIRCLE
5
182
100
AcDbEntity
8
0
100
AcDbCircle
10
-441.00000000000068
20
-340.65000628558005
30
1.2621774483536189e-28
40
1.0500000000000029
210
0
220
-0
230
1
0
CIRCLE
5
183
100
AcDbEntity
8
0
100
AcDbCircle
10
-401.50000000000091
20
-340.65000628558005
30
2.5243548967072378e-28
40
1.0500000000000029
210
0
220
-0
230
1
0
CIRCLE
5
184
100
AcDbEntity
8
0
100
AcDbCircle
10
-374.50000000000074
20
-340.6500062855801
30
-2.5243548967072378e-28
40
1.0500000000000029
210
0
220
-0
230
1
0
CIRCLE
5
185
100
AcDbEntity
8
0
100
AcDbCircle
10
-347.5000000000008
20
-340.6500062855801
30
-2.5243548967072378e-28
40
1.0500000000000029
210
0
220
-0
230
1
0
CIRCLE
5
186
100
AcDbEntity
8
0
100
AcDbCircle
10
-478.00000000000074
20
-340.65000628557993
30
1.2621774483536189e-28
40
0.99999999999999534
210
3.944304526105059e-31
220
1.0947644252534669e-47
230
1
0
CIRCLE
5
187
100
AcDbEntity
8
0
100
AcDbCircle
10
-421.564570642999
20
-340.65000628557993
30
-1.2621774483536189e-28
40
0.99999999999999534
210
3.944304526105059e-31
220
1.0947644252534669e-47
230
1
0
CIRCLE
5
188
100
AcDbEntity
8
0
100
AcDbCircle
10
-330.00000000000114
20
-340.65000628557993
30
-2.5243548967072378e-28
40
0.99999999999999867
210
5.4738221262649698e-48
220
3.944304526105059e-31
230
1
0
LWPOLYLINE
5
189
100
AcDbEntity
8
0
100
AcDbPolyline
90
6
70
1
43
0.0
10
-325.00000000000114
20
-350.65000628558005
10
-486.00000000000074
20
-350.65000628558005
10
-486.0000000000008
20
-338.77500361502803
10
-483.00000000000074
20
-338.77500361502803
10
-483.00000000000068
20
-330.6500062855801
10
-325.00000000000119
20
-330.65000628558005
0
LWPOLYLINE
5
190
100
AcDbEntity
8
0
100
AcDbPolyline
90
6
70
1
43
0.0
10
-486.00000000000102
20
-309.65000628558005
10
-328.00000000000119
20
-309.65000628558005
10
-328.00000000000119
20
-316.00000025058597
10
-325.00000000000119
20
-316.00000025058603
10
-325.00000000000119
20
-329.65000628558005
10
-486.00000000000102
20
-329.65000628558005
0
CIRCLE
5
191
100
AcDbEntity
8
0
100
AcDbCircle
10
-412.15000000000089
20
-319.65000628558005
30
0
40
1.0500000000000049
210
3.9443045261050573e-31
220
-1.5777218104420236e-30
230
1
0
CIRCLE
5
192
100
AcDbEntity
8
0
100
AcDbCircle
10
-365.95000000000107
20
-319.65000628558005
30
-1.2621774483536189e-28
40
1.0500000000000049
210
3.9443045261050573e-31
220
-1.5777218104420236e-30
230
1
0
CIRCLE
5
193
100
AcDbEntity
8
0
100
AcDbCircle
10
-343.05000000000109
20
-319.65000628558005
30
0
40
1.0500000000000049
210
3.9443045261050573e-31
220
-1.5777218104420236e-30
230
1
0
CIRCLE
5
194
100
AcDbEntity
8
0
100
AcDbCircle
10
-434.85000000000093
20
-319.65000628558005
30
0
40
1.0500000000000049
210
3.9443045261050573e-31
220
-1.5777218104420236e-30
230
1
0
CIRCLE
5
195
100
AcDbEntity
8
0
100
AcDbCircle
10
-389.05000000000098
20
-319.65000628558005
30
-1.2621774483536189e-28
40
1.0500000000000049
210
3.9443045261050573e-31
220
-1.5777218104420236e-30
230
1
0
CIRCLE
5
196
100
AcDbEntity
8
0
100
AcDbCircle
10
-457.77500000000089
20
-319.65000628558005
30
2.5243548967072378e-28
40
1.0500000000000049
210
3.9443045261050573e-31
220
-1.5777218104420236e-30
230
1
0
CIRCLE
5
197
100
AcDbEntity
8
0
100
AcDbCircle
10
-480.35000000000082
20
-319.65000628558005
30
0
40
1.0500000000000049
210
3.9443045261050573e-31
220
-1.5777218104420236e-30
230
1
0
CIRCLE
5
198
100
AcDbEntity
8
0
100
AcDbCircle
10
-401.24396006553405
20
-319.65000628558005
30
1.2621774483536189e-28
40
0.999999999999997
210
-4.0540495122675263e-47
220
-3.944304526105059e-31
230
1
0
CIRCLE
5
199
100
AcDbEntity
8
0
100
AcDbCircle
10
-469.72783291736226
20
-319.65000628558005
30
0
40
0.999999999999997
210
-4.0540495122675263e-47
220
-3.944304526105059e-31
230
1
0
CIRCLE
5
200
100
AcDbEntity
8
0
100
AcDbCircle
10
-333.18334721754439
20
-319.65000628558005
30
1.2621774483536189e-28
40
1.0000000000000004
210
1.6216198049070103e-46
220
1.5777218104420236e-30
230
1
0
LWPOLYLINE
5
201
100
AcDbEntity
8
0
100
AcDbPolyline
90
6
70
1
43
0.0
10
-648.00000000000057
20
-351.6500062855801
10
-490.0000000000008
20
-351.6500062855801
10
-490.0000000000008
20
-358.00000025058608
10
-487.0000000000008
20
-358.00000025058603
10
-487.00000000000074
20
-371.6500062855801
10
-648.00000000000057
20
-371.6500062855801
0
CIRCLE
5
202
100
AcDbEntity
8
0
100
AcDbCircle
10
-574.15000000000043
20
-361.6500062855801
30
2.5243548967072378e-28
40
1.0500000000000047
210
3.9443045261050617e-31
220
1.5777218104420236e-30
230
1
0
CIRCLE
5
203
100
AcDbEntity
8
0
100
AcDbCircle
10
-527.95000000000061
20
-361.6500062855801
30
-1.2621774483536189e-28
40
1.0500000000000047
210
3.9443045261050617e-31
220
1.5777218104420236e-30
230
1
0
CIRCLE
5
204
100
AcDbEntity
8
0
100
AcDbCircle
10
-505.05000000000064
20
-361.6500062855801
30
-1.2621774483536189e-28
40
1.0500000000000047
210
3.9443045261050617e-31
220
1.5777218104420236e-30
230
1
0
CIRCLE
5
205
100
AcDbEntity
8
0
100
AcDbCircle
10
-596.85000000000048
20
-361.6500062855801
30
0
40
1.0500000000000047
210
3.9443045261050617e-31
220
1.5777218104420236e-30
230
1
0
CIRCLE
5
206
100
AcDbEntity
8
0
100
AcDbCircle
10
-551.05000000000064
20
-361.6500062855801
30
0
40
1.0500000000000047
210
3.9443045261050617e-31
220
1.5777218104420236e-30
230
1
0
CIRCLE
5
207
100
AcDbEntity
8
0
100
AcDbCircle
10
-619.77500000000043
20
-361.6500062855801
30
-1.2621774483536189e-28
40
1.0500000000000047
210
3.9443045261050617e-31
220
1.5777218104420236e-30
230
1
0
CIRCLE
5
208
100
AcDbEntity
8
0
100
AcDbCircle
10
-642.35000000000036
20
-361.6500062855801
30
1.2621774483536189e-28
40
1.0500000000000047
210
3.9443045261050617e-31
220
1.5777218104420236e-30
230
1
0
CIRCLE
5
209
100
AcDbEntity
8
0
100
AcDbCircle
10
-563.24396006553366
20
-361.6500062855801
30
1.2621774483536189e-28
40
0.99999999999999689
210
-8.1080990245351752e-47
220
-7.8886090522101181e-31
230
1
0
CIRCLE
5
210
100
AcDbEntity
8
0
100
AcDbCircle
10
-631.72783291736187
20
-361.6500062855801
30
-2.5243548967072378e-28
40
0.99999999999999689
210
-8.1080990245351752e-47
220
-7.8886090522101181e-31
230
1
0
CIRCLE
5
211
100
AcDbEntity
8
0
100
AcDbCircle
10
-495.183347217544
20
-361.6500062855801
30
0
40
1.0000000000000002
210
8.1080990245351762e-47
220
7.8886090522101181e-31
230
1
0
CIRCLE
5
212
100
AcDbEntity
8
0
100
AcDbCircle
10
-630.50000000000045
20
-340.65000628557993
30
0
40
1.0500000000000029
210
0
220
-0
230
1
0
CIRCLE
5
213
100
AcDbEntity
8
0
100
AcDbCircle
10
-603.00000000000045
20
-340.65000628557993
30
1.2621774483536189e-28
40
1.0500000000000029
210
0
220
-0
230
1
0
CIRCLE
5
214
100
AcDbEntity
8
0
100
AcDbCircle
10
-563.50000000000068
20
-340.65000628557993
30
1.2621774483536189e-28
40
1.0500000000000029
210
0
220
-0
230
1
0
CIRCLE
5
215
100
AcDbEntity
8
0
100
AcDbCircle
10
-536.50000000000057
20
-340.65000628557993
30
-1.2621774483536189e-28
40
1.0500000000000029
210
0
220
-0
230
1
0
CIRCLE
5
216
100
AcDbEntity
8
0
100
AcDbCircle
10
-509.50000000000057
20
-340.65000628557993
30
-1.2621774483536189e-28
40
1.0500000000000029
210
0
220
-0
230
1
0
CIRCLE
5
217
100
AcDbEntity
8
0
100
AcDbCircle
10
-640.00000000000057
20
-340.65000628557988
30
0
40
0.99999999999999534
210
3.944304526105059e-31
220
1.0947644252534669e-47
230
1
0
CIRCLE
5
218
100
AcDbEntity
8
0
100
AcDbCircle
10
-583.56457064299877
20
-340.65000628557988
30
1.2621774483536189e-28
40
0.99999999999999534
210
3.944304526105059e-31
220
1.0947644252534669e-47
230
1
0
CIRCLE
5
219
100
AcDbEntity
8
0
100
AcDbCircle
10
-492.00000000000097
20
-340.65000628557988
30
0
40
0.99999999999999867
210
5.4738221262649698e-48
220
3.944304526105059e-31
230
1
0
LWPOLYLINE
5
220
100
AcDbEntity
8
0
100
AcDbPolyline
90
6
70
1
43
0.0
10
-487.00000000000097
20
-350.65000628557993
10
-648.00000000000057
20
-350.65000628557993
10
-648.00000000000057
20
-338.77500361502797
10
-645.00000000000057
20
-338.77500361502791
10
-645.00000000000057
20
-330.65000628558005
10
-487.00000000000102
20
-330.65000628557993
0
LWPOLYLINE
5
221
100
AcDbEntity
8
0
100
AcDbPolyline
90
6
70
1
43
0.0
10
-648.0000000000008
20
-309.65000628558005
10
-490.00000000000102
20
-309.65000628558005
10
-490.00000000000102
20
-316.00000025058597
10
-487.00000000000102
20
-316.00000025058603
10
-487.00000000000102
20
-329.65000628558005
10
-648.0000000000008
20
-329.65000628558005
0
CIRCLE
5
222
100
AcDbEntity
8
0
100
AcDbCircle
10
-574.15000000000066
20
-319.65000628558005
30
2.5243548967072378e-28
40
1.0500000000000049
210
3.9443045261050573e-31
220
-1.5777218104420236e-30
230
1
0
CIRCLE
5
223
100
AcDbEntity
8
0
100
AcDbCircle
10
-527.95000000000084
20
-319.65000628558005
30
-1.2621774483536189e-28
40
1.0500000000000049
210
3.9443045261050573e-31
220
-1.5777218104420236e-30
230
1
0
CIRCLE
5
224
100
AcDbEntity
8
0
100
AcDbCircle
10
-505.05000000000086
20
-319.65000628558005
30
0
40
1.0500000000000049
210
3.9443045261050573e-31
220
-1.5777218104420236e-30
230
1
0
CIRCLE
5
225
100
AcDbEntity
8
0
100
AcDbCircle
10
-596.8500000000007
20
-319.65000628558005
30
0
40
1.0500000000000049
210
3.9443045261050573e-31
220
-1.5777218104420236e-30
230
1
0
CIRCLE
5
226
100
AcDbEntity
8
0
100
AcDbCircle
10
-551.05000000000086
20
-319.65000628558005
30
0
40
1.0500000000000049
210
3.9443045261050573e-31
220
-1.5777218104420236e-30
230
1
0
CIRCLE
5
227
100
AcDbEntity
8
0
100
AcDbCircle
10
-619.77500000000066
20
-319.65000628558005
30
2.5243548967072378e-28
40
1.0500000000000049
210
3.9443045261050573e-31
220
-1.5777218104420236e-30
230
1
0
CIRCLE
5
228
100
AcDbEntity
8
0
100
AcDbCircle
10
-642.3500000000007
20
-319.65000628558005
30
0
40
1.0500000000000049
210
3.9443045261050573e-31
220
-1.5777218104420236e-30
230
1
0
CIRCLE
5
229
100
AcDbEntity
8
0
100
AcDbCircle
10
-563.24396006553388
20
-319.65000628558005
30
1.2621774483536189e-28
40
0.999999999999997
210
-4.0540495122675263e-47
220
-3.944304526105059e-31
230
1
0
CIRCLE
5
230
100
AcDbEntity
8
0
100
AcDbCircle
10
-631.72783291736209
20
-319.65000628558005
30
1.2621774483536189e-28
40
0.999999999999997
210
-4.0540495122675263e-47
220
-3.944304526105059e-31
230
1
0
CIRCLE
5
231
100
AcDbEntity
8
0
100
AcDbCircle
10
-495.18334721754422
20
-319.65000628558005
30
1.2621774483536189e-28
40
1.0000000000000004
210
1.6216198049070103e-46
220
1.5777218104420236e-30
230
1
0
LWPOLYLINE
5
232
100
AcDbEntity
8
0
100
AcDbPolyline
90
29
70
1
43
0.0
10
-330.49999999999886
20
-221.27500111601418
10
-317.2370880898751
20
-221.27500111601424
42
0.081612790225545601
10
-317.49999999999886
20
-222.87499999999912
10
-317.49999999999892
20
-245.74999999999983
42
0.41421356237309709
10
-312.49999999999886
20
-250.74999999999986
10
-184.49999999999932
20
-250.75000000000045
42
0.41421356237310125
10
-179.49999999999929
20
-245.75000000000045
10
-179.49999999999929
20
-236.09999919604041
10
-166.50000000000301
20
-236.09999919604053
10
-166.49999999999926
20
-243.52500000000003
10
-169.49999999999935
20
-243.52500000000003
10
-169.49999999999926
20
-293.72500000000088
10
-166.49999999999923
20
-293.72500000000088
10
-166.49999999999923
20
-308.62500000000091
10
-174.49999999999918
20
-308.62500000000091
42
-0.41421356237310336
10
-179.4999999999992
20
-303.6250000000008
10
-179.4999999999992
20
-301.25000000000028
42
0.41421356237309503
10
-184.49999999999918
20
-296.25000000000023
10
-312.49999999999881
20
-296.24999999999966
42
0.4142135623730992
10
-317.49999999999881
20
-301.24999999999966
10
-317.49999999999881
20
-303.62500000000017
42
-0.4142135623730992
10
-322.49999999999875
20
-308.62500000000017
10
-327.49999999999875
20
-308.62500000000017
10
-327.49999999999881
20
-278.37499732944792
10
-330.49999999999886
20
-278.37499732944787
10
-330.49999999999892
20
-258.87499732944781
10
-327.49999999999881
20
-258.87499732944781
10
-327.49999999999886
20
-228.62499956147622
10
-330.49999999999886
20
-228.62499956147627
0
CIRCLE
5
233
100
AcDbEntity
8
0
100
AcDbCircle
10
-322.49999999999892
20
-231.2500011160142
30
0
40
0.74999999999999734
210
-3.9443045261050406e-31
220
3.9443045261050538e-31
230
1
0
CIRCLE
5
234
100
AcDbEntity
8
0
100
AcDbCircle
10
-174.49999999999932
20
-260.75000000000051
30
0
40
1.0000000000000056
210
3.944304526105059e-31
220
5.1505245069360219e-46
230
1
0
CIRCLE
5
235
100
AcDbEntity
8
0
100
AcDbCircle
10
-266.06457064299713
20
-260.75000000000006
30
0
40
1.0000000000000022
210
0
220
-0
230
1
0
CIRCLE
5
236
100
AcDbEntity
8
0
100
AcDbCircle
10
-322.49999999999886
20
-260.74999999999977
30
0
40
1.0000000000000022
210
0
220
-0
230
1
0
CIRCLE
5
237
100
AcDbEntity
8
0
100
AcDbCircle
10
-174.49999999999929
20
-246.07499919604052
30
0
40
0.750000000000004
210
3.944304526105059e-31
220
5.1505245069360219e-46
230
1
0
CIRCLE
5
238
100
AcDbEntity
8
0
100
AcDbCircle
10
-191.99999999999901
20
-260.75000000000051
30
0
40
1.0500000000000105
210
-3.9443045261050774e-31
220
-3.9443045261050652e-31
230
1
0
CIRCLE
5
239
100
AcDbEntity
8
0
100
AcDbCircle
10
-317.49999999999881
20
-284.24999999999955
30
0
40
1.1250000000000135
210
0
220
0
230
1
0
CIRCLE
5
240
100
AcDbEntity
8
0
100
AcDbCircle
10
-179.4999999999992
20
-284.25000000000023
30
0
40
1.1250000000000135
210
0
220
0
230
1
0
LWPOLYLINE
5
241
100
AcDbEntity
8
0
100
AcDbPolyline
90
4
70
1
43
0.0
10
-243.49999999999903
20
-282.34999999999991
10
-253.49999999999898
20
-282.34999999999985
10
-253.49999999999898
20
-286.14999999999986
10
-243.49999999999903
20
-286.14999999999992
0
CIRCLE
5
242
100
AcDbEntity
8
0
100
AcDbCircle
10
-218.99999999999892
20
-260.75000000000034
30
0
40
1.0500000000000105
210
-3.9443045261050774e-31
220
-3.9443045261050652e-31
230
1
0
CIRCLE
5
243
100
AcDbEntity
8
0
100
AcDbCircle
10
-245.99999999999909
20
-260.75000000000023
30
0
40
1.0500000000000105
210
-3.9443045261050774e-31
220
-3.9443045261050652e-31
230
1
0
CIRCLE
5
244
100
AcDbEntity
8
0
100
AcDbCircle
10
-285.49999999999875
20
-260.75
30
0
40
1.0500000000000105
210
-3.9443045261050774e-31
220
-3.9443045261050652e-31
230
1
0
CIRCLE
5
245
100
AcDbEntity
8
0
100
AcDbCircle
10
-312.99999999999869
20
-260.74999999999989
30
0
40
1.0500000000000105
210
-3.9443045261050774e-31
220
-3.9443045261050652e-31
230
1
0
LWPOLYLINE
5
246
100
AcDbEntity
8
0
100
AcDbPolyline
90
29
70
1
43
0.0
10
-495.49999999999983
20
-221.2750011160135
10
-482.23708808987612
20
-221.27500111601358
42
0.081612790225546031
10
-482.49999999999994
20
-222.87499999999847
10
-482.49999999999989
20
-245.74999999999915
42
0.4142135623730992
10
-477.49999999999994
20
-250.74999999999918
10
-349.50000000000034
20
-250.74999999999977
42
0.41421356237310125
10
-344.50000000000034
20
-245.74999999999977
10
-344.50000000000034
20
-236.09999919603979
10
-331.50000000000409
20
-236.09999919603982
10
-331.50000000000034
20
-243.52499999999935
10
-334.5000000000004
20
-243.52499999999935
10
-334.50000000000023
20
-293.72500000000025
10
-331.50000000000028
20
-293.72500000000019
10
-331.50000000000028
20
-308.62500000000023
10
-339.50000000000034
20
-308.62500000000023
42
-0.41421356237309503
10
-344.50000000000023
20
-303.62500000000017
10
-344.50000000000023
20
-301.2499999999996
42
0.41421356237310336
10
-349.50000000000023
20
-296.24999999999955
10
-477.49999999999989
20
-296.24999999999898
42
0.41421356237309709
10
-482.49999999999977
20
-301.24999999999898
10
-482.49999999999972
20
-303.62499999999949
42
-0.41421356237310125
10
-487.49999999999977
20
-308.62499999999949
10
-492.49999999999977
20
-308.62499999999943
10
-492.49999999999977
20
-278.37499732944724
10
-495.49999999999989
20
-278.37499732944718
10
-495.49999999999989
20
-258.87499732944713
10
-492.49999999999977
20
-258.87499732944713
10
-492.49999999999989
20
-228.62499956147556
10
-495.49999999999983
20
-228.62499956147556
0
CIRCLE
5
247
100
AcDbEntity
8
0
100
AcDbCircle
10
-487.49999999999994
20
-231.25000111601352
30
0
40
0.74999999999999734
210
-3.9443045261050406e-31
220
3.9443045261050538e-31
230
1
0
CIRCLE
5
248
100
AcDbEntity
8
0
100
AcDbCircle
10
-339.50000000000034
20
-260.74999999999983
30
0
40
1.0000000000000056
210
3.944304526105059e-31
220
5.1505245069360219e-46
230
1
0
CIRCLE
5
249
100
AcDbEntity
8
0
100
AcDbCircle
10
-431.06457064299821
20
-260.74999999999937
30
0
40
1.0000000000000022
210
0
220
-0
230
1
0
CIRCLE
5
250
100
AcDbEntity
8
0
100
AcDbCircle
10
-487.49999999999994
20
-260.74999999999909
30
1.2621774483536189e-28
40
1.0000000000000022
210
0
220
-0
230
1
0
CIRCLE
5
251
100
AcDbEntity
8
0
100
AcDbCircle
10
-339.50000000000034
20
-246.07499919603984
30
0
40
0.750000000000004
210
3.944304526105059e-31
220
5.1505245069360219e-46
230
1
0
CIRCLE
5
252
100
AcDbEntity
8
0
100
AcDbCircle
10
-357
20
-260.74999999999983
30
0
40
1.0500000000000105
210
-3.9443045261050774e-31
220
-3.9443045261050652e-31
230
1
0
CIRCLE
5
253
100
AcDbEntity
8
0
100
AcDbCircle
10
-482.49999999999989
20
-284.24999999999886
30
0
40
1.1250000000000135
210
0
220
0
230
1
0
CIRCLE
5
254
100
AcDbEntity
8
0
100
AcDbCircle
10
-344.50000000000023
20
-284.24999999999955
30
0
40
1.1250000000000135
210
0
220
0
230
1
0
LWPOLYLINE
5
255
100
AcDbEntity
8
0
100
AcDbPolyline
90
4
70
1
43
0.0
10
-408.5
20
-282.34999999999923
10
-418.5
20
-282.34999999999917
10
-418.5
20
-286.14999999999918
10
-408.50000000000011
20
-286.14999999999924
0
CIRCLE
5
256
100
AcDbEntity
8
0
100
AcDbCircle
10
-383.99999999999989
20
-260.74999999999966
30
0
40
1.0500000000000105
210
-3.9443045261050774e-31
220
-3.9443045261050652e-31
230
1
0
CIRCLE
5
257
100
AcDbEntity
8
0
100
AcDbCircle
10
-411.00000000000011
20
-260.74999999999955
30
0
40
1.0500000000000105
210
-3.9443045261050774e-31
220
-3.9443045261050652e-31
230
1
0
CIRCLE
5
258
100
AcDbEntity
8
0
100
AcDbCircle
10
-450.49999999999977
20
-260.74999999999937
30
0
40
1.0500000000000105
210
-3.9443045261050774e-31
220
-3.9443045261050652e-31
230
1
0
CIRCLE
5
259
100
AcDbEntity
8
0
100
AcDbCircle
10
-477.99999999999966
20
-260.74999999999926
30
-1.2621774483536189e-28
40
1.0500000000000105
210
-3.9443045261050774e-31
220
-3.9443045261050652e-31
230
1
0
LWPOLYLINE
5
260
100
AcDbEntity
8
0
100
AcDbPolyline
90
29
70
1
43
0.0
10
-660.50000000000182
20
-221.27500111601276
10
-647.23708808987806
20
-221.27500111601282
42
0.081612790225459683
10
-647.50000000000182
20
-222.8749999999977
10
-647.50000000000182
20
-245.74999999999844
42
0.41421356237309503
10
-642.50000000000182
20
-250.74999999999844
10
-514.50000000000227
20
-250.74999999999903
42
0.41421356237309709
10
-509.50000000000222
20
-245.74999999999903
10
-509.50000000000222
20
-236.09999919603899
10
-496.50000000000603
20
-236.09999919603911
10
-496.50000000000227
20
-243.52499999999861
10
-499.50000000000227
20
-243.52499999999861
10
-499.50000000000216
20
-293.72499999999945
10
-496.50000000000216
20
-293.72499999999945
10
-496.50000000000216
20
-308.62499999999949
10
-504.50000000000216
20
-308.62499999999943
42
-0.41421356237309709
10
-509.50000000000216
20
-303.62499999999943
10
-509.50000000000216
20
-301.24999999999886
42
0.41421356237310542
10
-514.50000000000205
20
-296.24999999999881
10
-642.50000000000171
20
-296.24999999999824
42
0.41421356237309709
10
-647.50000000000171
20
-301.24999999999824
10
-647.50000000000171
20
-303.62499999999875
42
-0.4142135623730992
10
-652.50000000000171
20
-308.62499999999875
10
-657.50000000000171
20
-308.62499999999875
10
-657.50000000000182
20
-278.3749973294465
10
-660.50000000000182
20
-278.37499732944644
10
-660.50000000000171
20
-258.87499732944639
10
-657.50000000000182
20
-258.87499732944639
10
-657.50000000000182
20
-228.62499956147479
10
-660.50000000000182
20
-228.62499956147485
0
CIRCLE
5
261
100
AcDbEntity
8
0
100
AcDbCircle
10
-652.50000000000182
20
-231.25000111601278
30
0
40
0.74999999999999734
210
-3.9443045261050406e-31
220
3.9443045261050538e-31
230
1
0
CIRCLE
5
262
100
AcDbEntity
8
0
100
AcDbCircle
10
-504.50000000000222
20
-260.74999999999909
30
-1.2621774483536189e-28
40
1.0000000000000056
210
3.944304526105059e-31
220
5.1505245069360219e-46
230
1
0
CIRCLE
5
263
100
AcDbEntity
8
0
100
AcDbCircle
10
-596.06457064300014
20
-260.74999999999864
30
0
40
1.0000000000000022
210
0
220
-0
230
1
0
CIRCLE
5
264
100
AcDbEntity
8
0
100
AcDbCircle
10
-652.50000000000182
20
-260.74999999999835
30
-1.2621774483536189e-28
40
1.0000000000000022
210
0
220
-0
230
1
0
CIRCLE
5
265
100
AcDbEntity
8
0
100
AcDbCircle
10
-504.50000000000222
20
-246.0749991960391
30
0
40
0.750000000000004
210
3.944304526105059e-31
220
5.1505245069360219e-46
230
1
0
CIRCLE
5
266
100
AcDbEntity
8
0
100
AcDbCircle
10
-522.00000000000193
20
-260.74999999999909
30
-1.2621774483536189e-28
40
1.0500000000000105
210
-3.9443045261050774e-31
220
-3.9443045261050652e-31
230
1
0
CIRCLE
5
267
100
AcDbEntity
8
0
100
AcDbCircle
10
-647.50000000000171
20
-284.24999999999812
30
-1.2621774483536189e-28
40
1.1250000000000135
210
0
220
0
230
1
0
CIRCLE
5
268
100
AcDbEntity
8
0
100
AcDbCircle
10
-509.50000000000216
20
-284.24999999999881
30
0
40
1.1250000000000135
210
0
220
0
230
1
0
LWPOLYLINE
5
269
100
AcDbEntity
8
0
100
AcDbPolyline
90
4
70
1
43
0.0
10
-573.50000000000193
20
-282.34999999999849
10
-583.50000000000193
20
-282.34999999999843
10
-583.50000000000193
20
-286.14999999999844
10
-573.50000000000193
20
-286.1499999999985
0
CIRCLE
5
270
100
AcDbEntity
8
0
100
AcDbCircle
10
-549.00000000000182
20
-260.74999999999892
30
1.2621774483536189e-28
40
1.0500000000000105
210
-3.9443045261050774e-31
220
-3.9443045261050652e-31
230
1
0
CIRCLE
5
271
100
AcDbEntity
8
0
100
AcDbCircle
10
-576.00000000000205
20
-260.74999999999881
30
-1.2621774483536189e-28
40
1.0500000000000105
210
-3.9443045261050774e-31
220
-3.9443045261050652e-31
230
1
0
CIRCLE
5
272
100
AcDbEntity
8
0
100
AcDbCircle
10
-615.50000000000171
20
-260.74999999999864
30
0
40
1.0500000000000105
210
-3.9443045261050774e-31
220
-3.9443045261050652e-31
230
1
0
CIRCLE
5
273
100
AcDbEntity
8
0
100
AcDbCircle
10
-643.00000000000171
20
-260.74999999999847
30
-1.2621774483536189e-28
40
1.0500000000000105
210
-3.9443045261050774e-31
220
-3.9443045261050652e-31
230
1
0
CIRCLE
5
274
100
AcDbEntity
8
0
100
AcDbCircle
10
-47.500000000000782
20
-205.87499999999923
30
0
40
1.1250000000000038
210
3.9443045261050564e-31
220
3.9443045261049964e-31
230
1
0
LWPOLYLINE
5
275
100
AcDbEntity
8
0
100
AcDbPolyline
90
4
70
1
43
0.0
10
-104.1000000000007
20
-207.7749999999993
10
-93.90000000000073
20
-207.7749999999993
10
-93.900000000000659
20
-203.97499999999926
10
-104.10000000000066
20
-203.97499999999926
0
CIRCLE
5
276
100
AcDbEntity
8
0
100
AcDbCircle
10
-150.50000000000057
20
-205.87499999999932
30
0
40
1.1249999999999973
210
3.944304526105059e-31
220
-6.2516608032586903e-45
230
1
0
CIRCLE
5
277
100
AcDbEntity
8
0
100
AcDbCircle
10
-145.15000000000026
20
-182.37499999999955
30
0
40
1.0999999999999979
210
-0
220
0
230
1
0
CIRCLE
5
278
100
AcDbEntity
8
0
100
AcDbCircle
10
-52.550000000000324
20
-182.3750026938622
30
0
40
1.0999999999999912
210
-0
220
0
230
1
0
CIRCLE
5
279
100
AcDbEntity
8
0
100
AcDbCircle
10
-75.450000000000315
20
-182.37500269386226
30
0
40
1.0999999999999912
210
-0
220
0
230
1
0
CIRCLE
5
280
100
AcDbEntity
8
0
100
AcDbCircle
10
-121.65000000000009
20
-182.37500269386229
30
0
40
1.0999999999999956
210
3.9443045261050634e-31
220
-3.9443045261051221e-31
230
1
0
CIRCLE
5
281
100
AcDbEntity
8
0
100
AcDbCircle
10
-98.550000000000153
20
-182.37500269386226
30
0
40
1.1000000000000001
210
3.6150746362822472e-46
220
-3.944304526105059e-31
230
1
0
CIRCLE
5
282
100
AcDbEntity
8
0
100
AcDbCircle
10
-87.000000000000242
20
-182.37499999999952
30
0
40
0.99999999999999367
210
3.9443045261050625e-31
220
-3.9443045261051212e-31
230
1
0
CIRCLE
5
283
100
AcDbEntity
8
0
100
AcDbCircle
10
-153.50000000000031
20
-182.37499999999957
30
0
40
0.999999999999997
210
3.615074636282248e-46
220
-3.9443045261050599e-31
230
1
0
CIRCLE
5
284
100
AcDbEntity
8
0
100
AcDbCircle
10
-44.500000000000327
20
-182.37499999999949
30
0
40
0.99999999999999367
210
3.9443045261050625e-31
220
-3.9443045261051212e-31
230
1
0
CIRCLE
5
285
100
AcDbEntity
8
0
100
AcDbCircle
10
-162.50000000000085
20
-221.37500270000075
30
0
40
0.749999999999998
210
3.944304526105059e-31
220
-6.2516608032586903e-45
230
1
0
CIRCLE
5
286
100
AcDbEntity
8
0
100
AcDbCircle
10
-42.474291840353153
20
-226.1249997807376
30
0
40
0.74999999999999079
210
-0
220
0
230
1
0
LWPOLYLINE
5
287
100
AcDbEntity
8
0
100
AcDbPolyline
90
32
70
1
43
0.0
10
-150.49999999999721
20
-228.85000270000069
10
-164.50000000000091
20
-228.85000270000069
10
-164.50000000000068
20
-213.72500270000074
10
-160.5000000000008
20
-213.72500270000074
10
-160.50000000000054
20
-199.02500270000081
10
-164.50000000000045
20
-199.02500270000081
10
-164.50000000000011
20
-178.72500270000086
10
-160.50000000000023
20
-178.72500270000086
10
-160.5
20
-164.0250027000009
10
-164.49999999999989
20
-164.0250027000009
10
-164.49999999999963
20
-148.62499999999969
10
-155.49999999999949
20
-148.62499999999972
42
-0.41421356237308776
10
-150.49999999999972
20
-153.62499999999972
10
-150.49999999999991
20
-167.37499999999952
42
0.41421356237309293
10
-145.5
20
-172.3749999999996
10
-52.500000000000178
20
-172.37499999999952
42
0.41421356237309814
10
-47.500000000000171
20
-167.37499999999955
10
-47.499999999999922
20
-153.62500000000023
42
-0.41421356237310702
10
-42.499999999999858
20
-148.62500000000017
10
-37.499999999999829
20
-148.62499999999957
10
-37.500000000000313
20
-178.72499665886821
10
-34.500000000000249
20
-178.72499665886821
10
-34.500000000000554
20
-198.52499665886876
10
-37.500000000000604
20
-198.52499665886876
10
-37.500000000001094
20
-228.72499956147612
10
-34.50000000000103
20
-228.72499956147612
10
-34.500000000001933
20
-236.09999978073751
10
-47.500000000001243
20
-236.09999978073751
10
-47.500000000001052
20
-222.87499999999926
42
0.41421356237309243
10
-52.500000000000981
20
-217.8749999999992
10
-145.50000000000085
20
-217.87499999999926
42
0.41421356237309609
10
-150.5000000000008
20
-222.87499999999932
0
CIRCLE
5
288
100
AcDbEntity
8
0
100
AcDbCircle
10
-16.651884558634386
20
-273.28577824284315
30
-1.3842067300987223e-16
40
1
210
0
220
-0
230
1
0
CIRCLE
5
289
100
AcDbEntity
8
0
100
AcDbCircle
10
-16.651884558634386
20
-266.28577824284315
30
-1.2117215574400781e-16
40
1
210
0
220
-0
230
1
0
CIRCLE
5
290
100
AcDbEntity
8
0
100
AcDbCircle
10
-16.651884558634386
20
-269.78577824284315
30
-1.2979641437700313e-16
40
15
210
3.9443045261050599e-31
220
-3.9443045261050599e-31
230
1
0
CIRCLE
5
291
100
AcDbEntity
8
0
100
AcDbCircle
10
-16.651884558634386
20
-242.28577824284315
30
2.5517219620346664e-16
40
1
210
0
220
-0
230
1
0
CIRCLE
5
292
100
AcDbEntity
8
0
100
AcDbCircle
10
-16.651884558634386
20
-235.28577824284312
30
2.7242071346933105e-16
40
1
210
0
220
-0
230
1
0
CIRCLE
5
293
100
AcDbEntity
8
0
100
AcDbCircle
10
-16.651884558634386
20
-238.78577824284315
30
2.6379645483646195e-16
40
15
210
3.9443045261050599e-31
220
-3.9443045261050599e-31
230
1
0
CIRCLE
5
294
100
AcDbEntity
8
0
100
AcDbCircle
10
-55.420605099217752
20
-223.83342862016744
30
3.98426070869897e-17
40
0.74999999999999289
210
1.1289758135416881e-47
220
2.3665827156630354e-30
230
1
0
CIRCLE
5
295
100
AcDbEntity
8
0
100
AcDbCircle
10
-55.420605099217752
20
-243.83342862016744
30
5.0037362646347505e-17
40
0.74999999999999289
210
1.1289758135416881e-47
220
2.3665827156630354e-30
230
1
0
LWPOLYLINE
5
296
100
AcDbEntity
8
0
100
AcDbPolyline
90
9
70
1
43
0.0
10
-50.420605099217667
20
-219.58342750415241
10
-50.420605099217717
20
-248.80842862016752
10
-60.420605099217752
20
-248.80842862016752
10
-60.420605099217752
20
-241.20842706562954
10
-63.420605099217724
20
-241.20842706562954
10
-63.420605099217724
20
-226.45843017470531
10
-60.420605099217752
20
-226.45843017470531
10
-60.420605099217752
20
-218.80842862016752
10
-51.489774972899269
20
-218.80842862016752
42
0.32431071238351966
0
CIRCLE
5
297
100
AcDbEntity
8
0
100
AcDbCircle
10
-69.420605099217752
20
-223.83342862016744
30
4.8208099555411794e-17
40
0.74999999999999289
210
1.1289758135416881e-47
220
2.3665827156630354e-30
230
1
0
CIRCLE
5
298
100
AcDbEntity
8
0
100
AcDbCircle
10
-69.420605099217752
20
-243.83342862016744
30
5.8402855114769599e-17
40
0.74999999999999289
210
1.1289758135416881e-47
220
2.3665827156630354e-30
230
1
0
LWPOLYLINE
5
299
100
AcDbEntity
8
0
100
AcDbPolyline
90
9
70
1
43
0.0
10
-64.420605099217667
20
-219.58342750415241
10
-64.420605099217724
20
-248.80842862016752
10
-74.420605099217752
20
-248.80842862016752
10
-74.420605099217752
20
-241.20842706562954
10
-77.420605099217724
20
-241.20842706562954
10
-77.420605099217724
20
-226.45843017470531
10
-74.420605099217752
20
-226.45843017470531
10
-74.420605099217752
20
-218.80842862016752
10
-65.489774972899269
20
-218.80842862016752
42
0.32431071238351966
0
CIRCLE
5
300
100
AcDbEntity
8
0
100
AcDbCircle
10
-83.420605099217767
20
-223.83342862016744
30
5.6573592023833888e-17
40
0.74999999999999289
210
1.1289758135416881e-47
220
2.3665827156630354e-30
230
1
0
CIRCLE
5
301
100
AcDbEntity
8
0
100
AcDbCircle
10
-83.420605099217767
20
-243.83342862016744
30
6.6768347583065476e-17
40
0.74999999999999289
210
1.1289758135416881e-47
220
2.3665827156630354e-30
230
1
0
LWPOLYLINE
5
302
100
AcDbEntity
8
0
100
AcDbPolyline
90
9
70
1
43
0.0
10
-78.420605099217667
20
-219.58342750415241
10
-78.420605099217724
20
-248.80842862016752
10
-88.420605099217767
20
-248.80842862016752
10
-88.420605099217767
20
-241.20842706562954
10
-91.420605099217738
20
-241.20842706562954
10
-91.420605099217738
20
-226.45843017470531
10
-88.420605099217767
20
-226.45843017470531
10
-88.420605099217767
20
-218.80842862016752
10
-79.489774972899284
20
-218.80842862016752
42
0.32431071238351966
0
CIRCLE
5
303
100
AcDbEntity
8
0
100
AcDbCircle
10
-97.420605099217738
20
-223.83342862016744
30
6.4939084492255983e-17
40
0.74999999999999289
210
1.1289758135416881e-47
220
2.3665827156630354e-30
230
1
0
CIRCLE
5
304
100
AcDbEntity
8
0
100
AcDbCircle
10
-97.420605099217738
20
-243.83342862016744
30
-6.3644038026656998e-17
40
0.74999999999999289
210
1.1289758135416881e-47
220
2.3665827156630354e-30
230
1
0
LWPOLYLINE
5
305
100
AcDbEntity
8
0
100
AcDbPolyline
90
9
70
1
43
0.0
10
-92.420605099217653
20
-219.58342750415241
10
-92.42060509921771
20
-248.80842862016752
10
-102.42060509921774
20
-248.80842862016752
10
-102.42060509921774
20
-241.20842706562954
10
-105.42060509921771
20
-241.20842706562954
10
-105.42060509921771
20
-226.45843017470531
10
-102.42060509921774
20
-226.45843017470531
10
-102.42060509921774
20
-218.80842862016752
10
-93.489774972899284
20
-218.80842862016752
42
0.3243107123835256
0
CIRCLE
5
306
100
AcDbEntity
8
0
100
AcDbCircle
10
-111.42060509921777
20
-223.83342862016744
30
-6.5473301117592709e-17
40
0.74999999999999289
210
1.1289758135416881e-47
220
2.3665827156630354e-30
230
1
0
CIRCLE
5
307
100
AcDbEntity
8
0
100
AcDbCircle
10
-111.42060509921777
20
-243.83342862016744
30
-5.5278545558234904e-17
40
0.74999999999999289
210
1.1289758135416881e-47
220
2.3665827156630354e-30
230
1
0
LWPOLYLINE
5
308
100
AcDbEntity
8
0
100
AcDbPolyline
90
9
70
1
43
0.0
10
-106.42060509921768
20
-219.58342750415241
10
-106.42060509921774
20
-248.80842862016752
10
-116.42060509921777
20
-248.80842862016752
10
-116.42060509921777
20
-241.20842706562954
10
-119.42060509921774
20
-241.20842706562954
10
-119.42060509921774
20
-226.45843017470531
10
-116.42060509921777
20
-226.45843017470531
10
-116.42060509921777
20
-218.80842862016752
10
-107.48977497289927
20
-218.80842862016752
42
0.32431071238351683
0
CIRCLE
5
309
100
AcDbEntity
8
0
100
AcDbCircle
10
-125.42060509921775
20
-223.83342862016744
30
-5.7107808649170615e-17
40
0.74999999999999289
210
1.1289758135416881e-47
220
2.3665827156630354e-30
230
1
0
CIRCLE
5
310
100
AcDbEntity
8
0
100
AcDbCircle
10
-125.42060509921775
20
-243.83342862016744
30
-4.691305308981281e-17
40
0.74999999999999289
210
1.1289758135416881e-47
220
2.3665827156630354e-30
230
1
0
LWPOLYLINE
5
311
100
AcDbEntity
8
0
100
AcDbPolyline
90
9
70
1
43
0.0
10
-120.42060509921767
20
-219.58342750415241
10
-120.42060509921771
20
-248.80842862016752
10
-130.42060509921777
20
-248.80842862016752
10
-130.42060509921777
20
-241.20842706562954
10
-133.42060509921771
20
-241.20842706562954
10
-133.42060509921771
20
-226.45843017470531
10
-130.42060509921777
20
-226.45843017470531
10
-130.42060509921777
20
-218.80842862016752
10
-121.48977497289928
20
-218.80842862016752
42
0.3243107123835256
0
CIRCLE
5
312
100
AcDbEntity
8
0
100
AcDbCircle
10
-194.86007689819817
20
-237.4619677279245
30
2.9255505431451721e-17
40
1
210
0
220
-0
230
1
0
CIRCLE
5
313
100
AcDbEntity
8
0
100
AcDbCircle
10
-194.86007689819817
20
-230.4619677279245
30
4.6504022697316133e-17
40
1
210
0
220
-0
230
1
0
CIRCLE
5
314
100
AcDbEntity
8
0
100
AcDbCircle
10
-194.86007689819817
20
-233.9619677279245
30
3.7879764064320818e-17
40
15
210
3.9443045261050599e-31
220
-3.9443045261050599e-31
230
1
0
CIRCLE
5
315
100
AcDbEntity
8
0
100
AcDbCircle
10
-253.6499999999989
20
-182.37500269386237
30
0
40
1.0500000000000105
210
-3.9443045261050774e-31
220
-3.9443045261050652e-31
230
1
0
CIRCLE
5
316
100
AcDbEntity
8
0
100
AcDbCircle
10
-207.44999999999919
20
-182.3750026938626
30
0
40
1.0500000000000105
210
-3.9443045261050774e-31
220
-3.9443045261050652e-31
230
1
0
CIRCLE
5
317
100
AcDbEntity
8
0
100
AcDbCircle
10
-184.54999999999922
20
-182.37500269386274
30
0
40
1.0500000000000105
210
-3.9443045261050774e-31
220
-3.9443045261050652e-31
230
1
0
CIRCLE
5
318
100
AcDbEntity
8
0
100
AcDbCircle
10
-276.34999999999894
20
-182.37500269386231
30
0
40
1.0500000000000105
210
-3.9443045261050774e-31
220
-3.9443045261050652e-31
230
1
0
CIRCLE
5
319
100
AcDbEntity
8
0
100
AcDbCircle
10
-230.5499999999991
20
-182.37500269386254
30
0
40
1.0500000000000105
210
-3.9443045261050774e-31
220
-3.9443045261050652e-31
230
1
0
CIRCLE
5
320
100
AcDbEntity
8
0
100
AcDbCircle
10
-299.27499999999884
20
-182.37500269386217
30
0
40
1.0500000000000105
210
-3.9443045261050774e-31
220
-3.9443045261050652e-31
230
1
0
CIRCLE
5
321
100
AcDbEntity
8
0
100
AcDbCircle
10
-321.84999999999883
20
-182.37500269386209
30
0
40
1.0500000000000105
210
-3.9443045261050774e-31
220
-3.9443045261050652e-31
230
1
0
LWPOLYLINE
5
322
100
AcDbEntity
8
0
100
AcDbPolyline
90
4
70
1
43
0.0
10
-243.49999999999912
20
-203.97499999999934
10
-253.49999999999909
20
-203.97499999999928
10
-253.49999999999909
20
-207.77499999999935
10
-243.49999999999912
20
-207.77499999999941
0
CIRCLE
5
323
100
AcDbEntity
8
0
100
AcDbCircle
10
-317.49999999999892
20
-205.87499999999903
30
0
40
1.1250000000000135
210
0
220
0
230
1
0
CIRCLE
5
324
100
AcDbEntity
8
0
100
AcDbCircle
10
-179.49999999999932
20
-205.87499999999966
30
0
40
1.1250000000000135
210
0
220
0
230
1
0
CIRCLE
5
325
100
AcDbEntity
8
0
100
AcDbCircle
10
-242.74396006553212
20
-182.37500269386246
30
0
40
1.0000000000000022
210
0
220
-0
230
1
0
CIRCLE
5
326
100
AcDbEntity
8
0
100
AcDbCircle
10
-311.22783291736022
20
-182.37500269386214
30
0
40
1.0000000000000022
210
0
220
-0
230
1
0
CIRCLE
5
327
100
AcDbEntity
8
0
100
AcDbCircle
10
-322.49999999999892
20
-211.25000111601406
30
0
40
0.74999999999999734
210
-3.9443045261050406e-31
220
3.9443045261050538e-31
230
1
0
CIRCLE
5
328
100
AcDbEntity
8
0
100
AcDbCircle
10
-174.49999999999929
20
-226.07499919604041
30
0
40
0.750000000000004
210
3.944304526105059e-31
220
5.1505245069360219e-46
230
1
0
CIRCLE
5
329
100
AcDbEntity
8
0
100
AcDbCircle
10
-174.68334721754252
20
-182.37500269386277
30
0
40
1.0000000000000056
210
3.944304526105059e-31
220
5.1505245069360219e-46
230
1
0
LWPOLYLINE
5
330
100
AcDbEntity
8
0
100
AcDbPolyline
90
27
70
1
43
0.0
10
-317.21990505019306
20
-221.22500111601425
10
-330.49999999999886
20
-221.2250011160142
10
-330.49999999999886
20
-213.87500267055196
10
-327.49999999999886
20
-213.87500267055196
10
-327.49999999999892
20
-163.37500267055168
10
-330.49999999999898
20
-163.37500267055165
10
-330.49999999999903
20
-148.62499999999901
10
-322.49999999999898
20
-148.62499999999903
42
-0.41421356237309814
10
-317.49999999999898
20
-153.62499999999909
10
-317.49999999999898
20
-167.375002693862
42
0.41421356237309503
10
-312.49999999999898
20
-172.37500269386206
10
-184.49999999999937
20
-172.37500269386265
42
0.41421356237309293
10
-179.49999999999935
20
-167.37500269386263
10
-179.49999999999937
20
-153.62499999999974
42
-0.41421356237308876
10
-174.49999999999943
20
-148.62499999999974
10
-169.49999999999937
20
-148.62499999999977
10
-169.49999999999937
20
-178.72499665886869
10
-166.49999999999937
20
-178.72499665886875
10
-166.49999999999935
20
-198.52499665886941
10
-169.49999999999935
20
-198.52499665886941
10
-169.49999999999932
20
-228.62499839208098
10
-166.49999999999932
20
-228.62499839208098
10
-166.50000000000301
20
-236.04999919604055
10
-179.49999999999929
20
-236.04999919604046
10
-179.49999999999929
20
-222.87499999999977
42
0.41421356237309503
10
-184.49999999999929
20
-217.87499999999972
10
-312.49999999999886
20
-217.87499999999915
42
0.31881015208779195
0
CIRCLE
5
331
100
AcDbEntity
8
0
100
AcDbCircle
10
-16.651884558634386
20
-211.28577824284318
30
9.3653553104479662e-17
40
1
210
0
220
-0
230
1
0
CIRCLE
5
332
100
AcDbEntity
8
0
100
AcDbCircle
10
-16.651884558634386
20
-204.28577824284315
30
1.1090207037047029e-16
40
1
210
0
220
-0
230
1
0
CIRCLE
5
333
100
AcDbEntity
8
0
100
AcDbCircle
10
-16.651884558634386
20
-207.78577824284315
30
1.0227781173747498e-16
40
15
210
3.9443045261050599e-31
220
-3.9443045261050599e-31
230
1
0
CIRCLE
5
334
100
AcDbEntity
8
0
100
AcDbCircle
10
-16.651884558634386
20
-180.28577824284315
30
-6.786508999463353e-17
40
1
210
0
220
-0
230
1
0
CIRCLE
5
335
100
AcDbEntity
8
0
100
AcDbCircle
10
-16.651884558634386
20
-173.28577824284312
30
-5.0616572728769118e-17
40
1
210
0
220
-0
230
1
0
CIRCLE
5
336
100
AcDbEntity
8
0
100
AcDbCircle
10
-16.651884558634386
20
-176.78577824284315
30
-5.9240831361638215e-17
40
15
210
3.9443045261050599e-31
220
-3.9443045261050599e-31
230
1
0
LWPOLYLINE
5
337
100
AcDbEntity
8
0
100
AcDbPolyline
90
32
70
1
43
0.0
10
-137.49999999999795
20
-73.574998392081156
10
-124.49999999999989
20
-73.574998392081156
10
-124.49999999999989
20
-98.125000250584577
42
0.41421356237309398
10
-119.49999999999987
20
-103.12500025058458
10
-19.999999999999979
20
-103.12500025058458
42
0.4142135623730937
10
-14.999999999999996
20
-98.125000250584577
10
-14.999999999999989
20
-81.074999580033747
10
-1.0000000000089493
20
-81.074999580033747
10
-0.99999999999997702
20
-96.19999958003379
10
-4.9999999999999822
20
-96.19999958003379
10
-4.999999999999984
20
-110.89999958003378
10
-0.99999999999997868
20
-110.89999958003381
10
-0.99999999999997702
20
-131.19999958003388
10
-4.9999999999999822
20
-131.19999958003388
10
-4.999999999999984
20
-145.89999958003386
10
-0.99999999999997868
20
-145.89999958003386
10
-0.99999999999997424
20
-161.00000025058594
10
-10.000000009385243
20
-161.0000002336925
42
-0.41421356182332048
10
-15.000000000000014
20
-156.0000002336925
10
-14.999999999999984
20
-151.62500025058469
42
0.41421356237309592
10
-20.000000000000018
20
-146.62500025058469
10
-119.49999999999986
20
-146.62500025058469
42
0.41421356237309503
10
-124.49999999999987
20
-151.62500025058472
10
-124.49999999999976
20
-156.00000000938527
42
-0.41421356292286959
10
-129.50000000938505
20
-161.00000000938533
10
-134.49999999999986
20
-161.00000000000011
10
-134.49999999999986
20
-130.90000000000032
10
-137.49999999999989
20
-130.90000000000029
10
-137.49999999999989
20
-111.09999999999972
10
-134.49999999999986
20
-111.09999999999974
10
-134.49999999999986
20
-80.999999999999957
10
-137.49999999999989
20
-81.000000125292956
0
CIRCLE
5
338
100
AcDbEntity
8
0
100
AcDbCircle
10
-2.9999999999999805
20
-88.624999580033801
30
0
40
0.750000000000002
210
0
220
-0
230
1
0
CIRCLE
5
339
100
AcDbEntity
8
0
100
AcDbCircle
10
-129.49999999999986
20
-83.549998392081164
30
0
40
0.74999999999999312
210
3.944304526105059e-31
220
6.4146353042171551e-50
230
1
0
CIRCLE
5
340
100
AcDbEntity
8
0
100
AcDbCircle
10
-72.06874859652882
20
-113.12500025058458
30
0
40
1.0000000000000013
210
0
220
-0
230
1
0
CIRCLE
5
341
100
AcDbEntity
8
0
100
AcDbCircle
10
-11.999999999999989
20
-113.12500025058458
30
0
40
1.0000000000000013
210
0
220
-0
230
1
0
CIRCLE
5
342
100
AcDbEntity
8
0
100
AcDbCircle
10
-127.49999999999987
20
-113.12500025058458
30
0
40
0.99999999999999689
210
0
220
-0
230
1
0
CIRCLE
5
343
100
AcDbEntity
8
0
100
AcDbCircle
10
-119.99999999999983
20
-113.12500025058458
30
0
40
1.1249999999999987
210
3.944304526105059e-31
220
6.414635304217157e-50
230
1
0
CIRCLE
5
344
100
AcDbEntity
8
0
100
AcDbCircle
10
-92.499999999999829
20
-113.12500025058458
30
0
40
1.1249999999999987
210
3.944304526105059e-31
220
6.414635304217157e-50
230
1
0
CIRCLE
5
345
100
AcDbEntity
8
0
100
AcDbCircle
10
-14.999999999999986
20
-136.62500025058469
30
0
40
1.1249999999999987
210
3.944304526105059e-31
220
6.414635304217157e-50
230
1
0
LWPOLYLINE
5
346
100
AcDbEntity
8
0
100
AcDbPolyline
90
4
70
1
43
0.0
10
-64.749999999999943
20
-138.52500025058464
10
-64.749999999999943
20
-134.72500025058469
10
-74.749999999999872
20
-134.72500025058469
10
-74.749999999999872
20
-138.52500025058464
0
CIRCLE
5
347
100
AcDbEntity
8
0
100
AcDbCircle
10
-49.24999999999973
20
-113.12500025058458
30
0
40
1.1250000000000004
210
-3.944304526105059e-31
220
-6.4146353042171561e-50
230
1
0
CIRCLE
5
348
100
AcDbEntity
8
0
100
AcDbCircle
10
-124.49999999999987
20
-136.62500025058469
30
0
40
1.1249999999999987
210
3.944304526105059e-31
220
6.414635304217157e-50
230
1
0
CIRCLE
5
349
100
AcDbEntity
8
0
100
AcDbCircle
10
-21.516534846992769
20
-75.572224978537875
30
-4.526538845709465e-16
40
0.749999999999994
210
0
220
-0
230
1
0
LWPOLYLINE
5
350
100
AcDbEntity
8
0
100
AcDbPolyline
90
9
70
1
43
0.0
10
-16.516534846993089
20
-100.59722497853798
10
-26.516534846993089
20
-100.59722497853787
10
-26.516534846992993
20
-93.022226586456682
10
-29.516534846992997
20
-93.022226711749624
10
-29.516534846992815
20
-78.122223245325998
10
-26.516534846992808
20
-78.122223245326026
10
-26.516534846992709
20
-70.597224978537824
10
-17.593568369230749
20
-70.597224978537923
42
0.33076025993113528
10
-16.516534846992727
20
-71.397226837042524
0
CIRCLE
5
351
100
AcDbEntity
8
0
100
AcDbCircle
10
-21.516534846993018
20
-95.572224978537932
30
3.3045435790981884e-15
40
0.749999999999994
210
0
220
-0
230
1
0
CIRCLE
5
352
100
AcDbEntity
8
0
100
AcDbCircle
10
-38.49082668734507
20
-75.522223464587427
30
4.6549932344037337e-15
40
0.74999999999999245
210
3.944304526105059e-31
220
1.2829270608343667e-49
230
1
0
CIRCLE
5
353
100
AcDbEntity
8
0
100
AcDbCircle
10
-38.490826687345049
20
-95.522223464587327
30
8.4121906980727424e-15
40
0.74999999999999245
210
3.944304526105059e-31
220
1.2829270608343667e-49
230
1
0
LWPOLYLINE
5
354
100
AcDbEntity
8
0
100
AcDbPolyline
90
8
70
1
43
0.0
10
-43.516534846992997
20
-100.54722346458729
10
-43.516534846992997
20
-70.547223464587432
10
-33.516534846992947
20
-70.547223464587432
10
-33.516534846992947
20
-78.122223245325955
10
-30.516534846992869
20
-78.122223245325983
10
-30.516534846992887
20
-92.922223683848756
10
-33.516534846992947
20
-92.922223683848756
10
-33.516534846992954
20
-100.54722346458729
0
CIRCLE
5
355
100
AcDbEntity
8
0
100
AcDbCircle
10
-59.473052309902606
20
-88.82283343379946
30
1.7180988363688538e-16
40
1
210
0
220
-0
230
1
0
CIRCLE
5
356
100
AcDbEntity
8
0
100
AcDbCircle
10
-59.473052309902606
20
-81.822833433799474
30
1.8905840090287601e-16
40
1
210
0
220
-0
230
1
0
CIRCLE
5
357
100
AcDbEntity
8
0
100
AcDbCircle
10
-59.473052309902606
20
-85.32283343379946
30
1.8043414226988069e-16
40
15
210
3.9443045261050599e-31
220
-3.9443045261050599e-31
230
1
0
CIRCLE
5
358
100
AcDbEntity
8
0
100
AcDbCircle
10
-99.473052309902599
20
-88.82283343379946
30
-1.2149528777481051e-16
40
1
210
0
220
-0
230
1
0
CIRCLE
5
359
100
AcDbEntity
8
0
100
AcDbCircle
10
-99.473052309902599
20
-81.822833433799474
30
-1.0424677050881988e-16
40
1
210
0
220
-0
230
1
0
CIRCLE
5
360
100
AcDbEntity
8
0
100
AcDbCircle
10
-99.473052309902599
20
-85.32283343379946
30
-1.1287102914181519e-16
40
15
210
3.9443045261050599e-31
220
-3.9443045261050599e-31
230
1
0
LWPOLYLINE
5
361
100
AcDbEntity
8
0
100
AcDbPolyline
90
4
70
1
43
0.0
10
-64.749999999999915
20
-60.150000250585549
10
-64.749999999999915
20
-56.350000250585701
10
-74.749999999999957
20
-56.350000250585879
10
-74.749999999999929
20
-60.15000025058572
0
CIRCLE
5
362
100
AcDbEntity
8
0
100
AcDbCircle
10
-106.27499999999991
20
-34.750002944447246
30
0
40
1.1249999999999987
210
3.944304526105059e-31
220
6.414635304217157e-50
230
1
0
CIRCLE
5
363
100
AcDbEntity
8
0
100
AcDbCircle
10
-128.84999999999991
20
-34.750002944447239
30
0
40
1.1250000000000075
210
3.944304526105059e-31
220
-3.944304526105059e-31
230
1
0
CIRCLE
5
364
100
AcDbEntity
8
0
100
AcDbCircle
10
-37.849999999999824
20
-34.750000250584542
30
0
40
1.1250000000000009
210
7.8886090522101198e-31
220
-3.944304526105059e-31
230
1
0
CIRCLE
5
365
100
AcDbEntity
8
0
100
AcDbCircle
10
-124.49999999999987
20
-58.250000250585714
30
0
40
1.1249999999999987
210
3.944304526105059e-31
220
6.414635304217157e-50
230
1
0
CIRCLE
5
366
100
AcDbEntity
8
0
100
AcDbCircle
10
-83.349999999999881
20
-34.750002944447246
30
0
40
1.1249999999999987
210
3.944304526105059e-31
220
6.414635304217157e-50
230
1
0
CIRCLE
5
367
100
AcDbEntity
8
0
100
AcDbCircle
10
-60.899999999999856
20
-34.750002944447253
30
-1.2621774483536189e-28
40
1.1250000000000009
210
7.8886090522101198e-31
220
-3.944304526105059e-31
230
1
0
CIRCLE
5
368
100
AcDbEntity
8
0
100
AcDbCircle
10
-14.999999999999986
20
-58.2500002505857
30
0
40
1.1249999999999987
210
3.944304526105059e-31
220
6.414635304217157e-50
230
1
0
CIRCLE
5
369
100
AcDbEntity
8
0
100
AcDbCircle
10
-72.06874859652882
20
-34.750000250584549
30
0
40
1.0000000000000013
210
0
220
-0
230
1
0
CIRCLE
5
370
100
AcDbEntity
8
0
100
AcDbCircle
10
-119.49999999999987
20
-34.750000250584542
30
0
40
0.99999999999999689
210
0
220
-0
230
1
0
CIRCLE
5
371
100
AcDbEntity
8
0
100
AcDbCircle
10
-11.999999999999989
20
-34.750000250584534
30
0
40
1.0000000000000013
210
0
220
-0
230
1
0
CIRCLE
5
372
100
AcDbEntity
8
0
100
AcDbCircle
10
-2.9999999999999805
20
-73.474999580033753
30
0
40
0.750000000000002
210
0
220
-0
230
1
0
CIRCLE
5
373
100
AcDbEntity
8
0
100
AcDbCircle
10
-129.49999999999989
20
-63.549998392081136
30
0
40
0.74999999999999312
210
3.944304526105059e-31
220
6.4146353042171551e-50
230
1
0
LWPOLYLINE
5
374
100
AcDbEntity
8
0
100
AcDbPolyline
90
30
70
1
43
0.0
10
-124.49999999999989
20
-73.524998392081159
10
-137.49999999999795
20
-73.524998392081159
10
-137.49999999999989
20
-66.099996658869344
10
-134.49999999999986
20
-66.099996658869344
10
-134.49999999999986
20
-15.899996658868915
10
-137.49999999999989
20
-15.899996658868915
10
-137.49999999999989
20
-0.99999999999998113
10
-129.49999999999935
20
-0.99999999999997091
42
-0.41421356237309509
10
-124.49999999999933
20
-5.9999999999999716
10
-124.49999999999989
20
-19.750000250584542
42
0.41421356237309437
10
-119.49999999999987
20
-24.750000250584542
10
-19.999999999999979
20
-24.750000250584534
42
0.41421356237309531
10
-14.999999999999986
20
-19.750000250584534
10
-15.000000000000217
20
-5.9999999999999947
42
-0.41421356237309476
10
-10.000000000000227
20
-0.99999999999999978
10
-0.99999999999997868
20
-0.99999999999999867
10
-0.99999999999997702
20
-16.199999580033733
10
-4.9999999999999822
20
-16.199999580033733
10
-4.999999999999984
20
-30.899999580033722
10
-0.99999999999997868
20
-30.899999580033729
10
-0.99999999999997702
20
-51.199999580033776
10
-4.9999999999999822
20
-51.199999580033776
10
-4.999999999999984
20
-65.89999958003375
10
-0.99999999999997868
20
-65.89999958003375
10
-1.0000000000089471
20
-81.024999580033764
10
-14.999999999999986
20
-81.024999580033779
10
-14.999999999999984
20
-73.2500002505857
42
0.41421356237309687
10
-20
20
-68.2500002505857
10
-119.4999999999999
20
-68.2500002505857
42
0.41421356237309453
10
-124.49999999999989
20
-73.2500002505857
0
LWPOLYLINE
5
375
100
AcDbEntity
8
0
100
AcDbPolyline
90
29
70
1
43
0.0
10
-298.49999999999858
20
-73.650001116014153
10
-285.23708808987487
20
-73.650001116014195
42
0.081612790225546655
10
-285.49999999999864
20
-75.249999999999062
10
-285.49999999999864
20
-98.124999999999602
42
0.4142135623730992
10
-280.49999999999869
20
-103.12499999999964
10
-152.49999999999969
20
-103.12500000000013
42
0.41421356237309503
10
-147.49999999999974
20
-98.125000000000142
10
-147.49999999999974
20
-88.474999196040201
10
-134.50000000000355
20
-88.474999196040258
10
-134.49999999999983
20
-95.899999999999736
10
-137.49999999999986
20
-95.89999999999975
10
-137.49999999999974
20
-146.10000000000031
10
-134.49999999999974
20
-146.10000000000034
10
-134.49999999999972
20
-161.00000000000026
10
-142.4999999999996
20
-161.00000000000023
42
-0.41421356237310336
10
-147.49999999999963
20
-156.0000000000002
10
-147.49999999999963
20
-153.62499999999966
42
0.41421356237309609
10
-152.4999999999996
20
-148.62499999999972
10
-280.49999999999852
20
-148.6249999999992
42
0.41421356237310542
10
-285.49999999999852
20
-153.6249999999992
10
-285.49999999999852
20
-155.99999999999969
42
-0.41421356237309503
10
-290.49999999999847
20
-160.99999999999966
10
-295.49999999999847
20
-160.99999999999963
10
-295.49999999999852
20
-130.74999732944752
10
-298.49999999999858
20
-130.74999732944752
10
-298.49999999999858
20
-111.24999732944752
10
-295.49999999999852
20
-111.24999732944755
10
-295.49999999999864
20
-80.999999561476159
10
-298.49999999999858
20
-80.999999561476145
0
CIRCLE
5
376
100
AcDbEntity
8
0
100
AcDbCircle
10
-290.49999999999864
20
-83.625001116014076
30
0
40
0.74999999999999301
210
-3.9443045261050437e-31
220
3.9443045261050516e-31
230
1
0
CIRCLE
5
377
100
AcDbEntity
8
0
100
AcDbCircle
10
-142.49999999999977
20
-113.12500000000009
30
0
40
1
210
0
220
-0
230
1
0
CIRCLE
5
378
100
AcDbEntity
8
0
100
AcDbCircle
10
-234.06457064299715
20
-113.12499999999974
30
0
40
0.99999999999999656
210
-3.944304526105059e-31
220
-7.6139582849338131e-46
230
1
0
CIRCLE
5
379
100
AcDbEntity
8
0
100
AcDbCircle
10
-290.49999999999864
20
-113.12499999999952
30
0
40
0.99999999999999656
210
-3.944304526105059e-31
220
-7.6139582849338131e-46
230
1
0
CIRCLE
5
380
100
AcDbEntity
8
0
100
AcDbCircle
10
-142.49999999999977
20
-98.44999919604021
30
0
40
0.74999999999999967
210
0
220
-0
230
1
0
CIRCLE
5
381
100
AcDbEntity
8
0
100
AcDbCircle
10
-159.99999999999937
20
-113.12500000000011
30
0
40
1.0500000000000045
210
-1.5355255057090426e-45
220
-3.944304526105059e-31
230
1
0
CIRCLE
5
382
100
AcDbEntity
8
0
100
AcDbCircle
10
-285.49999999999858
20
-136.62499999999915
30
0
40
1.1250000000000073
210
-1.5355255057090423e-45
220
-3.944304526105059e-31
230
1
0
CIRCLE
5
383
100
AcDbEntity
8
0
100
AcDbCircle
10
-147.49999999999966
20
-136.62499999999969
30
0
40
1.1250000000000073
210
-1.5355255057090423e-45
220
-3.944304526105059e-31
230
1
0
LWPOLYLINE
5
384
100
AcDbEntity
8
0
100
AcDbPolyline
90
4
70
1
43
0.0
10
-211.49999999999915
20
-134.72499999999943
10
-221.49999999999906
20
-134.7249999999994
10
-221.49999999999906
20
-138.52499999999941
10
-211.49999999999915
20
-138.52499999999947
0
CIRCLE
5
385
100
AcDbEntity
8
0
100
AcDbCircle
10
-186.99999999999918
20
-113.125
30
0
40
1.0500000000000045
210
-1.5355255057090426e-45
220
-3.944304526105059e-31
230
1
0
CIRCLE
5
386
100
AcDbEntity
8
0
100
AcDbCircle
10
-213.9999999999992
20
-113.12499999999989
30
0
40
1.0500000000000045
210
-1.5355255057090426e-45
220
-3.944304526105059e-31
230
1
0
CIRCLE
5
387
100
AcDbEntity
8
0
100
AcDbCircle
10
-253.49999999999866
20
-113.12499999999973
30
0
40
1.0500000000000045
210
-1.5355255057090426e-45
220
-3.944304526105059e-31
230
1
0
CIRCLE
5
388
100
AcDbEntity
8
0
100
AcDbCircle
10
-280.99999999999847
20
-113.12499999999963
30
0
40
1.0500000000000045
210
-1.5355255057090426e-45
220
-3.944304526105059e-31
230
1
0
CIRCLE
5
389
100
AcDbEntity
8
0
100
AcDbCircle
10
-262.20164422499744
20
-82.030685432139435
30
-2.7759945295877874e-15
40
1.100000000000001
210
0
220
-0
230
1
0
CIRCLE
5
390
100
AcDbEntity
8
0
100
AcDbCircle
10
-169.60164422499724
20
-82.030688126002161
30
2.5215424086324338e-15
40
1.0999999999999943
210
0
220
-0
230
1
0
CIRCLE
5
391
100
AcDbEntity
8
0
100
AcDbCircle
10
-192.50164422499728
20
-82.030688126002161
30
-2.7978096362616147e-15
40
1.0999999999999943
210
0
220
-0
230
1
0
CIRCLE
5
392
100
AcDbEntity
8
0
100
AcDbCircle
10
-238.70164422499724
20
-82.030688126002161
30
3.6135788804788284e-15
40
1.0999999999999985
210
3.9443045261050599e-31
220
-3.9443045261050652e-31
230
1
0
CIRCLE
5
393
100
AcDbEntity
8
0
100
AcDbCircle
10
-215.60164422499719
20
-82.030688126002161
30
-8.4738995748925193e-15
40
1.1000000000000032
210
2.0750823356168322e-60
220
-3.944304526105059e-31
230
1
0
CIRCLE
5
394
100
AcDbEntity
8
0
100
AcDbCircle
10
-204.05164422499723
20
-82.030685432139435
30
-5.6358622895381192e-15
40
0.99999999999999645
210
0
220
-0
230
1
0
CIRCLE
5
395
100
AcDbEntity
8
0
100
AcDbCircle
10
-270.55164422499752
20
-82.030685432139435
30
9.3766800890308149e-17
40
0.99999999999999978
210
2.0750823356168322e-60
220
-3.944304526105059e-31
230
1
0
CIRCLE
5
396
100
AcDbEntity
8
0
100
AcDbCircle
10
-161.55164422499723
20
-82.030685432139435
30
-8.8333344641243994e-16
40
0.99999999999999645
210
0
220
-0
230
1
0
LINE
5
397
100
AcDbEntity
8
0
100
AcDbLine
10
-281.5516442249974
20
-92.030688126002161
30
-8.7664267418537282e-15
11
-151.55164422499743
21
-92.030688126002161
31
-8.7664267418537282e-15
0
LINE
5
398
100
AcDbEntity
8
0
100
AcDbLine
10
-151.55164422499743
20
-92.030688126002161
30
-8.7664267418537282e-15
11
-151.55164422499718
21
-78.380682091008168
31
-7.8131849347654641e-15
0
LINE
5
399
100
AcDbEntity
8
0
100
AcDbLine
10
-151.55164422499718
20
-78.380682091008168
30
-7.8131849347654641e-15
11
-154.55164422499723
21
-78.380682091008168
31
6.5423094773805752e-15
0
LINE
5
400
100
AcDbEntity
8
0
100
AcDbLine
10
-154.55164422499723
20
-78.380682091008168
30
6.5423094773805752e-15
11
-154.5516442249972
21
-72.030688126002161
31
1.1912410713238204e-15
0
LINE
5
401
100
AcDbEntity
8
0
100
AcDbLine
10
-154.5516442249972
20
-72.030688126002161
30
1.1912410713238204e-15
11
-169.55164422499732
21
-72.030688126002161
31
8.4211758951152944e-16
0
LINE
5
402
100
AcDbEntity
8
0
100
AcDbLine
10
-169.55164422499732
20
-72.03068543213945
30
-8.1496637307302242e-15
11
-262.55164422499729
21
-72.03068543213945
31
-8.1496637307302242e-15
0
LINE
5
403
100
AcDbEntity
8
0
100
AcDbLine
10
-262.55164422499729
20
-72.030688126002161
30
3.6029073054999466e-15
11
-277.55164422499752
21
-72.030688126002161
31
3.6029073054999466e-15
0
LINE
5
404
100
AcDbEntity
8
0
100
AcDbLine
10
-277.55164422499752
20
-72.030688126002161
30
3.6029073054999466e-15
11
-277.55164422499752
21
-78.380688132140676
31
-5.3888663307809441e-15
0
LINE
5
405
100
AcDbEntity
8
0
100
AcDbLine
10
-277.55164422499752
20
-78.380688132140676
30
-5.3888663307809441e-15
11
-281.5516442249974
21
-78.380688132140676
31
-5.0397256172716571e-15
0
LINE
5
406
100
AcDbEntity
8
0
100
AcDbLine
10
-281.5516442249974
20
-78.380688132140676
30
-5.0397256172716571e-15
11
-281.5516442249974
21
-92.030688126002161
31
-8.7664267418537282e-15
0
CIRCLE
5
407
100
AcDbEntity
8
0
100
AcDbCircle
10
-221.64999999999907
20
-34.750002693862498
30
-1.2621774483536189e-28
40
1.0500000000000045
210
-1.5355255057090426e-45
220
-3.944304526105059e-31
230
1
0
CIRCLE
5
408
100
AcDbEntity
8
0
100
AcDbCircle
10
-175.44999999999953
20
-34.750002693862676
30
1.2621774483536189e-28
40
1.0500000000000045
210
-1.5355255057090426e-45
220
-3.944304526105059e-31
230
1
0
CIRCLE
5
409
100
AcDbEntity
8
0
100
AcDbCircle
10
-152.5499999999997
20
-34.750002693862768
30
0
40
1.0500000000000045
210
-1.5355255057090426e-45
220
-3.944304526105059e-31
230
1
0
CIRCLE
5
410
100
AcDbEntity
8
0
100
AcDbCircle
10
-244.34999999999894
20
-34.750002693862427
30
0
40
1.0500000000000045
210
-1.5355255057090426e-45
220
-3.944304526105059e-31
230
1
0
CIRCLE
5
411
100
AcDbEntity
8
0
100
AcDbCircle
10
-198.54999999999933
20
-34.750002693862584
30
0
40
1.0500000000000045
210
-1.5355255057090426e-45
220
-3.944304526105059e-31
230
1
0
CIRCLE
5
412
100
AcDbEntity
8
0
100
AcDbCircle
10
-267.27499999999878
20
-34.750002693862342
30
1.2621774483536189e-28
40
1.0500000000000045
210
-1.5355255057090426e-45
220
-3.944304526105059e-31
230
1
0
CIRCLE
5
413
100
AcDbEntity
8
0
100
AcDbCircle
10
-289.84999999999854
20
-34.75000269386225
30
0
40
1.0500000000000045
210
-1.5355255057090426e-45
220
-3.944304526105059e-31
230
1
0
LWPOLYLINE
5
414
100
AcDbEntity
8
0
100
AcDbPolyline
90
4
70
1
43
0.0
10
-211.49999999999926
20
-56.349999999999355
10
-221.4999999999992
20
-56.349999999999326
10
-221.4999999999992
20
-60.149999999999309
10
-211.49999999999926
20
-60.149999999999352
0
CIRCLE
5
415
100
AcDbEntity
8
0
100
AcDbCircle
10
-285.49999999999875
20
-58.249999999999069
30
0
40
1.1250000000000073
210
-1.5355255057090423e-45
220
-3.944304526105059e-31
230
1
0
CIRCLE
5
416
100
AcDbEntity
8
0
100
AcDbCircle
10
-147.49999999999977
20
-58.249999999999588
30
0
40
1.1250000000000073
210
-1.5355255057090423e-45
220
-3.944304526105059e-31
230
1
0
CIRCLE
5
417
100
AcDbEntity
8
0
100
AcDbCircle
10
-210.74396006553229
20
-34.750002693862555
30
0
40
0.99999999999999656
210
-3.944304526105059e-31
220
-7.6139582849338131e-46
230
1
0
CIRCLE
5
418
100
AcDbEntity
8
0
100
AcDbCircle
10
-279.2278329173601
20
-34.750002693862285
30
0
40
0.99999999999999656
210
-3.944304526105059e-31
220
-7.6139582849338131e-46
230
1
0
CIRCLE
5
419
100
AcDbEntity
8
0
100
AcDbCircle
10
-290.49999999999869
20
-63.625001116014076
30
0
40
0.74999999999999301
210
-3.9443045261050437e-31
220
3.9443045261050516e-31
230
1
0
CIRCLE
5
420
100
AcDbEntity
8
0
100
AcDbCircle
10
-142.49999999999977
20
-78.449999196040224
30
0
40
0.74999999999999967
210
0
220
-0
230
1
0
CIRCLE
5
421
100
AcDbEntity
8
0
100
AcDbCircle
10
-142.68334721754309
20
-34.750002693862818
30
0
40
1
210
0
220
-0
230
1
0
LWPOLYLINE
5
422
100
AcDbEntity
8
0
100
AcDbPolyline
90
27
70
1
43
0.0
10
-285.21990505019284
20
-73.600001116014198
10
-298.49999999999858
20
-73.600001116014141
10
-298.49999999999858
20
-66.25000267055195
10
-295.49999999999864
20
-66.25000267055195
10
-295.49999999999875
20
-15.750002670551961
10
-298.49999999999875
20
-15.750002670551952
10
-298.49999999999881
20
-0.99999999999937961
10
-290.49999999999881
20
-0.99999999999942024
42
-0.41421356237310575
10
-285.49999999999886
20
-5.9999999999994262
10
-285.49999999999881
20
-19.750002693862264
42
0.4142135623730962
10
-280.49999999999886
20
-24.750002693862278
10
-152.49999999999986
20
-24.750002693862761
42
0.41421356237309903
10
-147.49999999999989
20
-19.750002693862768
10
-147.49999999999991
20
-5.9999999999999343
42
-0.41421356237309553
10
-142.49999999999994
20
-0.99999999999995959
10
-137.49999999999997
20
-0.99999999999998757
10
-137.49999999999994
20
-31.099996658868751
10
-134.49999999999994
20
-31.099996658868779
10
-134.49999999999991
20
-50.899996658869398
10
-137.49999999999989
20
-50.899996658869384
10
-137.49999999999983
20
-80.999998392080784
10
-134.49999999999983
20
-80.999998392080798
10
-134.50000000000355
20
-88.424999196040247
10
-147.49999999999974
20
-88.424999196040204
10
-147.49999999999974
20
-75.249999999999574
42
0.41421356237310125
10
-152.49999999999974
20
-70.249999999999574
10
-280.49999999999869
20
-70.249999999999076
42
0.31881015208779506
0
CIRCLE
5
423
100
AcDbEntity
8
0
100
AcDbCircle
10
-219.35662781768315
20
-11.257971909878069
30
-3.8805547696014843e-15
40
1.0000000000000087
210
-0
220
0
230
1
0
CIRCLE
5
424
100
AcDbEntity
8
0
100
AcDbCircle
10
-159.28787922115387
20
-11.257971909879881
30
-3.3179708648624956e-15
40
1.0000000000000087
210
-0
220
0
230
1
0
CIRCLE
5
425
100
AcDbEntity
8
0
100
AcDbCircle
10
-274.78787922115458
20
-11.2579719098764
30
3.828716229976e-15
40
1.0000000000000042
210
1.1883667836129509e-44
220
3.944304526105059e-31
230
1
0
CIRCLE
5
426
100
AcDbEntity
8
0
100
AcDbCircle
10
-267.28787922115453
20
-11.257971909876613
30
-5.5718114888417588e-16
40
1.1250000000000069
210
-0
220
0
230
1
0
CIRCLE
5
427
100
AcDbEntity
8
0
100
AcDbCircle
10
-239.7878792211543
20
-11.257971909877448
30
-4.7964259420364843e-15
40
1.1250000000000069
210
-0
220
0
230
1
0
CIRCLE
5
428
100
AcDbEntity
8
0
100
AcDbCircle
10
-196.53787922115387
20
-11.257971909878744
30
1.2938700026077697e-15
40
1.1250000000000084
210
3.9443045261049412e-31
220
-3.9443045261051632e-31
230
1
0
LWPOLYLINE
5
429
100
AcDbEntity
8
0
100
AcDbPolyline
90
8
70
1
43
0.0
10
-148.28787922115401
20
-21.257971909880155
10
-284.78787922115492
20
-21.257971909876044
10
-284.78787922115464
20
-9.2329716592912394
10
-281.78787922115464
20
-9.23297165929133
10
-281.78787922115441
20
-1.2579719098762094
10
-152.28787922115356
20
-1.2579719098801123
10
-152.28787922115376
20
-9.0329712393292798
10
-148.28787922115373
20
-9.0329712393294059
0
CIRCLE
5
430
100
AcDbEntity
8
0
100
AcDbCircle
10
-228.8600768981982
20
-237.46196772792439
30
-1.09031587806479e-16
40
1
210
0
220
-0
230
1
0
CIRCLE
5
431
100
AcDbEntity
8
0
100
AcDbCircle
10
-228.8600768981982
20
-230.46196772792433
30
-9.1783070540614586e-17
40
1
210
0
220
-0
230
1
0
CIRCLE
5
432
100
AcDbEntity
8
0
100
AcDbCircle
10
-228.8600768981982
20
-233.96196772792436
30
-1.004073291736099e-16
40
15
210
3.9443045261050599e-31
220
-3.9443045261050599e-31
230
1
0
CIRCLE
5
433
100
AcDbEntity
8
0
100
AcDbCircle
10
-262.8600768981982
20
-237.46196772792419
30
-2.4731868104440972e-16
40
1
210
0
220
-0
230
1
0
CIRCLE
5
434
100
AcDbEntity
8
0
100
AcDbCircle
10
-262.8600768981982
20
-230.46196772792416
30
-2.3007016377854531e-16
40
1
210
0
220
-0
230
1
0
CIRCLE
5
435
100
AcDbEntity
8
0
100
AcDbCircle
10
-262.8600768981982
20
-233.96196772792419
30
-2.3869442241154062e-16
40
15
210
3.9443045261050599e-31
220
-3.9443045261050599e-31
230
1
0
CIRCLE
5
436
100
AcDbEntity
8
0
100
AcDbCircle
10
-296.86007689819814
20
-237.46196772792405
30
1.6950573803023783e-16
40
1
210
0
220
-0
230
1
0
CIRCLE
5
437
100
AcDbEntity
8
0
100
AcDbCircle
10
-296.86007689819814
20
-230.46196772792402
30
1.8675425529597603e-16
40
1
210
0
220
-0
230
1
0
CIRCLE
5
438
100
AcDbEntity
8
0
100
AcDbCircle
10
-296.86007689819814
20
-233.96196772792405
30
1.7812999666323315e-16
40
15
210
3.9443045261050599e-31
220
-3.9443045261050599e-31
230
1
0
CIRCLE
5
439
100
AcDbEntity
8
0
100
AcDbCircle
10
-418.64999999999998
20
-182.37500269386175
30
0
40
1.0500000000000105
210
-3.9443045261050774e-31
220
-3.9443045261050652e-31
230
1
0
CIRCLE
5
440
100
AcDbEntity
8
0
100
AcDbCircle
10
-372.45000000000016
20
-182.37500269386197
30
0
40
1.0500000000000105
210
-3.9443045261050774e-31
220
-3.9443045261050652e-31
230
1
0
CIRCLE
5
441
100
AcDbEntity
8
0
100
AcDbCircle
10
-349.5500000000003
20
-182.37500269386203
30
0
40
1.0500000000000105
210
-3.9443045261050774e-31
220
-3.9443045261050652e-31
230
1
0
CIRCLE
5
442
100
AcDbEntity
8
0
100
AcDbCircle
10
-441.34999999999997
20
-182.3750026938616
30
0
40
1.0500000000000105
210
-3.9443045261050774e-31
220
-3.9443045261050652e-31
230
1
0
CIRCLE
5
443
100
AcDbEntity
8
0
100
AcDbCircle
10
-395.55000000000013
20
-182.3750026938618
30
0
40
1.0500000000000105
210
-3.9443045261050774e-31
220
-3.9443045261050652e-31
230
1
0
CIRCLE
5
444
100
AcDbEntity
8
0
100
AcDbCircle
10
-464.27499999999986
20
-182.37500269386152
30
0
40
1.0500000000000105
210
-3.9443045261050774e-31
220
-3.9443045261050652e-31
230
1
0
CIRCLE
5
445
100
AcDbEntity
8
0
100
AcDbCircle
10
-486.8499999999998
20
-182.3750026938614
30
0
40
1.0500000000000105
210
-3.9443045261050774e-31
220
-3.9443045261050652e-31
230
1
0
LWPOLYLINE
5
446
100
AcDbEntity
8
0
100
AcDbPolyline
90
4
70
1
43
0.0
10
-408.50000000000011
20
-203.97499999999869
10
-418.50000000000011
20
-203.97499999999866
10
-418.50000000000017
20
-207.77499999999864
10
-408.50000000000017
20
-207.77499999999873
0
CIRCLE
5
447
100
AcDbEntity
8
0
100
AcDbCircle
10
-482.5
20
-205.87499999999835
30
1.2621774483536189e-28
40
1.1250000000000135
210
0
220
0
230
1
0
CIRCLE
5
448
100
AcDbEntity
8
0
100
AcDbCircle
10
-344.50000000000034
20
-205.87499999999898
30
0
40
1.1250000000000135
210
0
220
0
230
1
0
CIRCLE
5
449
100
AcDbEntity
8
0
100
AcDbCircle
10
-407.74396006553309
20
-182.37500269386177
30
0
40
1.0000000000000022
210
0
220
-0
230
1
0
CIRCLE
5
450
100
AcDbEntity
8
0
100
AcDbCircle
10
-476.2278329173613
20
-182.37500269386146
30
0
40
1.0000000000000022
210
0
220
-0
230
1
0
CIRCLE
5
451
100
AcDbEntity
8
0
100
AcDbCircle
10
-487.5
20
-211.25000111601338
30
0
40
0.74999999999999734
210
-3.9443045261050406e-31
220
3.9443045261050538e-31
230
1
0
CIRCLE
5
452
100
AcDbEntity
8
0
100
AcDbCircle
10
-339.50000000000034
20
-226.07499919603976
30
0
40
0.750000000000004
210
3.944304526105059e-31
220
5.1505245069360219e-46
230
1
0
CIRCLE
5
453
100
AcDbEntity
8
0
100
AcDbCircle
10
-339.6833472175436
20
-182.37500269386209
30
0
40
1.0000000000000056
210
3.944304526105059e-31
220
5.1505245069360219e-46
230
1
0
LWPOLYLINE
5
454
100
AcDbEntity
8
0
100
AcDbPolyline
90
27
70
1
43
0.0
10
-482.21990505019403
20
-221.22500111601357
10
-495.49999999999983
20
-221.22500111601352
10
-495.49999999999983
20
-213.87500267055128
10
-492.49999999999994
20
-213.87500267055128
10
-492.49999999999994
20
-163.375002670551
10
-495.50000000000006
20
-163.375002670551
10
-495.50000000000006
20
-148.62499999999835
10
-487.5
20
-148.62499999999835
42
-0.41421356237310025
10
-482.5
20
-153.62499999999844
10
-482.5
20
-167.3750026938614
42
0.41421356237310125
10
-477.50000000000006
20
-172.3750026938614
10
-349.5000000000004
20
-172.375002693862
42
0.41421356237309503
10
-344.5000000000004
20
-167.37500269386197
10
-344.50000000000045
20
-153.62499999999906
42
-0.41421356237309709
10
-339.50000000000045
20
-148.62499999999906
10
-334.50000000000045
20
-148.62499999999909
10
-334.5000000000004
20
-178.72499665886806
10
-331.50000000000034
20
-178.72499665886804
10
-331.5000000000004
20
-198.52499665886876
10
-334.5000000000004
20
-198.52499665886879
10
-334.50000000000034
20
-228.62499839208033
10
-331.50000000000034
20
-228.6249983920803
10
-331.50000000000404
20
-236.04999919603983
10
-344.50000000000034
20
-236.04999919603978
10
-344.50000000000034
20
-222.87499999999906
42
0.41421356237310336
10
-349.50000000000034
20
-217.87499999999906
10
-477.49999999999994
20
-217.87499999999847
42
0.31881015208779517
0
LWPOLYLINE
5
455
100
AcDbEntity
8
0
100
AcDbPolyline
90
29
70
1
43
0.0
10
-463.49999999999864
20
-73.65000111601347
10
-450.23708808987493
20
-73.650001116013527
42
0.08161279022554821
10
-450.49999999999869
20
-75.24999999999838
10
-450.49999999999869
20
-98.124999999998977
42
0.41421356237310442
10
-445.49999999999875
20
-103.12499999999898
10
-317.49999999999977
20
-103.12499999999945
42
0.41421356237310231
10
-312.49999999999983
20
-98.12499999999946
10
-312.49999999999983
20
-88.474999196039533
10
-299.50000000000364
20
-88.47499919603959
10
-299.49999999999989
20
-95.899999999999054
10
-302.49999999999994
20
-95.899999999999068
10
-302.49999999999977
20
-146.09999999999962
10
-299.49999999999983
20
-146.09999999999965
10
-299.49999999999977
20
-160.9999999999996
10
-307.49999999999972
20
-160.99999999999952
42
-0.41421356237310542
10
-312.49999999999966
20
-155.99999999999955
10
-312.49999999999972
20
-153.62499999999901
42
0.4142135623730992
10
-317.49999999999972
20
-148.62499999999903
10
-445.49999999999864
20
-148.62499999999852
42
0.41421356237310231
10
-450.49999999999864
20
-153.62499999999852
10
-450.49999999999864
20
-155.99999999999903
42
-0.41421356237310442
10
-455.49999999999852
20
-160.99999999999898
10
-460.49999999999852
20
-160.99999999999895
10
-460.49999999999864
20
-130.74999732944687
10
-463.49999999999858
20
-130.74999732944684
10
-463.49999999999875
20
-111.24999732944686
10
-460.49999999999864
20
-111.24999732944687
10
-460.49999999999869
20
-80.999999561475491
10
-463.49999999999864
20
-80.999999561475477
0
CIRCLE
5
456
100
AcDbEntity
8
0
100
AcDbCircle
10
-455.49999999999869
20
-83.625001116013408
30
0
40
0.74999999999999301
210
-3.9443045261050437e-31
220
3.9443045261050516e-31
230
1
0
CIRCLE
5
457
100
AcDbEntity
8
0
100
AcDbCircle
10
-307.49999999999989
20
-113.12499999999942
30
0
40
1
210
0
220
-0
230
1
0
CIRCLE
5
458
100
AcDbEntity
8
0
100
AcDbCircle
10
-399.06457064299724
20
-113.12499999999908
30
0
40
0.99999999999999656
210
-3.944304526105059e-31
220
-7.6139582849338131e-46
230
1
0
CIRCLE
5
459
100
AcDbEntity
8
0
100
AcDbCircle
10
-455.49999999999869
20
-113.12499999999885
30
0
40
0.99999999999999656
210
-3.944304526105059e-31
220
-7.6139582849338131e-46
230
1
0
CIRCLE
5
460
100
AcDbEntity
8
0
100
AcDbCircle
10
-307.49999999999989
20
-98.449999196039528
30
0
40
0.74999999999999967
210
0
220
-0
230
1
0
CIRCLE
5
461
100
AcDbEntity
8
0
100
AcDbCircle
10
-324.99999999999943
20
-113.12499999999943
30
0
40
1.0500000000000045
210
-1.5355255057090426e-45
220
-3.944304526105059e-31
230
1
0
CIRCLE
5
462
100
AcDbEntity
8
0
100
AcDbCircle
10
-450.49999999999869
20
-136.62499999999849
30
0
40
1.1250000000000073
210
-1.5355255057090423e-45
220
-3.944304526105059e-31
230
1
0
CIRCLE
5
463
100
AcDbEntity
8
0
100
AcDbCircle
10
-312.49999999999972
20
-136.62499999999903
30
0
40
1.1250000000000073
210
-1.5355255057090423e-45
220
-3.944304526105059e-31
230
1
0
LWPOLYLINE
5
464
100
AcDbEntity
8
0
100
AcDbPolyline
90
4
70
1
43
0.0
10
-376.4999999999992
20
-134.72499999999877
10
-386.49999999999915
20
-134.72499999999872
10
-386.49999999999915
20
-138.52499999999876
10
-376.4999999999992
20
-138.52499999999878
0
CIRCLE
5
465
100
AcDbEntity
8
0
100
AcDbCircle
10
-351.99999999999926
20
-113.12499999999932
30
0
40
1.0500000000000045
210
-1.5355255057090426e-45
220
-3.944304526105059e-31
230
1
0
CIRCLE
5
466
100
AcDbEntity
8
0
100
AcDbCircle
10
-378.99999999999926
20
-113.12499999999922
30
0
40
1.0500000000000045
210
-1.5355255057090426e-45
220
-3.944304526105059e-31
230
1
0
CIRCLE
5
467
100
AcDbEntity
8
0
100
AcDbCircle
10
-418.49999999999875
20
-113.12499999999906
30
0
40
1.0500000000000045
210
-1.5355255057090426e-45
220
-3.944304526105059e-31
230
1
0
CIRCLE
5
468
100
AcDbEntity
8
0
100
AcDbCircle
10
-445.99999999999852
20
-113.12499999999895
30
0
40
1.0500000000000045
210
-1.5355255057090426e-45
220
-3.944304526105059e-31
230
1
0
CIRCLE
5
469
100
AcDbEntity
8
0
100
AcDbCircle
10
-381.7514128012312
20
-82.058149914050546
30
-2.7744974402659361e-15
40
0.99999999999999212
210
0
220
-0
230
1
0
CIRCLE
5
470
100
AcDbEntity
8
0
100
AcDbCircle
10
-325.75141280123148
20
-82.058149914050631
30
8.2942708361116885e-15
40
0.99999999999999212
210
0
220
-0
230
1
0
CIRCLE
5
471
100
AcDbEntity
8
0
100
AcDbCircle
10
-434.75141280123125
20
-82.058149914050489
30
-8.492197310587437e-15
40
0.99999999999999534
210
3.9443045261050652e-31
220
3.944304526105059e-31
230
1
0
CIRCLE
5
472
100
AcDbEntity
8
0
100
AcDbCircle
10
-368.25141280123125
20
-82.05814991405056
30
3.5417419929862616e-15
40
1.0999999999999985
210
3.9443045261050538e-31
220
-3.944304526105059e-31
230
1
0
CIRCLE
5
473
100
AcDbEntity
8
0
100
AcDbCircle
10
-395.25141280123114
20
-82.058149914050517
30
8.6728315204842445e-15
40
1.0999999999999985
210
3.9443045261050538e-31
220
-3.944304526105059e-31
230
1
0
CIRCLE
5
474
100
AcDbEntity
8
0
100
AcDbCircle
10
-341.25141280123137
20
-82.058149914050603
30
-1.589347534511595e-15
40
1.0999999999999897
210
0
220
-0
230
1
0
LWPOLYLINE
5
475
100
AcDbEntity
8
0
100
AcDbPolyline
90
6
70
1
43
0.0
10
-318.7514128012316
20
-92.058149914050489
10
-445.7514128012312
20
-92.058149914050318
10
-445.7514128012312
20
-80.033152614051716
10
-441.7514128012312
20
-80.033152614051716
10
-441.75141280123125
20
-72.058149914050617
10
-318.75141280123154
20
-72.058149914050787
0
CIRCLE
5
476
100
AcDbEntity
8
0
100
AcDbCircle
10
-386.64999999999912
20
-34.750002693861823
30
0
40
1.0500000000000045
210
-1.5355255057090426e-45
220
-3.944304526105059e-31
230
1
0
CIRCLE
5
477
100
AcDbEntity
8
0
100
AcDbCircle
10
-340.44999999999959
20
-34.750002693862001
30
0
40
1.0500000000000045
210
-1.5355255057090426e-45
220
-3.944304526105059e-31
230
1
0
CIRCLE
5
478
100
AcDbEntity
8
0
100
AcDbCircle
10
-317.54999999999973
20
-34.750002693862086
30
-1.2621774483536189e-28
40
1.0500000000000045
210
-1.5355255057090426e-45
220
-3.944304526105059e-31
230
1
0
CIRCLE
5
479
100
AcDbEntity
8
0
100
AcDbCircle
10
-409.349999999999
20
-34.750002693861752
30
1.2621774483536189e-28
40
1.0500000000000045
210
-1.5355255057090426e-45
220
-3.944304526105059e-31
230
1
0
CIRCLE
5
480
100
AcDbEntity
8
0
100
AcDbCircle
10
-363.54999999999939
20
-34.750002693861916
30
0
40
1.0500000000000045
210
-1.5355255057090426e-45
220
-3.944304526105059e-31
230
1
0
CIRCLE
5
481
100
AcDbEntity
8
0
100
AcDbCircle
10
-432.27499999999884
20
-34.75000269386166
30
-1.2621774483536189e-28
40
1.0500000000000045
210
-1.5355255057090426e-45
220
-3.944304526105059e-31
230
1
0
CIRCLE
5
482
100
AcDbEntity
8
0
100
AcDbCircle
10
-454.84999999999866
20
-34.750002693861575
30
1.2621774483536189e-28
40
1.0500000000000045
210
-1.5355255057090426e-45
220
-3.944304526105059e-31
230
1
0
LWPOLYLINE
5
483
100
AcDbEntity
8
0
100
AcDbPolyline
90
4
70
1
43
0.0
10
-376.49999999999932
20
-56.349999999998687
10
-386.49999999999926
20
-56.349999999998644
10
-386.49999999999926
20
-60.149999999998641
10
-376.49999999999932
20
-60.14999999999867
0
CIRCLE
5
484
100
AcDbEntity
8
0
100
AcDbCircle
10
-450.49999999999886
20
-58.249999999998394
30
0
40
1.1250000000000073
210
-1.5355255057090423e-45
220
-3.944304526105059e-31
230
1
0
CIRCLE
5
485
100
AcDbEntity
8
0
100
AcDbCircle
10
-312.49999999999989
20
-58.249999999998906
30
0
40
1.1250000000000073
210
-1.5355255057090423e-45
220
-3.944304526105059e-31
230
1
0
CIRCLE
5
486
100
AcDbEntity
8
0
100
AcDbCircle
10
-375.74396006553235
20
-34.750002693861873
30
0
40
0.99999999999999656
210
-3.944304526105059e-31
220
-7.6139582849338131e-46
230
1
0
CIRCLE
5
487
100
AcDbEntity
8
0
100
AcDbCircle
10
-444.22783291736016
20
-34.75000269386161
30
0
40
0.99999999999999656
210
-3.944304526105059e-31
220
-7.6139582849338131e-46
230
1
0
CIRCLE
5
488
100
AcDbEntity
8
0
100
AcDbCircle
10
-455.49999999999875
20
-63.625001116013408
30
0
40
0.74999999999999301
210
-3.9443045261050437e-31
220
3.9443045261050516e-31
230
1
0
CIRCLE
5
489
100
AcDbEntity
8
0
100
AcDbCircle
10
-307.49999999999989
20
-78.449999196039556
30
0
40
0.74999999999999967
210
0
220
-0
230
1
0
CIRCLE
5
490
100
AcDbEntity
8
0
100
AcDbCircle
10
-307.68334721754314
20
-34.750002693862143
30
0
40
1
210
0
220
-0
230
1
0
LWPOLYLINE
5
491
100
AcDbEntity
8
0
100
AcDbPolyline
90
27
70
1
43
0.0
10
-450.21990505019295
20
-73.600001116013516
10
-463.49999999999864
20
-73.600001116013459
10
-463.49999999999864
20
-66.250002670551268
10
-460.49999999999875
20
-66.250002670551268
10
-460.49999999999875
20
-15.750002670551286
10
-463.49999999999886
20
-15.750002670551277
10
-463.49999999999881
20
-0.99999999999870459
10
-455.49999999999886
20
-0.99999999999869971
42
-0.41421356237310636
10
-450.49999999999886
20
-5.9999999999987512
10
-450.49999999999886
20
-19.750002693861624
42
0.4142135623731088
10
-445.49999999999892
20
-24.750002693861603
10
-317.49999999999994
20
-24.750002693862086
42
0.4142135623730992
10
-312.49999999999994
20
-19.750002693862093
10
-312.49999999999994
20
-5.9999999999992593
42
-0.41421356237309681
10
-307.50000000000006
20
-0.99999999999928457
10
-302.50000000000006
20
-0.99999999999931255
10
-302.5
20
-31.099996658868076
10
-299.5
20
-31.099996658868104
10
-299.5
20
-50.899996658868723
10
-302.49999999999994
20
-50.899996658868709
10
-302.49999999999989
20
-80.999998392080101
10
-299.49999999999994
20
-80.999998392080116
10
-299.50000000000364
20
-88.424999196039579
10
-312.49999999999983
20
-88.424999196039522
10
-312.49999999999983
20
-75.249999999998906
42
0.41421356237310125
10
-317.49999999999983
20
-70.249999999998892
10
-445.49999999999875
20
-70.249999999998408
42
0.31881015208779612
0
LWPOLYLINE
5
492
100
AcDbEntity
8
0
100
AcDbPolyline
90
6
70
1
43
0.0
10
-447.74725204405388
20
-1.7626163057707822
10
-318.24725204405456
20
-1.7626163057648014
10
-318.24725204405422
20
-7.9126156352139692
10
-314.24725204405428
20
-7.9126156352137711
10
-314.24725204405365
20
-21.762616305764539
10
-447.74725204405297
20
-21.762616305770706
0
CIRCLE
5
493
100
AcDbEntity
8
0
100
AcDbCircle
10
-325.24725204405405
20
-11.762616305765082
30
4.0821515176722774e-15
40
0.99999999999999711
210
3.9443045261048777e-31
220
3.9443045261052377e-31
230
1
0
CIRCLE
5
494
100
AcDbEntity
8
0
100
AcDbCircle
10
-432.74725204405348
20
-11.762616305770051
30
7.7347859680189907e-15
40
0.99999999999999267
210
3.9443045261050599e-31
220
1.7822764843131334e-44
230
1
0
CIRCLE
5
495
100
AcDbEntity
8
0
100
AcDbCircle
10
-385.31600064058262
20
-11.762616305767871
30
3.5195676129478037e-15
40
0.99999999999999711
210
3.9443045261048777e-31
220
3.9443045261052377e-31
230
1
0
CIRCLE
5
496
100
AcDbEntity
8
0
100
AcDbCircle
10
-374.14725204405374
20
-11.762618999630057
30
5.6775861529296858e-15
40
1.1249999999999962
210
3.9443045261050599e-31
220
1.7822764843131337e-44
230
1
0
CIRCLE
5
497
100
AcDbEntity
8
0
100
AcDbCircle
10
-396.59725204405362
20
-11.762618999631083
30
1.1608943689474132e-15
40
1.124999999999994
210
1.8216880036222692e-44
220
-3.944304526105059e-31
230
1
0
CIRCLE
5
498
100
AcDbEntity
8
0
100
AcDbCircle
10
-351.09725204405379
20
-11.762616305766279
30
-6.4990844598400836e-15
40
1.1249999999999962
210
3.9443045261050599e-31
220
1.7822764843131337e-44
230
1
0
CIRCLE
5
499
100
AcDbEntity
8
0
100
AcDbCircle
10
-442.0972520440535
20
-11.76261899963318
30
8.8208655137737947e-15
40
1.1250000000000029
210
3.6433760072445398e-44
220
-7.8886090522101198e-31
230
1
0
CIRCLE
5
500
100
AcDbEntity
8
0
100
AcDbCircle
10
-419.52225204405357
20
-11.762618999632144
30
-4.2030499126606183e-15
40
1.124999999999994
210
1.8216880036222692e-44
220
-3.944304526105059e-31
230
1
0
CIRCLE
5
501
100
AcDbEntity
8
0
100
AcDbCircle
10
-355.27044212960186
20
-234.24088595610127
30
3.8502957829683111e-17
40
0.75000000000000011
210
3.944304526105059e-31
220
-5.6109462471367244e-62
230
1
0
CIRCLE
5
502
100
AcDbEntity
8
0
100
AcDbCircle
10
-360.27044212960186
20
-229.24088595610127
30
1.7276347011096772e-16
40
0.75000000000000011
210
3.944304526105059e-31
220
-5.6109462471367244e-62
230
1
0
CIRCLE
5
503
100
AcDbEntity
8
0
100
AcDbCircle
10
-365.27044212960186
20
-234.24088595610127
30
-3.4823335023240861e-17
40
0.74999999999999956
210
0
220
-0
230
1
0
CIRCLE
5
504
100
AcDbEntity
8
0
100
AcDbCircle
10
-360.27044212960186
20
-239.24088595610127
30
-1.6908384730465169e-16
40
0.75000000000000011
210
3.944304526105059e-31
220
-5.6109462471367244e-62
230
1
0
CIRCLE
5
505
100
AcDbEntity
8
0
100
AcDbCircle
10
-360.27044212960186
20
-234.24088595610127
30
1.8398114032211249e-18
40
15
210
3.9443045261050599e-31
220
-3.9443045261050599e-31
230
1
0
CIRCLE
5
506
100
AcDbEntity
8
0
100
AcDbCircle
10
-390.27044212960186
20
-234.24088595610107
30
-2.1813906715605566e-16
40
0.75000000000000011
210
3.944304526105059e-31
220
-5.6109462471367244e-62
230
1
0
CIRCLE
5
507
100
AcDbEntity
8
0
100
AcDbCircle
10
-395.27044212960186
20
-229.24088595610107
30
-8.3878554874771051e-17
40
0.75000000000000011
210
3.944304526105059e-31
220
-5.6109462471367244e-62
230
1
0
CIRCLE
5
508
100
AcDbEntity
8
0
100
AcDbCircle
10
-400.27044212960186
20
-234.24088595610107
30
2.6364615230359864e-16
40
0.74999999999999956
210
0
220
-0
230
1
0
CIRCLE
5
509
100
AcDbEntity
8
0
100
AcDbCircle
10
-395.27044212960186
20
-239.24088595610107
30
1.2938564002218781e-16
40
0.75000000000000011
210
3.944304526105059e-31
220
-5.6109462471367244e-62
230
1
0
CIRCLE
5
510
100
AcDbEntity
8
0
100
AcDbCircle
10
-395.27044212960186
20
-234.24088595610107
30
-2.5480221358251765e-16
40
15
210
3.9443045261050599e-31
220
-3.9443045261050599e-31
230
1
0
CIRCLE
5
511
100
AcDbEntity
8
0
100
AcDbCircle
10
-425.27044212960186
20
-234.24088595610095
30
8.0330420170657621e-17
40
0.75000000000000011
210
3.944304526105059e-31
220
-5.6109462471367244e-62
230
1
0
CIRCLE
5
512
100
AcDbEntity
8
0
100
AcDbCircle
10
-430.27044212960186
20
-229.24088595610095
30
2.1459093245206845e-16
40
0.75000000000000011
210
3.944304526105059e-31
220
-5.6109462471367244e-62
230
1
0
CIRCLE
5
513
100
AcDbEntity
8
0
100
AcDbCircle
10
-435.27044212960186
20
-234.24088595610095
30
7.0041273177336501e-18
40
0.74999999999999956
210
0
220
-0
230
1
0
CIRCLE
5
514
100
AcDbEntity
8
0
100
AcDbCircle
10
-430.27044212960186
20
-239.24088595610095
30
-1.2725638496355096e-16
40
0.75000000000000011
210
3.944304526105059e-31
220
-5.6109462471367244e-62
230
1
0
CIRCLE
5
515
100
AcDbEntity
8
0
100
AcDbCircle
10
-430.27044212960186
20
-234.24088595610095
30
4.3667273744195636e-17
40
15
210
3.9443045261050599e-31
220
-3.9443045261050599e-31
230
1
0
CIRCLE
5
516
100
AcDbEntity
8
0
100
AcDbCircle
10
-460.27044212960186
20
-234.24088595610075
30
-1.7631160481508115e-16
40
0.75000000000000011
210
3.944304526105059e-31
220
-5.6109462471367244e-62
230
1
0
CIRCLE
5
517
100
AcDbEntity
8
0
100
AcDbCircle
10
-465.27044212960186
20
-229.24088595610075
30
-4.2051092533670322e-17
40
0.75000000000000011
210
3.944304526105059e-31
220
-5.6109462471367244e-62
230
1
0
CIRCLE
5
518
100
AcDbEntity
8
0
100
AcDbCircle
10
-470.27044212960186
20
-234.24088595610075
30
-2.4963789766800512e-16
40
0.74999999999999956
210
0
220
-0
230
1
0
CIRCLE
5
519
100
AcDbEntity
8
0
100
AcDbCircle
10
-465.27044212960186
20
-239.24088595610075
30
1.7121310236328854e-16
40
0.75000000000000011
210
3.944304526105059e-31
220
-5.6109462471367244e-62
230
1
0
CIRCLE
5
520
100
AcDbEntity
8
0
100
AcDbCircle
10
-465.27044212960186
20
-234.24088595610075
30
-2.1297475124154313e-16
40
15
210
3.9443045261050599e-31
220
-3.9443045261050599e-31
230
1
0
CIRCLE
5
521
100
AcDbEntity
8
0
100
AcDbCircle
10
-521.56455645466974
20
-234.68809637067761
30
1.6387891751827989e-17
40
0.75000000000000011
210
3.944304526105059e-31
220
-5.6109462471367244e-62
230
1
0
CIRCLE
5
522
100
AcDbEntity
8
0
100
AcDbCircle
10
-526.56455645466974
20
-229.68809637067761
30
1.5064840403323882e-16
40
0.75000000000000011
210
3.944304526105059e-31
220
-5.6109462471367244e-62
230
1
0
CIRCLE
5
523
100
AcDbEntity
8
0
100
AcDbCircle
10
-531.56455645466974
20
-234.68809637067761
30
-5.6938401101095982e-17
40
0.74999999999999956
210
0
220
-0
230
1
0
CIRCLE
5
524
100
AcDbEntity
8
0
100
AcDbCircle
10
-526.56455645466974
20
-239.68809637067761
30
-1.9119891338238059e-16
40
0.75000000000000011
210
3.944304526105059e-31
220
-5.6109462471367244e-62
230
1
0
CIRCLE
5
525
100
AcDbEntity
8
0
100
AcDbCircle
10
-526.56455645466974
20
-234.68809637067761
30
-2.0275254674633997e-17
40
15
210
3.9443045261050599e-31
220
-3.9443045261050599e-31
230
1
0
CIRCLE
5
526
100
AcDbEntity
8
0
100
AcDbCircle
10
-556.56455645466974
20
-234.68809637067747
30
-2.4025413323378456e-16
40
0.75000000000000011
210
3.944304526105059e-31
220
-5.6109462471367244e-62
230
1
0
CIRCLE
5
527
100
AcDbEntity
8
0
100
AcDbCircle
10
-561.56455645466974
20
-229.68809637067747
30
-1.0599362095237374e-16
40
0.75000000000000011
210
3.944304526105059e-31
220
-5.6109462471367244e-62
230
1
0
CIRCLE
5
528
100
AcDbEntity
8
0
100
AcDbCircle
10
-566.56455645466974
20
-234.68809637067747
30
2.4153108622586973e-16
40
0.74999999999999956
210
0
220
-0
230
1
0
CIRCLE
5
529
100
AcDbEntity
8
0
100
AcDbCircle
10
-561.56455645466974
20
-239.68809637067747
30
1.0727057394458513e-16
40
0.75000000000000011
210
3.944304526105059e-31
220
-5.6109462471367244e-62
230
1
0
CIRCLE
5
530
100
AcDbEntity
8
0
100
AcDbCircle
10
-561.56455645466974
20
-234.68809637067747
30
-2.7691727966024655e-16
40
15
210
3.9443045261050599e-31
220
-3.9443045261050599e-31
230
1
0
CIRCLE
5
531
100
AcDbEntity
8
0
100
AcDbCircle
10
-591.56455645466974
20
-234.68809637067727
30
5.8215354092928718e-17
40
0.75000000000000011
210
3.944304526105059e-31
220
-5.6109462471367244e-62
230
1
0
CIRCLE
5
532
100
AcDbEntity
8
0
100
AcDbCircle
10
-596.56455645466974
20
-229.68809637067727
30
1.9247586637433954e-16
40
0.75000000000000011
210
3.944304526105059e-31
220
-5.6109462471367244e-62
230
1
0
CIRCLE
5
533
100
AcDbEntity
8
0
100
AcDbCircle
10
-601.56455645466974
20
-234.68809637067727
30
-1.5110938759995254e-17
40
0.74999999999999956
210
0
220
-0
230
1
0
CIRCLE
5
534
100
AcDbEntity
8
0
100
AcDbCircle
10
-596.56455645466974
20
-239.68809637067727
30
-1.4937145104127986e-16
40
0.75000000000000011
210
3.944304526105059e-31
220
-5.6109462471367244e-62
230
1
0
CIRCLE
5
535
100
AcDbEntity
8
0
100
AcDbCircle
10
-596.56455645466974
20
-234.68809637067727
30
2.1552207666466732e-17
40
15
210
3.9443045261050599e-31
220
-3.9443045261050599e-31
230
1
0
CIRCLE
5
536
100
AcDbEntity
8
0
100
AcDbCircle
10
-626.56455645466974
20
-234.68809637067716
30
-1.9842667089268384e-16
40
0.75000000000000011
210
3.944304526105059e-31
220
-5.6109462471367244e-62
230
1
0
CIRCLE
5
537
100
AcDbEntity
8
0
100
AcDbCircle
10
-631.56455645466974
20
-229.68809637067716
30
-6.4166158611273009e-17
40
0.75000000000000011
210
3.944304526105059e-31
220
-5.6109462471367244e-62
230
1
0
CIRCLE
5
538
100
AcDbEntity
8
0
100
AcDbCircle
10
-636.56455645466974
20
-234.68809637067716
30
-2.7175296374560781e-16
40
0.74999999999999956
210
0
220
-0
230
1
0
CIRCLE
5
539
100
AcDbEntity
8
0
100
AcDbCircle
10
-631.56455645466974
20
-239.68809637067716
30
1.4909803628555964e-16
40
0.75000000000000011
210
3.944304526105059e-31
220
-5.6109462471367244e-62
230
1
0
CIRCLE
5
540
100
AcDbEntity
8
0
100
AcDbCircle
10
-631.56455645466974
20
-234.68809637067716
30
-2.3508981731914582e-16
40
15
210
3.9443045261050599e-31
220
-3.9443045261050599e-31
230
1
0
CIRCLE
5
541
100
AcDbEntity
8
0
100
AcDbCircle
10
-583.65000000000191
20
-182.37500269386095
30
1.2621774483536189e-28
40
1.0500000000000105
210
-3.9443045261050774e-31
220
-3.9443045261050652e-31
230
1
0
CIRCLE
5
542
100
AcDbEntity
8
0
100
AcDbCircle
10
-537.45000000000209
20
-182.37500269386118
30
0
40
1.0500000000000105
210
-3.9443045261050774e-31
220
-3.9443045261050652e-31
230
1
0
CIRCLE
5
543
100
AcDbEntity
8
0
100
AcDbCircle
10
-514.55000000000223
20
-182.37500269386132
30
0
40
1.0500000000000105
210
-3.9443045261050774e-31
220
-3.9443045261050652e-31
230
1
0
CIRCLE
5
544
100
AcDbEntity
8
0
100
AcDbCircle
10
-606.35000000000196
20
-182.37500269386089
30
0
40
1.0500000000000105
210
-3.9443045261050774e-31
220
-3.9443045261050652e-31
230
1
0
CIRCLE
5
545
100
AcDbEntity
8
0
100
AcDbCircle
10
-560.550000000002
20
-182.37500269386112
30
0
40
1.0500000000000105
210
-3.9443045261050774e-31
220
-3.9443045261050652e-31
230
1
0
CIRCLE
5
546
100
AcDbEntity
8
0
100
AcDbCircle
10
-629.2750000000018
20
-182.37500269386075
30
0
40
1.0500000000000105
210
-3.9443045261050774e-31
220
-3.9443045261050652e-31
230
1
0
CIRCLE
5
547
100
AcDbEntity
8
0
100
AcDbCircle
10
-651.85000000000173
20
-182.37500269386067
30
0
40
1.0500000000000105
210
-3.9443045261050774e-31
220
-3.9443045261050652e-31
230
1
0
LWPOLYLINE
5
548
100
AcDbEntity
8
0
100
AcDbPolyline
90
4
70
1
43
0.0
10
-573.50000000000205
20
-203.97499999999792
10
-583.50000000000205
20
-203.97499999999786
10
-583.50000000000205
20
-207.77499999999793
10
-573.50000000000205
20
-207.77499999999799
0
CIRCLE
5
549
100
AcDbEntity
8
0
100
AcDbCircle
10
-647.50000000000182
20
-205.87499999999761
30
0
40
1.1250000000000135
210
0
220
0
230
1
0
CIRCLE
5
550
100
AcDbEntity
8
0
100
AcDbCircle
10
-509.50000000000222
20
-205.87499999999824
30
0
40
1.1250000000000135
210
0
220
0
230
1
0
CIRCLE
5
551
100
AcDbEntity
8
0
100
AcDbCircle
10
-572.74396006553502
20
-182.37500269386103
30
0
40
1.0000000000000022
210
0
220
-0
230
1
0
CIRCLE
5
552
100
AcDbEntity
8
0
100
AcDbCircle
10
-641.22783291736312
20
-182.37500269386072
30
0
40
1.0000000000000022
210
0
220
-0
230
1
0
CIRCLE
5
553
100
AcDbEntity
8
0
100
AcDbCircle
10
-652.50000000000182
20
-211.25000111601264
30
-1.2621774483536189e-28
40
0.74999999999999734
210
-3.9443045261050406e-31
220
3.9443045261050538e-31
230
1
0
CIRCLE
5
554
100
AcDbEntity
8
0
100
AcDbCircle
10
-504.50000000000222
20
-226.07499919603899
30
0
40
0.750000000000004
210
3.944304526105059e-31
220
5.1505245069360219e-46
230
1
0
CIRCLE
5
555
100
AcDbEntity
8
0
100
AcDbCircle
10
-504.68334721754553
20
-182.37500269386135
30
0
40
1.0000000000000056
210
3.944304526105059e-31
220
5.1505245069360219e-46
230
1
0
LWPOLYLINE
5
556
100
AcDbEntity
8
0
100
AcDbPolyline
90
27
70
1
43
0.0
10
-647.21990505019608
20
-221.22500111601283
10
-660.50000000000182
20
-221.22500111601278
10
-660.50000000000182
20
-213.87500267055054
10
-657.50000000000182
20
-213.87500267055054
10
-657.50000000000205
20
-163.37500267055026
10
-660.50000000000193
20
-163.37500267055023
10
-660.50000000000193
20
-148.62499999999758
10
-652.50000000000205
20
-148.62499999999761
42
-0.41421356237309814
10
-647.50000000000205
20
-153.62499999999767
10
-647.50000000000205
20
-167.37500269386061
42
0.41421356237309709
10
-642.50000000000205
20
-172.37500269386064
10
-514.50000000000227
20
-172.37500269386123
42
0.41421356237309503
10
-509.50000000000227
20
-167.37500269386121
10
-509.50000000000227
20
-153.62499999999832
42
-0.41421356237309709
10
-504.50000000000239
20
-148.62499999999832
10
-499.50000000000239
20
-148.62499999999835
10
-499.50000000000227
20
-178.72499665886727
10
-496.50000000000227
20
-178.72499665886733
10
-496.50000000000233
20
-198.52499665886799
10
-499.50000000000227
20
-198.52499665886799
10
-499.50000000000222
20
-228.62499839207956
10
-496.50000000000227
20
-228.62499839207956
10
-496.50000000000597
20
-236.04999919603912
10
-509.50000000000222
20
-236.04999919603904
10
-509.50000000000222
20
-222.87499999999829
42
0.41421356237309503
10
-514.50000000000216
20
-217.87499999999829
10
-642.50000000000182
20
-217.87499999999773
42
0.31881015208781915
0
LWPOLYLINE
5
557
100
AcDbEntity
8
0
100
AcDbPolyline
90
29
70
1
43
0.0
10
-628.49999999999864
20
-73.650001116012831
10
-615.23708808987499
20
-73.650001116012888
42
0.081612790225545864
10
-615.49999999999864
20
-75.249999999997755
10
-615.49999999999864
20
-98.124999999998323
42
0.41421356237310858
10
-610.49999999999864
20
-103.12499999999832
10
-482.49999999999972
20
-103.12499999999881
42
0.41421356237310231
10
-477.49999999999977
20
-98.124999999998835
10
-477.49999999999977
20
-88.474999196038894
10
-464.50000000000364
20
-88.474999196038937
10
-464.49999999999989
20
-95.899999999998414
10
-467.49999999999994
20
-95.899999999998442
10
-467.49999999999972
20
-146.09999999999897
10
-464.49999999999977
20
-146.09999999999903
10
-464.49999999999977
20
-160.99999999999895
10
-472.49999999999972
20
-160.99999999999886
42
-0.41421356237310647
10
-477.49999999999966
20
-155.99999999999889
10
-477.49999999999966
20
-153.62499999999835
42
0.41421356237310125
10
-482.49999999999966
20
-148.62499999999838
10
-610.49999999999852
20
-148.62499999999787
42
0.41421356237310231
10
-615.49999999999852
20
-153.62499999999787
10
-615.49999999999864
20
-155.99999999999838
42
-0.41421356237310442
10
-620.49999999999852
20
-160.99999999999835
10
-625.49999999999852
20
-160.99999999999829
10
-625.49999999999852
20
-130.74999732944622
10
-628.49999999999864
20
-130.74999732944622
10
-628.49999999999864
20
-111.24999732944622
10
-625.49999999999864
20
-111.24999732944623
10
-625.49999999999864
20
-80.999999561474851
10
-628.49999999999864
20
-80.999999561474837
0
CIRCLE
5
558
100
AcDbEntity
8
0
100
AcDbCircle
10
-620.49999999999864
20
-83.625001116012768
30
-1.2621774483536189e-28
40
0.74999999999999301
210
-3.9443045261050437e-31
220
3.9443045261050516e-31
230
1
0
CIRCLE
5
559
100
AcDbEntity
8
0
100
AcDbCircle
10
-472.49999999999977
20
-113.12499999999878
30
0
40
1
210
0
220
-0
230
1
0
CIRCLE
5
560
100
AcDbEntity
8
0
100
AcDbCircle
10
-564.06457064299718
20
-113.12499999999844
30
0
40
0.99999999999999656
210
-3.944304526105059e-31
220
-7.6139582849338131e-46
230
1
0
CIRCLE
5
561
100
AcDbEntity
8
0
100
AcDbCircle
10
-620.49999999999864
20
-113.12499999999821
30
0
40
0.99999999999999656
210
-3.944304526105059e-31
220
-7.6139582849338131e-46
230
1
0
CIRCLE
5
562
100
AcDbEntity
8
0
100
AcDbCircle
10
-472.49999999999977
20
-98.449999196038902
30
1.2621774483536189e-28
40
0.74999999999999967
210
0
220
-0
230
1
0
CIRCLE
5
563
100
AcDbEntity
8
0
100
AcDbCircle
10
-489.99999999999943
20
-113.12499999999879
30
0
40
1.0500000000000045
210
-1.5355255057090426e-45
220
-3.944304526105059e-31
230
1
0
CIRCLE
5
564
100
AcDbEntity
8
0
100
AcDbCircle
10
-615.49999999999864
20
-136.62499999999784
30
0
40
1.1250000000000073
210
-1.5355255057090423e-45
220
-3.944304526105059e-31
230
1
0
CIRCLE
5
565
100
AcDbEntity
8
0
100
AcDbCircle
10
-477.49999999999966
20
-136.62499999999838
30
-1.2621774483536189e-28
40
1.1250000000000073
210
-1.5355255057090423e-45
220
-3.944304526105059e-31
230
1
0
LWPOLYLINE
5
566
100
AcDbEntity
8
0
100
AcDbPolyline
90
4
70
1
43
0.0
10
-541.49999999999909
20
-134.72499999999812
10
-551.49999999999909
20
-134.72499999999809
10
-551.49999999999909
20
-138.5249999999981
10
-541.4999999999992
20
-138.52499999999816
0
CIRCLE
5
567
100
AcDbEntity
8
0
100
AcDbCircle
10
-516.9999999999992
20
-113.12499999999869
30
0
40
1.0500000000000045
210
-1.5355255057090426e-45
220
-3.944304526105059e-31
230
1
0
CIRCLE
5
568
100
AcDbEntity
8
0
100
AcDbCircle
10
-543.9999999999992
20
-113.12499999999858
30
1.2621774483536189e-28
40
1.0500000000000045
210
-1.5355255057090426e-45
220
-3.944304526105059e-31
230
1
0
CIRCLE
5
569
100
AcDbEntity
8
0
100
AcDbCircle
10
-583.49999999999864
20
-113.12499999999842
30
1.2621774483536189e-28
40
1.0500000000000045
210
-1.5355255057090426e-45
220
-3.944304526105059e-31
230
1
0
CIRCLE
5
570
100
AcDbEntity
8
0
100
AcDbCircle
10
-610.99999999999852
20
-113.12499999999831
30
0
40
1.0500000000000045
210
-1.5355255057090426e-45
220
-3.944304526105059e-31
230
1
0
CIRCLE
5
571
100
AcDbEntity
8
0
100
AcDbCircle
10
-486.49999999999915
20
-77.274999999997988
30
-1.2621774483536189e-28
40
0.75000000000000278
210
3.944304526105059e-31
220
-3.9443045261050582e-31
230
1
0
CIRCLE
5
572
100
AcDbEntity
8
0
100
AcDbCircle
10
-486.49999999999915
20
-97.274999999998073
30
0
40
0.75000000000000278
210
3.944304526105059e-31
220
-3.9443045261050582e-31
230
1
0
LWPOLYLINE
5
573
100
AcDbEntity
8
0
100
AcDbPolyline
90
8
70
1
43
0.0
10
-491.49999999999915
20
-102.24999999999811
10
-491.49999999999915
20
-72.249999999997968
10
-481.49999999999909
20
-72.249999999997968
10
-481.49999999999915
20
-79.824999196038547
10
-478.49999999999909
20
-79.824999196038519
10
-478.49999999999903
20
-94.725000803957542
10
-481.49999999999915
20
-94.725000803957556
10
-481.49999999999915
20
-102.2499999999981
0
CIRCLE
5
574
100
AcDbEntity
8
0
100
AcDbCircle
10
-500.49999999999909
20
-77.274999999997988
30
-1.2621774483536189e-28
40
0.75000000000000278
210
3.944304526105059e-31
220
-3.9443045261050582e-31
230
1
0
CIRCLE
5
575
100
AcDbEntity
8
0
100
AcDbCircle
10
-500.49999999999909
20
-97.274999999998073
30
0
40
0.75000000000000278
210
3.944304526105059e-31
220
-3.9443045261050582e-31
230
1
0
LWPOLYLINE
5
576
100
AcDbEntity
8
0
100
AcDbPolyline
90
8
70
1
43
0.0
10
-505.49999999999909
20
-102.24999999999811
10
-505.49999999999909
20
-72.249999999997968
10
-495.49999999999903
20
-72.249999999997968
10
-495.49999999999909
20
-79.824999196038547
10
-492.49999999999909
20
-79.824999196038519
10
-492.49999999999898
20
-94.725000803957542
10
-495.49999999999909
20
-94.725000803957556
10
-495.49999999999909
20
-102.2499999999981
0
CIRCLE
5
577
100
AcDbEntity
8
0
100
AcDbCircle
10
-514.49999999999909
20
-77.274999999997988
30
-1.2621774483536189e-28
40
0.75000000000000278
210
3.944304526105059e-31
220
-3.9443045261050582e-31
230
1
0
CIRCLE
5
578
100
AcDbEntity
8
0
100
AcDbCircle
10
-514.49999999999909
20
-97.274999999998073
30
0
40
0.75000000000000278
210
3.944304526105059e-31
220
-3.9443045261050582e-31
230
1
0
LWPOLYLINE
5
579
100
AcDbEntity
8
0
100
AcDbPolyline
90
8
70
1
43
0.0
10
-519.49999999999909
20
-102.24999999999811
10
-519.49999999999909
20
-72.249999999997968
10
-509.49999999999903
20
-72.249999999997968
10
-509.49999999999909
20
-79.824999196038547
10
-506.49999999999909
20
-79.824999196038519
10
-506.49999999999898
20
-94.725000803957542
10
-509.49999999999909
20
-94.725000803957556
10
-509.49999999999909
20
-102.2499999999981
0
CIRCLE
5
580
100
AcDbEntity
8
0
100
AcDbCircle
10
-528.4999999999992
20
-77.274999999997988
30
0
40
0.75000000000000278
210
3.944304526105059e-31
220
-3.9443045261050582e-31
230
1
0
CIRCLE
5
581
100
AcDbEntity
8
0
100
AcDbCircle
10
-528.4999999999992
20
-97.274999999998073
30
0
40
0.75000000000000278
210
3.944304526105059e-31
220
-3.9443045261050582e-31
230
1
0
LWPOLYLINE
5
582
100
AcDbEntity
8
0
100
AcDbPolyline
90
8
70
1
43
0.0
10
-533.4999999999992
20
-102.24999999999811
10
-533.4999999999992
20
-72.249999999997968
10
-523.49999999999909
20
-72.249999999997968
10
-523.4999999999992
20
-79.824999196038547
10
-520.49999999999909
20
-79.824999196038519
10
-520.49999999999909
20
-94.725000803957542
10
-523.4999999999992
20
-94.725000803957556
10
-523.4999999999992
20
-102.2499999999981
0
CIRCLE
5
583
100
AcDbEntity
8
0
100
AcDbCircle
10
-542.49999999999909
20
-77.274999999997988
30
0
40
0.75000000000000278
210
3.944304526105059e-31
220
-3.9443045261050582e-31
230
1
0
CIRCLE
5
584
100
AcDbEntity
8
0
100
AcDbCircle
10
-542.49999999999909
20
-97.274999999998073
30
0
40
0.75000000000000278
210
3.944304526105059e-31
220
-3.9443045261050582e-31
230
1
0
LWPOLYLINE
5
585
100
AcDbEntity
8
0
100
AcDbPolyline
90
8
70
1
43
0.0
10
-547.49999999999909
20
-102.24999999999811
10
-547.49999999999909
20
-72.249999999997968
10
-537.49999999999909
20
-72.249999999997968
10
-537.49999999999909
20
-79.824999196038547
10
-534.49999999999909
20
-79.824999196038519
10
-534.49999999999909
20
-94.725000803957542
10
-537.49999999999909
20
-94.725000803957556
10
-537.49999999999909
20
-102.2499999999981
0
CIRCLE
5
586
100
AcDbEntity
8
0
100
AcDbCircle
10
-556.49999999999909
20
-77.274999999997988
30
0
40
0.75000000000000278
210
3.944304526105059e-31
220
-3.9443045261050582e-31
230
1
0
CIRCLE
5
587
100
AcDbEntity
8
0
100
AcDbCircle
10
-556.49999999999909
20
-97.274999999998073
30
0
40
0.75000000000000278
210
3.944304526105059e-31
220
-3.9443045261050582e-31
230
1
0
LWPOLYLINE
5
588
100
AcDbEntity
8
0
100
AcDbPolyline
90
8
70
1
43
0.0
10
-561.49999999999909
20
-102.24999999999811
10
-561.49999999999909
20
-72.249999999997968
10
-551.49999999999909
20
-72.249999999997968
10
-551.49999999999909
20
-79.824999196038547
10
-548.49999999999909
20
-79.824999196038519
10
-548.49999999999898
20
-94.725000803957542
10
-551.49999999999909
20
-94.725000803957556
10
-551.49999999999909
20
-102.2499999999981
0
CIRCLE
5
589
100
AcDbEntity
8
0
100
AcDbCircle
10
-572.9007838645507
20
-86.965482803469243
30
8.2732081716774407e-18
40
0.750000000000005
210
3.944304526105059e-31
220
-5.6109462471367244e-62
230
1
0
CIRCLE
5
590
100
AcDbEntity
8
0
100
AcDbCircle
10
-577.9007838645507
20
-81.9654828034692
30
1.4253372045283583e-16
40
0.750000000000005
210
3.944304526105059e-31
220
-5.6109462471367244e-62
230
1
0
CIRCLE
5
591
100
AcDbEntity
8
0
100
AcDbCircle
10
-582.9007838645507
20
-86.965482803469243
30
-6.5053084681498966e-17
40
0.75000000000000444
210
0
220
-0
230
1
0
CIRCLE
5
592
100
AcDbEntity
8
0
100
AcDbCircle
10
-577.9007838645507
20
-91.965482803469285
30
-1.9931359696265736e-16
40
0.750000000000005
210
3.944304526105059e-31
220
-5.6109462471367244e-62
230
1
0
CIRCLE
5
593
100
AcDbEntity
8
0
100
AcDbCircle
10
-577.9007838645507
20
-86.965482803469243
30
-2.8389938255036981e-17
40
15.000000000000098
210
3.9443045261050599e-31
220
-3.9443045261050599e-31
230
1
0
CIRCLE
5
594
100
AcDbEntity
8
0
100
AcDbCircle
10
-551.64999999999907
20
-34.750002693861184
30
1.2621774483536189e-28
40
1.0500000000000045
210
-1.5355255057090426e-45
220
-3.944304526105059e-31
230
1
0
CIRCLE
5
595
100
AcDbEntity
8
0
100
AcDbCircle
10
-505.44999999999959
20
-34.750002693861362
30
0
40
1.0500000000000045
210
-1.5355255057090426e-45
220
-3.944304526105059e-31
230
1
0
CIRCLE
5
596
100
AcDbEntity
8
0
100
AcDbCircle
10
-482.54999999999973
20
-34.750002693861447
30
-1.2621774483536189e-28
40
1.0500000000000045
210
-1.5355255057090426e-45
220
-3.944304526105059e-31
230
1
0
CIRCLE
5
597
100
AcDbEntity
8
0
100
AcDbCircle
10
-574.349999999999
20
-34.750002693861113
30
0
40
1.0500000000000045
210
-1.5355255057090426e-45
220
-3.944304526105059e-31
230
1
0
CIRCLE
5
598
100
AcDbEntity
8
0
100
AcDbCircle
10
-528.54999999999939
20
-34.750002693861276
30
-1.2621774483536189e-28
40
1.0500000000000045
210
-1.5355255057090426e-45
220
-3.944304526105059e-31
230
1
0
CIRCLE
5
599
100
AcDbEntity
8
0
100
AcDbCircle
10
-597.27499999999873
20
-34.75000269386102
30
-1.2621774483536189e-28
40
1.0500000000000045
210
-1.5355255057090426e-45
220
-3.944304526105059e-31
230
1
0
CIRCLE
5
600
100
AcDbEntity
8
0
100
AcDbCircle
10
-619.84999999999866
20
-34.750002693860935
30
0
40
1.0500000000000045
210
-1.5355255057090426e-45
220
-3.944304526105059e-31
230
1
0
LWPOLYLINE
5
601
100
AcDbEntity
8
0
100
AcDbPolyline
90
4
70
1
43
0.0
10
-541.49999999999932
20
-56.349999999998047
10
-551.4999999999992
20
-56.349999999998005
10
-551.49999999999932
20
-60.149999999998002
10
-541.49999999999932
20
-60.14999999999803
0
CIRCLE
5
602
100
AcDbEntity
8
0
100
AcDbCircle
10
-615.49999999999875
20
-58.249999999997755
30
0
40
1.1250000000000073
210
-1.5355255057090423e-45
220
-3.944304526105059e-31
230
1
0
CIRCLE
5
603
100
AcDbEntity
8
0
100
AcDbCircle
10
-477.49999999999989
20
-58.249999999998266
30
0
40
1.1250000000000073
210
-1.5355255057090423e-45
220
-3.944304526105059e-31
230
1
0
CIRCLE
5
604
100
AcDbEntity
8
0
100
AcDbCircle
10
-540.74396006553229
20
-34.750002693861234
30
0
40
0.99999999999999656
210
-3.944304526105059e-31
220
-7.6139582849338131e-46
230
1
0
CIRCLE
5
605
100
AcDbEntity
8
0
100
AcDbCircle
10
-609.22783291736005
20
-34.750002693860971
30
1.2621774483536189e-28
40
0.99999999999999656
210
-3.944304526105059e-31
220
-7.6139582849338131e-46
230
1
0
CIRCLE
5
606
100
AcDbEntity
8
0
100
AcDbCircle
10
-620.49999999999875
20
-63.625001116012768
30
1.2621774483536189e-28
40
0.74999999999999301
210
-3.9443045261050437e-31
220
3.9443045261050516e-31
230
1
0
CIRCLE
5
607
100
AcDbEntity
8
0
100
AcDbCircle
10
-472.49999999999989
20
-78.449999196038917
30
-1.2621774483536189e-28
40
0.74999999999999967
210
0
220
-0
230
1
0
CIRCLE
5
608
100
AcDbEntity
8
0
100
AcDbCircle
10
-472.68334721754309
20
-34.750002693861504
30
1.2621774483536189e-28
40
1
210
0
220
-0
230
1
0
LWPOLYLINE
5
609
100
AcDbEntity
8
0
100
AcDbPolyline
90
27
70
1
43
0.0
10
-615.21990505019301
20
-73.600001116012876
10
-628.49999999999864
20
-73.60000111601282
10
-628.49999999999864
20
-66.250002670550629
10
-625.49999999999875
20
-66.250002670550629
10
-625.49999999999875
20
-15.750002670550646
10
-628.49999999999886
20
-15.750002670550638
10
-628.49999999999886
20
-0.9999999999980651
10
-620.49999999999886
20
-0.99999999999806022
42
-0.41421356237310636
10
-615.49999999999886
20
-5.9999999999981117
10
-615.49999999999875
20
-19.750002693860985
42
0.4142135623731088
10
-610.49999999999886
20
-24.750002693860964
10
-482.49999999999994
20
-24.750002693861447
42
0.41421356237310125
10
-477.49999999999994
20
-19.750002693861454
10
-477.49999999999994
20
-5.9999999999986198
42
-0.41421356237310869
10
-472.49999999999994
20
-0.99999999999864508
10
-467.5
20
-0.99999999999867306
10
-467.49999999999994
20
-31.099996658867436
10
-464.5
20
-31.099996658867465
10
-464.49999999999994
20
-50.899996658868083
10
-467.49999999999994
20
-50.899996658868069
10
-467.49999999999989
20
-80.999998392079462
10
-464.49999999999989
20
-80.999998392079476
10
-464.50000000000358
20
-88.424999196038939
10
-477.49999999999977
20
-88.424999196038883
10
-477.49999999999977
20
-75.249999999998238
42
0.41421356237309814
10
-482.49999999999972
20
-70.249999999998252
10
-610.49999999999864
20
-70.249999999997769
42
0.31881015208779112
0
CIRCLE
5
610
100
AcDbEntity
8
0
100
AcDbCircle
10
-686.08789409545034
20
-34.08789409544886
30
-2.1434962081119128e-16
40
0.74999999999999856
210
3.9443045261050599e-31
220
1.6421466378806397e-47
230
1
0
CIRCLE
5
611
100
AcDbEntity
8
0
100
AcDbCircle
10
-681.08789409545034
20
-39.08789409544886
30
2.0650137921997616e-16
40
0.74999999999999933
210
0
220
-0
230
1
0
CIRCLE
5
612
100
AcDbEntity
8
0
100
AcDbCircle
10
-681.08789409545034
20
-29.087894095448867
30
-6.7628156769827006e-18
40
0.74999999999999933
210
0
220
-0
230
1
0
CIRCLE
5
613
100
AcDbEntity
8
0
100
AcDbCircle
10
-676.08789409545034
20
-34.08789409544886
30
-1.4102332795826731e-16
40
0.74999999999999933
210
0
220
-0
230
1
0
CIRCLE
5
614
100
AcDbEntity
8
0
100
AcDbCircle
10
-681.08789409545034
20
-34.08789409544886
30
-1.776864743847293e-16
40
19.999999999999979
210
-0
220
0
230
1
0
CIRCLE
5
615
100
AcDbEntity
8
0
100
AcDbCircle
10
-639.43729232434691
20
-39.89145353824658
30
1.8492146675372179e-16
40
0.750000000000005
210
3.944304526105059e-31
220
-9.5163857991701897e-62
230
1
0
CIRCLE
5
616
100
AcDbEntity
8
0
100
AcDbCircle
10
-644.43729232434691
20
-34.891453538246544
30
-2.3592953327757187e-16
40
0.750000000000005
210
3.944304526105059e-31
220
-9.5163857991701897e-62
230
1
0
CIRCLE
5
617
100
AcDbEntity
8
0
100
AcDbCircle
10
-649.43729232434691
20
-39.89145353824658
30
1.1159517390079782e-16
40
0.75000000000000444
210
0
220
-0
230
1
0
CIRCLE
5
618
100
AcDbEntity
8
0
100
AcDbCircle
10
-644.43729232434691
20
-44.891453538246616
30
-2.2665338380360569e-17
40
0.750000000000005
210
3.944304526105059e-31
220
-9.5163857991701897e-62
230
1
0
CIRCLE
5
619
100
AcDbEntity
8
0
100
AcDbCircle
10
-644.43729232434691
20
-39.89145353824658
30
1.4825832032725981e-16
40
15.000000000000098
210
3.9443045261050599e-31
220
-3.9443045261050599e-31
230
1
0
CIRCLE
5
620
100
AcDbEntity
8
0
100
AcDbCircle
10
-639.43729232434691
20
-70.891453538246594
30
-2.0867140245961707e-16
40
0.750000000000005
210
3.944304526105059e-31
220
-9.5163857991701897e-62
230
1
0
CIRCLE
5
621
100
AcDbEntity
8
0
100
AcDbCircle
10
-644.43729232434691
20
-65.891453538246552
30
-7.4410890178332458e-17
40
0.750000000000005
210
3.944304526105059e-31
220
-9.5163857991701897e-62
230
1
0
CIRCLE
5
622
100
AcDbEntity
8
0
100
AcDbCircle
10
-649.43729232434691
20
-70.891453538246594
30
2.7311381700003723e-16
40
0.75000000000000444
210
0
220
-0
230
1
0
CIRCLE
5
623
100
AcDbEntity
8
0
100
AcDbCircle
10
-644.43729232434691
20
-75.891453538246623
30
1.3885330471875262e-16
40
0.750000000000005
210
3.944304526105059e-31
220
-9.5163857991701897e-62
230
1
0
CIRCLE
5
624
100
AcDbEntity
8
0
100
AcDbCircle
10
-644.43729232434691
20
-70.891453538246594
30
-2.4533454888607905e-16
40
15.000000000000098
210
3.9443045261050599e-31
220
-3.9443045261050599e-31
230
1
0
CIRCLE
5
625
100
AcDbEntity
8
0
100
AcDbCircle
10
-639.43729232434691
20
-101.89145353824658
30
-4.7152759360630093e-17
40
0.750000000000005
210
3.944304526105059e-31
220
-9.5163857991701897e-62
230
1
0
CIRCLE
5
626
100
AcDbEntity
8
0
100
AcDbCircle
10
-644.43729232434691
20
-96.891453538246552
30
8.7107752920780734e-17
40
0.750000000000005
210
3.944304526105059e-31
220
-9.5163857991701897e-62
230
1
0
CIRCLE
5
627
100
AcDbEntity
8
0
100
AcDbCircle
10
-649.43729232434691
20
-101.89145353824658
30
-1.2047905221355406e-16
40
0.75000000000000444
210
0
220
-0
230
1
0
CIRCLE
5
628
100
AcDbEntity
8
0
100
AcDbCircle
10
-644.43729232434691
20
-106.89145353824662
30
-2.5473956449471246e-16
40
0.750000000000005
210
3.944304526105059e-31
220
-9.5163857991701897e-62
230
1
0
CIRCLE
5
629
100
AcDbEntity
8
0
100
AcDbCircle
10
-644.43729232434691
20
-101.89145353824658
30
-8.3815905787092079e-17
40
15.000000000000098
210
3.9443045261050599e-31
220
-3.9443045261050599e-31
230
1
0
CIRCLE
5
630
100
AcDbEntity
8
0
100
AcDbCircle
10
-639.43729232434691
20
-132.89145353824659
30
1.143658837384831e-16
40
0.750000000000005
210
3.944304526105059e-31
220
-9.5163857991701897e-62
230
1
0
CIRCLE
5
631
100
AcDbEntity
8
0
100
AcDbCircle
10
-644.43729232434691
20
-127.89145353824654
30
2.4862639601989393e-16
40
0.750000000000005
210
3.944304526105059e-31
220
-9.5163857991701897e-62
230
1
0
CIRCLE
5
632
100
AcDbEntity
8
0
100
AcDbCircle
10
-649.43729232434691
20
-132.89145353824659
30
4.1039590885559127e-17
40
0.75000000000000444
210
0
220
-0
230
1
0
CIRCLE
5
633
100
AcDbEntity
8
0
100
AcDbCircle
10
-644.43729232434691
20
-137.89145353824662
30
-9.3220921395599264e-17
40
0.750000000000005
210
3.944304526105059e-31
220
-9.5163857991701897e-62
230
1
0
CIRCLE
5
634
100
AcDbEntity
8
0
100
AcDbCircle
10
-644.43729232434691
20
-132.89145353824659
30
7.7702737312021113e-17
40
15.000000000000098
210
3.9443045261050599e-31
220
-3.9443045261050599e-31
230
1
0
CIRCLE
5
635
100
AcDbEntity
8
0
100
AcDbCircle
10
-727.08789409545045
20
-34.087894095448867
30
-7.0898211658369383e-17
40
0.74999999999999856
210
3.9443045261050599e-31
220
1.6421466378806397e-47
230
1
0
CIRCLE
5
636
100
AcDbEntity
8
0
100
AcDbCircle
10
-722.08789409545045
20
-39.08789409544886
30
-2.0515872393978021e-16
40
0.74999999999999933
210
0
220
-0
230
1
0
CIRCLE
5
637
100
AcDbEntity
8
0
100
AcDbCircle
10
-722.08789409545045
20
-29.087894095448871
30
1.3668859347596542e-16
40
0.74999999999999933
210
0
220
-0
230
1
0
CIRCLE
5
638
100
AcDbEntity
8
0
100
AcDbCircle
10
-717.08789409545045
20
-34.087894095448867
30
2.4280811945545882e-18
40
0.74999999999999933
210
0
220
-0
230
1
0
CIRCLE
5
639
100
AcDbEntity
8
0
100
AcDbCircle
10
-722.08789409545045
20
-34.087894095448867
30
-3.4235065231907397e-17
40
19.999999999999979
210
-0
220
0
230
1
0
CIRCLE
5
640
100
AcDbEntity
8
0
100
AcDbCircle
10
-727.08789409545045
20
-75.087894095448831
30
-2.5122688597500182e-16
40
0.74999999999999856
210
3.9443045261050599e-31
220
1.6421466378806397e-47
230
1
0
CIRCLE
5
641
100
AcDbEntity
8
0
100
AcDbCircle
10
-722.08789409545045
20
-80.087894095448817
30
1.6962411405616563e-16
40
0.74999999999999933
210
0
220
-0
230
1
0
CIRCLE
5
642
100
AcDbEntity
8
0
100
AcDbCircle
10
-722.08789409545045
20
-70.087894095448831
30
-4.3640080840793236e-17
40
0.74999999999999933
210
0
220
-0
230
1
0
CIRCLE
5
643
100
AcDbEntity
8
0
100
AcDbCircle
10
-717.08789409545045
20
-75.087894095448831
30
-1.7790059312207785e-16
40
0.74999999999999933
210
0
220
-0
230
1
0
CIRCLE
5
644
100
AcDbEntity
8
0
100
AcDbCircle
10
-722.08789409545045
20
-75.087894095448831
30
-2.1456373954853983e-16
40
19.999999999999979
210
-0
220
0
230
1
0
CIRCLE
5
645
100
AcDbEntity
8
0
100
AcDbCircle
10
-686.08789409545034
20
-75.087894095448831
30
1.6043321718475456e-16
40
0.74999999999999856
210
3.9443045261050599e-31
220
1.6421466378806397e-47
230
1
0
CIRCLE
5
646
100
AcDbEntity
8
0
100
AcDbCircle
10
-681.08789409545034
20
-80.087894095448817
30
2.6172704903343728e-17
40
0.74999999999999933
210
0
220
-0
230
1
0
CIRCLE
5
647
100
AcDbEntity
8
0
100
AcDbCircle
10
-681.08789409545034
20
-70.087894095448831
30
-1.8709148999361513e-16
40
0.74999999999999933
210
0
220
-0
230
1
0
CIRCLE
5
648
100
AcDbEntity
8
0
100
AcDbCircle
10
-676.08789409545034
20
-75.087894095448831
30
2.3375951003767853e-16
40
0.74999999999999933
210
0
220
-0
230
1
0
CIRCLE
5
649
100
AcDbEntity
8
0
100
AcDbCircle
10
-681.08789409545034
20
-75.087894095448831
30
1.9709636361121654e-16
40
19.999999999999979
210
-0
220
0
230
1
0
CIRCLE
5
650
100
AcDbEntity
8
0
100
AcDbCircle
10
-686.08789409545034
20
-116.08789409544876
30
-1.9895457132130314e-17
40
0.74999999999999856
210
3.9443045261050599e-31
220
1.6421466378806397e-47
230
1
0
CIRCLE
5
651
100
AcDbEntity
8
0
100
AcDbCircle
10
-681.08789409545034
20
-121.08789409544876
30
-1.5415596941341492e-16
40
0.74999999999999933
210
0
220
-0
230
1
0
CIRCLE
5
652
100
AcDbEntity
8
0
100
AcDbCircle
10
-681.08789409545034
20
-111.08789409544876
30
1.8769134800220448e-16
40
0.74999999999999933
210
0
220
-0
230
1
0
CIRCLE
5
653
100
AcDbEntity
8
0
100
AcDbCircle
10
-676.08789409545034
20
-116.08789409544876
30
5.3430835720793657e-17
40
0.74999999999999933
210
0
220
-0
230
1
0
CIRCLE
5
654
100
AcDbEntity
8
0
100
AcDbCircle
10
-681.08789409545034
20
-116.08789409544876
30
1.6767689294331672e-17
40
19.999999999999979
210
-0
220
0
230
1
0
CIRCLE
5
655
100
AcDbEntity
8
0
100
AcDbCircle
10
-727.08789409545045
20
-116.08789409544876
30
1.2355595202069158e-16
40
0.74999999999999856
210
3.9443045261050599e-31
220
1.6421466378806397e-47
230
1
0
CIRCLE
5
656
100
AcDbEntity
8
0
100
AcDbCircle
10
-722.08789409545045
20
-121.08789409544876
30
-1.0704560260593025e-17
40
0.74999999999999933
210
0
220
-0
230
1
0
CIRCLE
5
657
100
AcDbEntity
8
0
100
AcDbCircle
10
-722.08789409545045
20
-111.08789409544876
30
-2.2396875515755189e-16
40
0.74999999999999933
210
0
220
-0
230
1
0
CIRCLE
5
658
100
AcDbEntity
8
0
100
AcDbCircle
10
-717.08789409545045
20
-116.08789409544876
30
1.9688224487361556e-16
40
0.74999999999999933
210
0
220
-0
230
1
0
CIRCLE
5
659
100
AcDbEntity
8
0
100
AcDbCircle
10
-722.08789409545045
20
-116.08789409544876
30
1.6021909844715357e-16
40
19.999999999999979
210
-0
220
0
230
1
0
CIRCLE
5
660
100
AcDbEntity
8
0
100
AcDbCircle
10
-727.08789409545045
20
-157.08789409544877
30
-5.6772722295688414e-17
40
0.74999999999999856
210
3.9443045261050599e-31
220
1.6421466378806397e-47
230
1
0
CIRCLE
5
661
100
AcDbEntity
8
0
100
AcDbCircle
10
-722.08789409545045
20
-162.08789409544877
30
-1.9103323457709924e-16
40
0.74999999999999933
210
0
220
-0
230
1
0
CIRCLE
5
662
100
AcDbEntity
8
0
100
AcDbCircle
10
-722.08789409545045
20
-152.08789409544877
30
1.5081408283864638e-16
40
0.74999999999999933
210
0
220
-0
230
1
0
CIRCLE
5
663
100
AcDbEntity
8
0
100
AcDbCircle
10
-717.08789409545045
20
-157.08789409544877
30
1.6553570557235557e-17
40
0.74999999999999933
210
0
220
-0
230
1
0
CIRCLE
5
664
100
AcDbEntity
8
0
100
AcDbCircle
10
-722.08789409545045
20
-157.08789409544877
30
-2.0109575869226428e-17
40
19.999999999999979
210
-0
220
0
230
1
0
CIRCLE
5
665
100
AcDbEntity
8
0
100
AcDbCircle
10
-686.08789409545034
20
-157.08789409544877
30
-2.0022413144851031e-16
40
0.74999999999999856
210
3.9443045261050599e-31
220
1.6421466378806397e-47
230
1
0
CIRCLE
5
666
100
AcDbEntity
8
0
100
AcDbCircle
10
-681.08789409545034
20
-162.08789409544877
30
2.2062686858265713e-16
40
0.74999999999999933
210
0
220
-0
230
1
0
CIRCLE
5
667
100
AcDbEntity
8
0
100
AcDbCircle
10
-681.08789409545034
20
-152.08789409544877
30
7.3626736858244862e-18
40
0.74999999999999933
210
0
220
-0
230
1
0
CIRCLE
5
668
100
AcDbEntity
8
0
100
AcDbCircle
10
-676.08789409545034
20
-157.08789409544877
30
-1.2689783859558634e-16
40
0.74999999999999933
210
0
220
-0
230
1
0
CIRCLE
5
669
100
AcDbEntity
8
0
100
AcDbCircle
10
-681.08789409545034
20
-157.08789409544877
30
-1.6356098502204833e-16
40
19.999999999999979
210
-0
220
0
230
1
0
CIRCLE
5
670
100
AcDbEntity
8
0
100
AcDbCircle
10
-681.00000000000045
20
-202.50000000000003
30
0
40
1
210
0
220
-0
230
1
0
CIRCLE
5
671
100
AcDbEntity
8
0
100
AcDbCircle
10
-681.00000000000045
20
-195.5
30
-1.2621774483536189e-28
40
1
210
0
220
-0
230
1
0
CIRCLE
5
672
100
AcDbEntity
8
0
100
AcDbCircle
10
-681.00000000000045
20
-199.00000000000003
30
2.5243548967072378e-28
40
20
210
0
220
0
230
1
0
CIRCLE
5
673
100
AcDbEntity
8
0
100
AcDbCircle
10
-722.00000000000045
20
-202.5
30
-1.2621774483536189e-28
40
1
210
0
220
-0
230
1
0
CIRCLE
5
674
100
AcDbEntity
8
0
100
AcDbCircle
10
-722.00000000000045
20
-195.49999999999997
30
-2.5243548967072378e-28
40
1
210
0
220
-0
230
1
0
CIRCLE
5
675
100
AcDbEntity
8
0
100
AcDbCircle
10
-722.00000000000045
20
-199
30
0
40
20
210
0
220
0
230
1
0
CIRCLE
5
676
100
AcDbEntity
8
0
100
AcDbCircle
10
-722.00000000000045
20
-242.5
30
-2.5243548967072378e-28
40
1
210
0
220
-0
230
1
0
CIRCLE
5
677
100
AcDbEntity
8
0
100
AcDbCircle
10
-722.00000000000045
20
-235.49999999999997
30
1.2621774483536189e-28
40
1
210
0
220
-0
230
1
0
CIRCLE
5
678
100
AcDbEntity
8
0
100
AcDbCircle
10
-722.00000000000045
20
-239
30
-1.2621774483536189e-28
40
20
210
0
220
0
230
1
0
CIRCLE
5
679
100
AcDbEntity
8
0
100
AcDbCircle
10
-681.00000000000045
20
-242.50000000000003
30
-1.2621774483536189e-28
40
1
210
0
220
-0
230
1
0
CIRCLE
5
680
100
AcDbEntity
8
0
100
AcDbCircle
10
-681.00000000000045
20
-235.5
30
2.5243548967072378e-28
40
1
210
0
220
-0
230
1
0
CIRCLE
5
681
100
AcDbEntity
8
0
100
AcDbCircle
10
-681.00000000000045
20
-239.00000000000003
30
0
40
20
210
0
220
0
230
1
0
CIRCLE
5
682
100
AcDbEntity
8
0
100
AcDbCircle
10
-681.00000000000045
20
-282.5
30
1.2621774483536189e-28
40
1
210
0
220
-0
230
1
0
CIRCLE
5
683
100
AcDbEntity
8
0
100
AcDbCircle
10
-681.00000000000045
20
-275.5
30
-1.2621774483536189e-28
40
1
210
0
220
-0
230
1
0
CIRCLE
5
684
100
AcDbEntity
8
0
100
AcDbCircle
10
-681.00000000000045
20
-279
30
-2.5243548967072378e-28
40
20
210
0
220
0
230
1
0
CIRCLE
5
685
100
AcDbEntity
8
0
100
AcDbCircle
10
-722.00000000000045
20
-282.5
30
1.2621774483536189e-28
40
1
210
0
220
-0
230
1
0
CIRCLE
5
686
100
AcDbEntity
8
0
100
AcDbCircle
10
-722.00000000000045
20
-275.5
30
-1.2621774483536189e-28
40
1
210
0
220
-0
230
1
0
CIRCLE
5
687
100
AcDbEntity
8
0
100
AcDbCircle
10
-722.00000000000045
20
-279
30
-2.5243548967072378e-28
40
20
210
0
220
0
230
1
0
CIRCLE
5
688
100
AcDbEntity
8
0
100
AcDbCircle
10
-722.00000000000045
20
-322.5
30
-1.2621774483536189e-28
40
1
210
0
220
-0
230
1
0
CIRCLE
5
689
100
AcDbEntity
8
0
100
AcDbCircle
10
-722.00000000000045
20
-315.5
30
-2.5243548967072378e-28
40
1
210
0
220
-0
230
1
0
CIRCLE
5
690
100
AcDbEntity
8
0
100
AcDbCircle
10
-722.00000000000045
20
-319
30
1.2621774483536189e-28
40
20
210
0
220
0
230
1
0
CIRCLE
5
691
100
AcDbEntity
8
0
100
AcDbCircle
10
-681.00000000000045
20
-322.5
30
-1.2621774483536189e-28
40
1
210
0
220
-0
230
1
0
CIRCLE
5
692
100
AcDbEntity
8
0
100
AcDbCircle
10
-681.00000000000045
20
-315.5
30
-2.5243548967072378e-28
40
1
210
0
220
-0
230
1
0
CIRCLE
5
693
100
AcDbEntity
8
0
100
AcDbCircle
10
-681.00000000000045
20
-319
30
1.2621774483536189e-28
40
20
210
0
220
0
230
1
0
CIRCLE
5
694
100
AcDbEntity
8
0
100
AcDbCircle
10
-681.00000000000045
20
-362.5
30
-2.5243548967072378e-28
40
1
210
0
220
-0
230
1
0
CIRCLE
5
695
100
AcDbEntity
8
0
100
AcDbCircle
10
-681.00000000000045
20
-355.5
30
1.2621774483536189e-28
40
1
210
0
220
-0
230
1
0
CIRCLE
5
696
100
AcDbEntity
8
0
100
AcDbCircle
10
-681.00000000000045
20
-359
30
-1.2621774483536189e-28
40
20
210
0
220
0
230
1
0
CIRCLE
5
697
100
AcDbEntity
8
0
100
AcDbCircle
10
-722.00000000000045
20
-362.50000000000006
30
-1.2621774483536189e-28
40
1
210
0
220
-0
230
1
0
CIRCLE
5
698
100
AcDbEntity
8
0
100
AcDbCircle
10
-722.00000000000045
20
-355.50000000000006
30
2.5243548967072378e-28
40
1
210
0
220
-0
230
1
0
CIRCLE
5
699
100
AcDbEntity
8
0
100
AcDbCircle
10
-722.00000000000045
20
-359.00000000000006
30
1.2621774483536189e-28
40
20
210
0
220
0
230
1
0
ENDSEC
0
SECTION
2
OBJECTS
0
DICTIONARY
5
C
100
AcDbDictionary
3
ACAD_GROUP
350
D
3
ACAD_MLINESTYLE
350
17
0
DICTIONARY
5
D
100
AcDbDictionary
0
DICTIONARY
5
1A
330
C
100
AcDbDictionary
0
DICTIONARY
5
17
100
AcDbDictionary
0
ENDSEC
0
EOF
