0
SECTION
2
HEADER
9
$INSUNITS
70
4
9
$ACADVER
1
AC1014
9
$HANDSEED
5
FFFF
0
ENDSEC
0
SECTION
2
TABLES
0
TABLE
2
VPORT
5
8
100
AcDbSymbolTable
0
ENDTAB
0
TABLE
2
LTYPE
5
5
100
AcDbSymbolTable
0
LTYPE
5
14
100
AcDbSymbolTableRecord
100
AcDbLinetypeTableRecord
2
BYBLOCK
70
0
0
LTYPE
5
15
100
AcDbSymbolTableRecord
100
AcDbLinetypeTableRecord
2
BYLAYER
70
0
0
ENDTAB
0
TABLE
2
LAYER
5
2
100
AcDbSymbolTable
70
2
0
LAYER
5
50
100
AcDbSymbolTableRecord
100
AcDbLayerTableRecord
2
0
70
0
6
CONTINUOUS
0
ENDTAB
0
TABLE
2
STYLE
5
3
100
AcDbSymbolTable
70
1
0
STYLE
5
11
100
AcDbSymbolTableRecord
100
AcDbTextStyleTableRecord
2
STANDARD
70
0
0
ENDTAB
0
TABLE
2
VIEW
5
6
100
AcDbSymbolTable
70
0
0
ENDTAB
0
TABLE
2
UCS
5
7
100
AcDbSymbolTable
70
0
0
ENDTAB
0
TABLE
2
APPID
5
9
100
AcDbSymbolTable
70
2
0
APPID
5
12
100
AcDbSymbolTableRecord
100
AcDbRegAppTableRecord
2
ACAD
70
0
0
ENDTAB
0
TABLE
2
DIMSTYLE
5
A
100
AcDbSymbolTable
70
1
0
ENDTAB
0
TABLE
2
BLOCK_RECORD
5
1
100
AcDbSymbolTable
70
1
0
BLOCK_RECORD
5
1F
100
AcDbSymbolTableRecord
100
AcDbBlockTableRecord
2
*MODEL_SPACE
0
BLOCK_RECORD
5
1B
100
AcDbSymbolTableRecord
100
AcDbBlockTableRecord
2
*PAPER_SPACE
0
ENDTAB
0
ENDSEC
0
SECTION
2
BLOCKS
0
BLOCK
5
20
100
AcDbEntity
100
AcDbBlockBegin
2
*MODEL_SPACE
0
ENDBLK
5
21
100
AcDbEntity
100
AcDbBlockEnd
0
BLOCK
5
1C
100
AcDbEntity
100
AcDbBlockBegin
2
*PAPER_SPACE
0
ENDBLK
5
1D
100
AcDbEntity
100
AcDbBlockEnd
0
ENDSEC
0
SECTION
2
ENTITIES
0
CIRCLE
5
100
100
AcDbEntity
8
0
100
AcDbCircle
10
-144.87680697306354
20
-368.05572482763489
30
0
40
1.0500000000000027
210
-7.9301149515778343e-47
220
-1.7102257906158657e-31
230
1
0
CIRCLE
5
101
100
AcDbEntity
8
0
100
AcDbCircle
10
-117.37680697306358
20
-368.05572482763489
30
-2.5243548967072378e-28
40
1.0500000000000027
210
-7.9301149515778343e-47
220
-1.7102257906158657e-31
230
1
0
CIRCLE
5
102
100
AcDbEntity
8
0
100
AcDbCircle
10
-77.876806973063879
20
-368.05572482763489
30
2.5243548967072378e-28
40
1.0500000000000027
210
-7.9301149515778343e-47
220
-1.7102257906158657e-31
230
1
0
CIRCLE
5
103
100
AcDbEntity
8
0
100
AcDbCircle
10
-50.876806973063708
20
-368.05572482763495
30
-4.4176210692376661e-28
40
1.0500000000000027
210
-7.9301149515778343e-47
220
-1.7102257906158657e-31
230
1
0
CIRCLE
5
104
100
AcDbEntity
8
0
100
AcDbCircle
10
-23.876806973063765
20
-368.05572482763495
30
-3.1554436208840472e-29
40
1.0500000000000027
210
-7.9301149515778343e-47
220
-1.7102257906158657e-31
230
1
0
CIRCLE
5
105
100
AcDbEntity
8
0
100
AcDbCircle
10
-154.37680697306371
20
-368.05572482763478
30
0
40
0.99999999999999512
210
9.7352781800397065e-47
220
2.4189680101503682e-31
230
1
0
CIRCLE
5
106
100
AcDbEntity
8
0
100
AcDbCircle
10
-97.94137761606197
20
-368.05572482763478
30
-1.2621774483536189e-28
40
0.99999999999999512
210
9.7352781800397065e-47
220
2.4189680101503682e-31
230
1
0
CIRCLE
5
107
100
AcDbEntity
8
0
100
AcDbCircle
10
-6.3768069730640704
20
-368.05572482763489
30
-7.0997481469891062e-29
40
0.99999999999999845
210
8.1230665069121125e-47
220
2.0183745817178232e-31
230
1
0
LWPOLYLINE
5
108
100
AcDbEntity
8
0
100
AcDbPolyline
90
6
70
1
43
0.0
10
-1.376806973064113
20
-378.05572482763495
10
-162.37680697306371
20
-378.05572482763489
10
-162.37680697306374
20
-366.18072215708281
10
-159.37680697306371
20
-366.18072215708281
10
-159.37680697306371
20
-358.05572482763489
10
-1.3768069730641133
20
-358.05572482763495
0
CIRCLE
5
109
100
AcDbEntity
8
0
100
AcDbCircle
10
-145.67292463668582
20
-341.74043375805866
30
0
40
1.0500000000000034
210
2.6992753310248125e-47
220
-2.2648936145993894e-31
230
1
0
CIRCLE
5
110
100
AcDbEntity
8
0
100
AcDbCircle
10
-118.17292463668592
20
-341.74043375805866
30
0
40
1.0500000000000034
210
2.6992753310248125e-47
220
-2.2648936145993894e-31
230
1
0
CIRCLE
5
111
100
AcDbEntity
8
0
100
AcDbCircle
10
-78.672924636686261
20
-341.74043375805866
30
-1.2621774483536189e-28
40
1.0500000000000034
210
2.6992753310248125e-47
220
-2.2648936145993894e-31
230
1
0
CIRCLE
5
112
100
AcDbEntity
8
0
100
AcDbCircle
10
-51.672924636686126
20
-341.74043375805866
30
-1.2621774483536189e-28
40
1.0500000000000034
210
2.6992753310248125e-47
220
-2.2648936145993894e-31
230
1
0
CIRCLE
5
113
100
AcDbEntity
8
0
100
AcDbCircle
10
-24.672924636686236
20
-341.74043375805866
30
-1.8932661725304283e-28
40
1.0500000000000034
210
2.6992753310248125e-47
220
-2.2648936145993894e-31
230
1
0
CIRCLE
5
114
100
AcDbEntity
8
0
100
AcDbCircle
10
-155.17292463668599
20
-341.74043375805866
30
0
40
0.99999999999999556
210
1.695601932082521e-47
220
-9.398538128609711e-32
230
1
0
CIRCLE
5
115
100
AcDbEntity
8
0
100
AcDbCircle
10
-98.737495279684339
20
-341.74043375805866
30
0
40
0.99999999999999556
210
1.695601932082521e-47
220
-9.398538128609711e-32
230
1
0
CIRCLE
5
116
100
AcDbEntity
8
0
100
AcDbCircle
10
-7.1729246366865702
20
-341.7404337580586
30
2.3665827156630354e-29
40
0.99999999999999889
210
1.577721810442024e-30
220
-1.3404472412935127e-31
230
1
0
LWPOLYLINE
5
117
100
AcDbEntity
8
0
100
AcDbPolyline
90
6
70
1
43
0.0
10
-2.1729246366865951
20
-351.74043375805871
10
-163.17292463668593
20
-351.74043375805871
10
-163.17292463668599
20
-339.86543108750664
10
-160.17292463668596
20
-339.86543108750664
10
-160.17292463668596
20
-331.74043375805866
10
-2.1729246366866262
20
-331.74043375805866
0
LWPOLYLINE
5
118
100
AcDbEntity
8
0
100
AcDbPolyline
90
6
70
1
43
0.0
10
-163.17292463668628
20
-310.74043375805866
10
-5.1729246366866635
20
-310.74043375805866
10
-5.1729246366866626
20
-317.09042772306464
10
-2.1729246366866626
20
-317.09042772306464
10
-2.1729246366867017
20
-330.74043375805871
10
-163.17292463668628
20
-330.74043375805871
0
CIRCLE
5
119
100
AcDbEntity
8
0
100
AcDbCircle
10
-89.322924636686224
20
-320.74043375805871
30
1.2621774483536189e-28
40
1.0500000000000052
210
1.5777218104420236e-30
220
-1.1047134161005183e-30
230
1
0
CIRCLE
5
120
100
AcDbEntity
8
0
100
AcDbCircle
10
-43.122924636686477
20
-320.74043375805871
30
-6.3108872417680944e-29
40
1.0500000000000052
210
1.5777218104420236e-30
220
-1.1047134161005183e-30
230
1
0
CIRCLE
5
121
100
AcDbEntity
8
0
100
AcDbCircle
10
-20.222924636686507
20
-320.74043375805871
30
3.1554436208840472e-29
40
1.0500000000000052
210
1.5777218104420236e-30
220
-1.1047134161005183e-30
230
1
0
CIRCLE
5
122
100
AcDbEntity
8
0
100
AcDbCircle
10
-112.02292463668627
20
-320.74043375805871
30
0
40
1.0500000000000052
210
1.5777218104420236e-30
220
-1.1047134161005183e-30
230
1
0
CIRCLE
5
123
100
AcDbEntity
8
0
100
AcDbCircle
10
-66.222924636686415
20
-320.74043375805871
30
-1.2621774483536189e-28
40
1.0500000000000052
210
1.5777218104420236e-30
220
-1.1047134161005183e-30
230
1
0
CIRCLE
5
124
100
AcDbEntity
8
0
100
AcDbCircle
10
-134.9479246366862
20
-320.74043375805871
30
0
40
1.0500000000000052
210
1.5777218104420236e-30
220
-1.1047134161005183e-30
230
1
0
CIRCLE
5
125
100
AcDbEntity
8
0
100
AcDbCircle
10
-157.52292463668613
20
-320.74043375805871
30
0
40
1.0500000000000052
210
1.5777218104420236e-30
220
-1.1047134161005183e-30
230
1
0
CIRCLE
5
126
100
AcDbEntity
8
0
100
AcDbCircle
10
-78.416884702219406
20
-320.74043375805871
30
-1.2621774483536189e-28
40
0.99999999999999711
210
-1.7961914319468421e-46
220
1.9629077993194711e-30
230
1
0
CIRCLE
5
127
100
AcDbEntity
8
0
100
AcDbCircle
10
-146.90075755404757
20
-320.74043375805871
30
0
40
0.99999999999999711
210
-1.7961914319468421e-46
220
1.9629077993194711e-30
230
1
0
CIRCLE
5
128
100
AcDbEntity
8
0
100
AcDbCircle
10
-10.356271854229835
20
-320.74043375805871
30
9.4663308626521417e-29
40
1.0000000000000007
210
1.5777218104420236e-30
220
1.9243892004317264e-30
230
1
0
LWPOLYLINE
5
129
100
AcDbEntity
8
0
100
AcDbPolyline
90
30
70
1
43
0.0
10
-164.50000000000105
20
-229.90000270000075
10
-150.49999999999733
20
-229.90000270000075
10
-150.50000000000134
20
-246.7499999999992
42
0.41421356237308671
10
-145.50000000000142
20
-251.74999999999923
10
-52.500000000001563
20
-251.74999999999915
42
0.41421356237308776
10
-47.500000000001556
20
-246.7499999999992
10
-47.500000000001407
20
-237.1499997807376
10
-34.500000000002096
20
-237.1499997807376
10
-34.500000000001457
20
-244.52499999999901
10
-37.500000000001499
20
-244.52499999999904
10
-37.500000000002281
20
-294.72499999999934
10
-34.500000000002224
20
-294.72499999999934
10
-34.500000000002473
20
-309.62499999999943
10
-42.500000000002665
20
-309.62499999999926
42
-0.41421356237308099
10
-47.500000000002501
20
-304.62499999999926
10
-47.500000000002451
20
-302.34999999999923
42
0.41421356237309293
10
-52.500000000002359
20
-297.34999999999923
10
-145.50000000000225
20
-297.34999999999928
42
0.41421356237309087
10
-150.50000000000225
20
-302.34999999999928
10
-150.5000000000023
20
-304.62499999999932
42
-0.41421356237310231
10
-155.50000000000233
20
-309.62499999999937
10
-164.50000000000233
20
-309.62499999999943
10
-164.5000000000021
20
-294.72500270000063
10
-160.50000000000207
20
-294.72500270000063
10
-160.50000000000185
20
-280.02500270000064
10
-164.50000000000185
20
-280.02500270000064
10
-164.50000000000153
20
-259.72500270000069
10
-160.50000000000156
20
-259.72500270000074
10
-160.50000000000136
20
-245.02500270000075
10
-164.50000000000131
20
-245.02500270000075
0
CIRCLE
5
130
100
AcDbEntity
8
0
100
AcDbCircle
10
-162.50000000000119
20
-237.37500270000078
30
0
40
0.74999999999999789
210
-8.3316173258068529e-47
220
9.0903893375077532e-32
230
1
0
CIRCLE
5
131
100
AcDbEntity
8
0
100
AcDbCircle
10
-42.474291840353629
20
-247.1249997807376
30
0
40
0.74999999999999067
210
1.143832209136195e-46
220
-1.2480026039629288e-31
230
1
0
CIRCLE
5
132
100
AcDbEntity
8
0
100
AcDbCircle
10
-100.50000000000153
20
-261.74999999999943
30
0
40
0.99999999999999334
210
-4.801271001312424e-47
220
5.2385294487332815e-32
230
1
0
CIRCLE
5
133
100
AcDbEntity
8
0
100
AcDbCircle
10
-44.500000000001748
20
-261.74999999999937
30
0
40
0.99999999999999334
210
-4.801271001312424e-47
220
5.2385294487332815e-32
230
1
0
CIRCLE
5
134
100
AcDbEntity
8
0
100
AcDbCircle
10
-153.50000000000162
20
-261.74999999999949
30
0
40
0.99999999999999656
210
-1.2709246768179947e-47
220
1.3866695599588098e-32
230
1
0
CIRCLE
5
135
100
AcDbEntity
8
0
100
AcDbCircle
10
-87.000000000001563
20
-261.74999999999943
30
0
40
1.0999999999999999
210
-0
220
0
230
1
0
CIRCLE
5
136
100
AcDbEntity
8
0
100
AcDbCircle
10
-114.00000000000151
20
-261.74999999999943
30
0
40
1.0999999999999999
210
-0
220
0
230
1
0
CIRCLE
5
137
100
AcDbEntity
8
0
100
AcDbCircle
10
-60.00000000000162
20
-261.74999999999937
30
0
40
1.0999999999999908
210
-8.6140450317664066e-47
220
9.3985381286097099e-32
230
1
0
CIRCLE
5
138
100
AcDbEntity
8
0
100
AcDbCircle
10
-47.500000000002188
20
-285.24999999999926
30
0
40
1.1250000000000038
210
-1.1720749797321504e-46
220
1.2788174830731246e-31
230
1
0
CIRCLE
5
139
100
AcDbEntity
8
0
100
AcDbCircle
10
-150.50000000000196
20
-285.24999999999932
30
0
40
1.1249999999999971
210
1.5777218104420234e-30
220
1.9721522630522795e-31
230
1
0
LWPOLYLINE
5
140
100
AcDbEntity
8
0
100
AcDbPolyline
90
4
70
1
43
0.0
10
-104.10000000000204
20
-283.34999999999928
10
-104.1000000000021
20
-287.1499999999993
10
-93.900000000002152
20
-287.1499999999993
10
-93.900000000002109
20
-283.34999999999928
0
CIRCLE
5
141
100
AcDbEntity
8
0
100
AcDbCircle
10
-307.25361394612543
20
-368.05572482763478
30
0
40
1.0500000000000049
210
1.577721810442024e-30
220
-3.3896367021215231e-32
230
1
0
CIRCLE
5
142
100
AcDbEntity
8
0
100
AcDbCircle
10
-279.75361394612543
20
-368.05572482763478
30
0
40
1.0500000000000049
210
1.577721810442024e-30
220
-3.3896367021215231e-32
230
1
0
CIRCLE
5
143
100
AcDbEntity
8
0
100
AcDbCircle
10
-240.25361394612565
20
-368.05572482763478
30
2.5243548967072378e-28
40
1.0500000000000049
210
1.577721810442024e-30
220
-3.3896367021215231e-32
230
1
0
CIRCLE
5
144
100
AcDbEntity
8
0
100
AcDbCircle
10
-213.25361394612543
20
-368.05572482763478
30
2.5243548967072378e-28
40
1.0500000000000049
210
1.577721810442024e-30
220
-3.3896367021215231e-32
230
1
0
CIRCLE
5
145
100
AcDbEntity
8
0
100
AcDbCircle
10
-186.25361394612543
20
-368.05572482763478
30
0
40
1.0500000000000049
210
1.577721810442024e-30
220
-3.3896367021215231e-32
230
1
0
CIRCLE
5
146
100
AcDbEntity
8
0
100
AcDbCircle
10
-316.75361394612565
20
-368.05572482763472
30
0
40
0.99999999999999711
210
1.8021116057795934e-47
220
1.4328918786241037e-31
230
1
0
CIRCLE
5
147
100
AcDbEntity
8
0
100
AcDbCircle
10
-260.31818458912375
20
-368.05572482763472
30
0
40
0.99999999999999711
210
1.8021116057795934e-47
220
1.4328918786241037e-31
230
1
0
CIRCLE
5
148
100
AcDbEntity
8
0
100
AcDbCircle
10
-168.75361394612571
20
-368.05572482763472
30
0
40
1.0000000000000007
210
1.3176730020754016e-47
220
1.0477058897466563e-31
230
1
0
LWPOLYLINE
5
149
100
AcDbEntity
8
0
100
AcDbPolyline
90
6
70
1
43
0.0
10
-163.75361394612577
20
-378.05572482763478
10
-324.7536139461256
20
-378.05572482763478
10
-324.75361394612571
20
-366.18072215708276
10
-321.75361394612565
20
-366.18072215708276
10
-321.75361394612565
20
-358.05572482763478
10
-163.75361394612577
20
-358.05572482763478
0
CIRCLE
5
150
100
AcDbEntity
8
0
100
AcDbCircle
10
-307.67292463668525
20
-341.74043375805866
30
0
40
1.0500000000000034
210
2.6992753310248125e-47
220
-2.2648936145993894e-31
230
1
0
CIRCLE
5
151
100
AcDbEntity
8
0
100
AcDbCircle
10
-280.17292463668531
20
-341.74043375805866
30
0
40
1.0500000000000034
210
2.6992753310248125e-47
220
-2.2648936145993894e-31
230
1
0
CIRCLE
5
152
100
AcDbEntity
8
0
100
AcDbCircle
10
-240.67292463668568
20
-341.74043375805866
30
0
40
1.0500000000000034
210
2.6992753310248125e-47
220
-2.2648936145993894e-31
230
1
0
CIRCLE
5
153
100
AcDbEntity
8
0
100
AcDbCircle
10
-213.67292463668554
20
-341.74043375805866
30
0
40
1.0500000000000034
210
2.6992753310248125e-47
220
-2.2648936145993894e-31
230
1
0
CIRCLE
5
154
100
AcDbEntity
8
0
100
AcDbCircle
10
-186.67292463668565
20
-341.74043375805866
30
0
40
1.0500000000000034
210
2.6992753310248125e-47
220
-2.2648936145993894e-31
230
1
0
CIRCLE
5
155
100
AcDbEntity
8
0
100
AcDbCircle
10
-317.17292463668542
20
-341.74043375805866
30
0
40
0.99999999999999556
210
1.695601932082521e-47
220
-9.398538128609711e-32
230
1
0
CIRCLE
5
156
100
AcDbEntity
8
0
100
AcDbCircle
10
-260.73749527968374
20
-341.74043375805866
30
0
40
0.99999999999999556
210
1.695601932082521e-47
220
-9.398538128609711e-32
230
1
0
CIRCLE
5
157
100
AcDbEntity
8
0
100
AcDbCircle
10
-169.17292463668599
20
-341.7404337580586
30
0
40
0.99999999999999889
210
1.577721810442024e-30
220
-1.3404472412935127e-31
230
1
0
LWPOLYLINE
5
158
100
AcDbEntity
8
0
100
AcDbPolyline
90
6
70
1
43
0.0
10
-164.17292463668605
20
-351.74043375805871
10
-325.17292463668537
20
-351.74043375805871
10
-325.17292463668548
20
-339.86543108750664
10
-322.17292463668542
20
-339.86543108750664
10
-322.17292463668542
20
-331.74043375805866
10
-164.17292463668605
20
-331.74043375805866
0
LWPOLYLINE
5
159
100
AcDbEntity
8
0
100
AcDbPolyline
90
6
70
1
43
0.0
10
-325.17292463668571
20
-310.74043375805866
10
-167.1729246366861
20
-310.74043375805866
10
-167.1729246366861
20
-317.09042772306464
10
-164.1729246366861
20
-317.09042772306464
10
-164.1729246366861
20
-330.74043375805871
10
-325.17292463668571
20
-330.74043375805871
0
CIRCLE
5
160
100
AcDbEntity
8
0
100
AcDbCircle
10
-251.32292463668563
20
-320.74043375805871
30
0
40
1.0500000000000052
210
1.5777218104420236e-30
220
-1.1047134161005183e-30
230
1
0
CIRCLE
5
161
100
AcDbEntity
8
0
100
AcDbCircle
10
-205.12292463668589
20
-320.74043375805871
30
0
40
1.0500000000000052
210
1.5777218104420236e-30
220
-1.1047134161005183e-30
230
1
0
CIRCLE
5
162
100
AcDbEntity
8
0
100
AcDbCircle
10
-182.22292463668595
20
-320.74043375805871
30
0
40
1.0500000000000052
210
1.5777218104420236e-30
220
-1.1047134161005183e-30
230
1
0
CIRCLE
5
163
100
AcDbEntity
8
0
100
AcDbCircle
10
-274.02292463668567
20
-320.74043375805871
30
0
40
1.0500000000000052
210
1.5777218104420236e-30
220
-1.1047134161005183e-30
230
1
0
CIRCLE
5
164
100
AcDbEntity
8
0
100
AcDbCircle
10
-228.22292463668583
20
-320.74043375805871
30
0
40
1.0500000000000052
210
1.5777218104420236e-30
220
-1.1047134161005183e-30
230
1
0
CIRCLE
5
165
100
AcDbEntity
8
0
100
AcDbCircle
10
-296.94792463668563
20
-320.74043375805871
30
0
40
1.0500000000000052
210
1.5777218104420236e-30
220
-1.1047134161005183e-30
230
1
0
CIRCLE
5
166
100
AcDbEntity
8
0
100
AcDbCircle
10
-319.52292463668556
20
-320.74043375805871
30
0
40
1.0500000000000052
210
1.5777218104420236e-30
220
-1.1047134161005183e-30
230
1
0
CIRCLE
5
167
100
AcDbEntity
8
0
100
AcDbCircle
10
-240.41688470221885
20
-320.74043375805871
30
0
40
0.99999999999999711
210
-1.7961914319468421e-46
220
1.9629077993194711e-30
230
1
0
CIRCLE
5
168
100
AcDbEntity
8
0
100
AcDbCircle
10
-308.900757554047
20
-320.74043375805871
30
0
40
0.99999999999999711
210
-1.7961914319468421e-46
220
1.9629077993194711e-30
230
1
0
CIRCLE
5
169
100
AcDbEntity
8
0
100
AcDbCircle
10
-172.35627185422928
20
-320.74043375805871
30
0
40
1.0000000000000007
210
1.5777218104420236e-30
220
1.9243892004317264e-30
230
1
0
LWPOLYLINE
5
170
100
AcDbEntity
8
0
100
AcDbPolyline
90
29
70
1
43
0.0
10
-330.49999999999898
20
-222.27500111601421
10
-317.23708808987521
20
-222.27500111601429
42
0.081612790225546378
10
-317.49999999999898
20
-223.87499999999918
10
-317.49999999999898
20
-246.74999999999983
42
0.4142135623730992
10
-312.49999999999898
20
-251.74999999999989
10
-184.49999999999946
20
-251.75000000000051
42
0.41421356237310336
10
-179.49999999999943
20
-246.75000000000051
10
-179.49999999999937
20
-237.09999919604053
10
-166.50000000000315
20
-237.09999919604056
10
-166.49999999999943
20
-244.52500000000009
10
-169.49999999999949
20
-244.52500000000009
10
-169.49999999999937
20
-294.72500000000093
10
-166.49999999999937
20
-294.72500000000093
10
-166.49999999999937
20
-309.62500000000097
10
-174.49999999999932
20
-309.62500000000091
42
-0.41421356237310542
10
-179.49999999999932
20
-304.62500000000085
10
-179.49999999999935
20
-302.25000000000034
42
0.41421356237309293
10
-184.49999999999932
20
-297.25000000000028
10
-312.49999999999892
20
-297.24999999999972
42
0.4142135623730992
10
-317.49999999999892
20
-302.24999999999972
10
-317.49999999999881
20
-304.62500000000023
42
-0.41421356237310125
10
-322.49999999999886
20
-309.62500000000023
10
-327.49999999999881
20
-309.62500000000017
10
-327.49999999999892
20
-279.37499732944798
10
-330.49999999999898
20
-279.37499732944792
10
-330.49999999999898
20
-259.87499732944787
10
-327.49999999999892
20
-259.87499732944787
10
-327.49999999999898
20
-229.62499956147627
10
-330.49999999999898
20
-229.62499956147627
0
CIRCLE
5
171
100
AcDbEntity
8
0
100
AcDbCircle
10
-322.49999999999898
20
-232.25000111601423
30
0
40
0.74999999999999734
210
5.732011197263749e-47
220
1.2325951644078309e-32
230
1
0
CIRCLE
5
172
100
AcDbEntity
8
0
100
AcDbCircle
10
-174.49999999999943
20
-261.75000000000057
30
0
40
1.0000000000000056
210
-4.3706585379136088e-46
220
-9.3985381286097121e-32
230
1
0
CIRCLE
5
173
100
AcDbEntity
8
0
100
AcDbCircle
10
-266.06457064299724
20
-261.75000000000011
30
0
40
1.0000000000000022
210
-2.6510551787344838e-46
220
-5.7007526353862181e-32
230
1
0
CIRCLE
5
174
100
AcDbEntity
8
0
100
AcDbCircle
10
-322.49999999999898
20
-261.74999999999983
30
0
40
1.0000000000000022
210
-2.6510551787344838e-46
220
-5.7007526353862181e-32
230
1
0
CIRCLE
5
175
100
AcDbEntity
8
0
100
AcDbCircle
10
-174.49999999999943
20
-247.07499919604058
30
0
40
0.750000000000004
210
-1.577721810442024e-30
220
-9.090389337507959e-32
230
1
0
CIRCLE
5
176
100
AcDbEntity
8
0
100
AcDbCircle
10
-191.99999999999909
20
-261.75000000000057
30
0
40
1.0500000000000105
210
1.5777218104420236e-30
220
2.3111159332648793e-32
230
1
0
CIRCLE
5
177
100
AcDbEntity
8
0
100
AcDbCircle
10
-317.49999999999892
20
-285.2499999999996
30
0
40
1.1250000000000138
210
-2.3955879269027382e-46
220
-5.0844550531823027e-32
230
1
0
CIRCLE
5
178
100
AcDbEntity
8
0
100
AcDbCircle
10
-179.49999999999935
20
-285.25000000000028
30
0
40
1.1250000000000138
210
-2.3955879269027382e-46
220
-5.0844550531823027e-32
230
1
0
LWPOLYLINE
5
179
100
AcDbEntity
8
0
100
AcDbPolyline
90
4
70
1
43
0.0
10
-243.49999999999912
20
-283.34999999999991
10
-253.49999999999909
20
-283.34999999999991
10
-253.49999999999909
20
-287.14999999999992
10
-243.49999999999915
20
-287.14999999999998
0
CIRCLE
5
180
100
AcDbEntity
8
0
100
AcDbCircle
10
-218.99999999999903
20
-261.7500000000004
30
0
40
1.0500000000000105
210
1.5777218104420236e-30
220
2.3111159332648793e-32
230
1
0
CIRCLE
5
181
100
AcDbEntity
8
0
100
AcDbCircle
10
-245.9999999999992
20
-261.75000000000023
30
0
40
1.0500000000000105
210
1.5777218104420236e-30
220
2.3111159332648793e-32
230
1
0
CIRCLE
5
182
100
AcDbEntity
8
0
100
AcDbCircle
10
-285.49999999999886
20
-261.75000000000006
30
0
40
1.0500000000000105
210
1.5777218104420236e-30
220
2.3111159332648793e-32
230
1
0
CIRCLE
5
183
100
AcDbEntity
8
0
100
AcDbCircle
10
-312.99999999999875
20
-261.75
30
0
40
1.0500000000000105
210
1.5777218104420236e-30
220
2.3111159332648793e-32
230
1
0
CIRCLE
5
184
100
AcDbEntity
8
0
100
AcDbCircle
10
-16.651884558634414
20
-273.28577824284315
30
-1.5680779490513541e-16
40
1
210
0
220
-0
230
1
0
CIRCLE
5
185
100
AcDbEntity
8
0
100
AcDbCircle
10
-16.651884558634414
20
-266.28577824284315
30
-7.4632812954458112e-17
40
1
210
0
220
-0
230
1
0
CIRCLE
5
186
100
AcDbEntity
8
0
100
AcDbCircle
10
-16.651884558634414
20
-269.78577824284315
30
-1.1572030392979676e-16
40
15
210
1.587642889371598e-64
220
1.540743955509789e-33
230
1
0
CIRCLE
5
187
100
AcDbEntity
8
0
100
AcDbCircle
10
-16.651884558634414
20
-242.28577824284315
30
2.0710998230510159e-16
40
1
210
0
220
-0
230
1
0
CIRCLE
5
188
100
AcDbEntity
8
0
100
AcDbCircle
10
-16.651884558634414
20
-235.28577824284312
30
-2.6582654805676782e-16
40
1
210
0
220
-0
230
1
0
CIRCLE
5
189
100
AcDbEntity
8
0
100
AcDbCircle
10
-16.651884558634414
20
-238.78577824284315
30
2.481974732804718e-16
40
15
210
1.587642889371598e-64
220
1.540743955509789e-33
230
1
0
CIRCLE
5
190
100
AcDbEntity
8
0
100
AcDbCircle
10
-16.651884558634414
20
-211.28577824284318
30
1.5916247202791877e-17
40
1
210
0
220
-0
230
1
0
CIRCLE
5
191
100
AcDbEntity
8
0
100
AcDbCircle
10
-16.651884558634414
20
-204.28577824284315
30
9.809122915346918e-17
40
1
210
0
220
-0
230
1
0
CIRCLE
5
192
100
AcDbEntity
8
0
100
AcDbCircle
10
-16.651884558634414
20
-207.78577824284315
30
5.7003738178130528e-17
40
15
210
1.587642889371598e-64
220
1.540743955509789e-33
230
1
0
CIRCLE
5
193
100
AcDbEntity
8
0
100
AcDbCircle
10
-16.651884558634414
20
-180.28577824284315
30
-1.7527748789954939e-16
40
1
210
0
220
-0
230
1
0
CIRCLE
5
194
100
AcDbEntity
8
0
100
AcDbCircle
10
-16.651884558634414
20
-173.28577824284312
30
-9.3102505948840533e-17
40
1
210
0
220
-0
230
1
0
CIRCLE
5
195
100
AcDbEntity
8
0
100
AcDbCircle
10
-16.651884558634414
20
-176.78577824284315
30
-1.3418999692417918e-16
40
15
210
1.587642889371598e-64
220
1.540743955509789e-33
230
1
0
LWPOLYLINE
5
196
100
AcDbEntity
8
0
100
AcDbPolyline
90
32
70
1
43
0.0
10
-137.49999999999795
20
-73.574998392081156
10
-124.49999999999989
20
-73.574998392081156
10
-124.49999999999989
20
-98.125000250584577
42
0.41421356237309398
10
-119.49999999999987
20
-103.12500025058458
10
-19.999999999999979
20
-103.12500025058458
42
0.4142135623730937
10
-14.999999999999996
20
-98.125000250584577
10
-14.999999999999989
20
-81.074999580033747
10
-1.0000000000089493
20
-81.074999580033747
10
-0.99999999999997702
20
-96.19999958003379
10
-4.9999999999999822
20
-96.19999958003379
10
-4.999999999999984
20
-110.89999958003378
10
-0.99999999999997868
20
-110.89999958003381
10
-0.99999999999997702
20
-131.19999958003388
10
-4.9999999999999822
20
-131.19999958003388
10
-4.999999999999984
20
-145.89999958003386
10
-0.99999999999997868
20
-145.89999958003386
10
-0.99999999999997424
20
-161.00000025058594
10
-10.000000009385243
20
-161.0000002336925
42
-0.41421356182332048
10
-15.000000000000014
20
-156.0000002336925
10
-14.999999999999984
20
-151.62500025058469
42
0.41421356237309592
10
-20.000000000000018
20
-146.62500025058469
10
-119.49999999999986
20
-146.62500025058469
42
0.41421356237309503
10
-124.49999999999987
20
-151.62500025058472
10
-124.49999999999976
20
-156.00000000938527
42
-0.41421356292286959
10
-129.50000000938505
20
-161.00000000938533
10
-134.49999999999986
20
-161.00000000000011
10
-134.49999999999986
20
-130.90000000000032
10
-137.49999999999989
20
-130.90000000000029
10
-137.49999999999989
20
-111.09999999999972
10
-134.49999999999986
20
-111.09999999999974
10
-134.49999999999986
20
-80.999999999999957
10
-137.49999999999989
20
-81.000000125292956
0
CIRCLE
5
197
100
AcDbEntity
8
0
100
AcDbCircle
10
-2.9999999999999805
20
-88.624999580033801
30
0
40
0.750000000000002
210
-1.0941429165122356e-50
220
-1.5407439555097887e-33
230
1
0
CIRCLE
5
198
100
AcDbEntity
8
0
100
AcDbCircle
10
-129.49999999999986
20
-83.549998392081164
30
0
40
0.74999999999999312
210
-1.0941429165122356e-50
220
-1.5407439555097887e-33
230
1
0
CIRCLE
5
199
100
AcDbEntity
8
0
100
AcDbCircle
10
-72.06874859652882
20
-113.12500025058458
30
0
40
1.0000000000000013
210
-1.0941429165122359e-50
220
-1.5407439555097887e-33
230
1
0
CIRCLE
5
200
100
AcDbEntity
8
0
100
AcDbCircle
10
-11.999999999999989
20
-113.12500025058458
30
0
40
1.0000000000000013
210
-1.0941429165122359e-50
220
-1.5407439555097887e-33
230
1
0
CIRCLE
5
201
100
AcDbEntity
8
0
100
AcDbCircle
10
-127.49999999999987
20
-113.12500025058458
30
0
40
0.99999999999999689
210
1.5777218104420236e-30
220
-1.5407439555097883e-33
230
1
0
CIRCLE
5
202
100
AcDbEntity
8
0
100
AcDbCircle
10
-119.99999999999983
20
-113.12500025058458
30
0
40
1.1249999999999987
210
0
220
-0
230
1
0
CIRCLE
5
203
100
AcDbEntity
8
0
100
AcDbCircle
10
-92.499999999999829
20
-113.12500025058458
30
0
40
1.1249999999999987
210
0
220
-0
230
1
0
CIRCLE
5
204
100
AcDbEntity
8
0
100
AcDbCircle
10
-14.999999999999986
20
-136.62500025058469
30
0
40
1.1249999999999987
210
0
220
-0
230
1
0
LWPOLYLINE
5
205
100
AcDbEntity
8
0
100
AcDbPolyline
90
4
70
1
43
0.0
10
-64.749999999999943
20
-138.52500025058464
10
-64.749999999999943
20
-134.72500025058469
10
-74.749999999999872
20
-134.72500025058469
10
-74.749999999999872
20
-138.52500025058464
0
CIRCLE
5
206
100
AcDbEntity
8
0
100
AcDbCircle
10
-49.24999999999973
20
-113.12500025058458
30
0
40
1.1250000000000004
210
1.5777218104420236e-30
220
-1.5407439555097883e-33
230
1
0
CIRCLE
5
207
100
AcDbEntity
8
0
100
AcDbCircle
10
-124.49999999999987
20
-136.62500025058469
30
0
40
1.1249999999999987
210
0
220
-0
230
1
0
LWPOLYLINE
5
208
100
AcDbEntity
8
0
100
AcDbPolyline
90
4
70
1
43
0.0
10
-64.749999999999915
20
-60.150000250585549
10
-64.749999999999915
20
-56.350000250585701
10
-74.749999999999957
20
-56.350000250585879
10
-74.749999999999929
20
-60.15000025058572
0
CIRCLE
5
209
100
AcDbEntity
8
0
100
AcDbCircle
10
-106.27499999999991
20
-34.750002944447246
30
0
40
1.1249999999999987
210
0
220
-0
230
1
0
CIRCLE
5
210
100
AcDbEntity
8
0
100
AcDbCircle
10
-128.84999999999991
20
-34.750002944447239
30
0
40
1.1250000000000075
210
1.5777218104420236e-30
220
2.5658541216889803e-49
230
1
0
CIRCLE
5
211
100
AcDbEntity
8
0
100
AcDbCircle
10
-37.849999999999824
20
-34.750000250584542
30
0
40
1.1250000000000009
210
1.577721810442024e-30
220
1.540743955509789e-33
230
1
0
CIRCLE
5
212
100
AcDbEntity
8
0
100
AcDbCircle
10
-124.49999999999987
20
-58.250000250585714
30
0
40
1.1249999999999987
210
0
220
-0
230
1
0
CIRCLE
5
213
100
AcDbEntity
8
0
100
AcDbCircle
10
-83.349999999999881
20
-34.750002944447246
30
0
40
1.1249999999999987
210
0
220
-0
230
1
0
CIRCLE
5
214
100
AcDbEntity
8
0
100
AcDbCircle
10
-60.899999999999856
20
-34.750002944447253
30
0
40
1.1250000000000009
210
1.577721810442024e-30
220
1.540743955509789e-33
230
1
0
CIRCLE
5
215
100
AcDbEntity
8
0
100
AcDbCircle
10
-14.999999999999986
20
-58.2500002505857
30
0
40
1.1249999999999987
210
0
220
-0
230
1
0
CIRCLE
5
216
100
AcDbEntity
8
0
100
AcDbCircle
10
-72.06874859652882
20
-34.750000250584549
30
0
40
1.0000000000000013
210
-1.0941429165122359e-50
220
-1.5407439555097887e-33
230
1
0
CIRCLE
5
217
100
AcDbEntity
8
0
100
AcDbCircle
10
-119.49999999999987
20
-34.750000250584542
30
0
40
0.99999999999999689
210
1.5777218104420236e-30
220
-1.5407439555097883e-33
230
1
0
CIRCLE
5
218
100
AcDbEntity
8
0
100
AcDbCircle
10
-11.999999999999989
20
-34.750000250584534
30
0
40
1.0000000000000013
210
-1.0941429165122359e-50
220
-1.5407439555097887e-33
230
1
0
CIRCLE
5
219
100
AcDbEntity
8
0
100
AcDbCircle
10
-2.9999999999999805
20
-73.474999580033753
30
0
40
0.750000000000002
210
-1.0941429165122356e-50
220
-1.5407439555097887e-33
230
1
0
CIRCLE
5
220
100
AcDbEntity
8
0
100
AcDbCircle
10
-129.49999999999989
20
-63.549998392081136
30
0
40
0.74999999999999312
210
-1.0941429165122356e-50
220
-1.5407439555097887e-33
230
1
0
LWPOLYLINE
5
221
100
AcDbEntity
8
0
100
AcDbPolyline
90
30
70
1
43
0.0
10
-124.49999999999989
20
-73.524998392081159
10
-137.49999999999795
20
-73.524998392081159
10
-137.49999999999989
20
-66.099996658869344
10
-134.49999999999986
20
-66.099996658869344
10
-134.49999999999986
20
-15.899996658868915
10
-137.49999999999989
20
-15.899996658868915
10
-137.49999999999989
20
-0.99999999999998113
10
-129.49999999999935
20
-0.99999999999997091
42
-0.41421356237309509
10
-124.49999999999933
20
-5.9999999999999716
10
-124.49999999999989
20
-19.750000250584542
42
0.41421356237309437
10
-119.49999999999987
20
-24.750000250584542
10
-19.999999999999979
20
-24.750000250584534
42
0.41421356237309531
10
-14.999999999999986
20
-19.750000250584534
10
-15.000000000000217
20
-5.9999999999999947
42
-0.41421356237309476
10
-10.000000000000227
20
-0.99999999999999978
10
-0.99999999999997868
20
-0.99999999999999867
10
-0.99999999999997702
20
-16.199999580033733
10
-4.9999999999999822
20
-16.199999580033733
10
-4.999999999999984
20
-30.899999580033722
10
-0.99999999999997868
20
-30.899999580033729
10
-0.99999999999997702
20
-51.199999580033776
10
-4.9999999999999822
20
-51.199999580033776
10
-4.999999999999984
20
-65.89999958003375
10
-0.99999999999997868
20
-65.89999958003375
10
-1.0000000000089471
20
-81.024999580033764
10
-14.999999999999986
20
-81.024999580033779
10
-14.999999999999984
20
-73.2500002505857
42
0.41421356237309687
10
-20
20
-68.2500002505857
10
-119.4999999999999
20
-68.2500002505857
42
0.41421356237309453
10
-124.49999999999989
20
-73.2500002505857
0
CIRCLE
5
222
100
AcDbEntity
8
0
100
AcDbCircle
10
-21.516534846993601
20
-75.572224978538216
30
6.2236415606449143e-15
40
0.749999999999994
210
1.5777218104420236e-30
220
-1.9924712539618465e-44
230
1
0
LWPOLYLINE
5
223
100
AcDbEntity
8
0
100
AcDbPolyline
90
9
70
1
43
0.0
10
-16.516534846993924
20
-100.59722497853832
10
-26.51653484699392
20
-100.59722497853821
10
-26.516534846993828
20
-93.022226586457023
10
-29.516534846993832
20
-93.022226711749965
10
-29.51653484699365
20
-78.122223245326339
10
-26.516534846993643
20
-78.122223245326381
10
-26.516534846993551
20
-70.597224978538179
10
-17.593568369231583
20
-70.597224978538279
42
0.33076025993113073
10
-16.516534846993565
20
-71.397226837042865
0
CIRCLE
5
224
100
AcDbEntity
8
0
100
AcDbCircle
10
-21.516534846993849
20
-95.572224978538273
30
5.9888558979264846e-15
40
0.749999999999994
210
1.5777218104420236e-30
220
-1.9924712539618465e-44
230
1
0
CIRCLE
5
225
100
AcDbEntity
8
0
100
AcDbCircle
10
-38.490826687345901
20
-75.522223464587782
30
-2.0708319686792049e-16
40
0.74999999999999245
210
-6.4950688172156467e-48
220
-1.0631133293017542e-31
230
1
0
CIRCLE
5
226
100
AcDbEntity
8
0
100
AcDbCircle
10
-38.490826687345887
20
-95.522223464587654
30
-4.4186885958407824e-16
40
0.74999999999999245
210
-6.4950688172156467e-48
220
-1.0631133293017542e-31
230
1
0
LWPOLYLINE
5
227
100
AcDbEntity
8
0
100
AcDbPolyline
90
8
70
1
43
0.0
10
-43.516534846993835
20
-100.54722346458762
10
-43.516534846993835
20
-70.547223464587773
10
-33.516534846993778
20
-70.547223464587773
10
-33.516534846993778
20
-78.122223245326296
10
-30.516534846993704
20
-78.122223245326325
10
-30.516534846993721
20
-92.922223683849097
10
-33.516534846993778
20
-92.922223683849097
10
-33.516534846993792
20
-100.54722346458762
0
CIRCLE
5
228
100
AcDbEntity
8
0
100
AcDbCircle
10
-52.78368121558475
20
-75.980735465893886
30
-9.4243065276620357e-16
40
0.75000000000000244
210
-1.5777218104420236e-30
220
1.3558546808486097e-31
230
1
0
CIRCLE
5
229
100
AcDbEntity
8
0
100
AcDbCircle
10
-52.783681215584757
20
-95.980735465893972
30
-1.1772163154825507e-15
40
0.75000000000000244
210
-1.5777218104420236e-30
220
1.3558546808486097e-31
230
1
0
LWPOLYLINE
5
230
100
AcDbEntity
8
0
100
AcDbPolyline
90
8
70
1
43
0.0
10
-57.783681215584764
20
-100.95573546589399
10
-57.783681215584778
20
-70.955735465893866
10
-47.783681215584721
20
-70.955735465893881
10
-47.783681215584721
20
-78.530734661934446
10
-44.783681215584707
20
-78.530734661934417
10
-44.783681215584707
20
-93.43073626985344
10
-47.783681215584792
20
-93.430736269853455
10
-47.783681215584792
20
-100.95573546589398
0
CIRCLE
5
231
100
AcDbEntity
8
0
100
AcDbCircle
10
-66.78368121558475
20
-75.980735465893886
30
8.9033704871547326e-16
40
0.75000000000000244
210
-1.5777218104420236e-30
220
1.3558546808486097e-31
230
1
0
CIRCLE
5
232
100
AcDbEntity
8
0
100
AcDbCircle
10
-66.783681215584764
20
-95.980735465893972
30
6.555513859992524e-16
40
0.75000000000000244
210
-1.5777218104420236e-30
220
1.3558546808486097e-31
230
1
0
LWPOLYLINE
5
233
100
AcDbEntity
8
0
100
AcDbPolyline
90
8
70
1
43
0.0
10
-71.783681215584764
20
-100.95573546589399
10
-71.783681215584778
20
-70.955735465893866
10
-61.783681215584721
20
-70.955735465893881
10
-61.783681215584721
20
-78.530734661934446
10
-58.783681215584707
20
-78.530734661934417
10
-58.783681215584707
20
-93.43073626985344
10
-61.783681215584792
20
-93.430736269853455
10
-61.783681215584792
20
-100.95573546589398
0
CIRCLE
5
234
100
AcDbEntity
8
0
100
AcDbCircle
10
-80.78368121558475
20
-75.980735465893886
30
2.7231047501974656e-15
40
0.75000000000000244
210
-1.5777218104420236e-30
220
1.3558546808486097e-31
230
1
0
CIRCLE
5
235
100
AcDbEntity
8
0
100
AcDbCircle
10
-80.783681215584764
20
-95.980735465893972
30
2.4883190874809923e-15
40
0.75000000000000244
210
-1.5777218104420236e-30
220
1.3558546808486097e-31
230
1
0
LWPOLYLINE
5
236
100
AcDbEntity
8
0
100
AcDbPolyline
90
8
70
1
43
0.0
10
-85.783681215584778
20
-100.95573546589399
10
-85.783681215584778
20
-70.955735465893866
10
-75.783681215584721
20
-70.955735465893881
10
-75.783681215584721
20
-78.530734661934446
10
-72.783681215584707
20
-78.530734661934417
10
-72.783681215584707
20
-93.43073626985344
10
-75.783681215584792
20
-93.430736269853455
10
-75.783681215584807
20
-100.95573546589398
0
CIRCLE
5
237
100
AcDbEntity
8
0
100
AcDbCircle
10
-94.78368121558475
20
-75.980735465893886
30
-4.3259117453220467e-15
40
0.75000000000000244
210
-1.5777218104420236e-30
220
1.3558546808486097e-31
230
1
0
CIRCLE
5
238
100
AcDbEntity
8
0
100
AcDbCircle
10
-94.783681215584764
20
-95.980735465893972
30
4.3210867889628585e-15
40
0.75000000000000244
210
-1.5777218104420236e-30
220
1.3558546808486097e-31
230
1
0
LWPOLYLINE
5
239
100
AcDbEntity
8
0
100
AcDbPolyline
90
8
70
1
43
0.0
10
-99.783681215584778
20
-100.95573546589399
10
-99.783681215584778
20
-70.955735465893866
10
-89.783681215584735
20
-70.955735465893881
10
-89.78368121558475
20
-78.530734661934446
10
-86.783681215584707
20
-78.530734661934417
10
-86.783681215584707
20
-93.43073626985344
10
-89.783681215584807
20
-93.430736269853455
10
-89.783681215584778
20
-100.95573546589398
0
CIRCLE
5
240
100
AcDbEntity
8
0
100
AcDbCircle
10
-108.78368121558475
20
-75.980735465893886
30
-2.4931440438401806e-15
40
0.75000000000000244
210
-1.5777218104420236e-30
220
1.3558546808486097e-31
230
1
0
CIRCLE
5
241
100
AcDbEntity
8
0
100
AcDbCircle
10
-108.78368121558478
20
-95.980735465893972
30
-2.7279297065566539e-15
40
0.75000000000000244
210
-1.5777218104420236e-30
220
1.3558546808486097e-31
230
1
0
LWPOLYLINE
5
242
100
AcDbEntity
8
0
100
AcDbPolyline
90
8
70
1
43
0.0
10
-113.78368121558479
20
-100.95573546589399
10
-113.78368121558479
20
-70.955735465893866
10
-103.78368121558474
20
-70.955735465893881
10
-103.78368121558475
20
-78.530734661934446
10
-100.78368121558471
20
-78.530734661934417
10
-100.78368121558471
20
-93.43073626985344
10
-103.78368121558481
20
-93.430736269853455
10
-103.78368121558481
20
-100.95573546589398
0
CIRCLE
5
243
100
AcDbEntity
8
0
100
AcDbCircle
10
-76.376720914706894
20
-160.30557796382979
30
-4.1109829720663981e-15
40
0.75000000000000056
210
-1.5777218104420243e-30
220
5.8548270309353359e-32
230
1
0
CIRCLE
5
244
100
AcDbEntity
8
0
100
AcDbCircle
10
-56.376720914706873
20
-160.30557796382959
30
2.1525616513895565e-15
40
0.75000000000000056
210
-1.5777218104420243e-30
220
5.8548270309353359e-32
230
1
0
LWPOLYLINE
5
245
100
AcDbEntity
8
0
100
AcDbPolyline
90
8
70
1
43
0.0
10
-51.401720914706779
20
-165.30557796382953
10
-81.401720914706829
20
-165.3055779638299
10
-81.401720914706956
20
-155.30557796382988
10
-73.826721718666391
20
-155.30557796382976
10
-73.826721718666448
20
-152.30557796382976
10
-58.926720110747475
20
-152.30557796382959
10
-58.926720110747439
20
-155.30557796382968
10
-51.401720914706921
20
-155.30557796382959
0
CIRCLE
5
246
100
AcDbEntity
8
0
100
AcDbCircle
10
-47.500000000000938
20
-206.87499999999929
30
0
40
1.1250000000000038
210
-1.1720749797321504e-46
220
1.2788174830731246e-31
230
1
0
LWPOLYLINE
5
247
100
AcDbEntity
8
0
100
AcDbPolyline
90
4
70
1
43
0.0
10
-104.10000000000088
20
-208.77499999999935
10
-93.900000000000887
20
-208.77499999999935
10
-93.90000000000083
20
-204.97499999999934
10
-104.1000000000008
20
-204.97499999999931
0
CIRCLE
5
248
100
AcDbEntity
8
0
100
AcDbCircle
10
-150.50000000000071
20
-206.87499999999937
30
0
40
1.1249999999999971
210
1.5777218104420234e-30
220
1.9721522630522795e-31
230
1
0
CIRCLE
5
249
100
AcDbEntity
8
0
100
AcDbCircle
10
-145.1500000000004
20
-183.37499999999963
30
0
40
1.0999999999999974
210
1.577721810442024e-30
220
2.311115933262182e-32
230
1
0
CIRCLE
5
250
100
AcDbEntity
8
0
100
AcDbCircle
10
-52.550000000000487
20
-183.37500269386229
30
0
40
1.0999999999999908
210
-8.6140450317664066e-47
220
9.3985381286097099e-32
230
1
0
CIRCLE
5
251
100
AcDbEntity
8
0
100
AcDbCircle
10
-75.450000000000472
20
-183.37500269386229
30
0
40
1.0999999999999908
210
-8.6140450317664066e-47
220
9.3985381286097099e-32
230
1
0
CIRCLE
5
252
100
AcDbEntity
8
0
100
AcDbCircle
10
-121.65000000000023
20
-183.37500269386231
30
0
40
1.0999999999999954
210
-4.2364155893933161e-47
220
4.6222318665293671e-32
230
1
0
CIRCLE
5
253
100
AcDbEntity
8
0
100
AcDbCircle
10
-98.550000000000296
20
-183.37500269386231
30
0
40
1.0999999999999999
210
-0
220
0
230
1
0
CIRCLE
5
254
100
AcDbEntity
8
0
100
AcDbCircle
10
-87.000000000000384
20
-183.37499999999955
30
0
40
0.99999999999999334
210
-4.801271001312424e-47
220
5.2385294487332815e-32
230
1
0
CIRCLE
5
255
100
AcDbEntity
8
0
100
AcDbCircle
10
-153.50000000000045
20
-183.37499999999963
30
0
40
0.99999999999999656
210
-1.2709246768179947e-47
220
1.3866695599588098e-32
230
1
0
CIRCLE
5
256
100
AcDbEntity
8
0
100
AcDbCircle
10
-44.500000000000512
20
-183.37499999999952
30
0
40
0.99999999999999334
210
-4.801271001312424e-47
220
5.2385294487332815e-32
230
1
0
CIRCLE
5
257
100
AcDbEntity
8
0
100
AcDbCircle
10
-162.50000000000099
20
-222.37500270000081
30
0
40
0.74999999999999789
210
-8.3316173258068529e-47
220
9.0903893375077532e-32
230
1
0
CIRCLE
5
258
100
AcDbEntity
8
0
100
AcDbCircle
10
-42.474291840353331
20
-227.12499978073765
30
0
40
0.74999999999999067
210
1.143832209136195e-46
220
-1.2480026039629288e-31
230
1
0
LWPOLYLINE
5
259
100
AcDbEntity
8
0
100
AcDbPolyline
90
32
70
1
43
0.0
10
-150.49999999999736
20
-229.8500027000008
10
-164.50000000000105
20
-229.8500027000008
10
-164.5000000000008
20
-214.7250027000008
10
-160.50000000000094
20
-214.7250027000008
10
-160.50000000000068
20
-200.02500270000087
10
-164.5000000000006
20
-200.02500270000087
10
-164.50000000000023
20
-179.72500270000091
10
-160.50000000000037
20
-179.72500270000091
10
-160.50000000000014
20
-165.02500270000095
10
-164.50000000000003
20
-165.02500270000095
10
-164.49999999999977
20
-149.62499999999974
10
-155.4999999999996
20
-149.6249999999998
42
-0.41421356237308149
10
-150.49999999999986
20
-154.62499999999977
10
-150.50000000000006
20
-168.37499999999955
42
0.41421356237309609
10
-145.50000000000014
20
-173.37499999999966
10
-52.500000000000341
20
-173.3749999999996
42
0.41421356237310231
10
-47.500000000000327
20
-168.3749999999996
10
-47.500000000000128
20
-154.62500000000031
42
-0.41421356237310542
10
-42.500000000000036
20
-149.62500000000026
10
-37.500000000000007
20
-149.62499999999966
10
-37.500000000000469
20
-179.72499665886829
10
-34.500000000000405
20
-179.72499665886826
10
-34.500000000000732
20
-199.52499665886879
10
-37.500000000000782
20
-199.52499665886882
10
-37.500000000001251
20
-229.72499956147624
10
-34.500000000001194
20
-229.72499956147624
10
-34.500000000002096
20
-237.09999978073762
10
-47.500000000001407
20
-237.09999978073756
10
-47.500000000001208
20
-223.87499999999935
42
0.41421356237309243
10
-52.500000000001137
20
-218.87499999999929
10
-145.50000000000099
20
-218.87499999999935
42
0.41421356237309398
10
-150.50000000000094
20
-223.87499999999935
0
CIRCLE
5
260
100
AcDbEntity
8
0
100
AcDbCircle
10
-55.420605099217745
20
-223.83342862016744
30
5.9186087318959968e-17
40
0.74999999999999289
210
5.6669293765730617e-48
220
1.1879135896980471e-30
230
1
0
CIRCLE
5
261
100
AcDbEntity
8
0
100
AcDbCircle
10
-55.420605099217745
20
-243.83342862016744
30
-3.6821697319179438e-17
40
0.74999999999999289
210
5.6669293765730617e-48
220
1.1879135896980471e-30
230
1
0
LWPOLYLINE
5
262
100
AcDbEntity
8
0
100
AcDbPolyline
90
9
70
1
43
0.0
10
-50.420605099217653
20
-219.58342750415241
10
-50.42060509921771
20
-248.80842862016752
10
-60.420605099217745
20
-248.80842862016752
10
-60.420605099217745
20
-241.20842706562954
10
-63.420605099217717
20
-241.20842706562954
10
-63.420605099217717
20
-226.45843017470531
10
-60.420605099217745
20
-226.45843017470531
10
-60.420605099217745
20
-218.80842862016752
10
-51.489774972899262
20
-218.80842862016752
42
0.32431071238351966
0
CIRCLE
5
263
100
AcDbEntity
8
0
100
AcDbCircle
10
-69.420605099217752
20
-223.83342862016744
30
-5.0936504293324037e-17
40
0.74999999999999289
210
5.6669293765730617e-48
220
1.1879135896980471e-30
230
1
0
CIRCLE
5
264
100
AcDbEntity
8
0
100
AcDbCircle
10
-69.420605099217752
20
-243.83342862016744
30
-8.166410853255767e-18
40
0.74999999999999289
210
5.6669293765730617e-48
220
1.1879135896980471e-30
230
1
0
LWPOLYLINE
5
265
100
AcDbEntity
8
0
100
AcDbPolyline
90
9
70
1
43
0.0
10
-64.420605099217653
20
-219.58342750415241
10
-64.42060509921771
20
-248.80842862016752
10
-74.420605099217752
20
-248.80842862016752
10
-74.420605099217752
20
-241.20842706562954
10
-77.420605099217724
20
-241.20842706562954
10
-77.420605099217724
20
-226.45843017470531
10
-74.420605099217752
20
-226.45843017470531
10
-74.420605099217752
20
-218.80842862016752
10
-65.489774972899269
20
-218.80842862016752
42
0.32431071238351966
0
CIRCLE
5
266
100
AcDbEntity
8
0
100
AcDbCircle
10
-83.420605099217767
20
-223.83342862016744
30
-2.2281217827463475e-17
40
0.74999999999999289
210
5.6669293765730617e-48
220
1.1879135896980471e-30
230
1
0
CIRCLE
5
267
100
AcDbEntity
8
0
100
AcDbCircle
10
-83.420605099217767
20
-243.83342862016744
30
2.0488875612604795e-17
40
0.74999999999999289
210
5.6669293765730617e-48
220
1.1879135896980471e-30
230
1
0
LWPOLYLINE
5
268
100
AcDbEntity
8
0
100
AcDbPolyline
90
9
70
1
43
0.0
10
-78.420605099217667
20
-219.58342750415241
10
-78.42060509921771
20
-248.80842862016752
10
-88.420605099217767
20
-248.80842862016752
10
-88.420605099217767
20
-241.20842706562954
10
-91.420605099217738
20
-241.20842706562954
10
-91.420605099217738
20
-226.45843017470531
10
-88.420605099217767
20
-226.45843017470531
10
-88.420605099217738
20
-218.80842862016752
10
-79.489774972899269
20
-218.80842862016752
42
0.32431071238351966
0
CIRCLE
5
269
100
AcDbEntity
8
0
100
AcDbCircle
10
-97.420605099217738
20
-223.83342862016744
30
6.3740686386495223e-18
40
0.74999999999999289
210
5.6669293765730617e-48
220
1.1879135896980471e-30
230
1
0
CIRCLE
5
270
100
AcDbEntity
8
0
100
AcDbCircle
10
-97.420605099217738
20
-243.83342862016744
30
4.9144162078717793e-17
40
0.74999999999999289
210
5.6669293765730617e-48
220
1.1879135896980471e-30
230
1
0
LWPOLYLINE
5
271
100
AcDbEntity
8
0
100
AcDbPolyline
90
9
70
1
43
0.0
10
-92.420605099217653
20
-219.58342750415241
10
-92.42060509921771
20
-248.80842862016752
10
-102.42060509921774
20
-248.80842862016752
10
-102.42060509921774
20
-241.20842706562954
10
-105.42060509921771
20
-241.20842706562954
10
-105.42060509921771
20
-226.45843017470531
10
-102.42060509921774
20
-226.45843017470531
10
-102.42060509921774
20
-218.80842862016752
10
-93.489774972899284
20
-218.80842862016752
42
0.3243107123835256
0
CIRCLE
5
272
100
AcDbEntity
8
0
100
AcDbCircle
10
-111.42060509921777
20
-223.83342862016744
30
3.5029355104383867e-17
40
0.74999999999999289
210
5.6669293765730617e-48
220
1.1879135896980471e-30
230
1
0
CIRCLE
5
273
100
AcDbEntity
8
0
100
AcDbCircle
10
-111.42060509921777
20
-243.83342862016744
30
-6.097842953369243e-17
40
0.74999999999999289
210
5.6669293765730617e-48
220
1.1879135896980471e-30
230
1
0
LWPOLYLINE
5
274
100
AcDbEntity
8
0
100
AcDbPolyline
90
9
70
1
43
0.0
10
-106.42060509921768
20
-219.58342750415241
10
-106.42060509921774
20
-248.80842862016752
10
-116.42060509921777
20
-248.80842862016752
10
-116.42060509921777
20
-241.20842706562954
10
-119.42060509921774
20
-241.20842706562954
10
-119.42060509921774
20
-226.45843017470531
10
-116.42060509921777
20
-226.45843017470531
10
-116.42060509921777
20
-218.80842862016752
10
-107.48977497289927
20
-218.80842862016752
42
0.32431071238351683
0
CIRCLE
5
275
100
AcDbEntity
8
0
100
AcDbCircle
10
-125.42060509921775
20
-223.83342862016744
30
6.3684641570496864e-17
40
0.74999999999999289
210
5.6669293765730617e-48
220
1.1879135896980471e-30
230
1
0
CIRCLE
5
276
100
AcDbEntity
8
0
100
AcDbCircle
10
-125.42060509921775
20
-243.83342862016744
30
-3.2323143067579433e-17
40
0.74999999999999289
210
5.6669293765730617e-48
220
1.1879135896980471e-30
230
1
0
LWPOLYLINE
5
277
100
AcDbEntity
8
0
100
AcDbPolyline
90
9
70
1
43
0.0
10
-120.42060509921767
20
-219.58342750415241
10
-120.42060509921771
20
-248.80842862016752
10
-130.42060509921777
20
-248.80842862016752
10
-130.42060509921777
20
-241.20842706562954
10
-133.42060509921771
20
-241.20842706562954
10
-133.42060509921771
20
-226.45843017470531
10
-130.42060509921777
20
-226.45843017470531
10
-130.42060509921777
20
-218.80842862016752
10
-121.48977497289928
20
-218.80842862016752
42
0.3243107123835256
0
CIRCLE
5
278
100
AcDbEntity
8
0
100
AcDbCircle
10
-253.64999999999901
20
-183.37500269386248
30
0
40
1.0500000000000105
210
1.5777218104420236e-30
220
2.3111159332648793e-32
230
1
0
CIRCLE
5
279
100
AcDbEntity
8
0
100
AcDbCircle
10
-207.44999999999931
20
-183.37500269386268
30
0
40
1.0500000000000105
210
1.5777218104420236e-30
220
2.3111159332648793e-32
230
1
0
CIRCLE
5
280
100
AcDbEntity
8
0
100
AcDbCircle
10
-184.54999999999933
20
-183.37500269386277
30
0
40
1.0500000000000105
210
1.5777218104420236e-30
220
2.3111159332648793e-32
230
1
0
CIRCLE
5
281
100
AcDbEntity
8
0
100
AcDbCircle
10
-276.34999999999906
20
-183.37500269386231
30
0
40
1.0500000000000105
210
1.5777218104420236e-30
220
2.3111159332648793e-32
230
1
0
CIRCLE
5
282
100
AcDbEntity
8
0
100
AcDbCircle
10
-230.54999999999922
20
-183.37500269386254
30
0
40
1.0500000000000105
210
1.5777218104420236e-30
220
2.3111159332648793e-32
230
1
0
CIRCLE
5
283
100
AcDbEntity
8
0
100
AcDbCircle
10
-299.27499999999895
20
-183.37500269386226
30
0
40
1.0500000000000105
210
1.5777218104420236e-30
220
2.3111159332648793e-32
230
1
0
CIRCLE
5
284
100
AcDbEntity
8
0
100
AcDbCircle
10
-321.84999999999889
20
-183.37500269386211
30
0
40
1.0500000000000105
210
1.5777218104420236e-30
220
2.3111159332648793e-32
230
1
0
LWPOLYLINE
5
285
100
AcDbEntity
8
0
100
AcDbPolyline
90
4
70
1
43
0.0
10
-243.49999999999926
20
-204.97499999999943
10
-253.49999999999923
20
-204.9749999999994
10
-253.4999999999992
20
-208.77499999999938
10
-243.49999999999923
20
-208.77499999999944
0
CIRCLE
5
286
100
AcDbEntity
8
0
100
AcDbCircle
10
-317.49999999999909
20
-206.87499999999909
30
0
40
1.1250000000000138
210
-2.3955879269027382e-46
220
-5.0844550531823027e-32
230
1
0
CIRCLE
5
287
100
AcDbEntity
8
0
100
AcDbCircle
10
-179.49999999999946
20
-206.87499999999972
30
0
40
1.1250000000000138
210
-2.3955879269027382e-46
220
-5.0844550531823027e-32
230
1
0
CIRCLE
5
288
100
AcDbEntity
8
0
100
AcDbCircle
10
-242.74396006553221
20
-183.37500269386251
30
0
40
1.0000000000000022
210
-2.6510551787344838e-46
220
-5.7007526353862181e-32
230
1
0
CIRCLE
5
289
100
AcDbEntity
8
0
100
AcDbCircle
10
-311.22783291736033
20
-183.3750026938622
30
0
40
1.0000000000000022
210
-2.6510551787344838e-46
220
-5.7007526353862181e-32
230
1
0
CIRCLE
5
290
100
AcDbEntity
8
0
100
AcDbCircle
10
-322.49999999999898
20
-212.25000111601412
30
0
40
0.74999999999999734
210
5.732011197263749e-47
220
1.2325951644078309e-32
230
1
0
CIRCLE
5
291
100
AcDbEntity
8
0
100
AcDbCircle
10
-174.49999999999943
20
-227.07499919604047
30
0
40
0.750000000000004
210
-1.577721810442024e-30
220
-9.090389337507959e-32
230
1
0
CIRCLE
5
292
100
AcDbEntity
8
0
100
AcDbCircle
10
-174.68334721754269
20
-183.37500269386283
30
0
40
1.0000000000000056
210
-4.3706585379136088e-46
220
-9.3985381286097121e-32
230
1
0
LWPOLYLINE
5
293
100
AcDbEntity
8
0
100
AcDbPolyline
90
27
70
1
43
0.0
10
-317.21990505019323
20
-222.22500111601431
10
-330.49999999999898
20
-222.22500111601423
10
-330.49999999999898
20
-214.87500267055199
10
-327.49999999999892
20
-214.87500267055199
10
-327.49999999999909
20
-164.37500267055171
10
-330.49999999999909
20
-164.37500267055171
10
-330.4999999999992
20
-149.62499999999906
10
-322.49999999999909
20
-149.62499999999912
42
-0.41421356237310025
10
-317.49999999999909
20
-154.62499999999918
10
-317.49999999999909
20
-168.37500269386209
42
0.41421356237309087
10
-312.49999999999915
20
-173.37500269386211
10
-184.49999999999955
20
-173.37500269386271
42
0.41421356237309293
10
-179.49999999999946
20
-168.37500269386268
10
-179.49999999999955
20
-154.6249999999998
42
-0.41421356237308876
10
-174.49999999999957
20
-149.6249999999998
10
-169.49999999999955
20
-149.6249999999998
10
-169.49999999999955
20
-179.7249966588688
10
-166.49999999999952
20
-179.72499665886875
10
-166.49999999999949
20
-199.52499665886947
10
-169.49999999999949
20
-199.5249966588695
10
-169.49999999999946
20
-229.62499839208107
10
-166.49999999999946
20
-229.62499839208104
10
-166.50000000000318
20
-237.04999919604057
10
-179.49999999999943
20
-237.04999919604049
10
-179.49999999999943
20
-223.87499999999983
42
0.41421356237309503
10
-184.49999999999943
20
-218.87499999999977
10
-312.49999999999898
20
-218.87499999999918
42
0.31881015208779384
0
CIRCLE
5
294
100
AcDbEntity
8
0
100
AcDbCircle
10
-194.8600768981982
20
-237.4619677279245
30
9.4856723740966877e-17
40
1
210
0
220
-0
230
1
0
CIRCLE
5
295
100
AcDbEntity
8
0
100
AcDbCircle
10
-194.8600768981982
20
-230.4619677279245
30
1.7703170569170729e-16
40
1
210
0
220
-0
230
1
0
CIRCLE
5
296
100
AcDbEntity
8
0
100
AcDbCircle
10
-194.8600768981982
20
-233.9619677279245
30
1.3594421471633708e-16
40
15
210
1.587642889371598e-64
220
1.540743955509789e-33
230
1
0
CIRCLE
5
297
100
AcDbEntity
8
0
100
AcDbCircle
10
-228.86007689819823
20
-237.46196772792439
30
1.0497190026744146e-16
40
1
210
0
220
-0
230
1
0
CIRCLE
5
298
100
AcDbEntity
8
0
100
AcDbCircle
10
-228.86007689819823
20
-230.46196772792433
30
1.8714688221818187e-16
40
1
210
0
220
-0
230
1
0
CIRCLE
5
299
100
AcDbEntity
8
0
100
AcDbCircle
10
-228.86007689819823
20
-233.96196772792436
30
1.4605939124281166e-16
40
15
210
1.587642889371598e-64
220
1.540743955509789e-33
230
1
0
CIRCLE
5
300
100
AcDbEntity
8
0
100
AcDbCircle
10
-262.8600768981982
20
-237.46196772792419
30
1.1508707679442091e-16
40
1
210
0
220
-0
230
1
0
CIRCLE
5
301
100
AcDbEntity
8
0
100
AcDbCircle
10
-262.8600768981982
20
-230.46196772792416
30
1.9726205874516132e-16
40
1
210
0
220
-0
230
1
0
CIRCLE
5
302
100
AcDbEntity
8
0
100
AcDbCircle
10
-262.8600768981982
20
-233.96196772792419
30
1.5617456776953868e-16
40
15
210
1.587642889371598e-64
220
1.540743955509789e-33
230
1
0
CIRCLE
5
303
100
AcDbEntity
8
0
100
AcDbCircle
10
-296.8600768981982
20
-237.46196772792405
30
1.2520225332114793e-16
40
1
210
0
220
-0
230
1
0
CIRCLE
5
304
100
AcDbEntity
8
0
100
AcDbCircle
10
-296.8600768981982
20
-230.46196772792402
30
2.0737723527188834e-16
40
1
210
0
220
-0
230
1
0
CIRCLE
5
305
100
AcDbEntity
8
0
100
AcDbCircle
10
-296.8600768981982
20
-233.96196772792405
30
1.662897442962657e-16
40
15
210
1.587642889371598e-64
220
1.540743955509789e-33
230
1
0
LWPOLYLINE
5
306
100
AcDbEntity
8
0
100
AcDbPolyline
90
29
70
1
43
0.0
10
-300.77392053778692
20
-73.99725351978816
10
-287.51100862766322
20
-73.997253519788217
42
0.08161279022554839
10
-287.77392053778698
20
-75.597252403773112
10
-287.77392053778698
20
-98.472252403773624
42
0.41421356237310231
10
-282.77392053778698
20
-103.47225240377368
10
-154.77392053778803
20
-103.47225240377414
42
0.41421356237309503
10
-149.77392053778806
20
-98.472252403774149
10
-149.77392053778806
20
-88.822251599814223
10
-136.77392053779187
20
-88.82225159981428
10
-136.77392053778814
20
-96.247252403773743
10
-139.7739205377882
20
-96.247252403773757
10
-139.77392053778806
20
-146.44725240377431
10
-136.77392053778806
20
-146.44725240377434
10
-136.77392053778803
20
-161.34725240377429
10
-144.77392053778794
20
-161.34725240377423
42
-0.41421356237310231
10
-149.77392053778794
20
-156.34725240377423
10
-149.77392053778794
20
-153.97225240377369
42
0.41421356237309609
10
-154.77392053778792
20
-148.97225240377369
10
-282.77392053778686
20
-148.97225240377321
42
0.41421356237310752
10
-287.77392053778681
20
-153.97225240377321
10
-287.77392053778686
20
-156.34725240377372
42
-0.41421356237309293
10
-292.77392053778681
20
-161.34725240377367
10
-297.77392053778681
20
-161.34725240377364
10
-297.77392053778686
20
-131.09724973322156
10
-300.77392053778686
20
-131.09724973322153
10
-300.77392053778692
20
-111.59724973322156
10
-297.77392053778692
20
-111.59724973322156
10
-297.77392053778698
20
-81.347251965250194
10
-300.77392053778692
20
-81.34725196525018
0
CIRCLE
5
307
100
AcDbEntity
8
0
100
AcDbCircle
10
-292.77392053778698
20
-83.972253519788111
30
0
40
0.74999999999999301
210
1.0395918797256893e-46
220
2.7733391199176196e-32
230
1
0
CIRCLE
5
308
100
AcDbEntity
8
0
100
AcDbCircle
10
-144.77392053778811
20
-113.47225240377411
30
0
40
1
210
5.7755104429204964e-48
220
1.5407439555097887e-33
230
1
0
CIRCLE
5
309
100
AcDbEntity
8
0
100
AcDbCircle
10
-236.33849118078547
20
-113.47225240377378
30
0
40
0.99999999999999656
210
1.5016327151593293e-46
220
4.0059342843254511e-32
230
1
0
CIRCLE
5
310
100
AcDbEntity
8
0
100
AcDbCircle
10
-292.77392053778692
20
-113.47225240377355
30
0
40
0.99999999999999656
210
1.5016327151593293e-46
220
4.0059342843254511e-32
230
1
0
CIRCLE
5
311
100
AcDbEntity
8
0
100
AcDbCircle
10
-144.77392053778811
20
-98.797251599814217
30
0
40
0.74999999999999967
210
1.5777218104420236e-30
220
-7.5496453819976482e-32
230
1
0
CIRCLE
5
312
100
AcDbEntity
8
0
100
AcDbCircle
10
-162.27392053778772
20
-113.47225240377412
30
0
40
1.0500000000000045
210
-1.577721810442024e-30
220
-5.392603844284568e-32
230
1
0
CIRCLE
5
313
100
AcDbEntity
8
0
100
AcDbCircle
10
-287.77392053778692
20
-136.97225240377318
30
0
40
1.1250000000000073
210
2.8175298242839354e-46
220
7.3955709864469857e-32
230
1
0
CIRCLE
5
314
100
AcDbEntity
8
0
100
AcDbCircle
10
-149.77392053778797
20
-136.97225240377372
30
0
40
1.1250000000000073
210
2.8175298242839354e-46
220
7.3955709864469857e-32
230
1
0
LWPOLYLINE
5
315
100
AcDbEntity
8
0
100
AcDbPolyline
90
4
70
1
43
0.0
10
-213.77392053778746
20
-135.07225240377346
10
-223.77392053778738
20
-135.07225240377343
10
-223.77392053778738
20
-138.87225240377344
10
-213.77392053778746
20
-138.87225240377347
0
CIRCLE
5
316
100
AcDbEntity
8
0
100
AcDbCircle
10
-189.27392053778749
20
-113.47225240377401
30
0
40
1.0500000000000045
210
-1.577721810442024e-30
220
-5.392603844284568e-32
230
1
0
CIRCLE
5
317
100
AcDbEntity
8
0
100
AcDbCircle
10
-216.27392053778752
20
-113.47225240377391
30
0
40
1.0500000000000045
210
-1.577721810442024e-30
220
-5.392603844284568e-32
230
1
0
CIRCLE
5
318
100
AcDbEntity
8
0
100
AcDbCircle
10
-255.77392053778698
20
-113.47225240377377
30
0
40
1.0500000000000045
210
-1.577721810442024e-30
220
-5.392603844284568e-32
230
1
0
CIRCLE
5
319
100
AcDbEntity
8
0
100
AcDbCircle
10
-283.27392053778675
20
-113.47225240377367
30
0
40
1.0500000000000045
210
-1.577721810442024e-30
220
-5.392603844284568e-32
230
1
0
CIRCLE
5
320
100
AcDbEntity
8
0
100
AcDbCircle
10
-264.47556476278612
20
-82.377937835913784
30
-6.0950388242839572e-15
40
1.100000000000001
210
5.0034155372925842e-48
220
-6.0089014264881759e-32
230
1
0
CIRCLE
5
321
100
AcDbEntity
8
0
100
AcDbCircle
10
-171.87556476278593
20
-82.377940529776509
30
4.8751508307814056e-15
40
1.0999999999999943
210
-8.9804894259097667e-49
220
1.0785207688568521e-32
230
1
0
CIRCLE
5
322
100
AcDbEntity
8
0
100
AcDbCircle
10
-194.77556476278602
20
-82.377940529776509
30
-1.2057063481057181e-16
40
1.0999999999999943
210
-8.9804894259097667e-49
220
1.0785207688568521e-32
230
1
0
CIRCLE
5
323
100
AcDbEntity
8
0
100
AcDbCircle
10
-240.97556476278589
20
-82.377940529776509
30
4.1512059406800681e-15
40
1.0999999999999985
210
1.577721810442024e-30
220
-3.697785493223708e-32
230
1
0
CIRCLE
5
324
100
AcDbEntity
8
0
100
AcDbCircle
10
-217.87556476278587
20
-82.377940529776509
30
-6.8664665440659993e-15
40
1.1000000000000032
210
1.5777218104420236e-30
220
-8.3200173597530735e-32
230
1
0
CIRCLE
5
325
100
AcDbEntity
8
0
100
AcDbCircle
10
-206.32556476278594
20
-82.377937835913784
30
5.3882656391868227e-15
40
0.99999999999999645
210
1.1931221665851544e-47
220
-1.4328918786241035e-31
230
1
0
CIRCLE
5
326
100
AcDbEntity
8
0
100
AcDbCircle
10
-272.8255647627862
20
-82.377937835913784
30
-8.1105482712800313e-15
40
0.99999999999999978
210
-1.5777218104420236e-30
220
-1.8334853070566271e-31
230
1
0
CIRCLE
5
327
100
AcDbEntity
8
0
100
AcDbCircle
10
-163.82556476278594
20
-82.37793783591377
30
4.2653986439033836e-15
40
0.99999999999999645
210
1.1931221665851544e-47
220
-1.4328918786241035e-31
230
1
0
LINE
5
328
100
AcDbEntity
8
0
100
AcDbLine
10
-283.82556476278614
20
-92.377940529776509
30
2.0938748281899415e-15
11
-153.82556476278614
21
-92.377940529776495
31
2.0938748281899415e-15
0
LINE
5
329
100
AcDbEntity
8
0
100
AcDbLine
10
-153.82556476278614
20
-92.377940529776495
30
2.0938748281899415e-15
11
-153.82556476278586
21
-78.727934494782517
31
2.8388859941466543e-15
0
LINE
5
330
100
AcDbEntity
8
0
100
AcDbLine
10
-153.82556476278586
20
-78.727934494782517
30
2.8388859941466543e-15
11
-156.82556476278594
21
-78.727934494782531
31
2.9991272797995212e-15
0
LINE
5
331
100
AcDbEntity
8
0
100
AcDbLine
10
-156.82556476278594
20
-78.727934494782531
30
2.9991272797995212e-15
11
-156.82556476278594
21
-72.377940529776509
31
-5.4899209811704255e-15
0
LINE
5
332
100
AcDbEntity
8
0
100
AcDbLine
10
-156.82556476278594
20
-72.377940529776509
30
-5.4899209811704255e-15
11
-171.82556476278603
21
-72.377940529776509
31
-5.4153766041045473e-15
0
LINE
5
333
100
AcDbEntity
8
0
100
AcDbLine
10
-171.82556476278603
20
-72.377937835913798
30
5.4300873046791083e-15
11
-264.82556476278603
21
-72.377937835913798
31
5.4300873046791083e-15
0
LINE
5
334
100
AcDbEntity
8
0
100
AcDbLine
10
-264.82556476278603
20
-72.377940529776509
30
8.7231170930403758e-15
11
-279.82556476278626
21
-72.377940529776509
31
8.7231170930403758e-15
0
LINE
5
335
100
AcDbEntity
8
0
100
AcDbLine
10
-279.82556476278626
20
-72.377940529776509
30
8.7231170930403758e-15
11
-279.82556476278626
21
-78.727940535915039
31
1.8050125761961558e-15
0
LINE
5
336
100
AcDbEntity
8
0
100
AcDbLine
10
-279.82556476278626
20
-78.727940535915039
30
1.8050125761961558e-15
11
-283.82556476278609
21
-78.727940535915039
31
1.7304681282118088e-15
0
LINE
5
337
100
AcDbEntity
8
0
100
AcDbLine
10
-283.82556476278609
20
-78.727940535915039
30
1.7304681282118088e-15
11
-283.82556476278614
21
-92.377940529776509
31
2.0938748281899415e-15
0
CIRCLE
5
338
100
AcDbEntity
8
0
100
AcDbCircle
10
-223.92392053778735
20
-35.097255097636534
30
0
40
1.0500000000000045
210
-1.577721810442024e-30
220
-5.392603844284568e-32
230
1
0
CIRCLE
5
339
100
AcDbEntity
8
0
100
AcDbCircle
10
-177.72392053778788
20
-35.097255097636705
30
0
40
1.0500000000000045
210
-1.577721810442024e-30
220
-5.392603844284568e-32
230
1
0
CIRCLE
5
340
100
AcDbEntity
8
0
100
AcDbCircle
10
-154.82392053778801
20
-35.097255097636776
30
0
40
1.0500000000000045
210
-1.577721810442024e-30
220
-5.392603844284568e-32
230
1
0
CIRCLE
5
341
100
AcDbEntity
8
0
100
AcDbCircle
10
-246.62392053778731
20
-35.097255097636442
30
0
40
1.0500000000000045
210
-1.577721810442024e-30
220
-5.392603844284568e-32
230
1
0
CIRCLE
5
342
100
AcDbEntity
8
0
100
AcDbCircle
10
-200.82392053778767
20
-35.097255097636619
30
0
40
1.0500000000000045
210
-1.577721810442024e-30
220
-5.392603844284568e-32
230
1
0
CIRCLE
5
343
100
AcDbEntity
8
0
100
AcDbCircle
10
-269.54892053778707
20
-35.097255097636349
30
0
40
1.0500000000000045
210
-1.577721810442024e-30
220
-5.392603844284568e-32
230
1
0
CIRCLE
5
344
100
AcDbEntity
8
0
100
AcDbCircle
10
-292.12392053778694
20
-35.097255097636278
30
0
40
1.0500000000000045
210
-1.577721810442024e-30
220
-5.392603844284568e-32
230
1
0
LWPOLYLINE
5
345
100
AcDbEntity
8
0
100
AcDbPolyline
90
4
70
1
43
0.0
10
-213.77392053778763
20
-56.697252403773376
10
-223.77392053778755
20
-56.697252403773334
10
-223.77392053778755
20
-60.497252403773331
10
-213.77392053778763
20
-60.497252403773359
0
CIRCLE
5
346
100
AcDbEntity
8
0
100
AcDbCircle
10
-287.77392053778703
20
-58.597252403773084
30
0
40
1.1250000000000073
210
2.8175298242839354e-46
220
7.3955709864469857e-32
230
1
0
CIRCLE
5
347
100
AcDbEntity
8
0
100
AcDbCircle
10
-149.77392053778811
20
-58.597252403773616
30
0
40
1.1250000000000073
210
2.8175298242839354e-46
220
7.3955709864469857e-32
230
1
0
CIRCLE
5
348
100
AcDbEntity
8
0
100
AcDbCircle
10
-213.01788060332061
20
-35.097255097636562
30
0
40
0.99999999999999656
210
1.5016327151593293e-46
220
4.0059342843254511e-32
230
1
0
CIRCLE
5
349
100
AcDbEntity
8
0
100
AcDbCircle
10
-281.50175345514845
20
-35.097255097636321
30
0
40
0.99999999999999656
210
1.5016327151593293e-46
220
4.0059342843254511e-32
230
1
0
CIRCLE
5
350
100
AcDbEntity
8
0
100
AcDbCircle
10
-292.77392053778703
20
-63.972253519788097
30
0
40
0.74999999999999301
210
1.0395918797256893e-46
220
2.7733391199176196e-32
230
1
0
CIRCLE
5
351
100
AcDbEntity
8
0
100
AcDbCircle
10
-144.77392053778811
20
-78.797251599814246
30
0
40
0.74999999999999967
210
1.5777218104420236e-30
220
-7.5496453819976482e-32
230
1
0
CIRCLE
5
352
100
AcDbEntity
8
0
100
AcDbCircle
10
-144.9572677553314
20
-35.097255097636832
30
0
40
1
210
5.7755104429204964e-48
220
1.5407439555097887e-33
230
1
0
LWPOLYLINE
5
353
100
AcDbEntity
8
0
100
AcDbPolyline
90
27
70
1
43
0.0
10
-287.49382558798118
20
-73.947253519788219
10
-300.77392053778692
20
-73.947253519788177
10
-300.77392053778692
20
-66.597255074325957
10
-297.77392053778698
20
-66.597255074325957
10
-297.77392053778709
20
-16.097255074325993
10
-300.77392053778709
20
-16.097255074325965
10
-300.77392053778715
20
-1.3472524037733946
10
-292.77392053778715
20
-1.3472524037734168
42
-0.41421356237310264
10
-287.77392053778715
20
-6.3472524037734406
10
-287.77392053778715
20
-20.097255097636282
42
0.41421356237309814
10
-282.77392053778721
20
-25.0972550976363
10
-154.7739205377882
20
-25.097255097636776
42
0.41421356237309553
10
-149.7739205377882
20
-20.097255097636797
10
-149.77392053778826
20
-6.3472524037739486
42
-0.41421356237309553
10
-144.77392053778829
20
-1.3472524037739741
10
-139.77392053778831
20
-1.3472524037740019
10
-139.77392053778826
20
-31.447249062642765
10
-136.77392053778826
20
-31.447249062642793
10
-136.77392053778823
20
-51.247249062643412
10
-139.77392053778823
20
-51.247249062643398
10
-139.77392053778817
20
-81.347250795854791
10
-136.77392053778817
20
-81.347250795854805
10
-136.77392053779187
20
-88.772251599814268
10
-149.77392053778806
20
-88.772251599814226
10
-149.77392053778809
20
-75.597252403773581
42
0.41421356237309659
10
-154.77392053778803
20
-70.597252403773581
10
-282.77392053778703
20
-70.597252403773098
42
0.31881015208779534
0
CIRCLE
5
354
100
AcDbEntity
8
0
100
AcDbCircle
10
-215.99305116241436
20
-13.605224313652295
30
-7.3490565842802498e-15
40
1.0000000000000087
210
-1.5777218104420212e-30
220
5.3926038442911027e-32
230
1
0
CIRCLE
5
355
100
AcDbEntity
8
0
100
AcDbCircle
10
-276.06179975894361
20
-13.605224313649471
30
-9.594804706055583e-17
40
1.0000000000000087
210
-1.5777218104420212e-30
220
5.3926038442911027e-32
230
1
0
CIRCLE
5
356
100
AcDbEntity
8
0
100
AcDbCircle
10
-160.56179975894287
20
-13.605224313654888
30
-1.8936052887773205e-15
40
1.0000000000000042
210
-1.5777218104420243e-30
220
-1.6948183510539253e-32
230
1
0
CIRCLE
5
357
100
AcDbEntity
8
0
100
AcDbCircle
10
-168.06179975894298
20
-13.605224313654533
30
3.529126649801822e-15
40
1.1250000000000069
210
1.577721810442025e-30
220
2.9274135154617568e-32
230
1
0
CIRCLE
5
358
100
AcDbEntity
8
0
100
AcDbCircle
10
-195.56179975894321
20
-13.605224313653236
30
-6.1934702320768104e-15
40
1.1250000000000069
210
1.577721810442025e-30
220
2.9274135154617568e-32
230
1
0
CIRCLE
5
359
100
AcDbEntity
8
0
100
AcDbCircle
10
-238.81179975894358
20
-13.605224313651211
30
6.129810993462865e-15
40
1.1250000000000084
210
1.5777218104420243e-30
220
1.0785207688500097e-32
230
1
0
LWPOLYLINE
5
360
100
AcDbEntity
8
0
100
AcDbPolyline
90
8
70
1
43
0.0
10
-287.06179975894327
20
-3.6052243136490008
10
-150.56179975894236
20
-3.6052243136554041
10
-150.56179975894287
20
-15.630224564240205
10
-153.56179975894293
20
-15.630224564240063
10
-153.56179975894324
20
-23.605224313655171
10
-283.06179975894406
20
-23.605224313649099
10
-283.06179975894378
20
-15.830224984199944
10
-287.06179975894383
20
-15.830224984199754
0
CIRCLE
5
361
100
AcDbEntity
8
0
100
AcDbCircle
10
-388.9239205377873
20
-35.097255097635895
30
0
40
1.0500000000000045
210
-1.577721810442024e-30
220
-5.392603844284568e-32
230
1
0
CIRCLE
5
362
100
AcDbEntity
8
0
100
AcDbCircle
10
-342.72392053778782
20
-35.097255097636065
30
0
40
1.0500000000000045
210
-1.577721810442024e-30
220
-5.392603844284568e-32
230
1
0
CIRCLE
5
363
100
AcDbEntity
8
0
100
AcDbCircle
10
-319.82392053778796
20
-35.097255097636136
30
0
40
1.0500000000000045
210
-1.577721810442024e-30
220
-5.392603844284568e-32
230
1
0
CIRCLE
5
364
100
AcDbEntity
8
0
100
AcDbCircle
10
-411.62392053778723
20
-35.097255097635802
30
0
40
1.0500000000000045
210
-1.577721810442024e-30
220
-5.392603844284568e-32
230
1
0
CIRCLE
5
365
100
AcDbEntity
8
0
100
AcDbCircle
10
-365.82392053778761
20
-35.09725509763598
30
0
40
1.0500000000000045
210
-1.577721810442024e-30
220
-5.392603844284568e-32
230
1
0
CIRCLE
5
366
100
AcDbEntity
8
0
100
AcDbCircle
10
-434.54892053778701
20
-35.09725509763571
30
0
40
1.0500000000000045
210
-1.577721810442024e-30
220
-5.392603844284568e-32
230
1
0
CIRCLE
5
367
100
AcDbEntity
8
0
100
AcDbCircle
10
-457.12392053778683
20
-35.097255097635639
30
0
40
1.0500000000000045
210
-1.577721810442024e-30
220
-5.392603844284568e-32
230
1
0
LWPOLYLINE
5
368
100
AcDbEntity
8
0
100
AcDbPolyline
90
4
70
1
43
0.0
10
-378.77392053778755
20
-56.697252403772737
10
-388.77392053778749
20
-56.697252403772694
10
-388.77392053778749
20
-60.497252403772691
10
-378.77392053778755
20
-60.49725240377272
0
CIRCLE
5
369
100
AcDbEntity
8
0
100
AcDbCircle
10
-452.77392053778698
20
-58.597252403772444
30
0
40
1.1250000000000073
210
2.8175298242839354e-46
220
7.3955709864469857e-32
230
1
0
CIRCLE
5
370
100
AcDbEntity
8
0
100
AcDbCircle
10
-314.77392053778806
20
-58.597252403772977
30
0
40
1.1250000000000073
210
2.8175298242839354e-46
220
7.3955709864469857e-32
230
1
0
CIRCLE
5
371
100
AcDbEntity
8
0
100
AcDbCircle
10
-378.01788060332058
20
-35.097255097635923
30
0
40
0.99999999999999656
210
1.5016327151593293e-46
220
4.0059342843254511e-32
230
1
0
CIRCLE
5
372
100
AcDbEntity
8
0
100
AcDbCircle
10
-446.50175345514839
20
-35.097255097635681
30
0
40
0.99999999999999656
210
1.5016327151593293e-46
220
4.0059342843254511e-32
230
1
0
CIRCLE
5
373
100
AcDbEntity
8
0
100
AcDbCircle
10
-457.77392053778698
20
-63.972253519787458
30
0
40
0.74999999999999301
210
1.0395918797256893e-46
220
2.7733391199176196e-32
230
1
0
CIRCLE
5
374
100
AcDbEntity
8
0
100
AcDbCircle
10
-309.77392053778806
20
-78.797251599813606
30
0
40
0.74999999999999967
210
1.5777218104420236e-30
220
-7.5496453819976482e-32
230
1
0
CIRCLE
5
375
100
AcDbEntity
8
0
100
AcDbCircle
10
-309.95726775533132
20
-35.097255097636193
30
0
40
1
210
5.7755104429204964e-48
220
1.5407439555097887e-33
230
1
0
LWPOLYLINE
5
376
100
AcDbEntity
8
0
100
AcDbPolyline
90
27
70
1
43
0.0
10
-452.49382558798112
20
-73.94725351978758
10
-465.77392053778681
20
-73.947253519787523
10
-465.77392053778686
20
-66.597255074325318
10
-462.77392053778692
20
-66.597255074325318
10
-462.77392053778698
20
-16.097255074325354
10
-465.77392053778709
20
-16.097255074325325
10
-465.77392053778703
20
-1.3472524037727551
10
-457.77392053778703
20
-1.3472524037727129
42
-0.41421356237310847
10
-452.77392053778703
20
-6.3472524037728011
10
-452.77392053778703
20
-20.097255097635678
42
0.41421356237311296
10
-447.77392053778715
20
-25.09725509763566
10
-319.77392053778817
20
-25.097255097636136
42
0.41421356237309814
10
-314.77392053778811
20
-20.097255097636157
10
-314.77392053778817
20
-6.3472524037733091
42
-0.41421356237309886
10
-309.77392053778823
20
-1.3472524037733347
10
-304.77392053778823
20
-1.3472524037733624
10
-304.77392053778817
20
-31.447249062642125
10
-301.77392053778823
20
-31.447249062642154
10
-301.77392053778817
20
-51.247249062642773
10
-304.77392053778817
20
-51.247249062642759
10
-304.77392053778806
20
-81.347250795854151
10
-301.77392053778811
20
-81.347250795854166
10
-301.77392053779181
20
-88.772251599813629
10
-314.773920537788
20
-88.772251599813586
10
-314.773920537788
20
-75.597252403772956
42
0.41421356237310231
10
-319.77392053778794
20
-70.597252403772927
10
-447.77392053778698
20
-70.597252403772458
42
0.31881015208778946
0
LWPOLYLINE
5
377
100
AcDbEntity
8
0
100
AcDbPolyline
90
6
70
1
43
0.0
10
-317.82614729114806
20
-23.494654459775962
10
-447.32614729114738
20
-23.494654459789608
10
-447.326147291148
20
-17.344655130340445
10
-451.326147291148
20
-17.344655130340875
10
-451.32614729114948
20
-3.4946544597901164
10
-317.82614729115016
20
-3.4946544597760365
0
CIRCLE
5
378
100
AcDbEntity
8
0
100
AcDbCircle
10
-440.32614729114846
20
-13.494654459788917
30
1.2980745972767427e-15
40
0.99999999999999711
210
-7.1445352733709184e-45
220
6.7792734042430702e-32
230
1
0
CIRCLE
5
379
100
AcDbEntity
8
0
100
AcDbCircle
10
-332.82614729114903
20
-13.494654459777584
30
5.477131849668637e-16
40
0.99999999999999267
210
-1.250293672839911e-44
220
1.1863728457425373e-31
230
1
0
CIRCLE
5
380
100
AcDbEntity
8
0
100
AcDbCircle
10
-380.25739869461984
20
-13.494654459782572
30
-5.9550339399485049e-15
40
0.99999999999999711
210
-7.1445352733709184e-45
220
6.7792734042430702e-32
230
1
0
CIRCLE
5
381
100
AcDbEntity
8
0
100
AcDbCircle
10
-391.42614729114877
20
-13.494651765921047
30
2.8900846488809438e-15
40
1.1249999999999962
210
1.5777218104420159e-30
220
7.3955709864634433e-32
230
1
0
CIRCLE
5
382
100
AcDbEntity
8
0
100
AcDbCircle
10
-368.97614729114883
20
-13.494651765918693
30
3.9479136162261194e-15
40
1.124999999999994
210
1.577721810442014e-30
220
9.5526125241771474e-32
230
1
0
CIRCLE
5
383
100
AcDbEntity
8
0
100
AcDbCircle
10
-414.47614729114878
20
-13.494654459786187
30
-3.4182676810832345e-15
40
1.1249999999999962
210
1.5777218104420159e-30
220
7.3955709864634433e-32
230
1
0
CIRCLE
5
384
100
AcDbEntity
8
0
100
AcDbCircle
10
-323.476147291149
20
-13.4946517659139
30
-6.4494735120921495e-15
40
1.1250000000000029
210
-4.8712740500256259e-46
220
4.622231866529366e-33
230
1
0
CIRCLE
5
385
100
AcDbEntity
8
0
100
AcDbCircle
10
-346.05114729114894
20
-13.494651765916272
30
-8.6011615067279912e-15
40
1.124999999999994
210
1.577721810442014e-30
220
9.5526125241771474e-32
230
1
0
CIRCLE
5
386
100
AcDbEntity
8
0
100
AcDbCircle
10
-384.02533333901994
20
-82.40540231782488
30
-4.2095745322907521e-15
40
0.99999999999999212
210
1.0049595309946539e-46
220
7.7037197775489434e-32
230
1
0
CIRCLE
5
387
100
AcDbEntity
8
0
100
AcDbCircle
10
-328.02533333902022
20
-82.405402317824979
30
6.2229230557822684e-15
40
0.99999999999999212
210
1.0049595309946539e-46
220
7.7037197775489434e-32
230
1
0
CIRCLE
5
388
100
AcDbEntity
8
0
100
AcDbCircle
10
-437.02533333901999
20
-82.405402317824837
30
-6.1530238593968551e-15
40
0.99999999999999534
210
4.8238057487743383e-47
220
3.6977854932234923e-32
230
1
0
CIRCLE
5
389
100
AcDbEntity
8
0
100
AcDbCircle
10
-370.52533333901999
20
-82.405402317824894
30
7.3457900510674745e-15
40
1.0999999999999985
210
1.5777218104420236e-30
220
-2.0029671421627034e-32
230
1
0
CIRCLE
5
390
100
AcDbEntity
8
0
100
AcDbCircle
10
-397.52533333901988
20
-82.405402317824866
30
1.9986292783535258e-15
40
1.0999999999999985
210
1.5777218104420236e-30
220
-2.0029671421627034e-32
230
1
0
CIRCLE
5
391
100
AcDbEntity
8
0
100
AcDbCircle
10
-343.52533333901999
20
-82.405402317824922
30
-5.0706175702205765e-15
40
1.0999999999999897
210
9.6476114975486766e-47
220
7.3955709864469857e-32
230
1
0
LWPOLYLINE
5
392
100
AcDbEntity
8
0
100
AcDbPolyline
90
6
70
1
43
0.0
10
-321.02533333902022
20
-92.405402317824823
10
-448.02533333901982
20
-92.405402317824667
10
-448.02533333901988
20
-80.380405017826064
10
-444.02533333901994
20
-80.380405017826064
10
-444.02533333901994
20
-72.405402317824965
10
-321.02533333902022
20
-72.405402317825121
0
LWPOLYLINE
5
393
100
AcDbEntity
8
0
100
AcDbPolyline
90
29
70
1
43
0.0
10
-465.77392053778686
20
-73.99725351978752
10
-452.51100862766316
20
-73.997253519787577
42
0.081612790225548751
10
-452.77392053778692
20
-75.597252403772472
10
-452.77392053778692
20
-98.472252403773012
42
0.41421356237309814
10
-447.77392053778692
20
-103.47225240377304
10
-319.77392053778794
20
-103.4722524037735
42
0.41421356237310336
10
-314.773920537788
20
-98.472252403773524
10
-314.773920537788
20
-88.822251599813583
10
-301.77392053779181
20
-88.822251599813626
10
-301.77392053778811
20
-96.247252403773103
10
-304.77392053778811
20
-96.247252403773132
10
-304.77392053778794
20
-146.44725240377366
10
-301.773920537788
20
-146.44725240377372
10
-301.77392053778794
20
-161.34725240377364
10
-309.77392053778794
20
-161.34725240377355
42
-0.41421356237310442
10
-314.77392053778783
20
-156.34725240377361
10
-314.77392053778789
20
-153.97225240377304
42
0.41421356237309709
10
-319.77392053778783
20
-148.97225240377307
10
-447.77392053778681
20
-148.97225240377256
42
0.41421356237310336
10
-452.77392053778675
20
-153.97225240377259
10
-452.77392053778681
20
-156.34725240377307
42
-0.41421356237310231
10
-457.77392053778669
20
-161.34725240377304
10
-462.77392053778675
20
-161.34725240377298
10
-462.77392053778675
20
-131.09724973322093
10
-465.77392053778675
20
-131.09724973322091
10
-465.77392053778686
20
-111.59724973322092
10
-462.77392053778681
20
-111.59724973322092
10
-462.77392053778681
20
-81.347251965249555
10
-465.77392053778681
20
-81.347251965249541
0
CIRCLE
5
394
100
AcDbEntity
8
0
100
AcDbCircle
10
-457.77392053778692
20
-83.972253519787472
30
0
40
0.74999999999999301
210
1.0395918797256893e-46
220
2.7733391199176196e-32
230
1
0
CIRCLE
5
395
100
AcDbEntity
8
0
100
AcDbCircle
10
-309.77392053778806
20
-113.47225240377347
30
0
40
1
210
5.7755104429204964e-48
220
1.5407439555097887e-33
230
1
0
CIRCLE
5
396
100
AcDbEntity
8
0
100
AcDbCircle
10
-401.33849118078547
20
-113.47225240377314
30
0
40
0.99999999999999656
210
1.5016327151593293e-46
220
4.0059342843254511e-32
230
1
0
CIRCLE
5
397
100
AcDbEntity
8
0
100
AcDbCircle
10
-457.77392053778681
20
-113.47225240377291
30
0
40
0.99999999999999656
210
1.5016327151593293e-46
220
4.0059342843254511e-32
230
1
0
CIRCLE
5
398
100
AcDbEntity
8
0
100
AcDbCircle
10
-309.77392053778806
20
-98.797251599813592
30
0
40
0.74999999999999967
210
1.5777218104420236e-30
220
-7.5496453819976482e-32
230
1
0
CIRCLE
5
399
100
AcDbEntity
8
0
100
AcDbCircle
10
-327.27392053778766
20
-113.47225240377348
30
0
40
1.0500000000000045
210
-1.577721810442024e-30
220
-5.392603844284568e-32
230
1
0
CIRCLE
5
400
100
AcDbEntity
8
0
100
AcDbCircle
10
-452.77392053778681
20
-136.97225240377253
30
0
40
1.1250000000000073
210
2.8175298242839354e-46
220
7.3955709864469857e-32
230
1
0
CIRCLE
5
401
100
AcDbEntity
8
0
100
AcDbCircle
10
-314.77392053778789
20
-136.97225240377307
30
0
40
1.1250000000000073
210
2.8175298242839354e-46
220
7.3955709864469857e-32
230
1
0
LWPOLYLINE
5
402
100
AcDbEntity
8
0
100
AcDbPolyline
90
4
70
1
43
0.0
10
-378.77392053778743
20
-135.07225240377284
10
-388.77392053778738
20
-135.07225240377278
10
-388.77392053778726
20
-138.87225240377279
10
-378.77392053778743
20
-138.87225240377285
0
CIRCLE
5
403
100
AcDbEntity
8
0
100
AcDbCircle
10
-354.27392053778738
20
-113.47225240377338
30
0
40
1.0500000000000045
210
-1.577721810442024e-30
220
-5.392603844284568e-32
230
1
0
CIRCLE
5
404
100
AcDbEntity
8
0
100
AcDbCircle
10
-381.27392053778743
20
-113.47225240377327
30
0
40
1.0500000000000045
210
-1.577721810442024e-30
220
-5.392603844284568e-32
230
1
0
CIRCLE
5
405
100
AcDbEntity
8
0
100
AcDbCircle
10
-420.77392053778692
20
-113.47225240377313
30
0
40
1.0500000000000045
210
-1.577721810442024e-30
220
-5.392603844284568e-32
230
1
0
CIRCLE
5
406
100
AcDbEntity
8
0
100
AcDbCircle
10
-448.27392053778669
20
-113.47225240377301
30
0
40
1.0500000000000045
210
-1.577721810442024e-30
220
-5.392603844284568e-32
230
1
0
CIRCLE
5
407
100
AcDbEntity
8
0
100
AcDbCircle
10
-418.65000000000009
20
-183.37500269386175
30
0
40
1.0500000000000105
210
1.5777218104420236e-30
220
2.3111159332648793e-32
230
1
0
CIRCLE
5
408
100
AcDbEntity
8
0
100
AcDbCircle
10
-372.45000000000033
20
-183.37500269386197
30
0
40
1.0500000000000105
210
1.5777218104420236e-30
220
2.3111159332648793e-32
230
1
0
CIRCLE
5
409
100
AcDbEntity
8
0
100
AcDbCircle
10
-349.55000000000041
20
-183.37500269386211
30
0
40
1.0500000000000105
210
1.5777218104420236e-30
220
2.3111159332648793e-32
230
1
0
CIRCLE
5
410
100
AcDbEntity
8
0
100
AcDbCircle
10
-441.35000000000002
20
-183.37500269386169
30
0
40
1.0500000000000105
210
1.5777218104420236e-30
220
2.3111159332648793e-32
230
1
0
CIRCLE
5
411
100
AcDbEntity
8
0
100
AcDbCircle
10
-395.5500000000003
20
-183.37500269386192
30
0
40
1.0500000000000105
210
1.5777218104420236e-30
220
2.3111159332648793e-32
230
1
0
CIRCLE
5
412
100
AcDbEntity
8
0
100
AcDbCircle
10
-464.27500000000003
20
-183.37500269386155
30
0
40
1.0500000000000105
210
1.5777218104420236e-30
220
2.3111159332648793e-32
230
1
0
CIRCLE
5
413
100
AcDbEntity
8
0
100
AcDbCircle
10
-486.84999999999997
20
-183.37500269386146
30
0
40
1.0500000000000105
210
1.5777218104420236e-30
220
2.3111159332648793e-32
230
1
0
LWPOLYLINE
5
414
100
AcDbEntity
8
0
100
AcDbPolyline
90
4
70
1
43
0.0
10
-408.50000000000023
20
-204.97499999999872
10
-418.50000000000023
20
-204.97499999999866
10
-418.50000000000028
20
-208.77499999999873
10
-408.50000000000028
20
-208.77499999999878
0
CIRCLE
5
415
100
AcDbEntity
8
0
100
AcDbCircle
10
-482.50000000000006
20
-206.87499999999841
30
0
40
1.1250000000000138
210
-2.3955879269027382e-46
220
-5.0844550531823027e-32
230
1
0
CIRCLE
5
416
100
AcDbEntity
8
0
100
AcDbCircle
10
-344.50000000000045
20
-206.87499999999903
30
0
40
1.1250000000000138
210
-2.3955879269027382e-46
220
-5.0844550531823027e-32
230
1
0
CIRCLE
5
417
100
AcDbEntity
8
0
100
AcDbCircle
10
-407.74396006553326
20
-183.37500269386183
30
0
40
1.0000000000000022
210
-2.6510551787344838e-46
220
-5.7007526353862181e-32
230
1
0
CIRCLE
5
418
100
AcDbEntity
8
0
100
AcDbCircle
10
-476.22783291736141
20
-183.37500269386152
30
0
40
1.0000000000000022
210
-2.6510551787344838e-46
220
-5.7007526353862181e-32
230
1
0
CIRCLE
5
419
100
AcDbEntity
8
0
100
AcDbCircle
10
-487.50000000000006
20
-212.25000111601344
30
0
40
0.74999999999999734
210
5.732011197263749e-47
220
1.2325951644078309e-32
230
1
0
CIRCLE
5
420
100
AcDbEntity
8
0
100
AcDbCircle
10
-339.50000000000045
20
-227.07499919603978
30
0
40
0.750000000000004
210
-1.577721810442024e-30
220
-9.090389337507959e-32
230
1
0
CIRCLE
5
421
100
AcDbEntity
8
0
100
AcDbCircle
10
-339.68334721754377
20
-183.37500269386214
30
0
40
1.0000000000000056
210
-4.3706585379136088e-46
220
-9.3985381286097121e-32
230
1
0
LWPOLYLINE
5
422
100
AcDbEntity
8
0
100
AcDbPolyline
90
27
70
1
43
0.0
10
-482.2199050501942
20
-222.22500111601363
10
-495.5
20
-222.22500111601357
10
-495.5
20
-214.87500267055134
10
-492.5
20
-214.87500267055134
10
-492.50000000000006
20
-164.37500267055105
10
-495.50000000000011
20
-164.37500267055103
10
-495.50000000000017
20
-149.62499999999838
10
-487.50000000000011
20
-149.62499999999841
42
-0.41421356237309814
10
-482.50000000000011
20
-154.62499999999847
10
-482.50000000000011
20
-168.3750026938614
42
0.41421356237310542
10
-477.50000000000011
20
-173.37500269386143
10
-349.50000000000051
20
-173.37500269386203
42
0.41421356237309503
10
-344.50000000000051
20
-168.375002693862
10
-344.50000000000057
20
-154.62499999999912
42
-0.41421356237309709
10
-339.50000000000057
20
-149.62499999999912
10
-334.50000000000057
20
-149.62499999999915
10
-334.50000000000051
20
-179.72499665886806
10
-331.50000000000045
20
-179.72499665886812
10
-331.50000000000057
20
-199.52499665886879
10
-334.50000000000051
20
-199.52499665886879
10
-334.50000000000045
20
-229.62499839208036
10
-331.50000000000045
20
-229.62499839208036
10
-331.50000000000421
20
-237.04999919603992
10
-344.50000000000045
20
-237.04999919603983
10
-344.50000000000045
20
-223.87499999999909
42
0.41421356237310542
10
-349.50000000000045
20
-218.87499999999909
10
-477.5
20
-218.87499999999852
42
0.31881015208779195
0
CIRCLE
5
423
100
AcDbEntity
8
0
100
AcDbCircle
10
-355.27044212960186
20
-234.24088595610127
30
-2.7603559383095039e-16
40
0.75000000000000011
210
1.5777218104420236e-30
220
1.4352263562236755e-65
230
1
0
CIRCLE
5
424
100
AcDbEntity
8
0
100
AcDbCircle
10
-360.27044212960186
20
-229.24088595610127
30
-1.1789079707810169e-16
40
0.75000000000000011
210
1.5777218104420236e-30
220
1.4352263562236755e-65
230
1
0
CIRCLE
5
425
100
AcDbEntity
8
0
100
AcDbCircle
10
-365.27044212960186
20
-234.24088595610127
30
-7.7138831683237203e-17
40
0.74999999999999956
210
0
220
-0
230
1
0
CIRCLE
5
426
100
AcDbEntity
8
0
100
AcDbCircle
10
-360.27044212960186
20
-239.24088595610127
30
-2.352836284360859e-16
40
0.75000000000000011
210
1.5777218104420236e-30
220
1.4352263562236755e-65
230
1
0
CIRCLE
5
427
100
AcDbEntity
8
0
100
AcDbCircle
10
-360.27044212960186
20
-234.24088595610127
30
-1.7658721275684136e-16
40
15
210
1.587642889371598e-64
220
1.540743955509789e-33
230
1
0
CIRCLE
5
428
100
AcDbEntity
8
0
100
AcDbCircle
10
-395.27044212960186
20
-234.24088595610107
30
-3.5560057553180781e-17
40
15
210
1.587642889371598e-64
220
1.540743955509789e-33
230
1
0
CIRCLE
5
429
100
AcDbEntity
8
0
100
AcDbCircle
10
-425.27044212960186
20
-234.24088595610095
30
6.0187165773805116e-18
40
0.75000000000000011
210
1.5777218104420236e-30
220
1.4352263562236755e-65
230
1
0
CIRCLE
5
430
100
AcDbEntity
8
0
100
AcDbCircle
10
-430.27044212960186
20
-229.24088595610095
30
1.6416351332972434e-16
40
0.75000000000000011
210
1.5777218104420236e-30
220
1.4352263562236755e-65
230
1
0
CIRCLE
5
431
100
AcDbEntity
8
0
100
AcDbCircle
10
-435.27044212960186
20
-234.24088595610095
30
2.0491547872458883e-16
40
0.74999999999999956
210
0
220
-0
230
1
0
CIRCLE
5
432
100
AcDbEntity
8
0
100
AcDbCircle
10
-430.27044212960186
20
-239.24088595610095
30
4.6770681971740127e-17
40
0.75000000000000011
210
1.5777218104420236e-30
220
1.4352263562236755e-65
230
1
0
CIRCLE
5
433
100
AcDbEntity
8
0
100
AcDbCircle
10
-430.27044212960186
20
-234.24088595610095
30
1.0546709765098467e-16
40
15
210
1.587642889371598e-64
220
1.540743955509789e-33
230
1
0
CIRCLE
5
434
100
AcDbEntity
8
0
100
AcDbCircle
10
-390.27044212960186
20
-234.24088595610107
30
-1.3500843862678494e-16
40
0.75000000000000011
210
1.5777218104420236e-30
220
1.4352263562236755e-65
230
1
0
CIRCLE
5
435
100
AcDbEntity
8
0
100
AcDbCircle
10
-395.27044212960186
20
-229.24088595610107
30
2.313635812555889e-17
40
0.75000000000000011
210
1.5777218104420236e-30
220
1.4352263562236755e-65
230
1
0
CIRCLE
5
436
100
AcDbEntity
8
0
100
AcDbCircle
10
-400.27044212960186
20
-234.24088595610107
30
6.3888323520928248e-17
40
0.74999999999999956
210
0
220
-0
230
1
0
CIRCLE
5
437
100
AcDbEntity
8
0
100
AcDbCircle
10
-395.27044212960186
20
-239.24088595610107
30
-9.4256473232425324e-17
40
0.75000000000000011
210
1.5777218104420236e-30
220
1.4352263562236755e-65
230
1
0
CIRCLE
5
438
100
AcDbEntity
8
0
100
AcDbCircle
10
-395.27044212960186
20
-234.24088595610107
30
-3.5560057553180781e-17
40
15
210
1.587642889371598e-64
220
1.540743955509789e-33
230
1
0
CIRCLE
5
439
100
AcDbEntity
8
0
100
AcDbCircle
10
-460.27044212960186
20
-234.24088595610075
30
1.4704587178104109e-16
40
0.75000000000000011
210
1.5777218104420236e-30
220
1.4352263562236755e-65
230
1
0
CIRCLE
5
440
100
AcDbEntity
8
0
100
AcDbCircle
10
-465.27044212960186
20
-229.24088595610075
30
-2.4992084377868848e-16
40
0.75000000000000011
210
1.5777218104420236e-30
220
1.4352263562236755e-65
230
1
0
CIRCLE
5
441
100
AcDbEntity
8
0
100
AcDbCircle
10
-470.27044212960186
20
-234.24088595610075
30
-2.0916887838382399e-16
40
0.74999999999999956
210
0
220
-0
230
1
0
CIRCLE
5
442
100
AcDbEntity
8
0
100
AcDbCircle
10
-465.27044212960186
20
-239.24088595610075
30
1.8779783717590558e-16
40
0.75000000000000011
210
1.5777218104420236e-30
220
1.4352263562236755e-65
230
1
0
CIRCLE
5
443
100
AcDbEntity
8
0
100
AcDbCircle
10
-465.27044212960186
20
-234.24088595610075
30
2.4649425285515012e-16
40
15
210
1.587642889371598e-64
220
1.540743955509789e-33
230
1
0
LWPOLYLINE
5
444
100
AcDbEntity
8
0
100
AcDbPolyline
90
29
70
1
43
0.0
10
-495.5
20
-222.27500111601356
10
-482.23708808987624
20
-222.27500111601361
42
0.081612790225543672
10
-482.5
20
-223.87499999999849
10
-482.5
20
-246.74999999999923
42
0.4142135623730992
10
-477.50000000000006
20
-251.74999999999923
10
-349.50000000000045
20
-251.74999999999983
42
0.41421356237309709
10
-344.50000000000045
20
-246.74999999999983
10
-344.50000000000045
20
-237.09999919603979
10
-331.50000000000426
20
-237.0999991960399
10
-331.50000000000045
20
-244.52499999999941
10
-334.50000000000051
20
-244.52499999999941
10
-334.5000000000004
20
-294.72500000000025
10
-331.5000000000004
20
-294.72500000000025
10
-331.5000000000004
20
-309.62500000000028
10
-339.50000000000034
20
-309.62500000000023
42
-0.41421356237309709
10
-344.5000000000004
20
-304.62500000000023
10
-344.5000000000004
20
-302.24999999999966
42
0.41421356237310336
10
-349.5000000000004
20
-297.2499999999996
10
-477.49999999999994
20
-297.24999999999903
42
0.41421356237310125
10
-482.49999999999994
20
-302.24999999999903
10
-482.49999999999994
20
-304.62499999999955
42
-0.4142135623730992
10
-487.49999999999989
20
-309.62499999999955
10
-492.49999999999989
20
-309.62499999999955
10
-492.49999999999994
20
-279.3749973294473
10
-495.5
20
-279.37499732944724
10
-495.50000000000006
20
-259.87499732944718
10
-492.49999999999994
20
-259.87499732944718
10
-492.5
20
-229.62499956147559
10
-495.5
20
-229.62499956147565
0
CIRCLE
5
445
100
AcDbEntity
8
0
100
AcDbCircle
10
-487.50000000000006
20
-232.25000111601358
30
0
40
0.74999999999999734
210
5.732011197263749e-47
220
1.2325951644078309e-32
230
1
0
CIRCLE
5
446
100
AcDbEntity
8
0
100
AcDbCircle
10
-339.50000000000045
20
-261.74999999999989
30
0
40
1.0000000000000056
210
-4.3706585379136088e-46
220
-9.3985381286097121e-32
230
1
0
CIRCLE
5
447
100
AcDbEntity
8
0
100
AcDbCircle
10
-431.06457064299832
20
-261.74999999999943
30
0
40
1.0000000000000022
210
-2.6510551787344838e-46
220
-5.7007526353862181e-32
230
1
0
CIRCLE
5
448
100
AcDbEntity
8
0
100
AcDbCircle
10
-487.5
20
-261.74999999999915
30
0
40
1.0000000000000022
210
-2.6510551787344838e-46
220
-5.7007526353862181e-32
230
1
0
CIRCLE
5
449
100
AcDbEntity
8
0
100
AcDbCircle
10
-339.50000000000045
20
-247.0749991960399
30
0
40
0.750000000000004
210
-1.577721810442024e-30
220
-9.090389337507959e-32
230
1
0
CIRCLE
5
450
100
AcDbEntity
8
0
100
AcDbCircle
10
-357.00000000000017
20
-261.74999999999989
30
0
40
1.0500000000000105
210
1.5777218104420236e-30
220
2.3111159332648793e-32
230
1
0
CIRCLE
5
451
100
AcDbEntity
8
0
100
AcDbCircle
10
-482.5
20
-285.24999999999892
30
0
40
1.1250000000000138
210
-2.3955879269027382e-46
220
-5.0844550531823027e-32
230
1
0
CIRCLE
5
452
100
AcDbEntity
8
0
100
AcDbCircle
10
-344.5000000000004
20
-285.2499999999996
30
0
40
1.1250000000000138
210
-2.3955879269027382e-46
220
-5.0844550531823027e-32
230
1
0
LWPOLYLINE
5
453
100
AcDbEntity
8
0
100
AcDbPolyline
90
4
70
1
43
0.0
10
-408.50000000000017
20
-283.34999999999928
10
-418.50000000000017
20
-283.34999999999923
10
-418.50000000000017
20
-287.14999999999924
10
-408.50000000000017
20
-287.1499999999993
0
CIRCLE
5
454
100
AcDbEntity
8
0
100
AcDbCircle
10
-384.00000000000006
20
-261.74999999999972
30
0
40
1.0500000000000105
210
1.5777218104420236e-30
220
2.3111159332648793e-32
230
1
0
CIRCLE
5
455
100
AcDbEntity
8
0
100
AcDbCircle
10
-411.00000000000023
20
-261.7499999999996
30
0
40
1.0500000000000105
210
1.5777218104420236e-30
220
2.3111159332648793e-32
230
1
0
CIRCLE
5
456
100
AcDbEntity
8
0
100
AcDbCircle
10
-450.49999999999989
20
-261.74999999999943
30
0
40
1.0500000000000105
210
1.5777218104420236e-30
220
2.3111159332648793e-32
230
1
0
CIRCLE
5
457
100
AcDbEntity
8
0
100
AcDbCircle
10
-477.99999999999983
20
-261.74999999999926
30
0
40
1.0500000000000105
210
1.5777218104420236e-30
220
2.3111159332648793e-32
230
1
0
LWPOLYLINE
5
458
100
AcDbEntity
8
0
100
AcDbPolyline
90
6
70
1
43
0.0
10
-487.17292463668508
20
-310.74043375805883
10
-329.17292463668548
20
-310.74043375805883
10
-329.17292463668537
20
-317.09042772306475
10
-326.17292463668548
20
-317.09042772306481
10
-326.17292463668548
20
-330.74043375805888
10
-487.17292463668508
20
-330.74043375805888
0
CIRCLE
5
459
100
AcDbEntity
8
0
100
AcDbCircle
10
-413.322924636685
20
-320.74043375805888
30
0
40
1.0500000000000052
210
1.5777218104420236e-30
220
-1.1047134161005183e-30
230
1
0
CIRCLE
5
460
100
AcDbEntity
8
0
100
AcDbCircle
10
-367.12292463668524
20
-320.74043375805888
30
0
40
1.0500000000000052
210
1.5777218104420236e-30
220
-1.1047134161005183e-30
230
1
0
CIRCLE
5
461
100
AcDbEntity
8
0
100
AcDbCircle
10
-344.22292463668526
20
-320.74043375805888
30
0
40
1.0500000000000052
210
1.5777218104420236e-30
220
-1.1047134161005183e-30
230
1
0
CIRCLE
5
462
100
AcDbEntity
8
0
100
AcDbCircle
10
-436.02292463668505
20
-320.74043375805888
30
0
40
1.0500000000000052
210
1.5777218104420236e-30
220
-1.1047134161005183e-30
230
1
0
CIRCLE
5
463
100
AcDbEntity
8
0
100
AcDbCircle
10
-390.22292463668521
20
-320.74043375805888
30
0
40
1.0500000000000052
210
1.5777218104420236e-30
220
-1.1047134161005183e-30
230
1
0
CIRCLE
5
464
100
AcDbEntity
8
0
100
AcDbCircle
10
-458.94792463668495
20
-320.74043375805888
30
0
40
1.0500000000000052
210
1.5777218104420236e-30
220
-1.1047134161005183e-30
230
1
0
CIRCLE
5
465
100
AcDbEntity
8
0
100
AcDbCircle
10
-481.52292463668488
20
-320.74043375805888
30
0
40
1.0500000000000052
210
1.5777218104420236e-30
220
-1.1047134161005183e-30
230
1
0
CIRCLE
5
466
100
AcDbEntity
8
0
100
AcDbCircle
10
-402.41688470221817
20
-320.74043375805888
30
0
40
0.99999999999999711
210
-1.7961914319468421e-46
220
1.9629077993194711e-30
230
1
0
CIRCLE
5
467
100
AcDbEntity
8
0
100
AcDbCircle
10
-470.90075755404632
20
-320.74043375805888
30
0
40
0.99999999999999711
210
-1.7961914319468421e-46
220
1.9629077993194711e-30
230
1
0
CIRCLE
5
468
100
AcDbEntity
8
0
100
AcDbCircle
10
-334.35627185422857
20
-320.74043375805888
30
0
40
1.0000000000000007
210
1.5777218104420236e-30
220
1.9243892004317264e-30
230
1
0
CIRCLE
5
469
100
AcDbEntity
8
0
100
AcDbCircle
10
-469.67292463668457
20
-341.74043375805877
30
0
40
1.0500000000000034
210
2.6992753310248125e-47
220
-2.2648936145993894e-31
230
1
0
CIRCLE
5
470
100
AcDbEntity
8
0
100
AcDbCircle
10
-442.17292463668468
20
-341.74043375805877
30
0
40
1.0500000000000034
210
2.6992753310248125e-47
220
-2.2648936145993894e-31
230
1
0
CIRCLE
5
471
100
AcDbEntity
8
0
100
AcDbCircle
10
-402.67292463668502
20
-341.74043375805877
30
0
40
1.0500000000000034
210
2.6992753310248125e-47
220
-2.2648936145993894e-31
230
1
0
CIRCLE
5
472
100
AcDbEntity
8
0
100
AcDbCircle
10
-375.67292463668491
20
-341.74043375805877
30
0
40
1.0500000000000034
210
2.6992753310248125e-47
220
-2.2648936145993894e-31
230
1
0
CIRCLE
5
473
100
AcDbEntity
8
0
100
AcDbCircle
10
-348.67292463668497
20
-341.74043375805877
30
0
40
1.0500000000000034
210
2.6992753310248125e-47
220
-2.2648936145993894e-31
230
1
0
CIRCLE
5
474
100
AcDbEntity
8
0
100
AcDbCircle
10
-479.17292463668474
20
-341.74043375805877
30
0
40
0.99999999999999556
210
1.695601932082521e-47
220
-9.398538128609711e-32
230
1
0
CIRCLE
5
475
100
AcDbEntity
8
0
100
AcDbCircle
10
-422.73749527968312
20
-341.74043375805877
30
0
40
0.99999999999999556
210
1.695601932082521e-47
220
-9.398538128609711e-32
230
1
0
CIRCLE
5
476
100
AcDbEntity
8
0
100
AcDbCircle
10
-331.17292463668537
20
-341.74043375805871
30
0
40
0.99999999999999889
210
1.577721810442024e-30
220
-1.3404472412935127e-31
230
1
0
LWPOLYLINE
5
477
100
AcDbEntity
8
0
100
AcDbPolyline
90
6
70
1
43
0.0
10
-326.17292463668537
20
-351.74043375805888
10
-487.17292463668468
20
-351.74043375805888
10
-487.1729246366848
20
-339.86543108750681
10
-484.17292463668474
20
-339.86543108750681
10
-484.17292463668474
20
-331.74043375805877
10
-326.17292463668542
20
-331.74043375805877
0
LWPOLYLINE
5
478
100
AcDbEntity
8
0
100
AcDbPolyline
90
6
70
1
43
0.0
10
-486.64614217661671
20
-358.40371240497188
10
-328.64614217661688
20
-358.403712404972
10
-328.64614217661682
20
-364.75370636997798
10
-325.64614217661693
20
-364.75370636997798
10
-325.64614217661688
20
-378.403712404972
10
-486.64614217661671
20
-378.40371240497188
0
CIRCLE
5
479
100
AcDbEntity
8
0
100
AcDbCircle
10
-412.79614217661663
20
-368.403712404972
30
0
40
1.050000000000006
210
-6.5721522166654844e-46
220
-1.488358661022456e-30
230
1
0
CIRCLE
5
480
100
AcDbEntity
8
0
100
AcDbCircle
10
-366.59614217661675
20
-368.403712404972
30
0
40
1.050000000000006
210
-6.5721522166654844e-46
220
-1.488358661022456e-30
230
1
0
CIRCLE
5
481
100
AcDbEntity
8
0
100
AcDbCircle
10
-343.69614217661677
20
-368.403712404972
30
0
40
1.050000000000006
210
-6.5721522166654844e-46
220
-1.488358661022456e-30
230
1
0
CIRCLE
5
482
100
AcDbEntity
8
0
100
AcDbCircle
10
-435.49614217661662
20
-368.40371240497188
30
0
40
1.050000000000006
210
-6.5721522166654844e-46
220
-1.488358661022456e-30
230
1
0
CIRCLE
5
483
100
AcDbEntity
8
0
100
AcDbCircle
10
-389.69614217661672
20
-368.403712404972
30
0
40
1.050000000000006
210
-6.5721522166654844e-46
220
-1.488358661022456e-30
230
1
0
CIRCLE
5
484
100
AcDbEntity
8
0
100
AcDbCircle
10
-458.42114217661663
20
-368.40371240497188
30
0
40
1.050000000000006
210
-6.5721522166654844e-46
220
-1.488358661022456e-30
230
1
0
CIRCLE
5
485
100
AcDbEntity
8
0
100
AcDbCircle
10
-480.99614217661656
20
-368.40371240497188
30
0
40
1.050000000000006
210
-6.5721522166654844e-46
220
-1.488358661022456e-30
230
1
0
CIRCLE
5
486
100
AcDbEntity
8
0
100
AcDbCircle
10
-401.89010224214974
20
-368.403712404972
30
0
40
0.99999999999999822
210
6.7214620110280434e-46
220
1.7672333169697276e-30
230
1
0
CIRCLE
5
487
100
AcDbEntity
8
0
100
AcDbCircle
10
-470.373975093978
20
-368.40371240497188
30
0
40
0.99999999999999822
210
6.7214620110280434e-46
220
1.7672333169697276e-30
230
1
0
CIRCLE
5
488
100
AcDbEntity
8
0
100
AcDbCircle
10
-333.82948939416002
20
-368.403712404972
30
0
40
1.0000000000000016
210
1.5777218104420243e-30
220
1.7271739741264728e-30
230
1
0
LWPOLYLINE
5
489
100
AcDbEntity
8
0
100
AcDbPolyline
90
6
70
1
43
0.0
10
-648.67303743118725
20
-358.21212123965012
10
-490.67303743118748
20
-358.21212123965012
10
-490.67303743118748
20
-364.5621152046561
10
-487.67303743118754
20
-364.56211520465604
10
-487.67303743118748
20
-378.21212123965012
10
-648.67303743118725
20
-378.21212123965012
0
CIRCLE
5
490
100
AcDbEntity
8
0
100
AcDbCircle
10
-574.82303743118712
20
-368.21212123965012
30
0
40
1.0500000000000043
210
-2.1934765073378766e-46
220
-1.3373657533824966e-30
230
1
0
CIRCLE
5
491
100
AcDbEntity
8
0
100
AcDbCircle
10
-528.62303743118741
20
-368.21212123965012
30
0
40
1.0500000000000043
210
-2.1934765073378766e-46
220
-1.3373657533824966e-30
230
1
0
CIRCLE
5
492
100
AcDbEntity
8
0
100
AcDbCircle
10
-505.72303743118738
20
-368.21212123965012
30
0
40
1.0500000000000043
210
-2.1934765073378766e-46
220
-1.3373657533824966e-30
230
1
0
CIRCLE
5
493
100
AcDbEntity
8
0
100
AcDbCircle
10
-597.52303743118728
20
-368.21212123965012
30
0
40
1.0500000000000043
210
-2.1934765073378766e-46
220
-1.3373657533824966e-30
230
1
0
CIRCLE
5
494
100
AcDbEntity
8
0
100
AcDbCircle
10
-551.72303743118732
20
-368.21212123965012
30
0
40
1.0500000000000043
210
-2.1934765073378766e-46
220
-1.3373657533824966e-30
230
1
0
CIRCLE
5
495
100
AcDbEntity
8
0
100
AcDbCircle
10
-620.44803743118712
20
-368.21212123965012
30
0
40
1.0500000000000043
210
-2.1934765073378766e-46
220
-1.3373657533824966e-30
230
1
0
CIRCLE
5
496
100
AcDbEntity
8
0
100
AcDbCircle
10
-643.02303743118716
20
-368.21212123965012
30
0
40
1.0500000000000043
210
-2.1934765073378766e-46
220
-1.3373657533824966e-30
230
1
0
CIRCLE
5
497
100
AcDbEntity
8
0
100
AcDbCircle
10
-563.91699749672034
20
-368.21212123965012
30
0
40
0.99999999999999645
210
1.7783975008893427e-46
220
1.7302554620374927e-30
230
1
0
CIRCLE
5
498
100
AcDbEntity
8
0
100
AcDbCircle
10
-632.40087034854855
20
-368.21212123965012
30
0
40
0.99999999999999645
210
1.7783975008893427e-46
220
1.7302554620374927e-30
230
1
0
CIRCLE
5
499
100
AcDbEntity
8
0
100
AcDbCircle
10
-495.85638464873068
20
-368.21212123965012
30
0
40
0.99999999999999978
210
1.7372235605303732e-46
220
1.6901961191942382e-30
230
1
0
CIRCLE
5
500
100
AcDbEntity
8
0
100
AcDbCircle
10
-631.67292463668366
20
-341.74043375805866
30
0
40
1.0500000000000034
210
2.6992753310248125e-47
220
-2.2648936145993894e-31
230
1
0
CIRCLE
5
501
100
AcDbEntity
8
0
100
AcDbCircle
10
-604.17292463668377
20
-341.7404337580586
30
0
40
1.0500000000000034
210
2.6992753310248125e-47
220
-2.2648936145993894e-31
230
1
0
CIRCLE
5
502
100
AcDbEntity
8
0
100
AcDbCircle
10
-564.67292463668412
20
-341.7404337580586
30
0
40
1.0500000000000034
210
2.6992753310248125e-47
220
-2.2648936145993894e-31
230
1
0
CIRCLE
5
503
100
AcDbEntity
8
0
100
AcDbCircle
10
-537.672924636684
20
-341.74043375805866
30
0
40
1.0500000000000034
210
2.6992753310248125e-47
220
-2.2648936145993894e-31
230
1
0
CIRCLE
5
504
100
AcDbEntity
8
0
100
AcDbCircle
10
-510.67292463668412
20
-341.7404337580586
30
0
40
1.0500000000000034
210
2.6992753310248125e-47
220
-2.2648936145993894e-31
230
1
0
CIRCLE
5
505
100
AcDbEntity
8
0
100
AcDbCircle
10
-641.17292463668389
20
-341.74043375805854
30
0
40
0.99999999999999556
210
1.695601932082521e-47
220
-9.398538128609711e-32
230
1
0
CIRCLE
5
506
100
AcDbEntity
8
0
100
AcDbCircle
10
-584.73749527968221
20
-341.7404337580586
30
0
40
0.99999999999999556
210
1.695601932082521e-47
220
-9.398538128609711e-32
230
1
0
CIRCLE
5
507
100
AcDbEntity
8
0
100
AcDbCircle
10
-493.17292463668446
20
-341.74043375805854
30
0
40
0.99999999999999889
210
1.577721810442024e-30
220
-1.3404472412935127e-31
230
1
0
LWPOLYLINE
5
508
100
AcDbEntity
8
0
100
AcDbPolyline
90
6
70
1
43
0.0
10
-488.17292463668451
20
-351.74043375805866
10
-649.17292463668389
20
-351.74043375805866
10
-649.17292463668377
20
-339.86543108750658
10
-646.17292463668377
20
-339.86543108750658
10
-646.17292463668377
20
-331.74043375805866
10
-488.17292463668451
20
-331.7404337580586
0
LWPOLYLINE
5
509
100
AcDbEntity
8
0
100
AcDbPolyline
90
6
70
1
43
0.0
10
-649.17292463668423
20
-310.74043375805866
10
-491.17292463668457
20
-310.74043375805866
10
-491.17292463668446
20
-317.09042772306464
10
-488.17292463668457
20
-317.09042772306464
10
-488.17292463668457
20
-330.74043375805871
10
-649.17292463668423
20
-330.74043375805871
0
CIRCLE
5
510
100
AcDbEntity
8
0
100
AcDbCircle
10
-575.32292463668409
20
-320.74043375805871
30
0
40
1.0500000000000052
210
1.5777218104420236e-30
220
-1.1047134161005183e-30
230
1
0
CIRCLE
5
511
100
AcDbEntity
8
0
100
AcDbCircle
10
-529.12292463668439
20
-320.74043375805871
30
0
40
1.0500000000000052
210
1.5777218104420236e-30
220
-1.1047134161005183e-30
230
1
0
CIRCLE
5
512
100
AcDbEntity
8
0
100
AcDbCircle
10
-506.22292463668435
20
-320.74043375805871
30
0
40
1.0500000000000052
210
1.5777218104420236e-30
220
-1.1047134161005183e-30
230
1
0
CIRCLE
5
513
100
AcDbEntity
8
0
100
AcDbCircle
10
-598.02292463668414
20
-320.74043375805871
30
0
40
1.0500000000000052
210
1.5777218104420236e-30
220
-1.1047134161005183e-30
230
1
0
CIRCLE
5
514
100
AcDbEntity
8
0
100
AcDbCircle
10
-552.2229246366843
20
-320.74043375805871
30
0
40
1.0500000000000052
210
1.5777218104420236e-30
220
-1.1047134161005183e-30
230
1
0
CIRCLE
5
515
100
AcDbEntity
8
0
100
AcDbCircle
10
-620.94792463668409
20
-320.74043375805871
30
0
40
1.0500000000000052
210
1.5777218104420236e-30
220
-1.1047134161005183e-30
230
1
0
CIRCLE
5
516
100
AcDbEntity
8
0
100
AcDbCircle
10
-643.52292463668402
20
-320.74043375805871
30
0
40
1.0500000000000052
210
1.5777218104420236e-30
220
-1.1047134161005183e-30
230
1
0
CIRCLE
5
517
100
AcDbEntity
8
0
100
AcDbCircle
10
-564.41688470221732
20
-320.74043375805871
30
0
40
0.99999999999999711
210
-1.7961914319468421e-46
220
1.9629077993194711e-30
230
1
0
CIRCLE
5
518
100
AcDbEntity
8
0
100
AcDbCircle
10
-632.90075755404541
20
-320.74043375805871
30
0
40
0.99999999999999711
210
-1.7961914319468421e-46
220
1.9629077993194711e-30
230
1
0
CIRCLE
5
519
100
AcDbEntity
8
0
100
AcDbCircle
10
-496.35627185422771
20
-320.74043375805871
30
0
40
1.0000000000000007
210
1.5777218104420236e-30
220
1.9243892004317264e-30
230
1
0
LWPOLYLINE
5
520
100
AcDbEntity
8
0
100
AcDbPolyline
90
29
70
1
43
0.0
10
-660.50000000000193
20
-222.27500111601279
10
-647.23708808987817
20
-222.27500111601287
42
0.081612790225462042
10
-647.50000000000205
20
-223.87499999999775
10
-647.50000000000205
20
-246.74999999999844
42
0.41421356237310336
10
-642.50000000000182
20
-251.74999999999847
10
-514.50000000000239
20
-251.74999999999909
42
0.41421356237310125
10
-509.50000000000239
20
-246.74999999999909
10
-509.50000000000239
20
-237.09999919603911
10
-496.50000000000614
20
-237.09999919603914
10
-496.50000000000239
20
-244.52499999999867
10
-499.50000000000244
20
-244.52499999999867
10
-499.50000000000227
20
-294.72499999999957
10
-496.50000000000233
20
-294.72499999999951
10
-496.50000000000233
20
-309.62499999999955
10
-504.50000000000227
20
-309.62499999999955
42
-0.4142135623730992
10
-509.50000000000227
20
-304.62499999999943
10
-509.50000000000227
20
-302.24999999999892
42
0.41421356237310542
10
-514.50000000000227
20
-297.24999999999886
10
-642.50000000000182
20
-297.24999999999829
42
0.41421356237309709
10
-647.50000000000182
20
-302.24999999999829
10
-647.50000000000182
20
-304.62499999999881
42
-0.41421356237309709
10
-652.50000000000182
20
-309.62499999999881
10
-657.50000000000182
20
-309.62499999999875
10
-657.50000000000182
20
-279.37499732944656
10
-660.50000000000193
20
-279.3749973294465
10
-660.50000000000182
20
-259.87499732944639
10
-657.50000000000205
20
-259.87499732944644
10
-657.50000000000182
20
-229.62499956147485
10
-660.50000000000182
20
-229.62499956147485
0
CIRCLE
5
521
100
AcDbEntity
8
0
100
AcDbCircle
10
-652.50000000000205
20
-232.25000111601281
30
0
40
0.74999999999999734
210
5.732011197263749e-47
220
1.2325951644078309e-32
230
1
0
CIRCLE
5
522
100
AcDbEntity
8
0
100
AcDbCircle
10
-504.50000000000239
20
-261.74999999999909
30
0
40
1.0000000000000056
210
-4.3706585379136088e-46
220
-9.3985381286097121e-32
230
1
0
CIRCLE
5
523
100
AcDbEntity
8
0
100
AcDbCircle
10
-596.06457064300025
20
-261.74999999999869
30
0
40
1.0000000000000022
210
-2.6510551787344838e-46
220
-5.7007526353862181e-32
230
1
0
CIRCLE
5
524
100
AcDbEntity
8
0
100
AcDbCircle
10
-652.50000000000205
20
-261.74999999999841
30
0
40
1.0000000000000022
210
-2.6510551787344838e-46
220
-5.7007526353862181e-32
230
1
0
CIRCLE
5
525
100
AcDbEntity
8
0
100
AcDbCircle
10
-504.50000000000239
20
-247.07499919603916
30
0
40
0.750000000000004
210
-1.577721810442024e-30
220
-9.090389337507959e-32
230
1
0
CIRCLE
5
526
100
AcDbEntity
8
0
100
AcDbCircle
10
-522.00000000000205
20
-261.74999999999909
30
0
40
1.0500000000000105
210
1.5777218104420236e-30
220
2.3111159332648793e-32
230
1
0
CIRCLE
5
527
100
AcDbEntity
8
0
100
AcDbCircle
10
-647.50000000000182
20
-285.24999999999818
30
0
40
1.1250000000000138
210
-2.3955879269027382e-46
220
-5.0844550531823027e-32
230
1
0
CIRCLE
5
528
100
AcDbEntity
8
0
100
AcDbCircle
10
-509.50000000000227
20
-285.24999999999886
30
0
40
1.1250000000000138
210
-2.3955879269027382e-46
220
-5.0844550531823027e-32
230
1
0
LWPOLYLINE
5
529
100
AcDbEntity
8
0
100
AcDbPolyline
90
4
70
1
43
0.0
10
-573.50000000000205
20
-283.34999999999854
10
-583.50000000000205
20
-283.34999999999849
10
-583.50000000000205
20
-287.1499999999985
10
-573.50000000000205
20
-287.14999999999856
0
CIRCLE
5
530
100
AcDbEntity
8
0
100
AcDbCircle
10
-549.00000000000193
20
-261.74999999999898
30
0
40
1.0500000000000105
210
1.5777218104420236e-30
220
2.3111159332648793e-32
230
1
0
CIRCLE
5
531
100
AcDbEntity
8
0
100
AcDbCircle
10
-576.00000000000216
20
-261.74999999999886
30
0
40
1.0500000000000105
210
1.5777218104420236e-30
220
2.3111159332648793e-32
230
1
0
CIRCLE
5
532
100
AcDbEntity
8
0
100
AcDbCircle
10
-615.50000000000182
20
-261.74999999999864
30
0
40
1.0500000000000105
210
1.5777218104420236e-30
220
2.3111159332648793e-32
230
1
0
CIRCLE
5
533
100
AcDbEntity
8
0
100
AcDbCircle
10
-643.00000000000171
20
-261.74999999999852
30
0
40
1.0500000000000105
210
1.5777218104420236e-30
220
2.3111159332648793e-32
230
1
0
CIRCLE
5
534
100
AcDbEntity
8
0
100
AcDbCircle
10
-521.56455645466974
20
-234.68809637067761
30
2.5546420431441878e-18
40
0.75000000000000011
210
1.5777218104420236e-30
220
1.4352263562236755e-65
230
1
0
CIRCLE
5
535
100
AcDbEntity
8
0
100
AcDbCircle
10
-526.56455645466974
20
-229.68809637067761
30
1.6069943879599289e-16
40
0.75000000000000011
210
1.5777218104420236e-30
220
1.4352263562236755e-65
230
1
0
CIRCLE
5
536
100
AcDbEntity
8
0
100
AcDbCircle
10
-531.56455645466974
20
-234.68809637067761
30
2.014514041903525e-16
40
0.74999999999999956
210
0
220
-0
230
1
0
CIRCLE
5
537
100
AcDbEntity
8
0
100
AcDbCircle
10
-526.56455645466974
20
-239.68809637067761
30
4.3306607438513545e-17
40
0.75000000000000011
210
1.5777218104420236e-30
220
1.4352263562236755e-65
230
1
0
CIRCLE
5
538
100
AcDbEntity
8
0
100
AcDbCircle
10
-526.56455645466974
20
-234.68809637067761
30
1.0200302311725322e-16
40
15
210
1.587642889371598e-64
220
1.540743955509789e-33
230
1
0
CIRCLE
5
539
100
AcDbEntity
8
0
100
AcDbCircle
10
-556.56455645466974
20
-234.68809637067747
30
1.4358179724730964e-16
40
0.75000000000000011
210
1.5777218104420236e-30
220
1.4352263562236755e-65
230
1
0
CIRCLE
5
540
100
AcDbEntity
8
0
100
AcDbCircle
10
-561.56455645466974
20
-229.68809637067747
30
-2.5338491831342967e-16
40
0.75000000000000011
210
1.5777218104420236e-30
220
1.4352263562236755e-65
230
1
0
CIRCLE
5
541
100
AcDbEntity
8
0
100
AcDbCircle
10
-566.56455645466974
20
-234.68809637067747
30
-2.1263295291806031e-16
40
0.74999999999999956
210
0
220
-0
230
1
0
CIRCLE
5
542
100
AcDbEntity
8
0
100
AcDbCircle
10
-561.56455645466974
20
-239.68809637067747
30
1.8433376264166925e-16
40
0.75000000000000011
210
1.5777218104420236e-30
220
1.4352263562236755e-65
230
1
0
CIRCLE
5
543
100
AcDbEntity
8
0
100
AcDbCircle
10
-561.56455645466974
20
-234.68809637067747
30
2.4303017832040893e-16
40
15
210
1.587642889371598e-64
220
1.540743955509789e-33
230
1
0
CIRCLE
5
544
100
AcDbEntity
8
0
100
AcDbCircle
10
-591.56455645466974
20
-234.68809637067727
30
-2.7050255986110318e-16
40
0.75000000000000011
210
1.5777218104420236e-30
220
1.4352263562236755e-65
230
1
0
CIRCLE
5
545
100
AcDbEntity
8
0
100
AcDbCircle
10
-596.56455645466974
20
-229.68809637067727
30
-1.1235776310926422e-16
40
0.75000000000000011
210
1.5777218104420236e-30
220
1.4352263562236755e-65
230
1
0
CIRCLE
5
546
100
AcDbEntity
8
0
100
AcDbCircle
10
-601.56455645466974
20
-234.68809637067727
30
-7.1605797713894863e-17
40
0.74999999999999956
210
0
220
-0
230
1
0
CIRCLE
5
547
100
AcDbEntity
8
0
100
AcDbCircle
10
-596.56455645466974
20
-239.68809637067727
30
-2.2975059446674356e-16
40
0.75000000000000011
210
1.5777218104420236e-30
220
1.4352263562236755e-65
230
1
0
CIRCLE
5
548
100
AcDbEntity
8
0
100
AcDbCircle
10
-596.56455645466974
20
-234.68809637067727
30
-1.7105417878800389e-16
40
15
210
1.587642889371598e-64
220
1.540743955509789e-33
230
1
0
CIRCLE
5
549
100
AcDbEntity
8
0
100
AcDbCircle
10
-631.56455645466974
20
-234.68809637067716
30
-3.0027023583838441e-17
40
15
210
1.587642889371598e-64
220
1.540743955509789e-33
230
1
0
CIRCLE
5
550
100
AcDbEntity
8
0
100
AcDbCircle
10
-626.56455645466974
20
-234.68809637067716
30
-1.2947540465794747e-16
40
0.75000000000000011
210
1.5777218104420236e-30
220
1.4352263562236755e-65
230
1
0
CIRCLE
5
551
100
AcDbEntity
8
0
100
AcDbCircle
10
-631.56455645466974
20
-229.68809637067716
30
2.8669392094901231e-17
40
0.75000000000000011
210
1.5777218104420236e-30
220
1.4352263562236755e-65
230
1
0
CIRCLE
5
552
100
AcDbEntity
8
0
100
AcDbCircle
10
-636.56455645466974
20
-234.68809637067716
30
6.9421357490270588e-17
40
0.74999999999999956
210
0
220
-0
230
1
0
CIRCLE
5
553
100
AcDbEntity
8
0
100
AcDbCircle
10
-631.56455645466974
20
-239.68809637067716
30
-8.8723439262578113e-17
40
0.75000000000000011
210
1.5777218104420236e-30
220
1.4352263562236755e-65
230
1
0
CIRCLE
5
554
100
AcDbEntity
8
0
100
AcDbCircle
10
-631.56455645466974
20
-234.68809637067716
30
-3.0027023583838441e-17
40
15
210
1.587642889371598e-64
220
1.540743955509789e-33
230
1
0
CIRCLE
5
555
100
AcDbEntity
8
0
100
AcDbCircle
10
-583.65000000000191
20
-183.37500269386106
30
0
40
1.0500000000000105
210
1.5777218104420236e-30
220
2.3111159332648793e-32
230
1
0
CIRCLE
5
556
100
AcDbEntity
8
0
100
AcDbCircle
10
-537.45000000000221
20
-183.37500269386126
30
0
40
1.0500000000000105
210
1.5777218104420236e-30
220
2.3111159332648793e-32
230
1
0
CIRCLE
5
557
100
AcDbEntity
8
0
100
AcDbCircle
10
-514.55000000000223
20
-183.37500269386135
30
0
40
1.0500000000000105
210
1.5777218104420236e-30
220
2.3111159332648793e-32
230
1
0
CIRCLE
5
558
100
AcDbEntity
8
0
100
AcDbCircle
10
-606.35000000000207
20
-183.37500269386089
30
0
40
1.0500000000000105
210
1.5777218104420236e-30
220
2.3111159332648793e-32
230
1
0
CIRCLE
5
559
100
AcDbEntity
8
0
100
AcDbCircle
10
-560.55000000000223
20
-183.37500269386112
30
0
40
1.0500000000000105
210
1.5777218104420236e-30
220
2.3111159332648793e-32
230
1
0
CIRCLE
5
560
100
AcDbEntity
8
0
100
AcDbCircle
10
-629.27500000000191
20
-183.37500269386084
30
0
40
1.0500000000000105
210
1.5777218104420236e-30
220
2.3111159332648793e-32
230
1
0
CIRCLE
5
561
100
AcDbEntity
8
0
100
AcDbCircle
10
-651.85000000000184
20
-183.37500269386069
30
0
40
1.0500000000000105
210
1.5777218104420236e-30
220
2.3111159332648793e-32
230
1
0
LWPOLYLINE
5
562
100
AcDbEntity
8
0
100
AcDbPolyline
90
4
70
1
43
0.0
10
-573.50000000000216
20
-204.974999999998
10
-583.50000000000216
20
-204.97499999999798
10
-583.50000000000227
20
-208.77499999999796
10
-573.50000000000227
20
-208.77499999999802
0
CIRCLE
5
563
100
AcDbEntity
8
0
100
AcDbCircle
10
-647.50000000000205
20
-206.87499999999767
30
0
40
1.1250000000000138
210
-2.3955879269027382e-46
220
-5.0844550531823027e-32
230
1
0
CIRCLE
5
564
100
AcDbEntity
8
0
100
AcDbCircle
10
-509.50000000000239
20
-206.87499999999829
30
0
40
1.1250000000000138
210
-2.3955879269027382e-46
220
-5.0844550531823027e-32
230
1
0
CIRCLE
5
565
100
AcDbEntity
8
0
100
AcDbCircle
10
-572.74396006553513
20
-183.37500269386109
30
0
40
1.0000000000000022
210
-2.6510551787344838e-46
220
-5.7007526353862181e-32
230
1
0
CIRCLE
5
566
100
AcDbEntity
8
0
100
AcDbCircle
10
-641.22783291736323
20
-183.37500269386078
30
0
40
1.0000000000000022
210
-2.6510551787344838e-46
220
-5.7007526353862181e-32
230
1
0
CIRCLE
5
567
100
AcDbEntity
8
0
100
AcDbCircle
10
-652.50000000000205
20
-212.2500011160127
30
0
40
0.74999999999999734
210
5.732011197263749e-47
220
1.2325951644078309e-32
230
1
0
CIRCLE
5
568
100
AcDbEntity
8
0
100
AcDbCircle
10
-504.50000000000239
20
-227.07499919603904
30
0
40
0.750000000000004
210
-1.577721810442024e-30
220
-9.090389337507959e-32
230
1
0
CIRCLE
5
569
100
AcDbEntity
8
0
100
AcDbCircle
10
-504.68334721754564
20
-183.3750026938614
30
0
40
1.0000000000000056
210
-4.3706585379136088e-46
220
-9.3985381286097121e-32
230
1
0
LWPOLYLINE
5
570
100
AcDbEntity
8
0
100
AcDbPolyline
90
27
70
1
43
0.0
10
-647.21990505019608
20
-222.22500111601289
10
-660.50000000000182
20
-222.22500111601281
10
-660.50000000000193
20
-214.87500267055057
10
-657.50000000000205
20
-214.87500267055057
10
-657.50000000000216
20
-164.37500267055029
10
-660.50000000000205
20
-164.37500267055029
10
-660.50000000000193
20
-149.62499999999764
10
-652.50000000000205
20
-149.62499999999767
42
-0.41421356237310025
10
-647.50000000000205
20
-154.62499999999775
10
-647.50000000000205
20
-168.37500269386069
42
0.41421356237308876
10
-642.50000000000216
20
-173.37500269386069
10
-514.5000000000025
20
-173.37500269386129
42
0.41421356237309503
10
-509.50000000000244
20
-168.37500269386126
10
-509.50000000000244
20
-154.62499999999838
42
-0.41421356237309709
10
-504.5000000000025
20
-149.62499999999838
10
-499.5000000000025
20
-149.62499999999838
10
-499.50000000000244
20
-179.72499665886738
10
-496.50000000000239
20
-179.72499665886733
10
-496.5000000000025
20
-199.52499665886805
10
-499.50000000000244
20
-199.52499665886808
10
-499.50000000000239
20
-229.62499839207965
10
-496.50000000000239
20
-229.62499839207962
10
-496.50000000000608
20
-237.04999919603915
10
-509.50000000000239
20
-237.04999919603907
10
-509.50000000000239
20
-223.87499999999835
42
0.41421356237309709
10
-514.50000000000239
20
-218.87499999999835
10
-642.50000000000205
20
-218.87499999999775
42
0.31881015208779306
0
LWPOLYLINE
5
571
100
AcDbEntity
8
0
100
AcDbPolyline
90
29
70
1
43
0.0
10
-630.77392053778681
20
-73.997253519786881
10
-617.51100862766305
20
-73.997253519786938
42
0.081612790225549958
10
-617.77392053778681
20
-75.597252403771833
10
-617.77392053778681
20
-98.472252403772387
42
0.41421356237310858
10
-612.77392053778681
20
-103.4722524037724
10
-484.77392053778794
20
-103.47225240377286
42
0.41421356237310231
10
-479.77392053778794
20
-98.47225240377287
10
-479.77392053778794
20
-88.822251599812944
10
-466.77392053779181
20
-88.822251599813001
10
-466.77392053778806
20
-96.247252403772464
10
-469.77392053778806
20
-96.247252403772478
10
-469.77392053778783
20
-146.44725240377304
10
-466.77392053778789
20
-146.44725240377306
10
-466.77392053778789
20
-161.34725240377298
10
-474.77392053778783
20
-161.34725240377293
42
-0.41421356237310542
10
-479.77392053778777
20
-156.34725240377296
10
-479.77392053778777
20
-153.97225240377242
42
0.41421356237310125
10
-484.77392053778777
20
-148.97225240377242
10
-612.77392053778669
20
-148.97225240377193
42
0.41421356237310336
10
-617.77392053778669
20
-153.97225240377193
10
-617.77392053778681
20
-156.34725240377242
42
-0.41421356237310442
10
-622.77392053778669
20
-161.34725240377239
10
-627.77392053778658
20
-161.34725240377236
10
-627.77392053778669
20
-131.09724973322028
10
-630.77392053778669
20
-131.09724973322025
10
-630.77392053778681
20
-111.59724973322028
10
-627.77392053778681
20
-111.59724973322028
10
-627.77392053778681
20
-81.347251965248915
10
-630.77392053778681
20
-81.347251965248901
0
CIRCLE
5
572
100
AcDbEntity
8
0
100
AcDbCircle
10
-622.77392053778681
20
-83.972253519786832
30
0
40
0.74999999999999301
210
1.0395918797256893e-46
220
2.7733391199176196e-32
230
1
0
CIRCLE
5
573
100
AcDbEntity
8
0
100
AcDbCircle
10
-474.77392053778794
20
-113.47225240377283
30
0
40
1
210
5.7755104429204964e-48
220
1.5407439555097887e-33
230
1
0
CIRCLE
5
574
100
AcDbEntity
8
0
100
AcDbCircle
10
-566.33849118078524
20
-113.4722524037725
30
0
40
0.99999999999999656
210
1.5016327151593293e-46
220
4.0059342843254511e-32
230
1
0
CIRCLE
5
575
100
AcDbEntity
8
0
100
AcDbCircle
10
-622.77392053778681
20
-113.47225240377227
30
0
40
0.99999999999999656
210
1.5016327151593293e-46
220
4.0059342843254511e-32
230
1
0
CIRCLE
5
576
100
AcDbEntity
8
0
100
AcDbCircle
10
-474.77392053778794
20
-98.797251599812938
30
0
40
0.74999999999999967
210
1.5777218104420236e-30
220
-7.5496453819976482e-32
230
1
0
CIRCLE
5
577
100
AcDbEntity
8
0
100
AcDbCircle
10
-492.2739205377876
20
-113.47225240377284
30
0
40
1.0500000000000045
210
-1.577721810442024e-30
220
-5.392603844284568e-32
230
1
0
CIRCLE
5
578
100
AcDbEntity
8
0
100
AcDbCircle
10
-617.77392053778681
20
-136.9722524037719
30
0
40
1.1250000000000073
210
2.8175298242839354e-46
220
7.3955709864469857e-32
230
1
0
CIRCLE
5
579
100
AcDbEntity
8
0
100
AcDbCircle
10
-479.77392053778783
20
-136.97225240377242
30
0
40
1.1250000000000073
210
2.8175298242839354e-46
220
7.3955709864469857e-32
230
1
0
LWPOLYLINE
5
580
100
AcDbEntity
8
0
100
AcDbPolyline
90
4
70
1
43
0.0
10
-543.77392053778726
20
-135.07225240377218
10
-553.77392053778726
20
-135.07225240377215
10
-553.77392053778726
20
-138.87225240377217
10
-543.77392053778738
20
-138.87225240377219
0
CIRCLE
5
581
100
AcDbEntity
8
0
100
AcDbCircle
10
-519.27392053778726
20
-113.47225240377273
30
0
40
1.0500000000000045
210
-1.577721810442024e-30
220
-5.392603844284568e-32
230
1
0
CIRCLE
5
582
100
AcDbEntity
8
0
100
AcDbCircle
10
-546.27392053778738
20
-113.47225240377263
30
0
40
1.0500000000000045
210
-1.577721810442024e-30
220
-5.392603844284568e-32
230
1
0
CIRCLE
5
583
100
AcDbEntity
8
0
100
AcDbCircle
10
-585.77392053778681
20
-113.47225240377249
30
0
40
1.0500000000000045
210
-1.577721810442024e-30
220
-5.392603844284568e-32
230
1
0
CIRCLE
5
584
100
AcDbEntity
8
0
100
AcDbCircle
10
-613.27392053778669
20
-113.47225240377239
30
0
40
1.0500000000000045
210
-1.577721810442024e-30
220
-5.392603844284568e-32
230
1
0
CIRCLE
5
585
100
AcDbEntity
8
0
100
AcDbCircle
10
-575.17470440233876
20
-87.312735207243406
30
9.7480568056964646e-19
40
0.750000000000005
210
1.5777218104420236e-30
220
1.3137173103045137e-46
230
1
0
CIRCLE
5
586
100
AcDbEntity
8
0
100
AcDbCircle
10
-580.17470440233876
20
-82.312735207243364
30
1.5911960243240861e-16
40
0.750000000000005
210
1.5777218104420236e-30
220
1.3137173103045137e-46
230
1
0
CIRCLE
5
587
100
AcDbEntity
8
0
100
AcDbCircle
10
-585.17470440233876
20
-87.312735207243406
30
1.9987156782777796e-16
40
0.75000000000000444
210
1.2829270608442524e-49
220
-1.5407439555097887e-33
230
1
0
CIRCLE
5
588
100
AcDbEntity
8
0
100
AcDbCircle
10
-580.17470440233876
20
-92.312735207243435
30
4.1726771074929262e-17
40
0.750000000000005
210
1.5777218104420236e-30
220
1.3137173103045137e-46
230
1
0
CIRCLE
5
589
100
AcDbEntity
8
0
100
AcDbCircle
10
-580.17470440233876
20
-87.312735207243406
30
1.0042318675366893e-16
40
15.000000000000098
210
-0
220
0
230
1
0
CIRCLE
5
590
100
AcDbEntity
8
0
100
AcDbCircle
10
-553.92392053778724
20
-35.097255097635255
30
0
40
1.0500000000000045
210
-1.577721810442024e-30
220
-5.392603844284568e-32
230
1
0
CIRCLE
5
591
100
AcDbEntity
8
0
100
AcDbCircle
10
-507.72392053778776
20
-35.097255097635426
30
0
40
1.0500000000000045
210
-1.577721810442024e-30
220
-5.392603844284568e-32
230
1
0
CIRCLE
5
592
100
AcDbEntity
8
0
100
AcDbCircle
10
-484.8239205377879
20
-35.097255097635497
30
0
40
1.0500000000000045
210
-1.577721810442024e-30
220
-5.392603844284568e-32
230
1
0
CIRCLE
5
593
100
AcDbEntity
8
0
100
AcDbCircle
10
-576.62392053778717
20
-35.097255097635163
30
0
40
1.0500000000000045
210
-1.577721810442024e-30
220
-5.392603844284568e-32
230
1
0
CIRCLE
5
594
100
AcDbEntity
8
0
100
AcDbCircle
10
-530.82392053778756
20
-35.09725509763534
30
0
40
1.0500000000000045
210
-1.577721810442024e-30
220
-5.392603844284568e-32
230
1
0
CIRCLE
5
595
100
AcDbEntity
8
0
100
AcDbCircle
10
-599.5489205377869
20
-35.09725509763507
30
0
40
1.0500000000000045
210
-1.577721810442024e-30
220
-5.392603844284568e-32
230
1
0
CIRCLE
5
596
100
AcDbEntity
8
0
100
AcDbCircle
10
-622.12392053778683
20
-35.097255097634999
30
0
40
1.0500000000000045
210
-1.577721810442024e-30
220
-5.392603844284568e-32
230
1
0
LWPOLYLINE
5
597
100
AcDbEntity
8
0
100
AcDbPolyline
90
4
70
1
43
0.0
10
-543.77392053778749
20
-56.697252403772097
10
-553.77392053778738
20
-56.697252403772055
10
-553.77392053778738
20
-60.497252403772052
10
-543.77392053778749
20
-60.49725240377208
0
CIRCLE
5
598
100
AcDbEntity
8
0
100
AcDbCircle
10
-617.77392053778692
20
-58.597252403771805
30
0
40
1.1250000000000073
210
2.8175298242839354e-46
220
7.3955709864469857e-32
230
1
0
CIRCLE
5
599
100
AcDbEntity
8
0
100
AcDbCircle
10
-479.773920537788
20
-58.597252403772337
30
0
40
1.1250000000000073
210
2.8175298242839354e-46
220
7.3955709864469857e-32
230
1
0
CIRCLE
5
600
100
AcDbEntity
8
0
100
AcDbCircle
10
-543.01788060332046
20
-35.097255097635284
30
0
40
0.99999999999999656
210
1.5016327151593293e-46
220
4.0059342843254511e-32
230
1
0
CIRCLE
5
601
100
AcDbEntity
8
0
100
AcDbCircle
10
-611.50175345514822
20
-35.097255097635042
30
0
40
0.99999999999999656
210
1.5016327151593293e-46
220
4.0059342843254511e-32
230
1
0
CIRCLE
5
602
100
AcDbEntity
8
0
100
AcDbCircle
10
-622.77392053778692
20
-63.972253519786818
30
0
40
0.74999999999999301
210
1.0395918797256893e-46
220
2.7733391199176196e-32
230
1
0
CIRCLE
5
603
100
AcDbEntity
8
0
100
AcDbCircle
10
-474.773920537788
20
-78.797251599812967
30
0
40
0.74999999999999967
210
1.5777218104420236e-30
220
-7.5496453819976482e-32
230
1
0
CIRCLE
5
604
100
AcDbEntity
8
0
100
AcDbCircle
10
-474.95726775533126
20
-35.097255097635554
30
0
40
1
210
5.7755104429204964e-48
220
1.5407439555097887e-33
230
1
0
LWPOLYLINE
5
605
100
AcDbEntity
8
0
100
AcDbPolyline
90
27
70
1
43
0.0
10
-617.49382558798106
20
-73.947253519786941
10
-630.77392053778681
20
-73.947253519786898
10
-630.77392053778681
20
-66.597255074324679
10
-627.77392053778692
20
-66.597255074324679
10
-627.77392053778692
20
-16.097255074324714
10
-630.77392053778692
20
-16.097255074324686
10
-630.77392053778692
20
-1.3472524037721156
10
-622.77392053778703
20
-1.3472524037721101
42
-0.41421356237310636
10
-617.77392053778703
20
-6.3472524037721616
10
-617.77392053778703
20
-20.097255097635038
42
0.4142135623731088
10
-612.77392053778703
20
-25.097255097635021
10
-484.77392053778806
20
-25.097255097635497
42
0.41421356237310025
10
-479.77392053778806
20
-20.097255097635518
10
-479.77392053778806
20
-6.3472524037726696
42
-0.41421356237310869
10
-474.77392053778806
20
-1.3472524037726952
10
-469.77392053778823
20
-1.3472524037727229
10
-469.77392053778806
20
-31.447249062641486
10
-466.77392053778817
20
-31.447249062641514
10
-466.77392053778811
20
-51.247249062642133
10
-469.77392053778806
20
-51.247249062642119
10
-469.773920537788
20
-81.347250795853512
10
-466.77392053778806
20
-81.347250795853526
10
-466.7739205377917
20
-88.772251599812989
10
-479.77392053778794
20
-88.772251599812947
10
-479.77392053778794
20
-75.597252403772288
42
0.41421356237309814
10
-484.77392053778783
20
-70.597252403772302
10
-612.77392053778692
20
-70.597252403771819
42
0.31881015208779706
0
CIRCLE
5
606
100
AcDbEntity
8
0
100
AcDbCircle
10
-641.71121286213497
20
-40.238705942020736
30
5.797168204138361e-17
40
0.750000000000005
210
1.5777218104420236e-30
220
1.3137173103045061e-46
230
1
0
CIRCLE
5
607
100
AcDbEntity
8
0
100
AcDbCircle
10
-646.71121286213497
20
-35.238705942020708
30
2.1611647879423231e-16
40
0.750000000000005
210
1.5777218104420236e-30
220
1.3137173103045061e-46
230
1
0
CIRCLE
5
608
100
AcDbEntity
8
0
100
AcDbCircle
10
-651.71121286213497
20
-40.238705942020736
30
2.5686844418859193e-16
40
0.75000000000000444
210
1.2829270608442524e-49
220
-1.5407439555097887e-33
230
1
0
CIRCLE
5
609
100
AcDbEntity
8
0
100
AcDbCircle
10
-646.71121286213497
20
-45.238705942020772
30
9.8723647435743225e-17
40
0.750000000000005
210
1.5777218104420236e-30
220
1.3137173103045061e-46
230
1
0
CIRCLE
5
610
100
AcDbEntity
8
0
100
AcDbCircle
10
-646.71121286213497
20
-40.238705942020736
30
1.5742006311549264e-16
40
15.000000000000098
210
-0
220
0
230
1
0
CIRCLE
5
611
100
AcDbEntity
8
0
100
AcDbCircle
10
-641.71121286213497
20
-71.238705942020715
30
2.4916541714375643e-16
40
0.750000000000005
210
1.5777218104420236e-30
220
1.3137173103045061e-46
230
1
0
CIRCLE
5
612
100
AcDbEntity
8
0
100
AcDbCircle
10
-646.71121286213497
20
-66.238705942020687
30
-1.4780129841597314e-16
40
0.750000000000005
210
1.5777218104420236e-30
220
1.3137173103045061e-46
230
1
0
CIRCLE
5
613
100
AcDbEntity
8
0
100
AcDbCircle
10
-651.71121286213497
20
-71.238705942020715
30
-1.0704933302161352e-16
40
0.75000000000000444
210
1.2829270608442524e-49
220
-1.5407439555097887e-33
230
1
0
CIRCLE
5
614
100
AcDbEntity
8
0
100
AcDbCircle
10
-646.71121286213497
20
-76.238705942020758
30
-2.6519412977446222e-16
40
0.750000000000005
210
1.5777218104420236e-30
220
1.3137173103045061e-46
230
1
0
CIRCLE
5
615
100
AcDbEntity
8
0
100
AcDbCircle
10
-646.71121286213497
20
-71.238705942020715
30
-2.0649771409471281e-16
40
15.000000000000098
210
-0
220
0
230
1
0
CIRCLE
5
616
100
AcDbEntity
8
0
100
AcDbCircle
10
-641.71121286213497
20
-102.23870594202074
30
-1.1475236006644902e-16
40
0.750000000000005
210
1.5777218104420236e-30
220
1.3137173103045061e-46
230
1
0
CIRCLE
5
617
100
AcDbEntity
8
0
100
AcDbCircle
10
-646.71121286213497
20
-97.238705942020701
30
4.3392436686399683e-17
40
0.750000000000005
210
1.5777218104420236e-30
220
1.3137173103045061e-46
230
1
0
CIRCLE
5
618
100
AcDbEntity
8
0
100
AcDbCircle
10
-651.71121286213497
20
-102.23870594202074
30
8.4144402080759299e-17
40
0.75000000000000444
210
1.2829270608442524e-49
220
-1.5407439555097887e-33
230
1
0
CIRCLE
5
619
100
AcDbEntity
8
0
100
AcDbCircle
10
-646.71121286213497
20
-107.23870594202077
30
-7.4000394672089402e-17
40
0.750000000000005
210
1.5777218104420236e-30
220
1.3137173103045061e-46
230
1
0
CIRCLE
5
620
100
AcDbEntity
8
0
100
AcDbCircle
10
-646.71121286213497
20
-102.23870594202074
30
-1.5303978992339989e-17
40
15.000000000000098
210
-0
220
0
230
1
0
CIRCLE
5
621
100
AcDbEntity
8
0
100
AcDbCircle
10
-641.71121286213497
20
-133.23870594202074
30
7.6441375035923803e-17
40
0.750000000000005
210
1.5777218104420236e-30
220
1.3137173103045061e-46
230
1
0
CIRCLE
5
622
100
AcDbEntity
8
0
100
AcDbCircle
10
-646.71121286213497
20
-128.23870594202072
30
2.345861717887725e-16
40
0.750000000000005
210
1.5777218104420236e-30
220
1.3137173103045061e-46
230
1
0
CIRCLE
5
623
100
AcDbEntity
8
0
100
AcDbCircle
10
-651.71121286213497
20
-133.23870594202074
30
2.7533813718313212e-16
40
0.75000000000000444
210
1.2829270608442524e-49
220
-1.5407439555097887e-33
230
1
0
CIRCLE
5
624
100
AcDbEntity
8
0
100
AcDbCircle
10
-646.71121286213497
20
-138.23870594202077
30
1.1719334043028342e-16
40
0.750000000000005
210
1.5777218104420236e-30
220
1.3137173103045061e-46
230
1
0
CIRCLE
5
625
100
AcDbEntity
8
0
100
AcDbCircle
10
-646.71121286213497
20
-133.23870594202074
30
1.7588975611003283e-16
40
15.000000000000098
210
-0
220
0
230
1
0
CIRCLE
5
626
100
AcDbEntity
8
0
100
AcDbCircle
10
-686.08789409545034
20
-157.0878940954488
30
3.9860675508553084e-17
40
0.74999999999999856
210
0
220
-0
230
1
0
CIRCLE
5
627
100
AcDbEntity
8
0
100
AcDbCircle
10
-681.08789409545034
20
-162.08789409544877
30
-1.1828412124429562e-16
40
0.74999999999999933
210
8.5528470722950099e-50
220
-1.5407439555097887e-33
230
1
0
CIRCLE
5
628
100
AcDbEntity
8
0
100
AcDbCircle
10
-681.08789409545034
20
-152.0878940954488
30
-8.912898868162737e-19
40
0.74999999999999933
210
8.5528470722950099e-50
220
-1.5407439555097887e-33
230
1
0
CIRCLE
5
629
100
AcDbEntity
8
0
100
AcDbCircle
10
-676.08789409545034
20
-157.0878940954488
30
-1.5903608663865523e-16
40
0.74999999999999933
210
8.5528470722950099e-50
220
-1.5407439555097887e-33
230
1
0
CIRCLE
5
630
100
AcDbEntity
8
0
100
AcDbCircle
10
-681.08789409545034
20
-157.0878940954488
30
-5.9587705565555945e-17
40
19.999999999999979
210
-0
220
0
230
1
0
CIRCLE
5
631
100
AcDbEntity
8
0
100
AcDbCircle
10
-687.28784997121443
20
-115.55052468029308
30
1.8826300979168301e-17
40
0.74999999999999856
210
0
220
-0
230
1
0
CIRCLE
5
632
100
AcDbEntity
8
0
100
AcDbCircle
10
-682.28784997121443
20
-120.55052468029305
30
-1.3931849577469014e-16
40
0.74999999999999933
210
2.1382117680737539e-49
220
-1.5407439555097887e-33
230
1
0
CIRCLE
5
633
100
AcDbEntity
8
0
100
AcDbCircle
10
-682.28784997121443
20
-110.55052468029309
30
-2.1925664416201056e-17
40
0.74999999999999933
210
2.1382117680737539e-49
220
-1.5407439555097887e-33
230
1
0
CIRCLE
5
634
100
AcDbEntity
8
0
100
AcDbCircle
10
-677.28784997121443
20
-115.55052468029308
30
-1.8007046116804002e-16
40
0.74999999999999933
210
2.1382117680737539e-49
220
-1.5407439555097887e-33
230
1
0
CIRCLE
5
635
100
AcDbEntity
8
0
100
AcDbCircle
10
-682.28784997121443
20
-115.55052468029308
30
-8.0622080094940728e-17
40
19.999999999999979
210
0
220
0
230
1
0
CIRCLE
5
636
100
AcDbEntity
8
0
100
AcDbCircle
10
-681.00000000000045
20
-202.50000000000003
30
0
40
1
210
8.5528470722950276e-49
220
1.5407439555097887e-33
230
1
0
CIRCLE
5
637
100
AcDbEntity
8
0
100
AcDbCircle
10
-681.00000000000045
20
-195.5
30
0
40
1
210
8.5528470722950276e-49
220
1.5407439555097887e-33
230
1
0
CIRCLE
5
638
100
AcDbEntity
8
0
100
AcDbCircle
10
-681.00000000000045
20
-199.00000000000003
30
0
40
20
210
8.5528470722950276e-49
220
1.5407439555097887e-33
230
1
0
CIRCLE
5
639
100
AcDbEntity
8
0
100
AcDbCircle
10
-681.00000000000045
20
-242.50000000000003
30
0
40
1
210
8.5528470722950276e-49
220
1.5407439555097887e-33
230
1
0
CIRCLE
5
640
100
AcDbEntity
8
0
100
AcDbCircle
10
-681.00000000000045
20
-235.5
30
0
40
1
210
8.5528470722950276e-49
220
1.5407439555097887e-33
230
1
0
CIRCLE
5
641
100
AcDbEntity
8
0
100
AcDbCircle
10
-681.00000000000045
20
-239.00000000000003
30
0
40
20
210
8.5528470722950276e-49
220
1.5407439555097887e-33
230
1
0
CIRCLE
5
642
100
AcDbEntity
8
0
100
AcDbCircle
10
-681.00000000000045
20
-282.5
30
0
40
1
210
8.5528470722950276e-49
220
1.5407439555097887e-33
230
1
0
CIRCLE
5
643
100
AcDbEntity
8
0
100
AcDbCircle
10
-681.00000000000045
20
-275.5
30
0
40
1
210
8.5528470722950276e-49
220
1.5407439555097887e-33
230
1
0
CIRCLE
5
644
100
AcDbEntity
8
0
100
AcDbCircle
10
-681.00000000000045
20
-279
30
0
40
20
210
8.5528470722950276e-49
220
1.5407439555097887e-33
230
1
0
CIRCLE
5
645
100
AcDbEntity
8
0
100
AcDbCircle
10
-681.00000000000045
20
-322.5
30
0
40
1
210
8.5528470722950276e-49
220
1.5407439555097887e-33
230
1
0
CIRCLE
5
646
100
AcDbEntity
8
0
100
AcDbCircle
10
-681.00000000000045
20
-315.5
30
0
40
1
210
8.5528470722950276e-49
220
1.5407439555097887e-33
230
1
0
CIRCLE
5
647
100
AcDbEntity
8
0
100
AcDbCircle
10
-681.00000000000045
20
-319
30
0
40
20
210
8.5528470722950276e-49
220
1.5407439555097887e-33
230
1
0
CIRCLE
5
648
100
AcDbEntity
8
0
100
AcDbCircle
10
-681.00000000000045
20
-362.5
30
0
40
1
210
8.5528470722950276e-49
220
1.5407439555097887e-33
230
1
0
CIRCLE
5
649
100
AcDbEntity
8
0
100
AcDbCircle
10
-681.00000000000045
20
-355.5
30
0
40
1
210
8.5528470722950276e-49
220
1.5407439555097887e-33
230
1
0
CIRCLE
5
650
100
AcDbEntity
8
0
100
AcDbCircle
10
-681.00000000000045
20
-359
30
0
40
20
210
8.5528470722950276e-49
220
1.5407439555097887e-33
230
1
0
CIRCLE
5
651
100
AcDbEntity
8
0
100
AcDbCircle
10
-722.00000000000045
20
-362.50000000000006
30
0
40
1
210
8.5528470722950276e-49
220
1.5407439555097887e-33
230
1
0
CIRCLE
5
652
100
AcDbEntity
8
0
100
AcDbCircle
10
-722.00000000000045
20
-355.50000000000006
30
0
40
1
210
8.5528470722950276e-49
220
1.5407439555097887e-33
230
1
0
CIRCLE
5
653
100
AcDbEntity
8
0
100
AcDbCircle
10
-722.00000000000045
20
-359.00000000000006
30
0
40
20
210
8.5528470722950276e-49
220
1.5407439555097887e-33
230
1
0
CIRCLE
5
654
100
AcDbEntity
8
0
100
AcDbCircle
10
-722.00000000000045
20
-322.5
30
0
40
1
210
8.5528470722950276e-49
220
1.5407439555097887e-33
230
1
0
CIRCLE
5
655
100
AcDbEntity
8
0
100
AcDbCircle
10
-722.00000000000045
20
-315.5
30
0
40
1
210
8.5528470722950276e-49
220
1.5407439555097887e-33
230
1
0
CIRCLE
5
656
100
AcDbEntity
8
0
100
AcDbCircle
10
-722.00000000000045
20
-319
30
0
40
20
210
8.5528470722950276e-49
220
1.5407439555097887e-33
230
1
0
CIRCLE
5
657
100
AcDbEntity
8
0
100
AcDbCircle
10
-722.00000000000045
20
-282.5
30
0
40
1
210
8.5528470722950276e-49
220
1.5407439555097887e-33
230
1
0
CIRCLE
5
658
100
AcDbEntity
8
0
100
AcDbCircle
10
-722.00000000000045
20
-275.5
30
0
40
1
210
8.5528470722950276e-49
220
1.5407439555097887e-33
230
1
0
CIRCLE
5
659
100
AcDbEntity
8
0
100
AcDbCircle
10
-722.00000000000045
20
-279
30
0
40
20
210
8.5528470722950276e-49
220
1.5407439555097887e-33
230
1
0
CIRCLE
5
660
100
AcDbEntity
8
0
100
AcDbCircle
10
-722.00000000000045
20
-242.5
30
0
40
1
210
8.5528470722950276e-49
220
1.5407439555097887e-33
230
1
0
CIRCLE
5
661
100
AcDbEntity
8
0
100
AcDbCircle
10
-722.00000000000045
20
-235.49999999999997
30
0
40
1
210
8.5528470722950276e-49
220
1.5407439555097887e-33
230
1
0
CIRCLE
5
662
100
AcDbEntity
8
0
100
AcDbCircle
10
-722.00000000000045
20
-239
30
0
40
20
210
8.5528470722950276e-49
220
1.5407439555097887e-33
230
1
0
CIRCLE
5
663
100
AcDbEntity
8
0
100
AcDbCircle
10
-722.00000000000045
20
-202.5
30
0
40
1
210
8.5528470722950276e-49
220
1.5407439555097887e-33
230
1
0
CIRCLE
5
664
100
AcDbEntity
8
0
100
AcDbCircle
10
-722.00000000000045
20
-195.49999999999997
30
0
40
1
210
8.5528470722950276e-49
220
1.5407439555097887e-33
230
1
0
CIRCLE
5
665
100
AcDbEntity
8
0
100
AcDbCircle
10
-722.00000000000045
20
-199
30
0
40
20
210
8.5528470722950276e-49
220
1.5407439555097887e-33
230
1
0
CIRCLE
5
666
100
AcDbEntity
8
0
100
AcDbCircle
10
-720.47333639688532
20
-149.65857319703639
30
9.4903500049824637e-17
40
0.75
210
-1.5876428893715977e-64
220
-1.5407439555097887e-33
230
1
0
LWPOLYLINE
5
667
100
AcDbEntity
8
0
100
AcDbPolyline
90
22
70
1
43
0.0
10
-749.90298321290743
20
-3.1749028007766711
10
-729.02866227645416
20
-22.072018062324879
42
0.18603384263157971
10
-722.31741535584933
20
-24.658573197036425
10
-718.6292574379213
20
-24.658573197036414
42
0.18603384263157988
10
-711.91801051731647
20
-22.072018062324879
10
-691.04477369040171
20
-3.1758842239791116
42
-0.18603384263158332
10
-689.70252430628068
20
-2.6585731970367732
10
-685.86222528577423
20
-2.6585731970368705
42
-0.52395294621861299
10
-683.99022528577439
20
-5.3625731970367774
10
-702.33333639688544
20
-54.138573197036393
42
0.090169943749461079
10
-702.97333639688532
20
-57.658573197036411
10
-702.97333639688532
20
-109.82902774249115
42
-0.090169943749473597
10
-703.61333639688519
20
-113.34902774249116
10
-717.66533639688532
20
-150.7145731970364
42
-0.69230769230768985
10
-723.28133639688531
20
-150.7145731970364
10
-737.33333639688522
20
-113.34902774249117
42
-0.090169943749475276
10
-737.97333639688532
20
-109.82902774249114
10
-737.97333639688532
20
-57.658573197036382
42
0.090169943749453543
10
-738.61333639688519
20
-54.138573197036386
10
-756.95660596993105
20
-5.3621518323471218
42
-0.52390646754816339
10
-755.08489771467805
20
-2.6581518536259452
10
-751.24552434177531
20
-2.65759179511317
42
-0.18607157309038905
0
ENDSEC
0
SECTION
2
OBJECTS
0
DICTIONARY
5
C
100
AcDbDictionary
3
ACAD_GROUP
350
D
3
ACAD_MLINESTYLE
350
17
0
DICTIONARY
5
D
100
AcDbDictionary
0
DICTIONARY
5
1A
330
C
100
AcDbDictionary
0
DICTIONARY
5
17
100
AcDbDictionary
0
ENDSEC
0
EOF
