0
SECTION
2
HEADER
9
$INSUNITS
70
4
9
$ACADVER
1
AC1014
9
$HANDSEED
5
FFFF
0
ENDSEC
0
SECTION
2
TABLES
0
TABLE
2
VPORT
5
8
100
AcDbSymbolTable
0
ENDTAB
0
TABLE
2
LTYPE
5
5
100
AcDbSymbolTable
0
LTYPE
5
14
100
AcDbSymbolTableRecord
100
AcDbLinetypeTableRecord
2
BYBLOCK
70
0
0
LTYPE
5
15
100
AcDbSymbolTableRecord
100
AcDbLinetypeTableRecord
2
BYLAYER
70
0
0
ENDTAB
0
TABLE
2
LAYER
5
2
100
AcDbSymbolTable
70
2
0
LAYER
5
50
100
AcDbSymbolTableRecord
100
AcDbLayerTableRecord
2
0
70
0
6
CONTINUOUS
0
ENDTAB
0
TABLE
2
STYLE
5
3
100
AcDbSymbolTable
70
1
0
STYLE
5
11
100
AcDbSymbolTableRecord
100
AcDbTextStyleTableRecord
2
STANDARD
70
0
0
ENDTAB
0
TABLE
2
VIEW
5
6
100
AcDbSymbolTable
70
0
0
ENDTAB
0
TABLE
2
UCS
5
7
100
AcDbSymbolTable
70
0
0
ENDTAB
0
TABLE
2
APPID
5
9
100
AcDbSymbolTable
70
2
0
APPID
5
12
100
AcDbSymbolTableRecord
100
AcDbRegAppTableRecord
2
ACAD
70
0
0
ENDTAB
0
TABLE
2
DIMSTYLE
5
A
100
AcDbSymbolTable
70
1
0
ENDTAB
0
TABLE
2
BLOCK_RECORD
5
1
100
AcDbSymbolTable
70
1
0
BLOCK_RECORD
5
1F
100
AcDbSymbolTableRecord
100
AcDbBlockTableRecord
2
*MODEL_SPACE
0
BLOCK_RECORD
5
1B
100
AcDbSymbolTableRecord
100
AcDbBlockTableRecord
2
*PAPER_SPACE
0
ENDTAB
0
ENDSEC
0
SECTION
2
BLOCKS
0
BLOCK
5
20
100
AcDbEntity
100
AcDbBlockBegin
2
*MODEL_SPACE
0
ENDBLK
5
21
100
AcDbEntity
100
AcDbBlockEnd
0
BLOCK
5
1C
100
AcDbEntity
100
AcDbBlockBegin
2
*PAPER_SPACE
0
ENDBLK
5
1D
100
AcDbEntity
100
AcDbBlockEnd
0
ENDSEC
0
SECTION
2
ENTITIES
0
LWPOLYLINE
5
100
100
AcDbEntity
8
0
100
AcDbPolyline
90
4
70
1
43
0.0
10
117.84971124432388
20
408.84275352975965
10
114.64971124432388
20
408.84275352975965
10
114.64971124432388
20
419.04275352975958
10
117.84971124432388
20
419.04275352975958
0
LWPOLYLINE
5
101
100
AcDbEntity
8
0
100
AcDbPolyline
90
4
70
1
43
0.0
10
67.849711244323885
20
408.84275352975965
10
64.649711244323882
20
408.84275352975965
10
64.649711244323882
20
419.04275352975958
10
67.849711244323885
20
419.04275352975958
0
LWPOLYLINE
5
102
100
AcDbEntity
8
0
100
AcDbPolyline
90
4
70
1
43
0.0
10
117.84971124432388
20
388.84275352975965
10
114.64971124432388
20
388.84275352975965
10
114.64971124432388
20
399.04275352975958
10
117.84971124432388
20
399.04275352975958
0
LWPOLYLINE
5
103
100
AcDbEntity
8
0
100
AcDbPolyline
90
4
70
1
43
0.0
10
64.649711244323882
20
399.04275352975958
10
67.849711244323885
20
399.04275352975958
10
67.849711244323885
20
388.84275352975965
10
64.649711244323882
20
388.84275352975965
0
LWPOLYLINE
5
104
100
AcDbEntity
8
0
100
AcDbPolyline
90
4
70
1
43
0.0
10
119.14971057364588
20
365.56131052975957
10
119.14971057364588
20
360.36131052975952
10
104.14971057364588
20
360.36131052975952
10
104.14971057364588
20
365.56131052975957
0
CIRCLE
5
105
100
AcDbEntity
8
0
100
AcDbCircle
10
129.14971057364588
20
362.9613105297596
30
0
40
1.5499999999999936
210
0
220
0
230
1
0
LWPOLYLINE
5
106
100
AcDbEntity
8
0
100
AcDbPolyline
90
4
70
1
43
0.0
10
139.14971057364588
20
360.36131052975952
10
139.14971057364588
20
365.56131052975957
10
154.14971057364588
20
365.56131052975957
10
154.14971057364588
20
360.36131052975952
0
CIRCLE
5
107
100
AcDbEntity
8
0
100
AcDbCircle
10
89.149710573634678
20
362.9613105297596
30
0
40
1.5499999999999936
210
0
220
0
230
1
0
CIRCLE
5
108
100
AcDbEntity
8
0
100
AcDbCircle
10
49.149710573634678
20
362.9613105297596
30
0
40
1.5500000000000025
210
0
220
0
230
1
0
LWPOLYLINE
5
109
100
AcDbEntity
8
0
100
AcDbPolyline
90
4
70
1
43
0.0
10
74.149710573634678
20
365.56131052975957
10
74.149710573634678
20
360.36131052975952
10
59.149710573634678
20
360.36131052975952
10
59.149710573634678
20
365.56131052975957
0
LWPOLYLINE
5
110
100
AcDbEntity
8
0
100
AcDbPolyline
90
4
70
1
43
0.0
10
39.149710573634678
20
365.56131052975957
10
39.149710573634678
20
360.36131052975952
10
24.149710573634682
20
360.36131052975952
10
24.149710573634682
20
365.56131052975957
0
LWPOLYLINE
5
111
100
AcDbEntity
8
0
100
AcDbPolyline
90
30
70
1
43
0.0
10
59.1497105739926
20
446.36131052975963
10
39.149710573649692
20
446.36131052975963
10
39.149710573649692
20
443.36131052975958
10
24.149710573649692
20
443.36131052975958
10
24.149710573649692
20
446.36131052975963
10
4.1497112441835071
20
446.36131052975963
10
4.149711244422738
20
339.36131052992272
42
0.4142135623694948
10
9.1497112443686603
20
334.3613105299267
10
19.649710573751172
20
334.36131052980977
42
0.23606797750229669
10
23.649710573801997
20
336.36131052980318
42
-0.50000000000551181
10
79.649710574180958
20
336.36131052921678
42
0.23606797750596972
10
83.649710574234021
20
334.3613105291206
10
94.649710573290349
20
334.36131052909678
42
0.23606797750714784
10
98.649710573359613
20
336.36131052921422
42
-0.50000000001212241
10
154.64971057418367
20
336.36131052921405
42
0.23606797750657546
10
158.64971057424003
20
334.36131052912162
10
164.149713244324
20
334.36131052909752
42
0.4142135623743749
10
169.14971324434578
20
339.36131052909741
10
169.1497132441911
20
446.36131052975963
10
154.14971057377159
20
446.36131052975963
10
154.14971057363087
20
443.36131052975963
10
139.14971057363087
20
443.36131052975958
10
139.14971057363087
20
446.36131052975952
10
119.14971057357589
20
446.36131052975963
10
119.14971057364343
20
443.36131052975958
10
104.14971057369705
20
443.36131052975958
10
104.14971057369705
20
446.36131052975952
10
74.14971057387217
20
446.36131052975952
10
74.14971057387217
20
443.36131052975958
10
59.149710573925049
20
443.36131052975958
0
LWPOLYLINE
5
112
100
AcDbEntity
8
0
100
AcDbPolyline
90
4
70
1
43
0.0
10
227.88074724369719
20
408.80581939164597
10
224.68074724369717
20
408.80581939164597
10
224.68074724369717
20
419.00581939164596
10
227.88074724369719
20
419.00581939164596
0
LWPOLYLINE
5
113
100
AcDbEntity
8
0
100
AcDbPolyline
90
4
70
1
43
0.0
10
277.88074724369716
20
408.80581939164597
10
274.68074724369717
20
408.80581939164597
10
274.68074724369717
20
419.00581939164596
10
277.88074724369716
20
419.00581939164601
0
LWPOLYLINE
5
114
100
AcDbEntity
8
0
100
AcDbPolyline
90
4
70
1
43
0.0
10
227.88074724369721
20
388.80581939164597
10
224.68074724369723
20
388.80581939164597
10
224.68074724369717
20
399.00581939164596
10
227.88074724369719
20
399.00581939164596
0
LWPOLYLINE
5
115
100
AcDbEntity
8
0
100
AcDbPolyline
90
4
70
1
43
0.0
10
274.68074724369717
20
399.00581939164601
10
277.88074724369716
20
399.00581939164601
10
277.88074724369716
20
388.80581939164597
10
274.68074724369723
20
388.80581939164597
0
LWPOLYLINE
5
116
100
AcDbEntity
8
0
100
AcDbPolyline
90
4
70
1
43
0.0
10
223.38074791437521
20
360.3243763916459
10
223.38074791437521
20
365.52437639164594
10
238.38074791437521
20
365.52437639164594
10
238.38074791437521
20
360.3243763916459
0
CIRCLE
5
117
100
AcDbEntity
8
0
100
AcDbCircle
10
213.38074791437521
20
362.92437639164586
30
0
40
1.5499999999999936
210
0
220
0
230
1
0
LWPOLYLINE
5
118
100
AcDbEntity
8
0
100
AcDbPolyline
90
4
70
1
43
0.0
10
203.38074791437521
20
365.52437639164594
10
203.38074791437521
20
360.3243763916459
10
188.38074791437521
20
360.3243763916459
10
188.38074791437521
20
365.52437639164589
0
CIRCLE
5
119
100
AcDbEntity
8
0
100
AcDbCircle
10
253.38074791438643
20
362.92437639164598
30
0
40
1.5499999999999936
210
0
220
0
230
1
0
CIRCLE
5
120
100
AcDbEntity
8
0
100
AcDbCircle
10
293.38074791438646
20
362.92437639164598
30
0
40
1.5500000000000025
210
0
220
0
230
1
0
LWPOLYLINE
5
121
100
AcDbEntity
8
0
100
AcDbPolyline
90
4
70
1
43
0.0
10
268.3807479143864
20
360.3243763916459
10
268.3807479143864
20
365.52437639164594
10
283.38074791438646
20
365.524376391646
10
283.38074791438646
20
360.32437639164596
0
LWPOLYLINE
5
122
100
AcDbEntity
8
0
100
AcDbPolyline
90
4
70
1
43
0.0
10
303.3807479143864
20
360.32437639164596
10
303.3807479143864
20
365.524376391646
10
318.3807479143864
20
365.524376391646
10
318.38074791438646
20
360.32437639164596
0
LWPOLYLINE
5
123
100
AcDbEntity
8
0
100
AcDbPolyline
90
30
70
1
43
0.0
10
303.38074791437134
20
446.32437639164601
10
283.3807479140284
20
446.32437639164601
10
283.38074791409599
20
443.32437639164601
10
268.38074791414886
20
443.32437639164601
10
268.38074791414886
20
446.32437639164601
10
238.38074791432399
20
446.32437639164596
10
238.38074791432399
20
443.32437639164596
10
223.38074791437759
20
443.32437639164596
10
223.38074791444512
20
446.32437639164596
10
203.38074791439016
20
446.32437639164596
10
203.38074791439016
20
443.32437639164596
10
188.38074791439016
20
443.32437639164596
10
188.38074791424944
20
446.32437639164596
10
173.38074524382992
20
446.32437639164596
10
173.38074524367531
20
339.32437639098373
42
0.41421356237437079
10
178.38074524369713
20
334.32437639098384
10
183.88074791378108
20
334.32437639100789
42
0.2360679775065905
10
187.88074791385665
20
336.3243763910861
42
-0.50000000001212253
10
243.88074791464237
20
336.32437639108628
42
0.23606797750714895
10
247.88074791473079
20
334.32437639098316
10
258.8807479137871
20
334.32437639100698
42
0.23606797750598618
10
262.88074791384014
20
336.32437639110316
42
-0.5000000000055097
10
318.88074791421911
20
336.32437639168961
42
0.23606797750229253
10
322.88074791426999
20
334.32437639169621
10
333.38074724365248
20
334.32437639181319
42
0.41421356236949886
10
338.38074724359836
20
339.32437639180921
10
338.3807472438375
20
446.32437639164607
10
318.38074791437134
20
446.32437639164607
10
318.38074791437134
20
443.32437639164601
10
303.38074791437134
20
443.32437639164601
0
CIRCLE
5
124
100
AcDbEntity
8
0
100
AcDbCircle
10
405.10997445783448
20
427.85887536403845
30
0
40
1.5500000000000114
210
0
220
0
230
1
0
CIRCLE
5
125
100
AcDbEntity
8
0
100
AcDbCircle
10
448.28327882792735
20
298.77385015620354
30
0
40
1.5000000000000568
210
0
220
0
230
1
0
LWPOLYLINE
5
126
100
AcDbEntity
8
0
100
AcDbPolyline
90
12
70
1
43
0.0
10
604.17267382283455
20
312.6888249482929
10
596.17267382283467
20
312.6888249482983
10
596.17267382283649
20
315.1888249482983
10
594.57267382283635
20
315.18882494829938
10
594.5726738228376
20
316.9888249482994
10
598.17267382283762
20
316.98882494829695
10
598.17267382283853
20
318.48882494829695
10
602.17267382283865
20
318.48882494829422
10
602.17267382283762
20
316.98882494829422
10
605.77267382283765
20
316.98882494829178
10
605.7726738228364
20
315.18882494829177
10
604.17267382283626
20
315.18882494829285
0
LWPOLYLINE
5
127
100
AcDbEntity
8
0
100
AcDbPolyline
90
12
70
1
43
0.0
10
479.37267382283636
20
315.18882494837783
10
479.37267382283466
20
312.68882494837783
10
471.37267382283471
20
312.68882494838329
10
471.37267382283642
20
315.18882494838329
10
469.77267382283628
20
315.18882494838437
10
469.77267382283753
20
316.98882494838438
10
473.37267382283767
20
316.98882494838193
10
473.37267382283869
20
318.48882494838193
10
477.37267382283875
20
318.48882494837915
10
477.37267382283778
20
316.98882494837915
10
480.97267382283758
20
316.9888249483767
10
480.97267382283633
20
315.18882494837675
0
LWPOLYLINE
5
128
100
AcDbEntity
8
0
100
AcDbPolyline
90
12
70
1
43
0.0
10
707.18191294403198
20
362.73651762265831
10
699.18191294403186
20
362.73651762266377
10
699.18191294403357
20
365.23651762266383
10
697.58191294403332
20
365.23651762266479
10
697.58191294403446
20
367.0365176226648
10
701.18191294403402
20
367.03651762266236
10
701.18191294403516
20
368.53651762266236
10
705.18191294403528
20
368.53651762265963
10
705.18191294403414
20
367.03651762265963
10
708.7819129440345
20
367.03651762265724
10
708.78191294403337
20
365.23651762265729
10
707.18191294403368
20
365.23651762265843
0
LWPOLYLINE
5
129
100
AcDbEntity
8
0
100
AcDbPolyline
90
12
70
1
43
0.0
10
541.38191294403214
20
362.7365176227712
10
533.38191294403202
20
362.73651762277666
10
533.38191294403373
20
365.23651762277666
10
531.78191294403348
20
365.23651762277774
10
531.78191294403473
20
367.03651762277764
10
535.3819129440343
20
367.03651762277525
10
535.38191294403532
20
368.53651762277525
10
539.38191294403532
20
368.53651762277252
10
539.38191294403441
20
367.03651762277252
10
542.98191294403478
20
367.03651762277013
10
542.98191294403352
20
365.23651762277012
10
541.38191294403373
20
365.23651762277126
0
LWPOLYLINE
5
130
100
AcDbEntity
8
0
100
AcDbPolyline
90
12
70
1
43
0.0
10
582.18191294403186
20
362.73651762274341
10
582.18191294403346
20
365.23651762274341
10
580.58191294403343
20
365.23651762274449
10
580.58191294403468
20
367.03651762274438
10
584.18191294403482
20
367.036517622742
10
584.18191294403584
20
368.53651762274194
10
588.18191294403573
20
368.53651762273927
10
588.18191294403482
20
367.03651762273921
10
591.78191294403473
20
367.03651762273682
10
591.78191294403348
20
365.23651762273687
10
590.18191294403346
20
365.23651762273795
10
590.18191294403186
20
362.73651762273801
0
LWPOLYLINE
5
131
100
AcDbEntity
8
0
100
AcDbPolyline
90
12
70
1
43
0.0
10
416.38191294403185
20
362.73651762285624
10
416.38191294403356
20
365.23651762285624
10
414.78191294403359
20
365.23651762285738
10
414.78191294403484
20
367.03651762285733
10
418.38191294403475
20
367.03651762285483
10
418.38191294403572
20
368.53651762285489
10
422.38191294403578
20
368.53651762285216
10
422.38191294403475
20
367.0365176228521
10
425.98191294403478
20
367.0365176228496
10
425.98191294403352
20
365.2365176228497
10
424.3819129440335
20
365.23651762285084
10
424.3819129440318
20
362.73651762285084
0
LWPOLYLINE
5
132
100
AcDbEntity
8
0
100
AcDbPolyline
90
12
70
1
43
0.0
10
447.88191294403191
20
362.73651762283487
10
439.88191294403191
20
362.73651762284032
10
439.8819129440335
20
365.23651762284027
10
438.28191294403354
20
365.2365176228414
10
438.28191294403484
20
367.0365176228413
10
441.88191294403481
20
367.0365176228388
10
441.88191294403578
20
368.53651762283891
10
445.88191294403572
20
368.53651762283619
10
445.88191294403475
20
367.03651762283613
10
449.48191294403489
20
367.03651762283363
10
449.48191294403358
20
365.23651762283373
10
447.88191294403362
20
365.23651762283487
0
LWPOLYLINE
5
133
100
AcDbEntity
8
0
100
AcDbPolyline
90
12
70
1
43
0.0
10
558.68191294403175
20
362.73651762275938
10
558.68191294403346
20
365.23651762275938
10
557.08191294403355
20
365.23651762276046
10
557.0819129440348
20
367.03651762276036
10
560.68191294403482
20
367.03651762275797
10
560.68191294403573
20
368.53651762275803
10
564.68191294403573
20
368.53651762275524
10
564.68191294403471
20
367.03651762275524
10
568.28191294403484
20
367.0365176227528
10
568.28191294403359
20
365.23651762275284
10
566.68191294403357
20
365.23651762275392
10
566.68191294403186
20
362.73651762275392
0
LWPOLYLINE
5
134
100
AcDbEntity
8
0
100
AcDbPolyline
90
12
70
1
43
0.0
10
375.58191294403201
20
362.73651762288404
10
367.5819129440319
20
362.73651762288949
10
367.5819129440336
20
365.23651762288955
10
365.98191294403335
20
365.23651762289063
10
365.98191294403466
20
367.03651762289053
10
369.58191294403423
20
367.03651762288814
10
369.5819129440352
20
368.53651762288814
10
373.58191294403525
20
368.53651762288536
10
373.58191294403423
20
367.03651762288541
10
377.18191294403471
20
367.03651762288297
10
377.1819129440334
20
365.23651762288301
10
375.58191294403355
20
365.23651762288415
0
LWPOLYLINE
5
135
100
AcDbEntity
8
0
100
AcDbPolyline
90
12
70
1
43
0.0
10
486.8819129440318
20
362.73651762280826
10
486.8819129440335
20
365.23651762280826
10
485.28191294403359
20
365.23651762280934
10
485.28191294403484
20
367.03651762280924
10
488.88191294403487
20
367.03651762280685
10
488.88191294403583
20
368.53651762280691
10
492.88191294403589
20
368.53651762280413
10
492.88191294403487
20
367.03651762280413
10
496.48191294403478
20
367.03651762280168
10
496.48191294403347
20
365.23651762280173
10
494.8819129440335
20
365.23651762280281
10
494.8819129440318
20
362.73651762280281
0
LWPOLYLINE
5
136
100
AcDbEntity
8
0
100
AcDbPolyline
90
12
70
1
43
0.0
10
674.08191294403332
20
365.23651762268088
10
674.08191294403468
20
367.03651762268078
10
677.68191294403414
20
367.03651762267839
10
677.68191294403528
20
368.53651762267828
10
681.68191294403528
20
368.5365176226756
10
681.68191294403414
20
367.03651762267566
10
685.2819129440345
20
367.03651762267322
10
685.28191294403337
20
365.23651762267326
10
683.68191294403368
20
365.23651762267434
10
683.68191294403209
20
362.73651762267434
10
675.68191294403186
20
362.73651762267974
10
675.68191294403368
20
365.2365176226798
0
LWPOLYLINE
5
137
100
AcDbEntity
8
0
100
AcDbPolyline
90
12
70
1
43
0.0
10
629.18191294403186
20
362.7365176227114
10
629.18191294403357
20
365.2365176227114
10
627.58191294403355
20
365.23651762271248
10
627.58191294403491
20
367.03651762271244
10
631.18191294403471
20
367.03651762270994
10
631.18191294403573
20
368.53651762270999
10
635.18191294403573
20
368.53651762270727
10
635.18191294403482
20
367.03651762270727
10
638.78191294403473
20
367.03651762270482
10
638.78191294403348
20
365.23651762270492
10
637.18191294403357
20
365.23651762270595
10
637.18191294403186
20
362.73651762270595
0
LWPOLYLINE
5
138
100
AcDbEntity
8
0
100
AcDbPolyline
90
12
70
1
43
0.0
10
523.7726738228364
20
315.18882494834759
10
523.77267382283765
20
316.9888249483476
10
527.37267382283767
20
316.98882494834515
10
527.37267382283858
20
318.48882494834515
10
531.37267382283869
20
318.48882494834243
10
531.37267382283767
20
316.98882494834243
10
534.97267382283769
20
316.98882494833992
10
534.97267382283644
20
315.18882494833997
10
533.37267382283642
20
315.18882494834105
10
533.37267382283471
20
312.68882494834111
10
525.3726738228346
20
312.68882494834651
10
525.3726738228363
20
315.18882494834651
0
LWPOLYLINE
5
139
100
AcDbEntity
8
0
100
AcDbPolyline
90
12
70
1
43
0.0
10
506.37267382283471
20
312.68882494835947
10
498.37267382283471
20
312.68882494836487
10
498.37267382283642
20
315.18882494836487
10
496.77267382283628
20
315.18882494836595
10
496.77267382283759
20
316.98882494836596
10
500.37267382283756
20
316.98882494836357
10
500.37267382283858
20
318.48882494836351
10
504.37267382283864
20
318.48882494836084
10
504.37267382283767
20
316.98882494836079
10
507.97267382283763
20
316.98882494835834
10
507.97267382283633
20
315.18882494835839
10
506.37267382283642
20
315.18882494835941
0
LWPOLYLINE
5
140
100
AcDbEntity
8
0
100
AcDbPolyline
90
4
70
1
43
0.0
10
449.93497602242627
20
384.05887469345566
10
437.93497602242638
20
384.05887469346385
10
437.93497602242826
20
386.75887469346378
10
449.93497602242815
20
386.75887469345571
0
LWPOLYLINE
5
141
100
AcDbEntity
8
0
100
AcDbPolyline
90
4
70
1
43
0.0
10
531.4349774156849
20
384.05887469340018
10
531.43497741568683
20
386.75887469340017
10
543.43497741568672
20
386.75887469339204
10
543.4349774156849
20
384.058874693392
0
LWPOLYLINE
5
142
100
AcDbEntity
8
0
100
AcDbPolyline
90
4
70
1
43
0.0
10
428.43497588083324
20
336.75887394841243
10
440.43497588083312
20
336.75887394840424
10
440.4349758808313
20
334.0588739484042
10
428.43497588083142
20
334.05887394841238
0
LWPOLYLINE
5
143
100
AcDbEntity
8
0
100
AcDbPolyline
90
4
70
1
43
0.0
10
566.23497546360056
20
336.75887394831852
10
578.23497546360056
20
336.75887394831034
10
578.23497546359874
20
334.05887394831041
10
566.23497546359874
20
334.05887394831859
0
LWPOLYLINE
5
144
100
AcDbEntity
8
0
100
AcDbPolyline
90
4
70
1
43
0.0
10
701.23497729644157
20
334.05887394822662
10
689.23497729644146
20
334.0588739482348
10
689.23497729644339
20
336.75887394823485
10
701.2349772964435
20
336.75887394822666
0
LWPOLYLINE
5
145
100
AcDbEntity
8
0
100
AcDbPolyline
90
4
70
1
43
0.0
10
697.23497741568497
20
384.05887469328729
10
697.23497741568679
20
386.75887469328728
10
709.23497741568667
20
386.7588746932791
10
709.23497741568463
20
384.05887469327911
0
CIRCLE
5
146
100
AcDbEntity
8
0
100
AcDbCircle
10
483.43497649179341
20
355.35887394837488
30
0
40
1.0500000000000398
210
0
220
0
230
1
0
CIRCLE
5
147
100
AcDbEntity
8
0
100
AcDbCircle
10
475.43497637261805
20
405.35887469343834
30
0
40
1.0500000000000398
210
0
220
0
230
1
0
LWPOLYLINE
5
148
100
AcDbEntity
8
0
100
AcDbPolyline
90
4
70
1
43
0.0
10
568.7349753220717
20
384.05887469337478
10
556.7349753220717
20
384.05887469338296
10
556.73497532207352
20
386.75887469338295
10
568.73497532207352
20
386.75887469337476
0
LWPOLYLINE
5
149
100
AcDbEntity
8
0
100
AcDbPolyline
90
4
70
1
43
0.0
10
473.43497637260356
20
384.05887469343963
10
461.43497637260367
20
384.05887469344782
10
461.43497637260555
20
386.75887469344781
10
473.43497637260543
20
386.75887469343962
0
LWPOLYLINE
5
150
100
AcDbEntity
8
0
100
AcDbPolyline
90
4
70
1
43
0.0
10
481.43497649178073
20
336.75887394837628
10
481.43497649177891
20
334.05887394837634
10
469.43497649177903
20
334.05887394838442
10
469.43497649178084
20
336.75887394838446
0
LWPOLYLINE
5
151
100
AcDbEntity
8
0
100
AcDbPolyline
90
4
70
1
43
0.0
10
594.23497588083308
20
336.75887394829948
10
606.23497588083308
20
336.75887394829135
10
606.23497588083126
20
334.05887394829136
10
594.23497588083126
20
334.05887394829949
0
LWPOLYLINE
5
152
100
AcDbEntity
8
0
100
AcDbPolyline
90
4
70
1
43
0.0
10
639.23497637260357
20
384.05887469332674
10
627.23497637260357
20
384.05887469333493
10
627.23497637260539
20
386.75887469333497
10
639.23497637260539
20
386.75887469332679
0
LWPOLYLINE
5
153
100
AcDbEntity
8
0
100
AcDbPolyline
90
4
70
1
43
0.0
10
551.20997515066165
20
315.35887536393898
10
554.30997515066167
20
315.35887536393693
10
554.30997515065144
20
300.35887536393693
10
551.20997515065142
20
300.35887536393898
0
LWPOLYLINE
5
154
100
AcDbEntity
8
0
100
AcDbPolyline
90
4
70
1
43
0.0
10
720.10997515073996
20
430.35887536382404
10
720.10997515072972
20
415.35887536382404
10
717.0099751507297
20
415.3588753638262
10
717.00997515073993
20
430.3588753638262
0
CIRCLE
5
155
100
AcDbEntity
8
0
100
AcDbCircle
10
552.75997515074494
20
437.85887536393795
30
0
40
1.5500000000000114
210
0
220
0
230
1
0
LWPOLYLINE
5
156
100
AcDbEntity
8
0
100
AcDbPolyline
90
4
70
1
43
0.0
10
554.30997515074
20
430.35887536393687
10
554.30997515072977
20
415.35887536393687
10
551.20997515072986
20
415.35887536393898
10
551.20997515074009
20
430.35887536393898
0
LWPOLYLINE
5
157
100
AcDbEntity
8
0
100
AcDbPolyline
90
4
70
1
43
0.0
10
388.50997515073999
20
430.35887536404977
10
388.50997515072976
20
415.35887536404977
10
385.40997515072974
20
415.35887536405193
10
385.40997515073997
20
430.35887536405193
0
LWPOLYLINE
5
158
100
AcDbEntity
8
0
100
AcDbPolyline
90
4
70
1
43
0.0
10
551.20997515068552
20
350.35887536393898
10
554.30997515068555
20
350.35887536393687
10
554.30997515067531
20
335.35887536393687
10
551.20997515067529
20
335.35887536393898
0
LWPOLYLINE
5
159
100
AcDbEntity
8
0
100
AcDbPolyline
90
4
70
1
43
0.0
10
717.00997515071606
20
395.3588753638262
10
720.10997515071608
20
395.35887536382404
10
720.10997515070585
20
380.35887536382404
10
717.00997515070583
20
380.3588753638262
0
CIRCLE
5
160
100
AcDbEntity
8
0
100
AcDbCircle
10
718.559975150745
20
437.85887536382512
30
0
40
1.5500000000000114
210
0
220
0
230
1
0
LWPOLYLINE
5
161
100
AcDbEntity
8
0
100
AcDbPolyline
90
4
70
1
43
0.0
10
650.73497672278268
20
386.75887469331889
10
662.73497672278268
20
386.75887469331076
10
662.73497672278086
20
384.05887469331077
10
650.73497672278086
20
384.05887469331896
0
LWPOLYLINE
5
162
100
AcDbEntity
8
0
100
AcDbPolyline
90
4
70
1
43
0.0
10
647.23497649178069
20
336.7588739482635
10
647.23497649177887
20
334.05887394826345
10
635.23497649177887
20
334.05887394827164
10
635.23497649178069
20
336.75887394827157
0
LWPOLYLINE
5
163
100
AcDbEntity
8
0
100
AcDbPolyline
90
4
70
1
43
0.0
10
496.43497689411038
20
334.05887394836611
10
496.4349768941122
20
336.75887394836604
10
508.43497689411208
20
336.75887394835792
10
508.43497689411026
20
334.05887394835793
0
LWPOLYLINE
5
164
100
AcDbEntity
8
0
100
AcDbPolyline
90
4
70
1
43
0.0
10
592.23497567225081
20
386.75887469335873
10
592.23497567224899
20
384.0588746933588
10
580.23497567224899
20
384.05887469336687
10
580.23497567225081
20
386.75887469336692
0
LWPOLYLINE
5
165
100
AcDbEntity
8
0
100
AcDbPolyline
90
4
70
1
43
0.0
10
484.93497672278284
20
386.75887469343184
10
496.93497672278272
20
386.75887469342365
10
496.93497672278085
20
384.05887469342366
10
484.93497672278096
20
384.05887469343185
0
LWPOLYLINE
5
166
100
AcDbEntity
8
0
100
AcDbPolyline
90
4
70
1
43
0.0
10
402.93497532207169
20
384.05887469348761
10
390.93497532207181
20
384.0588746934958
10
390.93497532207368
20
386.75887469349584
10
402.93497532207357
20
386.75887469348766
0
LWPOLYLINE
5
167
100
AcDbEntity
8
0
100
AcDbPolyline
90
4
70
1
43
0.0
10
365.63497741568483
20
384.05887469351296
10
365.63497741568665
20
386.75887469351301
10
377.63497741568671
20
386.75887469350482
10
377.63497741568483
20
384.05887469350489
0
LWPOLYLINE
5
168
100
AcDbEntity
8
0
100
AcDbPolyline
90
12
70
1
43
0.0
10
438.37267382283471
20
312.6888249484058
10
430.3726738228346
20
312.68882494841125
10
430.3726738228363
20
315.1888249484112
10
428.77267382283634
20
315.18882494841228
10
428.77267382283765
20
316.98882494841229
10
432.37267382283761
20
316.98882494840979
10
432.37267382283858
20
318.48882494840984
10
436.37267382283869
20
318.48882494840711
10
436.37267382283767
20
316.98882494840711
10
439.97267382283769
20
316.98882494840467
10
439.97267382283638
20
315.18882494840466
10
438.37267382283642
20
315.18882494840574
0
LWPOLYLINE
5
169
100
AcDbEntity
8
0
100
AcDbPolyline
90
12
70
1
43
0.0
10
574.17267382283865
20
318.48882494831332
10
574.17267382283762
20
316.98882494831327
10
577.77267382283765
20
316.98882494831082
10
577.7726738228364
20
315.18882494831081
10
576.17267382283626
20
315.18882494831195
10
576.17267382283455
20
312.68882494831195
10
568.17267382283467
20
312.68882494831735
10
568.17267382283626
20
315.18882494831735
10
566.57267382283635
20
315.18882494831848
10
566.5726738228376
20
316.98882494831844
10
570.17267382283762
20
316.98882494831599
10
570.17267382283865
20
318.48882494831599
0
LWPOLYLINE
5
170
100
AcDbEntity
8
0
100
AcDbPolyline
90
4
70
1
43
0.0
10
733.93499260741896
20
384.05887469326228
10
721.93499260741896
20
384.05887469327047
10
721.93499260742101
20
386.75887469327046
10
733.9349926074209
20
386.75887469326227
0
LWPOLYLINE
5
171
100
AcDbEntity
8
0
100
AcDbPolyline
90
12
70
1
43
0.0
10
613.68191294403175
20
362.73651762272198
10
605.68191294403175
20
362.73651762272743
10
605.68191294403346
20
365.23651762272743
10
604.08191294403355
20
365.23651762272846
10
604.0819129440348
20
367.03651762272841
10
607.68191294403482
20
367.03651762272602
10
607.68191294403573
20
368.53651762272597
10
611.68191294403584
20
368.5365176227233
10
611.68191294403482
20
367.03651762272324
10
615.28191294403473
20
367.03651762272079
10
615.28191294403337
20
365.2365176227209
10
613.68191294403346
20
365.23651762272198
0
LWPOLYLINE
5
172
100
AcDbEntity
8
0
100
AcDbPolyline
90
12
70
1
43
0.0
10
463.38191294403191
20
362.73651762282429
10
463.38191294403362
20
365.23651762282429
10
461.78191294403348
20
365.23651762282543
10
461.78191294403473
20
367.03651762282533
10
465.38191294403487
20
367.03651762282283
10
465.38191294403589
20
368.53651762282288
10
469.38191294403578
20
368.53651762282016
10
469.38191294403481
20
367.03651762282016
10
472.98191294403478
20
367.03651762281766
10
472.98191294403352
20
365.2365176228177
10
471.38191294403356
20
365.23651762281884
10
471.38191294403185
20
362.73651762281884
0
LWPOLYLINE
5
173
100
AcDbEntity
8
0
100
AcDbPolyline
90
12
70
1
43
0.0
10
392.8819129440318
20
362.73651762287227
10
392.8819129440335
20
365.23651762287227
10
391.28191294403348
20
365.23651762287335
10
391.28191294403479
20
367.0365176228733
10
394.88191294403475
20
367.0365176228708
10
394.88191294403578
20
368.53651762287086
10
398.88191294403583
20
368.53651762286813
10
398.88191294403487
20
367.03651762286813
10
402.48191294403466
20
367.03651762286569
10
402.48191294403341
20
365.23651762286579
10
400.88191294403345
20
365.23651762286681
10
400.88191294403174
20
362.73651762286681
0
LWPOLYLINE
5
174
100
AcDbEntity
8
0
100
AcDbPolyline
90
12
70
1
43
0.0
10
508.28191294403348
20
365.23651762279371
10
508.28191294403467
20
367.03651762279367
10
511.88191294403407
20
367.03651762279122
10
511.88191294403521
20
368.53651762279122
10
515.88191294403543
20
368.53651762278849
10
515.8819129440343
20
367.03651762278855
10
519.48191294403478
20
367.03651762278611
10
519.48191294403341
20
365.23651762278621
10
517.88191294403362
20
365.23651762278723
10
517.88191294403202
20
362.73651762278718
10
509.88191294403191
20
362.73651762279263
10
509.88191294403362
20
365.23651762279263
0
LWPOLYLINE
5
175
100
AcDbEntity
8
0
100
AcDbPolyline
90
12
70
1
43
0.0
10
652.68191294403186
20
362.73651762269537
10
652.68191294403346
20
365.23651762269537
10
651.08191294403355
20
365.23651762269651
10
651.0819129440348
20
367.03651762269646
10
654.68191294403482
20
367.03651762269396
10
654.68191294403584
20
368.53651762269402
10
658.68191294403573
20
368.53651762269124
10
658.68191294403471
20
367.03651762269124
10
662.28191294403484
20
367.03651762268873
10
662.28191294403359
20
365.23651762268884
10
660.68191294403368
20
365.23651762268997
10
660.68191294403186
20
362.73651762268997
0
LWPOLYLINE
5
176
100
AcDbEntity
8
0
100
AcDbPolyline
90
12
70
1
43
0.0
10
731.88191294403168
20
362.73651762264143
10
723.88191294403157
20
362.73651762264694
10
723.88191294403327
20
365.236517622647
10
722.28191294403302
20
365.23651762264808
10
722.28191294403416
20
367.03651762264798
10
725.88191294403373
20
367.03651762264553
10
725.88191294403487
20
368.53651762264553
10
729.88191294403521
20
368.5365176226428
10
729.88191294403373
20
367.03651762264286
10
733.48191294403421
20
367.03651762264042
10
733.48191294403307
20
365.23651762264052
10
731.88191294403339
20
365.2365176226416
0
LWPOLYLINE
5
177
100
AcDbEntity
8
0
100
AcDbPolyline
90
12
70
1
43
0.0
10
672.17267382283467
20
312.68882494824658
10
664.17267382283467
20
312.68882494825203
10
664.17267382283637
20
315.18882494825198
10
662.57267382283635
20
315.18882494825311
10
662.5726738228376
20
316.98882494825307
10
666.17267382283762
20
316.98882494825062
10
666.17267382283853
20
318.48882494825062
10
670.17267382283865
20
318.48882494824795
10
670.17267382283762
20
316.98882494824795
10
673.77267382283765
20
316.98882494824545
10
673.7726738228364
20
315.18882494824544
10
672.17267382283637
20
315.18882494824658
0
LWPOLYLINE
5
178
100
AcDbEntity
8
0
100
AcDbPolyline
90
12
70
1
43
0.0
10
689.57267382283658
20
315.1888249482347
10
689.57267382283794
20
316.98882494823471
10
693.17267382283774
20
316.98882494823226
10
693.17267382283853
20
318.48882494823226
10
697.17267382283865
20
318.48882494822954
10
697.17267382283785
20
316.98882494822954
10
700.77267382283799
20
316.98882494822709
10
700.77267382283651
20
315.18882494822708
10
699.17267382283626
20
315.18882494822822
10
699.17267382283455
20
312.68882494822822
10
691.17267382283467
20
312.68882494823367
10
691.17267382283649
20
315.18882494823362
0
LWPOLYLINE
5
179
100
AcDbEntity
8
0
100
AcDbPolyline
90
12
70
1
43
0.0
10
645.17267382283637
20
315.18882494826494
10
645.17267382283467
20
312.68882494826494
10
637.17267382283467
20
312.68882494827039
10
637.17267382283637
20
315.18882494827039
10
635.57267382283635
20
315.18882494827147
10
635.57267382283771
20
316.98882494827149
10
639.17267382283751
20
316.98882494826904
10
639.17267382283853
20
318.48882494826904
10
643.17267382283853
20
318.48882494826631
10
643.17267382283762
20
316.98882494826631
10
646.77267382283776
20
316.98882494826387
10
646.7726738228364
20
315.18882494826386
0
LWPOLYLINE
5
180
100
AcDbEntity
8
0
100
AcDbPolyline
90
4
70
1
43
0.0
10
685.73497706550768
20
384.05887469329514
10
673.73497706550756
20
384.05887469330332
10
673.73497706550938
20
386.75887469330326
10
685.73497706550961
20
386.75887469329507
0
LWPOLYLINE
5
181
100
AcDbEntity
8
0
100
AcDbPolyline
90
4
70
1
43
0.0
10
662.23497689411022
20
334.05887394825328
10
662.23497689411204
20
336.75887394825327
10
674.23497689411204
20
336.75887394824497
10
674.23497689411022
20
334.05887394824504
0
LWPOLYLINE
5
182
100
AcDbEntity
8
0
100
AcDbPolyline
90
4
70
1
43
0.0
10
535.43497729644162
20
334.05887394833951
10
523.43497729644173
20
334.0588739483477
10
523.43497729644355
20
336.75887394834774
10
535.43497729644344
20
336.7588739483395
0
LWPOLYLINE
5
183
100
AcDbEntity
8
0
100
AcDbPolyline
90
4
70
1
43
0.0
10
615.73497602242628
20
384.05887469334277
10
603.73497602242628
20
384.0588746933509
10
603.7349760224281
20
386.75887469335095
10
615.7349760224281
20
386.75887469334276
0
LWPOLYLINE
5
184
100
AcDbEntity
8
0
100
AcDbPolyline
90
4
70
1
43
0.0
10
519.93497706550761
20
384.05887469340797
10
507.93497706550767
20
384.05887469341616
10
507.93497706550954
20
386.75887469341615
10
519.93497706550943
20
386.75887469340802
0
LWPOLYLINE
5
185
100
AcDbEntity
8
0
100
AcDbPolyline
90
4
70
1
43
0.0
10
426.43497567225086
20
386.75887469347163
10
426.43497567224898
20
384.05887469347164
10
414.4349756722491
20
384.05887469347982
10
414.43497567225097
20
386.75887469347981
0
CIRCLE
5
186
100
AcDbEntity
8
0
100
AcDbCircle
10
623.30997515066872
20
325.35887536388992
30
0
40
1.5000000000000568
210
0
220
0
230
1
0
CIRCLE
5
187
100
AcDbEntity
8
0
100
AcDbCircle
10
457.50997515066854
20
325.35887536400281
30
0
40
1.5000000000000568
210
0
220
0
230
1
0
CIRCLE
5
188
100
AcDbEntity
8
0
100
AcDbCircle
10
623.309975150696
20
365.35887536388992
30
0
40
1.5000000000000568
210
0
220
0
230
1
0
CIRCLE
5
189
100
AcDbEntity
8
0
100
AcDbCircle
10
457.50997515069582
20
365.35887536400281
30
0
40
1.5000000000000568
210
0
220
0
230
1
0
LWPOLYLINE
5
190
100
AcDbEntity
8
0
100
AcDbPolyline
90
4
70
1
43
0.0
10
455.95997515070633
20
380.35887536400389
10
455.95997515071656
20
395.35887536400389
10
459.05997515071675
20
395.35887536400173
10
459.05997515070652
20
380.35887536400173
0
LWPOLYLINE
5
191
100
AcDbEntity
8
0
100
AcDbPolyline
90
4
70
1
43
0.0
10
621.7599751507064
20
380.358875363891
10
621.75997515071663
20
395.358875363891
10
624.85997515071676
20
395.35887536388884
10
624.85997515070653
20
380.35887536388884
0
LWPOLYLINE
5
192
100
AcDbEntity
8
0
100
AcDbPolyline
90
4
70
1
43
0.0
10
385.40997515071626
20
395.35887536405193
10
388.50997515071629
20
395.35887536404977
10
388.50997515070617
20
380.35887536404977
10
385.40997515070603
20
380.35887536405193
0
LWPOLYLINE
5
193
100
AcDbEntity
8
0
100
AcDbPolyline
90
4
70
1
43
0.0
10
551.2099751507161
20
395.35887536393898
10
554.30997515071624
20
395.35887536393687
10
554.30997515070601
20
380.35887536393687
10
551.20997515070587
20
380.35887536393898
0
CIRCLE
5
194
100
AcDbEntity
8
0
100
AcDbCircle
10
386.95997515074509
20
437.85887536405085
30
0
40
1.5500000000000114
210
0
220
0
230
1
0
LWPOLYLINE
5
195
100
AcDbEntity
8
0
100
AcDbPolyline
90
4
70
1
43
0.0
10
729.77267382282344
20
296.18882494820741
10
729.77267382282571
20
299.18882494820741
10
743.77267382282582
20
299.18882494819786
10
743.77267382282389
20
296.18882494819781
0
LWPOLYLINE
5
196
100
AcDbEntity
8
0
100
AcDbPolyline
90
4
70
1
43
0.0
10
624.85997515067584
20
335.35887536388884
10
621.75997515067581
20
335.358875363891
10
621.75997515068593
20
350.358875363891
10
624.85997515068584
20
350.35887536388884
0
LWPOLYLINE
5
197
100
AcDbEntity
8
0
100
AcDbPolyline
90
4
70
1
43
0.0
10
459.05997515067583
20
335.35887536400173
10
455.95997515067563
20
335.35887536400389
10
455.95997515068586
20
350.35887536400389
10
459.05997515068589
20
350.35887536400173
0
LWPOLYLINE
5
198
100
AcDbEntity
8
0
100
AcDbPolyline
90
4
70
1
43
0.0
10
459.05997515066218
20
315.35887536400173
10
459.05997515065195
20
300.35887536400173
10
455.95997515065193
20
300.35887536400389
10
455.95997515066199
20
315.35887536400389
0
LWPOLYLINE
5
199
100
AcDbEntity
8
0
100
AcDbPolyline
90
4
70
1
43
0.0
10
723.77267382282412
20
296.18882494821145
10
716.77267382282355
20
296.18882494821617
42
-0.99999999999999989
10
716.77267382282491
20
299.18882494821622
10
723.77267382282525
20
299.1888249482115
42
-0.99999999999999989
0
LWPOLYLINE
5
200
100
AcDbEntity
8
0
100
AcDbPolyline
90
4
70
1
43
0.0
10
624.85997515066219
20
315.3588753638889
10
624.85997515065196
20
300.3588753638889
10
621.75997515065194
20
300.358875363891
10
621.75997515066217
20
315.358875363891
0
CIRCLE
5
201
100
AcDbEntity
8
0
100
AcDbCircle
10
641.23497637261812
20
405.3588746933255
30
0
40
1.0500000000000398
210
0
220
0
230
1
0
CIRCLE
5
202
100
AcDbEntity
8
0
100
AcDbCircle
10
594.23497567226354
20
405.35887469335751
30
0
40
1.0500000000000398
210
0
220
0
230
1
0
CIRCLE
5
203
100
AcDbEntity
8
0
100
AcDbCircle
10
617.73497602244083
20
405.35887469334148
30
0
40
1.0500000000000398
210
0
220
0
230
1
0
CIRCLE
5
204
100
AcDbEntity
8
0
100
AcDbCircle
10
608.23497588084581
20
355.3588739482899
30
0
40
1.0500000000000398
210
0
220
0
230
1
0
CIRCLE
5
205
100
AcDbEntity
8
0
100
AcDbCircle
10
545.43497741569934
20
405.3588746933907
30
0
40
1.0500000000000398
210
0
220
0
230
1
0
CIRCLE
5
206
100
AcDbEntity
8
0
100
AcDbCircle
10
664.73497672279541
20
405.35887469330942
30
0
40
1.0500000000000398
210
0
220
0
230
1
0
CIRCLE
5
207
100
AcDbEntity
8
0
100
AcDbCircle
10
451.93497602244076
20
405.35887469345431
30
0
40
1.0500000000000398
210
0
220
0
230
1
0
CIRCLE
5
208
100
AcDbEntity
8
0
100
AcDbCircle
10
521.93497706552205
20
405.35887469340673
30
0
40
1.0500000000000398
210
0
220
0
230
1
0
CIRCLE
5
209
100
AcDbEntity
8
0
100
AcDbCircle
10
676.23497689412466
20
355.35887394824357
30
0
40
1.0499999999998977
210
0
220
0
230
1
0
CIRCLE
5
210
100
AcDbEntity
8
0
100
AcDbCircle
10
735.93499260743329
20
405.35887469326099
30
0
40
1.0499999999998977
210
0
220
0
230
1
0
CIRCLE
5
211
100
AcDbEntity
8
0
100
AcDbCircle
10
537.43497729645605
20
355.3588739483381
30
0
40
1.0500000000000398
210
0
220
0
230
1
0
CIRCLE
5
212
100
AcDbEntity
8
0
100
AcDbCircle
10
498.93497672279534
20
405.35887469342236
30
0
40
1.0500000000000398
210
0
220
0
230
1
0
CIRCLE
5
213
100
AcDbEntity
8
0
100
AcDbCircle
10
711.2349774156994
20
405.35887469327781
30
0
40
1.0499999999998977
210
0
220
0
230
1
0
CIRCLE
5
214
100
AcDbEntity
8
0
100
AcDbCircle
10
703.23497729645601
20
355.35887394822521
30
0
40
1.0499999999998977
210
0
220
0
230
1
0
CIRCLE
5
215
100
AcDbEntity
8
0
100
AcDbCircle
10
510.43497689412476
20
355.35887394835646
30
0
40
1.0500000000000398
210
0
220
0
230
1
0
CIRCLE
5
216
100
AcDbEntity
8
0
100
AcDbCircle
10
404.93497532208619
20
405.35887469348637
30
0
40
1.0500000000000398
210
0
220
0
230
1
0
CIRCLE
5
217
100
AcDbEntity
8
0
100
AcDbCircle
10
442.4349758808458
20
355.35887394840273
30
0
40
1.0500000000000398
210
0
220
0
230
1
0
LWPOLYLINE
5
218
100
AcDbEntity
8
0
100
AcDbPolyline
90
4
70
1
43
0.0
10
624.85997515073018
20
415.35887536388884
10
621.75997515073027
20
415.358875363891
10
621.7599751507405
20
430.358875363891
10
624.85997515074041
20
430.35887536388884
0
LWPOLYLINE
5
219
100
AcDbEntity
8
0
100
AcDbPolyline
90
4
70
1
43
0.0
10
459.05997515073022
20
415.35887536400173
10
455.9599751507302
20
415.35887536400389
10
455.95997515074043
20
430.35887536400389
10
459.05997515074046
20
430.35887536400173
0
CIRCLE
5
220
100
AcDbEntity
8
0
100
AcDbCircle
10
428.43497567226348
20
405.35887469347028
30
0
40
1.0500000000000398
210
0
220
0
230
1
0
CIRCLE
5
221
100
AcDbEntity
8
0
100
AcDbCircle
10
379.63497741569938
20
405.35887469350359
30
0
40
1.0500000000000398
210
0
220
0
230
1
0
CIRCLE
5
222
100
AcDbEntity
8
0
100
AcDbCircle
10
570.73497532208626
20
405.35887469337348
30
0
40
1.0500000000000398
210
0
220
0
230
1
0
CIRCLE
5
223
100
AcDbEntity
8
0
100
AcDbCircle
10
580.2349754636133
20
355.35887394830894
30
0
40
1.0500000000000398
210
0
220
0
230
1
0
CIRCLE
5
224
100
AcDbEntity
8
0
100
AcDbCircle
10
687.73497706552212
20
405.35887469329384
30
0
40
1.0499999999998977
210
0
220
0
230
1
0
CIRCLE
5
225
100
AcDbEntity
8
0
100
AcDbCircle
10
649.23497649179342
20
355.35887394826199
30
0
40
1.0500000000000398
210
0
220
0
230
1
0
LWPOLYLINE
5
226
100
AcDbEntity
8
0
100
AcDbPolyline
90
71
70
1
43
0.0
10
359.9849697378927
20
429.78387502879309
10
356.17384881130465
20
429.78387502879571
42
3.509968993182496
10
356.17384881129954
20
421.98387502879564
10
359.98496973788747
20
421.98387502879308
10
359.98496973785177
20
369.57269578567673
42
0.41421356237308454
10
369.88496973784498
20
359.67269578567004
10
410.43496813969557
20
359.67269578564242
42
-0.41421356237309304
10
420.53496813968854
20
349.57269578563557
10
420.53496813965893
20
306.05149230544271
42
0.6052284865600448
10
422.10473662286734
20
305.2296870514175
42
-1.9101465651654483
10
422.10473662285892
20
292.738247190251
42
0.60522848656007755
10
420.53496813964921
20
291.91644193622801
10
420.53496813964489
20
285.35887536402799
10
772.43497261744415
20
285.3588753637884
10
772.43497261745438
20
300.3588753637884
10
778.43497261745426
20
300.35887536378431
10
778.4349726174645
20
315.35887536378431
10
772.43497261746461
20
315.3588753637884
10
772.43497261747029
20
323.8588753637884
10
764.93497261747029
20
323.85887536379352
10
764.93497261746938
20
322.50887536379355
10
762.43497261746938
20
322.50887536379525
10
762.43497261747029
20
323.85887536379522
10
761.93497261747007
20
323.85887536379556
10
761.93497513204215
20
325.35887726369361
10
761.93497261747211
20
326.85887536379551
10
762.43497261747223
20
326.85887536379528
10
762.43497261747302
20
328.20887536379524
10
764.93497261747302
20
328.20887536379354
10
764.93497261747223
20
326.85887536379357
10
772.43497261747223
20
326.85887536378846
10
772.43497261747825
20
335.35887536378834
10
778.43497261747814
20
335.35887536378431
10
778.43497261748803
20
350.35887536378431
10
772.43497261748814
20
350.35887536378834
10
772.43497261749758
20
363.8588753637884
10
764.93497261749758
20
363.85887536379352
10
764.93497261749667
20
362.50887536379355
10
762.43497261749667
20
362.50887536379525
10
762.43497261749758
20
363.85887536379522
10
761.93497261749735
20
363.85887536379556
10
761.93497513206921
20
365.35887346389751
10
761.9349726174994
20
366.85887536379551
10
762.43497261749951
20
366.85887536379528
10
762.43497261750031
20
368.20887536379524
10
764.93497261750031
20
368.20887536379354
10
764.93497261749951
20
366.85887536379357
10
772.43497261749951
20
366.85887536378846
10
772.43497261750861
20
380.35887536378834
10
778.43497261750849
20
380.35887536378431
10
778.43497261751872
20
395.35887536378431
10
772.43497261751884
20
395.35887536378834
10
772.43497261752486
20
403.8588753637884
10
764.93497261752486
20
403.85887536379352
10
764.93497261752373
20
402.50887536379355
10
762.43497261752373
20
402.50887536379525
10
762.43497261752486
20
403.85887536379522
10
761.93497261752464
20
403.85887536379556
10
761.9349751320965
20
405.35887346389751
10
761.93497261752668
20
406.85887536379551
10
762.4349726175268
20
406.85887536379528
10
762.43497261752759
20
408.20887536379524
10
764.93497261752759
20
408.20887536379354
10
764.9349726175268
20
406.85887536379357
10
772.4349726175268
20
406.85887536378846
10
772.43497261753248
20
415.35887536378834
10
778.43497261753237
20
415.35887536378431
10
778.4349726175426
20
430.35887536378431
10
772.43497261754271
20
430.35887536378834
10
772.43497261755294
20
445.35887536378834
10
359.98496973790338
20
445.35887536406915
0
CIRCLE
5
227
100
AcDbEntity
8
0
100
AcDbCircle
10
343.37500482424758
20
316.5850252078119
30
0
40
1.4999999999999858
210
0
220
0
230
1
0
CIRCLE
5
228
100
AcDbEntity
8
0
100
AcDbCircle
10
389.52500162795491
20
187.50000000000878
30
0
40
1.5500000000000114
210
0
220
0
230
1
0
LWPOLYLINE
5
229
100
AcDbEntity
8
0
100
AcDbPolyline
90
4
70
1
43
0.0
10
21.049998401847123
20
316.1700504155998
10
35.049998401847127
20
316.17005041560049
10
35.049998401846963
20
319.17005041560049
10
21.049998401846981
20
319.1700504155998
0
CIRCLE
5
230
100
AcDbEntity
8
0
100
AcDbCircle
10
297.35000166520433
20
260.00000141561435
30
0
40
1.0499999999999687
210
0
220
-0
230
1
0
CIRCLE
5
231
100
AcDbEntity
8
0
100
AcDbCircle
10
141.05000180676794
20
210.00000067054816
30
0
40
1.0500000000000043
210
0
220
-0
230
1
0
CIRCLE
5
232
100
AcDbEntity
8
0
100
AcDbCircle
10
234.55000320002651
20
210.00000067055299
30
0
40
1.0499999999999687
210
0
220
-0
230
1
0
CIRCLE
5
233
100
AcDbEntity
8
0
100
AcDbCircle
10
269.35000124797182
20
260.00000141561287
30
0
40
1.0499999999999687
210
0
220
-0
230
1
0
LWPOLYLINE
5
234
100
AcDbEntity
8
0
100
AcDbPolyline
90
4
70
1
43
0.0
10
209.05000284984825
20
228.60000067055176
10
209.05000284984811
20
231.30000067055175
10
197.05000284984811
20
231.30000067055113
10
197.05000284984828
20
228.60000067055114
0
LWPOLYLINE
5
235
100
AcDbEntity
8
0
100
AcDbPolyline
90
12
70
1
43
0.0
10
396.2969387283855
20
252.62235774118366
10
388.2969387283855
20
252.62235774118324
10
388.29693872838561
20
250.12235774118321
10
386.69693872838536
20
250.12235774118318
10
386.69693872838548
20
248.3223577411832
10
390.29693872838493
20
248.3223577411834
10
390.29693872838504
20
246.8223577411834
10
394.29693872838527
20
246.82235774118362
10
394.29693872838516
20
248.32235774118357
10
397.89693872838552
20
248.32235774118374
10
397.89693872838541
20
250.12235774118366
10
396.29693872838561
20
250.12235774118358
0
CIRCLE
5
236
100
AcDbEntity
8
0
100
AcDbCircle
10
117.55000145659065
20
210.00000067054697
30
0
40
1.0500000000000043
210
0
220
-0
230
1
0
CIRCLE
5
237
100
AcDbEntity
8
0
100
AcDbCircle
10
94.050001106413362
20
210.00000067054572
30
0
40
1.0500000000000043
210
0
220
-0
230
1
0
LWPOLYLINE
5
238
100
AcDbEntity
8
0
100
AcDbPolyline
90
4
70
1
43
0.0
10
336.35000227615092
20
278.60000141561625
10
336.3500022761508
20
281.30000141561624
10
324.3500022761508
20
281.30000141561561
10
324.35000227615092
20
278.60000141561562
0
CIRCLE
5
239
100
AcDbEntity
8
0
100
AcDbCircle
10
400.35000320002655
20
210.0000006705616
30
0
40
1.0499999999999687
210
0
220
-0
230
1
0
CIRCLE
5
240
100
AcDbEntity
8
0
100
AcDbCircle
10
259.85000110641334
20
210.0000006705543
30
0
40
1.0499999999999687
210
0
220
-0
230
1
0
CIRCLE
5
241
100
AcDbEntity
8
0
100
AcDbCircle
10
425.65000110641336
20
210.00000067056291
30
0
40
1.0499999999999687
210
0
220
-0
230
1
0
LWPOLYLINE
5
242
100
AcDbEntity
8
0
100
AcDbPolyline
90
4
70
1
43
0.0
10
339.85000250712153
20
228.60000067055853
10
351.85000250712153
20
228.60000067055915
10
351.85000250712136
20
231.30000067055914
10
339.85000250712147
20
231.30000067055852
0
CIRCLE
5
243
100
AcDbEntity
8
0
100
AcDbCircle
10
365.35000267848329
20
260.00000141561782
30
0
40
1.0499999999999687
210
0
220
-0
230
1
0
CIRCLE
5
244
100
AcDbEntity
8
0
100
AcDbCircle
10
306.85000180676792
20
210.00000067055677
30
0
40
1.0499999999999687
210
0
220
-0
230
1
0
CIRCLE
5
245
100
AcDbEntity
8
0
100
AcDbCircle
10
376.85000284984926
20
210.00000067056038
30
0
40
1.0499999999999687
210
0
220
-0
230
1
0
LWPOLYLINE
5
246
100
AcDbEntity
8
0
100
AcDbPolyline
90
4
70
1
43
0.0
10
283.35000166520337
20
278.60000141561352
10
295.35000166520331
20
278.60000141561414
10
295.35000166520314
20
281.30000141561413
10
283.35000166520319
20
281.30000141561351
0
LWPOLYLINE
5
247
100
AcDbEntity
8
0
100
AcDbPolyline
90
4
70
1
43
0.0
10
127.05000180676699
20
228.60000067054753
10
139.05000180676697
20
228.60000067054813
10
139.05000180676683
20
231.30000067054812
10
127.05000180676684
20
231.30000067054752
0
CIRCLE
5
248
100
AcDbEntity
8
0
100
AcDbCircle
10
226.55000308081466
20
260.00000141561065
30
0
40
1.0500000000000043
210
0
220
-0
230
1
0
CIRCLE
5
249
100
AcDbEntity
8
0
100
AcDbCircle
10
338.35000227615194
20
260.00000141561645
30
0
40
1.0499999999999687
210
0
220
-0
230
1
0
CIRCLE
5
250
100
AcDbEntity
8
0
100
AcDbCircle
10
211.05000284984922
20
210.0000006705518
30
0
40
1.0500000000000043
210
0
220
-0
230
1
0
LWPOLYLINE
5
251
100
AcDbEntity
8
0
100
AcDbPolyline
90
4
70
1
43
0.0
10
423.65000110641228
20
231.30000067056284
10
411.65000110641233
20
231.30000067056221
10
411.65000110641245
20
228.60000067056228
10
423.65000110641233
20
228.60000067056288
0
LWPOLYLINE
5
252
100
AcDbEntity
8
0
100
AcDbPolyline
90
4
70
1
43
0.0
10
328.35000215694407
20
231.30000067055792
10
316.35000215694413
20
231.30000067055732
10
316.3500021569443
20
228.60000067055728
10
328.35000215694424
20
228.60000067055793
0
LWPOLYLINE
5
253
100
AcDbEntity
8
0
100
AcDbPolyline
90
4
70
1
43
0.0
10
185.55000267848231
20
278.60000141560846
10
197.55000267848231
20
278.60000141560909
10
197.5500026784822
20
281.30000141560907
10
185.5500026784822
20
281.30000141560845
0
LWPOLYLINE
5
254
100
AcDbEntity
8
0
100
AcDbPolyline
90
12
70
1
43
0.0
10
57.39693872838545
20
250.12235774116613
10
57.396938728385543
20
248.32235774116617
10
60.996938728385558
20
248.32235774116637
10
60.996938728385643
20
246.82235774116634
10
64.996938728385643
20
246.82235774116657
10
64.996938728385558
20
248.32235774116663
10
68.596938728385553
20
248.32235774116683
10
68.596938728385467
20
250.1223577411667
10
66.996938728385459
20
250.12235774116661
10
66.996938728385345
20
252.62235774116661
10
58.996938728385331
20
252.62235774116618
10
58.996938728385459
20
250.12235774116618
0
LWPOLYLINE
5
255
100
AcDbEntity
8
0
100
AcDbPolyline
90
12
70
1
43
0.0
10
103.89693872838556
20
248.32235774116862
10
107.49693872838556
20
248.32235774116879
10
107.49693872838563
20
246.82235774116876
10
111.49693872838562
20
246.82235774116896
10
111.49693872838554
20
248.32235774116899
10
115.09693872838554
20
248.32235774116918
10
115.09693872838542
20
250.12235774116908
10
113.49693872838546
20
250.12235774116903
10
113.49693872838532
20
252.62235774116903
10
105.49693872838532
20
252.6223577411686
10
105.49693872838546
20
250.1223577411686
10
103.89693872838546
20
250.12235774116851
0
CIRCLE
5
256
100
AcDbEntity
8
0
100
AcDbCircle
10
199.55000267848331
20
260.00000141560923
30
0
40
1.0500000000000043
210
0
220
-0
230
1
0
CIRCLE
5
257
100
AcDbEntity
8
0
100
AcDbCircle
10
172.55000227615196
20
260.00000141560787
30
0
40
1.0500000000000043
210
0
220
-0
230
1
0
CIRCLE
5
258
100
AcDbEntity
8
0
100
AcDbCircle
10
188.05000250712251
20
210.00000067055061
30
0
40
1.0500000000000043
210
0
220
-0
230
1
0
CIRCLE
5
259
100
AcDbEntity
8
0
100
AcDbCircle
10
330.35000215694527
20
210.00000067055797
30
0
40
1.0499999999999687
210
0
220
-0
230
1
0
LWPOLYLINE
5
260
100
AcDbEntity
8
0
100
AcDbPolyline
90
4
70
1
43
0.0
10
386.35000320002547
20
231.30000067056091
10
386.35000320002564
20
228.60000067056092
10
398.35000320002553
20
228.60000067056154
10
398.35000320002536
20
231.30000067056156
0
LWPOLYLINE
5
261
100
AcDbEntity
8
0
100
AcDbPolyline
90
12
70
1
43
0.0
10
174.39693872838561
20
248.32235774117225
10
177.9969387283856
20
248.32235774117242
10
177.99693872838566
20
246.82235774117237
10
181.99693872838566
20
246.8223577411726
10
181.9969387283856
20
248.32235774117265
10
185.59693872838557
20
248.32235774117282
10
185.59693872838548
20
250.12235774117275
10
183.99693872838552
20
250.12235774117266
10
183.99693872838537
20
252.62235774117266
10
175.99693872838537
20
252.62235774117221
10
175.99693872838549
20
250.12235774117227
10
174.39693872838549
20
250.12235774117215
0
LWPOLYLINE
5
262
100
AcDbEntity
8
0
100
AcDbPolyline
90
4
70
1
43
0.0
10
313.97500093505062
20
200.00000000000486
10
310.87500093505065
20
200.00000000000469
10
310.87500093505139
20
185.00000000000469
10
313.97500093505141
20
185.00000000000486
0
LWPOLYLINE
5
263
100
AcDbEntity
8
0
100
AcDbPolyline
90
4
70
1
43
0.0
10
281.35000145658967
20
228.60000067055549
10
281.35000145658955
20
231.30000067055548
10
269.35000145658955
20
231.30000067055488
10
269.35000145658972
20
228.60000067055489
0
LWPOLYLINE
5
264
100
AcDbEntity
8
0
100
AcDbPolyline
90
12
70
1
43
0.0
10
271.29693872838533
20
252.62235774117721
10
271.2969387283855
20
250.12235774117721
10
269.69693872838553
20
250.12235774117713
10
269.69693872838559
20
248.3223577411772
10
273.29693872838556
20
248.32235774117737
10
273.29693872838567
20
246.82235774117737
10
277.29693872838561
20
246.82235774117754
10
277.29693872838556
20
248.32235774117754
10
280.89693872838558
20
248.32235774117777
10
280.89693872838546
20
250.12235774117769
10
279.2969387283855
20
250.12235774117761
10
279.29693872838538
20
252.62235774117758
0
LWPOLYLINE
5
265
100
AcDbEntity
8
0
100
AcDbPolyline
90
12
70
1
43
0.0
10
36.396938728385472
20
250.12235774116502
10
36.396938728385564
20
248.32235774116504
10
39.996938728385558
20
248.32235774116523
10
39.996938728385643
20
246.82235774116523
10
43.996938728385651
20
246.82235774116546
10
43.996938728385558
20
248.32235774116543
10
47.596938728385553
20
248.32235774116566
10
47.596938728385467
20
250.12235774116562
10
45.996938728385487
20
250.12235774116556
10
45.996938728385359
20
252.6223577411655
10
37.996938728385352
20
252.6223577411651
10
37.996938728385473
20
250.1223577411651
0
LWPOLYLINE
5
266
100
AcDbEntity
8
0
100
AcDbPolyline
90
4
70
1
43
0.0
10
374.85000284984812
20
231.30000067056031
10
362.85000284984818
20
231.30000067055971
10
362.85000284984835
20
228.60000067055972
10
374.85000284984824
20
228.60000067056035
0
LWPOLYLINE
5
267
100
AcDbEntity
8
0
100
AcDbPolyline
90
4
70
1
43
0.0
10
351.35000267848216
20
281.30000141561703
10
351.35000267848227
20
278.60000141561704
10
363.35000267848227
20
278.60000141561761
10
363.35000267848216
20
281.30000141561766
0
CIRCLE
5
268
100
AcDbEntity
8
0
100
AcDbCircle
10
76.07500093505169
20
177.49999999999255
30
0
40
1.5500000000000114
210
0
220
-0
230
1
0
LWPOLYLINE
5
269
100
AcDbEntity
8
0
100
AcDbPolyline
90
4
70
1
43
0.0
10
409.2250009350513
20
185.00000000000981
10
409.2250009350505
20
200.00000000000981
10
406.12500093505059
20
200.00000000000963
10
406.12500093505133
20
185.00000000000963
0
CIRCLE
5
270
100
AcDbEntity
8
0
100
AcDbCircle
10
353.85000250712255
20
210.00000067055919
30
0
40
1.0499999999999687
210
0
220
-0
230
1
0
CIRCLE
5
271
100
AcDbEntity
8
0
100
AcDbCircle
10
71.050000763686668
20
210.00000067054455
30
0
40
1.0500000000000043
210
0
220
-0
230
1
0
LWPOLYLINE
5
272
100
AcDbEntity
8
0
100
AcDbPolyline
90
4
70
1
43
0.0
10
46.550000607220937
20
278.60000141560124
10
58.550000607220923
20
278.60000141560187
10
58.550000607220781
20
281.30000141560186
10
46.550000607220795
20
281.30000141560123
0
LWPOLYLINE
5
273
100
AcDbEntity
8
0
100
AcDbPolyline
90
12
70
1
43
0.0
10
263.28769960722002
20
296.87005041561235
10
263.28769960721996
20
298.37005041561235
10
266.88769960721993
20
298.37005041561258
10
266.88769960721987
20
300.17005041561254
10
265.28769960721991
20
300.17005041561242
10
265.28769960721979
20
302.67005041561242
10
257.28769960721979
20
302.67005041561202
10
257.28769960721996
20
300.17005041561208
10
255.68769960721983
20
300.17005041561197
10
255.68769960721991
20
298.37005041561196
10
259.28769960721991
20
298.37005041561213
10
259.28769960721996
20
296.87005041561213
0
CIRCLE
5
274
100
AcDbEntity
8
0
100
AcDbCircle
10
50.050000450762283
20
210.00000067054344
30
0
40
1.0500000000000043
210
0
220
-0
230
1
0
CIRCLE
5
275
100
AcDbEntity
8
0
100
AcDbCircle
10
164.55000215694523
20
210.00000067054938
30
0
40
1.0500000000000043
210
0
220
-0
230
1
0
LWPOLYLINE
5
276
100
AcDbEntity
8
0
100
AcDbPolyline
90
4
70
1
43
0.0
10
74.525000935047174
20
264.99999999999244
10
77.625000935047197
20
264.99999999999261
10
77.625000935046486
20
279.99999999999261
10
74.525000935046421
20
279.9999999999925
0
LWPOLYLINE
5
277
100
AcDbEntity
8
0
100
AcDbPolyline
90
4
70
1
43
0.0
10
77.625000935048831
20
234.99999999999264
10
74.525000935048695
20
234.99999999999247
10
74.525000935049491
20
219.99999999999247
10
77.625000935049613
20
219.99999999999261
0
LWPOLYLINE
5
278
100
AcDbEntity
8
0
100
AcDbPolyline
90
4
70
1
43
0.0
10
240.3250009350472
20
265.00000000000102
10
243.42500093504722
20
265.00000000000119
10
243.42500093504643
20
280.00000000000119
10
240.3250009350464
20
280.00000000000108
0
LWPOLYLINE
5
279
100
AcDbEntity
8
0
100
AcDbPolyline
90
4
70
1
43
0.0
10
243.42500093505134
20
185.00000000000119
10
243.42500093505055
20
200.00000000000119
10
240.32500093505061
20
200.00000000000108
10
240.32500093505132
20
185.00000000000108
0
LWPOLYLINE
5
280
100
AcDbEntity
8
0
100
AcDbPolyline
90
12
70
1
43
0.0
10
46.887699607219808
20
300.17005041560117
10
46.887699607219901
20
298.37005041560116
10
50.487699607219895
20
298.37005041560133
10
50.48769960721998
20
296.87005041560133
10
54.487699607220001
20
296.87005041560155
10
54.487699607219909
20
298.37005041560155
10
58.087699607219903
20
298.37005041560172
10
58.087699607219818
20
300.17005041560174
10
56.487699607219817
20
300.17005041560162
10
56.487699607219696
20
302.67005041560162
10
48.487699607219682
20
302.67005041560117
10
48.48769960721981
20
300.17005041560122
0
LWPOLYLINE
5
281
100
AcDbEntity
8
0
100
AcDbPolyline
90
12
70
1
43
0.0
10
117.8876996072198
20
300.17005041560481
10
117.8876996072199
20
298.37005041560479
10
121.48769960721989
20
298.37005041560502
10
121.48769960721995
20
296.87005041560502
10
125.48769960722001
20
296.87005041560519
10
125.48769960721995
20
298.37005041560525
10
129.08769960721995
20
298.37005041560536
10
129.08769960721983
20
300.17005041560537
10
127.4876996072198
20
300.17005041560532
10
127.48769960721965
20
302.67005041560532
10
119.48769960721968
20
302.67005041560486
10
119.48769960721982
20
300.17005041560486
0
LWPOLYLINE
5
282
100
AcDbEntity
8
0
100
AcDbPolyline
90
4
70
1
43
0.0
10
212.55000308081367
20
278.60000141560982
10
224.55000308081367
20
278.60000141561045
10
224.55000308081355
20
281.30000141561044
10
212.55000308081355
20
281.30000141560981
0
LWPOLYLINE
5
283
100
AcDbEntity
8
0
100
AcDbPolyline
90
4
70
1
43
0.0
10
310.87500093504877
20
235.00000000000469
10
310.87500093504951
20
220.00000000000469
10
313.97500093504965
20
220.00000000000486
10
313.97500093504885
20
235.00000000000486
0
LWPOLYLINE
5
284
100
AcDbEntity
8
0
100
AcDbPolyline
90
4
70
1
43
0.0
10
406.1250009350494
20
220.00000000000963
10
409.22500093504948
20
220.00000000000981
10
409.2250009350488
20
235.00000000000981
10
406.12500093504866
20
235.00000000000963
0
LWPOLYLINE
5
285
100
AcDbEntity
8
0
100
AcDbPolyline
90
4
70
1
43
0.0
10
240.32500093504947
20
220.00000000000102
10
243.42500093504955
20
220.00000000000119
10
243.42500093504879
20
235.00000000000119
10
240.32500093504868
20
235.00000000000108
0
LWPOLYLINE
5
286
100
AcDbEntity
8
0
100
AcDbPolyline
90
4
70
1
43
0.0
10
74.525000935045398
20
299.99999999999244
10
77.625000935045449
20
299.99999999999261
10
77.625000935044682
20
314.99999999999261
10
74.525000935044659
20
314.9999999999925
0
LWPOLYLINE
5
287
100
AcDbEntity
8
0
100
AcDbPolyline
90
4
70
1
43
0.0
10
101.55000124797087
20
278.60000141560408
10
101.55000124797073
20
281.30000141560407
10
89.550001247970741
20
281.30000141560345
10
89.55000124797084
20
278.60000141560351
0
LWPOLYLINE
5
288
100
AcDbEntity
8
0
100
AcDbPolyline
90
12
70
1
43
0.0
10
302.79693872838538
20
252.62235774117883
10
294.79693872838544
20
252.6223577411784
10
294.79693872838556
20
250.1223577411784
10
293.19693872838553
20
250.12235774117835
10
293.19693872838559
20
248.32235774117839
10
296.79693872838561
20
248.32235774117859
10
296.79693872838567
20
246.82235774117856
10
300.79693872838567
20
246.82235774117879
10
300.79693872838556
20
248.32235774117879
10
304.39693872838558
20
248.32235774117896
10
304.39693872838552
20
250.12235774117892
10
302.79693872838556
20
250.12235774117883
0
CIRCLE
5
289
100
AcDbEntity
8
0
100
AcDbCircle
10
407.67500093505163
20
177.50000000000972
30
0
40
1.5500000000000114
210
0
220
-0
230
1
0
CIRCLE
5
290
100
AcDbEntity
8
0
100
AcDbCircle
10
283.35000145659063
20
210.00000067055552
30
0
40
1.0499999999999687
210
0
220
-0
230
1
0
LWPOLYLINE
5
291
100
AcDbEntity
8
0
100
AcDbPolyline
90
12
70
1
43
0.0
10
195.48769960721967
20
302.67005041560884
10
187.4876996072197
20
302.67005041560839
10
187.48769960721984
20
300.17005041560844
10
185.88769960721979
20
300.17005041560833
10
185.8876996072199
20
298.37005041560838
10
189.48769960721989
20
298.37005041560849
10
189.48769960721995
20
296.87005041560849
10
193.48769960722001
20
296.87005041560872
10
193.48769960721995
20
298.37005041560872
10
197.08769960721995
20
298.37005041560894
10
197.08769960721983
20
300.1700504156089
10
195.48769960721981
20
300.17005041560884
0
LWPOLYLINE
5
292
100
AcDbEntity
8
0
100
AcDbPolyline
90
4
70
1
43
0.0
10
257.85000110641226
20
231.30000067055425
10
245.85000110641229
20
231.30000067055366
10
245.85000110641244
20
228.60000067055367
10
257.85000110641238
20
228.60000067055427
0
LWPOLYLINE
5
293
100
AcDbEntity
8
0
100
AcDbPolyline
90
4
70
1
43
0.0
10
36.050000450761331
20
228.60000067054284
10
48.050000450761331
20
228.60000067054344
10
48.050000450761189
20
231.30000067054343
10
36.050000450761189
20
231.3000006705428
0
LWPOLYLINE
5
294
100
AcDbEntity
8
0
100
AcDbPolyline
90
12
70
1
43
0.0
10
222.48769960721967
20
302.67005041561021
10
214.48769960721967
20
302.67005041560981
10
214.48769960721984
20
300.17005041560981
10
212.88769960721979
20
300.17005041560969
10
212.8876996072199
20
298.37005041560974
10
216.48769960721989
20
298.37005041560991
10
216.48769960721995
20
296.87005041560997
10
220.48769960722001
20
296.87005041561014
10
220.48769960721995
20
298.37005041561014
10
224.08769960721995
20
298.37005041561031
10
224.08769960721983
20
300.17005041561032
10
222.48769960721978
20
300.17005041561021
0
LWPOLYLINE
5
295
100
AcDbEntity
8
0
100
AcDbPolyline
90
12
70
1
43
0.0
10
293.28769960721974
20
302.6700504156139
10
285.28769960721979
20
302.67005041561345
10
285.28769960721991
20
300.17005041561345
10
283.68769960721988
20
300.17005041561339
10
283.68769960721994
20
298.37005041561338
10
287.28769960721996
20
298.3700504156136
10
287.28769960722002
20
296.87005041561355
10
291.28769960722008
20
296.87005041561378
10
291.28769960722002
20
298.37005041561378
10
294.88769960721999
20
298.37005041561395
10
294.88769960721993
20
300.17005041561396
10
293.28769960721991
20
300.1700504156139
0
LWPOLYLINE
5
296
100
AcDbEntity
8
0
100
AcDbPolyline
90
4
70
1
43
0.0
10
103.5500014565897
20
228.60000067054631
10
115.55000145658968
20
228.60000067054693
10
115.55000145658954
20
231.30000067054692
10
103.55000145658956
20
231.30000067054627
0
LWPOLYLINE
5
297
100
AcDbEntity
8
0
100
AcDbPolyline
90
12
70
1
43
0.0
10
99.487699607219682
20
302.6700504156039
10
91.487699607219639
20
302.67005041560344
10
91.487699607219781
20
300.17005041560344
10
89.887699607219815
20
300.17005041560338
10
89.887699607219929
20
298.37005041560337
10
93.487699607219923
20
298.37005041560354
10
93.48769960721998
20
296.87005041560354
10
97.48769960721998
20
296.87005041560377
10
97.487699607219895
20
298.37005041560371
10
101.08769960721989
20
298.37005041560394
10
101.08769960721979
20
300.17005041560395
10
99.487699607219824
20
300.1700504156039
0
LWPOLYLINE
5
298
100
AcDbEntity
8
0
100
AcDbPolyline
90
12
70
1
43
0.0
10
318.29693872838538
20
252.6223577411796
10
318.2969387283855
20
250.1223577411796
10
316.69693872838553
20
250.12235774117954
10
316.69693872838559
20
248.32235774117962
10
320.29693872838561
20
248.32235774117981
10
320.29693872838561
20
246.82235774117976
10
324.29693872838573
20
246.82235774117999
10
324.29693872838556
20
248.32235774118001
10
327.89693872838552
20
248.32235774118018
10
327.89693872838552
20
250.12235774118011
10
326.29693872838561
20
250.12235774118005
10
326.29693872838544
20
252.62235774118005
0
LWPOLYLINE
5
299
100
AcDbEntity
8
0
100
AcDbPolyline
90
12
70
1
43
0.0
10
341.79693872838538
20
252.62235774118082
10
341.79693872838556
20
250.12235774118082
10
340.19693872838559
20
250.12235774118074
10
340.19693872838559
20
248.32235774118084
10
343.79693872838561
20
248.32235774118104
10
343.79693872838573
20
246.82235774118098
10
347.79693872838561
20
246.82235774118118
10
347.79693872838561
20
248.32235774118124
10
351.39693872838563
20
248.32235774118141
10
351.39693872838552
20
250.1223577411813
10
349.7969387283855
20
250.12235774118125
10
349.79693872838538
20
252.62235774118125
0
LWPOLYLINE
5
300
100
AcDbEntity
8
0
100
AcDbPolyline
90
4
70
1
43
0.0
10
80.050001106412267
20
231.30000067054507
10
80.05000110641241
20
228.60000067054506
10
92.050001106412395
20
228.60000067054571
10
92.050001106412253
20
231.30000067054567
0
LWPOLYLINE
5
301
100
AcDbEntity
8
0
100
AcDbPolyline
90
4
70
1
43
0.0
10
57.050000763685574
20
231.30000067054385
10
57.050000763685716
20
228.60000067054386
10
69.050000763685716
20
228.60000067054449
10
69.050000763685574
20
231.30000067054451
0
CIRCLE
5
302
100
AcDbEntity
8
0
100
AcDbCircle
10
146.62500093504801
20
249.99999999999619
30
0
40
1.4999999999999858
210
0
220
-0
230
1
0
LWPOLYLINE
5
303
100
AcDbEntity
8
0
100
AcDbPolyline
90
12
70
1
43
0.0
10
80.396938728385464
20
250.12235774116732
10
80.39693872838555
20
248.32235774116739
10
83.996938728385544
20
248.32235774116756
10
83.996938728385615
20
246.82235774116754
10
87.996938728385601
20
246.82235774116774
10
87.99693872838553
20
248.32235774116776
10
91.596938728385524
20
248.32235774116796
10
91.596938728385425
20
250.12235774116789
10
89.996938728385459
20
250.12235774116783
10
89.996938728385317
20
252.62235774116778
10
81.996938728385302
20
252.62235774116738
10
81.996938728385445
20
250.12235774116738
0
LWPOLYLINE
5
304
100
AcDbEntity
8
0
100
AcDbPolyline
90
4
70
1
43
0.0
10
145.07500093504541
20
299.99999999999613
10
148.17500093504546
20
299.99999999999631
10
148.17500093504466
20
314.99999999999631
10
145.07500093504464
20
314.99999999999613
0
LWPOLYLINE
5
305
100
AcDbEntity
8
0
100
AcDbPolyline
90
4
70
1
43
0.0
10
148.17500093504719
20
264.99999999999631
10
148.17500093504648
20
279.99999999999631
10
145.07500093504643
20
279.99999999999613
10
145.07500093504717
20
264.99999999999613
0
LWPOLYLINE
5
306
100
AcDbEntity
8
0
100
AcDbPolyline
90
4
70
1
43
0.0
10
150.55000215694412
20
231.30000067054874
10
150.55000215694429
20
228.60000067054872
10
162.55000215694426
20
228.60000067054932
10
162.55000215694412
20
231.30000067054934
0
LWPOLYLINE
5
307
100
AcDbEntity
8
0
100
AcDbPolyline
90
12
70
1
43
0.0
10
361.28769960721968
20
302.67005041561742
10
353.28769960721968
20
302.67005041561697
10
353.28769960721985
20
300.17005041561703
10
351.68769960721988
20
300.17005041561691
10
351.68769960722
20
298.3700504156169
10
355.28769960722002
20
298.37005041561713
10
355.28769960722002
20
296.87005041561713
10
359.28769960722008
20
296.87005041561736
10
359.28769960722008
20
298.3700504156173
10
362.88769960722004
20
298.37005041561753
10
362.88769960721993
20
300.17005041561754
10
361.28769960721979
20
300.17005041561742
0
LWPOLYLINE
5
308
100
AcDbEntity
8
0
100
AcDbPolyline
90
12
70
1
43
0.0
10
230.49693872838554
20
252.62235774117505
10
222.49693872838546
20
252.62235774117465
10
222.49693872838554
20
250.1223577411746
10
220.89693872838538
20
250.12235774117457
10
220.89693872838549
20
248.32235774117464
10
224.49693872838498
20
248.32235774117478
10
224.49693872838512
20
246.82235774117481
10
228.49693872838526
20
246.82235774117501
10
228.49693872838512
20
248.32235774117498
10
232.09693872838554
20
248.32235774117515
10
232.09693872838542
20
250.12235774117505
10
230.4969387283856
20
250.12235774117499
0
LWPOLYLINE
5
309
100
AcDbEntity
8
0
100
AcDbPolyline
90
12
70
1
43
0.0
10
206.99693872838552
20
252.62235774117386
10
198.99693872838543
20
252.62235774117343
10
198.99693872838554
20
250.1223577411734
10
197.39693872838535
20
250.12235774117335
10
197.39693872838546
20
248.32235774117339
10
200.99693872838498
20
248.32235774117356
10
200.99693872838512
20
246.82235774117359
10
204.99693872838523
20
246.82235774117379
10
204.99693872838509
20
248.32235774117376
10
208.59693872838551
20
248.32235774117393
10
208.5969387283854
20
250.12235774117386
10
206.9969387283856
20
250.1223577411738
0
LWPOLYLINE
5
310
100
AcDbEntity
8
0
100
AcDbPolyline
90
4
70
1
43
0.0
10
255.35000124797082
20
278.60000141561204
10
267.35000124797079
20
278.60000141561267
10
267.35000124797062
20
281.30000141561266
10
255.35000124797068
20
281.30000141561203
0
CIRCLE
5
311
100
AcDbEntity
8
0
100
AcDbCircle
10
146.62500093504593
20
289.99999999999619
30
0
40
1.4999999999999858
210
0
220
-0
230
1
0
CIRCLE
5
312
100
AcDbEntity
8
0
100
AcDbCircle
10
312.42500093504805
20
250.0000000000048
30
0
40
1.4999999999999858
210
0
220
-0
230
1
0
LWPOLYLINE
5
313
100
AcDbEntity
8
0
100
AcDbPolyline
90
12
70
1
43
0.0
10
247.79693872838538
20
252.62235774117599
10
247.79693872838553
20
250.12235774117599
10
246.1969387283855
20
250.1223577411759
10
246.19693872838556
20
248.32235774117601
10
249.79693872838556
20
248.32235774117612
10
249.79693872838564
20
246.82235774117612
10
253.79693872838561
20
246.82235774117632
10
253.79693872838556
20
248.32235774117635
10
257.39693872838552
20
248.32235774117657
10
257.39693872838546
20
250.12235774117647
10
255.7969387283855
20
250.12235774117642
10
255.79693872838536
20
252.62235774117639
0
LWPOLYLINE
5
314
100
AcDbEntity
8
0
100
AcDbPolyline
90
4
70
1
43
0.0
10
148.17500093505063
20
199.99999999999631
10
145.07500093505064
20
199.99999999999613
10
145.07500093505141
20
184.99999999999613
10
148.17500093505143
20
184.99999999999628
0
LWPOLYLINE
5
315
100
AcDbEntity
8
0
100
AcDbPolyline
90
4
70
1
43
0.0
10
304.85000180676684
20
231.3000006705567
10
292.85000180676684
20
231.30000067055607
10
292.85000180676701
20
228.60000067055608
10
304.85000180676695
20
228.60000067055671
0
LWPOLYLINE
5
316
100
AcDbEntity
8
0
100
AcDbPolyline
90
4
70
1
43
0.0
10
313.9750009350455
20
300.00000000000489
10
313.9750009350447
20
315.00000000000489
10
310.87500093504468
20
315.00000000000466
10
310.87500093504548
20
300.00000000000466
0
LWPOLYLINE
5
317
100
AcDbEntity
8
0
100
AcDbPolyline
90
4
70
1
43
0.0
10
41.049998401847162
20
316.17005041560083
10
48.04999840184712
20
316.17005041560117
42
0.99999999999999989
10
48.049998401846963
20
319.17005041560111
10
41.049998401846977
20
319.17005041560083
42
0.99999999999999989
0
CIRCLE
5
318
100
AcDbEntity
8
0
100
AcDbCircle
10
241.87500093505167
20
177.50000000000114
30
0
40
1.5500000000000114
210
0
220
-0
230
1
0
LWPOLYLINE
5
319
100
AcDbEntity
8
0
100
AcDbPolyline
90
4
70
1
43
0.0
10
158.55000227615096
20
278.6000014156071
10
170.55000227615096
20
278.60000141560766
10
170.55000227615085
20
281.30000141560765
10
158.55000227615085
20
281.30000141560703
0
LWPOLYLINE
5
320
100
AcDbEntity
8
0
100
AcDbPolyline
90
4
70
1
43
0.0
10
240.32500093504541
20
300.00000000000102
10
243.42500093504543
20
300.00000000000119
10
243.42500093504466
20
315.00000000000119
10
240.32500093504464
20
315.00000000000108
0
CIRCLE
5
321
100
AcDbEntity
8
0
100
AcDbCircle
10
131.55000166520435
20
260.00000141560571
30
0
40
1.0500000000000043
210
0
220
-0
230
1
0
CIRCLE
5
322
100
AcDbEntity
8
0
100
AcDbCircle
10
103.55000124797184
20
260.00000141560429
30
0
40
1.0500000000000043
210
0
220
-0
230
1
0
CIRCLE
5
323
100
AcDbEntity
8
0
100
AcDbCircle
10
60.550000607221875
20
260.00000141560207
30
0
40
1.0500000000000043
210
0
220
-0
230
1
0
LWPOLYLINE
5
324
100
AcDbEntity
8
0
100
AcDbPolyline
90
12
70
1
43
0.0
10
127.39693872838558
20
248.32235774116984
10
130.99693872838557
20
248.32235774117004
10
130.99693872838566
20
246.82235774116998
10
134.99693872838563
20
246.82235774117018
10
134.99693872838554
20
248.32235774117021
10
138.59693872838557
20
248.32235774117038
10
138.59693872838545
20
250.1223577411703
10
136.99693872838549
20
250.12235774117022
10
136.99693872838535
20
252.62235774117022
10
128.99693872838532
20
252.62235774116982
10
128.99693872838549
20
250.12235774116982
10
127.39693872838546
20
250.12235774116974
0
LWPOLYLINE
5
325
100
AcDbEntity
8
0
100
AcDbPolyline
90
4
70
1
43
0.0
10
186.05000250712155
20
228.60000067055057
10
186.05000250712141
20
231.30000067055056
10
174.05000250712141
20
231.30000067054993
10
174.05000250712158
20
228.60000067054995
0
LWPOLYLINE
5
326
100
AcDbEntity
8
0
100
AcDbPolyline
90
4
70
1
43
0.0
10
74.52500093505067
20
199.99999999999247
10
74.525000935051395
20
184.99999999999247
10
77.625000935051418
20
184.99999999999264
10
77.62500093505065
20
199.99999999999264
0
LWPOLYLINE
5
327
100
AcDbEntity
8
0
100
AcDbPolyline
90
4
70
1
43
0.0
10
232.55000320002554
20
228.60000067055299
10
232.5500032000254
20
231.300000670553
10
220.5500032000254
20
231.30000067055235
10
220.55000320002557
20
228.60000067055236
0
LWPOLYLINE
5
328
100
AcDbEntity
8
0
100
AcDbPolyline
90
12
70
1
43
0.0
10
150.89693872838558
20
248.32235774117106
10
154.4969387283856
20
248.32235774117123
10
154.49693872838566
20
246.82235774117117
10
158.49693872838566
20
246.8223577411714
10
158.49693872838557
20
248.32235774117146
10
162.09693872838557
20
248.32235774117157
10
162.09693872838545
20
250.12235774117153
10
160.49693872838549
20
250.12235774117144
10
160.49693872838535
20
252.62235774117144
10
152.49693872838535
20
252.62235774117102
10
152.49693872838549
20
250.12235774117102
10
150.89693872838549
20
250.12235774117096
0
LWPOLYLINE
5
329
100
AcDbEntity
8
0
100
AcDbPolyline
90
4
70
1
43
0.0
10
117.55000166520335
20
278.60000141560494
10
129.55000166520335
20
278.60000141560556
10
129.55000166520324
20
281.30000141560555
10
117.55000166520325
20
281.30000141560492
0
LWPOLYLINE
5
330
100
AcDbEntity
8
0
100
AcDbPolyline
90
12
70
1
43
0.0
10
334.28769960721991
20
300.17005041561606
10
334.28769960721979
20
302.670050415616
10
326.28769960721979
20
302.67005041561561
10
326.28769960721996
20
300.17005041561561
10
324.68769960721988
20
300.17005041561555
10
324.68769960722
20
298.37005041561554
10
328.28769960722002
20
298.37005041561571
10
328.28769960722002
20
296.87005041561571
10
332.28769960722002
20
296.87005041561588
10
332.28769960722002
20
298.37005041561588
10
335.88769960722004
20
298.37005041561611
10
335.88769960721993
20
300.17005041561612
0
LWPOLYLINE
5
331
100
AcDbEntity
8
0
100
AcDbPolyline
90
12
70
1
43
0.0
10
363.19693872838548
20
250.12235774118196
10
363.19693872838559
20
248.322357741182
10
366.79693872838499
20
248.32235774118217
10
366.79693872838516
20
246.8223577411822
10
370.79693872838533
20
246.8223577411824
10
370.79693872838516
20
248.32235774118234
10
374.39693872838563
20
248.32235774118254
10
374.39693872838546
20
250.12235774118244
10
372.79693872838561
20
250.12235774118238
10
372.7969387283855
20
252.62235774118244
10
364.7969387283855
20
252.62235774118204
10
364.7969387283855
20
250.12235774118196
0
LWPOLYLINE
5
332
100
AcDbEntity
8
0
100
AcDbPolyline
90
12
70
1
43
0.0
10
413.59693872838534
20
252.62235774118452
10
413.59693872838545
20
250.12235774118454
10
411.99693872838554
20
250.12235774118449
10
411.99693872838566
20
248.32235774118456
10
415.59693872838568
20
248.32235774118473
10
415.59693872838568
20
246.82235774118467
10
419.59693872838568
20
246.82235774118487
10
419.59693872838557
20
248.32235774118493
10
423.19693872838559
20
248.32235774118513
10
423.19693872838559
20
250.12235774118506
10
421.59693872838557
20
250.12235774118497
10
421.59693872838545
20
252.62235774118494
0
LWPOLYLINE
5
333
100
AcDbEntity
8
0
100
AcDbPolyline
90
4
70
1
43
0.0
10
145.07500093504947
20
219.99999999999613
10
148.17500093504961
20
219.99999999999631
10
148.17500093504884
20
234.99999999999631
10
145.07500093504871
20
234.99999999999613
0
CIRCLE
5
334
100
AcDbEntity
8
0
100
AcDbCircle
10
312.425000935046
20
290.00000000000477
30
0
40
1.4999999999999858
210
0
220
-0
230
1
0
LWPOLYLINE
5
335
100
AcDbEntity
8
0
100
AcDbPolyline
90
4
70
1
43
0.0
10
313.97500093504652
20
280.00000000000489
10
310.8750009350465
20
280.00000000000466
10
310.87500093504724
20
265.00000000000466
10
313.97500093504726
20
265.00000000000489
0
LWPOLYLINE
5
336
100
AcDbEntity
8
0
100
AcDbPolyline
90
12
70
1
43
0.0
10
168.48769960721967
20
302.67005041560742
10
160.4876996072197
20
302.67005041560702
10
160.48769960721984
20
300.17005041560702
10
158.88769960721982
20
300.17005041560697
10
158.8876996072199
20
298.37005041560695
10
162.48769960721989
20
298.37005041560712
10
162.48769960721998
20
296.87005041560712
10
166.48769960722004
20
296.8700504156073
10
166.48769960721995
20
298.37005041560735
10
170.08769960721995
20
298.37005041560752
10
170.08769960721986
20
300.17005041560753
10
168.48769960721981
20
300.17005041560742
0
LWPOLYLINE
5
337
100
AcDbEntity
8
0
100
AcDbPolyline
90
71
70
1
43
0.0
10
370.75000287964571
20
323.0283054200857
10
370.75000287964542
20
330.00000000000784
10
14.549998401846427
20
329.99999999998931
10
14.549998401847191
20
314.99999999998931
10
8.5499984018471942
20
314.99999999998909
10
8.549998401847958
20
299.99999999998909
10
14.549998401847954
20
299.99999999998931
10
14.549998401848399
20
291.49999999998937
10
22.049998401848399
20
291.49999999998977
10
22.049998401848327
20
292.84999999998973
10
24.549998401848327
20
292.8499999999899
10
24.549998401848399
20
291.49999999998988
10
25.049998401848406
20
291.49999999998988
10
25.04999588727749
20
289.99999810009183
10
25.049998401848566
20
288.49999999998994
10
24.549998401848558
20
288.49999999998988
10
24.549998401848629
20
287.14999999998986
10
22.049998401848629
20
287.14999999998975
10
22.049998401848558
20
288.49999999998977
10
14.549998401848558
20
288.49999999998937
10
14.549998401849003
20
279.99999999998931
10
8.5499984018490061
20
279.99999999998909
10
8.5499984018497877
20
264.99999999998909
10
14.549998401849784
20
264.99999999998931
10
14.549998401850477
20
251.49999999998937
10
22.049998401850477
20
251.49999999998977
10
22.049998401850406
20
252.84999999998973
10
24.549998401850406
20
252.84999999998988
10
24.549998401850477
20
251.49999999998988
10
25.049998401850484
20
251.49999999998988
10
25.049995887279586
20
249.99999810009186
10
25.049998401850644
20
248.49999999998994
10
24.549998401850637
20
248.49999999998985
10
24.549998401850708
20
247.14999999998986
10
22.049998401850708
20
247.14999999998975
10
22.049998401850637
20
248.49999999998974
10
14.549998401850637
20
248.49999999998937
10
14.54999840185133
20
234.99999999998937
10
8.5499984018513331
20
234.99999999998906
10
8.5499984018521147
20
219.99999999998906
10
14.549998401852111
20
219.99999999998937
10
14.549998401852537
20
211.49999999998937
10
22.049998401852537
20
211.49999999998977
10
22.049998401852484
20
212.84999999998973
10
24.549998401852484
20
212.84999999998988
10
24.549998401852537
20
211.49999999998988
10
25.049998401852545
20
211.49999999998988
10
25.049995887281646
20
209.99999810009186
10
25.049998401852704
20
208.49999999998994
10
24.549998401852697
20
208.49999999998988
10
24.549998401852768
20
207.14999999998986
10
22.049998401852768
20
207.14999999998975
10
22.049998401852697
20
208.49999999998974
10
14.549998401852697
20
208.49999999998937
10
14.549998401853141
20
199.99999999998937
10
8.549998401853145
20
199.99999999998906
10
8.5499984018539266
20
184.99999999998906
10
14.549998401853923
20
184.99999999998937
10
14.549998401854651
20
169.99999999998937
10
429.30000128150402
20
170.00000000001083
10
429.30000128150323
20
185.57500033528697
10
433.11112220809122
20
185.5750003352872
42
3.5099689931825582
10
433.11112220809082
20
193.37500033528721
10
429.30000128150283
20
193.37500033528698
10
429.30000128150022
20
245.78617957840322
42
0.4142135623730972
10
419.40000128149961
20
255.68617957840277
10
380.85000287964925
20
255.6861795784007
42
-0.41421356237309503
10
370.75000287964872
20
265.78617957840027
10
370.7500028796465
20
309.64174499554019
42
0.63031797005318513
10
369.12209590290217
20
310.42003339231587
42
-2.0916500663351236
10
369.12209590290161
20
322.25001702330985
42
0.63031797005318368
0
CIRCLE
5
338
100
AcDbEntity
8
0
100
AcDbCircle
10
488.72499805539815
20
147.49999999999989
30
0
40
1.5500000000000114
210
0
220
0
230
1
0
CIRCLE
5
339
100
AcDbEntity
8
0
100
AcDbCircle
10
564.48599729423552
20
10.999999999999446
30
0
40
1.5000000000000568
210
0
220
0
230
1
0
CIRCLE
5
340
100
AcDbEntity
8
0
100
AcDbCircle
10
564.48599729423552
20
25.829949584389276
30
0
40
1.5000000000000568
210
0
220
0
230
1
0
CIRCLE
5
341
100
AcDbEntity
8
0
100
AcDbCircle
10
35.387306383041803
20
25.829949584389293
30
0
40
1.4999999999999858
210
0
220
0
230
1
0
CIRCLE
5
342
100
AcDbEntity
8
0
100
AcDbCircle
10
35.387306383041803
20
10.999999999999464
30
0
40
1.4999999999999858
210
0
220
0
230
1
0
CIRCLE
5
343
100
AcDbEntity
8
0
100
AcDbCircle
10
114.12499805539888
20
147.49999999999989
30
0
40
1.5500000000000114
210
0
220
0
230
1
0
CIRCLE
5
344
100
AcDbEntity
8
0
100
AcDbCircle
10
507.79999979883439
20
74.999998584389559
30
0
40
1.0500000000000398
210
0
220
0
230
1
0
CIRCLE
5
345
100
AcDbEntity
8
0
100
AcDbCircle
10
496.29999962747104
20
124.99999932944762
30
0
40
1.0500000000000398
210
0
220
0
230
1
0
CIRCLE
5
346
100
AcDbEntity
8
0
100
AcDbCircle
10
534.80000020116574
20
74.999998584389559
30
0
40
1.0500000000000398
210
0
220
0
230
1
0
CIRCLE
5
347
100
AcDbEntity
8
0
100
AcDbCircle
10
439.79999878555543
20
74.999998584389559
30
0
40
1.0500000000000398
210
0
220
0
230
1
0
CIRCLE
5
348
100
AcDbEntity
8
0
100
AcDbCircle
10
519.29999997019775
20
124.9999993294476
30
0
40
1.0500000000000398
210
0
220
0
230
1
0
CIRCLE
5
349
100
AcDbEntity
8
0
100
AcDbCircle
10
449.29999892711646
20
124.99999932944762
30
0
40
1.0500000000000398
210
0
220
0
230
1
0
CIRCLE
5
350
100
AcDbEntity
8
0
100
AcDbCircle
10
577.59999836832299
20
74.999998584389559
30
0
40
1.0500000000000398
210
0
220
0
230
1
0
LWPOLYLINE
5
351
100
AcDbEntity
8
0
100
AcDbPolyline
90
4
70
1
43
0.0
10
532.80000020116574
20
53.699998584389661
10
520.80000020116574
20
53.699998584389661
10
520.80000020116574
20
56.399998584389657
10
532.80000020116574
20
56.399998584389657
0
LWPOLYLINE
5
352
100
AcDbEntity
8
0
100
AcDbPolyline
90
4
70
1
43
0.0
10
397.79999836832292
20
56.399998584389657
10
409.79999836832292
20
56.399998584389657
10
409.79999836832292
20
53.699998584389661
10
397.79999836832292
20
53.699998584389661
0
LWPOLYLINE
5
353
100
AcDbEntity
8
0
100
AcDbPolyline
90
4
70
1
43
0.0
10
482.29999962747104
20
106.39999932944755
10
494.29999962747104
20
106.39999932944755
10
494.29999962747104
20
103.69999932944756
10
482.29999962747104
20
103.69999932944756
0
LWPOLYLINE
5
354
100
AcDbEntity
8
0
100
AcDbPolyline
90
4
70
1
43
0.0
10
400.29999822676189
20
103.69999932944756
10
388.29999822676189
20
103.69999932944756
10
388.29999822676189
20
106.39999932944755
10
400.29999822676189
20
106.39999932944755
0
LWPOLYLINE
5
355
100
AcDbEntity
8
0
100
AcDbPolyline
90
4
70
1
43
0.0
10
327.99999979883455
20
53.699998584389661
10
327.99999979883455
20
56.399998584389657
10
339.99999979883444
20
56.399998584389657
10
339.99999979883444
20
53.699998584389661
0
LWPOLYLINE
5
356
100
AcDbEntity
8
0
100
AcDbPolyline
90
4
70
1
43
0.0
10
201.20000020116578
20
53.699998584389675
10
189.20000020116584
20
53.699998584389675
10
189.20000020116584
20
56.399998584389678
10
201.20000020116578
20
56.399998584389678
0
LWPOLYLINE
5
357
100
AcDbEntity
8
0
100
AcDbPolyline
90
4
70
1
43
0.0
10
66.199998368322994
20
56.399998584389678
10
78.199998368322952
20
56.399998584389678
10
78.199998368322952
20
53.699998584389675
10
66.199998368322994
20
53.699998584389675
0
LWPOLYLINE
5
358
100
AcDbEntity
8
0
100
AcDbPolyline
90
4
70
1
43
0.0
10
234.4999982267619
20
103.69999932944758
10
222.49999822676202
20
103.69999932944758
10
222.49999822676202
20
106.39999932944758
10
234.4999982267619
20
106.39999932944758
0
LWPOLYLINE
5
359
100
AcDbEntity
8
0
100
AcDbPolyline
90
4
70
1
43
0.0
10
139.19999927729378
20
103.69999932944758
10
127.19999927729383
20
103.69999932944758
10
127.19999927729383
20
106.39999932944758
10
139.19999927729378
20
106.39999932944758
0
LWPOLYLINE
5
360
100
AcDbEntity
8
0
100
AcDbPolyline
90
12
70
1
43
0.0
10
521.13769672757326
20
34.82994958438978
10
521.13769672757326
20
36.629949584389777
10
524.73769672757328
20
36.629949584389777
10
524.73769672757328
20
38.129949584389777
10
528.73769672757339
20
38.129949584389777
10
528.73769672757339
20
36.629949584389777
10
532.3376967275733
20
36.629949584389777
10
532.3376967275733
20
34.82994958438978
10
530.73769672757339
20
34.82994958438978
10
530.73769672757339
20
32.329949584389794
10
522.73769672757328
20
32.329949584389794
10
522.73769672757328
20
34.82994958438978
0
LWPOLYLINE
5
361
100
AcDbEntity
8
0
100
AcDbPolyline
90
12
70
1
43
0.0
10
571.53769672757346
20
38.129949584389777
10
571.53769672757346
20
36.629949584389777
10
575.13769672757348
20
36.629949584389777
10
575.13769672757348
20
34.82994958438978
10
573.53769672757335
20
34.82994958438978
10
573.53769672757335
20
32.329949584389794
10
565.53769672757335
20
32.329949584389794
10
565.53769672757335
20
34.82994958438978
10
563.93769672757344
20
34.82994958438978
10
563.93769672757344
20
36.629949584389777
10
567.53769672757346
20
36.629949584389777
10
567.53769672757346
20
38.129949584389777
0
LWPOLYLINE
5
362
100
AcDbEntity
8
0
100
AcDbPolyline
90
12
70
1
43
0.0
10
339.84693584873628
20
84.877642258825361
10
339.84693584873628
20
86.677642258825301
10
343.44693584873585
20
86.67764225882533
10
343.44693584873585
20
88.177642258825301
10
347.44693584873585
20
88.177642258825301
10
347.44693584873585
20
86.677642258825344
10
351.04693584873633
20
86.677642258825358
10
351.04693584873633
20
84.877642258825418
10
349.44693584873647
20
84.877642258825432
10
349.44693584873647
20
82.377642258825361
10
341.44693584873653
20
82.377642258825361
10
341.44693584873653
20
84.877642258825404
0
LWPOLYLINE
5
363
100
AcDbEntity
8
0
100
AcDbPolyline
90
12
70
1
43
0.0
10
484.24693584873637
20
82.377642258825361
10
484.24693584873637
20
84.877642258825347
10
482.6469358487364
20
84.877642258825347
10
482.6469358487364
20
86.677642258825273
10
486.24693584873637
20
86.677642258825273
10
486.24693584873637
20
88.177642258825301
10
490.24693584873648
20
88.177642258825301
10
490.24693584873648
20
86.677642258825273
10
493.84693584873628
20
86.677642258825273
10
493.84693584873628
20
84.877642258825347
10
492.24693584873637
20
84.877642258825347
10
492.24693584873637
20
82.377642258825361
0
LWPOLYLINE
5
364
100
AcDbEntity
8
0
100
AcDbPolyline
90
12
70
1
43
0.0
10
189.53769672757318
20
34.829949584389794
10
189.53769672757318
20
36.629949584389792
10
193.13769672757317
20
36.629949584389792
10
193.13769672757317
20
38.129949584389792
10
197.13769672757323
20
38.129949584389792
10
197.13769672757323
20
36.629949584389792
10
200.73769672757322
20
36.629949584389792
10
200.73769672757322
20
34.829949584389794
10
199.13769672757311
20
34.829949584389794
10
199.13769672757311
20
32.329949584389809
10
191.1376967275732
20
32.329949584389809
10
191.1376967275732
20
34.829949584389794
0
LWPOLYLINE
5
365
100
AcDbEntity
8
0
100
AcDbPolyline
90
12
70
1
43
0.0
10
310.93769672757321
20
34.82994958438978
10
310.93769672757321
20
32.329949584389794
10
302.93769672757333
20
32.329949584389794
10
302.93769672757333
20
34.82994958438978
10
301.33769672757325
20
34.82994958438978
10
301.33769672757325
20
36.629949584389777
10
304.93769672757321
20
36.629949584389777
10
304.93769672757321
20
38.129949584389777
10
308.93769672757333
20
38.129949584389777
10
308.93769672757333
20
36.629949584389777
10
312.53769672757329
20
36.629949584389777
10
312.53769672757329
20
34.82994958438978
0
LWPOLYLINE
5
366
100
AcDbEntity
8
0
100
AcDbPolyline
90
12
70
1
43
0.0
10
318.44693584873642
20
82.377642258825361
10
318.44693584873642
20
84.877642258825347
10
316.84693584873639
20
84.877642258825347
10
316.84693584873639
20
86.677642258825273
10
320.4469358487363
20
86.677642258825273
10
320.4469358487363
20
88.177642258825301
10
324.4469358487363
20
88.177642258825301
10
324.4469358487363
20
86.677642258825273
10
328.04693584873633
20
86.677642258825273
10
328.04693584873633
20
84.877642258825347
10
326.44693584873636
20
84.877642258825347
10
326.44693584873636
20
82.377642258825361
0
LWPOLYLINE
5
367
100
AcDbEntity
8
0
100
AcDbPolyline
90
12
70
1
43
0.0
10
247.94693584873642
20
82.377642258825375
10
247.94693584873627
20
84.877642258825361
10
246.34693584873631
20
84.877642258825361
10
246.34693584873631
20
86.677642258825287
10
249.9469358487363
20
86.677642258825287
10
249.9469358487363
20
88.17764225882533
10
253.94693584873622
20
88.17764225882533
10
253.94693584873622
20
86.677642258825287
10
257.54693584873621
20
86.677642258825287
10
257.54693584873633
20
84.877642258825361
10
255.94693584873639
20
84.877642258825361
10
255.94693584873639
20
82.377642258825375
0
LWPOLYLINE
5
368
100
AcDbEntity
8
0
100
AcDbPolyline
90
12
70
1
43
0.0
10
174.04693584873613
20
84.877642258825375
10
174.04693584873613
20
86.67764225882533
10
177.64693584873561
20
86.677642258825344
10
177.64693584873569
20
88.17764225882533
10
181.64693584873584
20
88.17764225882533
10
181.64693584873575
20
86.677642258825358
10
185.24693584873617
20
86.677642258825372
10
185.24693584873617
20
84.877642258825432
10
183.64693584873635
20
84.877642258825446
10
183.64693584873649
20
82.377642258825375
10
175.64693584873638
20
82.377642258825375
10
175.64693584873638
20
84.877642258825418
0
LWPOLYLINE
5
369
100
AcDbEntity
8
0
100
AcDbPolyline
90
12
70
1
43
0.0
10
279.4469358487363
20
82.377642258825361
10
271.44693584873636
20
82.377642258825361
10
271.44693584873619
20
84.877642258825347
10
269.84693584873628
20
84.877642258825347
10
269.84693584873628
20
86.677642258825273
10
273.44693584873625
20
86.677642258825273
10
273.44693584873642
20
88.177642258825301
10
277.4469358487363
20
88.177642258825301
10
277.4469358487363
20
86.677642258825273
10
281.04693584873633
20
86.677642258825273
10
281.04693584873633
20
84.877642258825347
10
279.4469358487363
20
84.877642258825347
0
LWPOLYLINE
5
370
100
AcDbEntity
8
0
100
AcDbPolyline
90
12
70
1
43
0.0
10
505.64693584873623
20
84.877642258825361
10
505.64693584873623
20
86.677642258825301
10
509.24693584873569
20
86.67764225882533
10
509.2469358487358
20
88.177642258825301
10
513.24693584873603
20
88.177642258825301
10
513.2469358487358
20
86.677642258825344
10
516.84693584873628
20
86.677642258825358
10
516.84693584873628
20
84.877642258825418
10
515.24693584873648
20
84.877642258825432
10
515.2469358487366
20
82.377642258825361
10
507.24693584873648
20
82.377642258825361
10
507.24693584873648
20
84.877642258825404
0
LWPOLYLINE
5
371
100
AcDbEntity
8
0
100
AcDbPolyline
90
12
70
1
43
0.0
10
355.33769672757319
20
34.82994958438978
10
355.33769672757319
20
36.629949584389777
10
358.93769672757333
20
36.629949584389777
10
358.93769672757333
20
38.129949584389777
10
362.93769672757333
20
38.129949584389777
10
362.93769672757333
20
36.629949584389777
10
366.53769672757323
20
36.629949584389777
10
366.53769672757323
20
34.82994958438978
10
364.93769672757321
20
34.82994958438978
10
364.93769672757321
20
32.329949584389794
10
356.93769672757327
20
32.329949584389794
10
356.93769672757327
20
34.82994958438978
0
LWPOLYLINE
5
372
100
AcDbEntity
8
0
100
AcDbPolyline
90
12
70
1
43
0.0
10
476.73769672757328
20
34.82994958438978
10
476.73769672757328
20
32.329949584389794
10
468.73769672757334
20
32.329949584389794
10
468.73769672757334
20
34.82994958438978
10
467.13769672757326
20
34.82994958438978
10
467.13769672757326
20
36.629949584389777
10
470.73769672757339
20
36.629949584389777
10
470.73769672757339
20
38.129949584389777
10
474.73769672757339
20
38.129949584389777
10
474.73769672757339
20
36.629949584389777
10
478.3376967275733
20
36.629949584389777
10
478.3376967275733
20
34.82994958438978
0
LWPOLYLINE
5
373
100
AcDbEntity
8
0
100
AcDbPolyline
90
4
70
1
43
0.0
10
150.69999962747113
20
106.39999932944758
10
162.69999962747107
20
106.39999932944758
10
162.69999962747107
20
103.69999932944758
10
150.69999962747113
20
103.69999932944758
0
LWPOLYLINE
5
374
100
AcDbEntity
8
0
100
AcDbPolyline
90
4
70
1
43
0.0
10
257.99999857693922
20
106.39999932944758
10
257.99999857693922
20
103.69999932944758
10
245.9999985769393
20
103.69999932944758
10
245.9999985769393
20
106.39999932944758
0
LWPOLYLINE
5
375
100
AcDbEntity
8
0
100
AcDbPolyline
90
4
70
1
43
0.0
10
94.199998785555508
20
56.399998584389678
10
106.19999878555547
20
56.399998584389678
10
106.19999878555547
20
53.699998584389675
10
94.199998785555508
20
53.699998584389675
0
LWPOLYLINE
5
376
100
AcDbEntity
8
0
100
AcDbPolyline
90
4
70
1
43
0.0
10
231.99999836832305
20
56.399998584389678
10
243.99999836832293
20
56.399998584389678
10
243.99999836832293
20
53.699998584389675
10
231.99999836832305
20
53.699998584389675
0
LWPOLYLINE
5
377
100
AcDbEntity
8
0
100
AcDbPolyline
90
4
70
1
43
0.0
10
35.400000201165795
20
53.699998584389675
10
23.400000201165838
20
53.699998584389675
10
23.400000201165838
20
56.399998584389678
10
35.400000201165795
20
56.399998584389678
0
LWPOLYLINE
5
378
100
AcDbEntity
8
0
100
AcDbPolyline
90
4
70
1
43
0.0
10
115.6999989271165
20
103.69999932944758
10
103.69999892711654
20
103.69999932944758
10
103.69999892711654
20
106.39999932944758
10
115.6999989271165
20
106.39999932944758
0
LWPOLYLINE
5
379
100
AcDbEntity
8
0
100
AcDbPolyline
90
4
70
1
43
0.0
10
197.20000032037512
20
103.69999932944758
10
197.20000032037512
20
106.39999932944758
10
209.20000032037507
20
106.39999932944758
10
209.20000032037507
20
103.69999932944758
0
LWPOLYLINE
5
380
100
AcDbEntity
8
0
100
AcDbPolyline
90
4
70
1
43
0.0
10
493.79999979883439
20
53.699998584389661
10
493.79999979883439
20
56.399998584389657
10
505.79999979883439
20
56.399998584389657
10
505.79999979883439
20
53.699998584389661
0
LWPOLYLINE
5
381
100
AcDbEntity
8
0
100
AcDbPolyline
90
4
70
1
43
0.0
10
367.00000020116579
20
53.699998584389661
10
355.0000002011659
20
53.699998584389661
10
355.0000002011659
20
56.399998584389657
10
367.00000020116579
20
56.399998584389657
0
LWPOLYLINE
5
382
100
AcDbEntity
8
0
100
AcDbPolyline
90
4
70
1
43
0.0
10
470.79999927729375
20
103.69999932944756
10
458.79999927729375
20
103.69999932944756
10
458.79999927729375
20
106.39999932944755
10
470.79999927729375
20
106.39999932944755
0
LWPOLYLINE
5
383
100
AcDbEntity
8
0
100
AcDbPolyline
90
4
70
1
43
0.0
10
363.00000032037519
20
103.69999932944756
10
363.00000032037519
20
106.39999932944755
10
375.00000032037508
20
106.39999932944755
10
375.00000032037508
20
103.69999932944756
0
LWPOLYLINE
5
384
100
AcDbEntity
8
0
100
AcDbPolyline
90
4
70
1
43
0.0
10
312.99999939650309
20
56.399998584389657
10
312.99999939650309
20
53.699998584389661
10
300.9999993965032
20
53.699998584389661
10
300.9999993965032
20
56.399998584389657
0
LWPOLYLINE
5
385
100
AcDbEntity
8
0
100
AcDbPolyline
90
4
70
1
43
0.0
10
162.19999979883448
20
53.699998584389675
10
162.19999979883448
20
56.399998584389678
10
174.19999979883443
20
56.399998584389678
10
174.19999979883443
20
53.699998584389675
0
LWPOLYLINE
5
386
100
AcDbEntity
8
0
100
AcDbPolyline
90
4
70
1
43
0.0
10
304.9999992772938
20
103.69999932944758
10
292.99999927729391
20
103.69999932944758
10
292.99999927729391
20
106.39999932944758
10
304.9999992772938
20
106.39999932944758
0
CIRCLE
5
387
100
AcDbEntity
8
0
100
AcDbCircle
10
289.07499805539874
20
44.999999999999872
30
0
40
1.5000000000000568
210
0
220
0
230
1
0
CIRCLE
5
388
100
AcDbEntity
8
0
100
AcDbCircle
10
454.87499805539881
20
44.999999999999872
30
0
40
1.5000000000000568
210
0
220
0
230
1
0
CIRCLE
5
389
100
AcDbEntity
8
0
100
AcDbCircle
10
123.27499805539873
20
44.999999999999893
30
0
40
1.4999999999999858
210
0
220
0
230
1
0
CIRCLE
5
390
100
AcDbEntity
8
0
100
AcDbCircle
10
289.07499805539874
20
84.999999999999872
30
0
40
1.5000000000000568
210
0
220
0
230
1
0
CIRCLE
5
391
100
AcDbEntity
8
0
100
AcDbCircle
10
454.87499805539881
20
84.999999999999872
30
0
40
1.5000000000000568
210
0
220
0
230
1
0
CIRCLE
5
392
100
AcDbEntity
8
0
100
AcDbCircle
10
123.27499805539873
20
84.999999999999886
30
0
40
1.4999999999999858
210
0
220
0
230
1
0
LWPOLYLINE
5
393
100
AcDbEntity
8
0
100
AcDbPolyline
90
4
70
1
43
0.0
10
124.82499805539888
20
134.99999999999989
10
121.72499805539886
20
134.99999999999989
10
121.72499805539886
20
149.99999999999989
10
124.82499805539888
20
149.99999999999989
0
LWPOLYLINE
5
394
100
AcDbEntity
8
0
100
AcDbPolyline
90
4
70
1
43
0.0
10
124.82499805539888
20
54.999999999999893
10
121.72499805539879
20
54.999999999999893
10
121.72499805539871
20
69.999999999999886
10
124.82499805539874
20
69.999999999999886
0
LWPOLYLINE
5
395
100
AcDbEntity
8
0
100
AcDbPolyline
90
4
70
1
43
0.0
10
456.42499805539899
20
134.99999999999989
10
453.32499805539896
20
134.99999999999989
10
453.32499805539896
20
149.99999999999989
10
456.42499805539899
20
149.99999999999989
0
CIRCLE
5
396
100
AcDbEntity
8
0
100
AcDbCircle
10
80.19999836832298
20
74.999998584389573
30
0
40
1.0499999999999687
210
0
220
0
230
1
0
CIRCLE
5
397
100
AcDbEntity
8
0
100
AcDbCircle
10
149.1999993965031
20
74.999998584389573
30
0
40
1.0499999999999687
210
0
220
0
230
1
0
CIRCLE
5
398
100
AcDbEntity
8
0
100
AcDbCircle
10
141.19999927729381
20
124.99999932944763
30
0
40
1.0499999999999687
210
0
220
0
230
1
0
CIRCLE
5
399
100
AcDbEntity
8
0
100
AcDbCircle
10
94.199998576939237
20
124.99999932944763
30
0
40
1.0499999999999687
210
0
220
0
230
1
0
CIRCLE
5
400
100
AcDbEntity
8
0
100
AcDbCircle
10
37.400000201165824
20
74.999998584389573
30
0
40
1.0499999999999687
210
0
220
0
230
1
0
LWPOLYLINE
5
401
100
AcDbEntity
8
0
100
AcDbPolyline
90
4
70
1
43
0.0
10
453.32499805539885
20
99.999999999999872
10
453.32499805539885
20
114.99999999999987
10
456.42499805539899
20
114.99999999999987
10
456.42499805539899
20
99.999999999999872
0
LWPOLYLINE
5
402
100
AcDbEntity
8
0
100
AcDbPolyline
90
4
70
1
43
0.0
10
124.82499805539888
20
34.999999999999893
10
124.82499805539888
20
19.999999999999893
10
121.72499805539886
20
19.999999999999893
10
121.72499805539879
20
34.999999999999893
0
LWPOLYLINE
5
403
100
AcDbEntity
8
0
100
AcDbPolyline
90
4
70
1
43
0.0
10
290.62499805539886
20
34.999999999999872
10
290.62499805539886
20
19.999999999999876
10
287.52499805539884
20
19.999999999999876
10
287.52499805539884
20
34.999999999999872
0
LWPOLYLINE
5
404
100
AcDbEntity
8
0
100
AcDbPolyline
90
4
70
1
43
0.0
10
456.42499805539899
20
34.999999999999872
10
456.42499805539899
20
19.999999999999876
10
453.32499805539896
20
19.999999999999876
10
453.32499805539885
20
34.999999999999872
0
LWPOLYLINE
5
405
100
AcDbEntity
8
0
100
AcDbPolyline
90
4
70
1
43
0.0
10
287.52499805539867
20
99.999999999999886
10
287.52499805539867
20
114.99999999999989
10
290.62499805539886
20
114.99999999999989
10
290.62499805539886
20
99.999999999999886
0
LWPOLYLINE
5
406
100
AcDbEntity
8
0
100
AcDbPolyline
90
4
70
1
43
0.0
10
290.62499805539886
20
134.99999999999989
10
287.52499805539901
20
134.99999999999989
10
287.52499805539884
20
149.99999999999989
10
290.62499805539886
20
149.99999999999989
0
LWPOLYLINE
5
407
100
AcDbEntity
8
0
100
AcDbPolyline
90
4
70
1
43
0.0
10
456.42499805539899
20
54.999999999999872
10
453.32499805539885
20
54.999999999999872
10
453.32499805539885
20
69.999999999999872
10
456.42499805539887
20
69.999999999999872
0
LWPOLYLINE
5
408
100
AcDbEntity
8
0
100
AcDbPolyline
90
4
70
1
43
0.0
10
121.72499805539871
20
99.999999999999886
10
121.72499805539871
20
114.99999999999989
10
124.82499805539888
20
114.99999999999989
10
124.82499805539888
20
99.999999999999886
0
LWPOLYLINE
5
409
100
AcDbEntity
8
0
100
AcDbPolyline
90
4
70
1
43
0.0
10
382.77499805539844
20
114.99999999999987
10
385.87499805539863
20
114.99999999999987
10
385.87499805539863
20
99.999999999999872
10
382.77499805539844
20
99.999999999999872
0
LWPOLYLINE
5
410
100
AcDbEntity
8
0
100
AcDbPolyline
90
4
70
1
43
0.0
10
216.97499805539863
20
114.99999999999989
10
220.07499805539865
20
114.99999999999989
10
220.07499805539879
20
99.999999999999886
10
216.97499805539863
20
99.999999999999886
0
LWPOLYLINE
5
411
100
AcDbEntity
8
0
100
AcDbPolyline
90
4
70
1
43
0.0
10
290.62499805539886
20
54.999999999999872
10
287.52499805539884
20
54.999999999999872
10
287.52499805539884
20
69.999999999999872
10
290.62499805539886
20
69.999999999999872
0
LWPOLYLINE
5
412
100
AcDbEntity
8
0
100
AcDbPolyline
90
12
70
1
43
0.0
10
152.64693584873626
20
82.377642258825375
10
152.64693584873626
20
84.877642258825361
10
151.0469358487363
20
84.877642258825361
10
151.0469358487363
20
86.677642258825287
10
154.64693584873629
20
86.677642258825287
10
154.64693584873629
20
88.17764225882533
10
158.64693584873629
20
88.17764225882533
10
158.64693584873629
20
86.677642258825287
10
162.24693584873626
20
86.677642258825287
10
162.24693584873626
20
84.877642258825361
10
160.64693584873629
20
84.877642258825361
10
160.64693584873629
20
82.377642258825375
0
LWPOLYLINE
5
413
100
AcDbEntity
8
0
100
AcDbPolyline
90
12
70
1
43
0.0
10
224.44693584873633
20
82.377642258825375
10
224.44693584873633
20
84.877642258825361
10
222.84693584873636
20
84.877642258825361
10
222.84693584873636
20
86.677642258825287
10
226.44693584873636
20
86.677642258825287
10
226.44693584873622
20
88.17764225882533
10
230.44693584873627
20
88.17764225882533
10
230.44693584873627
20
86.677642258825287
10
234.04693584873627
20
86.677642258825287
10
234.04693584873627
20
84.877642258825361
10
232.4469358487363
20
84.877642258825361
10
232.4469358487363
20
82.377642258825375
0
LWPOLYLINE
5
414
100
AcDbEntity
8
0
100
AcDbPolyline
90
12
70
1
43
0.0
10
337.93769672757321
20
32.329949584389794
10
329.93769672757321
20
32.329949584389794
10
329.93769672757321
20
34.82994958438978
10
328.3376967275733
20
34.82994958438978
10
328.3376967275733
20
36.629949584389777
10
331.93769672757327
20
36.629949584389777
10
331.93769672757327
20
38.129949584389777
10
335.93769672757333
20
38.129949584389777
10
335.93769672757333
20
36.629949584389777
10
339.53769672757335
20
36.629949584389777
10
339.53769672757335
20
34.82994958438978
10
337.93769672757321
20
34.82994958438978
0
LWPOLYLINE
5
415
100
AcDbEntity
8
0
100
AcDbPolyline
90
12
70
1
43
0.0
10
172.13769672757323
20
32.329949584389809
10
164.13769672757326
20
32.329949584389809
10
164.13769672757326
20
34.829949584389794
10
162.53769672757315
20
34.829949584389794
10
162.53769672757315
20
36.629949584389792
10
166.13769672757314
20
36.629949584389792
10
166.13769672757314
20
38.129949584389792
10
170.1376967275732
20
38.129949584389792
10
170.1376967275732
20
36.629949584389792
10
173.73769672757319
20
36.629949584389792
10
173.73769672757319
20
34.829949584389794
10
172.13769672757323
20
34.829949584389794
0
LWPOLYLINE
5
416
100
AcDbEntity
8
0
100
AcDbPolyline
90
12
70
1
43
0.0
10
23.737696727573123
20
34.829949584389794
10
23.737696727573123
20
36.629949584389792
10
27.337696727573118
20
36.629949584389792
10
27.337696727573118
20
38.129949584389792
10
31.337696727573174
20
38.129949584389792
10
31.337696727573174
20
36.629949584389792
10
34.937696727573169
20
36.629949584389792
10
34.937696727573169
20
34.829949584389794
10
33.337696727573132
20
34.829949584389794
10
33.337696727573132
20
32.329949584389809
10
25.33769672757316
20
32.329949584389809
10
25.33769672757316
20
34.829949584389794
0
LWPOLYLINE
5
417
100
AcDbEntity
8
0
100
AcDbPolyline
90
12
70
1
43
0.0
10
460.74693584873643
20
82.377642258825361
10
460.74693584873643
20
84.877642258825347
10
459.14693584873635
20
84.877642258825347
10
459.14693584873635
20
86.677642258825273
10
462.74693584873648
20
86.677642258825273
10
462.74693584873648
20
88.177642258825301
10
466.74693584873637
20
88.177642258825301
10
466.74693584873637
20
86.677642258825273
10
470.34693584873639
20
86.677642258825273
10
470.34693584873639
20
84.877642258825347
10
468.74693584873637
20
84.877642258825347
10
468.74693584873637
20
82.377642258825361
0
LWPOLYLINE
5
418
100
AcDbEntity
8
0
100
AcDbPolyline
90
12
70
1
43
0.0
10
445.24693584873648
20
82.377642258825361
10
437.24693584873648
20
82.377642258825361
10
437.24693584873637
20
84.877642258825347
10
435.64693584873635
20
84.877642258825347
10
435.64693584873635
20
86.677642258825273
10
439.24693584873637
20
86.677642258825273
10
439.24693584873637
20
88.177642258825301
10
443.24693584873626
20
88.177642258825301
10
443.24693584873626
20
86.677642258825273
10
446.84693584873639
20
86.677642258825273
10
446.84693584873639
20
84.877642258825347
10
445.24693584873648
20
84.877642258825347
0
LWPOLYLINE
5
419
100
AcDbEntity
8
0
100
AcDbPolyline
90
12
70
1
43
0.0
10
413.74693584873637
20
82.377642258825361
10
413.74693584873637
20
84.877642258825347
10
412.14693584873646
20
84.877642258825347
10
412.14693584873646
20
86.677642258825273
10
415.74693584873626
20
86.677642258825273
10
415.74693584873626
20
88.177642258825301
10
419.74693584873637
20
88.177642258825301
10
419.74693584873637
20
86.677642258825273
10
423.34693584873634
20
86.677642258825273
10
423.34693584873634
20
84.877642258825347
10
421.74693584873637
20
84.877642258825347
10
421.74693584873637
20
82.377642258825361
0
LWPOLYLINE
5
420
100
AcDbEntity
8
0
100
AcDbPolyline
90
12
70
1
43
0.0
10
405.73769672757339
20
38.129949584389777
10
405.73769672757339
20
36.629949584389777
10
409.33769672757336
20
36.629949584389777
10
409.33769672757336
20
34.82994958438978
10
407.73769672757328
20
34.82994958438978
10
407.73769672757328
20
32.329949584389794
10
399.73769672757328
20
32.329949584389794
10
399.73769672757328
20
34.82994958438978
10
398.13769672757331
20
34.82994958438978
10
398.13769672757331
20
36.629949584389777
10
401.73769672757328
20
36.629949584389777
10
401.73769672757328
20
38.129949584389777
0
LWPOLYLINE
5
421
100
AcDbEntity
8
0
100
AcDbPolyline
90
12
70
1
43
0.0
10
435.73769672757339
20
32.329949584389794
10
427.73769672757328
20
32.329949584389794
10
427.73769672757328
20
34.82994958438978
10
426.13769672757326
20
34.82994958438978
10
426.13769672757326
20
36.629949584389777
10
429.73769672757328
20
36.629949584389777
10
429.73769672757328
20
38.129949584389777
10
433.73769672757334
20
38.129949584389777
10
433.73769672757334
20
36.629949584389777
10
437.3376967275733
20
36.629949584389777
10
437.3376967275733
20
34.82994958438978
10
435.73769672757339
20
34.82994958438978
0
LWPOLYLINE
5
422
100
AcDbEntity
8
0
100
AcDbPolyline
90
4
70
1
43
0.0
10
92.199998576939208
20
106.39999932944758
10
92.199998576939208
20
103.69999932944758
10
80.199998576939251
20
103.69999932944758
10
80.199998576939251
20
106.39999932944758
0
LWPOLYLINE
5
423
100
AcDbEntity
8
0
100
AcDbPolyline
90
4
70
1
43
0.0
10
185.69999997019778
20
103.69999932944758
10
173.69999997019784
20
103.69999932944758
10
173.69999997019784
20
106.39999932944758
10
185.69999997019778
20
106.39999932944758
0
LWPOLYLINE
5
424
100
AcDbEntity
8
0
100
AcDbPolyline
90
4
70
1
43
0.0
10
281.49999892711651
20
103.69999932944758
10
269.49999892711662
20
103.69999932944758
10
269.49999892711662
20
106.39999932944758
10
281.49999892711651
20
106.39999932944758
0
LWPOLYLINE
5
425
100
AcDbEntity
8
0
100
AcDbPolyline
90
4
70
1
43
0.0
10
147.19999939650307
20
56.399998584389678
10
147.19999939650307
20
53.699998584389675
10
135.19999939650313
20
53.699998584389675
10
135.19999939650313
20
56.399998584389678
0
LWPOLYLINE
5
426
100
AcDbEntity
8
0
100
AcDbPolyline
90
4
70
1
43
0.0
10
259.99999878555559
20
56.399998584389657
10
271.99999878555548
20
56.399998584389657
10
271.99999878555548
20
53.699998584389661
10
259.99999878555559
20
53.699998584389675
0
LWPOLYLINE
5
427
100
AcDbEntity
8
0
100
AcDbPolyline
90
4
70
1
43
0.0
10
351.49999997019779
20
103.69999932944758
10
339.4999999701979
20
103.69999932944758
10
339.4999999701979
20
106.39999932944758
10
351.49999997019779
20
106.39999932944755
0
LWPOLYLINE
5
428
100
AcDbEntity
8
0
100
AcDbPolyline
90
4
70
1
43
0.0
10
478.79999939650304
20
56.399998584389657
10
478.79999939650304
20
53.699998584389661
10
466.79999939650304
20
53.699998584389661
10
466.79999939650304
20
56.399998584389657
0
LWPOLYLINE
5
429
100
AcDbEntity
8
0
100
AcDbPolyline
90
4
70
1
43
0.0
10
447.29999892711646
20
103.69999932944756
10
435.29999892711646
20
103.69999932944756
10
435.29999892711646
20
106.39999932944755
10
447.29999892711646
20
106.39999932944755
0
CIRCLE
5
430
100
AcDbEntity
8
0
100
AcDbCircle
10
211.2000003203751
20
124.99999932944763
30
0
40
1.0500000000000398
210
0
220
0
230
1
0
CIRCLE
5
431
100
AcDbEntity
8
0
100
AcDbCircle
10
259.99999857693922
20
124.99999932944763
30
0
40
1.0500000000000398
210
0
220
0
230
1
0
CIRCLE
5
432
100
AcDbEntity
8
0
100
AcDbCircle
10
306.9999992772938
20
124.99999932944763
30
0
40
1.0500000000000398
210
0
220
0
230
1
0
CIRCLE
5
433
100
AcDbEntity
8
0
100
AcDbCircle
10
314.99999939650309
20
74.999998584389559
30
0
40
1.0500000000000398
210
0
220
0
230
1
0
CIRCLE
5
434
100
AcDbEntity
8
0
100
AcDbCircle
10
245.99999836832296
20
74.999998584389573
30
0
40
1.0500000000000398
210
0
220
0
230
1
0
CIRCLE
5
435
100
AcDbEntity
8
0
100
AcDbCircle
10
236.49999822676193
20
124.99999932944763
30
0
40
1.0500000000000398
210
0
220
0
230
1
0
CIRCLE
5
436
100
AcDbEntity
8
0
100
AcDbCircle
10
341.99999979883444
20
74.999998584389559
30
0
40
1.0500000000000398
210
0
220
0
230
1
0
CIRCLE
5
437
100
AcDbEntity
8
0
100
AcDbCircle
10
330.49999962747108
20
124.99999932944763
30
0
40
1.0500000000000398
210
0
220
0
230
1
0
CIRCLE
5
438
100
AcDbEntity
8
0
100
AcDbCircle
10
369.00000020116579
20
74.999998584389559
30
0
40
1.0500000000000398
210
0
220
0
230
1
0
CIRCLE
5
439
100
AcDbEntity
8
0
100
AcDbCircle
10
273.99999878555548
20
74.999998584389559
30
0
40
1.0500000000000398
210
0
220
0
230
1
0
CIRCLE
5
440
100
AcDbEntity
8
0
100
AcDbCircle
10
353.49999997019779
20
124.99999932944762
30
0
40
1.0500000000000398
210
0
220
0
230
1
0
CIRCLE
5
441
100
AcDbEntity
8
0
100
AcDbCircle
10
283.49999892711651
20
124.99999932944763
30
0
40
1.0500000000000398
210
0
220
0
230
1
0
CIRCLE
5
442
100
AcDbEntity
8
0
100
AcDbCircle
10
377.00000032037508
20
124.99999932944762
30
0
40
1.0500000000000398
210
0
220
0
230
1
0
CIRCLE
5
443
100
AcDbEntity
8
0
100
AcDbCircle
10
425.79999857693917
20
124.99999932944762
30
0
40
1.0500000000000398
210
0
220
0
230
1
0
CIRCLE
5
444
100
AcDbEntity
8
0
100
AcDbCircle
10
472.79999927729375
20
124.99999932944762
30
0
40
1.0500000000000398
210
0
220
0
230
1
0
CIRCLE
5
445
100
AcDbEntity
8
0
100
AcDbCircle
10
480.79999939650304
20
74.999998584389559
30
0
40
1.0500000000000398
210
0
220
0
230
1
0
CIRCLE
5
446
100
AcDbEntity
8
0
100
AcDbCircle
10
411.79999836832292
20
74.999998584389559
30
0
40
1.0500000000000398
210
0
220
0
230
1
0
CIRCLE
5
447
100
AcDbEntity
8
0
100
AcDbCircle
10
402.29999822676189
20
124.99999932944762
30
0
40
1.0500000000000398
210
0
220
0
230
1
0
LWPOLYLINE
5
448
100
AcDbEntity
8
0
100
AcDbPolyline
90
12
70
1
43
0.0
10
372.94693584873653
20
82.377642258825361
10
364.94693584873642
20
82.377642258825361
10
364.94693584873642
20
84.877642258825404
10
363.34693584873617
20
84.877642258825361
10
363.34693584873617
20
86.677642258825301
10
366.94693584873573
20
86.67764225882533
10
366.94693584873573
20
88.177642258825301
10
370.94693584873585
20
88.177642258825301
10
370.94693584873585
20
86.677642258825344
10
374.54693584873621
20
86.677642258825358
10
374.54693584873621
20
84.877642258825418
10
372.94693584873642
20
84.877642258825432
0
LWPOLYLINE
5
449
100
AcDbEntity
8
0
100
AcDbPolyline
90
12
70
1
43
0.0
10
503.73769672757334
20
32.329949584389794
10
495.73769672757339
20
32.329949584389794
10
495.73769672757339
20
34.82994958438978
10
494.13769672757326
20
34.82994958438978
10
494.13769672757326
20
36.629949584389777
10
497.73769672757328
20
36.629949584389777
10
497.73769672757328
20
38.129949584389777
10
501.73769672757328
20
38.129949584389777
10
501.73769672757328
20
36.629949584389777
10
505.3376967275733
20
36.629949584389777
10
505.3376967275733
20
34.82994958438978
10
503.73769672757334
20
34.82994958438978
0
LWPOLYLINE
5
450
100
AcDbEntity
8
0
100
AcDbPolyline
90
12
70
1
43
0.0
10
390.24693584873631
20
82.377642258825361
10
390.24693584873631
20
84.877642258825347
10
388.64693584873635
20
84.877642258825347
10
388.64693584873635
20
86.677642258825273
10
392.24693584873637
20
86.677642258825273
10
392.24693584873637
20
88.177642258825301
10
396.24693584873637
20
88.177642258825301
10
396.24693584873637
20
86.677642258825273
10
399.84693584873628
20
86.677642258825273
10
399.84693584873628
20
84.877642258825347
10
398.24693584873626
20
84.877642258825347
10
398.24693584873626
20
82.377642258825361
0
LWPOLYLINE
5
451
100
AcDbEntity
8
0
100
AcDbPolyline
90
12
70
1
43
0.0
10
104.13769672757319
20
32.329949584389809
10
96.137696727573214
20
32.329949584389809
10
96.137696727573214
20
34.829949584389794
10
94.537696727573177
20
34.829949584389794
10
94.537696727573177
20
36.629949584389792
10
98.137696727573172
20
36.629949584389792
10
98.137696727573172
20
38.129949584389792
10
102.13769672757323
20
38.129949584389792
10
102.13769672757323
20
36.629949584389792
10
105.73769672757322
20
36.629949584389792
10
105.73769672757322
20
34.829949584389794
10
104.13769672757319
20
34.829949584389794
0
LWPOLYLINE
5
452
100
AcDbEntity
8
0
100
AcDbPolyline
90
12
70
1
43
0.0
10
74.137696727573257
20
38.129949584389792
10
74.137696727573257
20
36.629949584389792
10
77.737696727573251
20
36.629949584389792
10
77.737696727573251
20
34.829949584389794
10
76.137696727573143
20
34.829949584389794
10
76.137696727573143
20
32.329949584389809
10
68.137696727573172
20
32.329949584389809
10
68.137696727573172
20
34.829949584389794
10
66.537696727573206
20
34.829949584389794
10
66.537696727573206
20
36.629949584389792
10
70.1376967275732
20
36.629949584389792
10
70.1376967275732
20
38.129949584389792
0
LWPOLYLINE
5
453
100
AcDbEntity
8
0
100
AcDbPolyline
90
12
70
1
43
0.0
10
269.93769672757321
20
32.329949584389809
10
261.93769672757327
20
32.329949584389809
10
261.93769672757327
20
34.829949584389794
10
260.33769672757319
20
34.829949584389794
10
260.33769672757319
20
36.629949584389792
10
263.93769672757333
20
36.629949584389792
10
263.93769672757333
20
38.129949584389792
10
267.93769672757333
20
38.129949584389792
10
267.93769672757333
20
36.629949584389792
10
271.53769672757323
20
36.629949584389777
10
271.53769672757323
20
34.82994958438978
10
269.93769672757321
20
34.82994958438978
0
LWPOLYLINE
5
454
100
AcDbEntity
8
0
100
AcDbPolyline
90
12
70
1
43
0.0
10
145.1376967275732
20
34.829949584389794
10
145.1376967275732
20
32.329949584389809
10
137.13769672757323
20
32.329949584389809
10
137.13769672757323
20
34.829949584389794
10
135.53769672757318
20
34.829949584389794
10
135.53769672757318
20
36.629949584389792
10
139.1376967275732
20
36.629949584389792
10
139.1376967275732
20
38.129949584389792
10
143.13769672757326
20
38.129949584389792
10
143.13769672757326
20
36.629949584389792
10
146.73769672757322
20
36.629949584389792
10
146.73769672757322
20
34.829949584389794
0
LWPOLYLINE
5
455
100
AcDbEntity
8
0
100
AcDbPolyline
90
12
70
1
43
0.0
10
239.93769672757324
20
38.129949584389792
10
239.93769672757324
20
36.629949584389792
10
243.53769672757323
20
36.629949584389792
10
243.53769672757323
20
34.829949584389794
10
241.93769672757327
20
34.829949584389794
10
241.93769672757327
20
32.329949584389809
10
233.9376967275733
20
32.329949584389809
10
233.9376967275733
20
34.829949584389794
10
232.33769672757319
20
34.829949584389794
10
232.33769672757319
20
36.629949584389792
10
235.93769672757318
20
36.629949584389792
10
235.93769672757318
20
38.129949584389792
0
LWPOLYLINE
5
456
100
AcDbEntity
8
0
100
AcDbPolyline
90
12
70
1
43
0.0
10
113.64693584873628
20
82.377642258825375
10
105.64693584873623
20
82.377642258825375
10
105.64693584873623
20
84.877642258825361
10
104.04693584873627
20
84.877642258825361
10
104.04693584873627
20
86.677642258825287
10
107.64693584873626
20
86.677642258825287
10
107.64693584873626
20
88.17764225882533
10
111.64693584873625
20
88.17764225882533
10
111.64693584873625
20
86.677642258825287
10
115.24693584873624
20
86.677642258825287
10
115.24693584873624
20
84.877642258825361
10
113.64693584873628
20
84.877642258825361
0
LWPOLYLINE
5
457
100
AcDbEntity
8
0
100
AcDbPolyline
90
12
70
1
43
0.0
10
82.146935848736291
20
82.377642258825375
10
82.146935848736291
20
84.877642258825361
10
80.546935848736254
20
84.877642258825361
10
80.546935848736254
20
86.677642258825287
10
84.146935848736248
20
86.677642258825287
10
84.146935848736248
20
88.17764225882533
10
88.146935848736234
20
88.17764225882533
10
88.146935848736234
20
86.677642258825287
10
91.746935848736229
20
86.677642258825287
10
91.746935848736229
20
84.877642258825361
10
90.146935848736263
20
84.877642258825361
10
90.146935848736263
20
82.377642258825375
0
LWPOLYLINE
5
458
100
AcDbEntity
8
0
100
AcDbPolyline
90
12
70
1
43
0.0
10
294.9469358487363
20
82.377642258825361
10
294.9469358487363
20
84.877642258825347
10
293.34693584873634
20
84.877642258825347
10
293.34693584873634
20
86.677642258825273
10
296.9469358487363
20
86.677642258825273
10
296.9469358487363
20
88.177642258825301
10
300.94693584873642
20
88.177642258825301
10
300.94693584873642
20
86.677642258825273
10
304.54693584873621
20
86.677642258825273
10
304.54693584873621
20
84.877642258825347
10
302.9469358487363
20
84.877642258825347
10
302.9469358487363
20
82.377642258825361
0
LWPOLYLINE
5
459
100
AcDbEntity
8
0
100
AcDbPolyline
90
12
70
1
43
0.0
10
207.14693584873643
20
82.377642258825375
10
199.14693584873632
20
82.377642258825375
10
199.14693584873632
20
84.877642258825418
10
197.54693584873621
20
84.877642258825375
10
197.54693584873621
20
86.67764225882533
10
201.14693584873564
20
86.677642258825344
10
201.14693584873578
20
88.17764225882533
10
205.14693584873598
20
88.17764225882533
10
205.14693584873584
20
86.677642258825358
10
208.74693584873626
20
86.677642258825372
10
208.74693584873626
20
84.877642258825432
10
207.14693584873643
20
84.877642258825446
0
LWPOLYLINE
5
460
100
AcDbEntity
8
0
100
AcDbPolyline
90
12
70
1
43
0.0
10
129.14693584873632
20
82.377642258825375
10
129.14693584873632
20
84.877642258825361
10
127.54693584873628
20
84.877642258825361
10
127.54693584873628
20
86.677642258825287
10
131.14693584873629
20
86.677642258825287
10
131.14693584873629
20
88.17764225882533
10
135.14693584873626
20
88.17764225882533
10
135.14693584873626
20
86.677642258825287
10
138.74693584873626
20
86.677642258825287
10
138.74693584873626
20
84.877642258825361
10
137.14693584873629
20
84.877642258825361
10
137.14693584873629
20
82.377642258825375
0
CIRCLE
5
461
100
AcDbEntity
8
0
100
AcDbCircle
10
218.52499805539864
20
157.49999999999989
30
0
40
1.5500000000000114
210
0
220
0
230
1
0
LWPOLYLINE
5
462
100
AcDbEntity
8
0
100
AcDbPolyline
90
4
70
1
43
0.0
10
548.57499805539862
20
69.999999999999872
10
551.67499805539865
20
69.999999999999872
10
551.67499805539865
20
54.999999999999872
10
548.57499805539862
20
54.999999999999872
0
LWPOLYLINE
5
463
100
AcDbEntity
8
0
100
AcDbPolyline
90
4
70
1
43
0.0
10
382.77499805539861
20
69.999999999999872
10
385.87499805539863
20
69.999999999999872
10
385.87499805539863
20
54.999999999999872
10
382.77499805539861
20
54.999999999999872
0
LWPOLYLINE
5
464
100
AcDbEntity
8
0
100
AcDbPolyline
90
4
70
1
43
0.0
10
216.97499805539863
20
69.999999999999886
10
220.07499805539865
20
69.999999999999886
10
220.07499805539865
20
54.999999999999893
10
216.97499805539863
20
54.999999999999893
0
LWPOLYLINE
5
465
100
AcDbEntity
8
0
100
AcDbPolyline
90
4
70
1
43
0.0
10
51.174998055398646
20
69.999999999999886
10
54.274998055398669
20
69.999999999999886
10
54.274998055398669
20
54.999999999999893
10
51.174998055398646
20
54.999999999999893
0
LWPOLYLINE
5
466
100
AcDbEntity
8
0
100
AcDbPolyline
90
4
70
1
43
0.0
10
220.07499805539865
20
149.99999999999989
10
220.07499805539865
20
134.99999999999989
10
216.97499805539863
20
134.99999999999989
10
216.97499805539863
20
149.99999999999989
0
LWPOLYLINE
5
467
100
AcDbEntity
8
0
100
AcDbPolyline
90
4
70
1
43
0.0
10
385.87499805539863
20
149.99999999999989
10
385.87499805539863
20
134.99999999999989
10
382.77499805539878
20
134.99999999999989
10
382.77499805539878
20
149.99999999999989
0
CIRCLE
5
468
100
AcDbEntity
8
0
100
AcDbCircle
10
384.32499805539851
20
157.49999999999989
30
0
40
1.5500000000000114
210
0
220
0
230
1
0
LWPOLYLINE
5
469
100
AcDbEntity
8
0
100
AcDbPolyline
90
4
70
1
43
0.0
10
563.59999836832299
20
56.399998584389657
10
575.59999836832287
20
56.399998584389657
10
575.59999836832287
20
53.699998584389661
10
563.59999836832299
20
53.699998584389661
0
LWPOLYLINE
5
470
100
AcDbEntity
8
0
100
AcDbPolyline
90
4
70
1
43
0.0
10
425.79999878555543
20
56.399998584389657
10
437.79999878555543
20
56.399998584389657
10
437.79999878555543
20
53.699998584389661
10
425.79999878555543
20
53.699998584389661
0
LWPOLYLINE
5
471
100
AcDbEntity
8
0
100
AcDbPolyline
90
4
70
1
43
0.0
10
517.29999997019775
20
103.69999932944756
10
505.29999997019775
20
103.69999932944756
10
505.29999997019775
20
106.39999932944755
10
517.29999997019775
20
106.39999932944754
0
LWPOLYLINE
5
472
100
AcDbEntity
8
0
100
AcDbPolyline
90
4
70
1
43
0.0
10
216.97499805539863
20
34.999999999999893
10
220.07499805539865
20
34.999999999999893
10
220.07499805539865
20
19.999999999999893
10
216.97499805539863
20
19.999999999999893
0
LWPOLYLINE
5
473
100
AcDbEntity
8
0
100
AcDbPolyline
90
4
70
1
43
0.0
10
51.174998055398646
20
34.999999999999893
10
54.274998055398669
20
34.999999999999893
10
54.274998055398669
20
19.999999999999893
10
51.174998055398646
20
19.999999999999893
0
LWPOLYLINE
5
474
100
AcDbEntity
8
0
100
AcDbPolyline
90
4
70
1
43
0.0
10
382.77499805539861
20
34.999999999999872
10
385.87499805539863
20
34.999999999999872
10
385.87499805539863
20
19.999999999999876
10
382.77499805539861
20
19.999999999999876
0
LWPOLYLINE
5
475
100
AcDbEntity
8
0
100
AcDbPolyline
90
4
70
1
43
0.0
10
548.57499805539862
20
34.999999999999872
10
551.67499805539865
20
34.999999999999872
10
551.67499805539865
20
19.999999999999876
10
548.57499805539862
20
19.999999999999876
0
LWPOLYLINE
5
476
100
AcDbEntity
8
0
100
AcDbPolyline
90
4
70
1
43
0.0
10
423.79999857693917
20
106.39999932944755
10
423.79999857693917
20
103.69999932944756
10
411.79999857693917
20
103.69999932944756
10
411.79999857693917
20
106.39999932944755
0
LWPOLYLINE
5
477
100
AcDbEntity
8
0
100
AcDbPolyline
90
4
70
1
43
0.0
10
316.4999996274712
20
106.39999932944758
10
328.49999962747108
20
106.39999932944758
10
328.49999962747108
20
103.69999932944758
10
316.4999996274712
20
103.69999932944758
0
CIRCLE
5
478
100
AcDbEntity
8
0
100
AcDbCircle
10
117.69999892711652
20
124.99999932944763
30
0
40
1.0499999999999687
210
0
220
0
230
1
0
CIRCLE
5
479
100
AcDbEntity
8
0
100
AcDbCircle
10
187.69999997019781
20
124.99999932944763
30
0
40
1.0499999999999687
210
0
220
0
230
1
0
CIRCLE
5
480
100
AcDbEntity
8
0
100
AcDbCircle
10
108.19999878555549
20
74.999998584389573
30
0
40
1.0499999999999687
210
0
220
0
230
1
0
CIRCLE
5
481
100
AcDbEntity
8
0
100
AcDbCircle
10
203.20000020116581
20
74.999998584389573
30
0
40
1.0500000000000398
210
0
220
0
230
1
0
CIRCLE
5
482
100
AcDbEntity
8
0
100
AcDbCircle
10
164.6999996274711
20
124.99999932944763
30
0
40
1.0499999999999687
210
0
220
0
230
1
0
CIRCLE
5
483
100
AcDbEntity
8
0
100
AcDbCircle
10
176.19999979883445
20
74.999998584389573
30
0
40
1.0499999999999687
210
0
220
0
230
1
0
LWPOLYLINE
5
484
100
AcDbEntity
8
0
100
AcDbPolyline
90
28
70
1
43
0.0
10
74.549998401850601
20
149.62499966472376
10
78.050779699540215
20
149.62499966472376
42
-3.4144435859293583
10
78.050779699540215
20
141.42499966472374
10
74.549998401850601
20
141.42499966472374
10
74.549998401850601
20
89.213820421607466
42
-0.41421356237309503
10
64.449998401850621
20
79.1138204216075
10
25.900000000000176
20
79.1138204216075
42
0.41421356237309503
10
16.000000000000156
20
69.213820421607466
10
16.000000000000156
20
25.358255004467498
42
-0.6303179700531607
10
14.046511627907137
20
24.424308928336487
42
2.0916500663351596
10
14.046511627907208
20
12.90564065605313
42
-0.63031797005314771
10
16.000000000000284
20
11.971694579922048
10
16.000000000000085
20
4.9999999999998934
10
583.49999104440235
20
4.9999999999998579
10
583.49999104440235
20
11.557566572200013
42
-0.60522756436438707
10
585.38371056176743
20
12.543734722959874
42
1.9101466577353339
10
585.38371540233766
20
24.706452146680636
42
-0.60522924097673303
10
583.49999104439917
20
25.692616941414492
10
583.49999104440212
20
69.213820421607451
42
0.41421356237309453
10
573.59999104440226
20
79.113820421607457
10
533.04999264255173
20
79.113820421607471
42
-0.41421356237309503
10
522.94999264255171
20
89.213820421607451
10
522.94999264255171
20
141.42499966472374
10
519.44921134486219
20
141.42499966472374
42
-3.4144435859294004
10
519.44921134486219
20
149.6249996647237
10
522.94999264255171
20
149.6249996647237
10
522.94999264255171
20
164.99999999999986
10
74.549998401850601
20
164.99999999999989
0
ENDSEC
0
SECTION
2
OBJECTS
0
DICTIONARY
5
C
100
AcDbDictionary
3
ACAD_GROUP
350
D
3
ACAD_MLINESTYLE
350
17
0
DICTIONARY
5
D
100
AcDbDictionary
0
DICTIONARY
5
1A
330
C
100
AcDbDictionary
0
DICTIONARY
5
17
100
AcDbDictionary
0
ENDSEC
0
EOF
