0
SECTION
2
HEADER
9
$INSUNITS
70
4
9
$ACADVER
1
AC1014
9
$HANDSEED
5
FFFF
0
ENDSEC
0
SECTION
2
TABLES
0
TABLE
2
VPORT
5
8
100
AcDbSymbolTable
0
ENDTAB
0
TABLE
2
LTYPE
5
5
100
AcDbSymbolTable
0
LTYPE
5
14
100
AcDbSymbolTableRecord
100
AcDbLinetypeTableRecord
2
BYBLOCK
70
0
0
LTYPE
5
15
100
AcDbSymbolTableRecord
100
AcDbLinetypeTableRecord
2
BYLAYER
70
0
0
ENDTAB
0
TABLE
2
LAYER
5
2
100
AcDbSymbolTable
70
2
0
LAYER
5
50
100
AcDbSymbolTableRecord
100
AcDbLayerTableRecord
2
0
70
0
6
CONTINUOUS
0
ENDTAB
0
TABLE
2
STYLE
5
3
100
AcDbSymbolTable
70
1
0
STYLE
5
11
100
AcDbSymbolTableRecord
100
AcDbTextStyleTableRecord
2
STANDARD
70
0
0
ENDTAB
0
TABLE
2
VIEW
5
6
100
AcDbSymbolTable
70
0
0
ENDTAB
0
TABLE
2
UCS
5
7
100
AcDbSymbolTable
70
0
0
ENDTAB
0
TABLE
2
APPID
5
9
100
AcDbSymbolTable
70
2
0
APPID
5
12
100
AcDbSymbolTableRecord
100
AcDbRegAppTableRecord
2
ACAD
70
0
0
ENDTAB
0
TABLE
2
DIMSTYLE
5
A
100
AcDbSymbolTable
70
1
0
ENDTAB
0
TABLE
2
BLOCK_RECORD
5
1
100
AcDbSymbolTable
70
1
0
BLOCK_RECORD
5
1F
100
AcDbSymbolTableRecord
100
AcDbBlockTableRecord
2
*MODEL_SPACE
0
BLOCK_RECORD
5
1B
100
AcDbSymbolTableRecord
100
AcDbBlockTableRecord
2
*PAPER_SPACE
0
ENDTAB
0
ENDSEC
0
SECTION
2
BLOCKS
0
BLOCK
5
20
100
AcDbEntity
100
AcDbBlockBegin
2
*MODEL_SPACE
0
ENDBLK
5
21
100
AcDbEntity
100
AcDbBlockEnd
0
BLOCK
5
1C
100
AcDbEntity
100
AcDbBlockBegin
2
*PAPER_SPACE
0
ENDBLK
5
1D
100
AcDbEntity
100
AcDbBlockEnd
0
ENDSEC
0
SECTION
2
ENTITIES
0
CIRCLE
5
100
100
AcDbEntity
8
0
100
AcDbCircle
10
-93.249999999976495
20
-298.50000000000756
30
0
40
1.1250000000000073
210
6.1629758220352553e-33
220
4.930380657631373e-32
230
1
0
CIRCLE
5
101
100
AcDbEntity
8
0
100
AcDbCircle
10
-15.499999999975213
20
-313.50000000000142
30
0
40
1.1250000000000073
210
6.1629758220352553e-33
220
4.930380657631373e-32
230
1
0
CIRCLE
5
102
100
AcDbEntity
8
0
100
AcDbCircle
10
-93.249999999975302
20
-313.50000000000756
30
0
40
1.1250000000000073
210
6.1629758220352553e-33
220
4.930380657631373e-32
230
1
0
CIRCLE
5
103
100
AcDbEntity
8
0
100
AcDbCircle
10
-15.499999999976401
20
-298.50000000000142
30
0
40
1.1250000000000073
210
6.1629758220352553e-33
220
4.930380657631373e-32
230
1
0
LWPOLYLINE
5
104
100
AcDbEntity
8
0
100
AcDbPolyline
90
44
70
1
43
0.0
10
-89.249999999999204
20
-10.600000000007411
10
-89.249999999999886
20
-2.5000000000073896
10
-17.249999999999812
20
-2.5000000000016365
10
-17.249999999999169
20
-10.600000000001689
42
0.99999999999999989
10
-9.2499999999991704
20
-10.600000000001087
10
-9.2499999999998082
20
-2.5000000000010312
10
-2.4999999999998104
20
-2.5000000000004974
10
-2.4999999999743361
20
-324.5000000000004
10
-9.3499999999743348
20
-324.50000000000097
10
-9.3499999999736971
20
-332.60000000000099
42
-0.99999999999999989
10
-17.149999999973701
20
-332.60000000000156
10
-17.149999999974341
20
-324.50000000000153
10
-17.250002670526754
20
-324.50000000000159
10
-17.250002670527039
20
-321.00000000000148
10
-32.750002670527024
20
-321.00000000000279
10
-32.750002670526747
20
-324.50000000000279
10
-52.250002670526719
20
-324.50000000000432
10
-52.25000267052701
20
-321.00000000000432
10
-67.75000267052701
20
-321.00000000000546
10
-67.75000267052674
20
-324.50000000000551
10
-89.349999999974187
20
-324.50000000000722
10
-89.349999999973662
20
-332.60000000000724
42
-0.99999999999999989
10
-97.149999999973673
20
-332.60000000000792
10
-97.149999999974256
20
-324.50000000000784
10
-97.249997329422357
20
-324.5000000000079
10
-97.249997329422641
20
-321.0000000000079
10
-112.74999732942264
20
-321.00000000000909
10
-112.74999732942237
20
-324.50000000000909
10
-132.24999732942237
20
-324.50000000001069
10
-132.24999732942265
20
-321.00000000001057
10
-147.74999732942268
20
-321.00000000001188
10
-147.7499973294224
20
-324.50000000001188
10
-147.84999999997436
20
-324.50000000001188
10
-147.84999999997584
20
-332.6000000000119
42
-0.99999999999999989
10
-155.64999999997585
20
-332.60000000001247
10
-155.64999999997437
20
-324.50000000001251
10
-162.49999999997439
20
-324.50000000001307
10
-162.49999999999986
20
-2.5000000000131815
10
-155.74999999999977
20
-2.5000000000126499
10
-155.7499999999992
20
-10.600000000012631
42
0.99999999999999989
10
-147.74999999999918
20
-10.600000000012029
10
-147.74999999999977
20
-2.5000000000119522
10
-97.249999999999858
20
-2.5000000000079603
10
-97.249999999999218
20
-10.600000000008013
42
0.99999999999999989
0
LWPOLYLINE
5
105
100
AcDbEntity
8
0
100
AcDbPolyline
90
8
70
1
43
0.0
10
-114.16674243049033
20
-178.75000000000941
10
-113.62499999998592
20
-178.75000000000938
42
0.99999999999999989
10
-113.62499999998607
20
-176.75000000000932
10
-114.16674243049052
20
-176.75000000000938
42
0.21821789023598365
10
-115.08325756948166
20
-176.75000000000946
10
-115.62499999998609
20
-176.75000000000952
42
0.99999999999999989
10
-115.62499999998593
20
-178.75000000000949
10
-115.0832575694815
20
-178.75000000000944
42
0.21821789023599097
0
LWPOLYLINE
5
106
100
AcDbEntity
8
0
100
AcDbPolyline
90
8
70
1
43
0.0
10
-115.08325756947947
20
-204.25000000000946
42
-0.21821789023598365
10
-114.16674243048833
20
-204.25000000000938
10
-113.6249999999839
20
-204.25000000000938
42
-0.99999999999999989
10
-113.62499999998376
20
-206.25000000000935
10
-114.16674243048816
20
-206.25000000000938
42
-0.21821789023599808
10
-115.08325756947933
20
-206.25000000000944
10
-115.62499999998377
20
-206.25000000000949
42
-0.99999999999999989
10
-115.62499999998391
20
-204.25000000000952
0
LWPOLYLINE
5
107
100
AcDbEntity
8
0
100
AcDbPolyline
90
8
70
1
43
0.0
10
-114.1667424304935
20
-138.75000000000941
10
-113.62499999998909
20
-138.75000000000938
42
0.99999999999999989
10
-113.62499999998924
20
-136.75000000000932
10
-114.16674243049368
20
-136.75000000000941
42
0.21821789023598551
10
-115.08325756948481
20
-136.75000000000946
10
-115.62499999998926
20
-136.75000000000952
42
0.99999999999999989
10
-115.62499999998909
20
-138.75000000000949
10
-115.08325756948466
20
-138.75000000000944
42
0.21821789023599097
0
LWPOLYLINE
5
108
100
AcDbEntity
8
0
100
AcDbPolyline
90
8
70
1
43
0.0
10
-115.62499999999125
20
-111.75000000000946
10
-115.0832575694868
20
-111.75000000000942
42
0.21821789023599109
10
-114.16674243049565
20
-111.75000000000938
10
-113.62499999999123
20
-111.75000000000934
42
0.99999999999999989
10
-113.62499999999137
20
-109.75000000000935
10
-114.16674243049577
20
-109.75000000000938
42
0.21821789023600013
10
-115.08325756948695
20
-109.75000000000949
10
-115.62499999999139
20
-109.75000000000948
42
0.99999999999999989
0
LWPOLYLINE
5
109
100
AcDbEntity
8
0
100
AcDbPolyline
90
8
70
1
43
0.0
10
-35.791745124351905
20
-192.47500000000312
42
-0.21821789023600041
10
-36.708260263343092
20
-192.47500000000321
10
-37.250002693847499
20
-192.47500000000318
42
-0.99999999999999989
10
-37.250002693847655
20
-190.47500000000323
10
-36.708260263343256
20
-190.47500000000315
42
-0.21821789023599064
10
-35.791745124352047
20
-190.47500000000312
10
-35.250002693847669
20
-190.47500000000301
42
-0.99999999999999989
10
-35.250002693847499
20
-192.47500000000298
0
LWPOLYLINE
5
110
100
AcDbEntity
8
0
100
AcDbPolyline
90
8
70
1
43
0.0
10
-113.62499999999351
20
-82.750000000009294
42
-0.99999999999999989
10
-113.62499999999336
20
-84.750000000009322
10
-114.16674243049778
20
-84.750000000009351
42
-0.21821789023598751
10
-115.08325756948894
20
-84.750000000009436
10
-115.62499999999338
20
-84.750000000009464
42
-0.99999999999999989
10
-115.62499999999352
20
-82.750000000009436
10
-115.08325756948909
20
-82.750000000009408
42
-0.21821789023599122
10
-114.16674243049792
20
-82.750000000009322
0
LWPOLYLINE
5
111
100
AcDbEntity
8
0
100
AcDbPolyline
90
8
70
1
43
0.0
10
-35.791745124353703
20
-169.90000000000305
10
-35.250002693849282
20
-169.90000000000299
42
0.99999999999999989
10
-35.250002693849453
20
-167.90000000000308
10
-35.791745124353874
20
-167.90000000000316
42
0.21821789023598562
10
-36.708260263345018
20
-167.90000000000322
10
-37.250002693849439
20
-167.9000000000033
42
0.99999999999999989
10
-37.250002693849282
20
-169.90000000000319
10
-36.708260263344876
20
-169.90000000000322
42
0.21821789023600799
0
LWPOLYLINE
5
112
100
AcDbEntity
8
0
100
AcDbPolyline
90
8
70
1
43
0.0
10
-35.791745124355579
20
-146.20000000000306
10
-35.250002693851165
20
-146.20000000000303
42
0.99999999999999989
10
-35.250002693851329
20
-144.20000000000303
10
-35.791745124355735
20
-144.20000000000312
42
0.21821789023599025
10
-36.708260263346901
20
-144.20000000000317
10
-37.250002693851314
20
-144.20000000000323
42
0.99999999999999989
10
-37.250002693851158
20
-146.2000000000032
10
-36.708260263346723
20
-146.20000000000317
42
0.21821789023599522
0
LWPOLYLINE
5
113
100
AcDbEntity
8
0
100
AcDbPolyline
90
8
70
1
43
0.0
10
-35.791745124357391
20
-123.300000000003
10
-35.250002693852977
20
-123.30000000000297
42
0.99999999999999989
10
-35.250002693853141
20
-121.30000000000305
10
-35.791745124357519
20
-121.30000000000308
42
0.21821789023599067
10
-36.708260263348713
20
-121.30000000000319
10
-37.250002693853126
20
-121.30000000000317
42
0.99999999999999989
10
-37.25000269385297
20
-123.30000000000314
10
-36.708260263348564
20
-123.30000000000318
42
0.2182178902360071
0
LWPOLYLINE
5
114
100
AcDbEntity
8
0
100
AcDbPolyline
90
8
70
1
43
0.0
10
-35.791745124359217
20
-100.20000000000306
10
-35.250002693854803
20
-100.20000000000302
42
0.99999999999999989
10
-35.250002693854967
20
-98.20000000000303
10
-35.79174512435938
20
-98.200000000003115
42
0.21821789023597515
10
-36.708260263350539
20
-98.200000000003172
10
-37.25000269385496
20
-98.200000000003214
42
0.99999999999999989
10
-37.250002693854796
20
-100.2000000000032
10
-36.70826026335039
20
-100.20000000000323
42
0.21821789023600799
0
LWPOLYLINE
5
115
100
AcDbEntity
8
0
100
AcDbPolyline
90
8
70
1
43
0.0
10
-35.791745124350115
20
-215.4000000000031
42
-0.21821789023598984
10
-36.708260263341252
20
-215.40000000000319
10
-37.250002693845687
20
-215.40000000000322
42
-0.99999999999999989
10
-37.250002693845843
20
-213.40000000000327
10
-36.708260263341423
20
-213.40000000000319
42
-0.21821789023598565
10
-35.791745124350271
20
-213.40000000000313
10
-35.250002693845857
20
-213.40000000000305
42
-0.99999999999999989
10
-35.250002693845687
20
-215.40000000000302
0
LWPOLYLINE
5
116
100
AcDbEntity
8
0
100
AcDbPolyline
90
8
70
1
43
0.0
10
-35.250002693856793
20
-75.100000000002993
10
-35.791745124361199
20
-75.100000000003035
42
0.21821789023598412
10
-36.708260263352365
20
-75.100000000003135
10
-37.250002693856786
20
-75.100000000003178
42
0.99999999999999989
10
-37.250002693856629
20
-77.100000000003178
10
-36.708260263352194
20
-77.100000000003149
42
0.21821789023599436
10
-35.791745124361043
20
-77.100000000003035
10
-35.250002693856629
20
-77.10000000000295
42
0.99999999999999989
0
LWPOLYLINE
5
117
100
AcDbEntity
8
0
100
AcDbPolyline
90
8
70
1
43
0.0
10
-35.25000269384406
20
-236.10000000000309
10
-35.791745124348466
20
-236.10000000000304
42
0.21821789023598498
10
-36.708260263339632
20
-236.10000000000315
10
-37.250002693844046
20
-236.10000000000321
42
0.99999999999999989
10
-37.250002693843889
20
-238.10000000000312
10
-36.708260263339476
20
-238.10000000000315
42
0.21821789023600899
10
-35.791745124348303
20
-238.10000000000298
10
-35.250002693843889
20
-238.10000000000298
42
0.99999999999999989
0
LWPOLYLINE
5
118
100
AcDbEntity
8
0
100
AcDbPolyline
90
4
70
1
43
0.0
10
-62.149999999986548
20
-167.82799463865263
10
-73.349999999986466
20
-167.82799463865354
10
-73.349999999986295
20
-169.87799463865355
10
-62.149999999986377
20
-169.87799463865264
0
LWPOLYLINE
5
119
100
AcDbEntity
8
0
100
AcDbPolyline
90
4
70
1
43
0.0
10
-62.149999999999288
20
-6.827994638652692
10
-73.349999999999213
20
-6.8279946386535784
10
-73.349999999999028
20
-8.877994638653524
10
-62.14999999999911
20
-8.8779946386526376
0
LWPOLYLINE
5
120
100
AcDbEntity
8
0
100
AcDbPolyline
90
4
70
1
43
0.0
10
-158.1249999999761
20
-303.48799463866021
10
-158.12499999997553
20
-310.38799463866025
10
-156.07499999997552
20
-310.38799463866013
10
-156.07499999997606
20
-303.4879946386601
0
LWPOLYLINE
5
121
100
AcDbEntity
8
0
100
AcDbPolyline
90
4
70
1
43
0.0
10
-158.12499999998883
20
-142.48799463866027
10
-158.12499999998829
20
-149.38799463866033
10
-156.07499999998825
20
-149.38799463866019
10
-156.07499999998882
20
-142.48799463866013
0
LWPOLYLINE
5
122
100
AcDbEntity
8
0
100
AcDbPolyline
90
4
70
1
43
0.0
10
-77.69999999997512
20
-310.93799463865378
10
-79.749999999975131
20
-310.93799463865395
10
-79.749999999974577
20
-317.83799463865392
10
-77.69999999997458
20
-317.83799463865375
0
LWPOLYLINE
5
123
100
AcDbEntity
8
0
100
AcDbPolyline
90
4
70
1
43
0.0
10
-77.699999999987867
20
-149.93799463865383
10
-79.749999999987864
20
-149.937994638654
10
-79.749999999987324
20
-156.83799463865401
10
-77.699999999987327
20
-156.83799463865384
0
LWPOLYLINE
5
124
100
AcDbEntity
8
0
100
AcDbPolyline
90
8
70
1
43
0.0
10
-35.791745124362848
20
-54.400000000003104
42
-0.21821789023598889
10
-36.708260263353992
20
-54.400000000003182
10
-37.25000269385842
20
-54.400000000003232
42
-0.99999999999999989
10
-37.250002693858583
20
-52.400000000003232
10
-36.708260263354148
20
-52.400000000003189
42
-0.21821789023598936
10
-35.791745124363004
20
-52.400000000003132
10
-35.25000269385859
20
-52.400000000003018
42
-0.99999999999999989
10
-35.250002693858427
20
-54.400000000003018
0
LWPOLYLINE
5
125
100
AcDbEntity
8
0
100
AcDbPolyline
90
4
70
1
43
0.0
10
-133.52499999998594
20
-179.90000000001095
10
-136.22499999998593
20
-179.90000000001118
10
-136.22499999998499
20
-191.80000000001115
10
-133.524999999985
20
-191.80000000001093
0
LWPOLYLINE
5
126
100
AcDbEntity
8
0
100
AcDbPolyline
90
4
70
1
43
0.0
10
-133.52499999999867
20
-18.900000000010948
10
-136.22499999999866
20
-18.900000000011161
10
-136.22499999999772
20
-30.80000000001121
10
-133.52499999999773
20
-30.800000000010993
0
LWPOLYLINE
5
127
100
AcDbEntity
8
0
100
AcDbPolyline
90
4
70
1
43
0.0
10
-62.149999999982768
20
-215.37799463865264
10
-62.149999999982924
20
-213.32799463865257
10
-73.34999999998287
20
-213.32799463865348
10
-73.349999999982685
20
-215.37799463865352
0
LWPOLYLINE
5
128
100
AcDbEntity
8
0
100
AcDbPolyline
90
4
70
1
43
0.0
10
-62.149999999995501
20
-54.377994638652609
10
-62.149999999995664
20
-52.327994638652555
10
-73.349999999995603
20
-52.327994638653479
10
-73.349999999995418
20
-54.377994638653497
0
LWPOLYLINE
5
129
100
AcDbEntity
8
0
100
AcDbPolyline
90
4
70
1
43
0.0
10
-136.22499999998283
20
-219.30000000001115
10
-133.52499999998284
20
-219.30000000001093
10
-133.52499999998378
20
-207.40000000001089
10
-136.22499999998377
20
-207.40000000001112
0
LWPOLYLINE
5
130
100
AcDbEntity
8
0
100
AcDbPolyline
90
4
70
1
43
0.0
10
-136.22499999999556
20
-58.300000000011138
10
-133.52499999999557
20
-58.300000000010925
10
-133.52499999999651
20
-46.400000000010877
10
-136.2249999999965
20
-46.40000000001109
0
LWPOLYLINE
5
131
100
AcDbEntity
8
0
100
AcDbPolyline
90
8
70
1
43
0.0
10
-35.791745124346484
20
-261.20000000000306
10
-35.250002693842063
20
-261.200000000003
42
0.99999999999999989
10
-35.250002693842234
20
-259.20000000000306
10
-35.791745124346626
20
-259.20000000000306
42
0.21821789023599134
10
-36.708260263337799
20
-259.20000000000312
10
-37.25000269384222
20
-259.20000000000317
42
0.99999999999999989
10
-37.250002693842063
20
-261.20000000000317
10
-36.708260263337642
20
-261.20000000000312
42
0.21821789023599555
0
LWPOLYLINE
5
132
100
AcDbEntity
8
0
100
AcDbPolyline
90
8
70
1
43
0.0
10
-35.791745124344651
20
-284.30000000000302
10
-35.250002693840237
20
-284.30000000000297
42
0.99999999999999989
10
-35.250002693840401
20
-282.30000000000302
10
-35.791745124344793
20
-282.30000000000308
42
0.21821789023599231
10
-36.708260263335973
20
-282.30000000000314
10
-37.250002693840393
20
-282.30000000000314
42
0.99999999999999989
10
-37.25000269384023
20
-284.30000000000314
10
-36.708260263335823
20
-284.30000000000314
42
0.21821789023600099
0
LWPOLYLINE
5
133
100
AcDbEntity
8
0
100
AcDbPolyline
90
4
70
1
43
0.0
10
-73.349999999977229
20
-284.27799463865347
10
-62.149999999977311
20
-284.27799463865256
10
-62.149999999977496
20
-282.2279946386526
10
-73.349999999977413
20
-282.22799463865346
0
LWPOLYLINE
5
134
100
AcDbEntity
8
0
100
AcDbPolyline
90
4
70
1
43
0.0
10
-73.349999999989976
20
-123.27799463865344
10
-62.149999999990051
20
-123.27799463865254
10
-62.149999999990229
20
-121.2279946386526
10
-73.349999999990146
20
-121.22799463865348
0
LWPOLYLINE
5
135
100
AcDbEntity
8
0
100
AcDbPolyline
90
4
70
1
43
0.0
10
-77.699999999981856
20
-226.03799463865386
10
-77.699999999982396
20
-219.13799463865388
10
-79.749999999982379
20
-219.13799463865402
10
-79.749999999981839
20
-226.03799463865403
0
LWPOLYLINE
5
136
100
AcDbEntity
8
0
100
AcDbPolyline
90
4
70
1
43
0.0
10
-77.699999999994589
20
-65.037994638653842
10
-77.699999999995129
20
-58.137994638653865
10
-79.749999999995126
20
-58.137994638654007
10
-79.749999999994571
20
-65.037994638653998
0
LWPOLYLINE
5
137
100
AcDbEntity
8
0
100
AcDbPolyline
90
8
70
1
43
0.0
10
-35.791745124342839
20
-307.20000000000306
10
-35.250002693838425
20
-307.200000000003
42
0.99999999999999989
10
-35.250002693838589
20
-305.200000000003
10
-35.791745124343009
20
-305.20000000000306
42
0.21821789023598653
10
-36.708260263334161
20
-305.20000000000312
10
-37.250002693838582
20
-305.20000000000317
42
0.99999999999999989
10
-37.250002693838418
20
-307.20000000000317
10
-36.70826026333399
20
-307.20000000000312
42
0.21821789023599264
0
LWPOLYLINE
5
138
100
AcDbEntity
8
0
100
AcDbPolyline
90
4
70
1
43
0.0
10
-158.12499999998036
20
-249.48799463866021
10
-158.12499999997979
20
-256.38799463866019
10
-156.07499999997978
20
-256.38799463866013
10
-156.07499999998032
20
-249.48799463866007
0
LWPOLYLINE
5
139
100
AcDbEntity
8
0
100
AcDbPolyline
90
4
70
1
43
0.0
10
-158.12499999999309
20
-88.487994638660226
10
-158.12499999999255
20
-95.387994638660274
10
-156.07499999999251
20
-95.387994638660132
10
-156.07499999999308
20
-88.487994638660069
0
LWPOLYLINE
5
140
100
AcDbEntity
8
0
100
AcDbPolyline
90
4
70
1
43
0.0
10
-62.149999999984757
20
-190.40299463865264
10
-73.349999999984675
20
-190.40299463865352
10
-73.349999999984504
20
-192.45299463865348
10
-62.149999999984601
20
-192.45299463865257
0
LWPOLYLINE
5
141
100
AcDbEntity
8
0
100
AcDbPolyline
90
4
70
1
43
0.0
10
-62.14999999999749
20
-29.402994638652697
10
-73.349999999997408
20
-29.402994638653581
10
-73.349999999997237
20
-31.452994638653525
10
-62.149999999997334
20
-31.45299463865264
0
LWPOLYLINE
5
142
100
AcDbEntity
8
0
100
AcDbPolyline
90
4
70
1
43
0.0
10
-73.349999999975608
20
-305.12799463865343
10
-73.349999999975438
20
-307.17799463865344
10
-62.14999999997552
20
-307.17799463865265
10
-62.149999999975677
20
-305.12799463865258
0
LWPOLYLINE
5
143
100
AcDbEntity
8
0
100
AcDbPolyline
90
4
70
1
43
0.0
10
-73.349999999988341
20
-144.12799463865355
10
-73.349999999988171
20
-146.17799463865353
10
-62.149999999988253
20
-146.17799463865259
10
-62.149999999988417
20
-144.12799463865267
0
LWPOLYLINE
5
144
100
AcDbEntity
8
0
100
AcDbPolyline
90
4
70
1
43
0.0
10
-77.699999999976939
20
-288.0379946386538
10
-79.749999999976936
20
-288.03799463865397
10
-79.749999999976382
20
-294.93799463865395
10
-77.699999999976399
20
-294.93799463865378
0
LWPOLYLINE
5
145
100
AcDbEntity
8
0
100
AcDbPolyline
90
4
70
1
43
0.0
10
-77.699999999989672
20
-127.03799463865386
10
-79.749999999989683
20
-127.03799463865401
10
-79.749999999989143
20
-133.937994638654
10
-77.699999999989132
20
-133.93799463865383
0
LWPOLYLINE
5
146
100
AcDbEntity
8
0
100
AcDbPolyline
90
4
70
1
43
0.0
10
-79.749999999980048
20
-248.73799463865399
10
-77.699999999980051
20
-248.73799463865382
10
-77.699999999980605
20
-241.83799463865381
10
-79.749999999980588
20
-241.83799463865398
0
LWPOLYLINE
5
147
100
AcDbEntity
8
0
100
AcDbPolyline
90
4
70
1
43
0.0
10
-79.749999999992781
20
-87.737994638653959
10
-77.699999999992784
20
-87.737994638653802
10
-77.699999999993338
20
-80.837994638653811
10
-79.749999999993321
20
-80.837994638653967
0
LWPOLYLINE
5
148
100
AcDbEntity
8
0
100
AcDbPolyline
90
4
70
1
43
0.0
10
-77.699999999986005
20
-173.63799463865388
10
-79.749999999986002
20
-173.63799463865405
10
-79.749999999985448
20
-180.53799463865406
10
-77.699999999985451
20
-180.53799463865388
0
LWPOLYLINE
5
149
100
AcDbEntity
8
0
100
AcDbPolyline
90
4
70
1
43
0.0
10
-77.699999999998738
20
-12.637994638653945
10
-79.749999999998735
20
-12.637994638654106
10
-79.749999999998181
20
-19.537994638654105
10
-77.699999999998198
20
-19.537994638653938
0
LWPOLYLINE
5
150
100
AcDbEntity
8
0
100
AcDbPolyline
90
4
70
1
43
0.0
10
-77.6999999999842
20
-196.21299463865381
10
-79.749999999984198
20
-196.21299463865398
10
-79.749999999983658
20
-203.11299463865407
10
-77.69999999998366
20
-203.1129946386539
0
LWPOLYLINE
5
151
100
AcDbEntity
8
0
100
AcDbPolyline
90
4
70
1
43
0.0
10
-77.699999999996948
20
-35.212994638653875
10
-79.749999999996945
20
-35.212994638654038
10
-79.74999999999639
20
-42.11299463865403
10
-77.699999999996393
20
-42.112994638653944
0
LWPOLYLINE
5
152
100
AcDbEntity
8
0
100
AcDbPolyline
90
8
70
1
43
0.0
10
-35.791745124366436
20
-8.9000000000031747
10
-35.250002693862022
20
-8.9000000000031321
42
0.99999999999999989
10
-35.250002693862193
20
-6.9000000000031312
10
-35.791745124366599
20
-6.9000000000032262
42
0.21821789023598731
10
-36.708260263357758
20
-6.9000000000032733
10
-37.250002693862179
20
-6.9000000000033346
42
0.99999999999999989
10
-37.250002693862015
20
-8.9000000000033168
10
-36.708260263357587
20
-8.9000000000032813
42
0.21821789023599475
0
LWPOLYLINE
5
153
100
AcDbEntity
8
0
100
AcDbPolyline
90
4
70
1
43
0.0
10
-55.149999999981944
20
-228.45000000000468
10
-55.149999999982882
20
-216.55000000000462
10
-57.849999999982877
20
-216.55000000000484
10
-57.849999999981932
20
-228.45000000000488
0
LWPOLYLINE
5
154
100
AcDbEntity
8
0
100
AcDbPolyline
90
4
70
1
43
0.0
10
-55.149999999994677
20
-67.450000000004664
10
-55.149999999995615
20
-55.550000000004616
10
-57.849999999995617
20
-55.550000000004829
10
-57.849999999994672
20
-67.450000000004877
0
LWPOLYLINE
5
155
100
AcDbEntity
8
0
100
AcDbPolyline
90
4
70
1
43
0.0
10
-57.849999999983751
20
-205.52500000000487
10
-55.149999999983748
20
-205.52500000000464
10
-55.149999999984693
20
-193.62500000000466
10
-57.849999999984689
20
-193.62500000000489
0
LWPOLYLINE
5
156
100
AcDbEntity
8
0
100
AcDbPolyline
90
4
70
1
43
0.0
10
-57.849999999996484
20
-44.525000000004837
10
-55.149999999996488
20
-44.525000000004624
10
-55.149999999997434
20
-32.625000000004718
10
-57.849999999997422
20
-32.625000000004867
0
LWPOLYLINE
5
157
100
AcDbEntity
8
0
100
AcDbPolyline
90
4
70
1
43
0.0
10
-55.149999999974675
20
-320.25000000000455
10
-55.14999999997562
20
-308.35000000000451
10
-57.849999999975608
20
-308.3500000000048
10
-57.849999999974671
20
-320.25000000000477
0
LWPOLYLINE
5
158
100
AcDbEntity
8
0
100
AcDbPolyline
90
4
70
1
43
0.0
10
-55.149999999987415
20
-159.25000000000466
10
-55.149999999988353
20
-147.35000000000463
10
-57.849999999988349
20
-147.35000000000483
10
-57.849999999987403
20
-159.25000000000489
0
LWPOLYLINE
5
159
100
AcDbEntity
8
0
100
AcDbPolyline
90
8
70
1
43
0.0
10
-113.62499999998077
20
-243.75000000000932
42
-0.99999999999999989
10
-113.62499999998063
20
-245.75000000000932
10
-114.16674243048504
20
-245.75000000000938
42
-0.21821789023598751
10
-115.0832575694762
20
-245.75000000000944
10
-115.62499999998064
20
-245.75000000000949
42
-0.99999999999999989
10
-115.62499999998079
20
-243.75000000000944
10
-115.08325756947636
20
-243.75000000000941
42
-0.21821789023599122
10
-114.16674243048519
20
-243.75000000000935
0
LWPOLYLINE
5
160
100
AcDbEntity
8
0
100
AcDbPolyline
90
8
70
1
43
0.0
10
-35.791745124364638
20
-31.475000000003199
42
-0.2182178902360026
10
-36.708260263355832
20
-31.475000000003273
10
-37.250002693860232
20
-31.47500000000333
42
-0.99999999999999989
10
-37.250002693860395
20
-29.475000000003337
10
-36.708260263355967
20
-29.475000000003291
42
-0.21821789023598798
10
-35.791745124364816
20
-29.475000000003227
10
-35.250002693860402
20
-29.475000000003124
42
-0.99999999999999989
10
-35.250002693860239
20
-31.475000000003117
0
LWPOLYLINE
5
161
100
AcDbEntity
8
0
100
AcDbPolyline
90
4
70
1
43
0.0
10
-140.52499999998074
20
-245.72799463865891
10
-140.52499999998088
20
-243.67799463865884
10
-150.02499999998071
20
-243.67799463865958
10
-150.02499999998054
20
-245.72799463865965
0
LWPOLYLINE
5
162
100
AcDbEntity
8
0
100
AcDbPolyline
90
4
70
1
43
0.0
10
-140.52499999999347
20
-84.727994638658899
10
-140.52499999999361
20
-82.677994638658916
10
-150.02499999999344
20
-82.677994638659627
10
-150.02499999999327
20
-84.727994638659652
0
LWPOLYLINE
5
163
100
AcDbEntity
8
0
100
AcDbPolyline
90
4
70
1
43
0.0
10
-156.07499999998294
20
-216.88799463866013
10
-156.07499999998348
20
-209.98799463866015
10
-158.12499999998349
20
-209.98799463866027
10
-158.12499999998292
20
-216.8879946386603
0
LWPOLYLINE
5
164
100
AcDbEntity
8
0
100
AcDbPolyline
90
4
70
1
43
0.0
10
-156.07499999999567
20
-55.887994638660103
10
-156.07499999999621
20
-48.987994638660126
10
-158.12499999999622
20
-48.987994638660268
10
-158.12499999999568
20
-55.88799463866026
0
LWPOLYLINE
5
165
100
AcDbEntity
8
0
100
AcDbPolyline
90
8
70
1
43
0.0
10
-115.62499999997851
20
-272.75000000000949
10
-115.08325756947407
20
-272.75000000000944
42
0.21821789023599103
10
-114.16674243048291
20
-272.75000000000932
10
-113.6249999999785
20
-272.75000000000927
42
0.99999999999999989
10
-113.62499999997864
20
-270.75000000000932
10
-114.16674243048305
20
-270.75000000000938
42
0.21821789023599455
10
-115.08325756947421
20
-270.75000000000944
10
-115.62499999997866
20
-270.75000000000949
42
0.99999999999999989
0
LWPOLYLINE
5
166
100
AcDbEntity
8
0
100
AcDbPolyline
90
4
70
1
43
0.0
10
-73.349999999980895
20
-238.07799463865348
10
-62.149999999980977
20
-238.07799463865257
10
-62.149999999981148
20
-236.02799463865256
10
-73.349999999981065
20
-236.02799463865347
0
LWPOLYLINE
5
167
100
AcDbEntity
8
0
100
AcDbPolyline
90
4
70
1
43
0.0
10
-73.349999999993628
20
-77.077994638653394
10
-62.14999999999371
20
-77.077994638652498
10
-62.149999999993888
20
-75.027994638652558
10
-73.349999999993813
20
-75.027994638653439
0
LWPOLYLINE
5
168
100
AcDbEntity
8
0
100
AcDbPolyline
90
4
70
1
43
0.0
10
-55.14999999997832
20
-274.2500000000046
10
-55.149999999979258
20
-262.35000000000457
10
-57.849999999979254
20
-262.3500000000048
10
-57.849999999978309
20
-274.25000000000477
0
LWPOLYLINE
5
169
100
AcDbEntity
8
0
100
AcDbPolyline
90
4
70
1
43
0.0
10
-55.149999999991053
20
-113.25000000000465
10
-55.149999999991991
20
-101.3500000000046
10
-57.849999999991994
20
-101.35000000000481
10
-57.849999999991049
20
-113.25000000000486
0
LWPOLYLINE
5
170
100
AcDbEntity
8
0
100
AcDbPolyline
90
4
70
1
43
0.0
10
-133.52499999997542
20
-312.80000000001093
10
-133.52499999997636
20
-300.90000000001089
10
-136.22499999997638
20
-300.90000000001112
10
-136.22499999997541
20
-312.8000000000111
0
LWPOLYLINE
5
171
100
AcDbEntity
8
0
100
AcDbPolyline
90
4
70
1
43
0.0
10
-133.52499999998815
20
-151.80000000001093
10
-133.52499999998909
20
-139.90000000001095
10
-136.22499999998911
20
-139.90000000001118
10
-136.22499999998814
20
-151.80000000001115
0
LWPOLYLINE
5
172
100
AcDbEntity
8
0
100
AcDbPolyline
90
4
70
1
43
0.0
10
-158.12499999997766
20
-283.3879946386603
10
-156.07499999997765
20
-283.38799463866013
10
-156.07499999997822
20
-276.48799463866004
10
-158.12499999997823
20
-276.48799463866021
0
LWPOLYLINE
5
173
100
AcDbEntity
8
0
100
AcDbPolyline
90
4
70
1
43
0.0
10
-158.12499999999039
20
-122.38799463866032
10
-156.07499999999038
20
-122.38799463866016
10
-156.07499999999095
20
-115.4879946386601
10
-158.12499999999096
20
-115.48799463866025
0
LWPOLYLINE
5
174
100
AcDbEntity
8
0
100
AcDbPolyline
90
4
70
1
43
0.0
10
-55.149999999976487
20
-297.35000000000457
10
-55.149999999977425
20
-285.45000000000459
10
-57.849999999977427
20
-285.45000000000476
10
-57.849999999976482
20
-297.35000000000474
0
LWPOLYLINE
5
175
100
AcDbEntity
8
0
100
AcDbPolyline
90
4
70
1
43
0.0
10
-55.14999999998922
20
-136.3500000000046
10
-55.149999999990165
20
-124.45000000000462
10
-57.84999999999016
20
-124.45000000000483
10
-57.849999999989222
20
-136.3500000000048
0
LWPOLYLINE
5
176
100
AcDbEntity
8
0
100
AcDbPolyline
90
4
70
1
43
0.0
10
-133.52499999998065
20
-246.90000000001083
10
-136.22499999998064
20
-246.90000000001106
10
-136.2249999999797
20
-258.8000000000111
10
-133.52499999997971
20
-258.80000000001087
0
LWPOLYLINE
5
177
100
AcDbEntity
8
0
100
AcDbPolyline
90
4
70
1
43
0.0
10
-133.52499999999338
20
-85.900000000010834
10
-136.22499999999337
20
-85.900000000011119
10
-136.22499999999243
20
-97.800000000011096
10
-133.52499999999245
20
-97.800000000010883
0
LWPOLYLINE
5
178
100
AcDbEntity
8
0
100
AcDbPolyline
90
4
70
1
43
0.0
10
-62.149999999979322
20
-259.12799463865264
10
-73.349999999979246
20
-259.12799463865349
10
-73.349999999979062
20
-261.1779946386535
10
-62.149999999979144
20
-261.17799463865259
0
LWPOLYLINE
5
179
100
AcDbEntity
8
0
100
AcDbPolyline
90
4
70
1
43
0.0
10
-62.149999999992062
20
-98.127994638652638
10
-73.349999999991979
20
-98.127994638653533
10
-73.349999999991809
20
-100.17799463865347
10
-62.149999999991877
20
-100.17799463865259
0
LWPOLYLINE
5
180
100
AcDbEntity
8
0
100
AcDbPolyline
90
4
70
1
43
0.0
10
-57.84999999998648
20
-171.05000000000487
10
-57.849999999985542
20
-182.95000000000485
10
-55.149999999985546
20
-182.95000000000465
10
-55.149999999986491
20
-171.05000000000467
0
LWPOLYLINE
5
181
100
AcDbEntity
8
0
100
AcDbPolyline
90
4
70
1
43
0.0
10
-57.84999999999922
20
-10.050000000004932
10
-57.849999999998275
20
-21.950000000004906
10
-55.149999999998286
20
-21.950000000004689
10
-55.149999999999224
20
-10.050000000004715
0
LWPOLYLINE
5
182
100
AcDbEntity
8
0
100
AcDbPolyline
90
4
70
1
43
0.0
10
-79.749999999978215
20
-271.83799463865398
10
-77.699999999978218
20
-271.83799463865381
10
-77.699999999978772
20
-264.93799463865378
10
-79.749999999978755
20
-264.93799463865395
0
LWPOLYLINE
5
183
100
AcDbEntity
8
0
100
AcDbPolyline
90
4
70
1
43
0.0
10
-79.749999999990962
20
-110.83799463865398
10
-77.699999999990951
20
-110.83799463865383
10
-77.699999999991505
20
-103.93799463865383
10
-79.749999999991502
20
-103.93799463865399
0
LWPOLYLINE
5
184
100
AcDbEntity
8
0
100
AcDbPolyline
90
8
70
1
43
0.0
10
-114.16674243048077
20
-299.75000000000938
10
-113.62499999997635
20
-299.75000000000932
42
0.99999999999999989
10
-113.62499999997651
20
-297.75000000000932
10
-114.16674243048094
20
-297.75000000000938
42
0.21821789023598365
10
-115.08325756947208
20
-297.75000000000944
10
-115.62499999997652
20
-297.75000000000949
42
0.99999999999999989
10
-115.62499999997635
20
-299.75000000000949
10
-115.08325756947193
20
-299.75000000000944
42
0.21821789023599455
0
LWPOLYLINE
5
185
100
AcDbEntity
8
0
100
AcDbPolyline
90
4
70
1
43
0.0
10
-57.849999999980142
20
-251.15000000000487
10
-55.149999999980146
20
-251.15000000000464
10
-55.149999999981091
20
-239.2500000000046
10
-57.84999999998108
20
-239.2500000000048
0
LWPOLYLINE
5
186
100
AcDbEntity
8
0
100
AcDbPolyline
90
4
70
1
43
0.0
10
-57.849999999992875
20
-90.150000000004766
10
-55.149999999992886
20
-90.150000000004553
10
-55.149999999993824
20
-78.250000000004576
10
-57.84999999999382
20
-78.250000000004789
0
LWPOLYLINE
5
187
100
AcDbEntity
8
0
100
AcDbPolyline
90
8
70
1
43
0.0
10
-115.0832575694922
20
-43.250000000009464
42
-0.21821789023598726
10
-114.16674243050107
20
-43.250000000009393
10
-113.62499999999663
20
-43.250000000009351
42
-0.99999999999999989
10
-113.62499999999649
20
-45.250000000009351
10
-114.16674243050093
20
-45.250000000009372
42
-0.21821789023598551
10
-115.08325756949205
20
-45.250000000009443
10
-115.6249999999965
20
-45.250000000009493
42
-0.99999999999999989
10
-115.62499999999665
20
-43.250000000009493
0
LWPOLYLINE
5
188
100
AcDbEntity
8
0
100
AcDbPolyline
90
4
70
1
43
0.0
10
-140.52499999997875
20
-270.6779946386589
10
-151.72499999997868
20
-270.67799463865975
10
-151.72499999997851
20
-272.72799463865977
10
-140.5249999999786
20
-272.72799463865886
0
LWPOLYLINE
5
189
100
AcDbEntity
8
0
100
AcDbPolyline
90
4
70
1
43
0.0
10
-140.52499999999151
20
-109.6779946386589
10
-151.72499999999141
20
-109.6779946386598
10
-151.72499999999127
20
-111.72799463865982
10
-140.52499999999134
20
-111.72799463865893
0
LWPOLYLINE
5
190
100
AcDbEntity
8
0
100
AcDbPolyline
90
4
70
1
43
0.0
10
-158.12499999998511
20
-189.38799463866036
10
-156.0749999999851
20
-189.38799463866019
10
-156.07499999998564
20
-182.4879946386601
10
-158.12499999998568
20
-182.48799463866027
0
LWPOLYLINE
5
191
100
AcDbEntity
8
0
100
AcDbPolyline
90
4
70
1
43
0.0
10
-158.12499999999784
20
-28.387994638660338
10
-156.07499999999783
20
-28.387994638660174
10
-156.0749999999984
20
-21.487994638660176
10
-158.12499999999841
20
-21.487994638660339
0
LWPOLYLINE
5
192
100
AcDbEntity
8
0
100
AcDbPolyline
90
4
70
1
43
0.0
10
-140.52499999998386
20
-206.22799463865897
10
-140.524999999984
20
-204.1779946386589
10
-151.72499999998394
20
-204.17799463865975
10
-151.72499999998377
20
-206.22799463865985
0
LWPOLYLINE
5
193
100
AcDbEntity
8
0
100
AcDbPolyline
90
4
70
1
43
0.0
10
-140.5249999999966
20
-45.22799463865887
10
-140.52499999999674
20
-43.177994638658888
10
-151.72499999999667
20
-43.17799463865974
10
-151.7249999999965
20
-45.227994638659759
0
LWPOLYLINE
5
194
100
AcDbEntity
8
0
100
AcDbPolyline
90
4
70
1
43
0.0
10
-140.52499999998619
20
-176.67799463865893
10
-151.7249999999861
20
-176.67799463865981
10
-151.72499999998595
20
-178.72799463865985
10
-140.52499999998602
20
-178.72799463865897
0
LWPOLYLINE
5
195
100
AcDbEntity
8
0
100
AcDbPolyline
90
4
70
1
43
0.0
10
-140.52499999999893
20
-15.677994638658925
10
-151.72499999999883
20
-15.677994638659811
10
-151.72499999999869
20
-17.727994638659897
10
-140.52499999999876
20
-17.727994638659013
0
LWPOLYLINE
5
196
100
AcDbEntity
8
0
100
AcDbPolyline
90
4
70
1
43
0.0
10
-140.52499999997661
20
-297.6779946386589
10
-151.72499999997655
20
-297.67799463865975
10
-151.72499999997638
20
-299.72799463865977
10
-140.52499999997647
20
-299.72799463865891
0
LWPOLYLINE
5
197
100
AcDbEntity
8
0
100
AcDbPolyline
90
4
70
1
43
0.0
10
-140.52499999998935
20
-136.67799463865893
10
-151.72499999998928
20
-136.67799463865981
10
-151.72499999998911
20
-138.72799463865985
10
-140.52499999998921
20
-138.72799463865897
0
LWPOLYLINE
5
198
100
AcDbEntity
8
0
100
AcDbPolyline
90
4
70
1
43
0.0
10
-133.52499999997849
20
-273.90000000001089
10
-136.22499999997848
20
-273.90000000001112
10
-136.22499999997754
20
-285.8000000000111
10
-133.52499999997755
20
-285.80000000001087
0
LWPOLYLINE
5
199
100
AcDbEntity
8
0
100
AcDbPolyline
90
4
70
1
43
0.0
10
-133.52499999999122
20
-112.90000000001093
10
-136.22499999999124
20
-112.90000000001115
10
-136.2249999999903
20
-124.80000000001112
10
-133.52499999999029
20
-124.80000000001091
0
LWPOLYLINE
5
200
100
AcDbEntity
8
0
100
AcDbPolyline
90
8
70
1
43
0.0
10
-114.16674243050308
20
-17.750000000009479
10
-113.62499999999866
20
-17.750000000009436
42
0.99999999999999989
10
-113.62499999999882
20
-15.750000000009365
10
-114.16674243050325
20
-15.750000000009457
42
0.2182178902359844
10
-115.08325756949439
20
-15.750000000009507
10
-115.62499999999883
20
-15.750000000009567
42
0.99999999999999989
10
-115.62499999999866
20
-17.75000000000955
10
-115.08325756949424
20
-17.750000000009511
42
0.21821789023598995
0
CIRCLE
5
201
100
AcDbEntity
8
0
100
AcDbCircle
10
-122.49999732942248
20
-322.75000000000995
30
0
40
1.6249999999999967
210
-6.1629758220430562e-33
220
4.9303806576312751e-32
230
1
0
CIRCLE
5
202
100
AcDbEntity
8
0
100
AcDbCircle
10
-82.49999999997469
20
-322.75000000000682
30
0
40
1.6249999999999967
210
-6.1629758220430562e-33
220
4.9303806576312751e-32
230
1
0
LWPOLYLINE
5
203
100
AcDbEntity
8
0
100
AcDbPolyline
90
4
70
1
43
0.0
10
-17.250002670539779
20
-160.00000000000159
10
-32.750002670539764
20
-160.00000000000284
10
-32.75000267053948
20
-163.50000000000281
10
-17.250002670539494
20
-163.50000000000159
0
CIRCLE
5
204
100
AcDbEntity
8
0
100
AcDbCircle
10
-122.49999732943522
20
-161.75000000001006
30
0
40
1.6249999999999967
210
-6.1629758220430562e-33
220
4.9303806576312751e-32
230
1
0
LWPOLYLINE
5
205
100
AcDbEntity
8
0
100
AcDbPolyline
90
4
70
1
43
0.0
10
-67.799999329429525
20
-229.29452563736874
10
-67.799999329429255
20
-232.79452563736874
10
-52.299999329429248
20
-232.79452563736749
10
-52.299999329429525
20
-229.29452563736749
0
LWPOLYLINE
5
206
100
AcDbEntity
8
0
100
AcDbPolyline
90
4
70
1
43
0.0
10
-17.299999329429529
20
-229.29452563736473
10
-32.799999329429525
20
-229.29452563736595
10
-32.799999329429248
20
-232.79452563736595
10
-17.299999329429248
20
-232.7945256373647
0
LWPOLYLINE
5
207
100
AcDbEntity
8
0
100
AcDbPolyline
90
4
70
1
43
0.0
10
-132.2499973294351
20
-163.50000000001069
10
-132.24999732943539
20
-160.00000000001066
10
-147.74999732943542
20
-160.00000000001194
10
-147.74999732943513
20
-163.50000000001191
0
LWPOLYLINE
5
208
100
AcDbEntity
8
0
100
AcDbPolyline
90
4
70
1
43
0.0
10
-52.25000267053975
20
-160.00000000000438
10
-67.750002670539757
20
-160.00000000000563
10
-67.750002670539473
20
-163.5000000000056
10
-52.250002670539459
20
-163.50000000000435
0
LWPOLYLINE
5
209
100
AcDbEntity
8
0
100
AcDbPolyline
90
4
70
1
43
0.0
10
-112.74999732943539
20
-160.00000000000915
10
-112.7499973294351
20
-163.50000000000927
10
-97.249997329435089
20
-163.50000000000796
10
-97.249997329435374
20
-160.00000000000793
0
LWPOLYLINE
5
210
100
AcDbEntity
8
0
100
AcDbPolyline
90
4
70
1
43
0.0
10
-112.7999993294295
20
-229.29452563737229
10
-112.79999932942921
20
-232.79452563737232
10
-97.299999329429198
20
-232.79452563737109
10
-97.299999329429482
20
-229.29452563737104
0
CIRCLE
5
211
100
AcDbEntity
8
0
100
AcDbCircle
10
-10.04999999998172
20
-231.04452563736416
30
0
40
1.5500000000000007
210
9.7486420035902632e-45
220
-1.2325951644078309e-31
230
1
0
LWPOLYLINE
5
212
100
AcDbEntity
8
0
100
AcDbPolyline
90
4
70
1
43
0.0
10
-132.2999993294292
20
-232.79452563737379
10
-132.29999932942948
20
-229.29452563737379
10
-147.79999932942951
20
-229.29452563737505
10
-147.79999932942923
20
-232.79452563737505
0
CIRCLE
5
213
100
AcDbEntity
8
0
100
AcDbCircle
10
-82.499999999987423
20
-161.75000000000688
30
0
40
1.6249999999999967
210
-6.1629758220430562e-33
220
4.9303806576312751e-32
230
1
0
LWPOLYLINE
5
214
100
AcDbEntity
8
0
100
AcDbPolyline
90
4
70
1
43
0.0
10
-67.799999329442258
20
-68.294525637368722
10
-67.799999329441988
20
-71.794525637368736
10
-52.299999329441988
20
-71.794525637367457
10
-52.299999329442258
20
-68.294525637367499
0
LWPOLYLINE
5
215
100
AcDbEntity
8
0
100
AcDbPolyline
90
4
70
1
43
0.0
10
-17.299999329442265
20
-68.294525637364728
10
-32.799999329442265
20
-68.29452563736595
10
-32.799999329441988
20
-71.794525637365908
10
-17.299999329441988
20
-71.794525637364686
0
LWPOLYLINE
5
216
100
AcDbEntity
8
0
100
AcDbPolyline
90
4
70
1
43
0.0
10
-112.79999932944224
20
-68.294525637372274
10
-112.79999932944196
20
-71.794525637372288
10
-97.299999329441945
20
-71.794525637371081
10
-97.29999932944223
20
-68.294525637371052
0
CIRCLE
5
217
100
AcDbEntity
8
0
100
AcDbCircle
10
-10.049999999994458
20
-70.044525637364146
30
0
40
1.5500000000000007
210
9.7486420035902632e-45
220
-1.2325951644078309e-31
230
1
0
LWPOLYLINE
5
218
100
AcDbEntity
8
0
100
AcDbPolyline
90
4
70
1
43
0.0
10
-132.29999932944193
20
-71.794525637373781
10
-132.29999932944222
20
-68.294525637373766
10
-147.79999932944224
20
-68.294525637375045
10
-147.79999932944196
20
-71.794525637375003
0
CIRCLE
5
219
100
AcDbEntity
8
0
100
AcDbCircle
10
-138.22499999998689
20
-167.50000000001114
30
0
40
1.1250000000000073
210
6.1629758220352553e-33
220
4.930380657631373e-32
230
1
0
CIRCLE
5
220
100
AcDbEntity
8
0
100
AcDbCircle
10
-59.849999999976063
20
-302.85000000000497
30
0
40
1.1250000000000073
210
6.1629758220352553e-33
220
4.930380657631373e-32
230
1
0
CIRCLE
5
221
100
AcDbEntity
8
0
100
AcDbCircle
10
-138.22499999997694
20
-293.35000000001128
30
0
40
1.1250000000000073
210
6.1629758220352553e-33
220
4.930380657631373e-32
230
1
0
CIRCLE
5
222
100
AcDbEntity
8
0
100
AcDbCircle
10
-59.849999999983311
20
-211.03750000000497
30
0
40
1.1250000000000073
210
6.1629758220352553e-33
220
4.930380657631373e-32
230
1
0
CIRCLE
5
223
100
AcDbEntity
8
0
100
AcDbCircle
10
-138.22499999999965
20
-6.5000000000112124
30
0
40
1.1250000000000073
210
6.1629758220352553e-33
220
4.930380657631373e-32
230
1
0
CIRCLE
5
224
100
AcDbEntity
8
0
100
AcDbCircle
10
-59.849999999988803
20
-141.850000000005
30
0
40
1.1250000000000073
210
6.1629758220352553e-33
220
4.930380657631373e-32
230
1
0
CIRCLE
5
225
100
AcDbEntity
8
0
100
AcDbCircle
10
-138.22499999998971
20
-132.35000000001128
30
0
40
1.1250000000000073
210
6.1629758220352553e-33
220
4.930380657631373e-32
230
1
0
CIRCLE
5
226
100
AcDbEntity
8
0
100
AcDbCircle
10
-59.849999999996051
20
-50.037500000005011
30
0
40
1.1250000000000073
210
6.1629758220352553e-33
220
4.930380657631373e-32
230
1
0
LWPOLYLINE
5
227
100
AcDbEntity
8
0
100
AcDbPolyline
90
4
70
1
43
0.0
10
-16.624999999998231
20
-22.500000000001638
10
-16.624999999997044
20
-37.500000000001705
42
0.99999999999999989
10
-14.374999999997044
20
-37.500000000001485
10
-14.374999999998231
20
-22.500000000001403
42
0.99999999999999989
0
LWPOLYLINE
5
228
100
AcDbEntity
8
0
100
AcDbPolyline
90
4
70
1
43
0.0
10
-94.37499999999828
20
-22.500000000007748
10
-94.374999999997172
20
-37.500000000007816
42
0.99999999999999989
10
-92.124999999997087
20
-37.500000000007667
10
-92.124999999998266
20
-22.500000000007585
42
0.99999999999999989
0
CIRCLE
5
229
100
AcDbEntity
8
0
100
AcDbCircle
10
-255.2499999999765
20
-298.50000000002035
30
0
40
1.1250000000000073
210
-3.8994568014361054e-45
220
4.9303806576313238e-32
230
1
0
CIRCLE
5
230
100
AcDbEntity
8
0
100
AcDbCircle
10
-177.49999999997522
20
-313.50000000001421
30
0
40
1.1250000000000073
210
-3.8994568014361054e-45
220
4.9303806576313238e-32
230
1
0
CIRCLE
5
231
100
AcDbEntity
8
0
100
AcDbCircle
10
-255.24999999997533
20
-313.50000000002035
30
0
40
1.1250000000000073
210
-3.8994568014361054e-45
220
4.9303806576313238e-32
230
1
0
CIRCLE
5
232
100
AcDbEntity
8
0
100
AcDbCircle
10
-177.49999999997641
20
-298.50000000001421
30
0
40
1.1250000000000073
210
-3.8994568014361054e-45
220
4.9303806576313238e-32
230
1
0
LWPOLYLINE
5
233
100
AcDbEntity
8
0
100
AcDbPolyline
90
44
70
1
43
0.0
10
-251.2499999999992
20
-10.6000000000202
10
-251.24999999999989
20
-2.5000000000201794
10
-179.24999999999983
20
-2.5000000000144262
10
-179.24999999999915
20
-10.600000000014479
42
0.99999999999999989
10
-171.24999999999918
20
-10.600000000013877
10
-171.24999999999983
20
-2.5000000000138209
10
-164.49999999999983
20
-2.5000000000132871
10
-164.49999999997434
20
-324.50000000001319
10
-171.34999999997433
20
-324.50000000001376
10
-171.3499999999737
20
-332.60000000001378
42
-0.99999999999999989
10
-179.14999999997372
20
-332.60000000001435
10
-179.14999999997434
20
-324.50000000001432
10
-179.25000267052673
20
-324.50000000001438
10
-179.25000267052707
20
-321.00000000001432
10
-194.75000267052704
20
-321.00000000001558
10
-194.75000267052675
20
-324.50000000001558
10
-214.25000267052673
20
-324.50000000001705
10
-214.25000267052701
20
-321.00000000001717
10
-229.75000267052704
20
-321.0000000000183
10
-229.75000267052673
20
-324.5000000000183
10
-251.34999999997422
20
-324.50000000002001
10
-251.34999999997373
20
-332.60000000002003
42
-0.99999999999999989
10
-259.14999999997366
20
-332.60000000002071
10
-259.14999999997428
20
-324.50000000002063
10
-259.24999732942234
20
-324.50000000002069
10
-259.24999732942263
20
-321.00000000002069
10
-274.74999732942263
20
-321.00000000002188
10
-274.7499973294224
20
-324.50000000002194
10
-294.2499973294224
20
-324.50000000002348
10
-294.24999732942263
20
-321.00000000002342
10
-309.74999732942268
20
-321.00000000002467
10
-309.7499973294224
20
-324.50000000002467
10
-309.84999999997439
20
-324.50000000002467
10
-309.84999999997581
20
-332.60000000002469
42
-0.99999999999999989
10
-317.64999999997588
20
-332.60000000002526
10
-317.64999999997434
20
-324.50000000002535
10
-324.49999999997436
20
-324.50000000002592
10
-324.49999999999983
20
-2.5000000000259712
10
-317.74999999999983
20
-2.5000000000254397
10
-317.74999999999926
20
-10.600000000025421
42
0.99999999999999989
10
-309.7499999999992
20
-10.600000000024819
10
-309.74999999999977
20
-2.500000000024742
10
-259.24999999999989
20
-2.5000000000207501
10
-259.2499999999992
20
-10.600000000020803
42
0.99999999999999989
0
LWPOLYLINE
5
234
100
AcDbEntity
8
0
100
AcDbPolyline
90
8
70
1
43
0.0
10
-276.16674243049039
20
-178.7500000000222
10
-275.6249999999859
20
-178.75000000002217
42
0.99999999999999989
10
-275.62499999998607
20
-176.75000000002211
10
-276.1667424304905
20
-176.75000000002217
42
0.21821789023598751
10
-277.08325756948165
20
-176.75000000002225
10
-277.62499999998613
20
-176.75000000002231
42
0.99999999999999989
10
-277.6249999999859
20
-178.75000000002228
10
-277.08325756948148
20
-178.75000000002223
42
0.21821789023598334
0
LWPOLYLINE
5
235
100
AcDbEntity
8
0
100
AcDbPolyline
90
8
70
1
43
0.0
10
-277.08325756947949
20
-204.25000000002225
42
-0.21821789023598751
10
-276.16674243048828
20
-204.25000000002217
10
-275.62499999998391
20
-204.25000000002217
42
-0.99999999999999989
10
-275.62499999998374
20
-206.25000000002214
10
-276.16674243048817
20
-206.25000000002217
42
-0.21821789023599042
10
-277.08325756947931
20
-206.25000000002223
10
-277.62499999998374
20
-206.25000000002228
42
-0.99999999999999989
10
-277.62499999998391
20
-204.25000000002231
0
LWPOLYLINE
5
236
100
AcDbEntity
8
0
100
AcDbPolyline
90
8
70
1
43
0.0
10
-276.16674243049351
20
-138.7500000000222
10
-275.62499999998909
20
-138.75000000002217
42
0.99999999999999989
10
-275.62499999998926
20
-136.75000000002211
10
-276.16674243049368
20
-136.7500000000222
42
0.21821789023598931
10
-277.08325756948483
20
-136.75000000002225
10
-277.62499999998926
20
-136.75000000002231
42
0.99999999999999989
10
-277.62499999998914
20
-138.75000000002228
10
-277.08325756948466
20
-138.75000000002223
42
0.21821789023598334
0
LWPOLYLINE
5
237
100
AcDbEntity
8
0
100
AcDbPolyline
90
8
70
1
43
0.0
10
-277.62499999999125
20
-111.75000000002225
10
-277.08325756948682
20
-111.75000000002221
42
0.21821789023598334
10
-276.16674243049567
20
-111.75000000002217
10
-275.62499999999125
20
-111.75000000002213
42
0.99999999999999989
10
-275.62499999999136
20
-109.75000000002214
10
-276.16674243049579
20
-109.75000000002217
42
0.21821789023599628
10
-277.08325756948693
20
-109.75000000002228
10
-277.62499999999142
20
-109.75000000002227
42
0.99999999999999989
0
LWPOLYLINE
5
238
100
AcDbEntity
8
0
100
AcDbPolyline
90
8
70
1
43
0.0
10
-197.79174512435193
20
-192.47500000001594
42
-0.21821789023599458
10
-198.70826026334311
20
-192.475000000016
10
-199.25000269384751
20
-192.47500000001597
42
-0.99999999999999989
10
-199.25000269384765
20
-190.47500000001602
10
-198.70826026334328
20
-190.475000000016
42
-0.21821789023598401
10
-197.79174512435208
20
-190.47500000001591
10
-197.25000269384765
20
-190.4750000000158
42
-0.99999999999999989
10
-197.25000269384751
20
-192.47500000001577
0
LWPOLYLINE
5
239
100
AcDbEntity
8
0
100
AcDbPolyline
90
8
70
1
43
0.0
10
-275.62499999999352
20
-82.750000000022084
42
-0.99999999999999989
10
-275.62499999999341
20
-84.750000000022112
10
-276.16674243049778
20
-84.750000000022169
42
-0.21821789023597982
10
-277.08325756948898
20
-84.750000000022226
10
-277.62499999999341
20
-84.750000000022254
42
-0.99999999999999989
10
-277.62499999999352
20
-82.750000000022226
10
-277.08325756948915
20
-82.750000000022197
42
-0.21821789023599517
10
-276.16674243049795
20
-82.750000000022112
0
LWPOLYLINE
5
240
100
AcDbEntity
8
0
100
AcDbPolyline
90
8
70
1
43
0.0
10
-197.79174512435372
20
-169.90000000001584
10
-197.2500026938493
20
-169.90000000001578
42
0.99999999999999989
10
-197.25000269384947
20
-167.90000000001586
10
-197.79174512435387
20
-167.90000000001595
42
0.21821789023598751
10
-198.70826026334501
20
-167.90000000001601
10
-199.25000269384947
20
-167.90000000001609
42
0.99999999999999989
10
-199.2500026938493
20
-169.90000000001598
10
-198.70826026334487
20
-169.90000000001601
42
0.21821789023600516
0
LWPOLYLINE
5
241
100
AcDbEntity
8
0
100
AcDbPolyline
90
8
70
1
43
0.0
10
-197.7917451243556
20
-146.20000000001585
10
-197.25000269385117
20
-146.20000000001582
42
0.99999999999999989
10
-197.25000269385134
20
-144.20000000001582
10
-197.79174512435574
20
-144.2000000000159
42
0.21821789023598931
10
-198.70826026334692
20
-144.20000000001596
10
-199.25000269385129
20
-144.20000000001602
42
0.99999999999999989
10
-199.2500026938512
20
-146.20000000001599
10
-198.70826026334672
20
-146.20000000001596
42
0.21821789023599042
0
LWPOLYLINE
5
242
100
AcDbEntity
8
0
100
AcDbPolyline
90
8
70
1
43
0.0
10
-197.79174512435742
20
-123.30000000001579
10
-197.25000269385299
20
-123.30000000001576
42
0.99999999999999989
10
-197.25000269385316
20
-121.30000000001584
10
-197.79174512435756
20
-121.30000000001587
42
0.21821789023598395
10
-198.70826026334871
20
-121.30000000001598
10
-199.25000269385311
20
-121.30000000001596
42
0.99999999999999989
10
-199.25000269385299
20
-123.30000000001593
10
-198.70826026334856
20
-123.30000000001597
42
0.21821789023600516
0
LWPOLYLINE
5
243
100
AcDbEntity
8
0
100
AcDbPolyline
90
8
70
1
43
0.0
10
-197.79174512435927
20
-100.20000000001585
10
-197.25000269385481
20
-100.20000000001581
42
0.99999999999999989
10
-197.25000269385498
20
-98.20000000001582
10
-197.79174512435935
20
-98.200000000015905
42
0.21821789023597518
10
-198.70826026335052
20
-98.200000000015962
10
-199.25000269385495
20
-98.200000000016004
42
0.99999999999999989
10
-199.25000269385481
20
-100.20000000001599
10
-198.70826026335038
20
-100.20000000001602
42
0.21821789023599747
0
LWPOLYLINE
5
244
100
AcDbEntity
8
0
100
AcDbPolyline
90
8
70
1
43
0.0
10
-197.79174512435014
20
-215.40000000001589
42
-0.21821789023598692
10
-198.70826026334126
20
-215.40000000001598
10
-199.25000269384569
20
-215.40000000001601
42
-0.99999999999999989
10
-199.25000269384583
20
-213.40000000001606
10
-198.70826026334143
20
-213.40000000001595
42
-0.21821789023597982
10
-197.79174512435026
20
-213.40000000001592
10
-197.25000269384583
20
-213.40000000001584
42
-0.99999999999999989
10
-197.25000269384569
20
-215.40000000001581
0
LWPOLYLINE
5
245
100
AcDbEntity
8
0
100
AcDbPolyline
90
8
70
1
43
0.0
10
-197.2500026938568
20
-75.100000000015783
10
-197.79174512436123
20
-75.100000000015825
42
0.21821789023597543
10
-198.70826026335234
20
-75.100000000015925
10
-199.25000269385677
20
-75.100000000015967
42
0.99999999999999989
10
-199.25000269385666
20
-77.100000000015967
10
-198.7082602633522
20
-77.100000000015939
42
0.21821789023599542
10
-197.79174512436103
20
-77.100000000015825
10
-197.25000269385663
20
-77.10000000001574
42
0.99999999999999989
0
LWPOLYLINE
5
246
100
AcDbEntity
8
0
100
AcDbPolyline
90
8
70
1
43
0.0
10
-197.25000269384407
20
-236.10000000001588
10
-197.79174512434847
20
-236.10000000001583
42
0.21821789023598395
10
-198.70826026333961
20
-236.10000000001594
10
-199.25000269384407
20
-236.100000000016
42
0.99999999999999989
10
-199.2500026938439
20
-238.10000000001591
10
-198.70826026333947
20
-238.10000000001594
42
0.21821789023601279
10
-197.79174512434827
20
-238.10000000001577
10
-197.25000269384392
20
-238.10000000001577
42
0.99999999999999989
0
LWPOLYLINE
5
247
100
AcDbEntity
8
0
100
AcDbPolyline
90
4
70
1
43
0.0
10
-224.14999999998653
20
-167.82799463866542
10
-235.34999999998647
20
-167.82799463866633
10
-235.34999999998632
20
-169.87799463866634
10
-224.14999999998639
20
-169.87799463866543
0
LWPOLYLINE
5
248
100
AcDbEntity
8
0
100
AcDbPolyline
90
4
70
1
43
0.0
10
-224.1499999999993
20
-6.8279946386654817
10
-235.34999999999923
20
-6.8279946386663681
10
-235.34999999999906
20
-8.8779946386663138
10
-224.1499999999991
20
-8.8779946386654274
0
LWPOLYLINE
5
249
100
AcDbEntity
8
0
100
AcDbPolyline
90
4
70
1
43
0.0
10
-320.12499999997613
20
-303.487994638673
10
-320.12499999997556
20
-310.38799463867304
10
-318.07499999997555
20
-310.38799463867292
10
-318.07499999997606
20
-303.48799463867289
0
LWPOLYLINE
5
250
100
AcDbEntity
8
0
100
AcDbPolyline
90
4
70
1
43
0.0
10
-320.12499999998886
20
-142.48799463867306
10
-320.12499999998829
20
-149.38799463867312
10
-318.07499999998828
20
-149.38799463867298
10
-318.07499999998879
20
-142.48799463867292
0
LWPOLYLINE
5
251
100
AcDbEntity
8
0
100
AcDbPolyline
90
4
70
1
43
0.0
10
-239.69999999997512
20
-310.93799463866657
10
-241.74999999997513
20
-310.93799463866674
10
-241.74999999997459
20
-317.83799463866671
10
-239.69999999997458
20
-317.83799463866654
0
LWPOLYLINE
5
252
100
AcDbEntity
8
0
100
AcDbPolyline
90
4
70
1
43
0.0
10
-239.69999999998788
20
-149.93799463866662
10
-241.74999999998789
20
-149.93799463866679
10
-241.74999999998735
20
-156.8379946386668
10
-239.69999999998734
20
-156.83799463866663
0
LWPOLYLINE
5
253
100
AcDbEntity
8
0
100
AcDbPolyline
90
8
70
1
43
0.0
10
-197.79174512436285
20
-54.400000000015901
42
-0.21821789023598506
10
-198.70826026335396
20
-54.400000000015979
10
-199.25000269385845
20
-54.400000000016021
42
-0.99999999999999989
10
-199.25000269385859
20
-52.400000000016021
10
-198.70826026335413
20
-52.400000000015993
42
-0.21821789023598936
10
-197.79174512436299
20
-52.400000000015929
10
-197.25000269385859
20
-52.400000000015808
42
-0.99999999999999989
10
-197.25000269385845
20
-54.400000000015808
0
LWPOLYLINE
5
254
100
AcDbEntity
8
0
100
AcDbPolyline
90
4
70
1
43
0.0
10
-295.52499999998594
20
-179.90000000002374
10
-298.22499999998593
20
-179.90000000002397
10
-298.22499999998502
20
-191.80000000002394
10
-295.52499999998503
20
-191.80000000002372
0
LWPOLYLINE
5
255
100
AcDbEntity
8
0
100
AcDbPolyline
90
4
70
1
43
0.0
10
-295.52499999999873
20
-18.900000000023738
10
-298.22499999999872
20
-18.900000000023951
10
-298.22499999999775
20
-30.800000000023999
10
-295.52499999999776
20
-30.800000000023783
0
LWPOLYLINE
5
256
100
AcDbEntity
8
0
100
AcDbPolyline
90
4
70
1
43
0.0
10
-224.14999999998275
20
-215.37799463866543
10
-224.14999999998292
20
-213.32799463866536
10
-235.34999999998288
20
-213.32799463866627
10
-235.34999999998274
20
-215.37799463866631
0
LWPOLYLINE
5
257
100
AcDbEntity
8
0
100
AcDbPolyline
90
4
70
1
43
0.0
10
-224.14999999999549
20
-54.377994638665399
10
-224.14999999999566
20
-52.327994638665345
10
-235.34999999999565
20
-52.327994638666269
10
-235.34999999999545
20
-54.377994638666287
0
LWPOLYLINE
5
258
100
AcDbEntity
8
0
100
AcDbPolyline
90
4
70
1
43
0.0
10
-298.2249999999828
20
-219.30000000002394
10
-295.52499999998281
20
-219.30000000002372
10
-295.52499999998378
20
-207.40000000002368
10
-298.22499999998377
20
-207.40000000002391
0
LWPOLYLINE
5
259
100
AcDbEntity
8
0
100
AcDbPolyline
90
4
70
1
43
0.0
10
-298.22499999999559
20
-58.300000000023928
10
-295.5249999999956
20
-58.300000000023715
10
-295.52499999999651
20
-46.400000000023667
10
-298.2249999999965
20
-46.40000000002388
0
LWPOLYLINE
5
260
100
AcDbEntity
8
0
100
AcDbPolyline
90
8
70
1
43
0.0
10
-197.79174512434651
20
-261.20000000001585
10
-197.25000269384208
20
-261.20000000001585
42
0.99999999999999989
10
-197.25000269384225
20
-259.20000000001585
10
-197.79174512434665
20
-259.20000000001585
42
0.21821789023598751
10
-198.70826026333782
20
-259.20000000001596
10
-199.25000269384219
20
-259.20000000001596
42
0.99999999999999989
10
-199.25000269384211
20
-261.20000000001596
10
-198.70826026333765
20
-261.2000000000159
42
0.21821789023599455
0
LWPOLYLINE
5
261
100
AcDbEntity
8
0
100
AcDbPolyline
90
8
70
1
43
0.0
10
-197.79174512434469
20
-284.30000000001581
10
-197.25000269384026
20
-284.30000000001576
42
0.99999999999999989
10
-197.2500026938404
20
-282.30000000001581
10
-197.7917451243448
20
-282.30000000001587
42
0.21821789023598751
10
-198.70826026333594
20
-282.30000000001593
10
-199.2500026938404
20
-282.30000000001598
42
0.99999999999999989
10
-199.25000269384026
20
-284.30000000001593
10
-198.70826026333583
20
-284.30000000001593
42
0.21821789023599042
0
LWPOLYLINE
5
262
100
AcDbEntity
8
0
100
AcDbPolyline
90
4
70
1
43
0.0
10
-235.34999999997726
20
-284.27799463866626
10
-224.14999999997733
20
-284.27799463866535
10
-224.1499999999775
20
-282.22799463866534
10
-235.34999999997746
20
-282.22799463866625
0
LWPOLYLINE
5
263
100
AcDbEntity
8
0
100
AcDbPolyline
90
4
70
1
43
0.0
10
-235.34999999998999
20
-123.27799463866623
10
-224.14999999999003
20
-123.27799463866533
10
-224.14999999999023
20
-121.22799463866539
10
-235.34999999999016
20
-121.22799463866627
0
LWPOLYLINE
5
264
100
AcDbEntity
8
0
100
AcDbPolyline
90
4
70
1
43
0.0
10
-239.69999999998186
20
-226.03799463866665
10
-239.6999999999824
20
-219.13799463866667
10
-241.74999999998238
20
-219.13799463866681
10
-241.7499999999819
20
-226.03799463866682
0
LWPOLYLINE
5
265
100
AcDbEntity
8
0
100
AcDbPolyline
90
4
70
1
43
0.0
10
-239.69999999999462
20
-65.037994638666632
10
-239.69999999999516
20
-58.137994638666655
10
-241.74999999999511
20
-58.137994638666797
10
-241.7499999999946
20
-65.037994638666788
0
LWPOLYLINE
5
266
100
AcDbEntity
8
0
100
AcDbPolyline
90
8
70
1
43
0.0
10
-197.79174512434284
20
-307.20000000001585
10
-197.25000269383841
20
-307.20000000001579
42
0.99999999999999989
10
-197.25000269383861
20
-305.20000000001579
10
-197.79174512434298
20
-305.20000000001585
42
0.21821789023598751
10
-198.70826026333415
20
-305.2000000000159
10
-199.25000269383858
20
-305.20000000001596
42
0.99999999999999989
10
-199.25000269383844
20
-307.20000000001596
10
-198.70826026333395
20
-307.2000000000159
42
0.21821789023598692
0
LWPOLYLINE
5
267
100
AcDbEntity
8
0
100
AcDbPolyline
90
4
70
1
43
0.0
10
-320.12499999998045
20
-249.487994638673
10
-320.12499999997988
20
-256.38799463867304
10
-318.07499999997981
20
-256.38799463867292
10
-318.07499999998032
20
-249.48799463867286
0
LWPOLYLINE
5
268
100
AcDbEntity
8
0
100
AcDbPolyline
90
4
70
1
43
0.0
10
-320.12499999999312
20
-88.487994638673015
10
-320.12499999999255
20
-95.387994638673064
10
-318.07499999999254
20
-95.387994638672922
10
-318.07499999999305
20
-88.487994638672859
0
LWPOLYLINE
5
269
100
AcDbEntity
8
0
100
AcDbPolyline
90
4
70
1
43
0.0
10
-224.14999999998474
20
-190.40299463866543
10
-235.34999999998468
20
-190.40299463866631
10
-235.3499999999845
20
-192.45299463866627
10
-224.14999999998457
20
-192.45299463866536
0
LWPOLYLINE
5
270
100
AcDbEntity
8
0
100
AcDbPolyline
90
4
70
1
43
0.0
10
-224.14999999999748
20
-29.402994638665486
10
-235.34999999999741
20
-29.402994638666371
10
-235.34999999999727
20
-31.452994638666315
10
-224.14999999999733
20
-31.45299463866543
0
LWPOLYLINE
5
271
100
AcDbEntity
8
0
100
AcDbPolyline
90
4
70
1
43
0.0
10
-235.34999999997564
20
-305.12799463866622
10
-235.34999999997547
20
-307.17799463866629
10
-224.14999999997551
20
-307.17799463866538
10
-224.14999999997565
20
-305.12799463866537
0
LWPOLYLINE
5
272
100
AcDbEntity
8
0
100
AcDbPolyline
90
4
70
1
43
0.0
10
-235.34999999998834
20
-144.12799463866634
10
-235.34999999998817
20
-146.17799463866632
10
-224.14999999998824
20
-146.17799463866538
10
-224.14999999998841
20
-144.12799463866546
0
LWPOLYLINE
5
273
100
AcDbEntity
8
0
100
AcDbPolyline
90
4
70
1
43
0.0
10
-239.69999999997694
20
-288.03799463866659
10
-241.74999999997695
20
-288.03799463866676
10
-241.74999999997641
20
-294.93799463866674
10
-239.69999999997643
20
-294.93799463866657
0
LWPOLYLINE
5
274
100
AcDbEntity
8
0
100
AcDbPolyline
90
4
70
1
43
0.0
10
-239.69999999998964
20
-127.03799463866665
10
-241.74999999998965
20
-127.0379946386668
10
-241.74999999998917
20
-133.93799463866679
10
-239.69999999998916
20
-133.93799463866662
0
LWPOLYLINE
5
275
100
AcDbEntity
8
0
100
AcDbPolyline
90
4
70
1
43
0.0
10
-241.74999999998008
20
-248.73799463866678
10
-239.69999999998007
20
-248.73799463866661
10
-239.69999999998061
20
-241.8379946386666
10
-241.74999999998062
20
-241.83799463866677
0
LWPOLYLINE
5
276
100
AcDbEntity
8
0
100
AcDbPolyline
90
4
70
1
43
0.0
10
-241.74999999999284
20
-87.737994638666748
10
-239.69999999999283
20
-87.737994638666592
10
-239.69999999999331
20
-80.837994638666601
10
-241.74999999999332
20
-80.837994638666757
0
LWPOLYLINE
5
277
100
AcDbEntity
8
0
100
AcDbPolyline
90
4
70
1
43
0.0
10
-239.69999999998601
20
-173.63799463866667
10
-241.74999999998602
20
-173.63799463866684
10
-241.74999999998548
20
-180.53799463866685
10
-239.69999999998547
20
-180.53799463866667
0
LWPOLYLINE
5
278
100
AcDbEntity
8
0
100
AcDbPolyline
90
4
70
1
43
0.0
10
-239.69999999999871
20
-12.637994638666735
10
-241.74999999999872
20
-12.637994638666896
10
-241.74999999999818
20
-19.537994638666895
10
-239.69999999999823
20
-19.537994638666728
0
LWPOLYLINE
5
279
100
AcDbEntity
8
0
100
AcDbPolyline
90
4
70
1
43
0.0
10
-239.69999999998419
20
-196.2129946386666
10
-241.7499999999842
20
-196.21299463866677
10
-241.74999999998366
20
-203.11299463866686
10
-239.69999999998367
20
-203.11299463866669
0
LWPOLYLINE
5
280
100
AcDbEntity
8
0
100
AcDbPolyline
90
4
70
1
43
0.0
10
-239.69999999999692
20
-35.212994638666665
10
-241.74999999999696
20
-35.212994638666828
10
-241.74999999999642
20
-42.112994638666819
10
-239.69999999999641
20
-42.112994638666734
0
LWPOLYLINE
5
281
100
AcDbEntity
8
0
100
AcDbPolyline
90
8
70
1
43
0.0
10
-197.79174512436646
20
-8.9000000000159645
10
-197.25000269386203
20
-8.9000000000159218
42
0.99999999999999989
10
-197.2500026938622
20
-6.900000000015921
10
-197.79174512436663
20
-6.9000000000160187
42
0.21821789023598095
10
-198.70826026335774
20
-6.9000000000160631
10
-199.25000269386217
20
-6.9000000000161243
42
0.99999999999999989
10
-199.25000269386203
20
-8.9000000000161066
10
-198.7082602633576
20
-8.9000000000160764
42
0.21821789023598837
0
LWPOLYLINE
5
282
100
AcDbEntity
8
0
100
AcDbPolyline
90
4
70
1
43
0.0
10
-217.14999999998199
20
-228.45000000001747
10
-217.14999999998292
20
-216.55000000001741
10
-219.84999999998286
20
-216.55000000001763
10
-219.84999999998195
20
-228.45000000001767
0
LWPOLYLINE
5
283
100
AcDbEntity
8
0
100
AcDbPolyline
90
4
70
1
43
0.0
10
-217.14999999999469
20
-67.450000000017454
10
-217.14999999999563
20
-55.550000000017405
10
-219.84999999999559
20
-55.550000000017619
10
-219.84999999999471
20
-67.450000000017667
0
LWPOLYLINE
5
284
100
AcDbEntity
8
0
100
AcDbPolyline
90
4
70
1
43
0.0
10
-219.84999999998377
20
-205.52500000001766
10
-217.14999999998378
20
-205.52500000001743
10
-217.14999999998471
20
-193.62500000001745
10
-219.84999999998468
20
-193.62500000001768
0
LWPOLYLINE
5
285
100
AcDbEntity
8
0
100
AcDbPolyline
90
4
70
1
43
0.0
10
-219.84999999999647
20
-44.525000000017627
10
-217.14999999999648
20
-44.525000000017414
10
-217.14999999999745
20
-32.625000000017508
10
-219.84999999999744
20
-32.625000000017657
0
LWPOLYLINE
5
286
100
AcDbEntity
8
0
100
AcDbPolyline
90
4
70
1
43
0.0
10
-217.14999999997471
20
-320.25000000001734
10
-217.14999999997562
20
-308.3500000000173
10
-219.84999999997564
20
-308.35000000001753
10
-219.84999999997467
20
-320.25000000001751
0
LWPOLYLINE
5
287
100
AcDbEntity
8
0
100
AcDbPolyline
90
4
70
1
43
0.0
10
-217.14999999998747
20
-159.25000000001745
10
-217.14999999998838
20
-147.35000000001742
10
-219.84999999998834
20
-147.35000000001762
10
-219.8499999999874
20
-159.25000000001768
0
LWPOLYLINE
5
288
100
AcDbEntity
8
0
100
AcDbPolyline
90
8
70
1
43
0.0
10
-275.62499999998079
20
-243.75000000002211
42
-0.99999999999999989
10
-275.62499999998062
20
-245.75000000002211
10
-276.16674243048504
20
-245.7500000000222
42
-0.21821789023597982
10
-277.08325756947619
20
-245.75000000002223
10
-277.62499999998062
20
-245.75000000002228
42
-0.99999999999999989
10
-277.62499999998079
20
-243.75000000002223
10
-277.08325756947636
20
-243.75000000002223
42
-0.21821789023599517
10
-276.16674243048516
20
-243.75000000002214
0
LWPOLYLINE
5
289
100
AcDbEntity
8
0
100
AcDbPolyline
90
8
70
1
43
0.0
10
-197.79174512436467
20
-31.475000000015992
42
-0.21821789023599633
10
-198.70826026335581
20
-31.475000000016063
10
-199.25000269386027
20
-31.47500000001612
42
-0.99999999999999989
10
-199.25000269386038
20
-29.475000000016127
10
-198.70826026335595
20
-29.475000000016081
42
-0.21821789023598842
10
-197.79174512436481
20
-29.475000000016021
10
-197.25000269386041
20
-29.475000000015914
42
-0.99999999999999989
10
-197.25000269386027
20
-31.475000000015907
0
LWPOLYLINE
5
290
100
AcDbEntity
8
0
100
AcDbPolyline
90
4
70
1
43
0.0
10
-302.52499999998071
20
-245.7279946386717
10
-302.52499999998088
20
-243.67799463867163
10
-312.02499999998071
20
-243.67799463867237
10
-312.02499999998054
20
-245.72799463867244
0
LWPOLYLINE
5
291
100
AcDbEntity
8
0
100
AcDbPolyline
90
4
70
1
43
0.0
10
-302.5249999999935
20
-84.727994638671689
10
-302.52499999999367
20
-82.677994638671706
10
-312.0249999999935
20
-82.677994638672416
10
-312.02499999999327
20
-84.727994638672442
0
LWPOLYLINE
5
292
100
AcDbEntity
8
0
100
AcDbPolyline
90
4
70
1
43
0.0
10
-318.07499999998294
20
-216.88799463867292
10
-318.0749999999835
20
-209.98799463867294
10
-320.12499999998352
20
-209.98799463867306
10
-320.12499999998289
20
-216.88799463867309
0
LWPOLYLINE
5
293
100
AcDbEntity
8
0
100
AcDbPolyline
90
4
70
1
43
0.0
10
-318.07499999999567
20
-55.887994638672893
10
-318.07499999999618
20
-48.987994638672916
10
-320.12499999999625
20
-48.987994638673058
10
-320.12499999999568
20
-55.88799463867305
0
LWPOLYLINE
5
294
100
AcDbEntity
8
0
100
AcDbPolyline
90
8
70
1
43
0.0
10
-277.62499999997851
20
-272.75000000002228
10
-277.08325756947409
20
-272.75000000002223
42
0.21821789023599103
10
-276.16674243048294
20
-272.75000000002211
10
-275.62499999997851
20
-272.75000000002206
42
0.99999999999999989
10
-275.62499999997863
20
-270.75000000002211
10
-276.16674243048305
20
-270.75000000002217
42
0.21821789023599455
10
-277.0832575694742
20
-270.75000000002223
10
-277.62499999997863
20
-270.75000000002228
42
0.99999999999999989
0
LWPOLYLINE
5
295
100
AcDbEntity
8
0
100
AcDbPolyline
90
4
70
1
43
0.0
10
-235.34999999998092
20
-238.07799463866627
10
-224.14999999998099
20
-238.07799463866536
10
-224.14999999998113
20
-236.02799463866535
10
-235.34999999998109
20
-236.02799463866626
0
LWPOLYLINE
5
296
100
AcDbEntity
8
0
100
AcDbPolyline
90
4
70
1
43
0.0
10
-235.34999999999368
20
-77.077994638666183
10
-224.14999999999372
20
-77.077994638665288
10
-224.1499999999939
20
-75.027994638665348
10
-235.34999999999383
20
-75.027994638666229
0
LWPOLYLINE
5
297
100
AcDbEntity
8
0
100
AcDbPolyline
90
4
70
1
43
0.0
10
-217.14999999997838
20
-274.25000000001739
10
-217.14999999997929
20
-262.35000000001736
10
-219.84999999997925
20
-262.35000000001759
10
-219.84999999997831
20
-274.25000000001762
0
LWPOLYLINE
5
298
100
AcDbEntity
8
0
100
AcDbPolyline
90
4
70
1
43
0.0
10
-217.14999999999108
20
-113.25000000001744
10
-217.14999999999202
20
-101.35000000001739
10
-219.84999999999195
20
-101.3500000000176
10
-219.84999999999107
20
-113.25000000001765
0
LWPOLYLINE
5
299
100
AcDbEntity
8
0
100
AcDbPolyline
90
4
70
1
43
0.0
10
-295.52499999997542
20
-312.80000000002372
10
-295.52499999997633
20
-300.90000000002368
10
-298.22499999997638
20
-300.90000000002391
10
-298.22499999997541
20
-312.80000000002389
0
LWPOLYLINE
5
300
100
AcDbEntity
8
0
100
AcDbPolyline
90
4
70
1
43
0.0
10
-295.52499999998821
20
-151.80000000002372
10
-295.52499999998912
20
-139.90000000002374
10
-298.22499999998911
20
-139.90000000002397
10
-298.22499999998814
20
-151.80000000002394
0
LWPOLYLINE
5
301
100
AcDbEntity
8
0
100
AcDbPolyline
90
4
70
1
43
0.0
10
-320.12499999997772
20
-283.38799463867309
10
-318.07499999997765
20
-283.38799463867292
10
-318.07499999997822
20
-276.48799463867283
10
-320.12499999997829
20
-276.487994638673
0
LWPOLYLINE
5
302
100
AcDbEntity
8
0
100
AcDbPolyline
90
4
70
1
43
0.0
10
-320.12499999999045
20
-122.38799463867311
10
-318.07499999999038
20
-122.38799463867295
10
-318.07499999999089
20
-115.48799463867289
10
-320.12499999999102
20
-115.48799463867304
0
LWPOLYLINE
5
303
100
AcDbEntity
8
0
100
AcDbPolyline
90
4
70
1
43
0.0
10
-217.1499999999765
20
-297.3500000000173
10
-217.14999999997744
20
-285.45000000001733
10
-219.8499999999774
20
-285.45000000001755
10
-219.84999999997652
20
-297.35000000001753
0
LWPOLYLINE
5
304
100
AcDbEntity
8
0
100
AcDbPolyline
90
4
70
1
43
0.0
10
-217.14999999998923
20
-136.35000000001739
10
-217.14999999999014
20
-124.45000000001741
10
-219.84999999999016
20
-124.45000000001762
10
-219.84999999998922
20
-136.35000000001759
0
LWPOLYLINE
5
305
100
AcDbEntity
8
0
100
AcDbPolyline
90
4
70
1
43
0.0
10
-295.52499999998065
20
-246.90000000002362
10
-298.22499999998064
20
-246.90000000002385
10
-298.22499999997967
20
-258.80000000002389
10
-295.52499999997974
20
-258.80000000002372
0
LWPOLYLINE
5
306
100
AcDbEntity
8
0
100
AcDbPolyline
90
4
70
1
43
0.0
10
-295.52499999999338
20
-85.900000000023624
10
-298.22499999999337
20
-85.900000000023908
10
-298.22499999999246
20
-97.800000000023886
10
-295.52499999999247
20
-97.800000000023672
0
LWPOLYLINE
5
307
100
AcDbEntity
8
0
100
AcDbPolyline
90
4
70
1
43
0.0
10
-224.14999999997931
20
-259.12799463866543
10
-235.34999999997925
20
-259.12799463866628
10
-235.3499999999791
20
-261.17799463866629
10
-224.14999999997914
20
-261.17799463866538
0
LWPOLYLINE
5
308
100
AcDbEntity
8
0
100
AcDbPolyline
90
4
70
1
43
0.0
10
-224.14999999999202
20
-98.127994638665427
10
-235.34999999999198
20
-98.127994638666323
10
-235.34999999999184
20
-100.17799463866626
10
-224.14999999999185
20
-100.17799463866538
0
LWPOLYLINE
5
309
100
AcDbEntity
8
0
100
AcDbPolyline
90
4
70
1
43
0.0
10
-219.84999999998647
20
-171.05000000001766
10
-219.84999999998553
20
-182.95000000001764
10
-217.14999999998557
20
-182.95000000001744
10
-217.14999999998651
20
-171.05000000001746
0
LWPOLYLINE
5
310
100
AcDbEntity
8
0
100
AcDbPolyline
90
4
70
1
43
0.0
10
-219.84999999999923
20
-10.050000000017722
10
-219.84999999999829
20
-21.950000000017695
10
-217.1499999999983
20
-21.950000000017479
10
-217.14999999999921
20
-10.050000000017505
0
LWPOLYLINE
5
311
100
AcDbEntity
8
0
100
AcDbPolyline
90
4
70
1
43
0.0
10
-241.74999999997826
20
-271.83799463866677
10
-239.69999999997825
20
-271.8379946386666
10
-239.69999999997879
20
-264.93799463866657
10
-241.74999999997877
20
-264.93799463866674
0
LWPOLYLINE
5
312
100
AcDbEntity
8
0
100
AcDbPolyline
90
4
70
1
43
0.0
10
-241.74999999999099
20
-110.83799463866677
10
-239.69999999999095
20
-110.83799463866661
10
-239.69999999999149
20
-103.93799463866662
10
-241.74999999999147
20
-103.93799463866678
0
LWPOLYLINE
5
313
100
AcDbEntity
8
0
100
AcDbPolyline
90
8
70
1
43
0.0
10
-276.16674243048078
20
-299.75000000002217
10
-275.62499999997635
20
-299.75000000002211
42
0.99999999999999989
10
-275.62499999997652
20
-297.75000000002211
10
-276.16674243048089
20
-297.75000000002217
42
0.21821789023598751
10
-277.0832575694721
20
-297.75000000002223
10
-277.62499999997652
20
-297.75000000002228
42
0.99999999999999989
10
-277.62499999997635
20
-299.75000000002228
10
-277.08325756947193
20
-299.75000000002223
42
0.21821789023598692
0
LWPOLYLINE
5
314
100
AcDbEntity
8
0
100
AcDbPolyline
90
4
70
1
43
0.0
10
-219.84999999998013
20
-251.15000000001766
10
-217.14999999998014
20
-251.15000000001743
10
-217.14999999998111
20
-239.25000000001739
10
-219.84999999998107
20
-239.25000000001759
0
LWPOLYLINE
5
315
100
AcDbEntity
8
0
100
AcDbPolyline
90
4
70
1
43
0.0
10
-219.84999999999289
20
-90.150000000017556
10
-217.1499999999929
20
-90.150000000017343
10
-217.14999999999381
20
-78.250000000017366
10
-219.84999999999383
20
-78.250000000017579
0
LWPOLYLINE
5
316
100
AcDbEntity
8
0
100
AcDbPolyline
90
8
70
1
43
0.0
10
-277.08325756949222
20
-43.250000000022254
42
-0.21821789023599111
10
-276.16674243050107
20
-43.25000000002219
10
-275.62499999999665
20
-43.250000000022141
42
-0.99999999999999989
10
-275.62499999999653
20
-45.250000000022141
10
-276.16674243050096
20
-45.250000000022183
42
-0.21821789023597307
10
-277.08325756949205
20
-45.25000000002224
10
-277.62499999999653
20
-45.250000000022283
42
-0.99999999999999989
10
-277.62499999999665
20
-43.250000000022283
0
LWPOLYLINE
5
317
100
AcDbEntity
8
0
100
AcDbPolyline
90
4
70
1
43
0.0
10
-302.52499999997877
20
-270.67799463867169
10
-313.72499999997871
20
-270.67799463867254
10
-313.72499999997854
20
-272.72799463867256
10
-302.5249999999786
20
-272.72799463867165
0
LWPOLYLINE
5
318
100
AcDbEntity
8
0
100
AcDbPolyline
90
4
70
1
43
0.0
10
-302.52499999999151
20
-109.67799463867169
10
-313.72499999999144
20
-109.67799463867259
10
-313.72499999999127
20
-111.72799463867261
10
-302.52499999999134
20
-111.72799463867172
0
LWPOLYLINE
5
319
100
AcDbEntity
8
0
100
AcDbPolyline
90
4
70
1
43
0.0
10
-320.12499999998516
20
-189.38799463867315
10
-318.07499999998515
20
-189.38799463867298
10
-318.07499999998566
20
-182.48799463867289
10
-320.12499999998568
20
-182.48799463867306
0
LWPOLYLINE
5
320
100
AcDbEntity
8
0
100
AcDbPolyline
90
4
70
1
43
0.0
10
-320.1249999999979
20
-28.387994638673128
10
-318.07499999999783
20
-28.387994638672964
10
-318.0749999999984
20
-21.487994638672966
10
-320.12499999999847
20
-21.487994638673129
0
LWPOLYLINE
5
321
100
AcDbEntity
8
0
100
AcDbPolyline
90
4
70
1
43
0.0
10
-302.52499999998383
20
-206.22799463867176
10
-302.524999999984
20
-204.17799463867169
10
-313.72499999998399
20
-204.17799463867254
10
-313.72499999998377
20
-206.22799463867264
0
LWPOLYLINE
5
322
100
AcDbEntity
8
0
100
AcDbPolyline
90
4
70
1
43
0.0
10
-302.52499999999662
20
-45.22799463867166
10
-302.52499999999679
20
-43.177994638671677
10
-313.72499999999673
20
-43.17799463867253
10
-313.72499999999656
20
-45.227994638672548
0
LWPOLYLINE
5
323
100
AcDbEntity
8
0
100
AcDbPolyline
90
4
70
1
43
0.0
10
-302.52499999998616
20
-176.67799463867172
10
-313.7249999999861
20
-176.6779946386726
10
-313.72499999998598
20
-178.72799463867264
10
-302.52499999998599
20
-178.72799463867176
0
LWPOLYLINE
5
324
100
AcDbEntity
8
0
100
AcDbPolyline
90
4
70
1
43
0.0
10
-302.5249999999989
20
-15.677994638671715
10
-313.72499999999883
20
-15.677994638672601
10
-313.72499999999872
20
-17.727994638672687
10
-302.52499999999873
20
-17.727994638671802
0
LWPOLYLINE
5
325
100
AcDbEntity
8
0
100
AcDbPolyline
90
4
70
1
43
0.0
10
-302.52499999997661
20
-297.67799463867169
10
-313.7249999999766
20
-297.67799463867254
10
-313.72499999997638
20
-299.72799463867256
10
-302.52499999997644
20
-299.7279946386717
0
LWPOLYLINE
5
326
100
AcDbEntity
8
0
100
AcDbPolyline
90
4
70
1
43
0.0
10
-302.52499999998935
20
-136.67799463867172
10
-313.72499999998928
20
-136.6779946386726
10
-313.72499999998911
20
-138.72799463867264
10
-302.52499999998923
20
-138.72799463867176
0
LWPOLYLINE
5
327
100
AcDbEntity
8
0
100
AcDbPolyline
90
4
70
1
43
0.0
10
-295.52499999997855
20
-273.90000000002368
10
-298.22499999997854
20
-273.90000000002391
10
-298.22499999997757
20
-285.80000000002389
10
-295.52499999997758
20
-285.80000000002366
0
LWPOLYLINE
5
328
100
AcDbEntity
8
0
100
AcDbPolyline
90
4
70
1
43
0.0
10
-295.52499999999122
20
-112.90000000002372
10
-298.22499999999127
20
-112.90000000002394
10
-298.2249999999903
20
-124.80000000002391
10
-295.52499999999031
20
-124.8000000000237
0
LWPOLYLINE
5
329
100
AcDbEntity
8
0
100
AcDbPolyline
90
8
70
1
43
0.0
10
-276.16674243050306
20
-17.750000000022268
10
-275.62499999999864
20
-17.750000000022226
42
0.99999999999999989
10
-275.62499999999881
20
-15.750000000022155
10
-276.16674243050323
20
-15.750000000022254
42
0.21821789023598906
10
-277.08325756949438
20
-15.750000000022297
10
-277.62499999999881
20
-15.750000000022357
42
0.99999999999999989
10
-277.62499999999869
20
-17.750000000022339
10
-277.08325756949421
20
-17.750000000022307
42
0.21821789023598157
0
CIRCLE
5
330
100
AcDbEntity
8
0
100
AcDbCircle
10
-284.49999732942251
20
-322.75000000002274
30
0
40
1.6249999999999967
210
-6.1629758220430562e-33
220
4.9303806576312751e-32
230
1
0
CIRCLE
5
331
100
AcDbEntity
8
0
100
AcDbCircle
10
-244.4999999999747
20
-322.75000000001961
30
0
40
1.6249999999999967
210
-6.1629758220430562e-33
220
4.9303806576312751e-32
230
1
0
LWPOLYLINE
5
332
100
AcDbEntity
8
0
100
AcDbPolyline
90
4
70
1
43
0.0
10
-179.2500026705398
20
-160.00000000001438
10
-194.7500026705398
20
-160.00000000001563
10
-194.75000267053946
20
-163.5000000000156
10
-179.25000267053949
20
-163.50000000001438
0
CIRCLE
5
333
100
AcDbEntity
8
0
100
AcDbCircle
10
-284.49999732943525
20
-161.75000000002285
30
0
40
1.6249999999999967
210
-6.1629758220430562e-33
220
4.9303806576312751e-32
230
1
0
LWPOLYLINE
5
334
100
AcDbEntity
8
0
100
AcDbPolyline
90
4
70
1
43
0.0
10
-229.79999932942951
20
-229.29452563738153
10
-229.79999932942923
20
-232.79452563738153
10
-214.29999932942923
20
-232.79452563738027
10
-214.29999932942951
20
-229.29452563738027
0
LWPOLYLINE
5
335
100
AcDbEntity
8
0
100
AcDbPolyline
90
4
70
1
43
0.0
10
-179.29999932942951
20
-229.29452563737752
10
-194.79999932942951
20
-229.29452563737874
10
-194.79999932942928
20
-232.79452563737874
10
-179.29999932942923
20
-232.79452563737749
0
LWPOLYLINE
5
336
100
AcDbEntity
8
0
100
AcDbPolyline
90
4
70
1
43
0.0
10
-294.24999732943513
20
-163.50000000002348
10
-294.24999732943542
20
-160.00000000002345
10
-309.74999732943547
20
-160.00000000002473
10
-309.74999732943513
20
-163.5000000000247
0
LWPOLYLINE
5
337
100
AcDbEntity
8
0
100
AcDbPolyline
90
4
70
1
43
0.0
10
-214.25000267053974
20
-160.00000000001717
10
-229.75000267053974
20
-160.00000000001842
10
-229.75000267053946
20
-163.50000000001839
10
-214.25000267053946
20
-163.50000000001714
0
LWPOLYLINE
5
338
100
AcDbEntity
8
0
100
AcDbPolyline
90
4
70
1
43
0.0
10
-274.74999732943536
20
-160.00000000002194
10
-274.74999732943508
20
-163.50000000002206
10
-259.24999732943513
20
-163.50000000002075
10
-259.24999732943536
20
-160.00000000002072
0
LWPOLYLINE
5
339
100
AcDbEntity
8
0
100
AcDbPolyline
90
4
70
1
43
0.0
10
-274.79999932942951
20
-229.29452563738508
10
-274.79999932942923
20
-232.79452563738511
10
-259.29999932942917
20
-232.79452563738388
10
-259.29999932942951
20
-229.29452563738383
0
CIRCLE
5
340
100
AcDbEntity
8
0
100
AcDbCircle
10
-172.04999999998171
20
-231.04452563737695
30
0
40
1.5500000000000007
210
-6.1629758220294059e-33
220
-1.2325951644078358e-31
230
1
0
LWPOLYLINE
5
341
100
AcDbEntity
8
0
100
AcDbPolyline
90
4
70
1
43
0.0
10
-294.29999932942917
20
-232.79452563738658
10
-294.29999932942951
20
-229.29452563738658
10
-309.79999932942951
20
-229.29452563738784
10
-309.79999932942923
20
-232.79452563738784
0
CIRCLE
5
342
100
AcDbEntity
8
0
100
AcDbCircle
10
-244.49999999998744
20
-161.75000000001967
30
0
40
1.6249999999999967
210
-6.1629758220430562e-33
220
4.9303806576312751e-32
230
1
0
LWPOLYLINE
5
343
100
AcDbEntity
8
0
100
AcDbPolyline
90
4
70
1
43
0.0
10
-229.79999932944227
20
-68.294525637381511
10
-229.79999932944199
20
-71.794525637381525
10
-214.29999932944199
20
-71.794525637380247
10
-214.29999932944224
20
-68.294525637380289
0
LWPOLYLINE
5
344
100
AcDbEntity
8
0
100
AcDbPolyline
90
4
70
1
43
0.0
10
-179.29999932944227
20
-68.294525637377518
10
-194.79999932944227
20
-68.29452563737874
10
-194.79999932944199
20
-71.794525637378698
10
-179.29999932944199
20
-71.794525637377475
0
LWPOLYLINE
5
345
100
AcDbEntity
8
0
100
AcDbPolyline
90
4
70
1
43
0.0
10
-274.79999932944224
20
-68.294525637385064
10
-274.79999932944196
20
-71.794525637385078
10
-259.29999932944196
20
-71.79452563738387
10
-259.29999932944224
20
-68.294525637383842
0
CIRCLE
5
346
100
AcDbEntity
8
0
100
AcDbCircle
10
-172.04999999999447
20
-70.044525637376935
30
0
40
1.5500000000000007
210
-6.1629758220294059e-33
220
-1.2325951644078358e-31
230
1
0
LWPOLYLINE
5
347
100
AcDbEntity
8
0
100
AcDbPolyline
90
4
70
1
43
0.0
10
-294.29999932944196
20
-71.79452563738657
10
-294.29999932944224
20
-68.294525637386556
10
-309.79999932944224
20
-68.294525637387835
10
-309.79999932944202
20
-71.794525637387792
0
CIRCLE
5
348
100
AcDbEntity
8
0
100
AcDbCircle
10
-300.22499999998695
20
-167.50000000002393
30
0
40
1.1250000000000073
210
-3.8994568014361054e-45
220
4.9303806576313238e-32
230
1
0
CIRCLE
5
349
100
AcDbEntity
8
0
100
AcDbCircle
10
-221.84999999997609
20
-302.85000000001776
30
0
40
1.1250000000000073
210
-3.8994568014361054e-45
220
4.9303806576313238e-32
230
1
0
CIRCLE
5
350
100
AcDbEntity
8
0
100
AcDbCircle
10
-300.224999999977
20
-293.35000000002407
30
0
40
1.1250000000000073
210
-3.8994568014361054e-45
220
4.9303806576313238e-32
230
1
0
CIRCLE
5
351
100
AcDbEntity
8
0
100
AcDbCircle
10
-221.84999999998331
20
-211.03750000001776
30
0
40
1.1250000000000073
210
-3.8994568014361054e-45
220
4.9303806576313238e-32
230
1
0
CIRCLE
5
352
100
AcDbEntity
8
0
100
AcDbCircle
10
-300.22499999999968
20
-6.5000000000240021
30
0
40
1.1250000000000073
210
-3.8994568014361054e-45
220
4.9303806576313238e-32
230
1
0
CIRCLE
5
353
100
AcDbEntity
8
0
100
AcDbCircle
10
-221.8499999999888
20
-141.85000000001779
30
0
40
1.1250000000000073
210
-3.8994568014361054e-45
220
4.9303806576313238e-32
230
1
0
CIRCLE
5
354
100
AcDbEntity
8
0
100
AcDbCircle
10
-300.22499999998968
20
-132.35000000002407
30
0
40
1.1250000000000073
210
-3.8994568014361054e-45
220
4.9303806576313238e-32
230
1
0
CIRCLE
5
355
100
AcDbEntity
8
0
100
AcDbCircle
10
-221.84999999999604
20
-50.037500000017801
30
0
40
1.1250000000000073
210
-3.8994568014361054e-45
220
4.9303806576313238e-32
230
1
0
LWPOLYLINE
5
356
100
AcDbEntity
8
0
100
AcDbPolyline
90
4
70
1
43
0.0
10
-178.62499999999824
20
-22.500000000014428
10
-178.62499999999704
20
-37.500000000014495
42
0.99999999999999989
10
-176.37499999999707
20
-37.500000000014275
10
-176.37499999999821
20
-22.500000000014193
42
0.99999999999999989
0
LWPOLYLINE
5
357
100
AcDbEntity
8
0
100
AcDbPolyline
90
4
70
1
43
0.0
10
-256.37499999999829
20
-22.500000000020538
10
-256.37499999999716
20
-37.500000000020606
42
0.99999999999999989
10
-254.1249999999971
20
-37.500000000020457
10
-254.12499999999827
20
-22.500000000020375
42
0.99999999999999989
0
LWPOLYLINE
5
358
100
AcDbEntity
8
0
100
AcDbPolyline
90
4
70
1
43
0.0
10
-472.92499932944855
20
-276.75000000002194
10
-472.92499932944844
20
-261.75000000002206
42
0.99999999999999989
10
-475.17499932944838
20
-261.75000000002206
10
-475.1749993294485
20
-276.75000000002194
42
0.99999999999999989
0
LWPOLYLINE
5
359
100
AcDbEntity
8
0
100
AcDbPolyline
90
4
70
1
43
0.0
10
-395.17500200000114
20
-276.75000000002251
10
-395.17500200000097
20
-261.75000000002268
42
0.99999999999999989
10
-397.42500200000103
20
-261.75000000002262
10
-397.42500200000109
20
-276.75000000002251
42
0.99999999999999989
0
LWPOLYLINE
5
360
100
AcDbEntity
8
0
100
AcDbPolyline
90
32
70
1
43
0.0
10
-327.04999932944986
20
-296.75000000002279
10
-333.80000200000177
20
-296.75000000002279
10
-333.80000200000165
20
-288.65000000002289
42
1.0000008000622456
10
-341.80000200000165
20
-288.65000000002277
10
-341.80000200000171
20
-296.75000000002274
10
-392.30000200000131
20
-296.75000000002223
10
-392.30000200000126
20
-288.65000000002243
42
0.99999999999999989
10
-400.30000200000126
20
-288.65000000002237
10
-400.30000200000131
20
-296.75000000002228
10
-472.2999966588963
20
-296.75000000002171
10
-472.29999665889608
20
-288.65000000002181
42
0.99999999999999989
10
-480.29999665889636
20
-288.65000000002175
10
-480.29999665889619
20
-296.75000000002166
10
-487.04999932944867
20
-296.75000000002166
10
-487.04999932944594
20
-6.5000000000245262
10
-471.99999999999847
20
-6.5000000000246381
10
-471.99999999999829
20
-2.500000000024674
10
-456.99999999999847
20
-2.5000000000247926
10
-456.99999999999852
20
-6.5000000000247553
10
-436.99999999999869
20
-6.5000000000249045
10
-436.99999999999864
20
-2.5000000000249405
10
-421.99999999999875
20
-2.5000000000250591
10
-421.99999999999875
20
-6.5000000000250244
10
-391.99999999999909
20
-6.5000000000252509
10
-391.99999999999903
20
-2.5000000000252869
10
-376.99999999999909
20
-2.5000000000254055
10
-376.99999999999926
20
-6.5000000000253682
10
-356.99999999999937
20
-6.5000000000255174
10
-356.99999999999932
20
-2.5000000000255533
10
-341.99999999999937
20
-2.5000000000256719
10
-341.99999999999943
20
-6.5000000000256373
10
-327.04999932944713
20
-6.5000000000257074
0
CIRCLE
5
361
100
AcDbEntity
8
0
100
AcDbCircle
10
-429.69999932944864
20
-249.21250000002249
30
0
40
1.1249999999999982
210
6.1629758220393436e-33
220
2.4651903288156567e-32
230
1
0
CIRCLE
5
362
100
AcDbEntity
8
0
100
AcDbCircle
10
-351.32499932944836
20
-166.90000000002379
30
0
40
1.1249999999999982
210
6.1629758220393436e-33
220
2.4651903288156567e-32
230
1
0
CIRCLE
5
363
100
AcDbEntity
8
0
100
AcDbCircle
10
-429.69999932944779
20
-157.4000000000234
30
0
40
1.1249999999999982
210
6.1629758220393436e-33
220
2.4651903288156567e-32
230
1
0
CIRCLE
5
364
100
AcDbEntity
8
0
100
AcDbCircle
10
-351.3249993294495
20
-292.75000000002268
30
0
40
1.1249999999999982
210
6.1629758220393436e-33
220
2.4651903288156567e-32
230
1
0
CIRCLE
5
365
100
AcDbEntity
8
0
100
AcDbCircle
10
-429.69999932944751
20
-132.25000000002379
30
0
40
1.0499999999999958
210
1.2325951644078121e-32
220
-2.4651903288156734e-32
230
1
0
CIRCLE
5
366
100
AcDbEntity
8
0
100
AcDbCircle
10
-351.32499932944802
20
-130.75000000002427
30
0
40
1.0499999999999958
210
1.2325951644078121e-32
220
-2.4651903288156734e-32
230
1
0
CIRCLE
5
367
100
AcDbEntity
8
0
100
AcDbCircle
10
-429.69999932944643
20
-11.500000000024912
30
0
40
1.0499999999999914
210
6.1629758220391561e-33
220
-5.6705376089316266e-47
230
1
0
CIRCLE
5
368
100
AcDbEntity
8
0
100
AcDbCircle
10
-351.32499932944688
20
-11.500000000025516
30
0
40
1.0499999999999914
210
6.1629758220391561e-33
220
-5.6705376089316266e-47
230
1
0
LWPOLYLINE
5
369
100
AcDbEntity
8
0
100
AcDbPolyline
90
4
70
1
43
0.0
10
-357.25000000000142
20
-227.45547436266014
10
-357.25000000000142
20
-230.95547436266014
10
-341.75000000000153
20
-230.95547436266025
10
-341.75000000000148
20
-227.45547436266025
0
CIRCLE
5
370
100
AcDbEntity
8
0
100
AcDbCircle
10
-479.49999932944809
20
-229.20547436265923
30
0
40
1.5499999999999878
210
6.1629758220391561e-33
220
-5.6705376089316276e-47
230
1
0
LWPOLYLINE
5
371
100
AcDbEntity
8
0
100
AcDbPolyline
90
4
70
1
43
0.0
10
-376.75000000000125
20
-230.95547436266
10
-376.75000000000125
20
-227.45547436266003
10
-392.25000000000114
20
-227.45547436265986
10
-392.25000000000114
20
-230.95547436265988
0
LWPOLYLINE
5
372
100
AcDbEntity
8
0
100
AcDbPolyline
90
4
70
1
43
0.0
10
-472.25000000000051
20
-230.95547436265929
10
-456.75000000000063
20
-230.9554743626594
10
-456.75000000000057
20
-227.45547436265937
10
-472.25000000000045
20
-227.45547436265926
0
LWPOLYLINE
5
373
100
AcDbEntity
8
0
100
AcDbPolyline
90
4
70
1
43
0.0
10
-421.7500000000008
20
-230.95547436265963
10
-421.7500000000008
20
-227.45547436265966
10
-437.25000000000074
20
-227.45547436265954
10
-437.2500000000008
20
-230.95547436265952
0
CIRCLE
5
374
100
AcDbEntity
8
0
100
AcDbCircle
10
-407.04999932944759
20
-137.50000000002365
30
0
40
1.6249999999999831
210
-0
220
0
230
1
0
LWPOLYLINE
5
375
100
AcDbEntity
8
0
100
AcDbPolyline
90
4
70
1
43
0.0
10
-357.24999999999994
20
-66.45547436266169
10
-357.24999999999994
20
-69.955474362661661
10
-341.75000000000006
20
-69.955474362661789
10
-341.75000000000006
20
-66.455474362661818
0
CIRCLE
5
376
100
AcDbEntity
8
0
100
AcDbCircle
10
-479.49999932944655
20
-68.205474362660752
30
0
40
1.5499999999999878
210
6.1629758220391561e-33
220
-5.6705376089316276e-47
230
1
0
LWPOLYLINE
5
377
100
AcDbEntity
8
0
100
AcDbPolyline
90
4
70
1
43
0.0
10
-376.74999999999977
20
-69.955474362661519
10
-376.74999999999977
20
-66.455474362661548
10
-392.24999999999966
20
-66.455474362661434
10
-392.24999999999966
20
-69.955474362661406
0
LWPOLYLINE
5
378
100
AcDbEntity
8
0
100
AcDbPolyline
90
4
70
1
43
0.0
10
-376.80000199999995
20
-139.25000000002399
10
-376.80000199999995
20
-135.75000000002393
10
-392.30000199999995
20
-135.75000000002379
10
-392.30000199999995
20
-139.25000000002387
0
LWPOLYLINE
5
379
100
AcDbEntity
8
0
100
AcDbPolyline
90
4
70
1
43
0.0
10
-437.29999665889517
20
-139.2500000000235
10
-421.79999665889522
20
-139.25000000002365
10
-421.79999665889522
20
-135.75000000002365
10
-437.29999665889517
20
-135.7500000000235
0
LWPOLYLINE
5
380
100
AcDbEntity
8
0
100
AcDbPolyline
90
4
70
1
43
0.0
10
-357.30000200000018
20
-135.75000000002419
10
-357.30000200000018
20
-139.25000000002416
10
-341.80000200000023
20
-139.25000000002427
10
-341.80000200000023
20
-135.7500000000243
0
LWPOLYLINE
5
381
100
AcDbEntity
8
0
100
AcDbPolyline
90
4
70
1
43
0.0
10
-472.24999999999903
20
-69.95547436266078
10
-456.74999999999909
20
-69.955474362660908
10
-456.74999999999903
20
-66.455474362660937
10
-472.24999999999898
20
-66.455474362660823
0
LWPOLYLINE
5
382
100
AcDbEntity
8
0
100
AcDbPolyline
90
4
70
1
43
0.0
10
-421.74999999999943
20
-69.955474362661178
10
-421.74999999999943
20
-66.455474362661207
10
-437.2499999999992
20
-66.455474362661093
10
-437.24999999999932
20
-69.955474362661064
0
CIRCLE
5
383
100
AcDbEntity
8
0
100
AcDbCircle
10
-367.05000200000006
20
-137.50000000002399
30
0
40
1.6249999999999831
210
-0
220
0
230
1
0
LWPOLYLINE
5
384
100
AcDbEntity
8
0
100
AcDbPolyline
90
4
70
1
43
0.0
10
-472.29999665889477
20
-139.25000000002325
10
-456.799996658895
20
-139.25000000002339
10
-456.799996658895
20
-135.75000000002342
10
-472.29999665889488
20
-135.75000000002331
0
LWPOLYLINE
5
385
100
AcDbEntity
8
0
100
AcDbPolyline
90
8
70
1
43
0.0
10
-375.38325689894492
20
-281.50000000002245
10
-375.92499932944929
20
-281.50000000002245
42
0.99999999999999989
10
-375.92499932944929
20
-283.50000000002251
10
-375.38325689894486
20
-283.50000000002245
42
0.21821789023599109
10
-374.46674175995372
20
-283.50000000002251
10
-373.92499932944929
20
-283.50000000002245
42
0.99999999999999989
10
-373.92499932944929
20
-281.50000000002245
10
-374.46674175995378
20
-281.50000000002251
42
0.21821789023599109
0
LWPOLYLINE
5
386
100
AcDbEntity
8
0
100
AcDbPolyline
90
4
70
1
43
0.0
10
-349.02499932944943
20
-283.57200536137526
10
-337.82499932944961
20
-283.57200536137532
10
-337.82499932944961
20
-281.52200536137531
10
-349.02499932944943
20
-281.52200536137525
0
LWPOLYLINE
5
387
100
AcDbEntity
8
0
100
AcDbPolyline
90
4
70
1
43
0.0
10
-349.0249993294492
20
-254.02200536137556
10
-349.0249993294492
20
-256.07200536137555
10
-337.82499932944927
20
-256.0720053613756
10
-337.82499932944938
20
-254.02200536137565
0
LWPOLYLINE
5
388
100
AcDbEntity
8
0
100
AcDbPolyline
90
4
70
1
43
0.0
10
-331.42499932944958
20
-270.86200536137545
10
-333.47499932944959
20
-270.86200536137545
10
-333.47499932944959
20
-277.76200536137543
10
-331.42499932944963
20
-277.76200536137543
0
LWPOLYLINE
5
389
100
AcDbEntity
8
0
100
AcDbPolyline
90
8
70
1
43
0.0
10
-374.46674175995349
20
-256.00000000002274
42
-0.21821789023599458
10
-375.38325689894464
20
-256.00000000002274
10
-375.92499932944907
20
-256.00000000002274
42
-0.99999999999999989
10
-375.92499932944907
20
-254.00000000002279
10
-375.38325689894469
20
-254.00000000002277
42
-0.21821789023599458
10
-374.46674175995349
20
-254.00000000002279
10
-373.92499932944901
20
-254.00000000002279
42
-0.99999999999999989
10
-373.92499932944901
20
-256.00000000002274
0
LWPOLYLINE
5
390
100
AcDbEntity
8
0
100
AcDbPolyline
90
4
70
1
43
0.0
10
-431.69999932944904
20
-289.2000000000221
10
-431.69999932944893
20
-277.30000000002224
10
-434.3999993294488
20
-277.30000000002218
10
-434.39999932944892
20
-289.20000000002204
0
LWPOLYLINE
5
391
100
AcDbEntity
8
0
100
AcDbPolyline
90
4
70
1
43
0.0
10
-333.47499932944925
20
-243.36200536137579
10
-333.47499932944936
20
-250.26200536137571
10
-331.42499932944935
20
-250.26200536137577
10
-331.42499932944929
20
-243.36200536137579
0
LWPOLYLINE
5
392
100
AcDbEntity
8
0
100
AcDbPolyline
90
8
70
1
43
0.0
10
-453.75825420508141
20
-267.77500000002209
42
-0.21821789023599808
10
-452.84173906609027
20
-267.77500000002215
10
-452.29999663558596
20
-267.77500000002215
42
-0.99999999999999989
10
-452.29999663558596
20
-269.77500000002209
10
-452.84173906609033
20
-269.77500000002209
42
-0.21821789023598751
10
-453.75825420508147
20
-269.77500000002209
10
-454.2999966355859
20
-269.77500000002209
42
-0.99999999999999989
10
-454.2999966355859
20
-267.77500000002215
0
LWPOLYLINE
5
393
100
AcDbEntity
8
0
100
AcDbPolyline
90
4
70
1
43
0.0
10
-431.6999993294487
20
-254.72500000002245
10
-434.39999932944863
20
-254.72500000002242
10
-434.39999932944875
20
-266.62500000002228
10
-431.69999932944881
20
-266.62500000002234
0
LWPOLYLINE
5
394
100
AcDbEntity
8
0
100
AcDbPolyline
90
4
70
1
43
0.0
10
-434.39999932944841
20
-231.80000000002264
10
-434.39999932944858
20
-243.70000000002253
10
-431.69999932944859
20
-243.70000000002256
10
-431.69999932944847
20
-231.80000000002266
0
LWPOLYLINE
5
395
100
AcDbEntity
8
0
100
AcDbPolyline
90
8
70
1
43
0.0
10
-453.7582542050817
20
-290.35000000002191
10
-454.29999663558613
20
-290.35000000002191
42
0.99999999999999989
10
-454.29999663558613
20
-292.35000000002185
10
-453.7582542050817
20
-292.35000000002185
42
0.21821789023599455
10
-452.84173906609055
20
-292.35000000002185
10
-452.29999663558613
20
-292.35000000002185
42
0.99999999999999989
10
-452.29999663558613
20
-290.35000000002191
10
-452.8417390660905
20
-290.35000000002191
42
0.21821789023600999
0
LWPOLYLINE
5
396
100
AcDbEntity
8
0
100
AcDbPolyline
90
4
70
1
43
0.0
10
-411.84999932944919
20
-264.03700536137507
10
-409.79999932944918
20
-264.03700536137507
10
-409.79999932944912
20
-257.13700536137509
10
-411.84999932944913
20
-257.13700536137509
0
LWPOLYLINE
5
397
100
AcDbEntity
8
0
100
AcDbPolyline
90
4
70
1
43
0.0
10
-411.84999932944942
20
-286.61200536137483
10
-409.79999932944941
20
-286.61200536137483
10
-409.79999932944935
20
-279.71200536137485
10
-411.84999932944936
20
-279.71200536137485
0
LWPOLYLINE
5
398
100
AcDbEntity
8
0
100
AcDbPolyline
90
4
70
1
43
0.0
10
-427.39999932944903
20
-269.8470053613749
10
-416.19999932944921
20
-269.84700536137495
10
-416.19999932944921
20
-267.797005361375
10
-427.39999932944903
20
-267.79700536137494
0
LWPOLYLINE
5
399
100
AcDbEntity
8
0
100
AcDbPolyline
90
4
70
1
43
0.0
10
-411.84999932944891
20
-234.2120053613753
10
-411.84999932944896
20
-241.11200536137522
10
-409.79999932944901
20
-241.11200536137528
10
-409.79999932944895
20
-234.2120053613753
0
LWPOLYLINE
5
400
100
AcDbEntity
8
0
100
AcDbPolyline
90
4
70
1
43
0.0
10
-353.32499932944899
20
-240.95000000002307
10
-356.02499932944897
20
-240.95000000002304
10
-356.02499932944909
20
-252.85000000002296
10
-353.32499932944916
20
-252.85000000002299
0
LWPOLYLINE
5
401
100
AcDbEntity
8
0
100
AcDbPolyline
90
4
70
1
43
0.0
10
-427.39999932944886
20
-244.87200536137516
10
-427.39999932944886
20
-246.92200536137508
10
-416.19999932944899
20
-246.92200536137511
10
-416.19999932944899
20
-244.87200536137519
0
LWPOLYLINE
5
402
100
AcDbEntity
8
0
100
AcDbPolyline
90
4
70
1
43
0.0
10
-356.02499932944937
20
-280.35000000002265
10
-353.32499932944938
20
-280.3500000000227
10
-353.32499932944927
20
-268.45000000002278
10
-356.0249993294492
20
-268.45000000002278
0
LWPOLYLINE
5
403
100
AcDbEntity
8
0
100
AcDbPolyline
90
8
70
1
43
0.0
10
-453.7582542050813
20
-244.85000000002231
42
-0.21821789023599458
10
-452.84173906609004
20
-244.85000000002233
10
-452.29999663558573
20
-244.85000000002233
42
-0.99999999999999989
10
-452.29999663558573
20
-246.85000000002231
10
-452.8417390660901
20
-246.85000000002233
42
-0.21821789023599111
10
-453.7582542050813
20
-246.85000000002231
10
-454.29999663558567
20
-246.85000000002231
42
-0.99999999999999989
10
-454.29999663558567
20
-244.85000000002233
0
LWPOLYLINE
5
404
100
AcDbEntity
8
0
100
AcDbPolyline
90
4
70
1
43
0.0
10
-427.39999932944926
20
-292.42200536137466
10
-416.19999932944944
20
-292.42200536137472
10
-416.19999932944944
20
-290.3720053613747
10
-427.39999932944926
20
-290.37200536137465
0
LWPOLYLINE
5
405
100
AcDbEntity
8
0
100
AcDbPolyline
90
4
70
1
43
0.0
10
-353.32499932944756
20
-79.950000000024616
10
-356.0249993294475
20
-79.950000000024602
10
-356.02499932944761
20
-91.85000000002448
10
-353.32499932944768
20
-91.850000000024522
0
LWPOLYLINE
5
406
100
AcDbEntity
8
0
100
AcDbPolyline
90
4
70
1
43
0.0
10
-356.02499932944784
20
-119.3500000000242
10
-353.32499932944785
20
-119.35000000002421
10
-353.32499932944779
20
-107.45000000002433
10
-356.02499932944772
20
-107.45000000002432
0
LWPOLYLINE
5
407
100
AcDbEntity
8
0
100
AcDbPolyline
90
4
70
1
43
0.0
10
-356.02499932944806
20
-147.45000000002392
10
-356.02499932944824
20
-159.35000000002384
10
-353.32499932944825
20
-159.35000000002384
10
-353.32499932944813
20
-147.45000000002395
0
LWPOLYLINE
5
408
100
AcDbEntity
8
0
100
AcDbPolyline
90
4
70
1
43
0.0
10
-331.42499932944872
20
-176.86200536137642
10
-333.47499932944868
20
-176.86200536137642
10
-333.47499932944868
20
-183.76200536137634
10
-331.42499932944872
20
-183.76200536137634
0
LWPOLYLINE
5
409
100
AcDbEntity
8
0
100
AcDbPolyline
90
4
70
1
43
0.0
10
-356.02499932944875
20
-213.35000000002339
10
-353.32499932944876
20
-213.35000000002339
10
-353.3249993294487
20
-201.45000000002346
10
-356.02499932944858
20
-201.45000000002344
0
LWPOLYLINE
5
410
100
AcDbEntity
8
0
100
AcDbPolyline
90
8
70
1
43
0.0
10
-454.29999663558544
20
-224.15000000002254
10
-453.75825420508107
20
-224.1500000000226
42
0.21821789023600863
10
-452.84173906608993
20
-224.1500000000226
10
-452.2999966355855
20
-224.1500000000226
42
0.99999999999999989
10
-452.2999966355855
20
-222.15000000002263
10
-452.84173906608987
20
-222.15000000002263
42
0.21821789023599586
10
-453.75825420508107
20
-222.15000000002263
10
-454.29999663558544
20
-222.1500000000226
42
0.99999999999999989
0
LWPOLYLINE
5
411
100
AcDbEntity
8
0
100
AcDbPolyline
90
4
70
1
43
0.0
10
-427.39999932944841
20
-201.12200536137553
10
-416.19999932944859
20
-201.12200536137561
10
-416.19999932944859
20
-199.07200536137563
10
-427.39999932944841
20
-199.07200536137555
0
LWPOLYLINE
5
412
100
AcDbEntity
8
0
100
AcDbPolyline
90
8
70
1
43
0.0
10
-453.75825420508068
20
-175.95000000002304
10
-454.29999663558505
20
-175.95000000002304
42
0.99999999999999989
10
-454.29999663558505
20
-177.95000000002301
10
-453.75825420508068
20
-177.95000000002304
42
0.21821789023600863
10
-452.84173906608947
20
-177.95000000002304
10
-452.2999966355851
20
-177.95000000002304
42
0.99999999999999989
10
-452.2999966355851
20
-175.95000000002304
10
-452.84173906608942
20
-175.95000000002307
42
0.21821789023599233
0
LWPOLYLINE
5
413
100
AcDbEntity
8
0
100
AcDbPolyline
90
4
70
1
43
0.0
10
-411.84999932944811
20
-149.31200536137615
10
-409.79999932944816
20
-149.31200536137618
10
-409.79999932944804
20
-142.41200536137623
10
-411.84999932944805
20
-142.41200536137623
0
LWPOLYLINE
5
414
100
AcDbEntity
8
0
100
AcDbPolyline
90
4
70
1
43
0.0
10
-431.69999932944756
20
-128.20000000002364
10
-431.69999932944739
20
-116.30000000002376
10
-434.39999932944738
20
-116.30000000002376
10
-434.39999932944744
20
-128.20000000002361
0
LWPOLYLINE
5
415
100
AcDbEntity
8
0
100
AcDbPolyline
90
4
70
1
43
0.0
10
-427.39999932944755
20
-108.8470053613764
10
-416.19999932944773
20
-108.84700536137649
10
-416.19999932944773
20
-106.79700536137651
10
-427.39999932944755
20
-106.79700536137642
0
LWPOLYLINE
5
416
100
AcDbEntity
8
0
100
AcDbPolyline
90
4
70
1
43
0.0
10
-427.39999932944733
20
-83.872005361376665
10
-427.39999932944733
20
-85.922005361376648
10
-416.19999932944751
20
-85.922005361376705
10
-416.19999932944751
20
-83.87200536137675
0
LWPOLYLINE
5
417
100
AcDbEntity
8
0
100
AcDbPolyline
90
4
70
1
43
0.0
10
-411.84999932944743
20
-73.212005361376868
10
-411.84999932944748
20
-80.112005361376816
10
-409.79999932944759
20
-80.112005361376845
10
-409.79999932944747
20
-73.212005361376882
0
LWPOLYLINE
5
418
100
AcDbEntity
8
0
100
AcDbPolyline
90
8
70
1
43
0.0
10
-453.75825420507999
20
-106.77500000002365
42
-0.21821789023600646
10
-452.84173906608879
20
-106.77500000002367
10
-452.29999663558442
20
-106.77500000002368
42
-0.99999999999999989
10
-452.29999663558442
20
-108.77500000002364
10
-452.84173906608879
20
-108.77500000002368
42
-0.21821789023599097
10
-453.75825420507999
20
-108.77500000002364
10
-454.29999663558453
20
-108.77500000002362
42
-0.99999999999999989
10
-454.29999663558442
20
-106.77500000002367
0
LWPOLYLINE
5
419
100
AcDbEntity
8
0
100
AcDbPolyline
90
4
70
1
43
0.0
10
-427.39999932944778
20
-131.42200536137616
10
-416.19999932944791
20
-131.42200536137625
10
-416.19999932944791
20
-129.3720053613763
10
-427.39999932944778
20
-129.37200536137621
0
LWPOLYLINE
5
420
100
AcDbEntity
8
0
100
AcDbPolyline
90
8
70
1
43
0.0
10
-453.75825420508045
20
-153.05000000002323
10
-454.29999663558482
20
-153.05000000002323
42
0.99999999999999989
10
-454.29999663558482
20
-155.05000000002323
10
-453.75825420508045
20
-155.05000000002323
42
0.21821789023597693
10
-452.8417390660893
20
-155.05000000002323
10
-452.29999663558488
20
-155.05000000002323
42
0.99999999999999989
10
-452.29999663558488
20
-153.05000000002326
10
-452.84173906608919
20
-153.05000000002326
42
0.21821789023602228
0
LWPOLYLINE
5
421
100
AcDbEntity
8
0
100
AcDbPolyline
90
4
70
1
43
0.0
10
-416.19999932944836
20
-175.97200536137589
10
-427.39999932944818
20
-175.97200536137581
10
-427.39999932944818
20
-178.02200536137579
10
-416.19999932944836
20
-178.02200536137588
0
LWPOLYLINE
5
422
100
AcDbEntity
8
0
100
AcDbPolyline
90
4
70
1
43
0.0
10
-434.39999932944801
20
-186.00000000002308
10
-434.39999932944818
20
-197.90000000002297
10
-431.69999932944819
20
-197.900000000023
10
-431.69999932944802
20
-186.00000000002311
0
LWPOLYLINE
5
423
100
AcDbEntity
8
0
100
AcDbPolyline
90
4
70
1
43
0.0
10
-416.19999932944881
20
-222.17200536137545
10
-427.39999932944863
20
-222.1720053613754
10
-427.39999932944863
20
-224.22200536137538
10
-416.19999932944881
20
-224.22200536137547
0
LWPOLYLINE
5
424
100
AcDbEntity
8
0
100
AcDbPolyline
90
4
70
1
43
0.0
10
-349.02499932944886
20
-214.52200536137596
10
-349.02499932944886
20
-216.57200536137594
10
-339.52499932944903
20
-216.572005361376
10
-339.52499932944903
20
-214.52200536137605
0
LWPOLYLINE
5
425
100
AcDbEntity
8
0
100
AcDbPolyline
90
4
70
1
43
0.0
10
-356.02499932944846
20
-186.35000000002361
10
-353.32499932944847
20
-186.35000000002361
10
-353.32499932944842
20
-174.45000000002369
10
-356.02499932944841
20
-174.45000000002366
0
LWPOLYLINE
5
426
100
AcDbEntity
8
0
100
AcDbPolyline
90
4
70
1
43
0.0
10
-349.02499932944835
20
-162.57200536137643
10
-337.82499932944853
20
-162.57200536137648
10
-337.82499932944853
20
-160.5220053613765
10
-349.02499932944835
20
-160.52200536137639
0
LWPOLYLINE
5
427
100
AcDbEntity
8
0
100
AcDbPolyline
90
4
70
1
43
0.0
10
-349.02499932944801
20
-122.5720053613768
10
-337.82499932944813
20
-122.57200536137688
10
-337.82499932944808
20
-120.5220053613769
10
-349.02499932944795
20
-120.52200536137678
0
LWPOLYLINE
5
428
100
AcDbEntity
8
0
100
AcDbPolyline
90
4
70
1
43
0.0
10
-349.02499932944772
20
-93.022005361377069
10
-349.02499932944772
20
-95.072005361377052
10
-337.82499932944791
20
-95.072005361377165
10
-337.82499932944791
20
-93.022005361377168
0
LWPOLYLINE
5
429
100
AcDbEntity
8
0
100
AcDbPolyline
90
8
70
1
43
0.0
10
-374.46674175995207
20
-95.000000000024329
42
-0.21821789023597343
10
-375.38325689894322
20
-95.000000000024301
10
-375.9249993294477
20
-95.000000000024301
42
-0.99999999999999989
10
-375.92499932944753
20
-93.000000000024343
10
-375.38325689894316
20
-93.000000000024343
42
-0.2182178902360139
10
-374.46674175995201
20
-93.000000000024357
10
-373.92499932944759
20
-93.000000000024343
42
-0.99999999999999989
10
-373.92499932944759
20
-95.000000000024301
0
LWPOLYLINE
5
430
100
AcDbEntity
8
0
100
AcDbPolyline
90
4
70
1
43
0.0
10
-331.4249993294481
20
-109.86200536137703
10
-333.47499932944805
20
-109.86200536137702
10
-333.47499932944811
20
-116.76200536137698
10
-331.4249993294481
20
-116.76200536137699
0
LWPOLYLINE
5
431
100
AcDbEntity
8
0
100
AcDbPolyline
90
8
70
1
43
0.0
10
-375.38325689894378
20
-160.50000000002368
10
-375.92499932944816
20
-160.50000000002368
42
0.99999999999999989
10
-375.92499932944816
20
-162.50000000002362
10
-375.38325689894384
20
-162.50000000002362
42
0.21821789023606281
10
-374.46674175995264
20
-162.50000000002365
10
-373.92499932944816
20
-162.50000000002365
42
0.99999999999999989
10
-373.92499932944821
20
-160.5000000000237
10
-374.46674175995264
20
-160.50000000002368
42
0.21821789023593821
0
LWPOLYLINE
5
432
100
AcDbEntity
8
0
100
AcDbPolyline
90
4
70
1
43
0.0
10
-349.02499932944858
20
-189.57200536137617
10
-337.8249993294487
20
-189.57200536137623
10
-337.8249993294487
20
-187.52200536137624
10
-349.02499932944858
20
-187.52200536137619
0
LWPOLYLINE
5
433
100
AcDbEntity
8
0
100
AcDbPolyline
90
8
70
1
43
0.0
10
-375.92499932944884
20
-216.50000000002319
42
-0.99999999999999989
10
-375.92499932944867
20
-214.50000000002316
10
-375.3832568989443
20
-214.50000000002319
42
-0.21821789023602403
10
-374.46674175995304
20
-214.50000000002319
10
-373.92499932944872
20
-214.50000000002316
42
-0.99999999999999989
10
-373.92499932944872
20
-216.50000000002319
10
-374.46674175995315
20
-216.50000000002319
42
-0.2182178902359769
10
-375.3832568989443
20
-216.50000000002314
0
LWPOLYLINE
5
434
100
AcDbEntity
8
0
100
AcDbPolyline
90
4
70
1
43
0.0
10
-431.69999932944825
20
-209.10000000002293
10
-434.39999932944824
20
-209.10000000002287
10
-434.39999932944829
20
-221.00000000002279
10
-431.69999932944842
20
-221.00000000002282
0
LWPOLYLINE
5
435
100
AcDbEntity
8
0
100
AcDbPolyline
90
4
70
1
43
0.0
10
-409.7999993294485
20
-188.41200536137578
10
-411.84999932944845
20
-188.41200536137578
10
-411.84999932944856
20
-195.31200536137572
10
-409.79999932944855
20
-195.31200536137572
0
LWPOLYLINE
5
436
100
AcDbEntity
8
0
100
AcDbPolyline
90
4
70
1
43
0.0
10
-434.39999932944778
20
-162.90000000002334
10
-434.39999932944795
20
-174.80000000002323
10
-431.69999932944796
20
-174.80000000002323
10
-431.69999932944785
20
-162.90000000002337
0
LWPOLYLINE
5
437
100
AcDbEntity
8
0
100
AcDbPolyline
90
4
70
1
43
0.0
10
-434.39999932944761
20
-140.00000000002353
10
-434.39999932944772
20
-151.90000000002343
10
-431.69999932944779
20
-151.90000000002345
10
-431.69999932944762
20
-140.00000000002353
0
LWPOLYLINE
5
438
100
AcDbEntity
8
0
100
AcDbPolyline
90
8
70
1
43
0.0
10
-453.75825420508022
20
-129.35000000002344
10
-454.29999663558465
20
-129.35000000002344
42
0.99999999999999989
10
-454.29999663558465
20
-131.35000000002339
10
-453.75825420508022
20
-131.35000000002344
42
0.21821789023600863
10
-452.84173906608908
20
-131.35000000002344
10
-452.29999663558465
20
-131.35000000002344
42
0.99999999999999989
10
-452.29999663558465
20
-129.35000000002344
10
-452.84173906608896
20
-129.35000000002344
42
0.21821789023599056
0
LWPOLYLINE
5
439
100
AcDbEntity
8
0
100
AcDbPolyline
90
4
70
1
43
0.0
10
-431.69999932944722
20
-93.725000000023968
10
-434.39999932944716
20
-93.725000000023954
10
-434.39999932944721
20
-105.62500000002386
10
-431.69999932944734
20
-105.62500000002386
0
LWPOLYLINE
5
440
100
AcDbEntity
8
0
100
AcDbPolyline
90
4
70
1
43
0.0
10
-434.39999932944693
20
-70.80000000002417
10
-434.3999993294471
20
-82.700000000024062
10
-431.69999932944711
20
-82.70000000002409
10
-431.699999329447
20
-70.800000000024198
0
LWPOLYLINE
5
441
100
AcDbEntity
8
0
100
AcDbPolyline
90
8
70
1
43
0.0
10
-453.75825420507971
20
-83.850000000023869
42
-0.21821789023602273
10
-452.84173906608856
20
-83.850000000023911
10
-452.29999663558408
20
-83.850000000023925
42
-0.99999999999999989
10
-452.29999663558425
20
-85.850000000023883
10
-452.84173906608862
20
-85.850000000023897
42
-0.21821789023596097
10
-453.75825420507977
20
-85.850000000023869
10
-454.29999663558419
20
-85.85000000002384
42
-0.99999999999999989
10
-454.29999663558419
20
-83.850000000023897
0
LWPOLYLINE
5
442
100
AcDbEntity
8
0
100
AcDbPolyline
90
4
70
1
43
0.0
10
-411.84999932944771
20
-103.0370053613766
10
-409.7999993294477
20
-103.03700536137661
10
-409.79999932944764
20
-96.137005361376652
10
-411.84999932944766
20
-96.137005361376652
0
LWPOLYLINE
5
443
100
AcDbEntity
8
0
100
AcDbPolyline
90
4
70
1
43
0.0
10
-411.84999932944788
20
-125.61200536137635
10
-409.79999932944793
20
-125.61200536137636
10
-409.79999932944787
20
-118.71200536137644
10
-411.84999932944783
20
-118.71200536137643
0
LWPOLYLINE
5
444
100
AcDbEntity
8
0
100
AcDbPolyline
90
4
70
1
43
0.0
10
-416.19999932944813
20
-155.1220053613761
10
-416.19999932944813
20
-153.07200536137611
10
-427.39999932944795
20
-153.072005361376
10
-427.39999932944795
20
-155.12200536137595
0
LWPOLYLINE
5
445
100
AcDbEntity
8
0
100
AcDbPolyline
90
4
70
1
43
0.0
10
-411.84999932944834
20
-172.21200536137599
10
-409.79999932944838
20
-172.21200536137599
10
-409.79999932944827
20
-165.31200536137604
10
-411.84999932944828
20
-165.31200536137601
0
LWPOLYLINE
5
446
100
AcDbEntity
8
0
100
AcDbPolyline
90
8
70
1
43
0.0
10
-453.75825420508085
20
-199.05000000002278
10
-454.29999663558527
20
-199.05000000002278
42
0.99999999999999989
10
-454.29999663558527
20
-201.05000000002278
10
-453.75825420508085
20
-201.05000000002278
42
0.21821789023598046
10
-452.8417390660897
20
-201.05000000002278
10
-452.29999663558533
20
-201.05000000002278
42
0.99999999999999989
10
-452.29999663558533
20
-199.05000000002281
10
-452.84173906608964
20
-199.05000000002281
42
0.21821789023602048
0
LWPOLYLINE
5
447
100
AcDbEntity
8
0
100
AcDbPolyline
90
4
70
1
43
0.0
10
-409.79999932944872
20
-211.5120053613756
10
-411.84999932944868
20
-211.5120053613756
10
-411.84999932944879
20
-218.41200536137558
10
-409.79999932944878
20
-218.41200536137552
0
LWPOLYLINE
5
448
100
AcDbEntity
8
0
100
AcDbPolyline
90
4
70
1
43
0.0
10
-331.42499932944901
20
-210.76200536137611
10
-331.42499932944895
20
-203.86200536137619
10
-333.47499932944891
20
-203.86200536137619
10
-333.47499932944902
20
-210.76200536137617
0
LWPOLYLINE
5
449
100
AcDbEntity
8
0
100
AcDbPolyline
90
8
70
1
43
0.0
10
-373.92499932944844
20
-187.50000000002345
10
-374.46674175995281
20
-187.50000000002345
42
0.21821789023596411
10
-375.38325689894407
20
-187.50000000002342
10
-375.9249993294485
20
-187.50000000002342
42
0.99999999999999989
10
-375.9249993294485
20
-189.50000000002342
10
-375.38325689894407
20
-189.50000000002336
42
0.21821789023605578
10
-374.46674175995281
20
-189.50000000002342
10
-373.92499932944844
20
-189.50000000002342
42
0.99999999999999989
0
LWPOLYLINE
5
450
100
AcDbEntity
8
0
100
AcDbPolyline
90
4
70
1
43
0.0
10
-331.4249993294485
20
-156.76200536137659
10
-331.42499932944844
20
-149.86200536137665
10
-333.47499932944845
20
-149.86200536137665
10
-333.47499932944851
20
-156.76200536137659
0
LWPOLYLINE
5
451
100
AcDbEntity
8
0
100
AcDbPolyline
90
8
70
1
43
0.0
10
-375.38325689894344
20
-120.50000000002406
10
-375.92499932944781
20
-120.50000000002406
42
0.99999999999999989
10
-375.92499932944781
20
-122.50000000002402
10
-375.38325689894344
20
-122.50000000002402
42
0.21821789023596103
10
-374.46674175995224
20
-122.50000000002403
10
-373.92499932944781
20
-122.50000000002403
42
0.99999999999999989
10
-373.92499932944787
20
-120.50000000002406
10
-374.46674175995219
20
-120.5000000000241
42
0.21821789023604521
0
LWPOLYLINE
5
452
100
AcDbEntity
8
0
100
AcDbPolyline
90
4
70
1
43
0.0
10
-333.47499932944777
20
-82.3620053613773
10
-333.47499932944788
20
-89.262005361377263
10
-331.42499932944787
20
-89.262005361377277
10
-331.42499932944781
20
-82.362005361377314
0
LWPOLYLINE
5
453
100
AcDbEntity
8
0
100
AcDbPolyline
90
4
70
1
43
0.0
10
-353.32499932944711
20
-36.700000000025014
10
-356.0249993294471
20
-36.700000000024993
10
-356.02499932944727
20
-48.600000000024878
10
-353.32499932944728
20
-48.600000000024899
0
LWPOLYLINE
5
454
100
AcDbEntity
8
0
100
AcDbPolyline
90
4
70
1
43
0.0
10
-427.39999932944716
20
-63.472005361376858
10
-416.19999932944728
20
-63.472005361376951
10
-416.19999932944728
20
-61.422005361376968
10
-427.39999932944716
20
-61.422005361376875
0
LWPOLYLINE
5
455
100
AcDbEntity
8
0
100
AcDbPolyline
90
4
70
1
43
0.0
10
-434.39999932944653
20
-25.300000000024589
10
-434.39999932944664
20
-37.200000000024474
10
-431.69999932944671
20
-37.200000000024495
10
-431.69999932944654
20
-25.30000000002461
0
LWPOLYLINE
5
456
100
AcDbEntity
8
0
100
AcDbPolyline
90
4
70
1
43
0.0
10
-427.39999932944693
20
-38.372005361377063
10
-427.39999932944693
20
-40.422005361377046
10
-416.19999932944711
20
-40.422005361377124
10
-416.19999932944711
20
-38.372005361377141
0
LWPOLYLINE
5
457
100
AcDbEntity
8
0
100
AcDbPolyline
90
4
70
1
43
0.0
10
-409.79999932944702
20
-57.662005361377069
10
-409.7999993294469
20
-50.76200536137712
10
-411.84999932944726
20
-50.762005361377106
10
-411.84999932944726
20
-57.662005361377041
0
LWPOLYLINE
5
458
100
AcDbEntity
8
0
100
AcDbPolyline
90
4
70
1
43
0.0
10
-333.47499932944743
20
-46.012005361377632
10
-331.42499932944747
20
-46.012005361377646
10
-331.42499932944747
20
-39.112005361377705
10
-333.47499932944737
20
-39.112005361377683
0
LWPOLYLINE
5
459
100
AcDbEntity
8
0
100
AcDbPolyline
90
8
70
1
43
0.0
10
-373.92499932944713
20
-49.750000000024727
10
-374.46674175995156
20
-49.750000000024713
42
0.21821789023598609
10
-375.38325689894282
20
-49.750000000024706
10
-375.92499932944719
20
-49.750000000024706
42
0.99999999999999989
10
-375.92499932944719
20
-51.750000000024691
10
-375.38325689894282
20
-51.75000000002467
42
0.21821789023603019
10
-374.46674175995156
20
-51.750000000024698
10
-373.92499932944713
20
-51.750000000024698
42
0.99999999999999989
0
LWPOLYLINE
5
460
100
AcDbEntity
8
0
100
AcDbPolyline
90
8
70
1
43
0.0
10
-452.29999663558402
20
-61.400000000024136
42
-0.99999999999999989
10
-452.29999663558402
20
-63.400000000024114
10
-452.84173906608839
20
-63.400000000024107
42
-0.21821789023603019
10
-453.75825420507965
20
-63.400000000024093
10
-454.29999663558414
20
-63.400000000024093
42
-0.99999999999999989
10
-454.29999663558397
20
-61.400000000024122
10
-453.7582542050796
20
-61.400000000024122
42
-0.21821789023597168
10
-452.84173906608839
20
-61.40000000002415
0
LWPOLYLINE
5
461
100
AcDbEntity
8
0
100
AcDbPolyline
90
8
70
1
43
0.0
10
-452.84174175995088
20
-40.350000000024302
10
-452.29999932944651
20
-40.350000000024302
42
0.99999999999999989
10
-452.29999932944651
20
-38.350000000024323
10
-452.84174175995088
20
-38.350000000024323
42
0.21821789023596988
10
-453.75825689894208
20
-38.350000000024302
10
-454.29999932944645
20
-38.350000000024302
42
0.99999730614732585
10
-454.29999932943366
20
-40.350000000024274
10
-453.75825689894214
20
-40.350000000024274
42
0.21821789023603108
0
LWPOLYLINE
5
462
100
AcDbEntity
8
0
100
AcDbPolyline
90
4
70
1
43
0.0
10
-434.3999993294467
20
-48.350000000024416
10
-434.39999932944687
20
-60.250000000024301
10
-431.69999932944688
20
-60.250000000024322
10
-431.69999932944677
20
-48.350000000024423
0
LWPOLYLINE
5
463
100
AcDbEntity
8
0
100
AcDbPolyline
90
4
70
1
43
0.0
10
-411.84999932944669
20
-27.712005361377273
10
-411.84999932944675
20
-34.612005361377228
10
-409.79999932944679
20
-34.612005361377243
10
-409.79999932944679
20
-27.712005361377297
0
LWPOLYLINE
5
464
100
AcDbEntity
8
0
100
AcDbPolyline
90
4
70
1
43
0.0
10
-337.82499932944745
20
-49.772005361377552
10
-349.02499932944727
20
-49.772005361377467
10
-349.02499932944727
20
-51.822005361377435
10
-337.82499932944745
20
-51.822005361377528
0
CIRCLE
5
465
100
AcDbEntity
8
0
100
AcDbCircle
10
-502.54999932951648
20
-267.75000000002086
30
0
40
1.12499999999997
210
6.5845803755478078e-45
220
2.4651903288156624e-32
230
1
0
CIRCLE
5
466
100
AcDbEntity
8
0
100
AcDbCircle
10
-580.29999932952001
20
-282.75
30
0
40
1.12499999999997
210
6.5845803755478078e-45
220
2.4651903288156624e-32
230
1
0
CIRCLE
5
467
100
AcDbEntity
8
0
100
AcDbCircle
10
-502.54999932952052
20
-282.75000000002086
30
0
40
1.12499999999997
210
6.5845803755478078e-45
220
2.4651903288156624e-32
230
1
0
CIRCLE
5
468
100
AcDbEntity
8
0
100
AcDbCircle
10
-580.29999932951603
20
-267.75
30
0
40
1.12499999999997
210
6.5845803755478078e-45
220
2.4651903288156624e-32
230
1
0
LWPOLYLINE
5
469
100
AcDbEntity
8
0
100
AcDbPolyline
90
8
70
1
43
0.0
10
-601.21674175998817
20
-147.99999999999466
10
-600.67499932948385
20
-147.99999999999477
42
0.99999999999999989
10
-600.67499932948328
20
-145.99999999999488
10
-601.2167417599876
20
-145.99999999999471
42
0.21821789023601171
10
-602.13325689897886
20
-145.99999999999449
10
-602.67499932948328
20
-145.99999999999429
42
0.99999999999999989
10
-602.67499932948374
20
-147.9999999999942
10
-602.13325689897931
20
-147.99999999999443
42
0.21821789023599455
0
LWPOLYLINE
5
470
100
AcDbEntity
8
0
100
AcDbPolyline
90
8
70
1
43
0.0
10
-602.13325689898613
20
-173.49999999999443
42
-0.21821789023597216
10
-601.2167417599951
20
-173.49999999999469
10
-600.67499932949067
20
-173.49999999999486
42
-0.99999999999999989
10
-600.67499932949113
20
-175.49999999999483
10
-601.21674175999556
20
-175.4999999999946
42
-0.21821789023599808
10
-602.1332568989867
20
-175.4999999999944
10
-602.67499932949124
20
-175.49999999999426
42
-0.99999999999999989
10
-602.67499932949067
20
-173.49999999999429
0
LWPOLYLINE
5
471
100
AcDbEntity
8
0
100
AcDbPolyline
90
8
70
1
43
0.0
10
-601.21674175997748
20
-107.99999999999464
10
-600.67499932947305
20
-107.99999999999478
42
0.99999999999999989
10
-600.6749993294726
20
-105.9999999999949
10
-601.21674175997691
20
-105.9999999999947
42
0.21821789023601171
10
-602.13325689896817
20
-105.99999999999447
10
-602.67499932947248
20
-105.99999999999427
42
0.99999999999999989
10
-602.67499932947305
20
-107.99999999999422
10
-602.13325689896863
20
-107.99999999999443
42
0.21821789023599455
0
LWPOLYLINE
5
472
100
AcDbEntity
8
0
100
AcDbPolyline
90
8
70
1
43
0.0
10
-602.67499932946578
20
-80.99999999999433
10
-602.13325689896135
20
-80.999999999994472
42
0.21821789023600158
10
-601.2167417599702
20
-80.999999999994756
10
-600.67499932946589
20
-80.999999999994955
42
0.99999999999999989
10
-600.67499932946532
20
-78.999999999995012
10
-601.21674175996964
20
-78.999999999994813
42
0.21821789023602711
10
-602.13325689896101
20
-78.999999999994586
10
-602.67499932946532
20
-78.999999999994387
42
0.99999999999999989
0
LWPOLYLINE
5
473
100
AcDbEntity
8
0
100
AcDbPolyline
90
8
70
1
43
0.0
10
-522.84174445385509
20
-161.7250000000156
42
-0.21821789023597563
10
-523.75825959284623
20
-161.72500000001534
10
-524.30000202335066
20
-161.7250000000152
42
-0.99999999999999989
10
-524.30000202335009
20
-159.7250000000152
10
-523.75825959284566
20
-159.72500000001534
42
-0.21821789023600996
10
-522.84174445385452
20
-159.7250000000156
10
-522.30000202335009
20
-159.72500000001563
42
-0.99999999999999989
10
-522.30000202335066
20
-161.7250000000156
0
LWPOLYLINE
5
474
100
AcDbEntity
8
0
100
AcDbPolyline
90
8
70
1
43
0.0
10
-600.67499932945805
20
-51.999999999994913
42
-0.99999999999999989
10
-600.67499932945861
20
-53.999999999994941
10
-601.21674175996304
20
-53.999999999994792
42
-0.2182178902359769
10
-602.13325689895419
20
-53.99999999999455
10
-602.67499932945861
20
-53.999999999994373
42
-0.99999999999999989
10
-602.67499932945805
20
-51.999999999994344
10
-602.13325689895373
20
-51.999999999994522
42
-0.21821789023599239
10
-601.21674175996247
20
-51.999999999994735
0
LWPOLYLINE
5
475
100
AcDbEntity
8
0
100
AcDbPolyline
90
8
70
1
43
0.0
10
-522.84174445384895
20
-139.1500000000155
10
-522.30000202334463
20
-139.15000000001561
42
0.99999999999999989
10
-522.30000202334406
20
-137.15000000001572
10
-522.84174445384838
20
-137.15000000001567
42
0.21821789023600999
10
-523.75825959283964
20
-137.15000000001544
10
-524.30000202334395
20
-137.15000000001527
42
0.99999999999999989
10
-524.30000202334452
20
-139.15000000001521
10
-523.7582595928402
20
-139.15000000001541
42
0.21821789023600863
0
LWPOLYLINE
5
476
100
AcDbEntity
8
0
100
AcDbPolyline
90
8
70
1
43
0.0
10
-522.84174445384258
20
-115.45000000001544
10
-522.30000202333815
20
-115.45000000001558
42
0.99999999999999989
10
-522.3000020233377
20
-113.45000000001569
10
-522.84174445384201
20
-113.45000000001562
42
0.21821789023600999
10
-523.75825959283327
20
-113.45000000001541
10
-524.3000020233377
20
-113.45000000001521
42
0.99999999999999989
10
-524.30000202333827
20
-115.45000000001515
10
-523.75825959283372
20
-115.45000000001536
42
0.21821789023600863
0
LWPOLYLINE
5
477
100
AcDbEntity
8
0
100
AcDbPolyline
90
8
70
1
43
0.0
10
-522.84174445383644
20
-92.550000000015515
10
-522.30000202333213
20
-92.550000000015658
42
0.99999999999999989
10
-522.30000202333156
20
-90.550000000015629
10
-522.84174445383587
20
-90.550000000015558
42
0.21821789023600999
10
-523.75825959282713
20
-90.550000000015345
10
-524.30000202333156
20
-90.550000000015146
42
0.99999999999999989
10
-524.30000202333201
20
-92.550000000015231
10
-523.7582595928277
20
-92.550000000015302
42
0.21821789023599455
0
LWPOLYLINE
5
478
100
AcDbEntity
8
0
100
AcDbPolyline
90
8
70
1
43
0.0
10
-522.8417444538303
20
-69.450000000015635
10
-522.30000202332587
20
-69.450000000015777
42
0.99999999999999989
10
-522.30000202332531
20
-67.450000000015748
10
-522.84174445382985
20
-67.450000000015805
42
0.21821789023597865
10
-523.75825959282099
20
-67.450000000015464
10
-524.30000202332531
20
-67.450000000015407
42
0.99999999999999989
10
-524.30000202332587
20
-69.450000000015351
10
-523.75825959282145
20
-69.45000000001555
42
0.21821789023601038
0
LWPOLYLINE
5
479
100
AcDbEntity
8
0
100
AcDbPolyline
90
8
70
1
43
0.0
10
-522.84174445386111
20
-184.65000000001555
42
-0.21821789023601354
10
-523.75825959285237
20
-184.65000000001535
10
-524.3000020233568
20
-184.65000000001521
42
-0.99999999999999989
10
-524.30000202335623
20
-182.65000000001524
10
-523.7582595928518
20
-182.65000000001535
42
-0.21821789023599458
10
-522.84174445386066
20
-182.65000000001564
10
-522.30000202335623
20
-182.65000000001567
42
-0.99999999999999989
10
-522.3000020233568
20
-184.65000000001564
0
LWPOLYLINE
5
480
100
AcDbEntity
8
0
100
AcDbPolyline
90
8
70
1
43
0.0
10
-522.30000202331917
20
-44.350000000015726
10
-522.84174445382359
20
-44.350000000015584
42
0.21821789023595933
10
-523.75825959281474
20
-44.350000000015442
10
-524.30000202331917
20
-44.35000000001537
42
0.99999999999999989
10
-524.30000202331962
20
-46.350000000015328
10
-523.75825959281531
20
-46.350000000015527
42
0.21821789023601038
10
-522.84174445382416
20
-46.350000000015612
10
-522.30000202331973
20
-46.35000000001579
42
0.99999999999999989
0
LWPOLYLINE
5
481
100
AcDbEntity
8
0
100
AcDbPolyline
90
8
70
1
43
0.0
10
-522.84174175995508
20
-22.850000000015637
42
-0.21821789023599192
10
-523.75825689894623
20
-22.850000000015406
10
-524.29999932945066
20
-22.8500000000151
42
-0.99999999999999989
10
-524.29999932945009
20
-20.850000000015214
10
-523.75825689894566
20
-20.850000000015385
42
-0.21821789023598179
10
-522.84174175995452
20
-20.850000000015612
10
-522.29999932945009
20
-20.850000000015498
42
-0.99999999999999989
10
-522.29999932945066
20
-22.850000000015669
0
LWPOLYLINE
5
482
100
AcDbEntity
8
0
100
AcDbPolyline
90
4
70
1
43
0.0
10
-542.19999663559133
20
-35.900000000010323
10
-542.19999663558815
20
-24.00000000001036
10
-544.89999663558808
20
-24.000000000009667
10
-544.89999663559126
20
-35.900000000009619
0
LWPOLYLINE
5
483
100
AcDbEntity
8
0
100
AcDbPolyline
90
4
70
1
43
0.0
10
-564.74999663559026
20
-33.487994638651834
10
-564.74999663558845
20
-26.587994638651864
10
-566.7999966355884
20
-26.587994638651303
10
-566.79999663559022
20
-33.487994638651294
0
LWPOLYLINE
5
484
100
AcDbEntity
8
0
100
AcDbPolyline
90
4
70
1
43
0.0
10
-549.19999663558701
20
-20.777994638655962
10
-560.39999663558683
20
-20.77799463865297
10
-560.3999966355874
20
-22.827994638652946
10
-549.19999663558758
20
-22.827994638655934
0
LWPOLYLINE
5
485
100
AcDbEntity
8
0
100
AcDbPolyline
90
8
70
1
43
0.0
10
-522.30000202336237
20
-205.35000000001554
10
-522.8417444538668
20
-205.35000000001537
42
0.21821789023598751
10
-523.75825959285794
20
-205.35000000001526
10
-524.30000202336237
20
-205.35000000001503
42
0.99999999999999989
10
-524.30000202336282
20
-207.35000000001514
10
-523.75825959285839
20
-207.3500000000152
42
0.21821789023599455
10
-522.84174445386725
20
-207.35000000001543
10
-522.30000202336294
20
-207.35000000001546
42
0.99999999999999989
0
LWPOLYLINE
5
486
100
AcDbEntity
8
0
100
AcDbPolyline
90
4
70
1
43
0.0
10
-549.19999932948099
20
-137.07799463865604
10
-560.39999932948081
20
-137.07799463865308
10
-560.39999932948137
20
-139.12799463865304
10
-549.19999932948156
20
-139.12799463865605
0
LWPOLYLINE
5
487
100
AcDbEntity
8
0
100
AcDbPolyline
90
4
70
1
43
0.0
10
-645.17499932951705
20
-272.7379946386302
10
-645.17499932951887
20
-279.63799463863035
10
-643.1249993295188
20
-279.63799463863091
10
-643.12499932951698
20
-272.73799463863077
0
LWPOLYLINE
5
488
100
AcDbEntity
8
0
100
AcDbPolyline
90
4
70
1
43
0.0
10
-645.17499932947385
20
-111.73799463863041
10
-645.17499932947567
20
-118.63799463863039
10
-643.12499932947571
20
-118.63799463863096
10
-643.12499932947389
20
-111.73799463863097
0
LWPOLYLINE
5
489
100
AcDbEntity
8
0
100
AcDbPolyline
90
4
70
1
43
0.0
10
-564.74999932951914
20
-280.18799463865184
10
-566.7999993295191
20
-280.18799463865128
10
-566.79999932952103
20
-287.08799463865131
10
-564.74999932952096
20
-287.08799463865182
0
LWPOLYLINE
5
490
100
AcDbEntity
8
0
100
AcDbPolyline
90
4
70
1
43
0.0
10
-564.74999932947594
20
-119.18799463865176
10
-566.7999993294759
20
-119.1879946386512
10
-566.79999932947783
20
-126.08799463865134
10
-564.74999932947776
20
-126.08799463865189
0
LWPOLYLINE
5
491
100
AcDbEntity
8
0
100
AcDbPolyline
90
4
70
1
43
0.0
10
-620.57499932948406
20
-149.14999999998963
10
-623.2749993294841
20
-149.14999999998889
10
-623.27499932948729
20
-161.04999999998887
10
-620.57499932948735
20
-161.04999999998961
0
LWPOLYLINE
5
492
100
AcDbEntity
8
0
100
AcDbPolyline
90
4
70
1
43
0.0
10
-549.19999932949372
20
-184.62799463865599
10
-549.19999932949315
20
-182.57799463865604
10
-560.39999932949297
20
-182.57799463865302
10
-560.39999932949354
20
-184.62799463865304
0
LWPOLYLINE
5
493
100
AcDbEntity
8
0
100
AcDbPolyline
90
4
70
1
43
0.0
10
-623.27499932949468
20
-188.54999999998887
10
-620.57499932949463
20
-188.54999999998961
10
-620.57499932949145
20
-176.64999999998963
10
-623.27499932949149
20
-176.64999999998889
0
LWPOLYLINE
5
494
100
AcDbEntity
8
0
100
AcDbPolyline
90
8
70
1
43
0.0
10
-522.8417444538735
20
-230.45000000001545
10
-522.30000202336907
20
-230.45000000001556
42
0.99999999999999989
10
-522.30000202336851
20
-228.45000000001556
10
-522.84174445387293
20
-228.45000000001562
42
0.21821789023598043
10
-523.75825959286408
20
-228.45000000001528
10
-524.30000202336851
20
-228.45000000001522
42
0.99999999999999989
10
-524.30000202336907
20
-230.45000000001517
10
-523.75825959286453
20
-230.45000000001534
42
0.21821789023599683
0
LWPOLYLINE
5
495
100
AcDbEntity
8
0
100
AcDbPolyline
90
8
70
1
43
0.0
10
-522.84174445387964
20
-253.55000000001547
10
-522.30000202337533
20
-253.55000000001559
42
0.99999999999999989
10
-522.30000202337476
20
-251.55000000001559
10
-522.84174445387907
20
-251.5500000000155
42
0.21821789023600999
10
-523.75825959287033
20
-251.5500000000153
10
-524.30000202337465
20
-251.5500000000151
42
0.99999999999999989
10
-524.30000202337521
20
-253.55000000001519
10
-523.7582595928709
20
-253.55000000001525
42
0.21821789023599455
0
LWPOLYLINE
5
496
100
AcDbEntity
8
0
100
AcDbPolyline
90
4
70
1
43
0.0
10
-560.39999932951207
20
-253.5279946386529
10
-549.19999932951225
20
-253.52799463865585
10
-549.19999932951168
20
-251.4779946386559
10
-560.3999993295115
20
-251.47799463865289
0
LWPOLYLINE
5
497
100
AcDbEntity
8
0
100
AcDbPolyline
90
4
70
1
43
0.0
10
-560.39999932946887
20
-92.527994638652942
10
-549.19999932946905
20
-92.527994638655926
10
-549.19999932946848
20
-90.477994638655943
10
-560.3999993294683
20
-90.477994638652959
0
LWPOLYLINE
5
498
100
AcDbEntity
8
0
100
AcDbPolyline
90
4
70
1
43
0.0
10
-564.7499993294964
20
-195.28799463865192
10
-564.74999932949447
20
-188.38799463865178
10
-566.79999932949454
20
-188.38799463865121
10
-566.79999932949636
20
-195.28799463865138
0
LWPOLYLINE
5
499
100
AcDbEntity
8
0
100
AcDbPolyline
90
8
70
1
43
0.0
10
-522.84174445388578
20
-276.45000000001539
10
-522.30000202338135
20
-276.45000000001551
42
0.99999999999999989
10
-522.3000020233809
20
-274.45000000001562
10
-522.84174445388521
20
-274.45000000001556
42
0.21821789023600999
10
-523.75825959287647
20
-274.45000000001534
10
-524.3000020233809
20
-274.45000000001517
42
0.99999999999999989
10
-524.30000202338135
20
-276.45000000001511
10
-523.75825959287693
20
-276.45000000001528
42
0.21821789023601218
0
LWPOLYLINE
5
500
100
AcDbEntity
8
0
100
AcDbPolyline
90
4
70
1
43
0.0
10
-645.17499932950261
20
-218.73799463863014
10
-645.17499932950443
20
-225.63799463863029
10
-643.12499932950448
20
-225.63799463863086
10
-643.12499932950254
20
-218.73799463863068
0
LWPOLYLINE
5
501
100
AcDbEntity
8
0
100
AcDbPolyline
90
4
70
1
43
0.0
10
-645.17499932945941
20
-57.737994638630504
10
-645.17499932946123
20
-64.637994638630474
10
-643.12499932946128
20
-64.637994638631028
10
-643.12499932945934
20
-57.737994638631051
0
LWPOLYLINE
5
502
100
AcDbEntity
8
0
100
AcDbPolyline
90
4
70
1
43
0.0
10
-549.19999932948701
20
-159.65299463865597
10
-560.39999932948695
20
-159.65299463865301
10
-560.3999993294874
20
-161.70299463865297
10
-549.19999932948758
20
-161.70299463865598
0
LWPOLYLINE
5
503
100
AcDbEntity
8
0
100
AcDbPolyline
90
4
70
1
43
0.0
10
-560.39999932951764
20
-274.37799463865298
10
-560.3999993295181
20
-276.42799463865293
10
-549.19999932951828
20
-276.42799463865595
10
-549.19999932951782
20
-274.37799463865593
0
LWPOLYLINE
5
504
100
AcDbEntity
8
0
100
AcDbPolyline
90
4
70
1
43
0.0
10
-560.39999932947444
20
-113.37799463865302
10
-560.39999932947489
20
-115.427994638653
10
-549.19999932947519
20
-115.42799463865599
10
-549.19999932947462
20
-113.37799463865601
0
LWPOLYLINE
5
505
100
AcDbEntity
8
0
100
AcDbPolyline
90
4
70
1
43
0.0
10
-564.749999329513
20
-257.28799463865175
10
-566.79999932951296
20
-257.28799463865124
10
-566.79999932951478
20
-264.18799463865122
10
-564.74999932951482
20
-264.18799463865179
0
LWPOLYLINE
5
506
100
AcDbEntity
8
0
100
AcDbPolyline
90
4
70
1
43
0.0
10
-564.7499993294698
20
-96.287994638651838
10
-566.79999932946987
20
-96.287994638651284
10
-566.79999932947169
20
-103.18799463865128
10
-564.74999932947162
20
-103.18799463865183
0
LWPOLYLINE
5
507
100
AcDbEntity
8
0
100
AcDbPolyline
90
4
70
1
43
0.0
10
-566.7999993295025
20
-217.9879946386512
10
-564.74999932950243
20
-217.98799463865174
10
-564.74999932950061
20
-211.08799463865171
10
-566.79999932950057
20
-211.0879946386512
0
LWPOLYLINE
5
508
100
AcDbEntity
8
0
100
AcDbPolyline
90
4
70
1
43
0.0
10
-566.7999993294593
20
-56.987994638651372
10
-564.74999932945923
20
-56.987994638651926
10
-564.74999932945741
20
-50.087994638651935
10
-566.79999932945736
20
-50.087994638651388
0
LWPOLYLINE
5
509
100
AcDbEntity
8
0
100
AcDbPolyline
90
4
70
1
43
0.0
10
-564.74999932948231
20
-142.8879946386518
10
-566.79999932948238
20
-142.88799463865126
10
-566.79999932948408
20
-149.78799463865124
10
-564.74999932948413
20
-149.78799463865181
0
LWPOLYLINE
5
510
100
AcDbEntity
8
0
100
AcDbPolyline
90
4
70
1
43
0.0
10
-564.74999932948845
20
-165.46299463865185
10
-566.7999993294884
20
-165.46299463865131
10
-566.79999932949022
20
-172.36299463865134
10
-564.74999932949015
20
-172.36299463865186
0
LWPOLYLINE
5
511
100
AcDbEntity
8
0
100
AcDbPolyline
90
4
70
1
43
0.0
10
-542.19999932949747
20
-197.70000000001039
10
-542.19999932949429
20
-185.80000000001041
10
-544.89999932949422
20
-185.80000000000973
10
-544.8999993294974
20
-197.70000000000971
0
LWPOLYLINE
5
512
100
AcDbEntity
8
0
100
AcDbPolyline
90
4
70
1
43
0.0
10
-544.89999932949127
20
-174.77500000000964
10
-542.19999932949133
20
-174.77500000001038
10
-542.19999932948804
20
-162.8750000000104
10
-544.89999932948808
20
-162.87500000000966
0
LWPOLYLINE
5
513
100
AcDbEntity
8
0
100
AcDbPolyline
90
4
70
1
43
0.0
10
-542.19999932952203
20
-289.50000000001035
10
-542.19999932951885
20
-277.60000000001037
10
-544.89999932951878
20
-277.60000000000963
10
-544.89999932952196
20
-289.50000000000961
0
LWPOLYLINE
5
514
100
AcDbEntity
8
0
100
AcDbPolyline
90
4
70
1
43
0.0
10
-542.19999932947894
20
-128.50000000001037
10
-542.19999932947576
20
-116.60000000001041
10
-544.89999932947569
20
-116.60000000000971
10
-544.89999932947876
20
-128.50000000000966
0
LWPOLYLINE
5
515
100
AcDbEntity
8
0
100
AcDbPolyline
90
8
70
1
43
0.0
10
-600.67499932950125
20
-212.99999999999471
42
-0.99999999999999989
10
-600.67499932950182
20
-214.99999999999474
10
-601.21674176000613
20
-214.99999999999457
42
-0.21821789023600996
10
-602.13325689899739
20
-214.99999999999432
10
-602.67499932950182
20
-214.99999999999417
42
-0.99999999999999989
10
-602.67499932950125
20
-212.99999999999415
10
-602.13325689899682
20
-212.99999999999432
42
-0.21821789023600996
10
-601.21674176000556
20
-212.99999999999457
0
LWPOLYLINE
5
516
100
AcDbEntity
8
0
100
AcDbPolyline
90
4
70
1
43
0.0
10
-627.57499932950168
20
-214.9779946386351
10
-627.57499932950111
20
-212.92799463863508
10
-637.07499932950088
20
-212.92799463863253
10
-637.07499932950145
20
-214.97799463863257
0
LWPOLYLINE
5
517
100
AcDbEntity
8
0
100
AcDbPolyline
90
4
70
1
43
0.0
10
-627.57499932945859
20
-53.97799463863528
10
-627.57499932945802
20
-51.927994638635298
10
-637.07499932945768
20
-51.92799463863274
10
-637.07499932945825
20
-53.977994638632737
0
LWPOLYLINE
5
518
100
AcDbEntity
8
0
100
AcDbPolyline
90
4
70
1
43
0.0
10
-643.12499932949379
20
-186.13799463863097
10
-643.12499932949197
20
-179.23799463863082
10
-645.17499932949192
20
-179.23799463863025
10
-645.17499932949374
20
-186.13799463863043
0
LWPOLYLINE
5
519
100
AcDbEntity
8
0
100
AcDbPolyline
90
8
70
1
43
0.0
10
-602.67499932950898
20
-241.99999999999426
10
-602.13325689900455
20
-241.99999999999443
42
0.21821789023597341
10
-601.21674176001341
20
-241.99999999999471
10
-600.67499932950898
20
-241.99999999999474
42
0.99999999999999989
10
-600.67499932950852
20
-239.99999999999483
10
-601.21674176001284
20
-239.9999999999946
42
0.21821789023600999
10
-602.1332568990041
20
-239.99999999999437
10
-602.67499932950852
20
-239.9999999999942
42
0.99999999999999989
0
LWPOLYLINE
5
520
100
AcDbEntity
8
0
100
AcDbPolyline
90
4
70
1
43
0.0
10
-560.39999932949956
20
-207.32799463865285
10
-549.19999932949975
20
-207.32799463865581
10
-549.19999932949929
20
-205.27799463865585
10
-560.39999932949911
20
-205.27799463865284
0
LWPOLYLINE
5
521
100
AcDbEntity
8
0
100
AcDbPolyline
90
4
70
1
43
0.0
10
-560.39999932945636
20
-46.327994638653031
10
-549.19999932945655
20
-46.327994638656023
10
-549.19999932945609
20
-44.277994638656047
10
-560.39999932945591
20
-44.277994638653055
0
LWPOLYLINE
5
522
100
AcDbEntity
8
0
100
AcDbPolyline
90
4
70
1
43
0.0
10
-542.19999932950975
20
-243.50000000001023
10
-542.19999932950657
20
-231.60000000001025
10
-544.8999993295065
20
-231.60000000000957
10
-544.89999932950968
20
-243.50000000000955
0
LWPOLYLINE
5
523
100
AcDbEntity
8
0
100
AcDbPolyline
90
4
70
1
43
0.0
10
-542.19999932946655
20
-82.500000000010573
10
-542.19999932946337
20
-70.600000000010468
10
-544.8999993294633
20
-70.600000000009629
10
-544.89999932946648
20
-82.50000000000972
0
LWPOLYLINE
5
524
100
AcDbEntity
8
0
100
AcDbPolyline
90
4
70
1
43
0.0
10
-620.57499932951976
20
-282.04999999998955
10
-620.57499932951657
20
-270.14999999998957
10
-623.2749993295165
20
-270.14999999998884
10
-623.27499932951969
20
-282.04999999998881
0
LWPOLYLINE
5
525
100
AcDbEntity
8
0
100
AcDbPolyline
90
4
70
1
43
0.0
10
-620.57499932947655
20
-121.04999999998958
10
-620.57499932947337
20
-109.14999999998962
10
-623.2749993294733
20
-109.14999999998892
10
-623.27499932947649
20
-121.04999999998887
0
LWPOLYLINE
5
526
100
AcDbEntity
8
0
100
AcDbPolyline
90
4
70
1
43
0.0
10
-645.17499932951171
20
-252.63799463863035
10
-643.12499932951164
20
-252.63799463863086
10
-643.12499932950982
20
-245.73799463863085
10
-645.17499932950977
20
-245.73799463863031
0
LWPOLYLINE
5
527
100
AcDbEntity
8
0
100
AcDbPolyline
90
4
70
1
43
0.0
10
-645.17499932946851
20
-91.637994638630374
10
-643.12499932946844
20
-91.637994638630929
10
-643.12499932946662
20
-84.737994638630937
10
-645.17499932946657
20
-84.737994638630383
0
LWPOLYLINE
5
528
100
AcDbEntity
8
0
100
AcDbPolyline
90
4
70
1
43
0.0
10
-542.199999329516
20
-266.60000000001025
10
-542.19999932951271
20
-254.70000000001028
10
-544.89999932951275
20
-254.7000000000096
10
-544.89999932951594
20
-266.60000000000957
0
LWPOLYLINE
5
529
100
AcDbEntity
8
0
100
AcDbPolyline
90
4
70
1
43
0.0
10
-542.1999993294728
20
-105.60000000001031
10
-542.19999932946951
20
-93.700000000010348
10
-544.89999932946955
20
-93.700000000009652
10
-544.89999932947273
20
-105.6000000000096
0
LWPOLYLINE
5
530
100
AcDbEntity
8
0
100
AcDbPolyline
90
4
70
1
43
0.0
10
-620.57499932950213
20
-216.14999999998952
10
-623.27499932950207
20
-216.14999999998878
10
-623.27499932950525
20
-228.04999999998876
10
-620.57499932950532
20
-228.0499999999895
0
LWPOLYLINE
5
531
100
AcDbEntity
8
0
100
AcDbPolyline
90
4
70
1
43
0.0
10
-620.57499932945893
20
-55.149999999989568
10
-623.27499932945886
20
-55.149999999988992
10
-623.27499932946205
20
-67.049999999988955
10
-620.57499932946212
20
-67.049999999989666
0
LWPOLYLINE
5
532
100
AcDbEntity
8
0
100
AcDbPolyline
90
4
70
1
43
0.0
10
-549.19999932950543
20
-228.37799463865588
10
-560.39999932950525
20
-228.37799463865286
10
-560.39999932950582
20
-230.42799463865299
10
-549.199999329506
20
-230.427994638656
0
LWPOLYLINE
5
533
100
AcDbEntity
8
0
100
AcDbPolyline
90
4
70
1
43
0.0
10
-549.19999932946223
20
-67.377994638656077
10
-560.39999932946205
20
-67.377994638653078
10
-560.39999932946262
20
-69.427994638653047
10
-549.1999993294628
20
-69.427994638656045
0
LWPOLYLINE
5
534
100
AcDbEntity
8
0
100
AcDbPolyline
90
4
70
1
43
0.0
10
-544.89999932948206
20
-140.30000000000976
10
-544.89999932948524
20
-152.20000000000971
10
-542.19999932948531
20
-152.20000000001042
10
-542.19999932948201
20
-140.30000000001047
0
LWPOLYLINE
5
535
100
AcDbEntity
8
0
100
AcDbPolyline
90
4
70
1
43
0.0
10
-566.79999932950864
20
-241.08799463865122
10
-564.74999932950868
20
-241.08799463865176
10
-564.74999932950686
20
-234.18799463865173
10
-566.79999932950682
20
-234.18799463865122
0
LWPOLYLINE
5
536
100
AcDbEntity
8
0
100
AcDbPolyline
90
4
70
1
43
0.0
10
-566.79999932946544
20
-80.087994638651395
10
-564.74999932946548
20
-80.087994638651949
10
-564.74999932946366
20
-73.187994638651958
10
-566.79999932946362
20
-73.187994638651418
0
LWPOLYLINE
5
537
100
AcDbEntity
8
0
100
AcDbPolyline
90
8
70
1
43
0.0
10
-601.21674176002068
20
-268.9999999999946
10
-600.67499932951625
20
-268.99999999999471
42
0.99999999999999989
10
-600.6749993295158
20
-266.99999999999483
10
-601.21674176002011
20
-266.99999999999466
42
0.21821789023600999
10
-602.13325689901137
20
-266.99999999999443
10
-602.67499932951569
20
-266.99999999999426
42
0.99999999999999989
10
-602.67499932951625
20
-268.99999999999415
10
-602.13325689901183
20
-268.99999999999432
42
0.21821789023599808
0
LWPOLYLINE
5
538
100
AcDbEntity
8
0
100
AcDbPolyline
90
4
70
1
43
0.0
10
-544.89999932950343
20
-220.40000000000953
10
-542.1999993295035
20
-220.40000000001021
10
-542.19999932950043
20
-208.50000000001023
10
-544.89999932950036
20
-208.50000000000955
0
LWPOLYLINE
5
539
100
AcDbEntity
8
0
100
AcDbPolyline
90
4
70
1
43
0.0
10
-544.89999932946034
20
-59.400000000009705
10
-542.19999932946041
20
-59.400000000010422
10
-542.19999932945723
20
-47.500000000010452
10
-544.89999932945716
20
-47.500000000009749
0
LWPOLYLINE
5
540
100
AcDbEntity
8
0
100
AcDbPolyline
90
4
70
1
43
0.0
10
-627.57499932950839
20
-239.92799463863514
10
-638.77499932950832
20
-239.92799463863213
10
-638.77499932950877
20
-241.97799463863214
10
-627.57499932950896
20
-241.9779946386351
0
LWPOLYLINE
5
541
100
AcDbEntity
8
0
100
AcDbPolyline
90
4
70
1
43
0.0
10
-627.57499932946519
20
-78.92799463863534
10
-638.77499932946512
20
-78.927994638632342
10
-638.77499932946557
20
-80.977994638632325
10
-627.57499932946575
20
-80.977994638635309
0
LWPOLYLINE
5
542
100
AcDbEntity
8
0
100
AcDbPolyline
90
4
70
1
43
0.0
10
-645.17499932948635
20
-158.6379946386304
10
-643.1249993294864
20
-158.63799463863097
10
-643.12499932948458
20
-151.73799463863082
10
-645.17499932948454
20
-151.73799463863025
0
LWPOLYLINE
5
543
100
AcDbEntity
8
0
100
AcDbPolyline
90
4
70
1
43
0.0
10
-627.57499932949111
20
-175.47799463863521
10
-627.57499932949054
20
-173.4279946386352
10
-638.77499932949036
20
-173.42799463863224
10
-638.77499932949092
20
-175.4779946386322
0
LWPOLYLINE
5
544
100
AcDbEntity
8
0
100
AcDbPolyline
90
4
70
1
43
0.0
10
-627.57499932948326
20
-145.9279946386352
10
-638.77499932948308
20
-145.92799463863224
10
-638.77499932948353
20
-147.9779946386322
10
-627.57499932948372
20
-147.97799463863521
0
LWPOLYLINE
5
545
100
AcDbEntity
8
0
100
AcDbPolyline
90
4
70
1
43
0.0
10
-627.57499932951566
20
-266.92799463863514
10
-638.77499932951548
20
-266.92799463863219
10
-638.77499932951605
20
-268.97799463863214
10
-627.57499932951623
20
-268.97799463863515
0
LWPOLYLINE
5
546
100
AcDbEntity
8
0
100
AcDbPolyline
90
4
70
1
43
0.0
10
-627.57499932947246
20
-105.92799463863521
10
-638.77499932947228
20
-105.92799463863223
10
-638.77499932947285
20
-107.97799463863221
10
-627.57499932947303
20
-107.9779946386352
0
LWPOLYLINE
5
547
100
AcDbEntity
8
0
100
AcDbPolyline
90
4
70
1
43
0.0
10
-620.5749993295093
20
-243.14999999998952
10
-623.27499932950923
20
-243.14999999998884
10
-623.27499932951253
20
-255.04999999998881
10
-620.57499932951248
20
-255.0499999999895
0
LWPOLYLINE
5
548
100
AcDbEntity
8
0
100
AcDbPolyline
90
4
70
1
43
0.0
10
-620.5749993294661
20
-82.149999999989603
10
-623.27499932946603
20
-82.149999999988879
10
-623.27499932946932
20
-94.049999999988842
10
-620.57499932946928
20
-94.049999999989552
0
CIRCLE
5
549
100
AcDbEntity
8
0
100
AcDbCircle
10
-609.54999665897037
20
-291.99999999999244
30
0
40
1.6249999999999944
210
0
220
-0
230
1
0
CIRCLE
5
550
100
AcDbEntity
8
0
100
AcDbCircle
10
-569.54999932952273
20
-292.00000000000307
30
0
40
1.6249999999999944
210
0
220
-0
230
1
0
LWPOLYLINE
5
551
100
AcDbEntity
8
0
100
AcDbPolyline
90
4
70
1
43
0.0
10
-504.30000200003172
20
-129.25000000002038
10
-519.80000200003155
20
-129.25000000001626
10
-519.80000200003258
20
-132.75000000001631
10
-504.30000200003263
20
-132.75000000002046
0
CIRCLE
5
552
100
AcDbEntity
8
0
100
AcDbCircle
10
-609.54999665892717
20
-130.99999999999233
30
0
40
1.6249999999999944
210
0
220
-0
230
1
0
LWPOLYLINE
5
553
100
AcDbEntity
8
0
100
AcDbPolyline
90
4
70
1
43
0.0
10
-554.8499986589452
20
-198.54452563736993
10
-554.84999865894611
20
-202.04452563736999
10
-539.34999865894622
20
-202.04452563737414
10
-539.34999865894531
20
-198.54452563737408
0
LWPOLYLINE
5
554
100
AcDbEntity
8
0
100
AcDbPolyline
90
4
70
1
43
0.0
10
-504.34999865894554
20
-198.54452563738346
10
-519.84999865894542
20
-198.54452563737931
10
-519.84999865894645
20
-202.04452563737934
10
-504.34999865894645
20
-202.04452563738352
0
LWPOLYLINE
5
555
100
AcDbEntity
8
0
100
AcDbPolyline
90
4
70
1
43
0.0
10
-619.29999665892763
20
-132.74999999998977
10
-619.2999966589266
20
-129.24999999998965
10
-634.7999966589266
20
-129.24999999998556
10
-634.79999665892751
20
-132.74999999998562
0
LWPOLYLINE
5
556
100
AcDbEntity
8
0
100
AcDbPolyline
90
4
70
1
43
0.0
10
-539.30000200003155
20
-129.25000000001114
10
-554.80000200003144
20
-129.25000000000699
10
-554.80000200003235
20
-132.75000000000693
10
-539.30000200003246
20
-132.75000000001108
0
LWPOLYLINE
5
557
100
AcDbEntity
8
0
100
AcDbPolyline
90
4
70
1
43
0.0
10
-599.79999665892683
20
-129.24999999999505
10
-599.79999665892774
20
-132.74999999999517
10
-584.29999665892774
20
-132.74999999999926
10
-584.29999665892683
20
-129.2499999999992
0
LWPOLYLINE
5
558
100
AcDbEntity
8
0
100
AcDbPolyline
90
4
70
1
43
0.0
10
-599.84999865894497
20
-198.54452563735799
10
-599.84999865894588
20
-202.04452563735805
10
-584.34999865894599
20
-202.0445256373622
10
-584.34999865894508
20
-198.54452563736214
0
CIRCLE
5
559
100
AcDbEntity
8
0
100
AcDbCircle
10
-497.09999932949842
20
-200.29452563738539
30
0
40
1.5499999999999983
210
6.1629758220325718e-33
220
-2.4651903288158277e-32
230
1
0
LWPOLYLINE
5
560
100
AcDbEntity
8
0
100
AcDbPolyline
90
4
70
1
43
0.0
10
-619.34999865894576
20
-202.04452563735282
10
-619.34999865894486
20
-198.54452563735271
10
-634.84999865894474
20
-198.54452563734861
10
-634.84999865894565
20
-202.04452563734864
0
CIRCLE
5
561
100
AcDbEntity
8
0
100
AcDbCircle
10
-569.54999932947953
20
-131.00000000000313
30
0
40
1.6249999999999944
210
0
220
-0
230
1
0
LWPOLYLINE
5
562
100
AcDbEntity
8
0
100
AcDbPolyline
90
4
70
1
43
0.0
10
-634.84999865890154
20
-37.544525637349089
10
-634.84999865890245
20
-41.044525637349167
10
-619.34999865890256
20
-41.044525637353289
10
-619.34999865890165
20
-37.544525637353217
0
CIRCLE
5
563
100
AcDbEntity
8
0
100
AcDbCircle
10
-497.09999932945493
20
-39.294525637385718
30
0
40
1.5500000000000094
210
-6.1629758220391547e-33
220
1.6531584284862158e-45
230
1
0
LWPOLYLINE
5
564
100
AcDbEntity
8
0
100
AcDbPolyline
90
4
70
1
43
0.0
10
-599.84999865890177
20
-37.544525637358468
10
-599.84999865890268
20
-41.044525637358547
10
-584.34999865890279
20
-41.044525637362668
10
-584.34999865890188
20
-37.544525637362597
0
LWPOLYLINE
5
565
100
AcDbEntity
8
0
100
AcDbPolyline
90
4
70
1
43
0.0
10
-519.84999865890313
20
-41.044525637379706
10
-504.34999865890325
20
-41.044525637383842
10
-504.34999865890234
20
-37.544525637383771
10
-519.84999865890222
20
-37.544525637379643
0
LWPOLYLINE
5
566
100
AcDbEntity
8
0
100
AcDbPolyline
90
4
70
1
43
0.0
10
-554.849998658902
20
-37.544525637370405
10
-554.8499986589029
20
-41.044525637370484
10
-539.34999865890302
20
-41.044525637374605
10
-539.34999865890211
20
-37.544525637374534
0
CIRCLE
5
567
100
AcDbEntity
8
0
100
AcDbCircle
10
-625.27499932948081
20
-136.74999999998823
30
0
40
1.1250000000000056
210
-6.1629758220325718e-33
220
2.4651903288158277e-32
230
1
0
CIRCLE
5
568
100
AcDbEntity
8
0
100
AcDbCircle
10
-546.89999932951741
20
-272.10000000000895
30
0
40
1.1250000000000056
210
-6.1629758220325718e-33
220
2.4651903288158277e-32
230
1
0
CIRCLE
5
569
100
AcDbEntity
8
0
100
AcDbCircle
10
-625.27499932951446
20
-262.59999999998831
30
0
40
1.1250000000000056
210
-6.1629758220325718e-33
220
2.4651903288158277e-32
230
1
0
CIRCLE
5
570
100
AcDbEntity
8
0
100
AcDbCircle
10
-546.89999932949274
20
-180.28750000000917
30
0
40
1.1250000000000056
210
-6.1629758220325718e-33
220
2.4651903288158277e-32
230
1
0
CIRCLE
5
571
100
AcDbEntity
8
0
100
AcDbCircle
10
-546.89999932947421
20
-111.10000000000902
30
0
40
1.12499999999997
210
6.5845803755478078e-45
220
2.4651903288156624e-32
230
1
0
CIRCLE
5
572
100
AcDbEntity
8
0
100
AcDbCircle
10
-625.27499932947762
20
-125.14999999998814
30
0
40
1.12499999999997
210
6.5845803755478078e-45
220
2.4651903288156624e-32
230
1
0
CIRCLE
5
573
100
AcDbEntity
8
0
100
AcDbCircle
10
-546.8999993294475
20
-11.500000000009081
30
0
40
1.12499999999997
210
6.5845803755478078e-45
220
2.4651903288156624e-32
230
1
0
CIRCLE
5
574
100
AcDbEntity
8
0
100
AcDbCircle
10
-625.27499932944716
20
-11.499999999988191
30
0
40
1.12499999999997
210
6.5845803755478078e-45
220
2.4651903288156624e-32
230
1
0
LWPOLYLINE
5
575
100
AcDbEntity
8
0
100
AcDbPolyline
90
48
70
1
43
0.0
10
-642.69999932952271
20
-293.74999999998346
10
-649.54999932952262
20
-293.74999999998158
10
-649.54999932944543
20
-6.4999999999816263
10
-634.54999665889363
20
-6.4999999999856284
10
-634.5499966588925
20
-2.4999999999856906
10
-619.54999665889272
20
-2.499999999989702
10
-619.54999665889375
20
-6.4999999999896696
10
-599.54999665889386
20
-6.4999999999950075
10
-599.54999665889272
20
-2.4999999999949276
10
-584.54999665889284
20
-2.4999999999989391
10
-584.54999665889386
20
-6.4999999999990781
10
-554.55000202944609
20
-6.5000000000070868
10
-554.55000202944507
20
-2.5000000000070068
10
-539.55000202944507
20
-2.5000000000110183
10
-539.5500020294462
20
-6.500000000011128
10
-519.55000202944632
20
-6.5000000000164659
10
-519.5500020294453
20
-2.500000000016386
10
-504.5500020294453
20
-2.5000000000203975
10
-504.55000202944638
20
-6.5000000000204219
10
-489.54999932944651
20
-6.5000000000244995
10
-489.54999932952353
20
-293.75000000002439
10
-496.3999993295235
20
-293.75000000002251
10
-496.3999993295256
20
-301.8500000000227
42
-0.99999999999999989
10
-504.19999932952567
20
-301.85000000002043
10
-504.19999932952345
20
-293.75000000002041
10
-504.30000200007584
20
-293.75000000002041
10
-504.30000200007493
20
-290.25000000002035
10
-519.80000200007476
20
-290.2500000000162
10
-519.80000200007578
20
-293.75000000001626
10
-539.30000200007566
20
-293.75000000001103
10
-539.30000200007476
20
-290.25000000001108
10
-554.80000200007464
20
-290.25000000000693
10
-554.80000200007555
20
-293.75000000000693
10
-576.39999932952298
20
-293.75000000000119
10
-576.39999932952514
20
-301.8500000000011
42
-0.99999999999999989
10
-584.1999993295251
20
-301.84999999999911
10
-584.19999932952305
20
-293.74999999999909
10
-584.29999665897094
20
-293.7499999999992
10
-584.29999665897003
20
-290.24999999999915
10
-599.79999665897003
20
-290.249999999995
10
-599.79999665897083
20
-293.74999999999505
10
-619.29999665897083
20
-293.74999999998971
10
-619.2999966589698
20
-290.24999999998965
10
-634.7999966589698
20
-290.2499999999855
10
-634.79999665897071
20
-293.74999999998562
10
-634.89999932952264
20
-293.74999999998556
10
-634.89999932952503
20
-301.84999999998547
42
-0.99999999999999989
10
-642.69999932952476
20
-301.84999999998348
0
LWPOLYLINE
5
576
100
AcDbEntity
8
0
100
AcDbPolyline
90
10
70
1
43
0.0
10
-97.244635400496918
20
-376.9184623042936
42
-0.68147226111018933
10
-100.64866297131239
20
-368.25614114129746
10
-59.05269054212831
20
-329.59381997882042
42
-0.39296944860010857
10
-45.436580258865511
20
-329.59381997882031
10
-3.8406078296813377
20
-368.25614114129758
42
-0.68147226109525316
10
-7.2446354004968772
20
-376.91846230377462
10
-50.694635400496892
20
-376.91846230377462
10
-50.694635400496885
20
-361.91846230377456
10
-53.794635400496887
20
-361.91846230377456
10
-53.79463540049688
20
-376.91846230377462
0
LWPOLYLINE
5
577
100
AcDbEntity
8
0
100
AcDbPolyline
90
5
70
1
43
0.0
10
-125.87778498240186
20
-377.77736102858313
10
-159.84103433197708
20
-341.23702043151212
42
-0.15069888453373784
10
-154.20870189767172
20
-339.50000000001296
10
-97.419618439669847
20
-339.50000000000875
42
-0.68147226109527304
10
-94.01559086885355
20
-348.16232116248563
0
LWPOLYLINE
5
578
100
AcDbEntity
8
0
100
AcDbPolyline
90
10
70
1
43
0.0
10
-238.89449268551323
20
-376.9184623042936
42
-0.68147226111018855
10
-242.29852025632874
20
-368.25614114129746
10
-200.70254782714471
20
-329.59381997882042
42
-0.39296944860010824
10
-187.08643754388194
20
-329.59381997882031
10
-145.49046511469786
20
-368.25614114129758
42
-0.68147226109525383
10
-148.89449268551343
20
-376.91846230377462
10
-192.3444926855133
20
-376.91846230377462
10
-192.34449268551333
20
-361.91846230377456
10
-195.4444926855133
20
-361.91846230377456
10
-195.4444926855133
20
-376.91846230377462
0
LWPOLYLINE
5
579
100
AcDbEntity
8
0
100
AcDbPolyline
90
5
70
1
43
0.0
10
-265.13172977435659
20
-376.77291407148965
10
-299.09497912393147
20
-340.23257347441876
42
-0.15069888453372104
10
-293.46264668962624
20
-338.4955530429196
10
-236.67356323162471
20
-338.49555304291539
42
-0.68147226109527625
10
-233.26953566080846
20
-347.1578742053922
0
LWPOLYLINE
5
580
100
AcDbEntity
8
0
100
AcDbPolyline
90
10
70
1
43
0.0
10
-377.0438664340225
20
-376.91846230429371
42
-0.681472261110184
10
-380.44789400483802
20
-368.25614114129746
10
-338.85192157565405
20
-329.59381997882048
42
-0.39296944860010891
10
-325.23581129239125
20
-329.59381997882031
10
-283.63983886320716
20
-368.25614114129758
42
-0.68147226109525205
10
-287.04386643402268
20
-376.91846230377462
10
-330.49386643402261
20
-376.91846230377462
10
-330.49386643402261
20
-361.91846230377456
10
-333.59386643402263
20
-361.91846230377456
10
-333.59386643402252
20
-376.91846230377462
0
LWPOLYLINE
5
581
100
AcDbEntity
8
0
100
AcDbPolyline
90
10
70
1
43
0.0
10
-338.58923364515579
20
-313.91846230327042
42
-0.68147226111019288
10
-335.18520607434095
20
-322.58078346626689
10
-376.7811785035276
20
-361.24310462874098
42
-0.39296944860010746
10
-390.39728878679034
20
-361.24310462874013
10
-431.99326121597153
20
-322.58078346625979
42
-0.68147226109526371
10
-428.58923364515533
20
-313.91846230378286
10
-385.13923364515563
20
-313.91846230378599
10
-385.13923364515671
20
-328.91846230378621
10
-382.03923364515668
20
-328.91846230378633
10
-382.0392336451556
20
-313.91846230378621
0
LWPOLYLINE
5
582
100
AcDbEntity
8
0
100
AcDbPolyline
90
10
70
1
43
0.0
10
-480.47874922322512
20
-376.91846230430235
42
-0.68147226111018322
10
-483.88277679404166
20
-368.25614114130673
10
-442.28680436486252
20
-329.5938199788244
42
-0.39296944860010735
10
-428.67069408159989
20
-329.59381997882258
10
-387.0747216524108
20
-368.25614114129422
42
-0.68147226109525383
10
-390.47874922322524
20
-376.91846230377172
10
-433.92874922322511
20
-376.91846230377735
10
-433.92874922322704
20
-361.91846230377735
10
-437.02874922322701
20
-361.9184623037778
10
-437.02874922322513
20
-376.9184623037778
0
LWPOLYLINE
5
583
100
AcDbEntity
8
0
100
AcDbPolyline
90
10
70
1
43
0.0
10
-442.32525127108966
20
-313.91846230326303
42
-0.68147226111018744
10
-438.92122370027471
20
-322.58078346625939
10
-480.51719612946135
20
-361.24310462873348
42
-0.39296944860010746
10
-494.1333064127241
20
-361.24310462873262
10
-535.72927884190528
20
-322.58078346625246
42
-0.6814722610952515
10
-532.3252512710892
20
-313.91846230377558
10
-488.87525127108938
20
-313.91846230377871
10
-488.87525127109041
20
-328.91846230377871
10
-485.7752512710905
20
-328.91846230377894
10
-485.77525127108942
20
-313.91846230377894
0
LWPOLYLINE
5
584
100
AcDbEntity
8
0
100
AcDbPolyline
90
10
70
1
43
0.0
10
-584.04386643402211
20
-376.91846230429371
42
-0.681472261110184
10
-587.44789400483762
20
-368.25614114129746
10
-545.85192157565371
20
-329.59381997882048
42
-0.39296944860010891
10
-532.23581129239085
20
-329.59381997882031
10
-490.63983886320676
20
-368.25614114129758
42
-0.68147226109524761
10
-494.04386643402228
20
-376.91846230377462
10
-537.49386643402215
20
-376.91846230377462
10
-537.49386643402215
20
-361.91846230377456
10
-540.59386643402217
20
-361.91846230377456
10
-540.59386643402217
20
-376.91846230377462
0
LWPOLYLINE
5
585
100
AcDbEntity
8
0
100
AcDbPolyline
90
5
70
1
43
0.0
10
-595.93080258184773
20
-374.53300031637838
10
-629.89405193142591
20
-337.99265971931459
42
-0.15069888453375088
10
-624.26171949712125
20
-336.25563928781474
10
-567.47263603912279
20
-336.25563928780264
42
-0.68147226109527359
10
-564.06860846830546
20
-344.91796045027849
0
LWPOLYLINE
5
586
100
AcDbEntity
8
0
100
AcDbPolyline
90
5
70
1
43
0.0
10
-592.03018903931161
20
-296.96050684595485
10
-558.06693968973241
20
-333.50084744302114
42
-0.15069888453371275
10
-563.69927212403741
20
-335.23786787452093
10
-620.48835558203814
20
-335.23786787453264
42
-0.68147226109529146
10
-623.89238315285547
20
-326.57554671205617
0
LWPOLYLINE
5
587
100
AcDbEntity
8
0
100
AcDbPolyline
90
5
70
1
43
0.0
10
-630.80593611927361
20
-338.64110127520399
10
-596.84268676969612
20
-375.18144187226903
42
-0.1506988845337183
10
-602.475019204001
20
-376.91846230376876
10
-659.26410266199969
20
-376.91846230377956
42
-0.68147226109526682
10
-662.66813023281679
20
-368.2561411413036
0
LWPOLYLINE
5
588
100
AcDbEntity
8
0
100
AcDbPolyline
90
5
70
1
43
0.0
10
-670.77850428507531
20
-374.53300031640458
10
-704.74175363465497
20
-337.9926597193396
42
-0.15069888453373079
10
-699.10942120034997
20
-336.2556392878397
10
-642.32033774234992
20
-336.25563928782708
42
-0.6814722610952697
10
-638.91631017153247
20
-344.9179604503031
0
LWPOLYLINE
5
589
100
AcDbEntity
8
0
100
AcDbPolyline
90
5
70
1
43
0.0
10
-660.60026203040832
20
-296.76521804411828
10
-626.63701268082968
20
-333.30555864118429
42
-0.15069888453372443
10
-632.26934511513468
20
-335.04257907268419
10
-689.05842857313451
20
-335.04257907269539
42
-0.68147226109530223
10
-692.46245614395184
20
-326.38025791021931
0
LWPOLYLINE
5
590
100
AcDbEntity
8
0
100
AcDbPolyline
90
5
70
1
43
0.0
10
-705.65363782250313
20
-338.64110127521678
10
-671.69038847292427
20
-375.18144187228324
42
-0.15069888453371377
10
-677.32272090722927
20
-376.91846230378303
10
-734.11180436522977
20
-376.91846230379434
42
-0.68147226109526715
10
-737.51583193604688
20
-368.25614114131804
0
LWPOLYLINE
5
591
100
AcDbEntity
8
0
100
AcDbPolyline
90
5
70
1
43
0.0
10
-725.11541325539019
20
-356.23766161972071
10
-759.07866260496928
20
-319.69732102265414
42
-0.15069888453373545
10
-753.44633017066417
20
-317.96030059115418
10
-696.65724671266298
20
-317.96030059114292
42
-0.68147226109527059
10
-693.25321914184599
20
-326.6226217536194
0
LWPOLYLINE
5
592
100
AcDbEntity
8
0
100
AcDbPolyline
90
5
70
1
43
0.0
10
-719.20206268399602
20
-277.20654444928294
10
-685.23881333441727
20
-313.74688504634878
42
-0.15069888453371638
10
-690.87114576872227
20
-315.48390547784868
10
-747.66022922672175
20
-315.4839054778605
42
-0.68147226109528203
10
-751.0642567975392
20
-306.82158431538403
0
LWPOLYLINE
5
593
100
AcDbEntity
8
0
100
AcDbPolyline
90
5
70
1
43
0.0
10
-684.17238201071075
20
-313.19109276390378
10
-718.13563136028608
20
-276.65075216683238
42
-0.15069888453373761
10
-712.50329892598063
20
-274.91373173533316
10
-655.71421546797887
20
-274.91373173532901
42
-0.68147226109527415
10
-652.31018789716256
20
-283.57605289780588
0
LWPOLYLINE
5
594
100
AcDbEntity
8
0
100
AcDbPolyline
90
5
70
1
43
0.0
10
-718.29859456887846
20
-272.57201699434631
10
-684.33534521930926
20
-236.03167639726931
10
-652.47315110575596
20
-265.64671626336161
42
-0.68147226109528514
10
-655.87717867657136
20
-274.30903742584002
10
-712.66626213457255
20
-274.30903742584445
42
-0.15069888453374625
0
LWPOLYLINE
5
595
100
AcDbEntity
8
0
100
AcDbPolyline
90
5
70
1
43
0.0
10
-720.48912870011588
20
-277.11312483947921
10
-757.02946929718962
20
-311.07637418905119
42
-0.15069888453375463
10
-758.76648972868804
20
-305.44404175474574
10
-758.76648972868782
20
-248.65495829674467
42
-0.68147226109528336
10
-750.10416856621077
20
-245.25093072592909
0
LWPOLYLINE
5
596
100
AcDbEntity
8
0
100
AcDbPolyline
90
5
70
1
43
0.0
10
-685.40177654301692
20
-235.47588411482445
10
-719.36502589258953
20
-272.0162247118958
10
-751.22722000613794
20
-242.40118484580037
42
-0.68147226109528147
10
-747.82319243532174
20
-233.73886368332262
10
-691.0341089773226
20
-233.73886368332558
42
-0.15069888453374897
0
ENDSEC
0
SECTION
2
OBJECTS
0
DICTIONARY
5
C
100
AcDbDictionary
3
ACAD_GROUP
350
D
3
ACAD_MLINESTYLE
350
17
0
DICTIONARY
5
D
100
AcDbDictionary
0
DICTIONARY
5
1A
330
C
100
AcDbDictionary
0
DICTIONARY
5
17
100
AcDbDictionary
0
ENDSEC
0
EOF
