0
SECTION
2
HEADER
9
$INSUNITS
70
4
9
$ACADVER
1
AC1014
9
$HANDSEED
5
FFFF
0
ENDSEC
0
SECTION
2
TABLES
0
TABLE
2
VPORT
5
8
100
AcDbSymbolTable
0
ENDTAB
0
TABLE
2
LTYPE
5
5
100
AcDbSymbolTable
0
LTYPE
5
14
100
AcDbSymbolTableRecord
100
AcDbLinetypeTableRecord
2
BYBLOCK
70
0
0
LTYPE
5
15
100
AcDbSymbolTableRecord
100
AcDbLinetypeTableRecord
2
BYLAYER
70
0
0
ENDTAB
0
TABLE
2
LAYER
5
2
100
AcDbSymbolTable
70
2
0
LAYER
5
50
100
AcDbSymbolTableRecord
100
AcDbLayerTableRecord
2
0
70
0
6
CONTINUOUS
0
ENDTAB
0
TABLE
2
STYLE
5
3
100
AcDbSymbolTable
70
1
0
STYLE
5
11
100
AcDbSymbolTableRecord
100
AcDbTextStyleTableRecord
2
STANDARD
70
0
0
ENDTAB
0
TABLE
2
VIEW
5
6
100
AcDbSymbolTable
70
0
0
ENDTAB
0
TABLE
2
UCS
5
7
100
AcDbSymbolTable
70
0
0
ENDTAB
0
TABLE
2
APPID
5
9
100
AcDbSymbolTable
70
2
0
APPID
5
12
100
AcDbSymbolTableRecord
100
AcDbRegAppTableRecord
2
ACAD
70
0
0
ENDTAB
0
TABLE
2
DIMSTYLE
5
A
100
AcDbSymbolTable
70
1
0
ENDTAB
0
TABLE
2
BLOCK_RECORD
5
1
100
AcDbSymbolTable
70
1
0
BLOCK_RECORD
5
1F
100
AcDbSymbolTableRecord
100
AcDbBlockTableRecord
2
*MODEL_SPACE
0
BLOCK_RECORD
5
1B
100
AcDbSymbolTableRecord
100
AcDbBlockTableRecord
2
*PAPER_SPACE
0
ENDTAB
0
ENDSEC
0
SECTION
2
BLOCKS
0
BLOCK
5
20
100
AcDbEntity
100
AcDbBlockBegin
2
*MODEL_SPACE
0
ENDBLK
5
21
100
AcDbEntity
100
AcDbBlockEnd
0
BLOCK
5
1C
100
AcDbEntity
100
AcDbBlockBegin
2
*PAPER_SPACE
0
ENDBLK
5
1D
100
AcDbEntity
100
AcDbBlockEnd
0
ENDSEC
0
SECTION
2
ENTITIES
0
CIRCLE
5
100
100
AcDbEntity
8
0
100
AcDbCircle
10
0
20
0
30
0
40
2.5
210
0
220
0
230
1
0
LWPOLYLINE
5
101
100
AcDbEntity
8
0
100
AcDbPolyline
90
2
70
1
43
0.0
10
-32.863636363636367
20
2.9968992239776249
42
-0.95553308590590857
10
-32.863636363636374
20
-2.9968992239776249
42
21.977260975835954
0
LWPOLYLINE
5
102
100
AcDbEntity
8
0
100
AcDbPolyline
90
2
70
1
43
0.0
10
0.1363636363637101
20
60.4968992239776
42
-21.977260975835954
10
0.13636363636370999
20
54.503100776022386
42
0.95553308590590857
0
CIRCLE
5
103
100
AcDbEntity
8
0
100
AcDbCircle
10
33
20
57.5
30
0
40
2.5
210
0
220
0
230
1
0
LWPOLYLINE
5
104
100
AcDbEntity
8
0
100
AcDbPolyline
90
2
70
1
43
0.0
10
34.136363636363626
20
2.9968992239776009
42
-21.977260975835954
10
34.136363636363633
20
-2.9968992239776249
42
0.95553308590590857
0
CIRCLE
5
105
100
AcDbEntity
8
0
100
AcDbCircle
10
67
20
0
30
0
40
2.5
210
0
220
0
230
1
0
LWPOLYLINE
5
106
100
AcDbEntity
8
0
100
AcDbPolyline
90
2
70
1
43
0.0
10
67.136363636363711
20
60.4968992239776
42
-21.977260975835954
10
67.136363636363711
20
54.503100776022386
42
0.95553308590590857
0
CIRCLE
5
107
100
AcDbEntity
8
0
100
AcDbCircle
10
100
20
57.5
30
0
40
2.5
210
0
220
0
230
1
0
LWPOLYLINE
5
108
100
AcDbEntity
8
0
100
AcDbPolyline
90
2
70
1
43
0.0
10
101.13636363636361
20
2.9968992239776009
42
-21.977260975835954
10
101.13636363636363
20
-2.9968992239776249
42
0.95553308590590857
0
CIRCLE
5
109
100
AcDbEntity
8
0
100
AcDbCircle
10
134
20
0
30
0
40
2.5
210
0
220
0
230
1
0
LWPOLYLINE
5
110
100
AcDbEntity
8
0
100
AcDbPolyline
90
2
70
1
43
0.0
10
134.13636363636371
20
60.496899223977572
42
-21.97726097583606
10
134.13636363636371
20
54.503100776022386
42
0.95553308590590857
0
CIRCLE
5
111
100
AcDbEntity
8
0
100
AcDbCircle
10
167
20
57.5
30
0
40
2.5
210
0
220
0
230
1
0
LWPOLYLINE
5
112
100
AcDbEntity
8
0
100
AcDbPolyline
90
2
70
1
43
0.0
10
-32.863636363636374
20
118.99689922397762
42
-21.977260975835954
10
-32.863636363636374
20
113.00310077602239
42
0.95553308590590991
0
CIRCLE
5
113
100
AcDbEntity
8
0
100
AcDbCircle
10
0
20
116.00000000000001
30
0
40
2.5
210
0
220
0
230
1
0
LWPOLYLINE
5
114
100
AcDbEntity
8
0
100
AcDbPolyline
90
2
70
1
43
0.0
10
0.13636363636370982
20
176.49689922397758
42
-21.97726097583606
10
0.13636363636370999
20
170.50310077602239
42
0.95553308590590802
0
CIRCLE
5
115
100
AcDbEntity
8
0
100
AcDbCircle
10
33
20
173.5
30
0
40
2.5
210
0
220
0
230
1
0
LWPOLYLINE
5
116
100
AcDbEntity
8
0
100
AcDbPolyline
90
2
70
1
43
0.0
10
34.136363636363626
20
118.99689922397762
42
-21.977260975835954
10
34.136363636363633
20
113.00310077602239
42
0.95553308590590991
0
CIRCLE
5
117
100
AcDbEntity
8
0
100
AcDbCircle
10
67
20
116.00000000000001
30
0
40
2.5
210
0
220
0
230
1
0
LWPOLYLINE
5
118
100
AcDbEntity
8
0
100
AcDbPolyline
90
2
70
1
43
0.0
10
67.136363636363711
20
176.49689922397758
42
-21.97726097583606
10
67.136363636363711
20
170.50310077602239
42
0.95553308590590802
0
CIRCLE
5
119
100
AcDbEntity
8
0
100
AcDbCircle
10
100
20
173.5
30
0
40
2.5
210
0
220
0
230
1
0
LWPOLYLINE
5
120
100
AcDbEntity
8
0
100
AcDbPolyline
90
2
70
1
43
0.0
10
101.13636363636361
20
118.99689922397762
42
-21.977260975835954
10
101.13636363636363
20
113.00310077602239
42
0.95553308590590991
0
CIRCLE
5
121
100
AcDbEntity
8
0
100
AcDbCircle
10
134
20
116.00000000000001
30
0
40
2.5
210
0
220
0
230
1
0
LWPOLYLINE
5
122
100
AcDbEntity
8
0
100
AcDbPolyline
90
2
70
1
43
0.0
10
134.13636363636371
20
176.49689922397755
42
-21.977260975836167
10
134.13636363636371
20
170.50310077602239
42
0.95553308590590802
0
CIRCLE
5
123
100
AcDbEntity
8
0
100
AcDbCircle
10
167
20
173.5
30
0
40
2.5
210
0
220
0
230
1
0
ENDSEC
0
SECTION
2
OBJECTS
0
DICTIONARY
5
C
100
AcDbDictionary
3
ACAD_GROUP
350
D
3
ACAD_MLINESTYLE
350
17
0
DICTIONARY
5
D
100
AcDbDictionary
0
DICTIONARY
5
1A
330
C
100
AcDbDictionary
0
DICTIONARY
5
17
100
AcDbDictionary
0
ENDSEC
0
EOF
