0
SECTION
2
HEADER
9
$INSUNITS
70
4
9
$ACADVER
1
AC1014
9
$HANDSEED
5
FFFF
0
ENDSEC
0
SECTION
2
TABLES
0
TABLE
2
VPORT
5
8
100
AcDbSymbolTable
0
ENDTAB
0
TABLE
2
LTYPE
5
5
100
AcDbSymbolTable
0
LTYPE
5
14
100
AcDbSymbolTableRecord
100
AcDbLinetypeTableRecord
2
BYBLOCK
70
0
0
LTYPE
5
15
100
AcDbSymbolTableRecord
100
AcDbLinetypeTableRecord
2
BYLAYER
70
0
0
ENDTAB
0
TABLE
2
LAYER
5
2
100
AcDbSymbolTable
70
2
0
LAYER
5
50
100
AcDbSymbolTableRecord
100
AcDbLayerTableRecord
2
0
70
0
6
CONTINUOUS
0
ENDTAB
0
TABLE
2
STYLE
5
3
100
AcDbSymbolTable
70
1
0
STYLE
5
11
100
AcDbSymbolTableRecord
100
AcDbTextStyleTableRecord
2
STANDARD
70
0
0
ENDTAB
0
TABLE
2
VIEW
5
6
100
AcDbSymbolTable
70
0
0
ENDTAB
0
TABLE
2
UCS
5
7
100
AcDbSymbolTable
70
0
0
ENDTAB
0
TABLE
2
APPID
5
9
100
AcDbSymbolTable
70
2
0
APPID
5
12
100
AcDbSymbolTableRecord
100
AcDbRegAppTableRecord
2
ACAD
70
0
0
ENDTAB
0
TABLE
2
DIMSTYLE
5
A
100
AcDbSymbolTable
70
1
0
ENDTAB
0
TABLE
2
BLOCK_RECORD
5
1
100
AcDbSymbolTable
70
1
0
BLOCK_RECORD
5
1F
100
AcDbSymbolTableRecord
100
AcDbBlockTableRecord
2
*MODEL_SPACE
0
BLOCK_RECORD
5
1B
100
AcDbSymbolTableRecord
100
AcDbBlockTableRecord
2
*PAPER_SPACE
0
ENDTAB
0
ENDSEC
0
SECTION
2
BLOCKS
0
BLOCK
5
20
100
AcDbEntity
100
AcDbBlockBegin
2
*MODEL_SPACE
0
ENDBLK
5
21
100
AcDbEntity
100
AcDbBlockEnd
0
BLOCK
5
1C
100
AcDbEntity
100
AcDbBlockBegin
2
*PAPER_SPACE
0
ENDBLK
5
1D
100
AcDbEntity
100
AcDbBlockEnd
0
ENDSEC
0
SECTION
2
ENTITIES
0
CIRCLE
5
100
100
AcDbEntity
8
0
100
AcDbCircle
10
67.225004719942945
20
23.024999664723865
30
0
40
1.5500000000000131
210
-0
220
0
230
1
0
CIRCLE
5
101
100
AcDbEntity
8
0
100
AcDbCircle
10
110.39830909012409
20
152.11002487252949
30
0
40
1.5000000000000586
210
-0
220
0
230
1
0
LWPOLYLINE
5
102
100
AcDbEntity
8
0
100
AcDbPolyline
90
12
70
1
43
0.0
10
334.28770408502203
20
135.69505008033386
10
334.28770408502203
20
138.19505008033383
10
326.28770408502203
20
138.19505008033383
10
326.28770408502203
20
135.69505008033383
10
324.68770408502195
20
135.69505008033383
10
324.68770408502195
20
133.89505008033385
10
328.28770408502191
20
133.89505008033385
10
328.28770408502191
20
132.39505008033382
10
332.28770408502203
20
132.39505008033382
10
332.28770408502203
20
133.89505008033382
10
335.88770408502199
20
133.89505008033382
10
335.88770408502199
20
135.69505008033383
0
LWPOLYLINE
5
103
100
AcDbEntity
8
0
100
AcDbPolyline
90
12
70
1
43
0.0
10
393.99694320618465
20
85.647357405898049
10
393.99694320618465
20
88.14735740589812
10
385.99694320618454
20
88.147357405898134
10
385.99694320618454
20
85.647357405898106
10
384.39694320618429
20
85.64735740589812
10
384.39694320618429
20
83.84735740589818
10
387.99694320618386
20
83.847357405898165
10
387.99694320618386
20
82.34735740589818
10
391.9969432061842
20
82.34735740589818
10
391.99694320618391
20
83.847357405898151
10
395.59694320618433
20
83.847357405898123
10
395.59694320618433
20
85.647357405898049
0
LWPOLYLINE
5
104
100
AcDbEntity
8
0
100
AcDbPolyline
90
12
70
1
43
0.0
10
322.79694320618501
20
88.147357405898219
10
314.79694320618489
20
88.147357405898219
10
314.79694320618489
20
85.647357405898234
10
313.19694320618498
20
85.647357405898234
10
313.19694320618498
20
83.847357405898308
10
316.79694320618495
20
83.847357405898308
10
316.79694320618495
20
82.347357405898251
10
320.79694320618489
20
82.347357405898251
10
320.79694320618489
20
83.847357405898293
10
324.39694320618503
20
83.847357405898293
10
324.39694320618503
20
85.647357405898219
10
322.79694320618501
20
85.647357405898219
0
LWPOLYLINE
5
105
100
AcDbEntity
8
0
100
AcDbPolyline
90
12
70
1
43
0.0
10
171.99694320618505
20
85.647357405898319
10
170.3969432061848
20
85.647357405898362
10
170.3969432061848
20
83.847357405898407
10
173.99694320618423
20
83.847357405898393
10
173.99694320618437
20
82.347357405898393
10
177.99694320618457
20
82.347357405898393
10
177.99694320618443
20
83.84735740589835
10
181.59694320618485
20
83.847357405898336
10
181.59694320618485
20
85.647357405898276
10
179.99694320618502
20
85.647357405898262
10
179.99694320618516
20
88.147357405898362
10
171.99694320618505
20
88.147357405898362
0
LWPOLYLINE
5
106
100
AcDbEntity
8
0
100
AcDbPolyline
90
4
70
1
43
0.0
10
147.05000698491943
20
66.825000335276158
10
147.05000698491943
20
64.125000335276169
10
159.05000698491932
20
64.125000335276155
10
159.05000698491932
20
66.825000335276158
0
LWPOLYLINE
5
107
100
AcDbEntity
8
0
100
AcDbPolyline
90
12
70
1
43
0.0
10
133.49694320618497
20
88.14735740589839
10
125.49694320618499
20
88.14735740589839
10
125.49694320618499
20
85.647357405898418
10
123.89694320618489
20
85.647357405898418
10
123.89694320618489
20
83.847357405898478
10
127.49694320618502
20
83.847357405898478
10
127.49694320618502
20
82.347357405898435
10
131.49694320618494
20
82.347357405898435
10
131.49694320618494
20
83.847357405898478
10
135.09694320618493
20
83.847357405898478
10
135.09694320618493
20
85.647357405898404
10
133.49694320618497
20
85.647357405898404
0
LWPOLYLINE
5
108
100
AcDbEntity
8
0
100
AcDbPolyline
90
12
70
1
43
0.0
10
275.79694320618489
20
85.647357405898262
10
275.79694320618489
20
88.147357405898248
10
267.79694320618489
20
88.147357405898248
10
267.79694320618489
20
85.647357405898262
10
266.19694320618493
20
85.647357405898262
10
266.19694320618493
20
83.847357405898336
10
269.79694320618489
20
83.847357405898336
10
269.79694320618489
20
82.347357405898293
10
273.79694320618501
20
82.347357405898293
10
273.79694320618501
20
83.847357405898336
10
277.3969432061848
20
83.847357405898336
10
277.3969432061848
20
85.647357405898262
0
LWPOLYLINE
5
109
100
AcDbEntity
8
0
100
AcDbPolyline
90
4
70
1
43
0.0
10
396.05002286955738
20
64.125000335275914
10
396.05002286955738
20
66.825000335275917
10
384.05002286955749
20
66.825000335275917
10
384.05002286955749
20
64.125000335275928
0
LWPOLYLINE
5
110
100
AcDbEntity
8
0
100
AcDbPolyline
90
12
70
1
43
0.0
10
100.48770408502207
20
135.69505008033408
10
100.48770408502207
20
138.19505008033406
10
92.48770408502196
20
138.19505008033406
10
92.48770408502196
20
135.69505008033406
10
90.887704085021994
20
135.69505008033406
10
90.887704085021994
20
133.89505008033407
10
94.487704085021988
20
133.89505008033407
10
94.487704085021988
20
132.39505008033407
10
98.487704085022045
20
132.39505008033407
10
98.487704085022045
20
133.89505008033407
10
102.08770408502204
20
133.89505008033407
10
102.08770408502204
20
135.69505008033406
0
LWPOLYLINE
5
111
100
AcDbEntity
8
0
100
AcDbPolyline
90
4
70
1
43
0.0
10
39.750007677823334
20
66.825000335276286
10
27.750007677823305
20
66.825000335276286
10
27.750007677823305
20
64.125000335276297
10
39.750007677823326
20
64.125000335276283
0
LWPOLYLINE
5
112
100
AcDbEntity
8
0
100
AcDbPolyline
90
4
70
1
43
0.0
10
65.050005584210155
20
64.125000335276255
10
65.050005584210169
20
66.825000335276258
10
53.05000558421029
20
66.825000335276258
10
53.050005584210282
20
64.125000335276269
0
LWPOLYLINE
5
113
100
AcDbEntity
8
0
100
AcDbPolyline
90
4
70
1
43
0.0
10
213.32500541284705
20
115.52499966472382
10
213.32500541284702
20
100.52499966472381
10
216.42500541284701
20
100.52499966472381
10
216.42500541284704
20
115.52499966472382
0
LWPOLYLINE
5
114
100
AcDbEntity
8
0
100
AcDbPolyline
90
4
70
1
43
0.0
10
242.35000593438741
20
64.12500033527607
10
254.35000593438744
20
64.125000335276056
10
254.35000593438744
20
66.825000335276059
10
242.35000593438741
20
66.825000335276073
0
LWPOLYLINE
5
115
100
AcDbEntity
8
0
100
AcDbPolyline
90
4
70
1
43
0.0
10
170.55000715628282
20
116.82500108033409
10
158.55000715628293
20
116.8250010803341
10
158.55000715628293
20
114.12500108033412
10
170.55000715628282
20
114.1250010803341
0
LWPOLYLINE
5
116
100
AcDbEntity
8
0
100
AcDbPolyline
90
4
70
1
43
0.0
10
297.35000675395145
20
114.12500108033397
10
309.35000675395145
20
114.12500108033396
10
309.35000675395145
20
116.82500108033395
10
297.35000675395145
20
116.82500108033396
0
CIRCLE
5
117
100
AcDbEntity
8
0
100
AcDbCircle
10
214.8750054128466
20
13.024999664723724
30
0
40
1.5500000000000131
210
0
220
-0
230
1
0
LWPOLYLINE
5
118
100
AcDbEntity
8
0
100
AcDbPolyline
90
4
70
1
43
0.0
10
312.85000698491928
20
66.825000335276002
10
312.85000698491928
20
64.125000335276013
10
324.85000698491933
20
64.125000335275985
10
324.85000698491933
20
66.825000335276002
0
CIRCLE
5
119
100
AcDbEntity
8
0
100
AcDbCircle
10
380.67500541284659
20
13.024999664723556
30
0
40
1.5500000000000131
210
0
220
-0
230
1
0
LWPOLYLINE
5
120
100
AcDbEntity
8
0
100
AcDbPolyline
90
4
70
1
43
0.0
10
379.12500541284692
20
70.524999664723623
10
379.12500541284686
20
55.524999664723609
10
382.22500541284683
20
55.524999664723609
10
382.22500541284688
20
70.524999664723623
0
LWPOLYLINE
5
121
100
AcDbEntity
8
0
100
AcDbPolyline
90
4
70
1
43
0.0
10
47.525005412846753
20
20.5249996647239
10
50.625005412846775
20
20.524999664723897
10
50.625005412846917
20
35.524999664723914
10
47.525005412846795
20
35.524999664723921
0
LWPOLYLINE
5
122
100
AcDbEntity
8
0
100
AcDbPolyline
90
4
70
1
43
0.0
10
213.32500541284688
20
20.524999664723733
10
216.42500541284676
20
20.52499966472373
10
216.4250054128469
20
35.524999664723744
10
213.32500541284691
20
35.524999664723751
0
LWPOLYLINE
5
123
100
AcDbEntity
8
0
100
AcDbPolyline
90
4
70
1
43
0.0
10
131.55000675395158
20
114.12500108033413
10
143.55000675395146
20
114.12500108033412
10
143.55000675395146
20
116.8250010803341
10
131.55000675395158
20
116.82500108033412
0
LWPOLYLINE
5
124
100
AcDbEntity
8
0
100
AcDbPolyline
90
4
70
1
43
0.0
10
379.12500541284658
20
20.524999664723566
10
382.2250054128466
20
20.524999664723559
10
382.2250054128466
20
35.52499966472358
10
379.12500541284663
20
35.52499966472358
0
LWPOLYLINE
5
125
100
AcDbEntity
8
0
100
AcDbPolyline
90
4
70
1
43
0.0
10
213.32500541284719
20
150.52499966472385
10
213.32500541284716
20
135.52499966472385
10
216.42500541284716
20
135.52499966472385
10
216.42500541284718
20
150.52499966472385
0
LWPOLYLINE
5
126
100
AcDbEntity
8
0
100
AcDbPolyline
90
4
70
1
43
0.0
10
301.35000663474204
20
64.125000335276013
10
301.35000663474204
20
66.825000335276016
10
289.35000663474199
20
66.825000335276016
10
289.35000663474199
20
64.125000335276027
0
LWPOLYLINE
5
127
100
AcDbEntity
8
0
100
AcDbPolyline
90
4
70
1
43
0.0
10
256.35000614300384
20
116.825001080334
10
256.35000614300384
20
114.125001080334
10
268.35000614300384
20
114.12500108033399
10
268.35000614300384
20
116.82500108033398
0
LWPOLYLINE
5
128
100
AcDbEntity
8
0
100
AcDbPolyline
90
4
70
1
43
0.0
10
135.55000663474203
20
64.125000335276184
10
135.55000663474203
20
66.825000335276187
10
123.55000663474215
20
66.825000335276187
10
123.55000663474215
20
64.125000335276198
0
LWPOLYLINE
5
129
100
AcDbEntity
8
0
100
AcDbPolyline
90
4
70
1
43
0.0
10
385.88770408502256
20
154.6950500803338
42
-0.99999999999999989
10
385.88770408502199
20
151.6950500803338
10
378.88770408502154
20
151.6950500803338
42
-0.99999999999999989
10
378.88770408502211
20
154.6950500803338
0
LWPOLYLINE
5
130
100
AcDbEntity
8
0
100
AcDbPolyline
90
4
70
1
43
0.0
10
230.85000558421015
20
64.125000335276084
10
230.85000558421015
20
66.825000335276087
10
218.85000558421012
20
66.825000335276087
10
218.85000558421012
20
64.125000335276098
0
LWPOLYLINE
5
131
100
AcDbEntity
8
0
100
AcDbPolyline
90
4
70
1
43
0.0
10
286.97500541284734
20
100.52499966472374
10
286.97500541284751
20
115.52499966472375
10
283.87500541284754
20
115.52499966472375
10
283.87500541284737
20
100.52499966472374
0
LWPOLYLINE
5
132
100
AcDbEntity
8
0
100
AcDbPolyline
90
4
70
1
43
0.0
10
118.07500541284753
20
135.52499966472394
10
121.1750054128477
20
135.52499966472394
10
121.1750054128477
20
150.52499966472396
10
118.0750054128477
20
150.52499966472396
0
LWPOLYLINE
5
133
100
AcDbEntity
8
0
100
AcDbPolyline
90
4
70
1
43
0.0
10
121.17500541284738
20
100.52499966472391
10
121.17500541284755
20
115.52499966472394
10
118.07500541284742
20
115.52499966472394
10
118.07500541284739
20
100.52499966472391
0
LWPOLYLINE
5
134
100
AcDbEntity
8
0
100
AcDbPolyline
90
4
70
1
43
0.0
10
283.87500541284766
20
135.52499966472377
10
286.97500541284768
20
135.52499966472377
10
286.97500541284768
20
150.52499966472379
10
283.87500541284771
20
150.52499966472379
0
LWPOLYLINE
5
135
100
AcDbEntity
8
0
100
AcDbPolyline
90
4
70
1
43
0.0
10
121.17500541284738
20
20.524999664723826
10
121.17500541284741
20
35.524999664723843
10
118.07500541284728
20
35.52499966472385
10
118.07500541284725
20
20.524999664723829
0
LWPOLYLINE
5
136
100
AcDbEntity
8
0
100
AcDbPolyline
90
4
70
1
43
0.0
10
286.97500541284734
20
20.524999664723659
10
286.97500541284739
20
35.524999664723673
10
283.87500541284726
20
35.52499966472368
10
283.87500541284726
20
20.524999664723662
0
CIRCLE
5
137
100
AcDbEntity
8
0
100
AcDbCircle
10
172.55000715628285
20
95.525001080334164
30
0
40
1.0500000000000409
210
0
220
-0
230
1
0
CIRCLE
5
138
100
AcDbEntity
8
0
100
AcDbCircle
10
104.55000614300388
20
95.525001080334249
30
0
40
1.0500000000000409
210
0
220
-0
230
1
0
CIRCLE
5
139
100
AcDbEntity
8
0
100
AcDbCircle
10
67.050005584210197
20
45.525000335276175
30
0
40
1.0500000000000409
210
0
220
-0
230
1
0
LWPOLYLINE
5
140
100
AcDbEntity
8
0
100
AcDbPolyline
90
12
70
1
43
0.0
10
266.28770408502191
20
135.69505008033391
10
266.28770408502191
20
138.19505008033389
10
258.28770408502209
20
138.19505008033389
10
258.28770408502209
20
135.69505008033391
10
256.68770408502201
20
135.69505008033391
10
256.68770408502201
20
133.8950500803339
10
260.28770408502197
20
133.8950500803339
10
260.28770408502197
20
132.3950500803339
10
264.28770408502203
20
132.3950500803339
10
264.28770408502203
20
133.89505008033387
10
267.88770408502205
20
133.89505008033387
10
267.88770408502205
20
135.69505008033389
0
LWPOLYLINE
5
141
100
AcDbEntity
8
0
100
AcDbPolyline
90
12
70
1
43
0.0
10
143.08770408502198
20
135.69505008033403
10
141.48770408502202
20
135.69505008033403
10
141.48770408502202
20
138.19505008033403
10
133.48770408502205
20
138.195050080334
10
133.48770408502205
20
135.69505008033403
10
131.88770408502194
20
135.69505008033403
10
131.88770408502194
20
133.89505008033404
10
135.48770408502207
20
133.89505008033404
10
135.48770408502207
20
132.39505008033402
10
139.48770408502213
20
132.39505008033402
10
139.48770408502213
20
133.89505008033402
10
143.08770408502198
20
133.89505008033402
0
LWPOLYLINE
5
142
100
AcDbEntity
8
0
100
AcDbPolyline
90
12
70
1
43
0.0
10
369.29694320618495
20
85.647357405898092
10
369.29694320618495
20
88.147357405898163
10
361.29694320618484
20
88.147357405898163
10
361.29694320618484
20
85.64735740589812
10
359.69694320618459
20
85.647357405898163
10
359.69694320618459
20
83.847357405898208
10
363.29694320618415
20
83.847357405898194
10
363.29694320618415
20
82.347357405898208
10
367.29694320618421
20
82.347357405898208
10
367.29694320618421
20
83.847357405898165
10
370.89694320618463
20
83.847357405898151
10
370.89694320618463
20
85.647357405898106
0
LWPOLYLINE
5
143
100
AcDbEntity
8
0
100
AcDbPolyline
90
12
70
1
43
0.0
10
203.49694320618511
20
85.647357405898248
10
203.49694320618525
20
88.147357405898319
10
195.49694320618514
20
88.147357405898319
10
195.49694320618514
20
85.647357405898305
10
193.89694320618489
20
85.647357405898333
10
193.89694320618489
20
83.847357405898379
10
197.49694320618445
20
83.84735740589835
10
197.49694320618445
20
82.347357405898379
10
201.49694320618451
20
82.347357405898379
10
201.49694320618451
20
83.847357405898336
10
205.09694320618493
20
83.847357405898322
10
205.09694320618493
20
85.647357405898262
0
LWPOLYLINE
5
144
100
AcDbEntity
8
0
100
AcDbPolyline
90
12
70
1
43
0.0
10
252.29694320618492
20
88.147357405898276
10
244.29694320618495
20
88.147357405898276
10
244.29694320618481
20
85.647357405898305
10
242.69694320618484
20
85.647357405898305
10
242.69694320618484
20
83.847357405898379
10
246.29694320618498
20
83.847357405898379
10
246.29694320618498
20
82.347357405898322
10
250.29694320618489
20
82.347357405898322
10
250.29694320618489
20
83.84735740589835
10
253.89694320618489
20
83.84735740589835
10
253.89694320618489
20
85.647357405898276
10
252.29694320618492
20
85.647357405898276
0
LWPOLYLINE
5
145
100
AcDbEntity
8
0
100
AcDbPolyline
90
12
70
1
43
0.0
10
86.496943206184937
20
88.147357405898447
10
78.496943206184966
20
88.147357405898447
10
78.496943206184966
20
85.647357405898461
10
76.896943206185014
20
85.647357405898461
10
76.896943206185
20
83.847357405898535
10
80.496943206184852
20
83.847357405898535
10
80.496943206184852
20
82.347357405898492
10
84.496943206184909
20
82.347357405898492
10
84.496943206184909
20
83.847357405898535
10
88.096943206184903
20
83.847357405898535
10
88.096943206184903
20
85.647357405898461
10
86.496943206184937
20
85.647357405898461
0
LWPOLYLINE
5
146
100
AcDbEntity
8
0
100
AcDbPolyline
90
12
70
1
43
0.0
10
109.99694320618502
20
85.647357405898418
10
109.99694320618502
20
88.147357405898404
10
101.99694320618505
20
88.147357405898418
10
101.99694320618491
20
85.647357405898447
10
100.39694320618494
20
85.647357405898447
10
100.39694320618494
20
83.847357405898521
10
103.99694320618494
20
83.847357405898521
10
103.99694320618494
20
82.347357405898464
10
107.99694320618485
20
82.347357405898464
10
107.99694320618485
20
83.847357405898492
10
111.59694320618499
20
83.847357405898492
10
111.59694320618499
20
85.647357405898418
0
LWPOLYLINE
5
147
100
AcDbEntity
8
0
100
AcDbPolyline
90
12
70
1
43
0.0
10
228.79694320618498
20
88.147357405898305
10
220.79694320618486
20
88.147357405898305
10
220.79694320618486
20
85.647357405898319
10
219.1969432061849
20
85.647357405898319
10
219.1969432061849
20
83.847357405898393
10
222.79694320618489
20
83.847357405898393
10
222.79694320618489
20
82.34735740589835
10
226.79694320618481
20
82.34735740589835
10
226.79694320618481
20
83.847357405898379
10
230.39694320618494
20
83.847357405898379
10
230.39694320618494
20
85.647357405898319
10
228.79694320618498
20
85.647357405898319
0
LWPOLYLINE
5
148
100
AcDbEntity
8
0
100
AcDbPolyline
90
12
70
1
43
0.0
10
37.696943206184976
20
85.647357405898404
10
37.696943206185125
20
88.147357405898475
10
29.696943206185018
20
88.147357405898504
10
29.696943206185011
20
85.647357405898461
10
28.096943206184765
20
85.647357405898504
10
28.096943206184761
20
83.847357405898549
10
31.696943206184333
20
83.847357405898535
10
31.696943206184329
20
82.347357405898549
10
35.696943206184379
20
82.347357405898549
10
35.696943206184386
20
83.847357405898492
10
39.2969432061848
20
83.847357405898478
10
39.296943206184807
20
85.647357405898418
0
LWPOLYLINE
5
149
100
AcDbEntity
8
0
100
AcDbPolyline
90
12
70
1
43
0.0
10
156.99694320618491
20
88.147357405898376
10
148.99694320618494
20
88.147357405898376
10
148.99694320618494
20
85.64735740589839
10
147.39694320618497
20
85.64735740589839
10
147.39694320618497
20
83.847357405898464
10
150.99694320618497
20
83.847357405898464
10
150.99694320618497
20
82.347357405898421
10
154.99694320618502
20
82.347357405898421
10
154.99694320618502
20
83.847357405898464
10
158.59694320618487
20
83.847357405898464
10
158.59694320618487
20
85.64735740589839
10
156.99694320618491
20
85.64735740589839
0
LWPOLYLINE
5
150
100
AcDbEntity
8
0
100
AcDbPolyline
90
12
70
1
43
0.0
10
337.79694320618501
20
85.647357405898134
10
336.19694320618476
20
85.647357405898177
10
336.19694320618464
20
83.847357405898236
10
339.79694320618421
20
83.847357405898208
10
339.79694320618421
20
82.347357405898236
10
343.79694320618427
20
82.347357405898236
10
343.79694320618427
20
83.847357405898194
10
347.39694320618469
20
83.84735740589818
10
347.39694320618469
20
85.64735740589812
10
345.79694320618501
20
85.647357405898106
10
345.79694320618501
20
88.147357405898177
10
337.79694320618489
20
88.147357405898177
0
LWPOLYLINE
5
151
100
AcDbEntity
8
0
100
AcDbPolyline
90
12
70
1
43
0.0
10
299.29694320618495
20
88.147357405898234
10
291.29694320618501
20
88.147357405898234
10
291.29694320618501
20
85.647357405898248
10
289.69694320618498
20
85.647357405898248
10
289.69694320618498
20
83.847357405898322
10
293.29694320618489
20
83.847357405898322
10
293.29694320618489
20
82.347357405898279
10
297.29694320618489
20
82.347357405898279
10
297.29694320618489
20
83.847357405898308
10
300.89694320618491
20
83.847357405898308
10
300.89694320618491
20
85.647357405898248
10
299.29694320618495
20
85.647357405898248
0
LWPOLYLINE
5
152
100
AcDbEntity
8
0
100
AcDbPolyline
90
12
70
1
43
0.0
10
187.48770408502196
20
135.69505008033397
10
185.88770408502199
20
135.69505008033397
10
185.88770408502199
20
133.89505008033399
10
189.48770408502199
20
133.89505008033399
10
189.48770408502199
20
132.39505008033399
10
193.48770408502205
20
132.39505008033399
10
193.48770408502205
20
133.89505008033396
10
197.08770408502204
20
133.89505008033396
10
197.08770408502204
20
135.69505008033394
10
195.48770408502207
20
135.69505008033397
10
195.48770408502207
20
138.19505008033397
10
187.48770408502196
20
138.19505008033394
0
LWPOLYLINE
5
153
100
AcDbEntity
8
0
100
AcDbPolyline
90
12
70
1
43
0.0
10
168.48770408502205
20
135.695050080334
10
168.48770408502205
20
138.195050080334
10
160.48770408502207
20
138.19505008033397
10
160.48770408502207
20
135.695050080334
10
158.88770408502197
20
135.695050080334
10
158.88770408502197
20
133.89505008033399
10
162.48770408502196
20
133.89505008033399
10
162.48770408502196
20
132.39505008033399
10
166.48770408502202
20
132.39505008033399
10
166.48770408502202
20
133.89505008033399
10
170.08770408502201
20
133.89505008033399
10
170.08770408502201
20
135.695050080334
0
LWPOLYLINE
5
154
100
AcDbEntity
8
0
100
AcDbPolyline
90
4
70
1
43
0.0
10
112.05000628456474
20
64.125000335276198
10
112.05000628456474
20
66.825000335276201
10
100.05000628456486
20
66.825000335276215
10
100.05000628456486
20
64.125000335276212
0
LWPOLYLINE
5
155
100
AcDbEntity
8
0
100
AcDbPolyline
90
4
70
1
43
0.0
10
205.55000767782332
20
66.825000335276115
10
193.55000767782343
20
66.825000335276115
10
193.55000767782343
20
64.125000335276127
10
205.55000767782332
20
64.125000335276113
0
LWPOLYLINE
5
156
100
AcDbEntity
8
0
100
AcDbPolyline
90
4
70
1
43
0.0
10
90.550006143003969
20
116.82500108033416
10
90.550006143003969
20
114.12500108033416
10
102.55000614300386
20
114.12500108033416
10
102.55000614300386
20
116.82500108033415
0
LWPOLYLINE
5
157
100
AcDbEntity
8
0
100
AcDbPolyline
90
4
70
1
43
0.0
10
228.3500057257713
20
116.82500108033403
10
228.3500057257713
20
114.12500108033404
10
240.35000572577133
20
114.12500108033402
10
240.35000572577133
20
116.82500108033402
0
LWPOLYLINE
5
158
100
AcDbEntity
8
0
100
AcDbPolyline
90
4
70
1
43
0.0
10
363.35000755861415
20
114.1250010803339
10
363.35000755861415
20
116.82500108033389
10
351.35000755861398
20
116.82500108033392
10
351.35000755861398
20
114.12500108033392
0
LWPOLYLINE
5
159
100
AcDbEntity
8
0
100
AcDbPolyline
90
4
70
1
43
0.0
10
371.35000767782316
20
66.825000335275945
10
359.35000767782327
20
66.825000335275945
10
359.35000767782327
20
64.125000335275956
10
371.35000767782316
20
64.125000335275942
0
CIRCLE
5
160
100
AcDbEntity
8
0
100
AcDbCircle
10
145.55000675395149
20
95.525001080334192
30
0
40
1.0500000000000409
210
0
220
-0
230
1
0
CIRCLE
5
161
100
AcDbEntity
8
0
100
AcDbCircle
10
137.55000663474206
20
45.525000335276104
30
0
40
1.0500000000000409
210
0
220
-0
230
1
0
CIRCLE
5
162
100
AcDbEntity
8
0
100
AcDbCircle
10
90.550005934387485
20
45.525000335276147
30
0
40
1.0500000000000409
210
0
220
-0
230
1
0
CIRCLE
5
163
100
AcDbEntity
8
0
100
AcDbCircle
10
41.750007677823362
20
45.525000335276189
30
0
40
1.0500000000000409
210
0
220
-0
230
1
0
CIRCLE
5
164
100
AcDbEntity
8
0
100
AcDbCircle
10
232.85000558421018
20
45.525000335276005
30
0
40
1.0500000000000409
210
0
220
-0
230
1
0
CIRCLE
5
165
100
AcDbEntity
8
0
100
AcDbCircle
10
242.35000572577135
20
95.525001080334107
30
0
40
1.0500000000000409
210
0
220
-0
230
1
0
CIRCLE
5
166
100
AcDbEntity
8
0
100
AcDbCircle
10
349.85000732764576
20
45.525000335275877
30
0
40
1.049999999999899
210
0
220
-0
230
1
0
CIRCLE
5
167
100
AcDbEntity
8
0
100
AcDbCircle
10
311.35000675395145
20
95.525001080334022
30
0
40
1.0500000000000409
210
0
220
-0
230
1
0
CIRCLE
5
168
100
AcDbEntity
8
0
100
AcDbCircle
10
303.35000663474204
20
45.525000335275934
30
0
40
1.0500000000000409
210
0
220
-0
230
1
0
CIRCLE
5
169
100
AcDbEntity
8
0
100
AcDbCircle
10
256.35000593438747
20
45.525000335275976
30
0
40
1.0500000000000409
210
0
220
-0
230
1
0
CIRCLE
5
170
100
AcDbEntity
8
0
100
AcDbCircle
10
279.85000628456476
20
45.525000335275948
30
0
40
1.0500000000000409
210
0
220
-0
230
1
0
CIRCLE
5
171
100
AcDbEntity
8
0
100
AcDbCircle
10
270.35000614300384
20
95.525001080334064
30
0
40
1.0500000000000409
210
0
220
-0
230
1
0
CIRCLE
5
172
100
AcDbEntity
8
0
100
AcDbCircle
10
207.55000767782334
20
45.525000335276033
30
0
40
1.0500000000000409
210
0
220
-0
230
1
0
CIRCLE
5
173
100
AcDbEntity
8
0
100
AcDbCircle
10
326.85000698491933
20
45.525000335275905
30
0
40
1.0500000000000409
210
0
220
-0
230
1
0
CIRCLE
5
174
100
AcDbEntity
8
0
100
AcDbCircle
10
114.05000628456477
20
45.525000335276118
30
0
40
1.0500000000000409
210
0
220
-0
230
1
0
CIRCLE
5
175
100
AcDbEntity
8
0
100
AcDbCircle
10
184.05000732764606
20
45.525000335276047
30
0
40
1.0500000000000409
210
0
220
-0
230
1
0
CIRCLE
5
176
100
AcDbEntity
8
0
100
AcDbCircle
10
338.35000715628269
20
95.525001080333993
30
0
40
1.049999999999899
210
0
220
-0
230
1
0
CIRCLE
5
177
100
AcDbEntity
8
0
100
AcDbCircle
10
398.05002286955698
20
45.525000335275834
30
0
40
1.049999999999899
210
0
220
-0
230
1
0
CIRCLE
5
178
100
AcDbEntity
8
0
100
AcDbCircle
10
199.5500075586142
20
95.525001080334135
30
0
40
1.0500000000000409
210
0
220
-0
230
1
0
CIRCLE
5
179
100
AcDbEntity
8
0
100
AcDbCircle
10
161.05000698491935
20
45.525000335276076
30
0
40
1.0500000000000409
210
0
220
-0
230
1
0
CIRCLE
5
180
100
AcDbEntity
8
0
100
AcDbCircle
10
373.35000767782304
20
45.525000335275863
30
0
40
1.049999999999899
210
0
220
-0
230
1
0
CIRCLE
5
181
100
AcDbEntity
8
0
100
AcDbCircle
10
365.35000755861404
20
95.525001080333979
30
0
40
1.049999999999899
210
0
220
-0
230
1
0
LWPOLYLINE
5
182
100
AcDbEntity
8
0
100
AcDbPolyline
90
4
70
1
43
0.0
10
76.550005934387571
20
64.125000335276241
10
88.550005934387457
20
64.125000335276226
10
88.550005934387457
20
66.825000335276229
10
76.550005934387585
20
66.825000335276229
0
CIRCLE
5
183
100
AcDbEntity
8
0
100
AcDbCircle
10
285.42500541284738
20
125.52499966472377
30
0
40
1.5000000000000586
210
0
220
-0
230
1
0
LWPOLYLINE
5
184
100
AcDbEntity
8
0
100
AcDbPolyline
90
12
70
1
43
0.0
10
62.996943206184852
20
88.147357405898461
10
54.996943206184881
20
88.147357405898461
10
54.996943206184881
20
85.647357405898504
10
53.396943206184922
20
85.647357405898504
10
53.396943206184915
20
83.847357405898549
10
56.996943206184909
20
83.847357405898549
10
56.996943206184909
20
82.347357405898521
10
60.996943206184966
20
82.347357405898521
10
60.996943206184966
20
83.847357405898549
10
64.596943206184804
20
83.847357405898549
10
64.596943206184818
20
85.647357405898475
10
62.996943206184845
20
85.647357405898475
0
LWPOLYLINE
5
185
100
AcDbEntity
8
0
100
AcDbPolyline
90
4
70
1
43
0.0
10
336.3500071562828
20
116.82500108033392
10
324.3500071562828
20
116.82500108033393
10
324.3500071562828
20
114.12500108033393
10
336.3500071562828
20
114.12500108033392
0
LWPOLYLINE
5
186
100
AcDbEntity
8
0
100
AcDbPolyline
90
4
70
1
43
0.0
10
182.05000732764603
20
64.125000335276127
10
182.05000732764603
20
66.82500033527613
10
170.05000732764614
20
66.825000335276144
10
170.05000732764614
20
64.125000335276141
0
LWPOLYLINE
5
187
100
AcDbEntity
8
0
100
AcDbPolyline
90
4
70
1
43
0.0
10
197.55000755861417
20
114.12500108033406
10
197.55000755861417
20
116.82500108033406
10
185.55000755861428
20
116.82500108033408
10
185.55000755861428
20
114.12500108033407
0
LWPOLYLINE
5
188
100
AcDbEntity
8
0
100
AcDbPolyline
90
12
70
1
43
0.0
10
353.2877040850218
20
135.69505008033383
10
351.68770408502183
20
135.69505008033383
10
351.68770408502183
20
133.89505008033379
10
355.28770408502169
20
133.89505008033379
10
355.28770408502169
20
132.39505008033379
10
359.28770408502174
20
132.39505008033379
10
359.28770408502174
20
133.89505008033379
10
362.88770408502188
20
133.89505008033379
10
362.88770408502188
20
135.6950500803338
10
361.28770408502163
20
135.69505008033383
10
361.28770408502163
20
138.1950500803338
10
353.2877040850218
20
138.19505008033377
0
LWPOLYLINE
5
189
100
AcDbEntity
8
0
100
AcDbPolyline
90
4
70
1
43
0.0
10
213.32500541284676
20
70.524999664723794
10
213.32500541284674
20
55.524999664723779
10
216.42500541284687
20
55.524999664723779
10
216.4250054128469
20
70.524999664723794
0
LWPOLYLINE
5
190
100
AcDbEntity
8
0
100
AcDbPolyline
90
12
70
1
43
0.0
10
232.287704085022
20
132.39505008033393
10
236.28770408502206
20
132.39505008033393
10
236.28770408502206
20
133.89505008033393
10
239.88770408502205
20
133.89505008033393
10
239.88770408502205
20
135.69505008033391
10
238.28770408502194
20
135.69505008033394
10
238.28770408502194
20
138.19505008033391
10
230.28770408502197
20
138.19505008033391
10
230.28770408502197
20
135.69505008033394
10
228.68770408502201
20
135.69505008033394
10
228.68770408502201
20
133.89505008033393
10
232.287704085022
20
133.89505008033393
0
LWPOLYLINE
5
191
100
AcDbEntity
8
0
100
AcDbPolyline
90
4
70
1
43
0.0
10
277.85000628456476
20
64.125000335276042
10
277.85000628456476
20
66.825000335276044
10
265.8500062845647
20
66.825000335276044
10
265.8500062845647
20
64.125000335276056
0
LWPOLYLINE
5
192
100
AcDbEntity
8
0
100
AcDbPolyline
90
12
70
1
43
0.0
10
308.88770408502211
20
135.69505008033386
10
307.28770408502203
20
135.69505008033386
10
307.28770408502203
20
138.19505008033386
10
299.28770408502203
20
138.19505008033386
10
299.28770408502203
20
135.69505008033386
10
297.68770408502206
20
135.69505008033386
10
297.68770408502206
20
133.89505008033385
10
301.28770408502191
20
133.89505008033385
10
301.28770408502191
20
132.39505008033385
10
305.28770408502197
20
132.39505008033385
10
305.28770408502197
20
133.89505008033385
10
308.88770408502211
20
133.89505008033385
0
LWPOLYLINE
5
193
100
AcDbEntity
8
0
100
AcDbPolyline
90
4
70
1
43
0.0
10
347.85000732764615
20
64.125000335275971
10
347.85000732764615
20
66.825000335275973
10
335.85000732764598
20
66.825000335275973
10
335.85000732764598
20
64.125000335275985
0
CIRCLE
5
194
100
AcDbEntity
8
0
100
AcDbCircle
10
119.62500541284712
20
85.524999664723893
30
0
40
1.5000000000000586
210
0
220
-0
230
1
0
CIRCLE
5
195
100
AcDbEntity
8
0
100
AcDbCircle
10
49.075005412846764
20
13.024999664723891
30
0
40
1.5500000000000131
210
0
220
-0
230
1
0
CIRCLE
5
196
100
AcDbEntity
8
0
100
AcDbCircle
10
119.62500541284726
20
125.52499966472395
30
0
40
1.5000000000000586
210
0
220
-0
230
1
0
CIRCLE
5
197
100
AcDbEntity
8
0
100
AcDbCircle
10
285.42500541284721
20
85.524999664723708
30
0
40
1.5000000000000586
210
0
220
-0
230
1
0
LWPOLYLINE
5
198
100
AcDbEntity
8
0
100
AcDbPolyline
90
4
70
1
43
0.0
10
121.17500541284741
20
70.524999664723893
10
118.07500541284725
20
70.524999664723893
10
118.07500541284725
20
55.524999664723865
10
121.17500541284738
20
55.524999664723865
0
LWPOLYLINE
5
199
100
AcDbEntity
8
0
100
AcDbPolyline
90
4
70
1
43
0.0
10
286.97500541284739
20
70.524999664723723
10
283.87500541284726
20
70.524999664723723
10
283.87500541284726
20
55.524999664723694
10
286.97500541284734
20
55.524999664723694
0
LWPOLYLINE
5
200
100
AcDbEntity
8
0
100
AcDbPolyline
90
4
70
1
43
0.0
10
47.525005412846937
20
70.524999664723964
10
47.525005412846895
20
55.52499966472395
10
50.625005412846875
20
55.524999664723936
10
50.625005412847059
20
70.524999664723964
0
LWPOLYLINE
5
201
100
AcDbEntity
8
0
100
AcDbPolyline
90
4
70
1
43
0.0
10
405.88770408502228
20
154.69505008033377
10
391.88770408502194
20
154.69505008033371
10
391.88770408502222
20
151.69505008033374
10
405.88770408502228
20
151.69505008033374
0
LWPOLYLINE
5
202
100
AcDbEntity
8
0
100
AcDbPolyline
90
71
70
1
43
0.0
10
22.099999999999895
20
5.5249996647239064
10
22.099999999999937
20
21.10000000000008
10
18.288879073411938
20
21.100000000000023
42
-3.5099689931825613
10
18.288879073411977
20
28.900000000000084
10
22.100000000000072
20
28.90000000000007
10
22.100000000000168
20
81.311179243116413
42
-0.41421356237309426
10
32.000000000000178
20
91.211179243116405
10
72.54999840185063
20
91.211179243116348
42
0.41421356237309737
10
82.649998401850709
20
101.31117924311638
10
82.649998401850723
20
144.83238272330925
42
-0.60522848656001627
10
84.219766885059627
20
145.65418797733344
42
1.9101465651654523
10
84.219766885059798
20
158.14562783849988
42
-0.605228486560075
10
82.649998401850681
20
158.96743309252398
10
82.649998401850766
20
165.52499966472402
10
434.55000287964998
20
165.52499966472368
10
434.55000287964992
20
150.52499966472362
10
440.55000287964964
20
150.52499966472362
10
440.55000287964958
20
135.52499966472362
10
434.55000287964964
20
135.52499966472365
10
434.55000287964964
20
127.02499966472362
10
427.05000287964964
20
127.02499966472362
10
427.05000287964964
20
128.37499966472362
10
424.55000287964964
20
128.37499966472362
10
424.55000287964964
20
127.02499966472362
10
424.05000287964953
20
127.02499966472362
10
424.05000539422048
20
125.52499776482557
10
424.05000287964953
20
124.02499966472362
10
424.55000287964964
20
124.02499966472362
10
424.55000287964964
20
122.67499966472363
10
427.05000287964964
20
122.67499966472363
10
427.05000287964964
20
124.02499966472362
10
434.55000287964964
20
124.02499966472362
10
434.55000287964964
20
115.52499966472359
10
440.55000287964964
20
115.52499966472359
10
440.55000287964958
20
100.52499966472359
10
434.5500028796497
20
100.52499966472359
10
434.55000287964964
20
87.02499966472358
10
427.05000287964964
20
87.02499966472358
10
427.05000287964964
20
88.374999664723575
10
424.55000287964964
20
88.374999664723575
10
424.55000287964964
20
87.02499966472358
10
424.05000287964953
20
87.02499966472358
10
424.05000539422048
20
85.525001564621618
10
424.05000287964953
20
84.024999664723566
10
424.55000287964964
20
84.024999664723566
10
424.55000287964964
20
82.674999664723572
10
427.05000287964964
20
82.674999664723572
10
427.05000287964964
20
84.024999664723566
10
434.5500028796497
20
84.024999664723595
10
434.55000287964964
20
70.524999664723566
10
440.55000287964964
20
70.524999664723566
10
440.55000287964958
20
55.524999664723545
10
434.55000287964936
20
55.524999664723552
10
434.55000287964936
20
47.024999664723538
10
427.05000287964936
20
47.024999664723552
10
427.05000287964936
20
48.37499966472356
10
424.55000287964936
20
48.37499966472356
10
424.55000287964936
20
47.024999664723559
10
424.05000287964924
20
47.024999664723559
10
424.05000539422019
20
45.525001564621597
10
424.05000287964924
20
44.024999664723545
10
424.55000287964936
20
44.024999664723545
10
424.55000287964936
20
42.674999664723536
10
427.05000287964936
20
42.674999664723536
10
427.05000287964936
20
44.024999664723545
10
434.55000287964936
20
44.024999664723538
10
434.55000287964936
20
35.524999664723524
10
440.55000287964936
20
35.524999664723524
10
440.5500028796493
20
20.524999664723506
10
434.55000287964941
20
20.524999664723509
10
434.55000287964941
20
5.5249996647234934
0
LWPOLYLINE
5
203
100
AcDbEntity
8
0
100
AcDbPolyline
90
6
70
1
43
0.0
10
490.05000287965282
20
114.5249996647218
42
-0.41421356237309243
10
488.05000287965288
20
116.52499966472189
10
488.05000287965407
20
152.35672467257842
42
-0.76732698797895504
10
491.78205368722286
20
153.35672467257831
10
512.46950976603648
20
117.52499966472108
42
-0.57735026918964716
10
510.73745895846741
20
114.52499966472116
0
LWPOLYLINE
5
204
100
AcDbEntity
8
0
100
AcDbPolyline
90
6
70
1
43
0.0
10
555.55000287965254
20
104.82500166471966
42
-0.41421356237311585
10
557.55000287965242
20
102.82500166471964
10
557.5500028796514
20
66.993276656863131
42
-0.76732698797897259
10
553.81795207208245
20
65.99327665686323
10
533.13049599326894
20
101.82500166472045
42
-0.57735026918962939
10
534.862546800838
20
104.82500166472038
0
LWPOLYLINE
5
205
100
AcDbEntity
8
0
100
AcDbPolyline
90
6
70
1
43
0.0
10
518.55000287965095
20
52.825001664720837
42
-0.4142135623730937
10
520.55000287965083
20
50.825001664720745
10
520.5500028796497
20
14.993276656864229
42
-0.76732698797897214
10
516.81795207208074
20
13.993276656864335
10
496.13049599326729
20
49.82500166472154
42
-0.57735026918963528
10
497.86254680083624
20
52.825001664721469
0
LWPOLYLINE
5
206
100
AcDbEntity
8
0
100
AcDbPolyline
90
4
70
1
43
0.0
10
527.03144587965107
20
60.025001664720548
10
527.03144587965096
20
56.825001664720546
10
537.23144587965101
20
56.825001664720247
10
537.23144587965112
20
60.02500166472025
0
LWPOLYLINE
5
207
100
AcDbEntity
8
0
100
AcDbPolyline
90
4
70
1
43
0.0
10
527.03144587965267
20
110.02500166472062
10
527.03144587965255
20
106.82500166472062
10
537.23144587965271
20
106.8250016647203
10
537.23144587965271
20
110.02500166472032
0
LWPOLYLINE
5
208
100
AcDbEntity
8
0
100
AcDbPolyline
90
6
70
1
43
0.0
10
549.46950976603307
20
13.524999664719768
42
-0.5773502691895962
10
547.73745895846412
20
10.524999664719859
10
527.05000287964947
20
10.524999664720545
42
-0.41421356237311713
10
525.05000287964958
20
12.524999664720582
10
525.05000287965072
20
48.356724672577101
42
-0.76732698797897503
10
528.78205368721956
20
49.356724672576995
0
LWPOLYLINE
5
209
100
AcDbEntity
8
0
100
AcDbPolyline
90
6
70
1
43
0.0
10
490.05000287965117
20
62.524999664721783
42
-0.41421356237311713
10
488.05000287965129
20
64.524999664721818
10
488.05000287965248
20
100.35672467257834
42
-0.76732698797897181
10
491.78205368722126
20
101.35672467257822
10
512.46950976603466
20
65.524999664720994
42
-0.57735026918962939
10
510.73745895846577
20
62.524999664721093
0
LWPOLYLINE
5
210
100
AcDbEntity
8
0
100
AcDbPolyline
90
6
70
1
43
0.0
10
518.55000287965413
20
156.82500166472096
42
-0.41421356237309243
10
520.55000287965413
20
154.82500166472087
10
520.55000287965299
20
118.99327665686435
42
-0.7673269879789657
10
516.81795207208404
20
117.99327665686447
10
496.13049599327053
20
153.82500166472164
42
-0.57735026918965304
10
497.8625468008396
20
156.82500166472161
0
LWPOLYLINE
5
211
100
AcDbEntity
8
0
100
AcDbPolyline
90
6
70
1
43
0.0
10
527.05000287965288
20
114.52499966472062
42
-0.41421356237309243
10
525.05000287965288
20
116.52499966472071
10
525.05000287965413
20
152.35672467257726
42
-0.76732698797895504
10
528.78205368722297
20
153.35672467257712
10
549.46950976603637
20
117.52499966471994
42
-0.57735026918965304
10
547.73745895846741
20
114.52499966471999
0
LWPOLYLINE
5
212
100
AcDbEntity
8
0
100
AcDbPolyline
90
6
70
1
43
0.0
10
527.05000287965117
20
62.524999664720553
42
-0.4142135623730937
10
525.05000287965117
20
64.524999664720639
10
525.05000287965242
20
100.35672467257717
42
-0.76732698797895837
10
528.78205368722115
20
101.35672467257706
10
549.46950976603478
20
65.524999664719871
42
-0.57735026918964127
10
547.73745895846582
20
62.524999664719928
0
LWPOLYLINE
5
213
100
AcDbEntity
8
0
100
AcDbPolyline
90
6
70
1
43
0.0
10
490.05000287964947
20
10.524999664721717
42
-0.41421356237311713
10
488.05000287964958
20
12.524999664721754
10
488.05000287965072
20
48.356724672578281
42
-0.76732698797897503
10
491.78205368721956
20
49.356724672578167
10
512.46950976603318
20
13.524999664720962
42
-0.57735026918964771
10
510.73745895846412
20
10.524999664721031
0
LWPOLYLINE
5
214
100
AcDbEntity
8
0
100
AcDbPolyline
90
4
70
1
43
0.0
10
507.03144587965107
20
60.025001664721188
10
507.03144587965096
20
56.825001664721185
10
517.23144587965101
20
56.825001664720872
10
517.23144587965112
20
60.025001664720889
0
LWPOLYLINE
5
215
100
AcDbEntity
8
0
100
AcDbPolyline
90
4
70
1
43
0.0
10
517.23144587965271
20
106.82500166472094
10
517.23144587965271
20
110.02500166472095
10
507.03144587965267
20
110.02500166472124
10
507.03144587965261
20
106.82500166472124
0
LWPOLYLINE
5
216
100
AcDbEntity
8
0
100
AcDbPolyline
90
6
70
1
43
0.0
10
555.55000287965095
20
52.825001664719665
42
-0.4142135623730937
10
557.55000287965095
20
50.825001664719579
10
557.55000287964981
20
14.993276656863056
42
-0.76732698797897214
10
553.81795207208074
20
13.993276656863163
10
533.13049599326735
20
49.825001664720368
42
-0.57735026918963528
10
534.8625468008363
20
52.825001664720297
0
LWPOLYLINE
5
217
100
AcDbEntity
8
0
100
AcDbPolyline
90
6
70
1
43
0.0
10
518.55000287965254
20
104.82500166472084
42
-0.41421356237311585
10
520.55000287965242
20
102.82500166472082
10
520.5500028796514
20
66.99327665686431
42
-0.76732698797897259
10
516.81795207208233
20
65.993276656864396
10
496.13049599326899
20
101.8250016647216
42
-0.57735026918963528
10
497.86254680083795
20
104.82500166472155
0
LWPOLYLINE
5
218
100
AcDbEntity
8
0
100
AcDbPolyline
90
6
70
1
43
0.0
10
555.55000287965424
20
156.82500166471979
42
-0.41421356237309243
10
557.55000287965413
20
154.82500166471971
10
557.55000287965299
20
118.99327665686317
42
-0.7673269879789657
10
553.81795207208404
20
117.99327665686329
10
533.13049599327064
20
153.82500166472047
42
-0.57735026918965304
10
534.8625468008396
20
156.82500166472045
0
LWPOLYLINE
5
219
100
AcDbEntity
8
0
100
AcDbPolyline
90
4
70
1
43
0.0
10
484.55000287965231
20
100.52500233527427
10
484.55000287965282
20
115.52500233527428
10
478.55000287965288
20
115.52500233527448
10
478.55000287965231
20
100.52500233527445
0
LWPOLYLINE
5
220
100
AcDbEntity
8
0
100
AcDbPolyline
90
4
70
1
43
0.0
10
484.55000287965345
20
135.52500233527431
10
484.55000287965396
20
150.52500233527434
10
478.55000287965396
20
150.52500233527451
10
478.55000287965345
20
135.52500233527451
0
CIRCLE
5
221
100
AcDbEntity
8
0
100
AcDbCircle
10
481.55000287965316
20
125.52500233527439
30
0
40
1.5500000000000045
210
0
220
-0
230
1
0
CIRCLE
5
222
100
AcDbEntity
8
0
100
AcDbCircle
10
481.55000287965186
20
85.525002335274337
30
0
40
1.5499999999999956
210
0
220
-0
230
1
0
LWPOLYLINE
5
223
100
AcDbEntity
8
0
100
AcDbPolyline
90
4
70
1
43
0.0
10
478.55000287965032
20
35.525002335271445
10
478.55000287964981
20
20.525002335271427
10
484.55000287964981
20
20.52500233527125
10
484.55000287965026
20
35.525002335271253
0
LWPOLYLINE
5
224
100
AcDbEntity
8
0
100
AcDbPolyline
90
4
70
1
43
0.0
10
484.55000287965095
20
55.525002335271303
10
484.5500028796514
20
70.525002335271324
10
478.5500028796514
20
70.525002335271481
10
478.55000287965089
20
55.525002335271473
0
CIRCLE
5
225
100
AcDbEntity
8
0
100
AcDbCircle
10
481.55000287965066
20
45.525002335271374
30
0
40
1.5500000000000134
210
0
220
-0
230
1
0
LWPOLYLINE
5
226
100
AcDbEntity
8
0
100
AcDbPolyline
90
30
70
1
43
0.0
10
564.55000287965288
20
115.52500233507314
10
561.55000287965288
20
115.52500233514078
10
561.55000287965231
20
100.52500233519437
10
564.55000287965231
20
100.52500233519427
10
564.5500028796514
20
70.525002335346215
10
561.5500028796514
20
70.525002335346301
10
561.55000287965095
20
55.525002335399904
10
564.55000287965095
20
55.52500233546737
10
564.55000287965038
20
35.525002335268724
10
561.55000287965038
20
35.525002335268816
10
561.55000287964992
20
20.525002335268802
10
564.55000287964981
20
20.525002335268692
10
564.55000287964936
20
5.5249996647193287
10
457.55000287898719
20
5.5249996647227562
42
-0.41421356237309348
10
452.55000287898747
20
10.52499966472273
10
452.55000287901169
20
16.025002334806693
42
-0.23606797750657613
10
454.55000287910423
20
20.025002334863004
42
0.50000000001212286
10
454.55000287909195
20
76.025002335668034
42
-0.23606797750658493
10
452.55000287898895
20
80.02500233574564
10
452.55000287901316
20
91.025002334801982
42
-0.23606797750655845
10
454.55000287910934
20
95.025002334865789
42
0.50000000000551315
10
454.55000287969756
20
151.02500233524489
42
-0.23606797750229519
10
452.55000287970427
20
155.02500233529577
10
452.55000287982159
20
165.52500166467823
42
-0.41421356236950507
10
457.55000287981773
20
170.52500166462409
10
564.55000287965458
20
170.52500166473271
10
564.55000287965402
20
150.52500233527178
10
561.55000287965402
20
150.52500233527189
10
561.55000287965345
20
135.52500233527186
10
564.55000287965356
20
135.52500233527178
0
ENDSEC
0
SECTION
2
OBJECTS
0
DICTIONARY
5
C
100
AcDbDictionary
3
ACAD_GROUP
350
D
3
ACAD_MLINESTYLE
350
17
0
DICTIONARY
5
D
100
AcDbDictionary
0
DICTIONARY
5
1A
330
C
100
AcDbDictionary
0
DICTIONARY
5
17
100
AcDbDictionary
0
ENDSEC
0
EOF
